G04*
G04 #@! TF.GenerationSoftware,Altium Limited,Altium Designer,21.6.4 (81)*
G04*
G04 Layer_Color=16711935*
%FSLAX44Y44*%
%MOMM*%
G71*
G04*
G04 #@! TF.SameCoordinates,EDD580B3-B442-4452-9584-DBACCB88FA5F*
G04*
G04*
G04 #@! TF.FilePolarity,Positive*
G04*
G01*
G75*
%ADD12C,0.2540*%
%ADD13C,0.1000*%
%ADD14C,0.0700*%
%ADD15C,0.1100*%
%ADD16C,0.0600*%
%ADD17C,0.0500*%
%ADD18C,0.0127*%
D12*
X-389510Y-0D02*
G03*
X-400000Y-10000I-245J-10245D01*
G01*
X-399810Y-830000D02*
G03*
X-389810Y-840000I10000J0D01*
G01*
X-10000D02*
G03*
X0Y-830000I0J10000D01*
G01*
X-0Y-10000D02*
G03*
X-10000Y-0I-10000J0D01*
G01*
X-389510D02*
X-290000D01*
X-400000Y-10000D02*
X-399810Y-830000D01*
X-389810Y-840000D02*
X-290000D01*
Y-0D02*
X-10000D01*
X-0Y-10000D02*
X0Y-830000D01*
X-290000Y-840000D02*
X-10000D01*
D13*
X-122411Y-829090D02*
X-126409D01*
Y-827091D01*
X-125743Y-826425D01*
X-124410D01*
X-123744Y-827091D01*
Y-829090D01*
Y-827758D02*
X-122411Y-826425D01*
Y-823092D02*
Y-824425D01*
X-123077Y-825092D01*
X-124410D01*
X-125077Y-824425D01*
Y-823092D01*
X-124410Y-822426D01*
X-123744D01*
Y-825092D01*
X-122411Y-821093D02*
Y-819094D01*
X-123077Y-818427D01*
X-123744Y-819094D01*
Y-820427D01*
X-124410Y-821093D01*
X-125077Y-820427D01*
Y-818427D01*
X-122411Y-817094D02*
Y-815762D01*
Y-816428D01*
X-125077D01*
Y-817094D01*
X-122411Y-813762D02*
Y-811763D01*
X-123077Y-811096D01*
X-123744Y-811763D01*
Y-813096D01*
X-124410Y-813762D01*
X-125077Y-813096D01*
Y-811096D01*
X-125743Y-809097D02*
X-125077D01*
Y-809763D01*
Y-808431D01*
Y-809097D01*
X-123077D01*
X-122411Y-808431D01*
X-125077Y-805765D02*
Y-804432D01*
X-124410Y-803765D01*
X-122411D01*
Y-805765D01*
X-123077Y-806431D01*
X-123744Y-805765D01*
Y-803765D01*
X-122411Y-802433D02*
X-125077D01*
Y-800433D01*
X-124410Y-799767D01*
X-122411D01*
X-125077Y-795768D02*
Y-797767D01*
X-124410Y-798434D01*
X-123077D01*
X-122411Y-797767D01*
Y-795768D01*
Y-792436D02*
Y-793769D01*
X-123077Y-794435D01*
X-124410D01*
X-125077Y-793769D01*
Y-792436D01*
X-124410Y-791769D01*
X-123744D01*
Y-794435D01*
X-146309Y-429951D02*
Y-433949D01*
X-148309D01*
X-148975Y-433283D01*
Y-431950D01*
X-148309Y-431284D01*
X-146309D01*
X-147642D02*
X-148975Y-429951D01*
X-152308D02*
X-150975D01*
X-150308Y-430617D01*
Y-431950D01*
X-150975Y-432617D01*
X-152308D01*
X-152974Y-431950D01*
Y-431284D01*
X-150308D01*
X-154307Y-429951D02*
X-156306D01*
X-156973Y-430617D01*
X-156306Y-431284D01*
X-154973D01*
X-154307Y-431950D01*
X-154973Y-432617D01*
X-156973D01*
X-158306Y-429951D02*
X-159639D01*
X-158972D01*
Y-432617D01*
X-158306D01*
X-161638Y-429951D02*
X-163637D01*
X-164304Y-430617D01*
X-163637Y-431284D01*
X-162304D01*
X-161638Y-431950D01*
X-162304Y-432617D01*
X-164304D01*
X-166303Y-433283D02*
Y-432617D01*
X-165637D01*
X-166969D01*
X-166303D01*
Y-430617D01*
X-166969Y-429951D01*
X-169635Y-432617D02*
X-170968D01*
X-171635Y-431950D01*
Y-429951D01*
X-169635D01*
X-168969Y-430617D01*
X-169635Y-431284D01*
X-171635D01*
X-172967Y-429951D02*
Y-432617D01*
X-174967D01*
X-175633Y-431950D01*
Y-429951D01*
X-179632Y-432617D02*
X-177633D01*
X-176966Y-431950D01*
Y-430617D01*
X-177633Y-429951D01*
X-179632D01*
X-182964D02*
X-181631D01*
X-180965Y-430617D01*
Y-431950D01*
X-181631Y-432617D01*
X-182964D01*
X-183631Y-431950D01*
Y-431284D01*
X-180965D01*
X-147490Y-478491D02*
Y-482489D01*
X-149489D01*
X-150155Y-481823D01*
Y-480490D01*
X-149489Y-479824D01*
X-147490D01*
X-148822D02*
X-150155Y-478491D01*
X-153488D02*
X-152155D01*
X-151488Y-479157D01*
Y-480490D01*
X-152155Y-481157D01*
X-153488D01*
X-154154Y-480490D01*
Y-479824D01*
X-151488D01*
X-155487Y-478491D02*
X-157486D01*
X-158153Y-479157D01*
X-157486Y-479824D01*
X-156153D01*
X-155487Y-480490D01*
X-156153Y-481157D01*
X-158153D01*
X-159486Y-478491D02*
X-160819D01*
X-160152D01*
Y-481157D01*
X-159486D01*
X-162818Y-478491D02*
X-164817D01*
X-165484Y-479157D01*
X-164817Y-479824D01*
X-163484D01*
X-162818Y-480490D01*
X-163484Y-481157D01*
X-165484D01*
X-167483Y-481823D02*
Y-481157D01*
X-166817D01*
X-168149D01*
X-167483D01*
Y-479157D01*
X-168149Y-478491D01*
X-170815Y-481157D02*
X-172148D01*
X-172815Y-480490D01*
Y-478491D01*
X-170815D01*
X-170149Y-479157D01*
X-170815Y-479824D01*
X-172815D01*
X-174147Y-478491D02*
Y-481157D01*
X-176147D01*
X-176813Y-480490D01*
Y-478491D01*
X-180812Y-481157D02*
X-178813D01*
X-178146Y-480490D01*
Y-479157D01*
X-178813Y-478491D01*
X-180812D01*
X-184144D02*
X-182811D01*
X-182145Y-479157D01*
Y-480490D01*
X-182811Y-481157D01*
X-184144D01*
X-184811Y-480490D01*
Y-479824D01*
X-182145D01*
X-108861Y-829090D02*
X-112859D01*
Y-827091D01*
X-112193Y-826425D01*
X-110860D01*
X-110194Y-827091D01*
Y-829090D01*
Y-827758D02*
X-108861Y-826425D01*
Y-823092D02*
Y-824425D01*
X-109527Y-825092D01*
X-110860D01*
X-111526Y-824425D01*
Y-823092D01*
X-110860Y-822426D01*
X-110194D01*
Y-825092D01*
X-108861Y-821093D02*
Y-819094D01*
X-109527Y-818427D01*
X-110194Y-819094D01*
Y-820427D01*
X-110860Y-821093D01*
X-111526Y-820427D01*
Y-818427D01*
X-108861Y-817094D02*
Y-815762D01*
Y-816428D01*
X-111526D01*
Y-817094D01*
X-108861Y-813762D02*
Y-811763D01*
X-109527Y-811096D01*
X-110194Y-811763D01*
Y-813096D01*
X-110860Y-813762D01*
X-111526Y-813096D01*
Y-811096D01*
X-112193Y-809097D02*
X-111526D01*
Y-809763D01*
Y-808431D01*
Y-809097D01*
X-109527D01*
X-108861Y-808431D01*
X-111526Y-805765D02*
Y-804432D01*
X-110860Y-803765D01*
X-108861D01*
Y-805765D01*
X-109527Y-806431D01*
X-110194Y-805765D01*
Y-803765D01*
X-108861Y-802433D02*
X-111526D01*
Y-800433D01*
X-110860Y-799767D01*
X-108861D01*
X-111526Y-795768D02*
Y-797767D01*
X-110860Y-798434D01*
X-109527D01*
X-108861Y-797767D01*
Y-795768D01*
Y-792436D02*
Y-793769D01*
X-109527Y-794435D01*
X-110860D01*
X-111526Y-793769D01*
Y-792436D01*
X-110860Y-791769D01*
X-110194D01*
Y-794435D01*
X-169961Y-191570D02*
X-173959D01*
Y-189571D01*
X-173293Y-188905D01*
X-171960D01*
X-171294Y-189571D01*
Y-191570D01*
Y-190238D02*
X-169961Y-188905D01*
Y-185572D02*
Y-186905D01*
X-170627Y-187572D01*
X-171960D01*
X-172626Y-186905D01*
Y-185572D01*
X-171960Y-184906D01*
X-171294D01*
Y-187572D01*
X-169961Y-183573D02*
Y-181574D01*
X-170627Y-180907D01*
X-171294Y-181574D01*
Y-182907D01*
X-171960Y-183573D01*
X-172626Y-182907D01*
Y-180907D01*
X-169961Y-179574D02*
Y-178242D01*
Y-178908D01*
X-172626D01*
Y-179574D01*
X-169961Y-176242D02*
Y-174243D01*
X-170627Y-173576D01*
X-171294Y-174243D01*
Y-175576D01*
X-171960Y-176242D01*
X-172626Y-175576D01*
Y-173576D01*
X-173293Y-171577D02*
X-172626D01*
Y-172243D01*
Y-170911D01*
Y-171577D01*
X-170627D01*
X-169961Y-170911D01*
X-172626Y-168245D02*
Y-166912D01*
X-171960Y-166245D01*
X-169961D01*
Y-168245D01*
X-170627Y-168911D01*
X-171294Y-168245D01*
Y-166245D01*
X-169961Y-164912D02*
X-172626D01*
Y-162913D01*
X-171960Y-162247D01*
X-169961D01*
X-172626Y-158248D02*
Y-160247D01*
X-171960Y-160914D01*
X-170627D01*
X-169961Y-160247D01*
Y-158248D01*
Y-154916D02*
Y-156249D01*
X-170627Y-156915D01*
X-171960D01*
X-172626Y-156249D01*
Y-154916D01*
X-171960Y-154249D01*
X-171294D01*
Y-156915D01*
X-135961Y-829091D02*
X-139959D01*
Y-827091D01*
X-139293Y-826425D01*
X-137960D01*
X-137294Y-827091D01*
Y-829091D01*
Y-827758D02*
X-135961Y-826425D01*
Y-823092D02*
Y-824425D01*
X-136627Y-825092D01*
X-137960D01*
X-138626Y-824425D01*
Y-823092D01*
X-137960Y-822426D01*
X-137294D01*
Y-825092D01*
X-135961Y-821093D02*
Y-819094D01*
X-136627Y-818427D01*
X-137294Y-819094D01*
Y-820427D01*
X-137960Y-821093D01*
X-138626Y-820427D01*
Y-818427D01*
X-135961Y-817094D02*
Y-815762D01*
Y-816428D01*
X-138626D01*
Y-817094D01*
X-135961Y-813762D02*
Y-811763D01*
X-136627Y-811096D01*
X-137294Y-811763D01*
Y-813096D01*
X-137960Y-813762D01*
X-138626Y-813096D01*
Y-811096D01*
X-139293Y-809097D02*
X-138626D01*
Y-809763D01*
Y-808431D01*
Y-809097D01*
X-136627D01*
X-135961Y-808431D01*
X-138626Y-805765D02*
Y-804432D01*
X-137960Y-803765D01*
X-135961D01*
Y-805765D01*
X-136627Y-806431D01*
X-137294Y-805765D01*
Y-803765D01*
X-135961Y-802433D02*
X-138626D01*
Y-800433D01*
X-137960Y-799767D01*
X-135961D01*
X-138626Y-795768D02*
Y-797767D01*
X-137960Y-798434D01*
X-136627D01*
X-135961Y-797767D01*
Y-795768D01*
Y-792436D02*
Y-793769D01*
X-136627Y-794435D01*
X-137960D01*
X-138626Y-793769D01*
Y-792436D01*
X-137960Y-791769D01*
X-137294D01*
Y-794435D01*
X-148549Y-293979D02*
Y-289981D01*
X-150549D01*
X-151215Y-290647D01*
Y-291980D01*
X-150549Y-292646D01*
X-148549D01*
X-149882D02*
X-151215Y-293979D01*
X-154547D02*
X-153215D01*
X-152548Y-293313D01*
Y-291980D01*
X-153215Y-291313D01*
X-154547D01*
X-155214Y-291980D01*
Y-292646D01*
X-152548D01*
X-156547Y-293979D02*
X-158546D01*
X-159213Y-293313D01*
X-158546Y-292646D01*
X-157213D01*
X-156547Y-291980D01*
X-157213Y-291313D01*
X-159213D01*
X-160546Y-293979D02*
X-161878D01*
X-161212D01*
Y-291313D01*
X-160546D01*
X-163878Y-293979D02*
X-165877D01*
X-166544Y-293313D01*
X-165877Y-292646D01*
X-164544D01*
X-163878Y-291980D01*
X-164544Y-291313D01*
X-166544D01*
X-168543Y-290647D02*
Y-291313D01*
X-167876D01*
X-169209D01*
X-168543D01*
Y-293313D01*
X-169209Y-293979D01*
X-171875Y-291313D02*
X-173208D01*
X-173874Y-291980D01*
Y-293979D01*
X-171875D01*
X-171209Y-293313D01*
X-171875Y-292646D01*
X-173874D01*
X-175207Y-293979D02*
Y-291313D01*
X-177207D01*
X-177873Y-291980D01*
Y-293979D01*
X-181872Y-291313D02*
X-179872D01*
X-179206Y-291980D01*
Y-293313D01*
X-179872Y-293979D01*
X-181872D01*
X-185204D02*
X-183871D01*
X-183205Y-293313D01*
Y-291980D01*
X-183871Y-291313D01*
X-185204D01*
X-185871Y-291980D01*
Y-292646D01*
X-183205D01*
X-107591Y-231171D02*
Y-235169D01*
X-109591D01*
X-110257Y-234503D01*
Y-233170D01*
X-109591Y-232504D01*
X-107591D01*
X-108924D02*
X-110257Y-231171D01*
X-113589D02*
X-112256D01*
X-111590Y-231837D01*
Y-233170D01*
X-112256Y-233836D01*
X-113589D01*
X-114256Y-233170D01*
Y-232504D01*
X-111590D01*
X-115589Y-231171D02*
X-117588D01*
X-118254Y-231837D01*
X-117588Y-232504D01*
X-116255D01*
X-115589Y-233170D01*
X-116255Y-233836D01*
X-118254D01*
X-119587Y-231171D02*
X-120920D01*
X-120254D01*
Y-233836D01*
X-119587D01*
X-122920Y-231171D02*
X-124919D01*
X-125585Y-231837D01*
X-124919Y-232504D01*
X-123586D01*
X-122920Y-233170D01*
X-123586Y-233836D01*
X-125585D01*
X-127585Y-234503D02*
Y-233836D01*
X-126918D01*
X-128251D01*
X-127585D01*
Y-231837D01*
X-128251Y-231171D01*
X-130917Y-233836D02*
X-132250D01*
X-132916Y-233170D01*
Y-231171D01*
X-130917D01*
X-130251Y-231837D01*
X-130917Y-232504D01*
X-132916D01*
X-134249Y-231171D02*
Y-233836D01*
X-136249D01*
X-136915Y-233170D01*
Y-231171D01*
X-140914Y-233836D02*
X-138914D01*
X-138248Y-233170D01*
Y-231837D01*
X-138914Y-231171D01*
X-140914D01*
X-144246D02*
X-142913D01*
X-142247Y-231837D01*
Y-233170D01*
X-142913Y-233836D01*
X-144246D01*
X-144913Y-233170D01*
Y-232504D01*
X-142247D01*
X-116085Y-179139D02*
X-112086D01*
Y-181139D01*
X-112753Y-181805D01*
X-114086D01*
X-114752Y-181139D01*
Y-179139D01*
Y-180472D02*
X-116085Y-181805D01*
Y-185138D02*
Y-183805D01*
X-115419Y-183138D01*
X-114086D01*
X-113419Y-183805D01*
Y-185138D01*
X-114086Y-185804D01*
X-114752D01*
Y-183138D01*
X-116085Y-187137D02*
Y-189136D01*
X-115419Y-189803D01*
X-114752Y-189136D01*
Y-187803D01*
X-114086Y-187137D01*
X-113419Y-187803D01*
Y-189803D01*
X-116085Y-191136D02*
Y-192468D01*
Y-191802D01*
X-113419D01*
Y-191136D01*
X-116085Y-194468D02*
Y-196467D01*
X-115419Y-197134D01*
X-114752Y-196467D01*
Y-195134D01*
X-114086Y-194468D01*
X-113419Y-195134D01*
Y-197134D01*
X-112753Y-199133D02*
X-113419D01*
Y-198466D01*
Y-199799D01*
Y-199133D01*
X-115419D01*
X-116085Y-199799D01*
X-113419Y-202465D02*
Y-203798D01*
X-114086Y-204464D01*
X-116085D01*
Y-202465D01*
X-115419Y-201799D01*
X-114752Y-202465D01*
Y-204464D01*
X-116085Y-205797D02*
X-113419D01*
Y-207797D01*
X-114086Y-208463D01*
X-116085D01*
X-113419Y-212462D02*
Y-210463D01*
X-114086Y-209796D01*
X-115419D01*
X-116085Y-210463D01*
Y-212462D01*
Y-215794D02*
Y-214461D01*
X-115419Y-213795D01*
X-114086D01*
X-113419Y-214461D01*
Y-215794D01*
X-114086Y-216461D01*
X-114752D01*
Y-213795D01*
X-156641Y-157591D02*
X-160639D01*
Y-155591D01*
X-159973Y-154925D01*
X-158640D01*
X-157974Y-155591D01*
Y-157591D01*
Y-156258D02*
X-156641Y-154925D01*
Y-151593D02*
Y-152925D01*
X-157307Y-153592D01*
X-158640D01*
X-159306Y-152925D01*
Y-151593D01*
X-158640Y-150926D01*
X-157974D01*
Y-153592D01*
X-156641Y-149593D02*
Y-147594D01*
X-157307Y-146927D01*
X-157974Y-147594D01*
Y-148927D01*
X-158640Y-149593D01*
X-159306Y-148927D01*
Y-146927D01*
X-156641Y-145595D02*
Y-144262D01*
Y-144928D01*
X-159306D01*
Y-145595D01*
X-156641Y-142262D02*
Y-140263D01*
X-157307Y-139596D01*
X-157974Y-140263D01*
Y-141596D01*
X-158640Y-142262D01*
X-159306Y-141596D01*
Y-139596D01*
X-159973Y-137597D02*
X-159306D01*
Y-138264D01*
Y-136931D01*
Y-137597D01*
X-157307D01*
X-156641Y-136931D01*
X-159306Y-134265D02*
Y-132932D01*
X-158640Y-132265D01*
X-156641D01*
Y-134265D01*
X-157307Y-134931D01*
X-157974Y-134265D01*
Y-132265D01*
X-156641Y-130933D02*
X-159306D01*
Y-128933D01*
X-158640Y-128267D01*
X-156641D01*
X-159306Y-124268D02*
Y-126267D01*
X-158640Y-126934D01*
X-157307D01*
X-156641Y-126267D01*
Y-124268D01*
Y-120936D02*
Y-122269D01*
X-157307Y-122935D01*
X-158640D01*
X-159306Y-122269D01*
Y-120936D01*
X-158640Y-120269D01*
X-157974D01*
Y-122935D01*
X-15311Y-293979D02*
X-19309D01*
Y-295979D01*
X-18643Y-296645D01*
X-17310D01*
X-16644Y-295979D01*
Y-293979D01*
Y-295312D02*
X-15311Y-296645D01*
Y-299977D02*
Y-298645D01*
X-15977Y-297978D01*
X-17310D01*
X-17976Y-298645D01*
Y-299977D01*
X-17310Y-300644D01*
X-16644D01*
Y-297978D01*
X-15311Y-301977D02*
Y-303976D01*
X-15977Y-304643D01*
X-16644Y-303976D01*
Y-302643D01*
X-17310Y-301977D01*
X-17976Y-302643D01*
Y-304643D01*
X-15311Y-305975D02*
Y-307308D01*
Y-306642D01*
X-17976D01*
Y-305975D01*
X-15311Y-309308D02*
Y-311307D01*
X-15977Y-311973D01*
X-16644Y-311307D01*
Y-309974D01*
X-17310Y-309308D01*
X-17976Y-309974D01*
Y-311973D01*
X-18643Y-313973D02*
X-17976D01*
Y-313306D01*
Y-314639D01*
Y-313973D01*
X-15977D01*
X-15311Y-314639D01*
X-17976Y-317305D02*
Y-318638D01*
X-17310Y-319305D01*
X-15311D01*
Y-317305D01*
X-15977Y-316639D01*
X-16644Y-317305D01*
Y-319305D01*
X-15311Y-320637D02*
X-17976D01*
Y-322637D01*
X-17310Y-323303D01*
X-15311D01*
X-17976Y-327302D02*
Y-325303D01*
X-17310Y-324636D01*
X-15977D01*
X-15311Y-325303D01*
Y-327302D01*
Y-330634D02*
Y-329301D01*
X-15977Y-328635D01*
X-17310D01*
X-17976Y-329301D01*
Y-330634D01*
X-17310Y-331301D01*
X-16644D01*
Y-328635D01*
D14*
X-328709Y-258610D02*
X-330708D01*
Y-260110D01*
X-329709Y-259610D01*
X-329209D01*
X-328709Y-260110D01*
Y-261110D01*
X-329209Y-261609D01*
X-330209D01*
X-330708Y-261110D01*
X-327709Y-259110D02*
X-327210Y-258610D01*
X-326210D01*
X-325710Y-259110D01*
Y-261110D01*
X-326210Y-261609D01*
X-327210D01*
X-327709Y-261110D01*
Y-259110D01*
X-324710D02*
X-324211Y-258610D01*
X-323211D01*
X-322711Y-259110D01*
Y-261110D01*
X-323211Y-261609D01*
X-324211D01*
X-324710Y-261110D01*
Y-259110D01*
X-321711Y-261609D02*
X-320712D01*
X-321211D01*
Y-258610D01*
X-321711Y-259110D01*
X-113269Y-602910D02*
X-115268D01*
Y-604410D01*
X-114269Y-603910D01*
X-113769D01*
X-113269Y-604410D01*
Y-605410D01*
X-113769Y-605910D01*
X-114768D01*
X-115268Y-605410D01*
X-112269Y-603410D02*
X-111770Y-602910D01*
X-110770D01*
X-110270Y-603410D01*
Y-605410D01*
X-110770Y-605910D01*
X-111770D01*
X-112269Y-605410D01*
Y-603410D01*
X-109270D02*
X-108771Y-602910D01*
X-107771D01*
X-107271Y-603410D01*
Y-605410D01*
X-107771Y-605910D01*
X-108771D01*
X-109270Y-605410D01*
Y-603410D01*
X-106271Y-605910D02*
X-105272D01*
X-105771D01*
Y-602910D01*
X-106271Y-603410D01*
X-151429Y-403501D02*
X-153428D01*
Y-405000D01*
X-152429Y-404500D01*
X-151929D01*
X-151429Y-405000D01*
Y-406000D01*
X-151929Y-406499D01*
X-152928D01*
X-153428Y-406000D01*
X-150429Y-404000D02*
X-149930Y-403501D01*
X-148930D01*
X-148430Y-404000D01*
Y-406000D01*
X-148930Y-406499D01*
X-149930D01*
X-150429Y-406000D01*
Y-404000D01*
X-147430D02*
X-146931Y-403501D01*
X-145931D01*
X-145431Y-404000D01*
Y-406000D01*
X-145931Y-406499D01*
X-146931D01*
X-147430Y-406000D01*
Y-404000D01*
X-144431Y-406499D02*
X-143432D01*
X-143931D01*
Y-403501D01*
X-144431Y-404000D01*
X-22129Y-678501D02*
X-24128D01*
Y-680000D01*
X-23129Y-679500D01*
X-22629D01*
X-22129Y-680000D01*
Y-681000D01*
X-22629Y-681499D01*
X-23628D01*
X-24128Y-681000D01*
X-21129Y-679000D02*
X-20629Y-678501D01*
X-19630D01*
X-19130Y-679000D01*
Y-681000D01*
X-19630Y-681499D01*
X-20629D01*
X-21129Y-681000D01*
Y-679000D01*
X-18130D02*
X-17630Y-678501D01*
X-16631D01*
X-16131Y-679000D01*
Y-681000D01*
X-16631Y-681499D01*
X-17630D01*
X-18130Y-681000D01*
Y-679000D01*
X-15131Y-681499D02*
X-14132D01*
X-14631D01*
Y-678501D01*
X-15131Y-679000D01*
X-200789Y-259130D02*
X-202788D01*
Y-260630D01*
X-201789Y-260130D01*
X-201289D01*
X-200789Y-260630D01*
Y-261630D01*
X-201289Y-262129D01*
X-202288D01*
X-202788Y-261630D01*
X-199789Y-259630D02*
X-199289Y-259130D01*
X-198290D01*
X-197790Y-259630D01*
Y-261630D01*
X-198290Y-262129D01*
X-199289D01*
X-199789Y-261630D01*
Y-259630D01*
X-196790D02*
X-196290Y-259130D01*
X-195291D01*
X-194791Y-259630D01*
Y-261630D01*
X-195291Y-262129D01*
X-196290D01*
X-196790Y-261630D01*
Y-259630D01*
X-193791Y-262129D02*
X-192792D01*
X-193291D01*
Y-259130D01*
X-193791Y-259630D01*
X-21749Y-17036D02*
X-23748D01*
Y-18536D01*
X-22749Y-18036D01*
X-22249D01*
X-21749Y-18536D01*
Y-19536D01*
X-22249Y-20036D01*
X-23249D01*
X-23748Y-19536D01*
X-20749Y-17536D02*
X-20250Y-17036D01*
X-19250D01*
X-18750Y-17536D01*
Y-19536D01*
X-19250Y-20036D01*
X-20250D01*
X-20749Y-19536D01*
Y-17536D01*
X-17750D02*
X-17250Y-17036D01*
X-16251D01*
X-15751Y-17536D01*
Y-19536D01*
X-16251Y-20036D01*
X-17250D01*
X-17750Y-19536D01*
Y-17536D01*
X-14751Y-20036D02*
X-13752D01*
X-14251D01*
Y-17036D01*
X-14751Y-17536D01*
X-22015Y-272500D02*
X-24014D01*
Y-274000D01*
X-23014Y-273500D01*
X-22515D01*
X-22015Y-274000D01*
Y-275000D01*
X-22515Y-275499D01*
X-23514D01*
X-24014Y-275000D01*
X-21015Y-273000D02*
X-20515Y-272500D01*
X-19516D01*
X-19016Y-273000D01*
Y-275000D01*
X-19516Y-275499D01*
X-20515D01*
X-21015Y-275000D01*
Y-273000D01*
X-18016D02*
X-17516Y-272500D01*
X-16516D01*
X-16017Y-273000D01*
Y-275000D01*
X-16516Y-275499D01*
X-17516D01*
X-18016Y-275000D01*
Y-273000D01*
X-15017Y-275499D02*
X-14017D01*
X-14517D01*
Y-272500D01*
X-15017Y-273000D01*
X-19239Y-126151D02*
X-21238D01*
Y-127650D01*
X-20239Y-127150D01*
X-19739D01*
X-19239Y-127650D01*
Y-128650D01*
X-19739Y-129150D01*
X-20738D01*
X-21238Y-128650D01*
X-18239Y-126650D02*
X-17739Y-126151D01*
X-16740D01*
X-16240Y-126650D01*
Y-128650D01*
X-16740Y-129150D01*
X-17739D01*
X-18239Y-128650D01*
Y-126650D01*
X-15240D02*
X-14741Y-126151D01*
X-13741D01*
X-13241Y-126650D01*
Y-128650D01*
X-13741Y-129150D01*
X-14741D01*
X-15240Y-128650D01*
Y-126650D01*
X-12241Y-129150D02*
X-11242D01*
X-11741D01*
Y-126151D01*
X-12241Y-126650D01*
X-19881Y-229720D02*
X-17882D01*
Y-231220D01*
X-18881Y-230720D01*
X-19381D01*
X-19881Y-231220D01*
Y-232220D01*
X-19381Y-232719D01*
X-18382D01*
X-17882Y-232220D01*
X-20881Y-230220D02*
X-21381Y-229720D01*
X-22380D01*
X-22880Y-230220D01*
Y-232220D01*
X-22380Y-232719D01*
X-21381D01*
X-20881Y-232220D01*
Y-230220D01*
X-23880D02*
X-24379Y-229720D01*
X-25379D01*
X-25879Y-230220D01*
Y-232220D01*
X-25379Y-232719D01*
X-24379D01*
X-23880Y-232220D01*
Y-230220D01*
X-26879Y-232719D02*
X-27878D01*
X-27379D01*
Y-229720D01*
X-26879Y-230220D01*
X-141881Y-497338D02*
X-143881D01*
Y-498838D01*
X-142881Y-498338D01*
X-142381D01*
X-141881Y-498838D01*
Y-499838D01*
X-142381Y-500337D01*
X-143381D01*
X-143881Y-499838D01*
X-140882Y-497838D02*
X-140382Y-497338D01*
X-139382D01*
X-138882Y-497838D01*
Y-499838D01*
X-139382Y-500337D01*
X-140382D01*
X-140882Y-499838D01*
Y-497838D01*
X-137883D02*
X-137383Y-497338D01*
X-136383D01*
X-135883Y-497838D01*
Y-499838D01*
X-136383Y-500337D01*
X-137383D01*
X-137883Y-499838D01*
Y-497838D01*
X-134883Y-500337D02*
X-133884D01*
X-134384D01*
Y-497338D01*
X-134883Y-497838D01*
X-190639Y-511521D02*
X-192638D01*
Y-513020D01*
X-191639Y-512520D01*
X-191139D01*
X-190639Y-513020D01*
Y-514020D01*
X-191139Y-514520D01*
X-192139D01*
X-192638Y-514020D01*
X-189639Y-512020D02*
X-189139Y-511521D01*
X-188140D01*
X-187640Y-512020D01*
Y-514020D01*
X-188140Y-514520D01*
X-189139D01*
X-189639Y-514020D01*
Y-512020D01*
X-186640D02*
X-186140Y-511521D01*
X-185141D01*
X-184641Y-512020D01*
Y-514020D01*
X-185141Y-514520D01*
X-186140D01*
X-186640Y-514020D01*
Y-512020D01*
X-183641Y-514520D02*
X-182642D01*
X-183141D01*
Y-511521D01*
X-183641Y-512020D01*
X-140899Y-268820D02*
X-142898D01*
Y-270320D01*
X-141899Y-269820D01*
X-141399D01*
X-140899Y-270320D01*
Y-271320D01*
X-141399Y-271819D01*
X-142399D01*
X-142898Y-271320D01*
X-139899Y-269320D02*
X-139399Y-268820D01*
X-138400D01*
X-137900Y-269320D01*
Y-271320D01*
X-138400Y-271819D01*
X-139399D01*
X-139899Y-271320D01*
Y-269320D01*
X-136900D02*
X-136400Y-268820D01*
X-135401D01*
X-134901Y-269320D01*
Y-271320D01*
X-135401Y-271819D01*
X-136400D01*
X-136900Y-271320D01*
Y-269320D01*
X-133901Y-271819D02*
X-132902D01*
X-133401D01*
Y-268820D01*
X-133901Y-269320D01*
X-277999Y-288500D02*
X-279998D01*
Y-290000D01*
X-278999Y-289500D01*
X-278499D01*
X-277999Y-290000D01*
Y-291000D01*
X-278499Y-291500D01*
X-279499D01*
X-279998Y-291000D01*
X-276999Y-289000D02*
X-276500Y-288500D01*
X-275500D01*
X-275000Y-289000D01*
Y-291000D01*
X-275500Y-291500D01*
X-276500D01*
X-276999Y-291000D01*
Y-289000D01*
X-274000D02*
X-273500Y-288500D01*
X-272501D01*
X-272001Y-289000D01*
Y-291000D01*
X-272501Y-291500D01*
X-273500D01*
X-274000Y-291000D01*
Y-289000D01*
X-271001Y-291500D02*
X-270002D01*
X-270501D01*
Y-288500D01*
X-271001Y-289000D01*
X-191439Y-617440D02*
X-193438D01*
Y-618940D01*
X-192439Y-618440D01*
X-191939D01*
X-191439Y-618940D01*
Y-619940D01*
X-191939Y-620439D01*
X-192938D01*
X-193438Y-619940D01*
X-190439Y-617940D02*
X-189939Y-617440D01*
X-188940D01*
X-188440Y-617940D01*
Y-619940D01*
X-188940Y-620439D01*
X-189939D01*
X-190439Y-619940D01*
Y-617940D01*
X-187440D02*
X-186940Y-617440D01*
X-185941D01*
X-185441Y-617940D01*
Y-619940D01*
X-185941Y-620439D01*
X-186940D01*
X-187440Y-619940D01*
Y-617940D01*
X-184441Y-620439D02*
X-183442D01*
X-183941D01*
Y-617440D01*
X-184441Y-617940D01*
X-283929Y-326040D02*
X-285928D01*
Y-327540D01*
X-284929Y-327040D01*
X-284429D01*
X-283929Y-327540D01*
Y-328540D01*
X-284429Y-329039D01*
X-285429D01*
X-285928Y-328540D01*
X-282929Y-326540D02*
X-282430Y-326040D01*
X-281430D01*
X-280930Y-326540D01*
Y-328540D01*
X-281430Y-329039D01*
X-282430D01*
X-282929Y-328540D01*
Y-326540D01*
X-279930D02*
X-279431Y-326040D01*
X-278431D01*
X-277931Y-326540D01*
Y-328540D01*
X-278431Y-329039D01*
X-279431D01*
X-279930Y-328540D01*
Y-326540D01*
X-276931Y-329039D02*
X-275932D01*
X-276431D01*
Y-326040D01*
X-276931Y-326540D01*
X-16111Y-465511D02*
Y-463512D01*
X-17610D01*
X-17110Y-464511D01*
Y-465011D01*
X-17610Y-465511D01*
X-18610D01*
X-19109Y-465011D01*
Y-464011D01*
X-18610Y-463512D01*
X-16610Y-466511D02*
X-16111Y-467010D01*
Y-468010D01*
X-16610Y-468510D01*
X-18610D01*
X-19109Y-468010D01*
Y-467010D01*
X-18610Y-466511D01*
X-16610D01*
Y-469510D02*
X-16111Y-470010D01*
Y-471009D01*
X-16610Y-471509D01*
X-18610D01*
X-19109Y-471009D01*
Y-470010D01*
X-18610Y-469510D01*
X-16610D01*
X-19109Y-472509D02*
Y-473508D01*
Y-473009D01*
X-16111D01*
X-16610Y-472509D01*
X-274519Y-68351D02*
X-276518D01*
Y-69850D01*
X-275519Y-69350D01*
X-275019D01*
X-274519Y-69850D01*
Y-70850D01*
X-275019Y-71350D01*
X-276019D01*
X-276518Y-70850D01*
X-273519Y-68850D02*
X-273020Y-68351D01*
X-272020D01*
X-271520Y-68850D01*
Y-70850D01*
X-272020Y-71350D01*
X-273020D01*
X-273519Y-70850D01*
Y-68850D01*
X-270520D02*
X-270021Y-68351D01*
X-269021D01*
X-268521Y-68850D01*
Y-70850D01*
X-269021Y-71350D01*
X-270021D01*
X-270520Y-70850D01*
Y-68850D01*
X-267521Y-71350D02*
X-266522D01*
X-267021D01*
Y-68351D01*
X-267521Y-68850D01*
X-229969Y-713771D02*
X-231968D01*
Y-715270D01*
X-230969Y-714770D01*
X-230469D01*
X-229969Y-715270D01*
Y-716270D01*
X-230469Y-716769D01*
X-231469D01*
X-231968Y-716270D01*
X-228969Y-714270D02*
X-228470Y-713771D01*
X-227470D01*
X-226970Y-714270D01*
Y-716270D01*
X-227470Y-716769D01*
X-228470D01*
X-228969Y-716270D01*
Y-714270D01*
X-225970D02*
X-225471Y-713771D01*
X-224471D01*
X-223971Y-714270D01*
Y-716270D01*
X-224471Y-716769D01*
X-225471D01*
X-225970Y-716270D01*
Y-714270D01*
X-222971Y-716769D02*
X-221972D01*
X-222471D01*
Y-713771D01*
X-222971Y-714270D01*
X-20309Y-393910D02*
X-22308D01*
Y-395410D01*
X-21309Y-394910D01*
X-20809D01*
X-20309Y-395410D01*
Y-396410D01*
X-20809Y-396909D01*
X-21809D01*
X-22308Y-396410D01*
X-19309Y-394410D02*
X-18809Y-393910D01*
X-17810D01*
X-17310Y-394410D01*
Y-396410D01*
X-17810Y-396909D01*
X-18809D01*
X-19309Y-396410D01*
Y-394410D01*
X-16310D02*
X-15811Y-393910D01*
X-14811D01*
X-14311Y-394410D01*
Y-396410D01*
X-14811Y-396909D01*
X-15811D01*
X-16310Y-396410D01*
Y-394410D01*
X-13311Y-396909D02*
X-12312D01*
X-12811D01*
Y-393910D01*
X-13311Y-394410D01*
D15*
X-171028Y-457251D02*
X-169695D01*
X-170362D01*
Y-461249D01*
X-171028Y-460583D01*
X-167696Y-459916D02*
Y-457917D01*
X-167030Y-457251D01*
X-165030D01*
Y-459916D01*
X-161032Y-461249D02*
X-163697D01*
Y-459250D01*
X-162365D01*
X-163697D01*
Y-457251D01*
X-352801Y-373878D02*
X-356799D01*
X-352801Y-376544D01*
X-356799D01*
X-356133Y-380542D02*
X-356799Y-379876D01*
Y-378543D01*
X-356133Y-377877D01*
X-353467D01*
X-352801Y-378543D01*
Y-379876D01*
X-353467Y-380542D01*
X-143138Y-147639D02*
X-141805D01*
X-142472D01*
Y-143641D01*
X-143138Y-144307D01*
X-139806Y-144973D02*
Y-146973D01*
X-139140Y-147639D01*
X-137140D01*
Y-144973D01*
X-133142Y-143641D02*
X-135807D01*
Y-145640D01*
X-134474D01*
X-135807D01*
Y-147639D01*
X-246999Y-338082D02*
X-243001D01*
X-246999Y-335416D01*
X-243001D01*
X-243667Y-331418D02*
X-243001Y-332084D01*
Y-333417D01*
X-243667Y-334084D01*
X-246333D01*
X-246999Y-333417D01*
Y-332084D01*
X-246333Y-331418D01*
X-148886Y-203379D02*
X-147553D01*
X-148219D01*
Y-199381D01*
X-148886Y-200047D01*
X-145554Y-200714D02*
Y-202713D01*
X-144887Y-203379D01*
X-142888D01*
Y-200714D01*
X-138889Y-199381D02*
X-141555D01*
Y-201380D01*
X-140222D01*
X-141555D01*
Y-203379D01*
X-160542Y-314621D02*
X-161875D01*
X-161208D01*
Y-318619D01*
X-160542Y-317953D01*
X-163874Y-317286D02*
Y-315287D01*
X-164540Y-314621D01*
X-166540D01*
Y-317286D01*
X-170538Y-318619D02*
X-167873D01*
Y-316620D01*
X-169205D01*
X-167873D01*
Y-314621D01*
D16*
X-148966Y-318260D02*
Y-315761D01*
X-150632Y-318260D01*
Y-315761D01*
X-153131Y-316177D02*
X-152715Y-315761D01*
X-151882D01*
X-151465Y-316177D01*
Y-317843D01*
X-151882Y-318260D01*
X-152715D01*
X-153131Y-317843D01*
X-154798Y-318260D02*
X-153965Y-317427D01*
Y-316594D01*
X-154798Y-315761D01*
X-157713Y-316177D02*
X-157297Y-315761D01*
X-156464D01*
X-156047Y-316177D01*
Y-316594D01*
X-156464Y-317010D01*
X-157297D01*
X-157713Y-317427D01*
Y-317843D01*
X-157297Y-318260D01*
X-156464D01*
X-156047Y-317843D01*
X-158546Y-318260D02*
Y-315761D01*
X-160212Y-318260D01*
Y-315761D01*
X-161045D02*
X-162712D01*
Y-316177D01*
X-161045Y-317843D01*
Y-318260D01*
X-164794D02*
Y-315761D01*
X-163545Y-317010D01*
X-165211D01*
X-166044Y-315761D02*
Y-318260D01*
X-167710D01*
X-168543Y-315761D02*
Y-317427D01*
X-169376Y-318260D01*
X-170209Y-317427D01*
Y-315761D01*
X-172708Y-316177D02*
X-172292Y-315761D01*
X-171459D01*
X-171042Y-316177D01*
Y-317843D01*
X-171459Y-318260D01*
X-172292D01*
X-172708Y-317843D01*
X-175208Y-318260D02*
X-173541D01*
X-175208Y-316594D01*
Y-316177D01*
X-174791Y-315761D01*
X-173958D01*
X-173541Y-316177D01*
X-177707D02*
X-177290Y-315761D01*
X-176457D01*
X-176041Y-316177D01*
Y-317843D01*
X-176457Y-318260D01*
X-177290D01*
X-177707Y-317843D01*
Y-317010D01*
X-176874D01*
X-178540Y-318260D02*
X-179373D01*
X-178956D01*
Y-315761D01*
X-178540Y-316177D01*
X-180622Y-315761D02*
X-182288D01*
Y-316177D01*
X-180622Y-317843D01*
Y-318260D01*
X-183122D02*
X-183955Y-317427D01*
Y-316594D01*
X-183122Y-315761D01*
X-145690Y-156441D02*
X-143191D01*
Y-157691D01*
X-143608Y-158108D01*
X-144440D01*
X-144857Y-157691D01*
Y-156441D01*
Y-157275D02*
X-145690Y-158108D01*
X-143608Y-160607D02*
X-143191Y-160190D01*
Y-159357D01*
X-143608Y-158941D01*
X-144024D01*
X-144440Y-159357D01*
Y-160190D01*
X-144857Y-160607D01*
X-145274D01*
X-145690Y-160190D01*
Y-159357D01*
X-145274Y-158941D01*
X-143608Y-161440D02*
X-143191Y-161856D01*
Y-162689D01*
X-143608Y-163106D01*
X-144024D01*
X-144440Y-162689D01*
Y-162273D01*
Y-162689D01*
X-144857Y-163106D01*
X-145274D01*
X-145690Y-162689D01*
Y-161856D01*
X-145274Y-161440D01*
X-143608Y-163939D02*
X-143191Y-164356D01*
Y-165189D01*
X-143608Y-165605D01*
X-145274D01*
X-145690Y-165189D01*
Y-164356D01*
X-145274Y-163939D01*
X-143608D01*
Y-166438D02*
X-143191Y-166855D01*
Y-167688D01*
X-143608Y-168104D01*
X-145274D01*
X-145690Y-167688D01*
Y-166855D01*
X-145274Y-166438D01*
X-143608D01*
X-143191Y-168937D02*
Y-170603D01*
X-143608D01*
X-145274Y-168937D01*
X-145690D01*
X-144440Y-171437D02*
Y-173103D01*
X-144024Y-173936D02*
X-145690Y-175602D01*
X-144857Y-174769D01*
X-144024Y-175602D01*
X-145690Y-173936D01*
Y-176435D02*
X-145274D01*
Y-176851D01*
X-145690D01*
Y-176435D01*
X-144024Y-178517D02*
X-145690Y-180184D01*
X-144857Y-179351D01*
X-144024Y-180184D01*
X-145690Y-178517D01*
Y-181017D02*
X-144024D01*
X-143191Y-181850D01*
X-144024Y-182683D01*
X-145690D01*
X-144440D01*
Y-181017D01*
X-143608Y-185182D02*
X-143191Y-184765D01*
Y-183932D01*
X-143608Y-183516D01*
X-144024D01*
X-144440Y-183932D01*
Y-184765D01*
X-144857Y-185182D01*
X-145274D01*
X-145690Y-184765D01*
Y-183932D01*
X-145274Y-183516D01*
X-143191Y-186015D02*
X-143608D01*
X-144440Y-186848D01*
X-143608Y-187681D01*
X-143191D01*
X-144440Y-186848D02*
X-145690D01*
X-143191Y-190180D02*
Y-188514D01*
X-144440D01*
Y-189347D01*
Y-188514D01*
X-145690D01*
X-143191Y-192680D02*
Y-191013D01*
X-144440D01*
X-144024Y-191847D01*
Y-192263D01*
X-144440Y-192680D01*
X-145274D01*
X-145690Y-192263D01*
Y-191430D01*
X-145274Y-191013D01*
X-183984Y-460350D02*
Y-457851D01*
X-182318Y-460350D01*
Y-457851D01*
X-179819Y-458267D02*
X-180235Y-457851D01*
X-181068D01*
X-181485Y-458267D01*
Y-459934D01*
X-181068Y-460350D01*
X-180235D01*
X-179819Y-459934D01*
X-178152Y-460350D02*
X-178986Y-459517D01*
Y-458684D01*
X-178152Y-457851D01*
X-175237Y-458267D02*
X-175653Y-457851D01*
X-176486D01*
X-176903Y-458267D01*
Y-458684D01*
X-176486Y-459100D01*
X-175653D01*
X-175237Y-459517D01*
Y-459934D01*
X-175653Y-460350D01*
X-176486D01*
X-176903Y-459934D01*
X-174404Y-460350D02*
Y-457851D01*
X-172738Y-460350D01*
Y-457851D01*
X-171905D02*
X-170238D01*
Y-458267D01*
X-171905Y-459934D01*
Y-460350D01*
X-168156D02*
Y-457851D01*
X-169405Y-459100D01*
X-167739D01*
X-166906Y-457851D02*
Y-460350D01*
X-165240D01*
X-164407Y-457851D02*
Y-459517D01*
X-163574Y-460350D01*
X-162741Y-459517D01*
Y-457851D01*
X-160242Y-458267D02*
X-160658Y-457851D01*
X-161491D01*
X-161908Y-458267D01*
Y-459934D01*
X-161491Y-460350D01*
X-160658D01*
X-160242Y-459934D01*
X-157743Y-460350D02*
X-159409D01*
X-157743Y-458684D01*
Y-458267D01*
X-158159Y-457851D01*
X-158992D01*
X-159409Y-458267D01*
X-155243D02*
X-155660Y-457851D01*
X-156493D01*
X-156909Y-458267D01*
Y-459934D01*
X-156493Y-460350D01*
X-155660D01*
X-155243Y-459934D01*
Y-459100D01*
X-156076D01*
X-154410Y-460350D02*
X-153577D01*
X-153994D01*
Y-457851D01*
X-154410Y-458267D01*
X-152328Y-457851D02*
X-150661D01*
Y-458267D01*
X-152328Y-459934D01*
Y-460350D01*
X-149828D02*
X-148995Y-459517D01*
Y-458684D01*
X-149828Y-457851D01*
D17*
X-129251Y-219577D02*
X-129584Y-219244D01*
X-130251D01*
X-130584Y-219577D01*
Y-220910D01*
X-130251Y-221243D01*
X-129584D01*
X-129251Y-220910D01*
X-128251Y-221243D02*
X-127585D01*
X-127252Y-220910D01*
Y-220244D01*
X-127585Y-219910D01*
X-128251D01*
X-128584Y-220244D01*
Y-220910D01*
X-128251Y-221243D01*
X-126585D02*
X-125919D01*
X-126252D01*
Y-219244D01*
X-126585D01*
X-124586Y-221243D02*
X-123919D01*
X-123586Y-220910D01*
Y-220244D01*
X-123919Y-219910D01*
X-124586D01*
X-124919Y-220244D01*
Y-220910D01*
X-124586Y-221243D01*
X-122920Y-219910D02*
Y-221243D01*
Y-220577D01*
X-122586Y-220244D01*
X-122253Y-219910D01*
X-121920D01*
X-123743Y-780571D02*
X-123410Y-780238D01*
Y-779571D01*
X-123743Y-779238D01*
X-125076D01*
X-125410Y-779571D01*
Y-780238D01*
X-125076Y-780571D01*
X-125410Y-781571D02*
Y-782237D01*
X-125076Y-782570D01*
X-124410D01*
X-124077Y-782237D01*
Y-781571D01*
X-124410Y-781238D01*
X-125076D01*
X-125410Y-781571D01*
Y-783237D02*
Y-783903D01*
Y-783570D01*
X-123410D01*
Y-783237D01*
X-125410Y-785236D02*
Y-785903D01*
X-125076Y-786236D01*
X-124410D01*
X-124077Y-785903D01*
Y-785236D01*
X-124410Y-784903D01*
X-125076D01*
X-125410Y-785236D01*
X-124077Y-786902D02*
X-125410D01*
X-124743D01*
X-124410Y-787236D01*
X-124077Y-787569D01*
Y-787902D01*
X-134981Y-133156D02*
X-134648Y-133490D01*
X-133981D01*
X-133648Y-133156D01*
Y-131824D01*
X-133981Y-131490D01*
X-134648D01*
X-134981Y-131824D01*
X-135981Y-131490D02*
X-136647D01*
X-136980Y-131824D01*
Y-132490D01*
X-136647Y-132823D01*
X-135981D01*
X-135647Y-132490D01*
Y-131824D01*
X-135981Y-131490D01*
X-137647D02*
X-138313D01*
X-137980D01*
Y-133490D01*
X-137647D01*
X-139646Y-131490D02*
X-140313D01*
X-140646Y-131824D01*
Y-132490D01*
X-140313Y-132823D01*
X-139646D01*
X-139313Y-132490D01*
Y-131824D01*
X-139646Y-131490D01*
X-141312Y-132823D02*
Y-131490D01*
Y-132157D01*
X-141645Y-132490D01*
X-141979Y-132823D01*
X-142312D01*
X-137294Y-780571D02*
X-136960Y-780238D01*
Y-779571D01*
X-137294Y-779238D01*
X-138626D01*
X-138960Y-779571D01*
Y-780238D01*
X-138626Y-780571D01*
X-138960Y-781571D02*
Y-782237D01*
X-138626Y-782570D01*
X-137960D01*
X-137627Y-782237D01*
Y-781571D01*
X-137960Y-781238D01*
X-138626D01*
X-138960Y-781571D01*
Y-783237D02*
Y-783903D01*
Y-783570D01*
X-136960D01*
Y-783237D01*
X-138960Y-785236D02*
Y-785903D01*
X-138626Y-786236D01*
X-137960D01*
X-137627Y-785903D01*
Y-785236D01*
X-137960Y-784903D01*
X-138626D01*
X-138960Y-785236D01*
X-137627Y-786902D02*
X-138960D01*
X-138293D01*
X-137960Y-787236D01*
X-137627Y-787569D01*
Y-787902D01*
X-110194Y-780981D02*
X-109860Y-780648D01*
Y-779981D01*
X-110194Y-779648D01*
X-111526D01*
X-111860Y-779981D01*
Y-780648D01*
X-111526Y-780981D01*
X-111860Y-781981D02*
Y-782647D01*
X-111526Y-782980D01*
X-110860D01*
X-110527Y-782647D01*
Y-781981D01*
X-110860Y-781647D01*
X-111526D01*
X-111860Y-781981D01*
Y-783647D02*
Y-784313D01*
Y-783980D01*
X-109860D01*
Y-783647D01*
X-111860Y-785646D02*
Y-786313D01*
X-111526Y-786646D01*
X-110860D01*
X-110527Y-786313D01*
Y-785646D01*
X-110860Y-785313D01*
X-111526D01*
X-111860Y-785646D01*
X-110527Y-787312D02*
X-111860D01*
X-111193D01*
X-110860Y-787646D01*
X-110527Y-787979D01*
Y-788312D01*
D18*
X-126182Y-498838D02*
G03*
X-126182Y-498838I-12700J0D01*
G01*
X-147732Y-500388D02*
G03*
X-146732Y-501388I1000J0D01*
G01*
X-131032D02*
G03*
X-130032Y-500388I0J1000D01*
G01*
X-146732Y-496288D02*
G03*
X-147732Y-497288I0J-1000D01*
G01*
X-130032D02*
G03*
X-131032Y-496288I-1000J0D01*
G01*
X-131748Y-169618D02*
G03*
X-131748Y-169618I-1250J0D01*
G01*
X-160268Y-305568D02*
G03*
X-160268Y-305568I-1250J0D01*
G01*
X-170182Y-447658D02*
G03*
X-170182Y-447658I-1250J0D01*
G01*
X-167810Y-180910D02*
G03*
X-167710Y-180810I0J100D01*
G01*
X-176210D02*
G03*
X-176110Y-180910I100J0D01*
G01*
X-167710Y-165010D02*
G03*
X-167810Y-164910I-100J0D01*
G01*
X-176110D02*
G03*
X-176210Y-165010I0J-100D01*
G01*
X-118252Y-229020D02*
G03*
X-118352Y-228920I-100J0D01*
G01*
Y-237420D02*
G03*
X-118252Y-237320I0J100D01*
G01*
X-134152Y-228920D02*
G03*
X-134252Y-229020I0J-100D01*
G01*
Y-237320D02*
G03*
X-134152Y-237420I100J0D01*
G01*
X-13060Y-304740D02*
G03*
X-13160Y-304640I-100J0D01*
G01*
X-21460D02*
G03*
X-21560Y-304740I0J-100D01*
G01*
X-13160Y-320640D02*
G03*
X-13060Y-320540I0J100D01*
G01*
X-21560D02*
G03*
X-21460Y-320640I100J0D01*
G01*
X-106710Y-818430D02*
G03*
X-106610Y-818330I0J100D01*
G01*
X-115110D02*
G03*
X-115010Y-818430I100J0D01*
G01*
X-106610Y-802530D02*
G03*
X-106710Y-802430I-100J0D01*
G01*
X-115010D02*
G03*
X-115110Y-802530I0J-100D01*
G01*
X-120260Y-818430D02*
G03*
X-120160Y-818330I0J100D01*
G01*
X-128660D02*
G03*
X-128560Y-818430I100J0D01*
G01*
X-120160Y-802530D02*
G03*
X-120260Y-802430I-100J0D01*
G01*
X-128560D02*
G03*
X-128660Y-802530I0J-100D01*
G01*
X-133810Y-818430D02*
G03*
X-133710Y-818330I0J100D01*
G01*
X-142210D02*
G03*
X-142110Y-818430I100J0D01*
G01*
X-133710Y-802530D02*
G03*
X-133810Y-802430I-100J0D01*
G01*
X-142110D02*
G03*
X-142210Y-802530I0J-100D01*
G01*
X-159310Y-296230D02*
G03*
X-159210Y-296130I0J100D01*
G01*
Y-287830D02*
G03*
X-159310Y-287730I-100J0D01*
G01*
X-175210Y-296130D02*
G03*
X-175110Y-296230I100J0D01*
G01*
Y-287730D02*
G03*
X-175210Y-287830I0J-100D01*
G01*
X-158150Y-476340D02*
G03*
X-158250Y-476240I-100J0D01*
G01*
Y-484740D02*
G03*
X-158150Y-484640I0J100D01*
G01*
X-174050Y-476240D02*
G03*
X-174150Y-476340I0J-100D01*
G01*
Y-484640D02*
G03*
X-174050Y-484740I100J0D01*
G01*
X-156970Y-427800D02*
G03*
X-157070Y-427700I-100J0D01*
G01*
Y-436200D02*
G03*
X-156970Y-436100I0J100D01*
G01*
X-172870Y-427700D02*
G03*
X-172970Y-427800I0J-100D01*
G01*
Y-436100D02*
G03*
X-172870Y-436200I100J0D01*
G01*
X-118236Y-189800D02*
G03*
X-118336Y-189900I0J-100D01*
G01*
X-109836D02*
G03*
X-109936Y-189800I-100J0D01*
G01*
X-118336Y-205700D02*
G03*
X-118236Y-205800I100J0D01*
G01*
X-109936D02*
G03*
X-109836Y-205700I0J100D01*
G01*
X-154490Y-146930D02*
G03*
X-154390Y-146830I0J100D01*
G01*
X-162890D02*
G03*
X-162790Y-146930I100J0D01*
G01*
X-154390Y-131030D02*
G03*
X-154490Y-130930I-100J0D01*
G01*
X-162790D02*
G03*
X-162890Y-131030I0J-100D01*
G01*
X-9900Y-16986D02*
G03*
X-10900Y-15986I-1000J0D01*
G01*
X-26600D02*
G03*
X-27600Y-16986I0J-1000D01*
G01*
X-10900Y-21086D02*
G03*
X-9900Y-20086I0J1000D01*
G01*
X-27600D02*
G03*
X-26600Y-21086I1000J0D01*
G01*
X-6050Y-18536D02*
G03*
X-6050Y-18536I-12700J0D01*
G01*
X-266150Y-288450D02*
G03*
X-267150Y-287450I-1000J0D01*
G01*
X-282850D02*
G03*
X-283850Y-288450I0J-1000D01*
G01*
X-267150Y-292550D02*
G03*
X-266150Y-291550I0J1000D01*
G01*
X-283850D02*
G03*
X-282850Y-292550I1000J0D01*
G01*
X-262300Y-290000D02*
G03*
X-262300Y-290000I-12700J0D01*
G01*
X-188940Y-259080D02*
G03*
X-189940Y-258080I-1000J0D01*
G01*
X-205640D02*
G03*
X-206640Y-259080I0J-1000D01*
G01*
X-189940Y-263180D02*
G03*
X-188940Y-262180I0J1000D01*
G01*
X-206640D02*
G03*
X-205640Y-263180I1000J0D01*
G01*
X-185090Y-260630D02*
G03*
X-185090Y-260630I-12700J0D01*
G01*
X-179590Y-617390D02*
G03*
X-180590Y-616390I-1000J0D01*
G01*
X-196290D02*
G03*
X-197290Y-617390I0J-1000D01*
G01*
X-180590Y-621490D02*
G03*
X-179590Y-620490I0J1000D01*
G01*
X-197290D02*
G03*
X-196290Y-621490I1000J0D01*
G01*
X-175740Y-618940D02*
G03*
X-175740Y-618940I-12700J0D01*
G01*
X-218120Y-713720D02*
G03*
X-219120Y-712720I-1000J0D01*
G01*
X-234820D02*
G03*
X-235820Y-713720I0J-1000D01*
G01*
X-219120Y-717820D02*
G03*
X-218120Y-716820I0J1000D01*
G01*
X-235820D02*
G03*
X-234820Y-717820I1000J0D01*
G01*
X-214270Y-715270D02*
G03*
X-214270Y-715270I-12700J0D01*
G01*
X-7390Y-126100D02*
G03*
X-8390Y-125100I-1000J0D01*
G01*
X-24090D02*
G03*
X-25090Y-126100I0J-1000D01*
G01*
X-8390Y-130200D02*
G03*
X-7390Y-129200I0J1000D01*
G01*
X-25090D02*
G03*
X-24090Y-130200I1000J0D01*
G01*
X-3540Y-127650D02*
G03*
X-3540Y-127650I-12700J0D01*
G01*
X-16060Y-477360D02*
G03*
X-15060Y-476360I0J1000D01*
G01*
Y-460660D02*
G03*
X-16060Y-459660I-1000J0D01*
G01*
X-20160Y-476360D02*
G03*
X-19160Y-477360I1000J0D01*
G01*
Y-459660D02*
G03*
X-20160Y-460660I0J-1000D01*
G01*
X-4910Y-468510D02*
G03*
X-4910Y-468510I-12700J0D01*
G01*
X-316860Y-258560D02*
G03*
X-317860Y-257560I-1000J0D01*
G01*
X-333560D02*
G03*
X-334560Y-258560I0J-1000D01*
G01*
X-317860Y-262660D02*
G03*
X-316860Y-261660I0J1000D01*
G01*
X-334560D02*
G03*
X-333560Y-262660I1000J0D01*
G01*
X-313010Y-260110D02*
G03*
X-313010Y-260110I-12700J0D01*
G01*
X-262670Y-68300D02*
G03*
X-263670Y-67300I-1000J0D01*
G01*
X-279370D02*
G03*
X-280370Y-68300I0J-1000D01*
G01*
X-263670Y-72400D02*
G03*
X-262670Y-71400I0J1000D01*
G01*
X-280370D02*
G03*
X-279370Y-72400I1000J0D01*
G01*
X-258820Y-69850D02*
G03*
X-258820Y-69850I-12700J0D01*
G01*
X-129050Y-268770D02*
G03*
X-130050Y-267770I-1000J0D01*
G01*
X-145750D02*
G03*
X-146750Y-268770I0J-1000D01*
G01*
X-130050Y-272870D02*
G03*
X-129050Y-271870I0J1000D01*
G01*
X-146750D02*
G03*
X-145750Y-272870I1000J0D01*
G01*
X-125200Y-270320D02*
G03*
X-125200Y-270320I-12700J0D01*
G01*
X-178790Y-511470D02*
G03*
X-179790Y-510470I-1000J0D01*
G01*
X-195490D02*
G03*
X-196490Y-511470I0J-1000D01*
G01*
X-179790Y-515570D02*
G03*
X-178790Y-514570I0J1000D01*
G01*
X-196490D02*
G03*
X-195490Y-515570I1000J0D01*
G01*
X-174940Y-513020D02*
G03*
X-174940Y-513020I-12700J0D01*
G01*
X-8460Y-393860D02*
G03*
X-9460Y-392860I-1000J0D01*
G01*
X-25160D02*
G03*
X-26160Y-393860I0J-1000D01*
G01*
X-9460Y-397960D02*
G03*
X-8460Y-396960I0J1000D01*
G01*
X-26160D02*
G03*
X-25160Y-397960I1000J0D01*
G01*
X-4610Y-395410D02*
G03*
X-4610Y-395410I-12700J0D01*
G01*
X-101420Y-602860D02*
G03*
X-102420Y-601860I-1000J0D01*
G01*
X-118120D02*
G03*
X-119120Y-602860I0J-1000D01*
G01*
X-102420Y-606960D02*
G03*
X-101420Y-605960I0J1000D01*
G01*
X-119120D02*
G03*
X-118120Y-606960I1000J0D01*
G01*
X-97570Y-604410D02*
G03*
X-97570Y-604410I-12700J0D01*
G01*
X-10280Y-678450D02*
G03*
X-11280Y-677450I-1000J0D01*
G01*
X-26980D02*
G03*
X-27980Y-678450I0J-1000D01*
G01*
X-11280Y-682550D02*
G03*
X-10280Y-681550I0J1000D01*
G01*
X-27980D02*
G03*
X-26980Y-682550I1000J0D01*
G01*
X-6430Y-680000D02*
G03*
X-6430Y-680000I-12700J0D01*
G01*
X-139580Y-403450D02*
G03*
X-140580Y-402450I-1000J0D01*
G01*
X-156280D02*
G03*
X-157280Y-403450I0J-1000D01*
G01*
X-140580Y-407550D02*
G03*
X-139580Y-406550I0J1000D01*
G01*
X-157280D02*
G03*
X-156280Y-407550I1000J0D01*
G01*
X-135730Y-405000D02*
G03*
X-135730Y-405000I-12700J0D01*
G01*
X-272080Y-325990D02*
G03*
X-273080Y-324990I-1000J0D01*
G01*
X-288780D02*
G03*
X-289780Y-325990I0J-1000D01*
G01*
X-273080Y-330090D02*
G03*
X-272080Y-329090I0J1000D01*
G01*
X-289780D02*
G03*
X-288780Y-330090I1000J0D01*
G01*
X-268230Y-327540D02*
G03*
X-268230Y-327540I-12700J0D01*
G01*
X-10166Y-272450D02*
G03*
X-11166Y-271450I-1000J0D01*
G01*
X-26866D02*
G03*
X-27866Y-272450I0J-1000D01*
G01*
X-11166Y-276550D02*
G03*
X-10166Y-275550I0J1000D01*
G01*
X-27866D02*
G03*
X-26866Y-276550I1000J0D01*
G01*
X-6316Y-274000D02*
G03*
X-6316Y-274000I-12700J0D01*
G01*
X-30730Y-228670D02*
G03*
X-31730Y-229670I0J-1000D01*
G01*
X-14030D02*
G03*
X-15030Y-228670I-1000J0D01*
G01*
X-31730Y-232770D02*
G03*
X-30730Y-233770I1000J0D01*
G01*
X-15030D02*
G03*
X-14030Y-232770I0J1000D01*
G01*
X-10180Y-231220D02*
G03*
X-10180Y-231220I-12700J0D01*
G01*
X-108860Y-791980D02*
G03*
X-112860Y-791980I-2000J0D01*
G01*
Y-775980D02*
G03*
X-108860Y-775980I2000J0D01*
G01*
X-122410Y-791570D02*
G03*
X-126410Y-791570I-2000J0D01*
G01*
Y-775570D02*
G03*
X-122410Y-775570I2000J0D01*
G01*
X-135960Y-791570D02*
G03*
X-139960Y-791570I-2000J0D01*
G01*
Y-775570D02*
G03*
X-135960Y-775570I2000J0D01*
G01*
X-118252Y-218244D02*
G03*
X-118252Y-222244I0J-2000D01*
G01*
X-134252D02*
G03*
X-134252Y-218244I0J2000D01*
G01*
X-145980Y-134490D02*
G03*
X-145980Y-130490I0J2000D01*
G01*
X-129980D02*
G03*
X-129980Y-134490I0J-2000D01*
G01*
X-153040Y-39910D02*
G03*
X-153040Y-39910I-27000J0D01*
G01*
X-35180Y-783980D02*
G03*
X-35180Y-783980I-27000J0D01*
G01*
X-147732Y-500388D02*
Y-497288D01*
X-130032Y-500388D02*
Y-497288D01*
X-146732Y-501388D02*
X-131032D01*
X-146732Y-496288D02*
X-131032D01*
X-147732Y-500388D02*
X-130032D01*
X-147732Y-497288D02*
X-130032D01*
X-137440Y-189560D02*
X-132440D01*
X-156440D02*
X-151440D01*
X-146940Y-159560D02*
X-141940D01*
X-137440D02*
X-132440D01*
X-156440D02*
X-151440D01*
X-146940Y-162837D02*
X-141940D01*
X-156440D02*
X-151440D01*
X-137440D02*
X-132440D01*
X-156440Y-186283D02*
X-151440D01*
X-137440D02*
X-132440D01*
X-156440Y-185484D02*
X-151440D01*
X-137440D02*
X-132440D01*
X-146940Y-163636D02*
X-141940D01*
X-137440D02*
X-132440D01*
X-156440D02*
X-151440D01*
X-137440Y-184524D02*
X-132440D01*
X-137440Y-166560D02*
Y-159560D01*
X-132440Y-166560D02*
Y-159560D01*
X-137440Y-164596D02*
X-132440D01*
X-151440Y-166560D02*
Y-159560D01*
X-156440Y-164596D02*
X-151440D01*
X-156440Y-166560D02*
Y-159560D01*
X-132440Y-189560D02*
Y-182560D01*
X-137440Y-189560D02*
Y-182560D01*
X-156440Y-184524D02*
X-151440D01*
Y-189560D02*
Y-182560D01*
X-156440Y-189560D02*
Y-182560D01*
X-146940Y-164596D02*
X-141940D01*
X-146940Y-166560D02*
Y-159560D01*
X-141940Y-166560D02*
Y-159560D01*
X-129940Y-182560D02*
Y-166560D01*
X-130998Y-181502D02*
Y-167618D01*
X-158940Y-182560D02*
X-129940D01*
X-130998Y-181502D02*
X-129940Y-182560D01*
X-157882Y-181502D02*
X-130998D01*
X-158940Y-182560D02*
Y-166560D01*
Y-182560D02*
X-157882Y-181502D01*
Y-167618D01*
X-158940Y-166560D02*
X-129940D01*
X-158940D02*
X-157882Y-167618D01*
X-130998D01*
X-129940Y-166560D01*
X-181460Y-310010D02*
Y-305010D01*
Y-319510D02*
Y-314510D01*
X-151460Y-310010D02*
Y-305010D01*
X-181460Y-329010D02*
Y-324010D01*
X-151460Y-319510D02*
Y-314510D01*
Y-329010D02*
Y-324010D01*
X-154737Y-310010D02*
Y-305010D01*
Y-319510D02*
Y-314510D01*
Y-329010D02*
Y-324010D01*
X-178183Y-310010D02*
Y-305010D01*
Y-319510D02*
Y-314510D01*
Y-329010D02*
Y-324010D01*
X-177384Y-319510D02*
Y-314510D01*
Y-310010D02*
Y-305010D01*
Y-329010D02*
Y-324010D01*
X-155536Y-319510D02*
Y-314510D01*
Y-310010D02*
Y-305010D01*
Y-329010D02*
Y-324010D01*
X-156496Y-310010D02*
Y-305010D01*
X-176424Y-310010D02*
Y-305010D01*
X-156496Y-319510D02*
Y-314510D01*
X-176424Y-319510D02*
Y-314510D01*
X-158460Y-305010D02*
X-151460D01*
X-158460Y-310010D02*
X-151460D01*
X-176424Y-329010D02*
Y-324010D01*
X-156496Y-329010D02*
Y-324010D01*
X-158460Y-314510D02*
X-151460D01*
X-158460Y-319510D02*
X-151460D01*
X-181460Y-310010D02*
X-174460D01*
X-181460Y-305010D02*
X-174460D01*
X-181460Y-314510D02*
X-174460D01*
X-181460Y-319510D02*
X-174460D01*
X-181460Y-324010D02*
X-174460D01*
X-181460Y-329010D02*
X-174460D01*
X-158460D02*
X-151460D01*
X-158460Y-324010D02*
X-151460D01*
X-174460Y-302510D02*
X-158460D01*
X-174460Y-331510D02*
X-158460D01*
X-174460D02*
Y-302510D01*
X-173402Y-303568D01*
X-174460Y-331510D02*
X-173402Y-330452D01*
X-159518D01*
X-173402D02*
Y-303568D01*
X-159518D01*
X-158460Y-331510D02*
Y-302510D01*
X-159518Y-330452D02*
X-158460Y-331510D01*
X-159518Y-330452D02*
Y-303568D01*
X-158460Y-302510D01*
X-151490Y-452100D02*
Y-447100D01*
Y-461600D02*
Y-456600D01*
X-181490Y-452100D02*
Y-447100D01*
X-151490Y-471100D02*
Y-466100D01*
X-181490Y-461600D02*
Y-456600D01*
Y-471100D02*
Y-466100D01*
X-178213Y-452100D02*
Y-447100D01*
Y-461600D02*
Y-456600D01*
Y-471100D02*
Y-466100D01*
X-154767Y-452100D02*
Y-447100D01*
Y-461600D02*
Y-456600D01*
Y-471100D02*
Y-466100D01*
X-155566Y-461600D02*
Y-456600D01*
Y-452100D02*
Y-447100D01*
Y-471100D02*
Y-466100D01*
X-177414Y-461600D02*
Y-456600D01*
Y-452100D02*
Y-447100D01*
Y-471100D02*
Y-466100D01*
X-176454Y-452100D02*
Y-447100D01*
X-156526Y-452100D02*
Y-447100D01*
X-176454Y-461600D02*
Y-456600D01*
X-156526Y-461600D02*
Y-456600D01*
X-181490Y-447100D02*
X-174490D01*
X-181490Y-452100D02*
X-174490D01*
X-156526Y-471100D02*
Y-466100D01*
X-176454Y-471100D02*
Y-466100D01*
X-181490Y-456600D02*
X-174490D01*
X-181490Y-461600D02*
X-174490D01*
X-158490Y-452100D02*
X-151490D01*
X-158490Y-447100D02*
X-151490D01*
X-158490Y-456600D02*
X-151490D01*
X-158490Y-461600D02*
X-151490D01*
X-158490Y-466100D02*
X-151490D01*
X-158490Y-471100D02*
X-151490D01*
X-181490D02*
X-174490D01*
X-181490Y-466100D02*
X-174490D01*
Y-444600D02*
X-158490D01*
X-174490Y-473600D02*
X-158490D01*
Y-444600D01*
X-159548Y-445658D02*
X-158490Y-444600D01*
X-159548Y-472542D02*
X-158490Y-473600D01*
X-173432Y-472542D02*
X-159548D01*
Y-445658D01*
X-173432D02*
X-159548D01*
X-174490Y-473600D02*
Y-444600D01*
Y-473600D02*
X-173432Y-472542D01*
Y-445658D01*
X-174490Y-444600D02*
X-173432Y-445658D01*
X-176110Y-180910D02*
X-167810D01*
X-176210Y-178010D02*
X-167710D01*
X-176210Y-167810D02*
X-167710D01*
X-176110Y-164910D02*
X-167810D01*
X-167710Y-180810D02*
Y-165010D01*
X-176210Y-180810D02*
Y-165010D01*
X-118252Y-237320D02*
Y-229020D01*
X-121152Y-237420D02*
Y-228920D01*
X-131352Y-237420D02*
Y-228920D01*
X-134252Y-237320D02*
Y-229020D01*
X-134152Y-228920D02*
X-118352D01*
X-134152Y-237420D02*
X-118352D01*
X-21460Y-304640D02*
X-13160D01*
X-21560Y-307540D02*
X-13060D01*
X-21560Y-317740D02*
X-13060D01*
X-21460Y-320640D02*
X-13160D01*
X-13060Y-320540D02*
Y-304740D01*
X-21560Y-320540D02*
Y-304740D01*
X-115010Y-818430D02*
X-106710D01*
X-115110Y-815530D02*
X-106610D01*
X-115110Y-805330D02*
X-106610D01*
X-115010Y-802430D02*
X-106710D01*
X-106610Y-818330D02*
Y-802530D01*
X-115110Y-818330D02*
Y-802530D01*
X-128560Y-818430D02*
X-120260D01*
X-128660Y-815530D02*
X-120160D01*
X-128660Y-805330D02*
X-120160D01*
X-128560Y-802430D02*
X-120260D01*
X-120160Y-818330D02*
Y-802530D01*
X-128660Y-818330D02*
Y-802530D01*
X-142110Y-818430D02*
X-133810D01*
X-142210Y-815530D02*
X-133710D01*
X-142210Y-805330D02*
X-133710D01*
X-142110Y-802430D02*
X-133810D01*
X-133710Y-818330D02*
Y-802530D01*
X-142210Y-818330D02*
Y-802530D01*
X-159210Y-296130D02*
Y-287830D01*
X-162110Y-296230D02*
Y-287730D01*
X-172310Y-296230D02*
Y-287730D01*
X-175210Y-296130D02*
Y-287830D01*
X-175110Y-296230D02*
X-159310D01*
X-175110Y-287730D02*
X-159310D01*
X-158150Y-484640D02*
Y-476340D01*
X-161050Y-484740D02*
Y-476240D01*
X-171250Y-484740D02*
Y-476240D01*
X-174150Y-484640D02*
Y-476340D01*
X-174050Y-476240D02*
X-158250D01*
X-174050Y-484740D02*
X-158250D01*
X-156970Y-436100D02*
Y-427800D01*
X-159870Y-436200D02*
Y-427700D01*
X-170070Y-436200D02*
Y-427700D01*
X-172970Y-436100D02*
Y-427800D01*
X-172870Y-427700D02*
X-157070D01*
X-172870Y-436200D02*
X-157070D01*
X-118236Y-189800D02*
X-109936D01*
X-118336Y-192700D02*
X-109836D01*
X-118336Y-202900D02*
X-109836D01*
X-118236Y-205800D02*
X-109936D01*
X-118336Y-205700D02*
Y-189900D01*
X-109836Y-205700D02*
Y-189900D01*
X-162790Y-146930D02*
X-154490D01*
X-162890Y-144030D02*
X-154390D01*
X-162890Y-133830D02*
X-154390D01*
X-162790Y-130930D02*
X-154490D01*
X-154390Y-146830D02*
Y-131030D01*
X-162890Y-146830D02*
Y-131030D01*
X-27600Y-16986D02*
X-9900D01*
X-27600Y-20086D02*
X-9900D01*
X-26600Y-15986D02*
X-10900D01*
X-26600Y-21086D02*
X-10900D01*
X-9900Y-20086D02*
Y-16986D01*
X-27600Y-20086D02*
Y-16986D01*
X-283850Y-288450D02*
X-266150D01*
X-283850Y-291550D02*
X-266150D01*
X-282850Y-287450D02*
X-267150D01*
X-282850Y-292550D02*
X-267150D01*
X-266150Y-291550D02*
Y-288450D01*
X-283850Y-291550D02*
Y-288450D01*
X-206640Y-259080D02*
X-188940D01*
X-206640Y-262180D02*
X-188940D01*
X-205640Y-258080D02*
X-189940D01*
X-205640Y-263180D02*
X-189940D01*
X-188940Y-262180D02*
Y-259080D01*
X-206640Y-262180D02*
Y-259080D01*
X-197290Y-617390D02*
X-179590D01*
X-197290Y-620490D02*
X-179590D01*
X-196290Y-616390D02*
X-180590D01*
X-196290Y-621490D02*
X-180590D01*
X-179590Y-620490D02*
Y-617390D01*
X-197290Y-620490D02*
Y-617390D01*
X-235820Y-713720D02*
X-218120D01*
X-235820Y-716820D02*
X-218120D01*
X-234820Y-712720D02*
X-219120D01*
X-234820Y-717820D02*
X-219120D01*
X-218120Y-716820D02*
Y-713720D01*
X-235820Y-716820D02*
Y-713720D01*
X-25090Y-126100D02*
X-7390D01*
X-25090Y-129200D02*
X-7390D01*
X-24090Y-125100D02*
X-8390D01*
X-24090Y-130200D02*
X-8390D01*
X-7390Y-129200D02*
Y-126100D01*
X-25090Y-129200D02*
Y-126100D01*
X-16060Y-477360D02*
Y-459660D01*
X-19160Y-477360D02*
Y-459660D01*
X-15060Y-476360D02*
Y-460660D01*
X-20160Y-476360D02*
Y-460660D01*
X-19160Y-477360D02*
X-16060D01*
X-19160Y-459660D02*
X-16060D01*
X-334560Y-258560D02*
X-316860D01*
X-334560Y-261660D02*
X-316860D01*
X-333560Y-257560D02*
X-317860D01*
X-333560Y-262660D02*
X-317860D01*
X-316860Y-261660D02*
Y-258560D01*
X-334560Y-261660D02*
Y-258560D01*
X-280370Y-68300D02*
X-262670D01*
X-280370Y-71400D02*
X-262670D01*
X-279370Y-67300D02*
X-263670D01*
X-279370Y-72400D02*
X-263670D01*
X-262670Y-71400D02*
Y-68300D01*
X-280370Y-71400D02*
Y-68300D01*
X-146750Y-268770D02*
X-129050D01*
X-146750Y-271870D02*
X-129050D01*
X-145750Y-267770D02*
X-130050D01*
X-145750Y-272870D02*
X-130050D01*
X-129050Y-271870D02*
Y-268770D01*
X-146750Y-271870D02*
Y-268770D01*
X-196490Y-511470D02*
X-178790D01*
X-196490Y-514570D02*
X-178790D01*
X-195490Y-510470D02*
X-179790D01*
X-195490Y-515570D02*
X-179790D01*
X-178790Y-514570D02*
Y-511470D01*
X-196490Y-514570D02*
Y-511470D01*
X-26160Y-393860D02*
X-8460D01*
X-26160Y-396960D02*
X-8460D01*
X-25160Y-392860D02*
X-9460D01*
X-25160Y-397960D02*
X-9460D01*
X-8460Y-396960D02*
Y-393860D01*
X-26160Y-396960D02*
Y-393860D01*
X-119120Y-602860D02*
X-101420D01*
X-119120Y-605960D02*
X-101420D01*
X-118120Y-601860D02*
X-102420D01*
X-118120Y-606960D02*
X-102420D01*
X-101420Y-605960D02*
Y-602860D01*
X-119120Y-605960D02*
Y-602860D01*
X-27980Y-678450D02*
X-10280D01*
X-27980Y-681550D02*
X-10280D01*
X-26980Y-677450D02*
X-11280D01*
X-26980Y-682550D02*
X-11280D01*
X-10280Y-681550D02*
Y-678450D01*
X-27980Y-681550D02*
Y-678450D01*
X-157280Y-403450D02*
X-139580D01*
X-157280Y-406550D02*
X-139580D01*
X-156280Y-402450D02*
X-140580D01*
X-156280Y-407550D02*
X-140580D01*
X-139580Y-406550D02*
Y-403450D01*
X-157280Y-406550D02*
Y-403450D01*
X-289780Y-325990D02*
X-272080D01*
X-289780Y-329090D02*
X-272080D01*
X-288780Y-324990D02*
X-273080D01*
X-288780Y-330090D02*
X-273080D01*
X-272080Y-329090D02*
Y-325990D01*
X-289780Y-329090D02*
Y-325990D01*
X-27866Y-272450D02*
X-10166D01*
X-27866Y-275550D02*
X-10166D01*
X-26866Y-271450D02*
X-11166D01*
X-26866Y-276550D02*
X-11166D01*
X-10166Y-275550D02*
Y-272450D01*
X-27866Y-275550D02*
Y-272450D01*
X-31730Y-229670D02*
X-14030D01*
X-31730Y-232770D02*
X-14030D01*
X-30730Y-228670D02*
X-15030D01*
X-30730Y-233770D02*
X-15030D01*
X-31730Y-232770D02*
Y-229670D01*
X-14030Y-232770D02*
Y-229670D01*
X-106860Y-791980D02*
Y-775980D01*
X-114860Y-791980D02*
Y-775980D01*
Y-788980D02*
X-106860D01*
X-114860Y-788680D02*
X-106860D01*
X-114860Y-778980D02*
X-106860D01*
X-114860Y-779280D02*
X-106860D01*
X-108860Y-791980D02*
X-106860D01*
X-114860D02*
X-112860D01*
X-108860Y-775980D02*
X-106860D01*
X-114860D02*
X-112860D01*
X-120410Y-791570D02*
Y-775570D01*
X-128410Y-791570D02*
Y-775570D01*
Y-788570D02*
X-120410D01*
X-128410Y-788270D02*
X-120410D01*
X-128410Y-778570D02*
X-120410D01*
X-128410Y-778870D02*
X-120410D01*
X-122410Y-791570D02*
X-120410D01*
X-128410D02*
X-126410D01*
X-122410Y-775570D02*
X-120410D01*
X-128410D02*
X-126410D01*
X-133960Y-791570D02*
Y-775570D01*
X-141960Y-791570D02*
Y-775570D01*
Y-788570D02*
X-133960D01*
X-141960Y-788270D02*
X-133960D01*
X-141960Y-778570D02*
X-133960D01*
X-141960Y-778870D02*
X-133960D01*
X-135960Y-791570D02*
X-133960D01*
X-141960D02*
X-139960D01*
X-135960Y-775570D02*
X-133960D01*
X-141960D02*
X-139960D01*
X-134252Y-216244D02*
X-118252D01*
X-134252Y-224244D02*
X-118252D01*
X-121252D02*
Y-216244D01*
X-121552Y-224244D02*
Y-216244D01*
X-131252Y-224244D02*
Y-216244D01*
X-130952Y-224244D02*
Y-216244D01*
X-118252Y-218244D02*
Y-216244D01*
Y-224244D02*
Y-222244D01*
X-134252Y-218244D02*
Y-216244D01*
Y-224244D02*
Y-222244D01*
X-145980Y-136490D02*
X-129980D01*
X-145980Y-128490D02*
X-129980D01*
X-142980Y-136490D02*
Y-128490D01*
X-142680Y-136490D02*
Y-128490D01*
X-132980Y-136490D02*
Y-128490D01*
X-133280Y-136490D02*
Y-128490D01*
X-145980Y-136490D02*
Y-134490D01*
Y-130490D02*
Y-128490D01*
X-129980Y-136490D02*
Y-134490D01*
Y-130490D02*
Y-128490D01*
X-358800Y-385210D02*
X-350800D01*
Y-381210D01*
X-358800D02*
X-350800D01*
X-358800Y-385210D02*
Y-381210D01*
Y-369210D02*
X-350800D01*
Y-373210D02*
Y-369210D01*
X-358800Y-373210D02*
X-350800D01*
X-358800D02*
Y-369210D01*
X-358700Y-381210D02*
Y-373210D01*
X-350900Y-381210D02*
Y-373210D01*
X-249000Y-326750D02*
X-241000D01*
X-249000Y-330750D02*
Y-326750D01*
Y-330750D02*
X-241000D01*
Y-326750D01*
X-249000Y-342750D02*
X-241000D01*
X-249000D02*
Y-338750D01*
X-241000D01*
Y-342750D02*
Y-338750D01*
X-241100D02*
Y-330750D01*
X-248900Y-338750D02*
Y-330750D01*
X-135887Y-205380D02*
Y-197380D01*
X-139888Y-205380D02*
X-135887D01*
X-139888D02*
Y-197380D01*
X-135887D01*
X-151888Y-205380D02*
Y-197380D01*
Y-205380D02*
X-147887D01*
Y-197380D01*
X-151888D02*
X-147887D01*
Y-197480D02*
X-139888D01*
X-147887Y-205280D02*
X-139888D01*
X-130140Y-149640D02*
Y-141640D01*
X-134140Y-149640D02*
X-130140D01*
X-134140D02*
Y-141640D01*
X-130140D01*
X-146140Y-149640D02*
Y-141640D01*
Y-149640D02*
X-142140D01*
Y-141640D01*
X-146140D02*
X-142140D01*
Y-141740D02*
X-134140D01*
X-142140Y-149540D02*
X-134140D01*
X-173540Y-320620D02*
Y-312620D01*
X-169540D01*
Y-320620D02*
Y-312620D01*
X-173540Y-320620D02*
X-169540D01*
X-157540D02*
Y-312620D01*
X-161540D02*
X-157540D01*
X-161540Y-320620D02*
Y-312620D01*
Y-320620D02*
X-157540D01*
X-169540Y-320520D02*
X-161540D01*
X-169540Y-312720D02*
X-161540D01*
X-158030Y-463250D02*
Y-455250D01*
X-162030D02*
X-158030D01*
X-162030Y-463250D02*
Y-455250D01*
Y-463250D02*
X-158030D01*
X-174030D02*
Y-455250D01*
X-170030D01*
Y-463250D02*
Y-455250D01*
X-174030Y-463250D02*
X-170030D01*
Y-463150D02*
X-162030D01*
X-170030Y-455350D02*
X-162030D01*
X-191731Y-33160D02*
X-180040Y-26410D01*
X-191731Y-46660D02*
X-180040Y-53410D01*
Y-26410D02*
X-168349Y-33160D01*
X-180040Y-53410D02*
X-168349Y-46660D01*
Y-33160D01*
X-191731Y-46660D02*
Y-33160D01*
X-73871Y-790730D02*
Y-777230D01*
X-50489Y-790730D02*
Y-777230D01*
X-62180Y-797480D02*
X-50489Y-790730D01*
X-62180Y-770480D02*
X-50489Y-777230D01*
X-73871Y-790730D02*
X-62180Y-797480D01*
X-73871Y-777230D02*
X-62180Y-770480D01*
M02*
