G04*
G04 #@! TF.GenerationSoftware,Altium Limited,Altium Designer,21.6.4 (81)*
G04*
G04 Layer_Color=255*
%FSLAX44Y44*%
%MOMM*%
G71*
G04*
G04 #@! TF.SameCoordinates,780AAD6F-6990-4CCC-B8E7-168995FE4FAA*
G04*
G04*
G04 #@! TF.FilePolarity,Positive*
G04*
G01*
G75*
G04:AMPARAMS|DCode=13|XSize=1mm|YSize=0.8mm|CornerRadius=0.2mm|HoleSize=0mm|Usage=FLASHONLY|Rotation=180.000|XOffset=0mm|YOffset=0mm|HoleType=Round|Shape=RoundedRectangle|*
%AMROUNDEDRECTD13*
21,1,1.0000,0.4000,0,0,180.0*
21,1,0.6000,0.8000,0,0,180.0*
1,1,0.4000,-0.3000,0.2000*
1,1,0.4000,0.3000,0.2000*
1,1,0.4000,0.3000,-0.2000*
1,1,0.4000,-0.3000,-0.2000*
%
%ADD13ROUNDEDRECTD13*%
G04:AMPARAMS|DCode=14|XSize=1mm|YSize=0.8mm|CornerRadius=0.2mm|HoleSize=0mm|Usage=FLASHONLY|Rotation=90.000|XOffset=0mm|YOffset=0mm|HoleType=Round|Shape=RoundedRectangle|*
%AMROUNDEDRECTD14*
21,1,1.0000,0.4000,0,0,90.0*
21,1,0.6000,0.8000,0,0,90.0*
1,1,0.4000,0.2000,0.3000*
1,1,0.4000,0.2000,-0.3000*
1,1,0.4000,-0.2000,-0.3000*
1,1,0.4000,-0.2000,0.3000*
%
%ADD14ROUNDEDRECTD14*%
G04:AMPARAMS|DCode=15|XSize=0.8mm|YSize=0.8mm|CornerRadius=0.08mm|HoleSize=0mm|Usage=FLASHONLY|Rotation=0.000|XOffset=0mm|YOffset=0mm|HoleType=Round|Shape=RoundedRectangle|*
%AMROUNDEDRECTD15*
21,1,0.8000,0.6400,0,0,0.0*
21,1,0.6400,0.8000,0,0,0.0*
1,1,0.1600,0.3200,-0.3200*
1,1,0.1600,-0.3200,-0.3200*
1,1,0.1600,-0.3200,0.3200*
1,1,0.1600,0.3200,0.3200*
%
%ADD15ROUNDEDRECTD15*%
%ADD24C,1.8000*%
%ADD25C,5.0000*%
%ADD26C,1.5240*%
%ADD27C,4.8000*%
D13*
X-67750Y-322701D02*
D03*
Y-338701D02*
D03*
X-278000Y-322500D02*
D03*
Y-306500D02*
D03*
D14*
X-139000Y-398400D02*
D03*
X-155000D02*
D03*
X-145500Y-675750D02*
D03*
X-161500D02*
D03*
X-145500Y-662860D02*
D03*
X-161500D02*
D03*
X-145500Y-689000D02*
D03*
X-161500D02*
D03*
X-148500Y-335750D02*
D03*
X-132500D02*
D03*
X-120250Y-296000D02*
D03*
X-136250D02*
D03*
X-83500Y-500000D02*
D03*
X-99500D02*
D03*
D15*
X-191000Y-662860D02*
D03*
X-176000D02*
D03*
X-191000Y-689000D02*
D03*
X-176000D02*
D03*
X-191000Y-675751D02*
D03*
X-176000D02*
D03*
D24*
X-44620Y-322200D02*
D03*
Y-525400D02*
D03*
Y-347600D02*
D03*
Y-373000D02*
D03*
Y-398400D02*
D03*
Y-423800D02*
D03*
Y-449200D02*
D03*
Y-474600D02*
D03*
Y-500000D02*
D03*
Y-550800D02*
D03*
D25*
X-174660Y-138910D02*
D03*
X-174660Y-734090D02*
D03*
D26*
X-230000Y-705800D02*
D03*
X-255400Y-45400D02*
D03*
Y-70800D02*
D03*
Y-96200D02*
D03*
Y-121600D02*
D03*
Y-147000D02*
D03*
Y-172400D02*
D03*
Y-197800D02*
D03*
Y-223200D02*
D03*
Y-248600D02*
D03*
Y-274000D02*
D03*
Y-299400D02*
D03*
Y-324800D02*
D03*
Y-350200D02*
D03*
Y-375600D02*
D03*
Y-401000D02*
D03*
Y-426400D02*
D03*
Y-451800D02*
D03*
Y-477200D02*
D03*
Y-502600D02*
D03*
Y-528000D02*
D03*
Y-553400D02*
D03*
Y-578800D02*
D03*
Y-604200D02*
D03*
Y-629600D02*
D03*
Y-655000D02*
D03*
Y-680400D02*
D03*
Y-705800D02*
D03*
X-230000Y-45400D02*
D03*
Y-70800D02*
D03*
Y-96200D02*
D03*
Y-121600D02*
D03*
Y-147000D02*
D03*
Y-172400D02*
D03*
Y-197800D02*
D03*
Y-223200D02*
D03*
Y-248600D02*
D03*
Y-274000D02*
D03*
Y-299400D02*
D03*
Y-324800D02*
D03*
Y-350200D02*
D03*
Y-375600D02*
D03*
Y-401000D02*
D03*
Y-426400D02*
D03*
Y-451800D02*
D03*
Y-477200D02*
D03*
Y-502600D02*
D03*
Y-528000D02*
D03*
Y-553400D02*
D03*
Y-578800D02*
D03*
Y-604200D02*
D03*
Y-629600D02*
D03*
Y-655000D02*
D03*
Y-680400D02*
D03*
X-255400Y-731200D02*
D03*
X-230000D02*
D03*
X-255400Y-20000D02*
D03*
X-230000D02*
D03*
D27*
X-360039Y-39910D02*
D03*
X-242180Y-783980D02*
D03*
M02*
