G04*
G04 #@! TF.GenerationSoftware,Altium Limited,Altium Designer,21.6.4 (81)*
G04*
G04 Layer_Color=32896*
%FSLAX44Y44*%
%MOMM*%
G71*
G04*
G04 #@! TF.SameCoordinates,EDD580B3-B442-4452-9584-DBACCB88FA5F*
G04*
G04*
G04 #@! TF.FilePolarity,Positive*
G04*
G01*
G75*
%ADD10C,0.2000*%
%ADD11C,0.1500*%
%ADD12C,0.2540*%
%ADD13C,0.1000*%
%ADD14C,0.0700*%
%ADD15C,0.1100*%
%ADD16C,0.0600*%
%ADD17C,0.0500*%
%ADD18C,0.0127*%
G36*
X-163960Y-332010D02*
Y-302010D01*
X-168960D01*
Y-332010D01*
X-163960D01*
D02*
G37*
G36*
X-198961Y-664070D02*
X-200535D01*
Y-662274D01*
X-198961D01*
Y-664070D01*
D02*
G37*
G36*
X-350298D02*
X-351871D01*
Y-662274D01*
X-350298D01*
Y-664070D01*
D02*
G37*
G36*
X-237791Y-675087D02*
X-239365D01*
Y-670014D01*
X-239383Y-669625D01*
X-239402Y-669292D01*
X-239439Y-668995D01*
X-239494Y-668755D01*
X-239550Y-668569D01*
X-239587Y-668421D01*
X-239605Y-668347D01*
X-239624Y-668310D01*
X-239735Y-668088D01*
X-239865Y-667884D01*
X-240013Y-667718D01*
X-240161Y-667570D01*
X-240290Y-667458D01*
X-240401Y-667384D01*
X-240476Y-667329D01*
X-240494Y-667310D01*
X-240735Y-667181D01*
X-240957Y-667088D01*
X-241179Y-667032D01*
X-241364Y-666977D01*
X-241550Y-666958D01*
X-241679Y-666940D01*
X-241790D01*
X-242124Y-666958D01*
X-242420Y-667032D01*
X-242661Y-667106D01*
X-242864Y-667218D01*
X-243031Y-667310D01*
X-243142Y-667403D01*
X-243216Y-667477D01*
X-243235Y-667495D01*
X-243401Y-667718D01*
X-243531Y-667995D01*
X-243623Y-668273D01*
X-243697Y-668551D01*
X-243734Y-668810D01*
X-243753Y-669014D01*
Y-669088D01*
Y-669143D01*
Y-669180D01*
Y-669199D01*
Y-675087D01*
X-245327D01*
Y-669217D01*
X-245308Y-668736D01*
X-245271Y-668310D01*
X-245216Y-667958D01*
X-245160Y-667662D01*
X-245105Y-667421D01*
X-245049Y-667255D01*
X-245012Y-667162D01*
X-244994Y-667125D01*
X-244846Y-666866D01*
X-244679Y-666644D01*
X-244494Y-666459D01*
X-244327Y-666292D01*
X-244160Y-666162D01*
X-244031Y-666070D01*
X-243938Y-666014D01*
X-243901Y-665995D01*
X-243605Y-665866D01*
X-243309Y-665755D01*
X-243012Y-665681D01*
X-242735Y-665644D01*
X-242494Y-665607D01*
X-242290Y-665588D01*
X-242124D01*
X-241827Y-665607D01*
X-241531Y-665644D01*
X-241253Y-665699D01*
X-240994Y-665792D01*
X-240513Y-665995D01*
X-240309Y-666107D01*
X-240124Y-666218D01*
X-239957Y-666347D01*
X-239790Y-666459D01*
X-239661Y-666570D01*
X-239568Y-666662D01*
X-239476Y-666755D01*
X-239420Y-666810D01*
X-239383Y-666847D01*
X-239365Y-666866D01*
Y-662274D01*
X-237791D01*
Y-675087D01*
D02*
G37*
G36*
X-304987Y-665607D02*
X-304599Y-665644D01*
X-304228Y-665699D01*
X-303932Y-665755D01*
X-303673Y-665810D01*
X-303488Y-665866D01*
X-303414Y-665884D01*
X-303358Y-665903D01*
X-303339Y-665921D01*
X-303321D01*
X-303006Y-666051D01*
X-302728Y-666218D01*
X-302488Y-666366D01*
X-302284Y-666514D01*
X-302136Y-666662D01*
X-302025Y-666773D01*
X-301951Y-666847D01*
X-301932Y-666866D01*
X-301765Y-667106D01*
X-301617Y-667366D01*
X-301506Y-667625D01*
X-301414Y-667866D01*
X-301340Y-668106D01*
X-301284Y-668273D01*
X-301266Y-668347D01*
Y-668403D01*
X-301247Y-668421D01*
Y-668440D01*
X-302784Y-668643D01*
X-302895Y-668310D01*
X-303006Y-668014D01*
X-303136Y-667773D01*
X-303247Y-667588D01*
X-303358Y-667440D01*
X-303451Y-667347D01*
X-303525Y-667292D01*
X-303543Y-667273D01*
X-303765Y-667144D01*
X-304025Y-667051D01*
X-304302Y-666977D01*
X-304562Y-666940D01*
X-304821Y-666903D01*
X-305006Y-666884D01*
X-305191D01*
X-305617Y-666903D01*
X-305987Y-666958D01*
X-306284Y-667051D01*
X-306543Y-667144D01*
X-306728Y-667255D01*
X-306876Y-667329D01*
X-306969Y-667403D01*
X-306987Y-667421D01*
X-307135Y-667588D01*
X-307246Y-667792D01*
X-307339Y-668014D01*
X-307395Y-668236D01*
X-307432Y-668440D01*
X-307450Y-668625D01*
Y-668736D01*
Y-668755D01*
Y-668773D01*
Y-668810D01*
Y-668884D01*
Y-669014D01*
X-307432Y-669125D01*
Y-669162D01*
Y-669180D01*
X-307246Y-669236D01*
X-307043Y-669292D01*
X-306617Y-669403D01*
X-306136Y-669495D01*
X-305691Y-669588D01*
X-305469Y-669625D01*
X-305265Y-669643D01*
X-305080Y-669680D01*
X-304932Y-669699D01*
X-304802Y-669717D01*
X-304710D01*
X-304636Y-669736D01*
X-304617D01*
X-304284Y-669773D01*
X-304006Y-669828D01*
X-303765Y-669865D01*
X-303580Y-669902D01*
X-303432Y-669921D01*
X-303321Y-669958D01*
X-303247Y-669977D01*
X-303228D01*
X-302988Y-670051D01*
X-302784Y-670125D01*
X-302580Y-670217D01*
X-302414Y-670291D01*
X-302265Y-670366D01*
X-302173Y-670440D01*
X-302099Y-670477D01*
X-302080Y-670495D01*
X-301895Y-670625D01*
X-301747Y-670773D01*
X-301599Y-670921D01*
X-301488Y-671069D01*
X-301395Y-671199D01*
X-301321Y-671310D01*
X-301284Y-671384D01*
X-301266Y-671402D01*
X-301173Y-671606D01*
X-301099Y-671828D01*
X-301043Y-672032D01*
X-301006Y-672236D01*
X-300988Y-672402D01*
X-300969Y-672532D01*
Y-672606D01*
Y-672643D01*
X-300988Y-672865D01*
X-301006Y-673050D01*
X-301099Y-673439D01*
X-301229Y-673754D01*
X-301377Y-674032D01*
X-301525Y-674254D01*
X-301654Y-674421D01*
X-301747Y-674513D01*
X-301784Y-674550D01*
X-302117Y-674791D01*
X-302488Y-674976D01*
X-302895Y-675106D01*
X-303265Y-675198D01*
X-303599Y-675254D01*
X-303747Y-675272D01*
X-303876D01*
X-303988Y-675291D01*
X-304136D01*
X-304469Y-675272D01*
X-304802Y-675235D01*
X-305098Y-675198D01*
X-305358Y-675143D01*
X-305561Y-675087D01*
X-305728Y-675032D01*
X-305839Y-675013D01*
X-305876Y-674995D01*
X-306191Y-674865D01*
X-306487Y-674698D01*
X-306765Y-674513D01*
X-307043Y-674346D01*
X-307265Y-674180D01*
X-307432Y-674050D01*
X-307543Y-673958D01*
X-307561Y-673921D01*
X-307580D01*
X-307617Y-674161D01*
X-307654Y-674384D01*
X-307691Y-674587D01*
X-307746Y-674754D01*
X-307802Y-674902D01*
X-307839Y-674995D01*
X-307857Y-675069D01*
X-307876Y-675087D01*
X-309524D01*
X-309431Y-674883D01*
X-309339Y-674680D01*
X-309265Y-674495D01*
X-309228Y-674328D01*
X-309172Y-674180D01*
X-309154Y-674069D01*
X-309135Y-673995D01*
Y-673976D01*
X-309117Y-673847D01*
X-309098Y-673680D01*
Y-673495D01*
X-309080Y-673291D01*
X-309061Y-672828D01*
Y-672365D01*
X-309043Y-671921D01*
Y-671717D01*
Y-671551D01*
Y-671402D01*
Y-671291D01*
Y-671217D01*
Y-671199D01*
Y-669088D01*
Y-668736D01*
X-309024Y-668421D01*
X-309006Y-668180D01*
Y-667977D01*
X-308987Y-667829D01*
X-308969Y-667718D01*
X-308950Y-667662D01*
Y-667644D01*
X-308894Y-667403D01*
X-308820Y-667199D01*
X-308746Y-667032D01*
X-308654Y-666866D01*
X-308580Y-666755D01*
X-308524Y-666662D01*
X-308487Y-666607D01*
X-308468Y-666588D01*
X-308320Y-666440D01*
X-308154Y-666292D01*
X-307969Y-666181D01*
X-307783Y-666070D01*
X-307617Y-665995D01*
X-307487Y-665940D01*
X-307395Y-665903D01*
X-307358Y-665884D01*
X-307061Y-665792D01*
X-306747Y-665718D01*
X-306432Y-665662D01*
X-306117Y-665625D01*
X-305839Y-665607D01*
X-305636Y-665588D01*
X-305432D01*
X-304987Y-665607D01*
D02*
G37*
G36*
X-343817D02*
X-343428Y-665644D01*
X-343058Y-665699D01*
X-342761Y-665755D01*
X-342502Y-665810D01*
X-342317Y-665866D01*
X-342243Y-665884D01*
X-342187Y-665903D01*
X-342169Y-665921D01*
X-342150D01*
X-341836Y-666051D01*
X-341558Y-666218D01*
X-341317Y-666366D01*
X-341113Y-666514D01*
X-340965Y-666662D01*
X-340854Y-666773D01*
X-340780Y-666847D01*
X-340761Y-666866D01*
X-340595Y-667106D01*
X-340447Y-667366D01*
X-340336Y-667625D01*
X-340243Y-667866D01*
X-340169Y-668106D01*
X-340113Y-668273D01*
X-340095Y-668347D01*
Y-668403D01*
X-340076Y-668421D01*
Y-668440D01*
X-341613Y-668643D01*
X-341724Y-668310D01*
X-341836Y-668014D01*
X-341965Y-667773D01*
X-342076Y-667588D01*
X-342187Y-667440D01*
X-342280Y-667347D01*
X-342354Y-667292D01*
X-342372Y-667273D01*
X-342595Y-667144D01*
X-342854Y-667051D01*
X-343132Y-666977D01*
X-343391Y-666940D01*
X-343650Y-666903D01*
X-343835Y-666884D01*
X-344020D01*
X-344446Y-666903D01*
X-344817Y-666958D01*
X-345113Y-667051D01*
X-345372Y-667144D01*
X-345557Y-667255D01*
X-345705Y-667329D01*
X-345798Y-667403D01*
X-345816Y-667421D01*
X-345965Y-667588D01*
X-346076Y-667792D01*
X-346168Y-668014D01*
X-346224Y-668236D01*
X-346261Y-668440D01*
X-346279Y-668625D01*
Y-668736D01*
Y-668755D01*
Y-668773D01*
Y-668810D01*
Y-668884D01*
Y-669014D01*
X-346261Y-669125D01*
Y-669162D01*
Y-669180D01*
X-346076Y-669236D01*
X-345872Y-669292D01*
X-345446Y-669403D01*
X-344965Y-669495D01*
X-344520Y-669588D01*
X-344298Y-669625D01*
X-344095Y-669643D01*
X-343909Y-669680D01*
X-343761Y-669699D01*
X-343632Y-669717D01*
X-343539D01*
X-343465Y-669736D01*
X-343446D01*
X-343113Y-669773D01*
X-342835Y-669828D01*
X-342595Y-669865D01*
X-342410Y-669902D01*
X-342261Y-669921D01*
X-342150Y-669958D01*
X-342076Y-669977D01*
X-342058D01*
X-341817Y-670051D01*
X-341613Y-670125D01*
X-341410Y-670217D01*
X-341243Y-670291D01*
X-341095Y-670366D01*
X-341002Y-670440D01*
X-340928Y-670477D01*
X-340910Y-670495D01*
X-340724Y-670625D01*
X-340576Y-670773D01*
X-340428Y-670921D01*
X-340317Y-671069D01*
X-340224Y-671199D01*
X-340150Y-671310D01*
X-340113Y-671384D01*
X-340095Y-671402D01*
X-340002Y-671606D01*
X-339928Y-671828D01*
X-339873Y-672032D01*
X-339836Y-672236D01*
X-339817Y-672402D01*
X-339799Y-672532D01*
Y-672606D01*
Y-672643D01*
X-339817Y-672865D01*
X-339836Y-673050D01*
X-339928Y-673439D01*
X-340058Y-673754D01*
X-340206Y-674032D01*
X-340354Y-674254D01*
X-340484Y-674421D01*
X-340576Y-674513D01*
X-340613Y-674550D01*
X-340947Y-674791D01*
X-341317Y-674976D01*
X-341724Y-675106D01*
X-342095Y-675198D01*
X-342428Y-675254D01*
X-342576Y-675272D01*
X-342706D01*
X-342817Y-675291D01*
X-342965D01*
X-343298Y-675272D01*
X-343632Y-675235D01*
X-343928Y-675198D01*
X-344187Y-675143D01*
X-344391Y-675087D01*
X-344557Y-675032D01*
X-344669Y-675013D01*
X-344706Y-674995D01*
X-345020Y-674865D01*
X-345317Y-674698D01*
X-345594Y-674513D01*
X-345872Y-674346D01*
X-346094Y-674180D01*
X-346261Y-674050D01*
X-346372Y-673958D01*
X-346390Y-673921D01*
X-346409D01*
X-346446Y-674161D01*
X-346483Y-674384D01*
X-346520Y-674587D01*
X-346576Y-674754D01*
X-346631Y-674902D01*
X-346668Y-674995D01*
X-346687Y-675069D01*
X-346705Y-675087D01*
X-348353D01*
X-348261Y-674883D01*
X-348168Y-674680D01*
X-348094Y-674495D01*
X-348057Y-674328D01*
X-348002Y-674180D01*
X-347983Y-674069D01*
X-347965Y-673995D01*
Y-673976D01*
X-347946Y-673847D01*
X-347927Y-673680D01*
Y-673495D01*
X-347909Y-673291D01*
X-347890Y-672828D01*
Y-672365D01*
X-347872Y-671921D01*
Y-671717D01*
Y-671551D01*
Y-671402D01*
Y-671291D01*
Y-671217D01*
Y-671199D01*
Y-669088D01*
Y-668736D01*
X-347853Y-668421D01*
X-347835Y-668180D01*
Y-667977D01*
X-347816Y-667829D01*
X-347798Y-667718D01*
X-347779Y-667662D01*
Y-667644D01*
X-347724Y-667403D01*
X-347650Y-667199D01*
X-347576Y-667032D01*
X-347483Y-666866D01*
X-347409Y-666755D01*
X-347353Y-666662D01*
X-347316Y-666607D01*
X-347298Y-666588D01*
X-347150Y-666440D01*
X-346983Y-666292D01*
X-346798Y-666181D01*
X-346613Y-666070D01*
X-346446Y-665995D01*
X-346316Y-665940D01*
X-346224Y-665903D01*
X-346187Y-665884D01*
X-345891Y-665792D01*
X-345576Y-665718D01*
X-345261Y-665662D01*
X-344946Y-665625D01*
X-344669Y-665607D01*
X-344465Y-665588D01*
X-344261D01*
X-343817Y-665607D01*
D02*
G37*
G36*
X-184185Y-675087D02*
X-185815D01*
Y-664181D01*
X-189518Y-675087D01*
X-191036D01*
X-194777Y-664366D01*
Y-675087D01*
X-196406D01*
Y-662274D01*
X-194128D01*
X-191055Y-671199D01*
X-190888Y-671680D01*
X-190758Y-672087D01*
X-190629Y-672439D01*
X-190536Y-672736D01*
X-190462Y-672958D01*
X-190407Y-673124D01*
X-190388Y-673217D01*
X-190370Y-673254D01*
X-190296Y-672995D01*
X-190203Y-672699D01*
X-190092Y-672384D01*
X-189999Y-672069D01*
X-189907Y-671791D01*
X-189833Y-671569D01*
X-189796Y-671477D01*
X-189777Y-671421D01*
X-189759Y-671384D01*
Y-671365D01*
X-186722Y-662274D01*
X-184185D01*
Y-675087D01*
D02*
G37*
G36*
X-325559D02*
X-327189D01*
Y-664181D01*
X-330892Y-675087D01*
X-332411D01*
X-336151Y-664366D01*
Y-675087D01*
X-337780D01*
Y-662274D01*
X-335503D01*
X-332429Y-671199D01*
X-332262Y-671680D01*
X-332133Y-672087D01*
X-332003Y-672439D01*
X-331911Y-672736D01*
X-331837Y-672958D01*
X-331781Y-673124D01*
X-331762Y-673217D01*
X-331744Y-673254D01*
X-331670Y-672995D01*
X-331577Y-672699D01*
X-331466Y-672384D01*
X-331374Y-672069D01*
X-331281Y-671791D01*
X-331207Y-671569D01*
X-331170Y-671477D01*
X-331151Y-671421D01*
X-331133Y-671384D01*
Y-671365D01*
X-328096Y-662274D01*
X-325559D01*
Y-675087D01*
D02*
G37*
G36*
X-314079D02*
X-314005Y-675254D01*
X-313968Y-675384D01*
X-313931Y-675458D01*
Y-675476D01*
X-313820Y-675791D01*
X-313709Y-676050D01*
X-313635Y-676272D01*
X-313561Y-676420D01*
X-313524Y-676532D01*
X-313486Y-676606D01*
X-313449Y-676643D01*
Y-676661D01*
X-313301Y-676865D01*
X-313135Y-677013D01*
X-313061Y-677068D01*
X-313005Y-677105D01*
X-312968Y-677142D01*
X-312950D01*
X-312820Y-677198D01*
X-312690Y-677254D01*
X-312413Y-677309D01*
X-312302D01*
X-312209Y-677328D01*
X-312116D01*
X-311820Y-677309D01*
X-311524Y-677254D01*
X-311413Y-677217D01*
X-311320Y-677198D01*
X-311246Y-677180D01*
X-311227D01*
X-311394Y-678642D01*
X-311598Y-678716D01*
X-311783Y-678754D01*
X-311950Y-678791D01*
X-312098Y-678828D01*
X-312227D01*
X-312320Y-678846D01*
X-312394D01*
X-312672Y-678828D01*
X-312913Y-678791D01*
X-313135Y-678735D01*
X-313320Y-678661D01*
X-313486Y-678587D01*
X-313598Y-678531D01*
X-313672Y-678494D01*
X-313690Y-678476D01*
X-313894Y-678328D01*
X-314061Y-678142D01*
X-314227Y-677957D01*
X-314375Y-677772D01*
X-314486Y-677606D01*
X-314579Y-677476D01*
X-314635Y-677383D01*
X-314653Y-677346D01*
X-314709Y-677217D01*
X-314783Y-677087D01*
X-314931Y-676772D01*
X-315079Y-676420D01*
X-315209Y-676069D01*
X-315338Y-675754D01*
X-315394Y-675606D01*
X-315449Y-675476D01*
X-315486Y-675384D01*
X-315523Y-675309D01*
X-315542Y-675254D01*
Y-675235D01*
X-319079Y-665792D01*
X-317505D01*
X-315505Y-671217D01*
X-315357Y-671606D01*
X-315246Y-671976D01*
X-315116Y-672347D01*
X-315023Y-672662D01*
X-314949Y-672939D01*
X-314912Y-673050D01*
X-314894Y-673143D01*
X-314875Y-673217D01*
X-314857Y-673273D01*
X-314838Y-673310D01*
Y-673328D01*
X-314727Y-672902D01*
X-314616Y-672513D01*
X-314505Y-672143D01*
X-314394Y-671828D01*
X-314301Y-671569D01*
X-314264Y-671458D01*
X-314227Y-671365D01*
X-314209Y-671273D01*
X-314190Y-671217D01*
X-314172Y-671199D01*
Y-671180D01*
X-312227Y-665792D01*
X-310561D01*
X-314079Y-675087D01*
D02*
G37*
G36*
X-206257Y-665607D02*
X-205850Y-665681D01*
X-205461Y-665773D01*
X-205146Y-665866D01*
X-204868Y-665977D01*
X-204757Y-666033D01*
X-204664Y-666070D01*
X-204590Y-666107D01*
X-204535Y-666144D01*
X-204498Y-666162D01*
X-204479D01*
X-204128Y-666384D01*
X-203813Y-666662D01*
X-203554Y-666940D01*
X-203331Y-667218D01*
X-203165Y-667458D01*
X-203053Y-667662D01*
X-203016Y-667736D01*
X-202980Y-667792D01*
X-202961Y-667829D01*
Y-667847D01*
X-202794Y-668292D01*
X-202683Y-668736D01*
X-202591Y-669180D01*
X-202535Y-669588D01*
X-202517Y-669773D01*
X-202498Y-669940D01*
Y-670088D01*
X-202479Y-670217D01*
Y-670328D01*
Y-670403D01*
Y-670458D01*
Y-670477D01*
X-202498Y-670902D01*
X-202535Y-671291D01*
X-202591Y-671680D01*
X-202665Y-672013D01*
X-202739Y-672347D01*
X-202850Y-672625D01*
X-202942Y-672902D01*
X-203053Y-673143D01*
X-203165Y-673347D01*
X-203257Y-673532D01*
X-203368Y-673698D01*
X-203442Y-673828D01*
X-203517Y-673921D01*
X-203572Y-673995D01*
X-203609Y-674032D01*
X-203628Y-674050D01*
X-203850Y-674273D01*
X-204090Y-674458D01*
X-204331Y-674624D01*
X-204590Y-674772D01*
X-204850Y-674883D01*
X-205090Y-674995D01*
X-205590Y-675143D01*
X-205812Y-675180D01*
X-206016Y-675217D01*
X-206201Y-675254D01*
X-206368Y-675272D01*
X-206498Y-675291D01*
X-206683D01*
X-206961Y-675272D01*
X-207238Y-675254D01*
X-207720Y-675143D01*
X-208164Y-675013D01*
X-208535Y-674846D01*
X-208683Y-674754D01*
X-208831Y-674680D01*
X-208960Y-674606D01*
X-209053Y-674532D01*
X-209127Y-674476D01*
X-209182Y-674439D01*
X-209220Y-674421D01*
X-209238Y-674402D01*
X-209423Y-674217D01*
X-209590Y-674032D01*
X-209886Y-673624D01*
X-210127Y-673198D01*
X-210294Y-672810D01*
X-210423Y-672439D01*
X-210460Y-672291D01*
X-210497Y-672143D01*
X-210516Y-672032D01*
X-210534Y-671958D01*
X-210553Y-671902D01*
Y-671884D01*
X-208997Y-671680D01*
X-208923Y-672087D01*
X-208812Y-672458D01*
X-208664Y-672754D01*
X-208535Y-672995D01*
X-208405Y-673198D01*
X-208294Y-673328D01*
X-208238Y-673421D01*
X-208201Y-673439D01*
X-207960Y-673624D01*
X-207701Y-673754D01*
X-207442Y-673865D01*
X-207201Y-673921D01*
X-206998Y-673958D01*
X-206812Y-673976D01*
X-206701Y-673995D01*
X-206664D01*
X-206461Y-673976D01*
X-206257Y-673958D01*
X-205887Y-673865D01*
X-205572Y-673736D01*
X-205294Y-673569D01*
X-205090Y-673421D01*
X-204924Y-673291D01*
X-204831Y-673198D01*
X-204794Y-673161D01*
X-204664Y-672995D01*
X-204553Y-672791D01*
X-204387Y-672384D01*
X-204257Y-671921D01*
X-204183Y-671477D01*
X-204128Y-671069D01*
X-204109Y-670902D01*
Y-670736D01*
X-204090Y-670625D01*
Y-670514D01*
Y-670458D01*
Y-670440D01*
Y-670106D01*
X-204128Y-669791D01*
X-204165Y-669495D01*
X-204202Y-669236D01*
X-204257Y-668995D01*
X-204331Y-668773D01*
X-204387Y-668569D01*
X-204461Y-668384D01*
X-204535Y-668236D01*
X-204590Y-668106D01*
X-204664Y-667995D01*
X-204720Y-667903D01*
X-204757Y-667829D01*
X-204794Y-667773D01*
X-204831Y-667755D01*
Y-667736D01*
X-204979Y-667588D01*
X-205127Y-667458D01*
X-205442Y-667236D01*
X-205776Y-667088D01*
X-206072Y-666995D01*
X-206350Y-666921D01*
X-206553Y-666903D01*
X-206646Y-666884D01*
X-206757D01*
X-207035Y-666903D01*
X-207294Y-666958D01*
X-207516Y-667032D01*
X-207720Y-667125D01*
X-207868Y-667218D01*
X-207997Y-667292D01*
X-208071Y-667347D01*
X-208090Y-667366D01*
X-208275Y-667551D01*
X-208442Y-667773D01*
X-208590Y-668014D01*
X-208683Y-668236D01*
X-208775Y-668440D01*
X-208831Y-668606D01*
X-208849Y-668717D01*
X-208868Y-668736D01*
Y-668755D01*
X-210405Y-668514D01*
X-210275Y-668014D01*
X-210090Y-667588D01*
X-209886Y-667218D01*
X-209683Y-666921D01*
X-209479Y-666681D01*
X-209312Y-666514D01*
X-209201Y-666403D01*
X-209182Y-666366D01*
X-209164D01*
X-208775Y-666107D01*
X-208368Y-665921D01*
X-207960Y-665773D01*
X-207572Y-665681D01*
X-207220Y-665625D01*
X-207072Y-665607D01*
X-206961D01*
X-206849Y-665588D01*
X-206701D01*
X-206257Y-665607D01*
D02*
G37*
G36*
X-271121D02*
X-270787Y-665644D01*
X-270473Y-665699D01*
X-270176Y-665792D01*
X-269898Y-665884D01*
X-269639Y-665995D01*
X-269398Y-666107D01*
X-269195Y-666236D01*
X-268991Y-666347D01*
X-268825Y-666477D01*
X-268676Y-666588D01*
X-268565Y-666681D01*
X-268473Y-666773D01*
X-268399Y-666829D01*
X-268362Y-666866D01*
X-268343Y-666884D01*
X-268139Y-667144D01*
X-267954Y-667421D01*
X-267788Y-667699D01*
X-267639Y-667995D01*
X-267528Y-668310D01*
X-267436Y-668606D01*
X-267288Y-669199D01*
X-267232Y-669458D01*
X-267195Y-669717D01*
X-267176Y-669940D01*
X-267158Y-670143D01*
X-267139Y-670310D01*
Y-670421D01*
Y-670514D01*
Y-670532D01*
X-267158Y-670939D01*
X-267195Y-671328D01*
X-267251Y-671699D01*
X-267325Y-672032D01*
X-267417Y-672347D01*
X-267510Y-672643D01*
X-267621Y-672902D01*
X-267732Y-673143D01*
X-267843Y-673347D01*
X-267954Y-673532D01*
X-268047Y-673680D01*
X-268139Y-673810D01*
X-268214Y-673921D01*
X-268269Y-673995D01*
X-268306Y-674032D01*
X-268325Y-674050D01*
X-268565Y-674273D01*
X-268806Y-674458D01*
X-269065Y-674624D01*
X-269343Y-674772D01*
X-269602Y-674883D01*
X-269880Y-674995D01*
X-270398Y-675143D01*
X-270639Y-675180D01*
X-270861Y-675217D01*
X-271065Y-675254D01*
X-271232Y-675272D01*
X-271361Y-675291D01*
X-271565D01*
X-272139Y-675254D01*
X-272657Y-675161D01*
X-273120Y-675050D01*
X-273305Y-674976D01*
X-273491Y-674902D01*
X-273657Y-674828D01*
X-273806Y-674754D01*
X-273917Y-674698D01*
X-274028Y-674643D01*
X-274102Y-674587D01*
X-274157Y-674550D01*
X-274194Y-674513D01*
X-274213D01*
X-274583Y-674180D01*
X-274879Y-673828D01*
X-275139Y-673458D01*
X-275324Y-673106D01*
X-275472Y-672791D01*
X-275527Y-672643D01*
X-275583Y-672532D01*
X-275620Y-672421D01*
X-275639Y-672347D01*
X-275657Y-672310D01*
Y-672291D01*
X-274028Y-672087D01*
X-273880Y-672439D01*
X-273713Y-672736D01*
X-273546Y-672995D01*
X-273398Y-673198D01*
X-273269Y-673347D01*
X-273157Y-673458D01*
X-273065Y-673532D01*
X-273046Y-673550D01*
X-272806Y-673698D01*
X-272565Y-673810D01*
X-272306Y-673884D01*
X-272083Y-673939D01*
X-271880Y-673976D01*
X-271713Y-673995D01*
X-271565D01*
X-271343Y-673976D01*
X-271139Y-673958D01*
X-270769Y-673865D01*
X-270436Y-673736D01*
X-270139Y-673587D01*
X-269917Y-673458D01*
X-269750Y-673328D01*
X-269639Y-673235D01*
X-269621Y-673198D01*
X-269602D01*
X-269343Y-672865D01*
X-269139Y-672495D01*
X-268991Y-672087D01*
X-268880Y-671717D01*
X-268825Y-671384D01*
X-268787Y-671236D01*
X-268769Y-671106D01*
Y-670995D01*
X-268750Y-670921D01*
Y-670865D01*
Y-670847D01*
X-275694D01*
X-275713Y-670662D01*
Y-670532D01*
Y-670458D01*
Y-670440D01*
X-275694Y-670014D01*
X-275657Y-669625D01*
X-275602Y-669255D01*
X-275527Y-668903D01*
X-275435Y-668588D01*
X-275342Y-668292D01*
X-275231Y-668032D01*
X-275120Y-667792D01*
X-275009Y-667570D01*
X-274898Y-667384D01*
X-274805Y-667236D01*
X-274713Y-667106D01*
X-274639Y-666995D01*
X-274583Y-666921D01*
X-274546Y-666884D01*
X-274528Y-666866D01*
X-274305Y-666644D01*
X-274065Y-666440D01*
X-273806Y-666273D01*
X-273546Y-666125D01*
X-273287Y-665995D01*
X-273046Y-665903D01*
X-272787Y-665810D01*
X-272565Y-665755D01*
X-272324Y-665699D01*
X-272120Y-665662D01*
X-271935Y-665625D01*
X-271787Y-665607D01*
X-271658Y-665588D01*
X-271472D01*
X-271121Y-665607D01*
D02*
G37*
G36*
X-198961Y-675087D02*
X-200535D01*
Y-665792D01*
X-198961D01*
Y-675087D01*
D02*
G37*
G36*
X-215108Y-665607D02*
X-214923Y-665644D01*
X-214737Y-665699D01*
X-214589Y-665755D01*
X-214478Y-665810D01*
X-214367Y-665866D01*
X-214312Y-665903D01*
X-214293Y-665921D01*
X-214126Y-666070D01*
X-213960Y-666255D01*
X-213793Y-666477D01*
X-213645Y-666681D01*
X-213497Y-666884D01*
X-213404Y-667051D01*
X-213330Y-667181D01*
X-213312Y-667199D01*
Y-665792D01*
X-211886D01*
Y-675087D01*
X-213460D01*
Y-670236D01*
X-213478Y-669865D01*
X-213497Y-669532D01*
X-213534Y-669217D01*
X-213589Y-668940D01*
X-213645Y-668717D01*
X-213682Y-668551D01*
X-213701Y-668440D01*
X-213719Y-668403D01*
X-213793Y-668199D01*
X-213886Y-668032D01*
X-213978Y-667884D01*
X-214071Y-667755D01*
X-214163Y-667662D01*
X-214219Y-667588D01*
X-214275Y-667551D01*
X-214293Y-667532D01*
X-214441Y-667421D01*
X-214608Y-667347D01*
X-214775Y-667292D01*
X-214904Y-667255D01*
X-215034Y-667236D01*
X-215126Y-667218D01*
X-215219D01*
X-215423Y-667236D01*
X-215626Y-667273D01*
X-215830Y-667329D01*
X-215997Y-667384D01*
X-216145Y-667440D01*
X-216256Y-667495D01*
X-216330Y-667532D01*
X-216348Y-667551D01*
X-216922Y-666107D01*
X-216608Y-665940D01*
X-216311Y-665810D01*
X-216052Y-665718D01*
X-215812Y-665644D01*
X-215608Y-665607D01*
X-215441Y-665588D01*
X-215312D01*
X-215108Y-665607D01*
D02*
G37*
G36*
X-261714D02*
X-261381Y-665662D01*
X-261085Y-665736D01*
X-260788Y-665829D01*
X-260529Y-665940D01*
X-260288Y-666070D01*
X-260066Y-666218D01*
X-259881Y-666347D01*
X-259696Y-666496D01*
X-259548Y-666644D01*
X-259418Y-666773D01*
X-259307Y-666884D01*
X-259233Y-666977D01*
X-259177Y-667051D01*
X-259140Y-667106D01*
X-259122Y-667125D01*
Y-665792D01*
X-257715D01*
Y-675087D01*
X-259289D01*
Y-670032D01*
Y-669717D01*
X-259326Y-669403D01*
X-259363Y-669143D01*
X-259400Y-668903D01*
X-259455Y-668680D01*
X-259511Y-668477D01*
X-259585Y-668292D01*
X-259659Y-668143D01*
X-259714Y-668014D01*
X-259788Y-667903D01*
X-259844Y-667810D01*
X-259900Y-667736D01*
X-259974Y-667644D01*
X-260011Y-667607D01*
X-260288Y-667384D01*
X-260585Y-667236D01*
X-260881Y-667125D01*
X-261140Y-667032D01*
X-261381Y-666995D01*
X-261566Y-666977D01*
X-261640Y-666958D01*
X-261733D01*
X-261955Y-666977D01*
X-262177Y-666995D01*
X-262362Y-667051D01*
X-262510Y-667106D01*
X-262640Y-667162D01*
X-262751Y-667199D01*
X-262807Y-667236D01*
X-262825Y-667255D01*
X-262992Y-667366D01*
X-263140Y-667495D01*
X-263251Y-667625D01*
X-263344Y-667736D01*
X-263399Y-667847D01*
X-263455Y-667940D01*
X-263492Y-667995D01*
Y-668014D01*
X-263547Y-668217D01*
X-263603Y-668440D01*
X-263640Y-668680D01*
X-263658Y-668921D01*
X-263677Y-669125D01*
Y-669292D01*
Y-669421D01*
Y-669440D01*
Y-669458D01*
Y-675087D01*
X-265251D01*
Y-669384D01*
Y-668995D01*
X-265232Y-668680D01*
X-265214Y-668421D01*
Y-668199D01*
X-265195Y-668051D01*
X-265177Y-667940D01*
X-265158Y-667866D01*
Y-667847D01*
X-265103Y-667607D01*
X-265010Y-667384D01*
X-264936Y-667199D01*
X-264862Y-667014D01*
X-264769Y-666884D01*
X-264714Y-666792D01*
X-264677Y-666718D01*
X-264658Y-666699D01*
X-264510Y-666514D01*
X-264343Y-666366D01*
X-264177Y-666218D01*
X-263992Y-666107D01*
X-263843Y-666014D01*
X-263714Y-665958D01*
X-263640Y-665921D01*
X-263603Y-665903D01*
X-263344Y-665792D01*
X-263066Y-665718D01*
X-262807Y-665662D01*
X-262566Y-665625D01*
X-262362Y-665607D01*
X-262214Y-665588D01*
X-262066D01*
X-261714Y-665607D01*
D02*
G37*
G36*
X-276435Y-675087D02*
X-278231D01*
X-279620Y-671199D01*
X-284989D01*
X-286489Y-675087D01*
X-288415D01*
X-283175Y-662274D01*
X-281323D01*
X-276435Y-675087D01*
D02*
G37*
G36*
X-292785Y-665607D02*
X-292600Y-665644D01*
X-292415Y-665699D01*
X-292267Y-665755D01*
X-292155Y-665810D01*
X-292044Y-665866D01*
X-291989Y-665903D01*
X-291970Y-665921D01*
X-291804Y-666070D01*
X-291637Y-666255D01*
X-291470Y-666477D01*
X-291322Y-666681D01*
X-291174Y-666884D01*
X-291082Y-667051D01*
X-291007Y-667181D01*
X-290989Y-667199D01*
Y-665792D01*
X-289563D01*
Y-675087D01*
X-291137D01*
Y-670236D01*
X-291155Y-669865D01*
X-291174Y-669532D01*
X-291211Y-669217D01*
X-291267Y-668940D01*
X-291322Y-668717D01*
X-291359Y-668551D01*
X-291378Y-668440D01*
X-291396Y-668403D01*
X-291470Y-668199D01*
X-291563Y-668032D01*
X-291656Y-667884D01*
X-291748Y-667755D01*
X-291841Y-667662D01*
X-291896Y-667588D01*
X-291952Y-667551D01*
X-291970Y-667532D01*
X-292118Y-667421D01*
X-292285Y-667347D01*
X-292452Y-667292D01*
X-292581Y-667255D01*
X-292711Y-667236D01*
X-292803Y-667218D01*
X-292896D01*
X-293100Y-667236D01*
X-293304Y-667273D01*
X-293507Y-667329D01*
X-293674Y-667384D01*
X-293822Y-667440D01*
X-293933Y-667495D01*
X-294007Y-667532D01*
X-294026Y-667551D01*
X-294600Y-666107D01*
X-294285Y-665940D01*
X-293989Y-665810D01*
X-293729Y-665718D01*
X-293489Y-665644D01*
X-293285Y-665607D01*
X-293118Y-665588D01*
X-292989D01*
X-292785Y-665607D01*
D02*
G37*
G36*
X-298747D02*
X-298562Y-665644D01*
X-298377Y-665699D01*
X-298229Y-665755D01*
X-298118Y-665810D01*
X-298007Y-665866D01*
X-297951Y-665903D01*
X-297933Y-665921D01*
X-297766Y-666070D01*
X-297599Y-666255D01*
X-297433Y-666477D01*
X-297285Y-666681D01*
X-297136Y-666884D01*
X-297044Y-667051D01*
X-296970Y-667181D01*
X-296951Y-667199D01*
Y-665792D01*
X-295525D01*
Y-675087D01*
X-297099D01*
Y-670236D01*
X-297118Y-669865D01*
X-297136Y-669532D01*
X-297173Y-669217D01*
X-297229Y-668940D01*
X-297285Y-668717D01*
X-297322Y-668551D01*
X-297340Y-668440D01*
X-297359Y-668403D01*
X-297433Y-668199D01*
X-297525Y-668032D01*
X-297618Y-667884D01*
X-297710Y-667755D01*
X-297803Y-667662D01*
X-297859Y-667588D01*
X-297914Y-667551D01*
X-297933Y-667532D01*
X-298081Y-667421D01*
X-298247Y-667347D01*
X-298414Y-667292D01*
X-298544Y-667255D01*
X-298673Y-667236D01*
X-298766Y-667218D01*
X-298858D01*
X-299062Y-667236D01*
X-299266Y-667273D01*
X-299470Y-667329D01*
X-299636Y-667384D01*
X-299784Y-667440D01*
X-299895Y-667495D01*
X-299969Y-667532D01*
X-299988Y-667551D01*
X-300562Y-666107D01*
X-300247Y-665940D01*
X-299951Y-665810D01*
X-299692Y-665718D01*
X-299451Y-665644D01*
X-299247Y-665607D01*
X-299081Y-665588D01*
X-298951D01*
X-298747Y-665607D01*
D02*
G37*
G36*
X-320875Y-675087D02*
X-322671D01*
Y-673291D01*
X-320875D01*
Y-675087D01*
D02*
G37*
G36*
X-350298D02*
X-351871D01*
Y-665792D01*
X-350298D01*
Y-675087D01*
D02*
G37*
G36*
X-358278Y-665607D02*
X-357945Y-665662D01*
X-357649Y-665736D01*
X-357352Y-665829D01*
X-357093Y-665940D01*
X-356852Y-666070D01*
X-356630Y-666218D01*
X-356445Y-666347D01*
X-356260Y-666496D01*
X-356112Y-666644D01*
X-355982Y-666773D01*
X-355871Y-666884D01*
X-355797Y-666977D01*
X-355741Y-667051D01*
X-355704Y-667106D01*
X-355686Y-667125D01*
Y-665792D01*
X-354279D01*
Y-675087D01*
X-355853D01*
Y-670032D01*
Y-669717D01*
X-355890Y-669403D01*
X-355927Y-669143D01*
X-355964Y-668903D01*
X-356019Y-668680D01*
X-356075Y-668477D01*
X-356149Y-668292D01*
X-356223Y-668143D01*
X-356278Y-668014D01*
X-356353Y-667903D01*
X-356408Y-667810D01*
X-356464Y-667736D01*
X-356538Y-667644D01*
X-356575Y-667607D01*
X-356852Y-667384D01*
X-357149Y-667236D01*
X-357445Y-667125D01*
X-357704Y-667032D01*
X-357945Y-666995D01*
X-358130Y-666977D01*
X-358204Y-666958D01*
X-358297D01*
X-358519Y-666977D01*
X-358741Y-666995D01*
X-358926Y-667051D01*
X-359074Y-667106D01*
X-359204Y-667162D01*
X-359315Y-667199D01*
X-359371Y-667236D01*
X-359389Y-667255D01*
X-359556Y-667366D01*
X-359704Y-667495D01*
X-359815Y-667625D01*
X-359908Y-667736D01*
X-359963Y-667847D01*
X-360019Y-667940D01*
X-360056Y-667995D01*
Y-668014D01*
X-360111Y-668217D01*
X-360167Y-668440D01*
X-360204Y-668680D01*
X-360222Y-668921D01*
X-360241Y-669125D01*
Y-669292D01*
Y-669421D01*
Y-669440D01*
Y-669458D01*
Y-675087D01*
X-361815D01*
Y-669384D01*
Y-668995D01*
X-361796Y-668680D01*
X-361778Y-668421D01*
Y-668199D01*
X-361759Y-668051D01*
X-361741Y-667940D01*
X-361722Y-667866D01*
Y-667847D01*
X-361667Y-667607D01*
X-361574Y-667384D01*
X-361500Y-667199D01*
X-361426Y-667014D01*
X-361333Y-666884D01*
X-361278Y-666792D01*
X-361241Y-666718D01*
X-361222Y-666699D01*
X-361074Y-666514D01*
X-360908Y-666366D01*
X-360741Y-666218D01*
X-360556Y-666107D01*
X-360408Y-666014D01*
X-360278Y-665958D01*
X-360204Y-665921D01*
X-360167Y-665903D01*
X-359908Y-665792D01*
X-359630Y-665718D01*
X-359371Y-665662D01*
X-359130Y-665625D01*
X-358926Y-665607D01*
X-358778Y-665588D01*
X-358630D01*
X-358278Y-665607D01*
D02*
G37*
G36*
X-221311D02*
X-221015Y-665625D01*
X-220441Y-665755D01*
X-219941Y-665921D01*
X-219718Y-666014D01*
X-219515Y-666107D01*
X-219330Y-666199D01*
X-219181Y-666292D01*
X-219033Y-666384D01*
X-218922Y-666459D01*
X-218830Y-666533D01*
X-218756Y-666588D01*
X-218719Y-666607D01*
X-218700Y-666625D01*
X-218441Y-666866D01*
X-218237Y-667144D01*
X-218034Y-667440D01*
X-217885Y-667736D01*
X-217737Y-668051D01*
X-217626Y-668384D01*
X-217533Y-668699D01*
X-217460Y-668995D01*
X-217385Y-669292D01*
X-217348Y-669551D01*
X-217311Y-669810D01*
X-217293Y-670014D01*
Y-670199D01*
X-217274Y-670328D01*
Y-670403D01*
Y-670440D01*
X-217293Y-670865D01*
X-217330Y-671273D01*
X-217385Y-671643D01*
X-217460Y-671995D01*
X-217552Y-672310D01*
X-217645Y-672606D01*
X-217756Y-672884D01*
X-217867Y-673124D01*
X-217978Y-673347D01*
X-218089Y-673532D01*
X-218182Y-673680D01*
X-218274Y-673810D01*
X-218348Y-673921D01*
X-218404Y-673995D01*
X-218441Y-674032D01*
X-218459Y-674050D01*
X-218700Y-674273D01*
X-218941Y-674458D01*
X-219200Y-674624D01*
X-219459Y-674772D01*
X-219718Y-674883D01*
X-219996Y-674995D01*
X-220496Y-675143D01*
X-220718Y-675180D01*
X-220941Y-675217D01*
X-221126Y-675254D01*
X-221292Y-675272D01*
X-221441Y-675291D01*
X-221626D01*
X-222070Y-675272D01*
X-222477Y-675198D01*
X-222866Y-675106D01*
X-223181Y-675013D01*
X-223459Y-674902D01*
X-223570Y-674865D01*
X-223662Y-674828D01*
X-223755Y-674791D01*
X-223811Y-674754D01*
X-223829Y-674735D01*
X-223848D01*
X-224218Y-674495D01*
X-224533Y-674235D01*
X-224811Y-673976D01*
X-225033Y-673717D01*
X-225199Y-673495D01*
X-225329Y-673310D01*
X-225366Y-673235D01*
X-225403Y-673180D01*
X-225422Y-673161D01*
Y-673143D01*
X-225607Y-672717D01*
X-225736Y-672254D01*
X-225847Y-671791D01*
X-225903Y-671328D01*
X-225940Y-671125D01*
Y-670939D01*
X-225959Y-670754D01*
X-225977Y-670606D01*
Y-670477D01*
Y-670384D01*
Y-670328D01*
Y-670310D01*
X-225959Y-669902D01*
X-225921Y-669532D01*
X-225866Y-669180D01*
X-225792Y-668847D01*
X-225699Y-668532D01*
X-225588Y-668255D01*
X-225477Y-667977D01*
X-225366Y-667755D01*
X-225255Y-667551D01*
X-225144Y-667366D01*
X-225033Y-667199D01*
X-224940Y-667069D01*
X-224866Y-666977D01*
X-224811Y-666903D01*
X-224774Y-666866D01*
X-224755Y-666847D01*
X-224514Y-666625D01*
X-224274Y-666440D01*
X-224014Y-666255D01*
X-223755Y-666125D01*
X-223496Y-665995D01*
X-223237Y-665903D01*
X-222737Y-665736D01*
X-222496Y-665699D01*
X-222292Y-665662D01*
X-222107Y-665625D01*
X-221940Y-665607D01*
X-221811Y-665588D01*
X-221626D01*
X-221311Y-665607D01*
D02*
G37*
G36*
X-251197D02*
X-250900Y-665625D01*
X-250326Y-665755D01*
X-249827Y-665921D01*
X-249604Y-666014D01*
X-249401Y-666107D01*
X-249215Y-666199D01*
X-249067Y-666292D01*
X-248919Y-666384D01*
X-248808Y-666459D01*
X-248715Y-666533D01*
X-248641Y-666588D01*
X-248604Y-666607D01*
X-248586Y-666625D01*
X-248327Y-666866D01*
X-248123Y-667144D01*
X-247919Y-667440D01*
X-247771Y-667736D01*
X-247623Y-668051D01*
X-247512Y-668384D01*
X-247419Y-668699D01*
X-247345Y-668995D01*
X-247271Y-669292D01*
X-247234Y-669551D01*
X-247197Y-669810D01*
X-247179Y-670014D01*
Y-670199D01*
X-247160Y-670328D01*
Y-670403D01*
Y-670440D01*
X-247179Y-670865D01*
X-247216Y-671273D01*
X-247271Y-671643D01*
X-247345Y-671995D01*
X-247438Y-672310D01*
X-247530Y-672606D01*
X-247642Y-672884D01*
X-247753Y-673124D01*
X-247864Y-673347D01*
X-247975Y-673532D01*
X-248067Y-673680D01*
X-248160Y-673810D01*
X-248234Y-673921D01*
X-248290Y-673995D01*
X-248327Y-674032D01*
X-248345Y-674050D01*
X-248586Y-674273D01*
X-248827Y-674458D01*
X-249086Y-674624D01*
X-249345Y-674772D01*
X-249604Y-674883D01*
X-249882Y-674995D01*
X-250382Y-675143D01*
X-250604Y-675180D01*
X-250826Y-675217D01*
X-251012Y-675254D01*
X-251178Y-675272D01*
X-251326Y-675291D01*
X-251511D01*
X-251956Y-675272D01*
X-252363Y-675198D01*
X-252752Y-675106D01*
X-253067Y-675013D01*
X-253345Y-674902D01*
X-253456Y-674865D01*
X-253548Y-674828D01*
X-253641Y-674791D01*
X-253696Y-674754D01*
X-253715Y-674735D01*
X-253734D01*
X-254104Y-674495D01*
X-254419Y-674235D01*
X-254696Y-673976D01*
X-254918Y-673717D01*
X-255085Y-673495D01*
X-255215Y-673310D01*
X-255252Y-673235D01*
X-255289Y-673180D01*
X-255307Y-673161D01*
Y-673143D01*
X-255493Y-672717D01*
X-255622Y-672254D01*
X-255733Y-671791D01*
X-255789Y-671328D01*
X-255826Y-671125D01*
Y-670939D01*
X-255844Y-670754D01*
X-255863Y-670606D01*
Y-670477D01*
Y-670384D01*
Y-670328D01*
Y-670310D01*
X-255844Y-669902D01*
X-255807Y-669532D01*
X-255752Y-669180D01*
X-255678Y-668847D01*
X-255585Y-668532D01*
X-255474Y-668255D01*
X-255363Y-667977D01*
X-255252Y-667755D01*
X-255141Y-667551D01*
X-255030Y-667366D01*
X-254918Y-667199D01*
X-254826Y-667069D01*
X-254752Y-666977D01*
X-254696Y-666903D01*
X-254659Y-666866D01*
X-254641Y-666847D01*
X-254400Y-666625D01*
X-254159Y-666440D01*
X-253900Y-666255D01*
X-253641Y-666125D01*
X-253382Y-665995D01*
X-253122Y-665903D01*
X-252623Y-665736D01*
X-252382Y-665699D01*
X-252178Y-665662D01*
X-251993Y-665625D01*
X-251826Y-665607D01*
X-251697Y-665588D01*
X-251511D01*
X-251197Y-665607D01*
D02*
G37*
G36*
X-231606D02*
X-231310Y-665644D01*
X-231051Y-665699D01*
X-230828Y-665773D01*
X-230643Y-665847D01*
X-230495Y-665903D01*
X-230421Y-665940D01*
X-230384Y-665958D01*
X-230162Y-666107D01*
X-229940Y-666273D01*
X-229755Y-666440D01*
X-229588Y-666625D01*
X-229440Y-666773D01*
X-229347Y-666903D01*
X-229273Y-666977D01*
X-229254Y-667014D01*
Y-665792D01*
X-227829D01*
Y-678642D01*
X-229403D01*
Y-674124D01*
X-229551Y-674309D01*
X-229717Y-674476D01*
X-229903Y-674624D01*
X-230051Y-674735D01*
X-230199Y-674846D01*
X-230310Y-674921D01*
X-230403Y-674958D01*
X-230421Y-674976D01*
X-230662Y-675087D01*
X-230903Y-675161D01*
X-231143Y-675217D01*
X-231365Y-675254D01*
X-231551Y-675272D01*
X-231699Y-675291D01*
X-231828D01*
X-232217Y-675272D01*
X-232606Y-675198D01*
X-232939Y-675106D01*
X-233254Y-674995D01*
X-233513Y-674883D01*
X-233699Y-674791D01*
X-233773Y-674754D01*
X-233828Y-674717D01*
X-233847Y-674698D01*
X-233865D01*
X-234217Y-674439D01*
X-234513Y-674161D01*
X-234772Y-673884D01*
X-234976Y-673606D01*
X-235143Y-673347D01*
X-235272Y-673143D01*
X-235310Y-673069D01*
X-235347Y-673013D01*
X-235365Y-672976D01*
Y-672958D01*
X-235532Y-672513D01*
X-235661Y-672069D01*
X-235754Y-671643D01*
X-235828Y-671236D01*
X-235865Y-670902D01*
Y-670754D01*
X-235884Y-670625D01*
Y-670514D01*
Y-670440D01*
Y-670403D01*
Y-670384D01*
X-235865Y-669902D01*
X-235809Y-669440D01*
X-235735Y-669032D01*
X-235643Y-668662D01*
X-235550Y-668366D01*
X-235513Y-668236D01*
X-235476Y-668125D01*
X-235439Y-668051D01*
X-235421Y-667995D01*
X-235402Y-667958D01*
Y-667940D01*
X-235217Y-667551D01*
X-234995Y-667199D01*
X-234772Y-666903D01*
X-234550Y-666662D01*
X-234347Y-666477D01*
X-234180Y-666329D01*
X-234069Y-666255D01*
X-234050Y-666218D01*
X-234032D01*
X-233680Y-666014D01*
X-233328Y-665847D01*
X-232976Y-665736D01*
X-232643Y-665662D01*
X-232365Y-665625D01*
X-232236Y-665607D01*
X-232143Y-665588D01*
X-231939D01*
X-231606Y-665607D01*
D02*
G37*
G36*
X-257992Y-681724D02*
X-257789Y-682020D01*
X-257548Y-682316D01*
X-257326Y-682575D01*
X-257104Y-682797D01*
X-256937Y-682983D01*
X-256863Y-683038D01*
X-256807Y-683094D01*
X-256789Y-683112D01*
X-256770Y-683131D01*
X-256381Y-683446D01*
X-255993Y-683742D01*
X-255622Y-684001D01*
X-255252Y-684205D01*
X-254937Y-684390D01*
X-254807Y-684464D01*
X-254696Y-684520D01*
X-254604Y-684575D01*
X-254530Y-684594D01*
X-254493Y-684631D01*
X-254474D01*
Y-686149D01*
X-254752Y-686038D01*
X-255030Y-685908D01*
X-255307Y-685779D01*
X-255567Y-685649D01*
X-255789Y-685538D01*
X-255974Y-685445D01*
X-256085Y-685371D01*
X-256104Y-685353D01*
X-256122D01*
X-256455Y-685149D01*
X-256752Y-684945D01*
X-257011Y-684760D01*
X-257215Y-684594D01*
X-257400Y-684464D01*
X-257511Y-684353D01*
X-257603Y-684279D01*
X-257622Y-684260D01*
Y-694278D01*
X-259196D01*
Y-681409D01*
X-258178D01*
X-257992Y-681724D01*
D02*
G37*
G36*
X-264121Y-694278D02*
X-265917D01*
Y-692482D01*
X-264121D01*
Y-694278D01*
D02*
G37*
G36*
X-279064D02*
X-280860D01*
Y-692482D01*
X-279064D01*
Y-694278D01*
D02*
G37*
G36*
X-271898Y-681446D02*
X-271435Y-681520D01*
X-271047Y-681649D01*
X-270713Y-681779D01*
X-270436Y-681927D01*
X-270324Y-681983D01*
X-270232Y-682057D01*
X-270158Y-682094D01*
X-270102Y-682131D01*
X-270084Y-682168D01*
X-270065D01*
X-269732Y-682464D01*
X-269454Y-682816D01*
X-269213Y-683168D01*
X-269028Y-683501D01*
X-268880Y-683816D01*
X-268806Y-683945D01*
X-268769Y-684075D01*
X-268732Y-684168D01*
X-268695Y-684242D01*
X-268676Y-684279D01*
Y-684297D01*
X-268602Y-684575D01*
X-268528Y-684853D01*
X-268417Y-685464D01*
X-268325Y-686075D01*
X-268269Y-686649D01*
X-268251Y-686927D01*
X-268232Y-687167D01*
Y-687390D01*
X-268214Y-687593D01*
Y-687741D01*
Y-687871D01*
Y-687945D01*
Y-687964D01*
X-268232Y-688612D01*
X-268269Y-689223D01*
X-268325Y-689778D01*
X-268417Y-690297D01*
X-268510Y-690778D01*
X-268621Y-691204D01*
X-268732Y-691593D01*
X-268843Y-691926D01*
X-268954Y-692223D01*
X-269084Y-692482D01*
X-269176Y-692704D01*
X-269269Y-692870D01*
X-269361Y-693019D01*
X-269417Y-693111D01*
X-269454Y-693167D01*
X-269473Y-693185D01*
X-269676Y-693408D01*
X-269898Y-693611D01*
X-270139Y-693796D01*
X-270380Y-693944D01*
X-270621Y-694074D01*
X-270861Y-694185D01*
X-271102Y-694259D01*
X-271324Y-694333D01*
X-271546Y-694389D01*
X-271750Y-694426D01*
X-271935Y-694463D01*
X-272083Y-694482D01*
X-272213Y-694500D01*
X-272398D01*
X-272898Y-694463D01*
X-273361Y-694389D01*
X-273750Y-694259D01*
X-274083Y-694130D01*
X-274361Y-694000D01*
X-274454Y-693926D01*
X-274546Y-693870D01*
X-274620Y-693833D01*
X-274676Y-693796D01*
X-274694Y-693759D01*
X-274713D01*
X-275046Y-693445D01*
X-275324Y-693111D01*
X-275564Y-692741D01*
X-275750Y-692408D01*
X-275898Y-692093D01*
X-275972Y-691963D01*
X-276009Y-691834D01*
X-276046Y-691741D01*
X-276083Y-691667D01*
X-276101Y-691630D01*
Y-691611D01*
X-276194Y-691334D01*
X-276268Y-691056D01*
X-276379Y-690463D01*
X-276472Y-689852D01*
X-276527Y-689260D01*
X-276546Y-689001D01*
X-276564Y-688760D01*
Y-688538D01*
X-276583Y-688334D01*
Y-688186D01*
Y-688056D01*
Y-687982D01*
Y-687964D01*
Y-687612D01*
X-276564Y-687279D01*
Y-686982D01*
X-276546Y-686686D01*
X-276509Y-686427D01*
X-276490Y-686168D01*
X-276472Y-685945D01*
X-276435Y-685742D01*
X-276416Y-685556D01*
X-276379Y-685390D01*
X-276361Y-685260D01*
X-276342Y-685149D01*
X-276324Y-685057D01*
X-276305Y-685001D01*
X-276287Y-684964D01*
Y-684945D01*
X-276176Y-684538D01*
X-276046Y-684168D01*
X-275898Y-683853D01*
X-275787Y-683575D01*
X-275657Y-683335D01*
X-275583Y-683168D01*
X-275509Y-683075D01*
X-275490Y-683038D01*
X-275287Y-682760D01*
X-275083Y-682520D01*
X-274861Y-682316D01*
X-274657Y-682131D01*
X-274472Y-682001D01*
X-274324Y-681909D01*
X-274231Y-681853D01*
X-274213Y-681835D01*
X-274194D01*
X-273898Y-681686D01*
X-273583Y-681594D01*
X-273287Y-681520D01*
X-273009Y-681464D01*
X-272768Y-681427D01*
X-272565Y-681409D01*
X-272398D01*
X-271898Y-681446D01*
D02*
G37*
G36*
X-286841D02*
X-286378Y-681520D01*
X-285989Y-681649D01*
X-285656Y-681779D01*
X-285378Y-681927D01*
X-285267Y-681983D01*
X-285175Y-682057D01*
X-285101Y-682094D01*
X-285045Y-682131D01*
X-285026Y-682168D01*
X-285008D01*
X-284675Y-682464D01*
X-284397Y-682816D01*
X-284156Y-683168D01*
X-283971Y-683501D01*
X-283823Y-683816D01*
X-283749Y-683945D01*
X-283712Y-684075D01*
X-283675Y-684168D01*
X-283638Y-684242D01*
X-283619Y-684279D01*
Y-684297D01*
X-283545Y-684575D01*
X-283471Y-684853D01*
X-283360Y-685464D01*
X-283267Y-686075D01*
X-283212Y-686649D01*
X-283193Y-686927D01*
X-283175Y-687167D01*
Y-687390D01*
X-283156Y-687593D01*
Y-687741D01*
Y-687871D01*
Y-687945D01*
Y-687964D01*
X-283175Y-688612D01*
X-283212Y-689223D01*
X-283267Y-689778D01*
X-283360Y-690297D01*
X-283453Y-690778D01*
X-283564Y-691204D01*
X-283675Y-691593D01*
X-283786Y-691926D01*
X-283897Y-692223D01*
X-284027Y-692482D01*
X-284119Y-692704D01*
X-284212Y-692870D01*
X-284304Y-693019D01*
X-284360Y-693111D01*
X-284397Y-693167D01*
X-284415Y-693185D01*
X-284619Y-693408D01*
X-284841Y-693611D01*
X-285082Y-693796D01*
X-285323Y-693944D01*
X-285564Y-694074D01*
X-285804Y-694185D01*
X-286045Y-694259D01*
X-286267Y-694333D01*
X-286489Y-694389D01*
X-286693Y-694426D01*
X-286878Y-694463D01*
X-287026Y-694482D01*
X-287156Y-694500D01*
X-287341D01*
X-287841Y-694463D01*
X-288304Y-694389D01*
X-288693Y-694259D01*
X-289026Y-694130D01*
X-289304Y-694000D01*
X-289396Y-693926D01*
X-289489Y-693870D01*
X-289563Y-693833D01*
X-289619Y-693796D01*
X-289637Y-693759D01*
X-289656D01*
X-289989Y-693445D01*
X-290267Y-693111D01*
X-290507Y-692741D01*
X-290693Y-692408D01*
X-290841Y-692093D01*
X-290915Y-691963D01*
X-290952Y-691834D01*
X-290989Y-691741D01*
X-291026Y-691667D01*
X-291044Y-691630D01*
Y-691611D01*
X-291137Y-691334D01*
X-291211Y-691056D01*
X-291322Y-690463D01*
X-291415Y-689852D01*
X-291470Y-689260D01*
X-291489Y-689001D01*
X-291507Y-688760D01*
Y-688538D01*
X-291526Y-688334D01*
Y-688186D01*
Y-688056D01*
Y-687982D01*
Y-687964D01*
Y-687612D01*
X-291507Y-687279D01*
Y-686982D01*
X-291489Y-686686D01*
X-291452Y-686427D01*
X-291433Y-686168D01*
X-291415Y-685945D01*
X-291378Y-685742D01*
X-291359Y-685556D01*
X-291322Y-685390D01*
X-291304Y-685260D01*
X-291285Y-685149D01*
X-291267Y-685057D01*
X-291248Y-685001D01*
X-291230Y-684964D01*
Y-684945D01*
X-291119Y-684538D01*
X-290989Y-684168D01*
X-290841Y-683853D01*
X-290730Y-683575D01*
X-290600Y-683335D01*
X-290526Y-683168D01*
X-290452Y-683075D01*
X-290433Y-683038D01*
X-290230Y-682760D01*
X-290026Y-682520D01*
X-289804Y-682316D01*
X-289600Y-682131D01*
X-289415Y-682001D01*
X-289267Y-681909D01*
X-289174Y-681853D01*
X-289156Y-681835D01*
X-289137D01*
X-288841Y-681686D01*
X-288526Y-681594D01*
X-288230Y-681520D01*
X-287952Y-681464D01*
X-287711Y-681427D01*
X-287508Y-681409D01*
X-287341D01*
X-286841Y-681446D01*
D02*
G37*
%LPC*%
G36*
X-307432Y-670421D02*
X-307450D01*
X-307432Y-671013D01*
X-307413Y-671384D01*
X-307395Y-671699D01*
X-307358Y-671958D01*
X-307302Y-672180D01*
X-307246Y-672347D01*
X-307209Y-672476D01*
X-307191Y-672550D01*
X-307172Y-672569D01*
X-307024Y-672810D01*
X-306876Y-673032D01*
X-306691Y-673217D01*
X-306524Y-673365D01*
X-306376Y-673495D01*
X-306247Y-673587D01*
X-306173Y-673643D01*
X-306136Y-673661D01*
X-305858Y-673791D01*
X-305580Y-673884D01*
X-305321Y-673958D01*
X-305061Y-673995D01*
X-304858Y-674032D01*
X-304673Y-674050D01*
X-304524D01*
X-304191Y-674032D01*
X-303913Y-673995D01*
X-303673Y-673921D01*
X-303469Y-673847D01*
X-303321Y-673773D01*
X-303210Y-673698D01*
X-303136Y-673661D01*
X-303117Y-673643D01*
X-302969Y-673476D01*
X-302858Y-673291D01*
X-302765Y-673124D01*
X-302710Y-672958D01*
X-302673Y-672810D01*
X-302654Y-672699D01*
Y-672606D01*
Y-672588D01*
X-302673Y-672439D01*
X-302691Y-672291D01*
X-302728Y-672180D01*
X-302765Y-672069D01*
X-302803Y-671976D01*
X-302821Y-671902D01*
X-302858Y-671865D01*
Y-671847D01*
X-303043Y-671625D01*
X-303265Y-671477D01*
X-303339Y-671421D01*
X-303414Y-671384D01*
X-303469Y-671347D01*
X-303488D01*
X-303673Y-671273D01*
X-303876Y-671217D01*
X-304099Y-671162D01*
X-304321Y-671125D01*
X-304524Y-671088D01*
X-304710Y-671051D01*
X-304821Y-671032D01*
X-304858D01*
X-305173Y-670976D01*
X-305469Y-670939D01*
X-305728Y-670884D01*
X-305987Y-670828D01*
X-306228Y-670773D01*
X-306432Y-670717D01*
X-306635Y-670680D01*
X-306802Y-670625D01*
X-306950Y-670588D01*
X-307080Y-670551D01*
X-307191Y-670514D01*
X-307283Y-670477D01*
X-307358Y-670458D01*
X-307413Y-670440D01*
X-307432Y-670421D01*
D02*
G37*
G36*
X-346261D02*
X-346279D01*
X-346261Y-671013D01*
X-346242Y-671384D01*
X-346224Y-671699D01*
X-346187Y-671958D01*
X-346131Y-672180D01*
X-346076Y-672347D01*
X-346039Y-672476D01*
X-346020Y-672550D01*
X-346002Y-672569D01*
X-345854Y-672810D01*
X-345705Y-673032D01*
X-345520Y-673217D01*
X-345354Y-673365D01*
X-345205Y-673495D01*
X-345076Y-673587D01*
X-345002Y-673643D01*
X-344965Y-673661D01*
X-344687Y-673791D01*
X-344409Y-673884D01*
X-344150Y-673958D01*
X-343891Y-673995D01*
X-343687Y-674032D01*
X-343502Y-674050D01*
X-343354D01*
X-343021Y-674032D01*
X-342743Y-673995D01*
X-342502Y-673921D01*
X-342298Y-673847D01*
X-342150Y-673773D01*
X-342039Y-673698D01*
X-341965Y-673661D01*
X-341947Y-673643D01*
X-341798Y-673476D01*
X-341687Y-673291D01*
X-341595Y-673124D01*
X-341539Y-672958D01*
X-341502Y-672810D01*
X-341484Y-672699D01*
Y-672606D01*
Y-672588D01*
X-341502Y-672439D01*
X-341521Y-672291D01*
X-341558Y-672180D01*
X-341595Y-672069D01*
X-341632Y-671976D01*
X-341650Y-671902D01*
X-341687Y-671865D01*
Y-671847D01*
X-341872Y-671625D01*
X-342095Y-671477D01*
X-342169Y-671421D01*
X-342243Y-671384D01*
X-342298Y-671347D01*
X-342317D01*
X-342502Y-671273D01*
X-342706Y-671217D01*
X-342928Y-671162D01*
X-343150Y-671125D01*
X-343354Y-671088D01*
X-343539Y-671051D01*
X-343650Y-671032D01*
X-343687D01*
X-344002Y-670976D01*
X-344298Y-670939D01*
X-344557Y-670884D01*
X-344817Y-670828D01*
X-345057Y-670773D01*
X-345261Y-670717D01*
X-345465Y-670680D01*
X-345631Y-670625D01*
X-345779Y-670588D01*
X-345909Y-670551D01*
X-346020Y-670514D01*
X-346113Y-670477D01*
X-346187Y-670458D01*
X-346242Y-670440D01*
X-346261Y-670421D01*
D02*
G37*
G36*
X-271380Y-666884D02*
X-271491D01*
X-271713Y-666903D01*
X-271917Y-666921D01*
X-272306Y-667032D01*
X-272639Y-667181D01*
X-272917Y-667347D01*
X-273139Y-667514D01*
X-273305Y-667662D01*
X-273398Y-667773D01*
X-273435Y-667792D01*
Y-667810D01*
X-273602Y-668051D01*
X-273750Y-668329D01*
X-273843Y-668606D01*
X-273935Y-668903D01*
X-273991Y-669143D01*
X-274028Y-669366D01*
Y-669440D01*
X-274046Y-669495D01*
Y-669532D01*
Y-669551D01*
X-268843D01*
X-268899Y-669125D01*
X-269010Y-668736D01*
X-269139Y-668403D01*
X-269287Y-668143D01*
X-269417Y-667921D01*
X-269547Y-667755D01*
X-269621Y-667662D01*
X-269658Y-667625D01*
X-269954Y-667384D01*
X-270250Y-667199D01*
X-270565Y-667069D01*
X-270861Y-666977D01*
X-271102Y-666921D01*
X-271306Y-666903D01*
X-271380Y-666884D01*
D02*
G37*
G36*
X-282212Y-663607D02*
X-282342Y-664033D01*
X-282490Y-664477D01*
X-282638Y-664922D01*
X-282786Y-665348D01*
X-282860Y-665533D01*
X-282916Y-665718D01*
X-282971Y-665884D01*
X-283027Y-666014D01*
X-283064Y-666125D01*
X-283101Y-666218D01*
X-283119Y-666273D01*
Y-666292D01*
X-284452Y-669810D01*
X-280120D01*
X-281508Y-666070D01*
X-281675Y-665607D01*
X-281805Y-665162D01*
X-281934Y-664755D01*
X-282027Y-664385D01*
X-282101Y-664070D01*
X-282138Y-663940D01*
X-282157Y-663811D01*
X-282194Y-663736D01*
Y-663662D01*
X-282212Y-663625D01*
Y-663607D01*
D02*
G37*
G36*
X-221515Y-666884D02*
X-221626D01*
X-221848Y-666903D01*
X-222052Y-666921D01*
X-222422Y-667014D01*
X-222755Y-667162D01*
X-223033Y-667329D01*
X-223255Y-667495D01*
X-223422Y-667625D01*
X-223533Y-667736D01*
X-223570Y-667755D01*
Y-667773D01*
X-223718Y-667940D01*
X-223829Y-668143D01*
X-224033Y-668551D01*
X-224181Y-668995D01*
X-224274Y-669403D01*
X-224329Y-669791D01*
X-224348Y-669958D01*
Y-670106D01*
X-224366Y-670217D01*
Y-670310D01*
Y-670366D01*
Y-670384D01*
Y-670717D01*
X-224329Y-671032D01*
X-224292Y-671310D01*
X-224237Y-671588D01*
X-224181Y-671828D01*
X-224107Y-672050D01*
X-224051Y-672254D01*
X-223977Y-672439D01*
X-223903Y-672588D01*
X-223829Y-672736D01*
X-223755Y-672847D01*
X-223700Y-672939D01*
X-223644Y-673013D01*
X-223607Y-673069D01*
X-223589Y-673087D01*
X-223570Y-673106D01*
X-223422Y-673254D01*
X-223255Y-673402D01*
X-222940Y-673624D01*
X-222607Y-673773D01*
X-222311Y-673884D01*
X-222033Y-673939D01*
X-221829Y-673976D01*
X-221737Y-673995D01*
X-221626D01*
X-221404Y-673976D01*
X-221200Y-673958D01*
X-220811Y-673865D01*
X-220478Y-673717D01*
X-220200Y-673550D01*
X-219978Y-673402D01*
X-219811Y-673254D01*
X-219700Y-673161D01*
X-219681Y-673124D01*
X-219663D01*
X-219533Y-672939D01*
X-219404Y-672754D01*
X-219219Y-672328D01*
X-219070Y-671884D01*
X-218978Y-671439D01*
X-218922Y-671051D01*
X-218904Y-670884D01*
Y-670736D01*
X-218885Y-670606D01*
Y-670514D01*
Y-670458D01*
Y-670440D01*
X-218904Y-670125D01*
X-218922Y-669810D01*
X-218959Y-669532D01*
X-219015Y-669273D01*
X-219070Y-669032D01*
X-219126Y-668810D01*
X-219200Y-668625D01*
X-219274Y-668440D01*
X-219348Y-668292D01*
X-219422Y-668143D01*
X-219478Y-668032D01*
X-219533Y-667940D01*
X-219589Y-667866D01*
X-219626Y-667810D01*
X-219663Y-667792D01*
Y-667773D01*
X-219811Y-667625D01*
X-219978Y-667477D01*
X-220292Y-667255D01*
X-220626Y-667106D01*
X-220941Y-666995D01*
X-221218Y-666921D01*
X-221422Y-666903D01*
X-221515Y-666884D01*
D02*
G37*
G36*
X-251400D02*
X-251511D01*
X-251734Y-666903D01*
X-251937Y-666921D01*
X-252308Y-667014D01*
X-252641Y-667162D01*
X-252919Y-667329D01*
X-253141Y-667495D01*
X-253308Y-667625D01*
X-253419Y-667736D01*
X-253456Y-667755D01*
Y-667773D01*
X-253604Y-667940D01*
X-253715Y-668143D01*
X-253919Y-668551D01*
X-254067Y-668995D01*
X-254159Y-669403D01*
X-254215Y-669791D01*
X-254233Y-669958D01*
Y-670106D01*
X-254252Y-670217D01*
Y-670310D01*
Y-670366D01*
Y-670384D01*
Y-670717D01*
X-254215Y-671032D01*
X-254178Y-671310D01*
X-254122Y-671588D01*
X-254067Y-671828D01*
X-253993Y-672050D01*
X-253937Y-672254D01*
X-253863Y-672439D01*
X-253789Y-672588D01*
X-253715Y-672736D01*
X-253641Y-672847D01*
X-253585Y-672939D01*
X-253530Y-673013D01*
X-253493Y-673069D01*
X-253474Y-673087D01*
X-253456Y-673106D01*
X-253308Y-673254D01*
X-253141Y-673402D01*
X-252826Y-673624D01*
X-252493Y-673773D01*
X-252197Y-673884D01*
X-251919Y-673939D01*
X-251715Y-673976D01*
X-251623Y-673995D01*
X-251511D01*
X-251289Y-673976D01*
X-251086Y-673958D01*
X-250697Y-673865D01*
X-250364Y-673717D01*
X-250086Y-673550D01*
X-249863Y-673402D01*
X-249697Y-673254D01*
X-249586Y-673161D01*
X-249567Y-673124D01*
X-249549D01*
X-249419Y-672939D01*
X-249289Y-672754D01*
X-249104Y-672328D01*
X-248956Y-671884D01*
X-248864Y-671439D01*
X-248808Y-671051D01*
X-248790Y-670884D01*
Y-670736D01*
X-248771Y-670606D01*
Y-670514D01*
Y-670458D01*
Y-670440D01*
X-248790Y-670125D01*
X-248808Y-669810D01*
X-248845Y-669532D01*
X-248901Y-669273D01*
X-248956Y-669032D01*
X-249012Y-668810D01*
X-249086Y-668625D01*
X-249160Y-668440D01*
X-249234Y-668292D01*
X-249308Y-668143D01*
X-249364Y-668032D01*
X-249419Y-667940D01*
X-249475Y-667866D01*
X-249512Y-667810D01*
X-249549Y-667792D01*
Y-667773D01*
X-249697Y-667625D01*
X-249863Y-667477D01*
X-250178Y-667255D01*
X-250512Y-667106D01*
X-250826Y-666995D01*
X-251104Y-666921D01*
X-251308Y-666903D01*
X-251400Y-666884D01*
D02*
G37*
G36*
X-231699Y-666829D02*
X-231791D01*
X-231977Y-666847D01*
X-232162Y-666866D01*
X-232495Y-666958D01*
X-232791Y-667106D01*
X-233050Y-667273D01*
X-233254Y-667440D01*
X-233402Y-667570D01*
X-233495Y-667681D01*
X-233532Y-667699D01*
Y-667718D01*
X-233661Y-667884D01*
X-233773Y-668088D01*
X-233958Y-668514D01*
X-234087Y-668940D01*
X-234180Y-669366D01*
X-234235Y-669754D01*
X-234254Y-669921D01*
Y-670069D01*
X-234272Y-670199D01*
Y-670291D01*
Y-670347D01*
Y-670366D01*
Y-670699D01*
X-234235Y-671013D01*
X-234198Y-671310D01*
X-234161Y-671588D01*
X-234106Y-671828D01*
X-234032Y-672050D01*
X-233958Y-672273D01*
X-233902Y-672439D01*
X-233828Y-672606D01*
X-233754Y-672736D01*
X-233699Y-672865D01*
X-233624Y-672958D01*
X-233587Y-673032D01*
X-233550Y-673087D01*
X-233513Y-673106D01*
Y-673124D01*
X-233365Y-673273D01*
X-233217Y-673402D01*
X-232921Y-673624D01*
X-232625Y-673773D01*
X-232347Y-673884D01*
X-232088Y-673939D01*
X-231902Y-673976D01*
X-231828Y-673995D01*
X-231717D01*
X-231532Y-673976D01*
X-231347Y-673958D01*
X-231014Y-673865D01*
X-230717Y-673717D01*
X-230458Y-673569D01*
X-230254Y-673421D01*
X-230106Y-673273D01*
X-230014Y-673180D01*
X-229977Y-673143D01*
X-229847Y-672976D01*
X-229736Y-672791D01*
X-229551Y-672365D01*
X-229440Y-671939D01*
X-229347Y-671495D01*
X-229292Y-671106D01*
X-229273Y-670939D01*
Y-670791D01*
X-229254Y-670662D01*
Y-670569D01*
Y-670514D01*
Y-670495D01*
Y-670162D01*
X-229292Y-669865D01*
X-229329Y-669588D01*
X-229366Y-669310D01*
X-229440Y-669069D01*
X-229495Y-668847D01*
X-229569Y-668643D01*
X-229643Y-668458D01*
X-229699Y-668310D01*
X-229773Y-668162D01*
X-229847Y-668051D01*
X-229903Y-667940D01*
X-229940Y-667866D01*
X-229977Y-667810D01*
X-230014Y-667792D01*
Y-667773D01*
X-230162Y-667607D01*
X-230310Y-667458D01*
X-230458Y-667329D01*
X-230625Y-667218D01*
X-230921Y-667051D01*
X-231199Y-666940D01*
X-231439Y-666884D01*
X-231625Y-666847D01*
X-231699Y-666829D01*
D02*
G37*
G36*
X-272269Y-682705D02*
X-272380D01*
X-272583Y-682723D01*
X-272787Y-682742D01*
X-272972Y-682797D01*
X-273139Y-682872D01*
X-273454Y-683038D01*
X-273731Y-683223D01*
X-273935Y-683427D01*
X-274102Y-683594D01*
X-274157Y-683668D01*
X-274194Y-683723D01*
X-274231Y-683742D01*
Y-683760D01*
X-274361Y-683983D01*
X-274472Y-684242D01*
X-274583Y-684538D01*
X-274657Y-684853D01*
X-274731Y-685186D01*
X-274787Y-685538D01*
X-274879Y-686242D01*
X-274916Y-686593D01*
X-274935Y-686908D01*
X-274953Y-687205D01*
Y-687445D01*
X-274972Y-687667D01*
Y-687834D01*
Y-687927D01*
Y-687945D01*
Y-687964D01*
Y-688538D01*
X-274935Y-689056D01*
X-274898Y-689519D01*
X-274861Y-689963D01*
X-274805Y-690334D01*
X-274731Y-690686D01*
X-274657Y-690982D01*
X-274602Y-691260D01*
X-274528Y-691482D01*
X-274454Y-691667D01*
X-274398Y-691834D01*
X-274324Y-691963D01*
X-274287Y-692056D01*
X-274250Y-692111D01*
X-274213Y-692148D01*
Y-692167D01*
X-274065Y-692352D01*
X-273917Y-692500D01*
X-273768Y-692648D01*
X-273620Y-692759D01*
X-273305Y-692945D01*
X-273028Y-693074D01*
X-272768Y-693148D01*
X-272583Y-693185D01*
X-272509Y-693204D01*
X-272398D01*
X-272194Y-693185D01*
X-272009Y-693167D01*
X-271658Y-693037D01*
X-271343Y-692870D01*
X-271065Y-692685D01*
X-270861Y-692500D01*
X-270695Y-692334D01*
X-270602Y-692204D01*
X-270565Y-692185D01*
Y-692167D01*
X-270436Y-691945D01*
X-270324Y-691685D01*
X-270213Y-691389D01*
X-270139Y-691074D01*
X-270065Y-690741D01*
X-270010Y-690389D01*
X-269917Y-689667D01*
X-269880Y-689334D01*
X-269861Y-689019D01*
X-269843Y-688723D01*
Y-688482D01*
X-269824Y-688260D01*
Y-688093D01*
Y-688001D01*
Y-687964D01*
X-269843Y-687390D01*
X-269861Y-686871D01*
X-269898Y-686390D01*
X-269954Y-685945D01*
X-270010Y-685556D01*
X-270084Y-685205D01*
X-270158Y-684890D01*
X-270232Y-684612D01*
X-270306Y-684371D01*
X-270361Y-684168D01*
X-270436Y-684001D01*
X-270491Y-683853D01*
X-270547Y-683760D01*
X-270584Y-683686D01*
X-270621Y-683649D01*
Y-683631D01*
X-270750Y-683464D01*
X-270880Y-683316D01*
X-271028Y-683205D01*
X-271176Y-683094D01*
X-271472Y-682927D01*
X-271750Y-682816D01*
X-271991Y-682760D01*
X-272194Y-682723D01*
X-272269Y-682705D01*
D02*
G37*
G36*
X-287211D02*
X-287323D01*
X-287526Y-682723D01*
X-287730Y-682742D01*
X-287915Y-682797D01*
X-288082Y-682872D01*
X-288397Y-683038D01*
X-288674Y-683223D01*
X-288878Y-683427D01*
X-289045Y-683594D01*
X-289100Y-683668D01*
X-289137Y-683723D01*
X-289174Y-683742D01*
Y-683760D01*
X-289304Y-683983D01*
X-289415Y-684242D01*
X-289526Y-684538D01*
X-289600Y-684853D01*
X-289674Y-685186D01*
X-289730Y-685538D01*
X-289822Y-686242D01*
X-289859Y-686593D01*
X-289878Y-686908D01*
X-289896Y-687205D01*
Y-687445D01*
X-289915Y-687667D01*
Y-687834D01*
Y-687927D01*
Y-687945D01*
Y-687964D01*
Y-688538D01*
X-289878Y-689056D01*
X-289841Y-689519D01*
X-289804Y-689963D01*
X-289748Y-690334D01*
X-289674Y-690686D01*
X-289600Y-690982D01*
X-289545Y-691260D01*
X-289471Y-691482D01*
X-289396Y-691667D01*
X-289341Y-691834D01*
X-289267Y-691963D01*
X-289230Y-692056D01*
X-289193Y-692111D01*
X-289156Y-692148D01*
Y-692167D01*
X-289008Y-692352D01*
X-288860Y-692500D01*
X-288711Y-692648D01*
X-288563Y-692759D01*
X-288248Y-692945D01*
X-287971Y-693074D01*
X-287711Y-693148D01*
X-287526Y-693185D01*
X-287452Y-693204D01*
X-287341D01*
X-287137Y-693185D01*
X-286952Y-693167D01*
X-286600Y-693037D01*
X-286286Y-692870D01*
X-286008Y-692685D01*
X-285804Y-692500D01*
X-285638Y-692334D01*
X-285545Y-692204D01*
X-285508Y-692185D01*
Y-692167D01*
X-285378Y-691945D01*
X-285267Y-691685D01*
X-285156Y-691389D01*
X-285082Y-691074D01*
X-285008Y-690741D01*
X-284953Y-690389D01*
X-284860Y-689667D01*
X-284823Y-689334D01*
X-284804Y-689019D01*
X-284786Y-688723D01*
Y-688482D01*
X-284767Y-688260D01*
Y-688093D01*
Y-688001D01*
Y-687964D01*
X-284786Y-687390D01*
X-284804Y-686871D01*
X-284841Y-686390D01*
X-284897Y-685945D01*
X-284953Y-685556D01*
X-285026Y-685205D01*
X-285101Y-684890D01*
X-285175Y-684612D01*
X-285249Y-684371D01*
X-285304Y-684168D01*
X-285378Y-684001D01*
X-285434Y-683853D01*
X-285489Y-683760D01*
X-285527Y-683686D01*
X-285564Y-683649D01*
Y-683631D01*
X-285693Y-683464D01*
X-285823Y-683316D01*
X-285971Y-683205D01*
X-286119Y-683094D01*
X-286415Y-682927D01*
X-286693Y-682816D01*
X-286934Y-682760D01*
X-287137Y-682723D01*
X-287211Y-682705D01*
D02*
G37*
%LPD*%
D10*
X-147460Y-305510D02*
G03*
X-150460Y-302510I-3000J0D01*
G01*
X-10180Y-231220D02*
G03*
X-10180Y-231220I-12700J0D01*
G01*
X-153040Y-39910D02*
G03*
X-153040Y-39910I-27000J0D01*
G01*
X-35180Y-783980D02*
G03*
X-35180Y-783980I-27000J0D01*
G01*
X-168960Y-332010D02*
Y-302010D01*
X-163960Y-332010D02*
Y-302010D01*
X-168960Y-332010D02*
X-163960D01*
X-168960Y-302010D02*
X-163960D01*
X-159460Y-302510D02*
X-150460D01*
X-147460Y-309510D02*
Y-305510D01*
D11*
X-13060Y-315140D02*
Y-310140D01*
X-21560Y-315140D02*
Y-310140D01*
X-169710Y-296230D02*
X-164710D01*
X-169710Y-287730D02*
X-164710D01*
X-350800Y-379710D02*
Y-374710D01*
X-358800Y-379710D02*
Y-374710D01*
X-249000Y-337250D02*
Y-332250D01*
X-241000Y-337250D02*
Y-332250D01*
X-168530Y-455250D02*
X-163530D01*
X-168530Y-463250D02*
X-163530D01*
D12*
X-389510Y-0D02*
G03*
X-400000Y-10000I-245J-10245D01*
G01*
X-399810Y-830000D02*
G03*
X-389810Y-840000I10000J0D01*
G01*
X-10000D02*
G03*
X0Y-830000I0J10000D01*
G01*
X-0Y-10000D02*
G03*
X-10000Y-0I-10000J0D01*
G01*
X-389510D02*
X-290000D01*
X-400000Y-10000D02*
X-399810Y-830000D01*
X-389810Y-840000D02*
X-290000D01*
Y-0D02*
X-10000D01*
X-0Y-10000D02*
X0Y-830000D01*
X-290000Y-840000D02*
X-10000D01*
D13*
X-122411Y-829090D02*
X-126409D01*
Y-827091D01*
X-125743Y-826425D01*
X-124410D01*
X-123744Y-827091D01*
Y-829090D01*
Y-827758D02*
X-122411Y-826425D01*
Y-823092D02*
Y-824425D01*
X-123077Y-825092D01*
X-124410D01*
X-125077Y-824425D01*
Y-823092D01*
X-124410Y-822426D01*
X-123744D01*
Y-825092D01*
X-122411Y-821093D02*
Y-819094D01*
X-123077Y-818427D01*
X-123744Y-819094D01*
Y-820427D01*
X-124410Y-821093D01*
X-125077Y-820427D01*
Y-818427D01*
X-122411Y-817094D02*
Y-815762D01*
Y-816428D01*
X-125077D01*
Y-817094D01*
X-122411Y-813762D02*
Y-811763D01*
X-123077Y-811096D01*
X-123744Y-811763D01*
Y-813096D01*
X-124410Y-813762D01*
X-125077Y-813096D01*
Y-811096D01*
X-125743Y-809097D02*
X-125077D01*
Y-809763D01*
Y-808431D01*
Y-809097D01*
X-123077D01*
X-122411Y-808431D01*
X-125077Y-805765D02*
Y-804432D01*
X-124410Y-803765D01*
X-122411D01*
Y-805765D01*
X-123077Y-806431D01*
X-123744Y-805765D01*
Y-803765D01*
X-122411Y-802433D02*
X-125077D01*
Y-800433D01*
X-124410Y-799767D01*
X-122411D01*
X-125077Y-795768D02*
Y-797767D01*
X-124410Y-798434D01*
X-123077D01*
X-122411Y-797767D01*
Y-795768D01*
Y-792436D02*
Y-793769D01*
X-123077Y-794435D01*
X-124410D01*
X-125077Y-793769D01*
Y-792436D01*
X-124410Y-791769D01*
X-123744D01*
Y-794435D01*
X-146309Y-429951D02*
Y-433949D01*
X-148309D01*
X-148975Y-433283D01*
Y-431950D01*
X-148309Y-431284D01*
X-146309D01*
X-147642D02*
X-148975Y-429951D01*
X-152308D02*
X-150975D01*
X-150308Y-430617D01*
Y-431950D01*
X-150975Y-432617D01*
X-152308D01*
X-152974Y-431950D01*
Y-431284D01*
X-150308D01*
X-154307Y-429951D02*
X-156306D01*
X-156973Y-430617D01*
X-156306Y-431284D01*
X-154973D01*
X-154307Y-431950D01*
X-154973Y-432617D01*
X-156973D01*
X-158306Y-429951D02*
X-159639D01*
X-158972D01*
Y-432617D01*
X-158306D01*
X-161638Y-429951D02*
X-163637D01*
X-164304Y-430617D01*
X-163637Y-431284D01*
X-162304D01*
X-161638Y-431950D01*
X-162304Y-432617D01*
X-164304D01*
X-166303Y-433283D02*
Y-432617D01*
X-165637D01*
X-166969D01*
X-166303D01*
Y-430617D01*
X-166969Y-429951D01*
X-169635Y-432617D02*
X-170968D01*
X-171635Y-431950D01*
Y-429951D01*
X-169635D01*
X-168969Y-430617D01*
X-169635Y-431284D01*
X-171635D01*
X-172967Y-429951D02*
Y-432617D01*
X-174967D01*
X-175633Y-431950D01*
Y-429951D01*
X-179632Y-432617D02*
X-177633D01*
X-176966Y-431950D01*
Y-430617D01*
X-177633Y-429951D01*
X-179632D01*
X-182964D02*
X-181631D01*
X-180965Y-430617D01*
Y-431950D01*
X-181631Y-432617D01*
X-182964D01*
X-183631Y-431950D01*
Y-431284D01*
X-180965D01*
X-147490Y-478491D02*
Y-482489D01*
X-149489D01*
X-150155Y-481823D01*
Y-480490D01*
X-149489Y-479824D01*
X-147490D01*
X-148822D02*
X-150155Y-478491D01*
X-153488D02*
X-152155D01*
X-151488Y-479157D01*
Y-480490D01*
X-152155Y-481157D01*
X-153488D01*
X-154154Y-480490D01*
Y-479824D01*
X-151488D01*
X-155487Y-478491D02*
X-157486D01*
X-158153Y-479157D01*
X-157486Y-479824D01*
X-156153D01*
X-155487Y-480490D01*
X-156153Y-481157D01*
X-158153D01*
X-159486Y-478491D02*
X-160819D01*
X-160152D01*
Y-481157D01*
X-159486D01*
X-162818Y-478491D02*
X-164817D01*
X-165484Y-479157D01*
X-164817Y-479824D01*
X-163484D01*
X-162818Y-480490D01*
X-163484Y-481157D01*
X-165484D01*
X-167483Y-481823D02*
Y-481157D01*
X-166817D01*
X-168149D01*
X-167483D01*
Y-479157D01*
X-168149Y-478491D01*
X-170815Y-481157D02*
X-172148D01*
X-172815Y-480490D01*
Y-478491D01*
X-170815D01*
X-170149Y-479157D01*
X-170815Y-479824D01*
X-172815D01*
X-174147Y-478491D02*
Y-481157D01*
X-176147D01*
X-176813Y-480490D01*
Y-478491D01*
X-180812Y-481157D02*
X-178813D01*
X-178146Y-480490D01*
Y-479157D01*
X-178813Y-478491D01*
X-180812D01*
X-184144D02*
X-182811D01*
X-182145Y-479157D01*
Y-480490D01*
X-182811Y-481157D01*
X-184144D01*
X-184811Y-480490D01*
Y-479824D01*
X-182145D01*
X-108861Y-829090D02*
X-112859D01*
Y-827091D01*
X-112193Y-826425D01*
X-110860D01*
X-110194Y-827091D01*
Y-829090D01*
Y-827758D02*
X-108861Y-826425D01*
Y-823092D02*
Y-824425D01*
X-109527Y-825092D01*
X-110860D01*
X-111526Y-824425D01*
Y-823092D01*
X-110860Y-822426D01*
X-110194D01*
Y-825092D01*
X-108861Y-821093D02*
Y-819094D01*
X-109527Y-818427D01*
X-110194Y-819094D01*
Y-820427D01*
X-110860Y-821093D01*
X-111526Y-820427D01*
Y-818427D01*
X-108861Y-817094D02*
Y-815762D01*
Y-816428D01*
X-111526D01*
Y-817094D01*
X-108861Y-813762D02*
Y-811763D01*
X-109527Y-811096D01*
X-110194Y-811763D01*
Y-813096D01*
X-110860Y-813762D01*
X-111526Y-813096D01*
Y-811096D01*
X-112193Y-809097D02*
X-111526D01*
Y-809763D01*
Y-808431D01*
Y-809097D01*
X-109527D01*
X-108861Y-808431D01*
X-111526Y-805765D02*
Y-804432D01*
X-110860Y-803765D01*
X-108861D01*
Y-805765D01*
X-109527Y-806431D01*
X-110194Y-805765D01*
Y-803765D01*
X-108861Y-802433D02*
X-111526D01*
Y-800433D01*
X-110860Y-799767D01*
X-108861D01*
X-111526Y-795768D02*
Y-797767D01*
X-110860Y-798434D01*
X-109527D01*
X-108861Y-797767D01*
Y-795768D01*
Y-792436D02*
Y-793769D01*
X-109527Y-794435D01*
X-110860D01*
X-111526Y-793769D01*
Y-792436D01*
X-110860Y-791769D01*
X-110194D01*
Y-794435D01*
X-169961Y-191570D02*
X-173959D01*
Y-189571D01*
X-173293Y-188905D01*
X-171960D01*
X-171294Y-189571D01*
Y-191570D01*
Y-190238D02*
X-169961Y-188905D01*
Y-185572D02*
Y-186905D01*
X-170627Y-187572D01*
X-171960D01*
X-172626Y-186905D01*
Y-185572D01*
X-171960Y-184906D01*
X-171294D01*
Y-187572D01*
X-169961Y-183573D02*
Y-181574D01*
X-170627Y-180907D01*
X-171294Y-181574D01*
Y-182907D01*
X-171960Y-183573D01*
X-172626Y-182907D01*
Y-180907D01*
X-169961Y-179574D02*
Y-178242D01*
Y-178908D01*
X-172626D01*
Y-179574D01*
X-169961Y-176242D02*
Y-174243D01*
X-170627Y-173576D01*
X-171294Y-174243D01*
Y-175576D01*
X-171960Y-176242D01*
X-172626Y-175576D01*
Y-173576D01*
X-173293Y-171577D02*
X-172626D01*
Y-172243D01*
Y-170911D01*
Y-171577D01*
X-170627D01*
X-169961Y-170911D01*
X-172626Y-168245D02*
Y-166912D01*
X-171960Y-166245D01*
X-169961D01*
Y-168245D01*
X-170627Y-168911D01*
X-171294Y-168245D01*
Y-166245D01*
X-169961Y-164912D02*
X-172626D01*
Y-162913D01*
X-171960Y-162247D01*
X-169961D01*
X-172626Y-158248D02*
Y-160247D01*
X-171960Y-160914D01*
X-170627D01*
X-169961Y-160247D01*
Y-158248D01*
Y-154916D02*
Y-156249D01*
X-170627Y-156915D01*
X-171960D01*
X-172626Y-156249D01*
Y-154916D01*
X-171960Y-154249D01*
X-171294D01*
Y-156915D01*
X-135961Y-829091D02*
X-139959D01*
Y-827091D01*
X-139293Y-826425D01*
X-137960D01*
X-137294Y-827091D01*
Y-829091D01*
Y-827758D02*
X-135961Y-826425D01*
Y-823092D02*
Y-824425D01*
X-136627Y-825092D01*
X-137960D01*
X-138626Y-824425D01*
Y-823092D01*
X-137960Y-822426D01*
X-137294D01*
Y-825092D01*
X-135961Y-821093D02*
Y-819094D01*
X-136627Y-818427D01*
X-137294Y-819094D01*
Y-820427D01*
X-137960Y-821093D01*
X-138626Y-820427D01*
Y-818427D01*
X-135961Y-817094D02*
Y-815762D01*
Y-816428D01*
X-138626D01*
Y-817094D01*
X-135961Y-813762D02*
Y-811763D01*
X-136627Y-811096D01*
X-137294Y-811763D01*
Y-813096D01*
X-137960Y-813762D01*
X-138626Y-813096D01*
Y-811096D01*
X-139293Y-809097D02*
X-138626D01*
Y-809763D01*
Y-808431D01*
Y-809097D01*
X-136627D01*
X-135961Y-808431D01*
X-138626Y-805765D02*
Y-804432D01*
X-137960Y-803765D01*
X-135961D01*
Y-805765D01*
X-136627Y-806431D01*
X-137294Y-805765D01*
Y-803765D01*
X-135961Y-802433D02*
X-138626D01*
Y-800433D01*
X-137960Y-799767D01*
X-135961D01*
X-138626Y-795768D02*
Y-797767D01*
X-137960Y-798434D01*
X-136627D01*
X-135961Y-797767D01*
Y-795768D01*
Y-792436D02*
Y-793769D01*
X-136627Y-794435D01*
X-137960D01*
X-138626Y-793769D01*
Y-792436D01*
X-137960Y-791769D01*
X-137294D01*
Y-794435D01*
X-148549Y-293979D02*
Y-289981D01*
X-150549D01*
X-151215Y-290647D01*
Y-291980D01*
X-150549Y-292646D01*
X-148549D01*
X-149882D02*
X-151215Y-293979D01*
X-154547D02*
X-153215D01*
X-152548Y-293313D01*
Y-291980D01*
X-153215Y-291313D01*
X-154547D01*
X-155214Y-291980D01*
Y-292646D01*
X-152548D01*
X-156547Y-293979D02*
X-158546D01*
X-159213Y-293313D01*
X-158546Y-292646D01*
X-157213D01*
X-156547Y-291980D01*
X-157213Y-291313D01*
X-159213D01*
X-160546Y-293979D02*
X-161878D01*
X-161212D01*
Y-291313D01*
X-160546D01*
X-163878Y-293979D02*
X-165877D01*
X-166544Y-293313D01*
X-165877Y-292646D01*
X-164544D01*
X-163878Y-291980D01*
X-164544Y-291313D01*
X-166544D01*
X-168543Y-290647D02*
Y-291313D01*
X-167876D01*
X-169209D01*
X-168543D01*
Y-293313D01*
X-169209Y-293979D01*
X-171875Y-291313D02*
X-173208D01*
X-173874Y-291980D01*
Y-293979D01*
X-171875D01*
X-171209Y-293313D01*
X-171875Y-292646D01*
X-173874D01*
X-175207Y-293979D02*
Y-291313D01*
X-177207D01*
X-177873Y-291980D01*
Y-293979D01*
X-181872Y-291313D02*
X-179872D01*
X-179206Y-291980D01*
Y-293313D01*
X-179872Y-293979D01*
X-181872D01*
X-185204D02*
X-183871D01*
X-183205Y-293313D01*
Y-291980D01*
X-183871Y-291313D01*
X-185204D01*
X-185871Y-291980D01*
Y-292646D01*
X-183205D01*
X-107591Y-231171D02*
Y-235169D01*
X-109591D01*
X-110257Y-234503D01*
Y-233170D01*
X-109591Y-232504D01*
X-107591D01*
X-108924D02*
X-110257Y-231171D01*
X-113589D02*
X-112256D01*
X-111590Y-231837D01*
Y-233170D01*
X-112256Y-233836D01*
X-113589D01*
X-114256Y-233170D01*
Y-232504D01*
X-111590D01*
X-115589Y-231171D02*
X-117588D01*
X-118254Y-231837D01*
X-117588Y-232504D01*
X-116255D01*
X-115589Y-233170D01*
X-116255Y-233836D01*
X-118254D01*
X-119587Y-231171D02*
X-120920D01*
X-120254D01*
Y-233836D01*
X-119587D01*
X-122920Y-231171D02*
X-124919D01*
X-125585Y-231837D01*
X-124919Y-232504D01*
X-123586D01*
X-122920Y-233170D01*
X-123586Y-233836D01*
X-125585D01*
X-127585Y-234503D02*
Y-233836D01*
X-126918D01*
X-128251D01*
X-127585D01*
Y-231837D01*
X-128251Y-231171D01*
X-130917Y-233836D02*
X-132250D01*
X-132916Y-233170D01*
Y-231171D01*
X-130917D01*
X-130251Y-231837D01*
X-130917Y-232504D01*
X-132916D01*
X-134249Y-231171D02*
Y-233836D01*
X-136249D01*
X-136915Y-233170D01*
Y-231171D01*
X-140914Y-233836D02*
X-138914D01*
X-138248Y-233170D01*
Y-231837D01*
X-138914Y-231171D01*
X-140914D01*
X-144246D02*
X-142913D01*
X-142247Y-231837D01*
Y-233170D01*
X-142913Y-233836D01*
X-144246D01*
X-144913Y-233170D01*
Y-232504D01*
X-142247D01*
X-116085Y-179139D02*
X-112086D01*
Y-181139D01*
X-112753Y-181805D01*
X-114086D01*
X-114752Y-181139D01*
Y-179139D01*
Y-180472D02*
X-116085Y-181805D01*
Y-185138D02*
Y-183805D01*
X-115419Y-183138D01*
X-114086D01*
X-113419Y-183805D01*
Y-185138D01*
X-114086Y-185804D01*
X-114752D01*
Y-183138D01*
X-116085Y-187137D02*
Y-189136D01*
X-115419Y-189803D01*
X-114752Y-189136D01*
Y-187803D01*
X-114086Y-187137D01*
X-113419Y-187803D01*
Y-189803D01*
X-116085Y-191136D02*
Y-192468D01*
Y-191802D01*
X-113419D01*
Y-191136D01*
X-116085Y-194468D02*
Y-196467D01*
X-115419Y-197134D01*
X-114752Y-196467D01*
Y-195134D01*
X-114086Y-194468D01*
X-113419Y-195134D01*
Y-197134D01*
X-112753Y-199133D02*
X-113419D01*
Y-198466D01*
Y-199799D01*
Y-199133D01*
X-115419D01*
X-116085Y-199799D01*
X-113419Y-202465D02*
Y-203798D01*
X-114086Y-204464D01*
X-116085D01*
Y-202465D01*
X-115419Y-201799D01*
X-114752Y-202465D01*
Y-204464D01*
X-116085Y-205797D02*
X-113419D01*
Y-207797D01*
X-114086Y-208463D01*
X-116085D01*
X-113419Y-212462D02*
Y-210463D01*
X-114086Y-209796D01*
X-115419D01*
X-116085Y-210463D01*
Y-212462D01*
Y-215794D02*
Y-214461D01*
X-115419Y-213795D01*
X-114086D01*
X-113419Y-214461D01*
Y-215794D01*
X-114086Y-216461D01*
X-114752D01*
Y-213795D01*
X-156641Y-157591D02*
X-160639D01*
Y-155591D01*
X-159973Y-154925D01*
X-158640D01*
X-157974Y-155591D01*
Y-157591D01*
Y-156258D02*
X-156641Y-154925D01*
Y-151593D02*
Y-152925D01*
X-157307Y-153592D01*
X-158640D01*
X-159306Y-152925D01*
Y-151593D01*
X-158640Y-150926D01*
X-157974D01*
Y-153592D01*
X-156641Y-149593D02*
Y-147594D01*
X-157307Y-146927D01*
X-157974Y-147594D01*
Y-148927D01*
X-158640Y-149593D01*
X-159306Y-148927D01*
Y-146927D01*
X-156641Y-145595D02*
Y-144262D01*
Y-144928D01*
X-159306D01*
Y-145595D01*
X-156641Y-142262D02*
Y-140263D01*
X-157307Y-139596D01*
X-157974Y-140263D01*
Y-141596D01*
X-158640Y-142262D01*
X-159306Y-141596D01*
Y-139596D01*
X-159973Y-137597D02*
X-159306D01*
Y-138264D01*
Y-136931D01*
Y-137597D01*
X-157307D01*
X-156641Y-136931D01*
X-159306Y-134265D02*
Y-132932D01*
X-158640Y-132265D01*
X-156641D01*
Y-134265D01*
X-157307Y-134931D01*
X-157974Y-134265D01*
Y-132265D01*
X-156641Y-130933D02*
X-159306D01*
Y-128933D01*
X-158640Y-128267D01*
X-156641D01*
X-159306Y-124268D02*
Y-126267D01*
X-158640Y-126934D01*
X-157307D01*
X-156641Y-126267D01*
Y-124268D01*
Y-120936D02*
Y-122269D01*
X-157307Y-122935D01*
X-158640D01*
X-159306Y-122269D01*
Y-120936D01*
X-158640Y-120269D01*
X-157974D01*
Y-122935D01*
X-15311Y-293979D02*
X-19309D01*
Y-295979D01*
X-18643Y-296645D01*
X-17310D01*
X-16644Y-295979D01*
Y-293979D01*
Y-295312D02*
X-15311Y-296645D01*
Y-299977D02*
Y-298645D01*
X-15977Y-297978D01*
X-17310D01*
X-17976Y-298645D01*
Y-299977D01*
X-17310Y-300644D01*
X-16644D01*
Y-297978D01*
X-15311Y-301977D02*
Y-303976D01*
X-15977Y-304643D01*
X-16644Y-303976D01*
Y-302643D01*
X-17310Y-301977D01*
X-17976Y-302643D01*
Y-304643D01*
X-15311Y-305975D02*
Y-307308D01*
Y-306642D01*
X-17976D01*
Y-305975D01*
X-15311Y-309308D02*
Y-311307D01*
X-15977Y-311973D01*
X-16644Y-311307D01*
Y-309974D01*
X-17310Y-309308D01*
X-17976Y-309974D01*
Y-311973D01*
X-18643Y-313973D02*
X-17976D01*
Y-313306D01*
Y-314639D01*
Y-313973D01*
X-15977D01*
X-15311Y-314639D01*
X-17976Y-317305D02*
Y-318638D01*
X-17310Y-319305D01*
X-15311D01*
Y-317305D01*
X-15977Y-316639D01*
X-16644Y-317305D01*
Y-319305D01*
X-15311Y-320637D02*
X-17976D01*
Y-322637D01*
X-17310Y-323303D01*
X-15311D01*
X-17976Y-327302D02*
Y-325303D01*
X-17310Y-324636D01*
X-15977D01*
X-15311Y-325303D01*
Y-327302D01*
Y-330634D02*
Y-329301D01*
X-15977Y-328635D01*
X-17310D01*
X-17976Y-329301D01*
Y-330634D01*
X-17310Y-331301D01*
X-16644D01*
Y-328635D01*
D14*
X-328709Y-258610D02*
X-330708D01*
Y-260110D01*
X-329709Y-259610D01*
X-329209D01*
X-328709Y-260110D01*
Y-261110D01*
X-329209Y-261609D01*
X-330209D01*
X-330708Y-261110D01*
X-327709Y-259110D02*
X-327210Y-258610D01*
X-326210D01*
X-325710Y-259110D01*
Y-261110D01*
X-326210Y-261609D01*
X-327210D01*
X-327709Y-261110D01*
Y-259110D01*
X-324710D02*
X-324211Y-258610D01*
X-323211D01*
X-322711Y-259110D01*
Y-261110D01*
X-323211Y-261609D01*
X-324211D01*
X-324710Y-261110D01*
Y-259110D01*
X-321711Y-261609D02*
X-320712D01*
X-321211D01*
Y-258610D01*
X-321711Y-259110D01*
X-113269Y-602910D02*
X-115268D01*
Y-604410D01*
X-114269Y-603910D01*
X-113769D01*
X-113269Y-604410D01*
Y-605410D01*
X-113769Y-605910D01*
X-114768D01*
X-115268Y-605410D01*
X-112269Y-603410D02*
X-111770Y-602910D01*
X-110770D01*
X-110270Y-603410D01*
Y-605410D01*
X-110770Y-605910D01*
X-111770D01*
X-112269Y-605410D01*
Y-603410D01*
X-109270D02*
X-108771Y-602910D01*
X-107771D01*
X-107271Y-603410D01*
Y-605410D01*
X-107771Y-605910D01*
X-108771D01*
X-109270Y-605410D01*
Y-603410D01*
X-106271Y-605910D02*
X-105272D01*
X-105771D01*
Y-602910D01*
X-106271Y-603410D01*
X-151429Y-403501D02*
X-153428D01*
Y-405000D01*
X-152429Y-404500D01*
X-151929D01*
X-151429Y-405000D01*
Y-406000D01*
X-151929Y-406499D01*
X-152928D01*
X-153428Y-406000D01*
X-150429Y-404000D02*
X-149930Y-403501D01*
X-148930D01*
X-148430Y-404000D01*
Y-406000D01*
X-148930Y-406499D01*
X-149930D01*
X-150429Y-406000D01*
Y-404000D01*
X-147430D02*
X-146931Y-403501D01*
X-145931D01*
X-145431Y-404000D01*
Y-406000D01*
X-145931Y-406499D01*
X-146931D01*
X-147430Y-406000D01*
Y-404000D01*
X-144431Y-406499D02*
X-143432D01*
X-143931D01*
Y-403501D01*
X-144431Y-404000D01*
X-22129Y-678501D02*
X-24128D01*
Y-680000D01*
X-23129Y-679500D01*
X-22629D01*
X-22129Y-680000D01*
Y-681000D01*
X-22629Y-681499D01*
X-23628D01*
X-24128Y-681000D01*
X-21129Y-679000D02*
X-20629Y-678501D01*
X-19630D01*
X-19130Y-679000D01*
Y-681000D01*
X-19630Y-681499D01*
X-20629D01*
X-21129Y-681000D01*
Y-679000D01*
X-18130D02*
X-17630Y-678501D01*
X-16631D01*
X-16131Y-679000D01*
Y-681000D01*
X-16631Y-681499D01*
X-17630D01*
X-18130Y-681000D01*
Y-679000D01*
X-15131Y-681499D02*
X-14132D01*
X-14631D01*
Y-678501D01*
X-15131Y-679000D01*
X-200789Y-259130D02*
X-202788D01*
Y-260630D01*
X-201789Y-260130D01*
X-201289D01*
X-200789Y-260630D01*
Y-261630D01*
X-201289Y-262129D01*
X-202288D01*
X-202788Y-261630D01*
X-199789Y-259630D02*
X-199289Y-259130D01*
X-198290D01*
X-197790Y-259630D01*
Y-261630D01*
X-198290Y-262129D01*
X-199289D01*
X-199789Y-261630D01*
Y-259630D01*
X-196790D02*
X-196290Y-259130D01*
X-195291D01*
X-194791Y-259630D01*
Y-261630D01*
X-195291Y-262129D01*
X-196290D01*
X-196790Y-261630D01*
Y-259630D01*
X-193791Y-262129D02*
X-192792D01*
X-193291D01*
Y-259130D01*
X-193791Y-259630D01*
X-21749Y-17036D02*
X-23748D01*
Y-18536D01*
X-22749Y-18036D01*
X-22249D01*
X-21749Y-18536D01*
Y-19536D01*
X-22249Y-20036D01*
X-23249D01*
X-23748Y-19536D01*
X-20749Y-17536D02*
X-20250Y-17036D01*
X-19250D01*
X-18750Y-17536D01*
Y-19536D01*
X-19250Y-20036D01*
X-20250D01*
X-20749Y-19536D01*
Y-17536D01*
X-17750D02*
X-17250Y-17036D01*
X-16251D01*
X-15751Y-17536D01*
Y-19536D01*
X-16251Y-20036D01*
X-17250D01*
X-17750Y-19536D01*
Y-17536D01*
X-14751Y-20036D02*
X-13752D01*
X-14251D01*
Y-17036D01*
X-14751Y-17536D01*
X-22015Y-272500D02*
X-24014D01*
Y-274000D01*
X-23014Y-273500D01*
X-22515D01*
X-22015Y-274000D01*
Y-275000D01*
X-22515Y-275499D01*
X-23514D01*
X-24014Y-275000D01*
X-21015Y-273000D02*
X-20515Y-272500D01*
X-19516D01*
X-19016Y-273000D01*
Y-275000D01*
X-19516Y-275499D01*
X-20515D01*
X-21015Y-275000D01*
Y-273000D01*
X-18016D02*
X-17516Y-272500D01*
X-16516D01*
X-16017Y-273000D01*
Y-275000D01*
X-16516Y-275499D01*
X-17516D01*
X-18016Y-275000D01*
Y-273000D01*
X-15017Y-275499D02*
X-14017D01*
X-14517D01*
Y-272500D01*
X-15017Y-273000D01*
X-19239Y-126151D02*
X-21238D01*
Y-127650D01*
X-20239Y-127150D01*
X-19739D01*
X-19239Y-127650D01*
Y-128650D01*
X-19739Y-129150D01*
X-20738D01*
X-21238Y-128650D01*
X-18239Y-126650D02*
X-17739Y-126151D01*
X-16740D01*
X-16240Y-126650D01*
Y-128650D01*
X-16740Y-129150D01*
X-17739D01*
X-18239Y-128650D01*
Y-126650D01*
X-15240D02*
X-14741Y-126151D01*
X-13741D01*
X-13241Y-126650D01*
Y-128650D01*
X-13741Y-129150D01*
X-14741D01*
X-15240Y-128650D01*
Y-126650D01*
X-12241Y-129150D02*
X-11242D01*
X-11741D01*
Y-126151D01*
X-12241Y-126650D01*
X-19881Y-229720D02*
X-17882D01*
Y-231220D01*
X-18881Y-230720D01*
X-19381D01*
X-19881Y-231220D01*
Y-232220D01*
X-19381Y-232719D01*
X-18382D01*
X-17882Y-232220D01*
X-20881Y-230220D02*
X-21381Y-229720D01*
X-22380D01*
X-22880Y-230220D01*
Y-232220D01*
X-22380Y-232719D01*
X-21381D01*
X-20881Y-232220D01*
Y-230220D01*
X-23880D02*
X-24379Y-229720D01*
X-25379D01*
X-25879Y-230220D01*
Y-232220D01*
X-25379Y-232719D01*
X-24379D01*
X-23880Y-232220D01*
Y-230220D01*
X-26879Y-232719D02*
X-27878D01*
X-27379D01*
Y-229720D01*
X-26879Y-230220D01*
X-141881Y-497338D02*
X-143881D01*
Y-498838D01*
X-142881Y-498338D01*
X-142381D01*
X-141881Y-498838D01*
Y-499838D01*
X-142381Y-500337D01*
X-143381D01*
X-143881Y-499838D01*
X-140882Y-497838D02*
X-140382Y-497338D01*
X-139382D01*
X-138882Y-497838D01*
Y-499838D01*
X-139382Y-500337D01*
X-140382D01*
X-140882Y-499838D01*
Y-497838D01*
X-137883D02*
X-137383Y-497338D01*
X-136383D01*
X-135883Y-497838D01*
Y-499838D01*
X-136383Y-500337D01*
X-137383D01*
X-137883Y-499838D01*
Y-497838D01*
X-134883Y-500337D02*
X-133884D01*
X-134384D01*
Y-497338D01*
X-134883Y-497838D01*
X-190639Y-511521D02*
X-192638D01*
Y-513020D01*
X-191639Y-512520D01*
X-191139D01*
X-190639Y-513020D01*
Y-514020D01*
X-191139Y-514520D01*
X-192139D01*
X-192638Y-514020D01*
X-189639Y-512020D02*
X-189139Y-511521D01*
X-188140D01*
X-187640Y-512020D01*
Y-514020D01*
X-188140Y-514520D01*
X-189139D01*
X-189639Y-514020D01*
Y-512020D01*
X-186640D02*
X-186140Y-511521D01*
X-185141D01*
X-184641Y-512020D01*
Y-514020D01*
X-185141Y-514520D01*
X-186140D01*
X-186640Y-514020D01*
Y-512020D01*
X-183641Y-514520D02*
X-182642D01*
X-183141D01*
Y-511521D01*
X-183641Y-512020D01*
X-140899Y-268820D02*
X-142898D01*
Y-270320D01*
X-141899Y-269820D01*
X-141399D01*
X-140899Y-270320D01*
Y-271320D01*
X-141399Y-271819D01*
X-142399D01*
X-142898Y-271320D01*
X-139899Y-269320D02*
X-139399Y-268820D01*
X-138400D01*
X-137900Y-269320D01*
Y-271320D01*
X-138400Y-271819D01*
X-139399D01*
X-139899Y-271320D01*
Y-269320D01*
X-136900D02*
X-136400Y-268820D01*
X-135401D01*
X-134901Y-269320D01*
Y-271320D01*
X-135401Y-271819D01*
X-136400D01*
X-136900Y-271320D01*
Y-269320D01*
X-133901Y-271819D02*
X-132902D01*
X-133401D01*
Y-268820D01*
X-133901Y-269320D01*
X-277999Y-288500D02*
X-279998D01*
Y-290000D01*
X-278999Y-289500D01*
X-278499D01*
X-277999Y-290000D01*
Y-291000D01*
X-278499Y-291500D01*
X-279499D01*
X-279998Y-291000D01*
X-276999Y-289000D02*
X-276500Y-288500D01*
X-275500D01*
X-275000Y-289000D01*
Y-291000D01*
X-275500Y-291500D01*
X-276500D01*
X-276999Y-291000D01*
Y-289000D01*
X-274000D02*
X-273500Y-288500D01*
X-272501D01*
X-272001Y-289000D01*
Y-291000D01*
X-272501Y-291500D01*
X-273500D01*
X-274000Y-291000D01*
Y-289000D01*
X-271001Y-291500D02*
X-270002D01*
X-270501D01*
Y-288500D01*
X-271001Y-289000D01*
X-191439Y-617440D02*
X-193438D01*
Y-618940D01*
X-192439Y-618440D01*
X-191939D01*
X-191439Y-618940D01*
Y-619940D01*
X-191939Y-620439D01*
X-192938D01*
X-193438Y-619940D01*
X-190439Y-617940D02*
X-189939Y-617440D01*
X-188940D01*
X-188440Y-617940D01*
Y-619940D01*
X-188940Y-620439D01*
X-189939D01*
X-190439Y-619940D01*
Y-617940D01*
X-187440D02*
X-186940Y-617440D01*
X-185941D01*
X-185441Y-617940D01*
Y-619940D01*
X-185941Y-620439D01*
X-186940D01*
X-187440Y-619940D01*
Y-617940D01*
X-184441Y-620439D02*
X-183442D01*
X-183941D01*
Y-617440D01*
X-184441Y-617940D01*
X-283929Y-326040D02*
X-285928D01*
Y-327540D01*
X-284929Y-327040D01*
X-284429D01*
X-283929Y-327540D01*
Y-328540D01*
X-284429Y-329039D01*
X-285429D01*
X-285928Y-328540D01*
X-282929Y-326540D02*
X-282430Y-326040D01*
X-281430D01*
X-280930Y-326540D01*
Y-328540D01*
X-281430Y-329039D01*
X-282430D01*
X-282929Y-328540D01*
Y-326540D01*
X-279930D02*
X-279431Y-326040D01*
X-278431D01*
X-277931Y-326540D01*
Y-328540D01*
X-278431Y-329039D01*
X-279431D01*
X-279930Y-328540D01*
Y-326540D01*
X-276931Y-329039D02*
X-275932D01*
X-276431D01*
Y-326040D01*
X-276931Y-326540D01*
X-16111Y-465511D02*
Y-463512D01*
X-17610D01*
X-17110Y-464511D01*
Y-465011D01*
X-17610Y-465511D01*
X-18610D01*
X-19109Y-465011D01*
Y-464011D01*
X-18610Y-463512D01*
X-16610Y-466511D02*
X-16111Y-467010D01*
Y-468010D01*
X-16610Y-468510D01*
X-18610D01*
X-19109Y-468010D01*
Y-467010D01*
X-18610Y-466511D01*
X-16610D01*
Y-469510D02*
X-16111Y-470010D01*
Y-471009D01*
X-16610Y-471509D01*
X-18610D01*
X-19109Y-471009D01*
Y-470010D01*
X-18610Y-469510D01*
X-16610D01*
X-19109Y-472509D02*
Y-473508D01*
Y-473009D01*
X-16111D01*
X-16610Y-472509D01*
X-274519Y-68351D02*
X-276518D01*
Y-69850D01*
X-275519Y-69350D01*
X-275019D01*
X-274519Y-69850D01*
Y-70850D01*
X-275019Y-71350D01*
X-276019D01*
X-276518Y-70850D01*
X-273519Y-68850D02*
X-273020Y-68351D01*
X-272020D01*
X-271520Y-68850D01*
Y-70850D01*
X-272020Y-71350D01*
X-273020D01*
X-273519Y-70850D01*
Y-68850D01*
X-270520D02*
X-270021Y-68351D01*
X-269021D01*
X-268521Y-68850D01*
Y-70850D01*
X-269021Y-71350D01*
X-270021D01*
X-270520Y-70850D01*
Y-68850D01*
X-267521Y-71350D02*
X-266522D01*
X-267021D01*
Y-68351D01*
X-267521Y-68850D01*
X-229969Y-713771D02*
X-231968D01*
Y-715270D01*
X-230969Y-714770D01*
X-230469D01*
X-229969Y-715270D01*
Y-716270D01*
X-230469Y-716769D01*
X-231469D01*
X-231968Y-716270D01*
X-228969Y-714270D02*
X-228470Y-713771D01*
X-227470D01*
X-226970Y-714270D01*
Y-716270D01*
X-227470Y-716769D01*
X-228470D01*
X-228969Y-716270D01*
Y-714270D01*
X-225970D02*
X-225471Y-713771D01*
X-224471D01*
X-223971Y-714270D01*
Y-716270D01*
X-224471Y-716769D01*
X-225471D01*
X-225970Y-716270D01*
Y-714270D01*
X-222971Y-716769D02*
X-221972D01*
X-222471D01*
Y-713771D01*
X-222971Y-714270D01*
X-20309Y-393910D02*
X-22308D01*
Y-395410D01*
X-21309Y-394910D01*
X-20809D01*
X-20309Y-395410D01*
Y-396410D01*
X-20809Y-396909D01*
X-21809D01*
X-22308Y-396410D01*
X-19309Y-394410D02*
X-18809Y-393910D01*
X-17810D01*
X-17310Y-394410D01*
Y-396410D01*
X-17810Y-396909D01*
X-18809D01*
X-19309Y-396410D01*
Y-394410D01*
X-16310D02*
X-15811Y-393910D01*
X-14811D01*
X-14311Y-394410D01*
Y-396410D01*
X-14811Y-396909D01*
X-15811D01*
X-16310Y-396410D01*
Y-394410D01*
X-13311Y-396909D02*
X-12312D01*
X-12811D01*
Y-393910D01*
X-13311Y-394410D01*
D15*
X-171028Y-457251D02*
X-169695D01*
X-170362D01*
Y-461249D01*
X-171028Y-460583D01*
X-167696Y-459916D02*
Y-457917D01*
X-167030Y-457251D01*
X-165030D01*
Y-459916D01*
X-161032Y-461249D02*
X-163697D01*
Y-459250D01*
X-162365D01*
X-163697D01*
Y-457251D01*
X-352801Y-373878D02*
X-356799D01*
X-352801Y-376544D01*
X-356799D01*
X-356133Y-380542D02*
X-356799Y-379876D01*
Y-378543D01*
X-356133Y-377877D01*
X-353467D01*
X-352801Y-378543D01*
Y-379876D01*
X-353467Y-380542D01*
X-143138Y-147639D02*
X-141805D01*
X-142472D01*
Y-143641D01*
X-143138Y-144307D01*
X-139806Y-144973D02*
Y-146973D01*
X-139140Y-147639D01*
X-137140D01*
Y-144973D01*
X-133142Y-143641D02*
X-135807D01*
Y-145640D01*
X-134474D01*
X-135807D01*
Y-147639D01*
X-246999Y-338082D02*
X-243001D01*
X-246999Y-335416D01*
X-243001D01*
X-243667Y-331418D02*
X-243001Y-332084D01*
Y-333417D01*
X-243667Y-334084D01*
X-246333D01*
X-246999Y-333417D01*
Y-332084D01*
X-246333Y-331418D01*
X-148886Y-203379D02*
X-147553D01*
X-148219D01*
Y-199381D01*
X-148886Y-200047D01*
X-145554Y-200714D02*
Y-202713D01*
X-144887Y-203379D01*
X-142888D01*
Y-200714D01*
X-138889Y-199381D02*
X-141555D01*
Y-201380D01*
X-140222D01*
X-141555D01*
Y-203379D01*
X-160542Y-314621D02*
X-161875D01*
X-161208D01*
Y-318619D01*
X-160542Y-317953D01*
X-163874Y-317286D02*
Y-315287D01*
X-164540Y-314621D01*
X-166540D01*
Y-317286D01*
X-170538Y-318619D02*
X-167873D01*
Y-316620D01*
X-169205D01*
X-167873D01*
Y-314621D01*
D16*
X-148966Y-318260D02*
Y-315761D01*
X-150632Y-318260D01*
Y-315761D01*
X-153131Y-316177D02*
X-152715Y-315761D01*
X-151882D01*
X-151465Y-316177D01*
Y-317843D01*
X-151882Y-318260D01*
X-152715D01*
X-153131Y-317843D01*
X-154798Y-318260D02*
X-153965Y-317427D01*
Y-316594D01*
X-154798Y-315761D01*
X-157713Y-316177D02*
X-157297Y-315761D01*
X-156464D01*
X-156047Y-316177D01*
Y-316594D01*
X-156464Y-317010D01*
X-157297D01*
X-157713Y-317427D01*
Y-317843D01*
X-157297Y-318260D01*
X-156464D01*
X-156047Y-317843D01*
X-158546Y-318260D02*
Y-315761D01*
X-160212Y-318260D01*
Y-315761D01*
X-161045D02*
X-162712D01*
Y-316177D01*
X-161045Y-317843D01*
Y-318260D01*
X-164794D02*
Y-315761D01*
X-163545Y-317010D01*
X-165211D01*
X-166044Y-315761D02*
Y-318260D01*
X-167710D01*
X-168543Y-315761D02*
Y-317427D01*
X-169376Y-318260D01*
X-170209Y-317427D01*
Y-315761D01*
X-172708Y-316177D02*
X-172292Y-315761D01*
X-171459D01*
X-171042Y-316177D01*
Y-317843D01*
X-171459Y-318260D01*
X-172292D01*
X-172708Y-317843D01*
X-175208Y-318260D02*
X-173541D01*
X-175208Y-316594D01*
Y-316177D01*
X-174791Y-315761D01*
X-173958D01*
X-173541Y-316177D01*
X-177707D02*
X-177290Y-315761D01*
X-176457D01*
X-176041Y-316177D01*
Y-317843D01*
X-176457Y-318260D01*
X-177290D01*
X-177707Y-317843D01*
Y-317010D01*
X-176874D01*
X-178540Y-318260D02*
X-179373D01*
X-178956D01*
Y-315761D01*
X-178540Y-316177D01*
X-180622Y-315761D02*
X-182288D01*
Y-316177D01*
X-180622Y-317843D01*
Y-318260D01*
X-183122D02*
X-183955Y-317427D01*
Y-316594D01*
X-183122Y-315761D01*
X-145690Y-156441D02*
X-143191D01*
Y-157691D01*
X-143608Y-158108D01*
X-144440D01*
X-144857Y-157691D01*
Y-156441D01*
Y-157275D02*
X-145690Y-158108D01*
X-143608Y-160607D02*
X-143191Y-160190D01*
Y-159357D01*
X-143608Y-158941D01*
X-144024D01*
X-144440Y-159357D01*
Y-160190D01*
X-144857Y-160607D01*
X-145274D01*
X-145690Y-160190D01*
Y-159357D01*
X-145274Y-158941D01*
X-143608Y-161440D02*
X-143191Y-161856D01*
Y-162689D01*
X-143608Y-163106D01*
X-144024D01*
X-144440Y-162689D01*
Y-162273D01*
Y-162689D01*
X-144857Y-163106D01*
X-145274D01*
X-145690Y-162689D01*
Y-161856D01*
X-145274Y-161440D01*
X-143608Y-163939D02*
X-143191Y-164356D01*
Y-165189D01*
X-143608Y-165605D01*
X-145274D01*
X-145690Y-165189D01*
Y-164356D01*
X-145274Y-163939D01*
X-143608D01*
Y-166438D02*
X-143191Y-166855D01*
Y-167688D01*
X-143608Y-168104D01*
X-145274D01*
X-145690Y-167688D01*
Y-166855D01*
X-145274Y-166438D01*
X-143608D01*
X-143191Y-168937D02*
Y-170603D01*
X-143608D01*
X-145274Y-168937D01*
X-145690D01*
X-144440Y-171437D02*
Y-173103D01*
X-144024Y-173936D02*
X-145690Y-175602D01*
X-144857Y-174769D01*
X-144024Y-175602D01*
X-145690Y-173936D01*
Y-176435D02*
X-145274D01*
Y-176851D01*
X-145690D01*
Y-176435D01*
X-144024Y-178517D02*
X-145690Y-180184D01*
X-144857Y-179351D01*
X-144024Y-180184D01*
X-145690Y-178517D01*
Y-181017D02*
X-144024D01*
X-143191Y-181850D01*
X-144024Y-182683D01*
X-145690D01*
X-144440D01*
Y-181017D01*
X-143608Y-185182D02*
X-143191Y-184765D01*
Y-183932D01*
X-143608Y-183516D01*
X-144024D01*
X-144440Y-183932D01*
Y-184765D01*
X-144857Y-185182D01*
X-145274D01*
X-145690Y-184765D01*
Y-183932D01*
X-145274Y-183516D01*
X-143191Y-186015D02*
X-143608D01*
X-144440Y-186848D01*
X-143608Y-187681D01*
X-143191D01*
X-144440Y-186848D02*
X-145690D01*
X-143191Y-190180D02*
Y-188514D01*
X-144440D01*
Y-189347D01*
Y-188514D01*
X-145690D01*
X-143191Y-192680D02*
Y-191013D01*
X-144440D01*
X-144024Y-191847D01*
Y-192263D01*
X-144440Y-192680D01*
X-145274D01*
X-145690Y-192263D01*
Y-191430D01*
X-145274Y-191013D01*
X-183984Y-460350D02*
Y-457851D01*
X-182318Y-460350D01*
Y-457851D01*
X-179819Y-458267D02*
X-180235Y-457851D01*
X-181068D01*
X-181485Y-458267D01*
Y-459934D01*
X-181068Y-460350D01*
X-180235D01*
X-179819Y-459934D01*
X-178152Y-460350D02*
X-178986Y-459517D01*
Y-458684D01*
X-178152Y-457851D01*
X-175237Y-458267D02*
X-175653Y-457851D01*
X-176486D01*
X-176903Y-458267D01*
Y-458684D01*
X-176486Y-459100D01*
X-175653D01*
X-175237Y-459517D01*
Y-459934D01*
X-175653Y-460350D01*
X-176486D01*
X-176903Y-459934D01*
X-174404Y-460350D02*
Y-457851D01*
X-172738Y-460350D01*
Y-457851D01*
X-171905D02*
X-170238D01*
Y-458267D01*
X-171905Y-459934D01*
Y-460350D01*
X-168156D02*
Y-457851D01*
X-169405Y-459100D01*
X-167739D01*
X-166906Y-457851D02*
Y-460350D01*
X-165240D01*
X-164407Y-457851D02*
Y-459517D01*
X-163574Y-460350D01*
X-162741Y-459517D01*
Y-457851D01*
X-160242Y-458267D02*
X-160658Y-457851D01*
X-161491D01*
X-161908Y-458267D01*
Y-459934D01*
X-161491Y-460350D01*
X-160658D01*
X-160242Y-459934D01*
X-157743Y-460350D02*
X-159409D01*
X-157743Y-458684D01*
Y-458267D01*
X-158159Y-457851D01*
X-158992D01*
X-159409Y-458267D01*
X-155243D02*
X-155660Y-457851D01*
X-156493D01*
X-156909Y-458267D01*
Y-459934D01*
X-156493Y-460350D01*
X-155660D01*
X-155243Y-459934D01*
Y-459100D01*
X-156076D01*
X-154410Y-460350D02*
X-153577D01*
X-153994D01*
Y-457851D01*
X-154410Y-458267D01*
X-152328Y-457851D02*
X-150661D01*
Y-458267D01*
X-152328Y-459934D01*
Y-460350D01*
X-149828D02*
X-148995Y-459517D01*
Y-458684D01*
X-149828Y-457851D01*
D17*
X-129251Y-219577D02*
X-129584Y-219244D01*
X-130251D01*
X-130584Y-219577D01*
Y-220910D01*
X-130251Y-221243D01*
X-129584D01*
X-129251Y-220910D01*
X-128251Y-221243D02*
X-127585D01*
X-127252Y-220910D01*
Y-220244D01*
X-127585Y-219910D01*
X-128251D01*
X-128584Y-220244D01*
Y-220910D01*
X-128251Y-221243D01*
X-126585D02*
X-125919D01*
X-126252D01*
Y-219244D01*
X-126585D01*
X-124586Y-221243D02*
X-123919D01*
X-123586Y-220910D01*
Y-220244D01*
X-123919Y-219910D01*
X-124586D01*
X-124919Y-220244D01*
Y-220910D01*
X-124586Y-221243D01*
X-122920Y-219910D02*
Y-221243D01*
Y-220577D01*
X-122586Y-220244D01*
X-122253Y-219910D01*
X-121920D01*
X-123743Y-780571D02*
X-123410Y-780238D01*
Y-779571D01*
X-123743Y-779238D01*
X-125076D01*
X-125410Y-779571D01*
Y-780238D01*
X-125076Y-780571D01*
X-125410Y-781571D02*
Y-782237D01*
X-125076Y-782570D01*
X-124410D01*
X-124077Y-782237D01*
Y-781571D01*
X-124410Y-781238D01*
X-125076D01*
X-125410Y-781571D01*
Y-783237D02*
Y-783903D01*
Y-783570D01*
X-123410D01*
Y-783237D01*
X-125410Y-785236D02*
Y-785903D01*
X-125076Y-786236D01*
X-124410D01*
X-124077Y-785903D01*
Y-785236D01*
X-124410Y-784903D01*
X-125076D01*
X-125410Y-785236D01*
X-124077Y-786902D02*
X-125410D01*
X-124743D01*
X-124410Y-787236D01*
X-124077Y-787569D01*
Y-787902D01*
X-134981Y-133156D02*
X-134648Y-133490D01*
X-133981D01*
X-133648Y-133156D01*
Y-131824D01*
X-133981Y-131490D01*
X-134648D01*
X-134981Y-131824D01*
X-135981Y-131490D02*
X-136647D01*
X-136980Y-131824D01*
Y-132490D01*
X-136647Y-132823D01*
X-135981D01*
X-135647Y-132490D01*
Y-131824D01*
X-135981Y-131490D01*
X-137647D02*
X-138313D01*
X-137980D01*
Y-133490D01*
X-137647D01*
X-139646Y-131490D02*
X-140313D01*
X-140646Y-131824D01*
Y-132490D01*
X-140313Y-132823D01*
X-139646D01*
X-139313Y-132490D01*
Y-131824D01*
X-139646Y-131490D01*
X-141312Y-132823D02*
Y-131490D01*
Y-132157D01*
X-141645Y-132490D01*
X-141979Y-132823D01*
X-142312D01*
X-137294Y-780571D02*
X-136960Y-780238D01*
Y-779571D01*
X-137294Y-779238D01*
X-138626D01*
X-138960Y-779571D01*
Y-780238D01*
X-138626Y-780571D01*
X-138960Y-781571D02*
Y-782237D01*
X-138626Y-782570D01*
X-137960D01*
X-137627Y-782237D01*
Y-781571D01*
X-137960Y-781238D01*
X-138626D01*
X-138960Y-781571D01*
Y-783237D02*
Y-783903D01*
Y-783570D01*
X-136960D01*
Y-783237D01*
X-138960Y-785236D02*
Y-785903D01*
X-138626Y-786236D01*
X-137960D01*
X-137627Y-785903D01*
Y-785236D01*
X-137960Y-784903D01*
X-138626D01*
X-138960Y-785236D01*
X-137627Y-786902D02*
X-138960D01*
X-138293D01*
X-137960Y-787236D01*
X-137627Y-787569D01*
Y-787902D01*
X-110194Y-780981D02*
X-109860Y-780648D01*
Y-779981D01*
X-110194Y-779648D01*
X-111526D01*
X-111860Y-779981D01*
Y-780648D01*
X-111526Y-780981D01*
X-111860Y-781981D02*
Y-782647D01*
X-111526Y-782980D01*
X-110860D01*
X-110527Y-782647D01*
Y-781981D01*
X-110860Y-781647D01*
X-111526D01*
X-111860Y-781981D01*
Y-783647D02*
Y-784313D01*
Y-783980D01*
X-109860D01*
Y-783647D01*
X-111860Y-785646D02*
Y-786313D01*
X-111526Y-786646D01*
X-110860D01*
X-110527Y-786313D01*
Y-785646D01*
X-110860Y-785313D01*
X-111526D01*
X-111860Y-785646D01*
X-110527Y-787312D02*
X-111860D01*
X-111193D01*
X-110860Y-787646D01*
X-110527Y-787979D01*
Y-788312D01*
D18*
X-126182Y-498838D02*
G03*
X-126182Y-498838I-12700J0D01*
G01*
X-147732Y-500388D02*
G03*
X-146732Y-501388I1000J0D01*
G01*
X-131032D02*
G03*
X-130032Y-500388I0J1000D01*
G01*
X-146732Y-496288D02*
G03*
X-147732Y-497288I0J-1000D01*
G01*
X-130032D02*
G03*
X-131032Y-496288I-1000J0D01*
G01*
X-131748Y-169618D02*
G03*
X-131748Y-169618I-1250J0D01*
G01*
X-160268Y-305568D02*
G03*
X-160268Y-305568I-1250J0D01*
G01*
X-170182Y-447658D02*
G03*
X-170182Y-447658I-1250J0D01*
G01*
X-167810Y-180910D02*
G03*
X-167710Y-180810I0J100D01*
G01*
X-176210D02*
G03*
X-176110Y-180910I100J0D01*
G01*
X-167710Y-165010D02*
G03*
X-167810Y-164910I-100J0D01*
G01*
X-176110D02*
G03*
X-176210Y-165010I0J-100D01*
G01*
X-118252Y-229020D02*
G03*
X-118352Y-228920I-100J0D01*
G01*
Y-237420D02*
G03*
X-118252Y-237320I0J100D01*
G01*
X-134152Y-228920D02*
G03*
X-134252Y-229020I0J-100D01*
G01*
Y-237320D02*
G03*
X-134152Y-237420I100J0D01*
G01*
X-13060Y-304740D02*
G03*
X-13160Y-304640I-100J0D01*
G01*
X-21460D02*
G03*
X-21560Y-304740I0J-100D01*
G01*
X-13160Y-320640D02*
G03*
X-13060Y-320540I0J100D01*
G01*
X-21560D02*
G03*
X-21460Y-320640I100J0D01*
G01*
X-106710Y-818430D02*
G03*
X-106610Y-818330I0J100D01*
G01*
X-115110D02*
G03*
X-115010Y-818430I100J0D01*
G01*
X-106610Y-802530D02*
G03*
X-106710Y-802430I-100J0D01*
G01*
X-115010D02*
G03*
X-115110Y-802530I0J-100D01*
G01*
X-120260Y-818430D02*
G03*
X-120160Y-818330I0J100D01*
G01*
X-128660D02*
G03*
X-128560Y-818430I100J0D01*
G01*
X-120160Y-802530D02*
G03*
X-120260Y-802430I-100J0D01*
G01*
X-128560D02*
G03*
X-128660Y-802530I0J-100D01*
G01*
X-133810Y-818430D02*
G03*
X-133710Y-818330I0J100D01*
G01*
X-142210D02*
G03*
X-142110Y-818430I100J0D01*
G01*
X-133710Y-802530D02*
G03*
X-133810Y-802430I-100J0D01*
G01*
X-142110D02*
G03*
X-142210Y-802530I0J-100D01*
G01*
X-159310Y-296230D02*
G03*
X-159210Y-296130I0J100D01*
G01*
Y-287830D02*
G03*
X-159310Y-287730I-100J0D01*
G01*
X-175210Y-296130D02*
G03*
X-175110Y-296230I100J0D01*
G01*
Y-287730D02*
G03*
X-175210Y-287830I0J-100D01*
G01*
X-158150Y-476340D02*
G03*
X-158250Y-476240I-100J0D01*
G01*
Y-484740D02*
G03*
X-158150Y-484640I0J100D01*
G01*
X-174050Y-476240D02*
G03*
X-174150Y-476340I0J-100D01*
G01*
Y-484640D02*
G03*
X-174050Y-484740I100J0D01*
G01*
X-156970Y-427800D02*
G03*
X-157070Y-427700I-100J0D01*
G01*
Y-436200D02*
G03*
X-156970Y-436100I0J100D01*
G01*
X-172870Y-427700D02*
G03*
X-172970Y-427800I0J-100D01*
G01*
Y-436100D02*
G03*
X-172870Y-436200I100J0D01*
G01*
X-118236Y-189800D02*
G03*
X-118336Y-189900I0J-100D01*
G01*
X-109836D02*
G03*
X-109936Y-189800I-100J0D01*
G01*
X-118336Y-205700D02*
G03*
X-118236Y-205800I100J0D01*
G01*
X-109936D02*
G03*
X-109836Y-205700I0J100D01*
G01*
X-154490Y-146930D02*
G03*
X-154390Y-146830I0J100D01*
G01*
X-162890D02*
G03*
X-162790Y-146930I100J0D01*
G01*
X-154390Y-131030D02*
G03*
X-154490Y-130930I-100J0D01*
G01*
X-162790D02*
G03*
X-162890Y-131030I0J-100D01*
G01*
X-9900Y-16986D02*
G03*
X-10900Y-15986I-1000J0D01*
G01*
X-26600D02*
G03*
X-27600Y-16986I0J-1000D01*
G01*
X-10900Y-21086D02*
G03*
X-9900Y-20086I0J1000D01*
G01*
X-27600D02*
G03*
X-26600Y-21086I1000J0D01*
G01*
X-6050Y-18536D02*
G03*
X-6050Y-18536I-12700J0D01*
G01*
X-266150Y-288450D02*
G03*
X-267150Y-287450I-1000J0D01*
G01*
X-282850D02*
G03*
X-283850Y-288450I0J-1000D01*
G01*
X-267150Y-292550D02*
G03*
X-266150Y-291550I0J1000D01*
G01*
X-283850D02*
G03*
X-282850Y-292550I1000J0D01*
G01*
X-262300Y-290000D02*
G03*
X-262300Y-290000I-12700J0D01*
G01*
X-188940Y-259080D02*
G03*
X-189940Y-258080I-1000J0D01*
G01*
X-205640D02*
G03*
X-206640Y-259080I0J-1000D01*
G01*
X-189940Y-263180D02*
G03*
X-188940Y-262180I0J1000D01*
G01*
X-206640D02*
G03*
X-205640Y-263180I1000J0D01*
G01*
X-185090Y-260630D02*
G03*
X-185090Y-260630I-12700J0D01*
G01*
X-179590Y-617390D02*
G03*
X-180590Y-616390I-1000J0D01*
G01*
X-196290D02*
G03*
X-197290Y-617390I0J-1000D01*
G01*
X-180590Y-621490D02*
G03*
X-179590Y-620490I0J1000D01*
G01*
X-197290D02*
G03*
X-196290Y-621490I1000J0D01*
G01*
X-175740Y-618940D02*
G03*
X-175740Y-618940I-12700J0D01*
G01*
X-218120Y-713720D02*
G03*
X-219120Y-712720I-1000J0D01*
G01*
X-234820D02*
G03*
X-235820Y-713720I0J-1000D01*
G01*
X-219120Y-717820D02*
G03*
X-218120Y-716820I0J1000D01*
G01*
X-235820D02*
G03*
X-234820Y-717820I1000J0D01*
G01*
X-214270Y-715270D02*
G03*
X-214270Y-715270I-12700J0D01*
G01*
X-7390Y-126100D02*
G03*
X-8390Y-125100I-1000J0D01*
G01*
X-24090D02*
G03*
X-25090Y-126100I0J-1000D01*
G01*
X-8390Y-130200D02*
G03*
X-7390Y-129200I0J1000D01*
G01*
X-25090D02*
G03*
X-24090Y-130200I1000J0D01*
G01*
X-3540Y-127650D02*
G03*
X-3540Y-127650I-12700J0D01*
G01*
X-16060Y-477360D02*
G03*
X-15060Y-476360I0J1000D01*
G01*
Y-460660D02*
G03*
X-16060Y-459660I-1000J0D01*
G01*
X-20160Y-476360D02*
G03*
X-19160Y-477360I1000J0D01*
G01*
Y-459660D02*
G03*
X-20160Y-460660I0J-1000D01*
G01*
X-4910Y-468510D02*
G03*
X-4910Y-468510I-12700J0D01*
G01*
X-316860Y-258560D02*
G03*
X-317860Y-257560I-1000J0D01*
G01*
X-333560D02*
G03*
X-334560Y-258560I0J-1000D01*
G01*
X-317860Y-262660D02*
G03*
X-316860Y-261660I0J1000D01*
G01*
X-334560D02*
G03*
X-333560Y-262660I1000J0D01*
G01*
X-313010Y-260110D02*
G03*
X-313010Y-260110I-12700J0D01*
G01*
X-262670Y-68300D02*
G03*
X-263670Y-67300I-1000J0D01*
G01*
X-279370D02*
G03*
X-280370Y-68300I0J-1000D01*
G01*
X-263670Y-72400D02*
G03*
X-262670Y-71400I0J1000D01*
G01*
X-280370D02*
G03*
X-279370Y-72400I1000J0D01*
G01*
X-258820Y-69850D02*
G03*
X-258820Y-69850I-12700J0D01*
G01*
X-129050Y-268770D02*
G03*
X-130050Y-267770I-1000J0D01*
G01*
X-145750D02*
G03*
X-146750Y-268770I0J-1000D01*
G01*
X-130050Y-272870D02*
G03*
X-129050Y-271870I0J1000D01*
G01*
X-146750D02*
G03*
X-145750Y-272870I1000J0D01*
G01*
X-125200Y-270320D02*
G03*
X-125200Y-270320I-12700J0D01*
G01*
X-178790Y-511470D02*
G03*
X-179790Y-510470I-1000J0D01*
G01*
X-195490D02*
G03*
X-196490Y-511470I0J-1000D01*
G01*
X-179790Y-515570D02*
G03*
X-178790Y-514570I0J1000D01*
G01*
X-196490D02*
G03*
X-195490Y-515570I1000J0D01*
G01*
X-174940Y-513020D02*
G03*
X-174940Y-513020I-12700J0D01*
G01*
X-8460Y-393860D02*
G03*
X-9460Y-392860I-1000J0D01*
G01*
X-25160D02*
G03*
X-26160Y-393860I0J-1000D01*
G01*
X-9460Y-397960D02*
G03*
X-8460Y-396960I0J1000D01*
G01*
X-26160D02*
G03*
X-25160Y-397960I1000J0D01*
G01*
X-4610Y-395410D02*
G03*
X-4610Y-395410I-12700J0D01*
G01*
X-101420Y-602860D02*
G03*
X-102420Y-601860I-1000J0D01*
G01*
X-118120D02*
G03*
X-119120Y-602860I0J-1000D01*
G01*
X-102420Y-606960D02*
G03*
X-101420Y-605960I0J1000D01*
G01*
X-119120D02*
G03*
X-118120Y-606960I1000J0D01*
G01*
X-97570Y-604410D02*
G03*
X-97570Y-604410I-12700J0D01*
G01*
X-10280Y-678450D02*
G03*
X-11280Y-677450I-1000J0D01*
G01*
X-26980D02*
G03*
X-27980Y-678450I0J-1000D01*
G01*
X-11280Y-682550D02*
G03*
X-10280Y-681550I0J1000D01*
G01*
X-27980D02*
G03*
X-26980Y-682550I1000J0D01*
G01*
X-6430Y-680000D02*
G03*
X-6430Y-680000I-12700J0D01*
G01*
X-139580Y-403450D02*
G03*
X-140580Y-402450I-1000J0D01*
G01*
X-156280D02*
G03*
X-157280Y-403450I0J-1000D01*
G01*
X-140580Y-407550D02*
G03*
X-139580Y-406550I0J1000D01*
G01*
X-157280D02*
G03*
X-156280Y-407550I1000J0D01*
G01*
X-135730Y-405000D02*
G03*
X-135730Y-405000I-12700J0D01*
G01*
X-272080Y-325990D02*
G03*
X-273080Y-324990I-1000J0D01*
G01*
X-288780D02*
G03*
X-289780Y-325990I0J-1000D01*
G01*
X-273080Y-330090D02*
G03*
X-272080Y-329090I0J1000D01*
G01*
X-289780D02*
G03*
X-288780Y-330090I1000J0D01*
G01*
X-268230Y-327540D02*
G03*
X-268230Y-327540I-12700J0D01*
G01*
X-10166Y-272450D02*
G03*
X-11166Y-271450I-1000J0D01*
G01*
X-26866D02*
G03*
X-27866Y-272450I0J-1000D01*
G01*
X-11166Y-276550D02*
G03*
X-10166Y-275550I0J1000D01*
G01*
X-27866D02*
G03*
X-26866Y-276550I1000J0D01*
G01*
X-6316Y-274000D02*
G03*
X-6316Y-274000I-12700J0D01*
G01*
X-30730Y-228670D02*
G03*
X-31730Y-229670I0J-1000D01*
G01*
X-14030D02*
G03*
X-15030Y-228670I-1000J0D01*
G01*
X-31730Y-232770D02*
G03*
X-30730Y-233770I1000J0D01*
G01*
X-15030D02*
G03*
X-14030Y-232770I0J1000D01*
G01*
X-10180Y-231220D02*
G03*
X-10180Y-231220I-12700J0D01*
G01*
X-108860Y-791980D02*
G03*
X-112860Y-791980I-2000J0D01*
G01*
Y-775980D02*
G03*
X-108860Y-775980I2000J0D01*
G01*
X-122410Y-791570D02*
G03*
X-126410Y-791570I-2000J0D01*
G01*
Y-775570D02*
G03*
X-122410Y-775570I2000J0D01*
G01*
X-135960Y-791570D02*
G03*
X-139960Y-791570I-2000J0D01*
G01*
Y-775570D02*
G03*
X-135960Y-775570I2000J0D01*
G01*
X-118252Y-218244D02*
G03*
X-118252Y-222244I0J-2000D01*
G01*
X-134252D02*
G03*
X-134252Y-218244I0J2000D01*
G01*
X-145980Y-134490D02*
G03*
X-145980Y-130490I0J2000D01*
G01*
X-129980D02*
G03*
X-129980Y-134490I0J-2000D01*
G01*
X-153040Y-39910D02*
G03*
X-153040Y-39910I-27000J0D01*
G01*
X-35180Y-783980D02*
G03*
X-35180Y-783980I-27000J0D01*
G01*
X-147732Y-500388D02*
Y-497288D01*
X-130032Y-500388D02*
Y-497288D01*
X-146732Y-501388D02*
X-131032D01*
X-146732Y-496288D02*
X-131032D01*
X-147732Y-500388D02*
X-130032D01*
X-147732Y-497288D02*
X-130032D01*
X-137440Y-189560D02*
X-132440D01*
X-156440D02*
X-151440D01*
X-146940Y-159560D02*
X-141940D01*
X-137440D02*
X-132440D01*
X-156440D02*
X-151440D01*
X-146940Y-162837D02*
X-141940D01*
X-156440D02*
X-151440D01*
X-137440D02*
X-132440D01*
X-156440Y-186283D02*
X-151440D01*
X-137440D02*
X-132440D01*
X-156440Y-185484D02*
X-151440D01*
X-137440D02*
X-132440D01*
X-146940Y-163636D02*
X-141940D01*
X-137440D02*
X-132440D01*
X-156440D02*
X-151440D01*
X-137440Y-184524D02*
X-132440D01*
X-137440Y-166560D02*
Y-159560D01*
X-132440Y-166560D02*
Y-159560D01*
X-137440Y-164596D02*
X-132440D01*
X-151440Y-166560D02*
Y-159560D01*
X-156440Y-164596D02*
X-151440D01*
X-156440Y-166560D02*
Y-159560D01*
X-132440Y-189560D02*
Y-182560D01*
X-137440Y-189560D02*
Y-182560D01*
X-156440Y-184524D02*
X-151440D01*
Y-189560D02*
Y-182560D01*
X-156440Y-189560D02*
Y-182560D01*
X-146940Y-164596D02*
X-141940D01*
X-146940Y-166560D02*
Y-159560D01*
X-141940Y-166560D02*
Y-159560D01*
X-129940Y-182560D02*
Y-166560D01*
X-130998Y-181502D02*
Y-167618D01*
X-158940Y-182560D02*
X-129940D01*
X-130998Y-181502D02*
X-129940Y-182560D01*
X-157882Y-181502D02*
X-130998D01*
X-158940Y-182560D02*
Y-166560D01*
Y-182560D02*
X-157882Y-181502D01*
Y-167618D01*
X-158940Y-166560D02*
X-129940D01*
X-158940D02*
X-157882Y-167618D01*
X-130998D01*
X-129940Y-166560D01*
X-181460Y-310010D02*
Y-305010D01*
Y-319510D02*
Y-314510D01*
X-151460Y-310010D02*
Y-305010D01*
X-181460Y-329010D02*
Y-324010D01*
X-151460Y-319510D02*
Y-314510D01*
Y-329010D02*
Y-324010D01*
X-154737Y-310010D02*
Y-305010D01*
Y-319510D02*
Y-314510D01*
Y-329010D02*
Y-324010D01*
X-178183Y-310010D02*
Y-305010D01*
Y-319510D02*
Y-314510D01*
Y-329010D02*
Y-324010D01*
X-177384Y-319510D02*
Y-314510D01*
Y-310010D02*
Y-305010D01*
Y-329010D02*
Y-324010D01*
X-155536Y-319510D02*
Y-314510D01*
Y-310010D02*
Y-305010D01*
Y-329010D02*
Y-324010D01*
X-156496Y-310010D02*
Y-305010D01*
X-176424Y-310010D02*
Y-305010D01*
X-156496Y-319510D02*
Y-314510D01*
X-176424Y-319510D02*
Y-314510D01*
X-158460Y-305010D02*
X-151460D01*
X-158460Y-310010D02*
X-151460D01*
X-176424Y-329010D02*
Y-324010D01*
X-156496Y-329010D02*
Y-324010D01*
X-158460Y-314510D02*
X-151460D01*
X-158460Y-319510D02*
X-151460D01*
X-181460Y-310010D02*
X-174460D01*
X-181460Y-305010D02*
X-174460D01*
X-181460Y-314510D02*
X-174460D01*
X-181460Y-319510D02*
X-174460D01*
X-181460Y-324010D02*
X-174460D01*
X-181460Y-329010D02*
X-174460D01*
X-158460D02*
X-151460D01*
X-158460Y-324010D02*
X-151460D01*
X-174460Y-302510D02*
X-158460D01*
X-174460Y-331510D02*
X-158460D01*
X-174460D02*
Y-302510D01*
X-173402Y-303568D01*
X-174460Y-331510D02*
X-173402Y-330452D01*
X-159518D01*
X-173402D02*
Y-303568D01*
X-159518D01*
X-158460Y-331510D02*
Y-302510D01*
X-159518Y-330452D02*
X-158460Y-331510D01*
X-159518Y-330452D02*
Y-303568D01*
X-158460Y-302510D01*
X-151490Y-452100D02*
Y-447100D01*
Y-461600D02*
Y-456600D01*
X-181490Y-452100D02*
Y-447100D01*
X-151490Y-471100D02*
Y-466100D01*
X-181490Y-461600D02*
Y-456600D01*
Y-471100D02*
Y-466100D01*
X-178213Y-452100D02*
Y-447100D01*
Y-461600D02*
Y-456600D01*
Y-471100D02*
Y-466100D01*
X-154767Y-452100D02*
Y-447100D01*
Y-461600D02*
Y-456600D01*
Y-471100D02*
Y-466100D01*
X-155566Y-461600D02*
Y-456600D01*
Y-452100D02*
Y-447100D01*
Y-471100D02*
Y-466100D01*
X-177414Y-461600D02*
Y-456600D01*
Y-452100D02*
Y-447100D01*
Y-471100D02*
Y-466100D01*
X-176454Y-452100D02*
Y-447100D01*
X-156526Y-452100D02*
Y-447100D01*
X-176454Y-461600D02*
Y-456600D01*
X-156526Y-461600D02*
Y-456600D01*
X-181490Y-447100D02*
X-174490D01*
X-181490Y-452100D02*
X-174490D01*
X-156526Y-471100D02*
Y-466100D01*
X-176454Y-471100D02*
Y-466100D01*
X-181490Y-456600D02*
X-174490D01*
X-181490Y-461600D02*
X-174490D01*
X-158490Y-452100D02*
X-151490D01*
X-158490Y-447100D02*
X-151490D01*
X-158490Y-456600D02*
X-151490D01*
X-158490Y-461600D02*
X-151490D01*
X-158490Y-466100D02*
X-151490D01*
X-158490Y-471100D02*
X-151490D01*
X-181490D02*
X-174490D01*
X-181490Y-466100D02*
X-174490D01*
Y-444600D02*
X-158490D01*
X-174490Y-473600D02*
X-158490D01*
Y-444600D01*
X-159548Y-445658D02*
X-158490Y-444600D01*
X-159548Y-472542D02*
X-158490Y-473600D01*
X-173432Y-472542D02*
X-159548D01*
Y-445658D01*
X-173432D02*
X-159548D01*
X-174490Y-473600D02*
Y-444600D01*
Y-473600D02*
X-173432Y-472542D01*
Y-445658D01*
X-174490Y-444600D02*
X-173432Y-445658D01*
X-176110Y-180910D02*
X-167810D01*
X-176210Y-178010D02*
X-167710D01*
X-176210Y-167810D02*
X-167710D01*
X-176110Y-164910D02*
X-167810D01*
X-167710Y-180810D02*
Y-165010D01*
X-176210Y-180810D02*
Y-165010D01*
X-118252Y-237320D02*
Y-229020D01*
X-121152Y-237420D02*
Y-228920D01*
X-131352Y-237420D02*
Y-228920D01*
X-134252Y-237320D02*
Y-229020D01*
X-134152Y-228920D02*
X-118352D01*
X-134152Y-237420D02*
X-118352D01*
X-21460Y-304640D02*
X-13160D01*
X-21560Y-307540D02*
X-13060D01*
X-21560Y-317740D02*
X-13060D01*
X-21460Y-320640D02*
X-13160D01*
X-13060Y-320540D02*
Y-304740D01*
X-21560Y-320540D02*
Y-304740D01*
X-115010Y-818430D02*
X-106710D01*
X-115110Y-815530D02*
X-106610D01*
X-115110Y-805330D02*
X-106610D01*
X-115010Y-802430D02*
X-106710D01*
X-106610Y-818330D02*
Y-802530D01*
X-115110Y-818330D02*
Y-802530D01*
X-128560Y-818430D02*
X-120260D01*
X-128660Y-815530D02*
X-120160D01*
X-128660Y-805330D02*
X-120160D01*
X-128560Y-802430D02*
X-120260D01*
X-120160Y-818330D02*
Y-802530D01*
X-128660Y-818330D02*
Y-802530D01*
X-142110Y-818430D02*
X-133810D01*
X-142210Y-815530D02*
X-133710D01*
X-142210Y-805330D02*
X-133710D01*
X-142110Y-802430D02*
X-133810D01*
X-133710Y-818330D02*
Y-802530D01*
X-142210Y-818330D02*
Y-802530D01*
X-159210Y-296130D02*
Y-287830D01*
X-162110Y-296230D02*
Y-287730D01*
X-172310Y-296230D02*
Y-287730D01*
X-175210Y-296130D02*
Y-287830D01*
X-175110Y-296230D02*
X-159310D01*
X-175110Y-287730D02*
X-159310D01*
X-158150Y-484640D02*
Y-476340D01*
X-161050Y-484740D02*
Y-476240D01*
X-171250Y-484740D02*
Y-476240D01*
X-174150Y-484640D02*
Y-476340D01*
X-174050Y-476240D02*
X-158250D01*
X-174050Y-484740D02*
X-158250D01*
X-156970Y-436100D02*
Y-427800D01*
X-159870Y-436200D02*
Y-427700D01*
X-170070Y-436200D02*
Y-427700D01*
X-172970Y-436100D02*
Y-427800D01*
X-172870Y-427700D02*
X-157070D01*
X-172870Y-436200D02*
X-157070D01*
X-118236Y-189800D02*
X-109936D01*
X-118336Y-192700D02*
X-109836D01*
X-118336Y-202900D02*
X-109836D01*
X-118236Y-205800D02*
X-109936D01*
X-118336Y-205700D02*
Y-189900D01*
X-109836Y-205700D02*
Y-189900D01*
X-162790Y-146930D02*
X-154490D01*
X-162890Y-144030D02*
X-154390D01*
X-162890Y-133830D02*
X-154390D01*
X-162790Y-130930D02*
X-154490D01*
X-154390Y-146830D02*
Y-131030D01*
X-162890Y-146830D02*
Y-131030D01*
X-27600Y-16986D02*
X-9900D01*
X-27600Y-20086D02*
X-9900D01*
X-26600Y-15986D02*
X-10900D01*
X-26600Y-21086D02*
X-10900D01*
X-9900Y-20086D02*
Y-16986D01*
X-27600Y-20086D02*
Y-16986D01*
X-283850Y-288450D02*
X-266150D01*
X-283850Y-291550D02*
X-266150D01*
X-282850Y-287450D02*
X-267150D01*
X-282850Y-292550D02*
X-267150D01*
X-266150Y-291550D02*
Y-288450D01*
X-283850Y-291550D02*
Y-288450D01*
X-206640Y-259080D02*
X-188940D01*
X-206640Y-262180D02*
X-188940D01*
X-205640Y-258080D02*
X-189940D01*
X-205640Y-263180D02*
X-189940D01*
X-188940Y-262180D02*
Y-259080D01*
X-206640Y-262180D02*
Y-259080D01*
X-197290Y-617390D02*
X-179590D01*
X-197290Y-620490D02*
X-179590D01*
X-196290Y-616390D02*
X-180590D01*
X-196290Y-621490D02*
X-180590D01*
X-179590Y-620490D02*
Y-617390D01*
X-197290Y-620490D02*
Y-617390D01*
X-235820Y-713720D02*
X-218120D01*
X-235820Y-716820D02*
X-218120D01*
X-234820Y-712720D02*
X-219120D01*
X-234820Y-717820D02*
X-219120D01*
X-218120Y-716820D02*
Y-713720D01*
X-235820Y-716820D02*
Y-713720D01*
X-25090Y-126100D02*
X-7390D01*
X-25090Y-129200D02*
X-7390D01*
X-24090Y-125100D02*
X-8390D01*
X-24090Y-130200D02*
X-8390D01*
X-7390Y-129200D02*
Y-126100D01*
X-25090Y-129200D02*
Y-126100D01*
X-16060Y-477360D02*
Y-459660D01*
X-19160Y-477360D02*
Y-459660D01*
X-15060Y-476360D02*
Y-460660D01*
X-20160Y-476360D02*
Y-460660D01*
X-19160Y-477360D02*
X-16060D01*
X-19160Y-459660D02*
X-16060D01*
X-334560Y-258560D02*
X-316860D01*
X-334560Y-261660D02*
X-316860D01*
X-333560Y-257560D02*
X-317860D01*
X-333560Y-262660D02*
X-317860D01*
X-316860Y-261660D02*
Y-258560D01*
X-334560Y-261660D02*
Y-258560D01*
X-280370Y-68300D02*
X-262670D01*
X-280370Y-71400D02*
X-262670D01*
X-279370Y-67300D02*
X-263670D01*
X-279370Y-72400D02*
X-263670D01*
X-262670Y-71400D02*
Y-68300D01*
X-280370Y-71400D02*
Y-68300D01*
X-146750Y-268770D02*
X-129050D01*
X-146750Y-271870D02*
X-129050D01*
X-145750Y-267770D02*
X-130050D01*
X-145750Y-272870D02*
X-130050D01*
X-129050Y-271870D02*
Y-268770D01*
X-146750Y-271870D02*
Y-268770D01*
X-196490Y-511470D02*
X-178790D01*
X-196490Y-514570D02*
X-178790D01*
X-195490Y-510470D02*
X-179790D01*
X-195490Y-515570D02*
X-179790D01*
X-178790Y-514570D02*
Y-511470D01*
X-196490Y-514570D02*
Y-511470D01*
X-26160Y-393860D02*
X-8460D01*
X-26160Y-396960D02*
X-8460D01*
X-25160Y-392860D02*
X-9460D01*
X-25160Y-397960D02*
X-9460D01*
X-8460Y-396960D02*
Y-393860D01*
X-26160Y-396960D02*
Y-393860D01*
X-119120Y-602860D02*
X-101420D01*
X-119120Y-605960D02*
X-101420D01*
X-118120Y-601860D02*
X-102420D01*
X-118120Y-606960D02*
X-102420D01*
X-101420Y-605960D02*
Y-602860D01*
X-119120Y-605960D02*
Y-602860D01*
X-27980Y-678450D02*
X-10280D01*
X-27980Y-681550D02*
X-10280D01*
X-26980Y-677450D02*
X-11280D01*
X-26980Y-682550D02*
X-11280D01*
X-10280Y-681550D02*
Y-678450D01*
X-27980Y-681550D02*
Y-678450D01*
X-157280Y-403450D02*
X-139580D01*
X-157280Y-406550D02*
X-139580D01*
X-156280Y-402450D02*
X-140580D01*
X-156280Y-407550D02*
X-140580D01*
X-139580Y-406550D02*
Y-403450D01*
X-157280Y-406550D02*
Y-403450D01*
X-289780Y-325990D02*
X-272080D01*
X-289780Y-329090D02*
X-272080D01*
X-288780Y-324990D02*
X-273080D01*
X-288780Y-330090D02*
X-273080D01*
X-272080Y-329090D02*
Y-325990D01*
X-289780Y-329090D02*
Y-325990D01*
X-27866Y-272450D02*
X-10166D01*
X-27866Y-275550D02*
X-10166D01*
X-26866Y-271450D02*
X-11166D01*
X-26866Y-276550D02*
X-11166D01*
X-10166Y-275550D02*
Y-272450D01*
X-27866Y-275550D02*
Y-272450D01*
X-31730Y-229670D02*
X-14030D01*
X-31730Y-232770D02*
X-14030D01*
X-30730Y-228670D02*
X-15030D01*
X-30730Y-233770D02*
X-15030D01*
X-31730Y-232770D02*
Y-229670D01*
X-14030Y-232770D02*
Y-229670D01*
X-106860Y-791980D02*
Y-775980D01*
X-114860Y-791980D02*
Y-775980D01*
Y-788980D02*
X-106860D01*
X-114860Y-788680D02*
X-106860D01*
X-114860Y-778980D02*
X-106860D01*
X-114860Y-779280D02*
X-106860D01*
X-108860Y-791980D02*
X-106860D01*
X-114860D02*
X-112860D01*
X-108860Y-775980D02*
X-106860D01*
X-114860D02*
X-112860D01*
X-120410Y-791570D02*
Y-775570D01*
X-128410Y-791570D02*
Y-775570D01*
Y-788570D02*
X-120410D01*
X-128410Y-788270D02*
X-120410D01*
X-128410Y-778570D02*
X-120410D01*
X-128410Y-778870D02*
X-120410D01*
X-122410Y-791570D02*
X-120410D01*
X-128410D02*
X-126410D01*
X-122410Y-775570D02*
X-120410D01*
X-128410D02*
X-126410D01*
X-133960Y-791570D02*
Y-775570D01*
X-141960Y-791570D02*
Y-775570D01*
Y-788570D02*
X-133960D01*
X-141960Y-788270D02*
X-133960D01*
X-141960Y-778570D02*
X-133960D01*
X-141960Y-778870D02*
X-133960D01*
X-135960Y-791570D02*
X-133960D01*
X-141960D02*
X-139960D01*
X-135960Y-775570D02*
X-133960D01*
X-141960D02*
X-139960D01*
X-134252Y-216244D02*
X-118252D01*
X-134252Y-224244D02*
X-118252D01*
X-121252D02*
Y-216244D01*
X-121552Y-224244D02*
Y-216244D01*
X-131252Y-224244D02*
Y-216244D01*
X-130952Y-224244D02*
Y-216244D01*
X-118252Y-218244D02*
Y-216244D01*
Y-224244D02*
Y-222244D01*
X-134252Y-218244D02*
Y-216244D01*
Y-224244D02*
Y-222244D01*
X-145980Y-136490D02*
X-129980D01*
X-145980Y-128490D02*
X-129980D01*
X-142980Y-136490D02*
Y-128490D01*
X-142680Y-136490D02*
Y-128490D01*
X-132980Y-136490D02*
Y-128490D01*
X-133280Y-136490D02*
Y-128490D01*
X-145980Y-136490D02*
Y-134490D01*
Y-130490D02*
Y-128490D01*
X-129980Y-136490D02*
Y-134490D01*
Y-130490D02*
Y-128490D01*
X-358800Y-385210D02*
X-350800D01*
Y-381210D01*
X-358800D02*
X-350800D01*
X-358800Y-385210D02*
Y-381210D01*
Y-369210D02*
X-350800D01*
Y-373210D02*
Y-369210D01*
X-358800Y-373210D02*
X-350800D01*
X-358800D02*
Y-369210D01*
X-358700Y-381210D02*
Y-373210D01*
X-350900Y-381210D02*
Y-373210D01*
X-249000Y-326750D02*
X-241000D01*
X-249000Y-330750D02*
Y-326750D01*
Y-330750D02*
X-241000D01*
Y-326750D01*
X-249000Y-342750D02*
X-241000D01*
X-249000D02*
Y-338750D01*
X-241000D01*
Y-342750D02*
Y-338750D01*
X-241100D02*
Y-330750D01*
X-248900Y-338750D02*
Y-330750D01*
X-135887Y-205380D02*
Y-197380D01*
X-139888Y-205380D02*
X-135887D01*
X-139888D02*
Y-197380D01*
X-135887D01*
X-151888Y-205380D02*
Y-197380D01*
Y-205380D02*
X-147887D01*
Y-197380D01*
X-151888D02*
X-147887D01*
Y-197480D02*
X-139888D01*
X-147887Y-205280D02*
X-139888D01*
X-130140Y-149640D02*
Y-141640D01*
X-134140Y-149640D02*
X-130140D01*
X-134140D02*
Y-141640D01*
X-130140D01*
X-146140Y-149640D02*
Y-141640D01*
Y-149640D02*
X-142140D01*
Y-141640D01*
X-146140D02*
X-142140D01*
Y-141740D02*
X-134140D01*
X-142140Y-149540D02*
X-134140D01*
X-173540Y-320620D02*
Y-312620D01*
X-169540D01*
Y-320620D02*
Y-312620D01*
X-173540Y-320620D02*
X-169540D01*
X-157540D02*
Y-312620D01*
X-161540D02*
X-157540D01*
X-161540Y-320620D02*
Y-312620D01*
Y-320620D02*
X-157540D01*
X-169540Y-320520D02*
X-161540D01*
X-169540Y-312720D02*
X-161540D01*
X-158030Y-463250D02*
Y-455250D01*
X-162030D02*
X-158030D01*
X-162030Y-463250D02*
Y-455250D01*
Y-463250D02*
X-158030D01*
X-174030D02*
Y-455250D01*
X-170030D01*
Y-463250D02*
Y-455250D01*
X-174030Y-463250D02*
X-170030D01*
Y-463150D02*
X-162030D01*
X-170030Y-455350D02*
X-162030D01*
X-191731Y-33160D02*
X-180040Y-26410D01*
X-191731Y-46660D02*
X-180040Y-53410D01*
Y-26410D02*
X-168349Y-33160D01*
X-180040Y-53410D02*
X-168349Y-46660D01*
Y-33160D01*
X-191731Y-46660D02*
Y-33160D01*
X-73871Y-790730D02*
Y-777230D01*
X-50489Y-790730D02*
Y-777230D01*
X-62180Y-797480D02*
X-50489Y-790730D01*
X-62180Y-770480D02*
X-50489Y-777230D01*
X-73871Y-790730D02*
X-62180Y-797480D01*
X-73871Y-777230D02*
X-62180Y-770480D01*
M02*
