G04*
G04 #@! TF.GenerationSoftware,Altium Limited,Altium Designer,21.6.4 (81)*
G04*
G04 Layer_Color=8388736*
%FSLAX44Y44*%
%MOMM*%
G71*
G04*
G04 #@! TF.SameCoordinates,780AAD6F-6990-4CCC-B8E7-168995FE4FAA*
G04*
G04*
G04 #@! TF.FilePolarity,Negative*
G04*
G01*
G75*
G04:AMPARAMS|DCode=16|XSize=1.1mm|YSize=0.9mm|CornerRadius=0.25mm|HoleSize=0mm|Usage=FLASHONLY|Rotation=180.000|XOffset=0mm|YOffset=0mm|HoleType=Round|Shape=RoundedRectangle|*
%AMROUNDEDRECTD16*
21,1,1.1000,0.4000,0,0,180.0*
21,1,0.6000,0.9000,0,0,180.0*
1,1,0.5000,-0.3000,0.2000*
1,1,0.5000,0.3000,0.2000*
1,1,0.5000,0.3000,-0.2000*
1,1,0.5000,-0.3000,-0.2000*
%
%ADD16ROUNDEDRECTD16*%
G04:AMPARAMS|DCode=17|XSize=1.1mm|YSize=0.9mm|CornerRadius=0.25mm|HoleSize=0mm|Usage=FLASHONLY|Rotation=90.000|XOffset=0mm|YOffset=0mm|HoleType=Round|Shape=RoundedRectangle|*
%AMROUNDEDRECTD17*
21,1,1.1000,0.4000,0,0,90.0*
21,1,0.6000,0.9000,0,0,90.0*
1,1,0.5000,0.2000,0.3000*
1,1,0.5000,0.2000,-0.3000*
1,1,0.5000,-0.2000,-0.3000*
1,1,0.5000,-0.2000,0.3000*
%
%ADD17ROUNDEDRECTD17*%
G04:AMPARAMS|DCode=18|XSize=0.9mm|YSize=0.9mm|CornerRadius=0.13mm|HoleSize=0mm|Usage=FLASHONLY|Rotation=0.000|XOffset=0mm|YOffset=0mm|HoleType=Round|Shape=RoundedRectangle|*
%AMROUNDEDRECTD18*
21,1,0.9000,0.6400,0,0,0.0*
21,1,0.6400,0.9000,0,0,0.0*
1,1,0.2600,0.3200,-0.3200*
1,1,0.2600,-0.3200,-0.3200*
1,1,0.2600,-0.3200,0.3200*
1,1,0.2600,0.3200,0.3200*
%
%ADD18ROUNDEDRECTD18*%
%ADD19C,1.9000*%
%ADD20C,5.1000*%
%ADD21C,1.6240*%
%ADD22C,4.9000*%
D16*
X-67750Y-322701D02*
D03*
Y-338701D02*
D03*
X-278000Y-322500D02*
D03*
Y-306500D02*
D03*
D17*
X-139000Y-398400D02*
D03*
X-155000D02*
D03*
X-145500Y-675750D02*
D03*
X-161500D02*
D03*
X-145500Y-662860D02*
D03*
X-161500D02*
D03*
X-145500Y-689000D02*
D03*
X-161500D02*
D03*
X-148500Y-335750D02*
D03*
X-132500D02*
D03*
X-120250Y-296000D02*
D03*
X-136250D02*
D03*
X-83500Y-500000D02*
D03*
X-99500D02*
D03*
D18*
X-191000Y-662860D02*
D03*
X-176000D02*
D03*
X-191000Y-689000D02*
D03*
X-176000D02*
D03*
X-191000Y-675751D02*
D03*
X-176000D02*
D03*
D19*
X-44620Y-322200D02*
D03*
Y-525400D02*
D03*
Y-347600D02*
D03*
Y-373000D02*
D03*
Y-398400D02*
D03*
Y-423800D02*
D03*
Y-449200D02*
D03*
Y-474600D02*
D03*
Y-500000D02*
D03*
Y-550800D02*
D03*
D20*
X-174660Y-138910D02*
D03*
X-174660Y-734090D02*
D03*
D21*
X-230000Y-705800D02*
D03*
X-255400Y-45400D02*
D03*
Y-70800D02*
D03*
Y-96200D02*
D03*
Y-121600D02*
D03*
Y-147000D02*
D03*
Y-172400D02*
D03*
Y-197800D02*
D03*
Y-223200D02*
D03*
Y-248600D02*
D03*
Y-274000D02*
D03*
Y-299400D02*
D03*
Y-324800D02*
D03*
Y-350200D02*
D03*
Y-375600D02*
D03*
Y-401000D02*
D03*
Y-426400D02*
D03*
Y-451800D02*
D03*
Y-477200D02*
D03*
Y-502600D02*
D03*
Y-528000D02*
D03*
Y-553400D02*
D03*
Y-578800D02*
D03*
Y-604200D02*
D03*
Y-629600D02*
D03*
Y-655000D02*
D03*
Y-680400D02*
D03*
Y-705800D02*
D03*
X-230000Y-45400D02*
D03*
Y-70800D02*
D03*
Y-96200D02*
D03*
Y-121600D02*
D03*
Y-147000D02*
D03*
Y-172400D02*
D03*
Y-197800D02*
D03*
Y-223200D02*
D03*
Y-248600D02*
D03*
Y-274000D02*
D03*
Y-299400D02*
D03*
Y-324800D02*
D03*
Y-350200D02*
D03*
Y-375600D02*
D03*
Y-401000D02*
D03*
Y-426400D02*
D03*
Y-451800D02*
D03*
Y-477200D02*
D03*
Y-502600D02*
D03*
Y-528000D02*
D03*
Y-553400D02*
D03*
Y-578800D02*
D03*
Y-604200D02*
D03*
Y-629600D02*
D03*
Y-655000D02*
D03*
Y-680400D02*
D03*
X-255400Y-731200D02*
D03*
X-230000D02*
D03*
X-255400Y-20000D02*
D03*
X-230000D02*
D03*
D22*
X-360039Y-39910D02*
D03*
X-242180Y-783980D02*
D03*
M02*
