%FSTAX23Y23*%
%MOIN*%
%SFA1B1*%

%IPPOS*%
%ADD10C,0.007874*%
%ADD11C,0.005905*%
%ADD12C,0.010000*%
%LNmicrophonearray.main-1*%
%LPD*%
G54D10*
X-01311Y-00157D02*
D01*
X-01311Y-00149*
X-01312Y-00142*
X-01313Y-00135*
X-01315Y-00127*
X-01317Y-0012*
X-0132Y-00113*
X-01323Y-00107*
X-01327Y-001*
X-01331Y-00094*
X-01336Y-00088*
X-01341Y-00083*
X-01346Y-00078*
X-01352Y-00073*
X-01358Y-00068*
X-01364Y-00065*
X-0137Y-00061*
X-01377Y-00058*
X-01384Y-00056*
X-01391Y-00053*
X-01399Y-00052*
X-01406Y-00051*
X-01413Y-0005*
X-01421*
X-01428Y-00051*
X-01435Y-00052*
X-01443Y-00053*
X-0145Y-00056*
X-01457Y-00058*
X-01464Y-00061*
X-0147Y-00065*
X-01476Y-00068*
X-01482Y-00073*
X-01488Y-00078*
X-01493Y-00083*
X-01498Y-00088*
X-01503Y-00094*
X-01507Y-001*
X-01511Y-00107*
X-01514Y-00113*
X-01517Y-0012*
X-01519Y-00127*
X-01521Y-00135*
X-01522Y-00142*
X-01523Y-00149*
X-01523Y-00157*
X-01523Y-00164*
X-01522Y-00171*
X-01521Y-00179*
X-01519Y-00186*
X-01517Y-00193*
X-01514Y-002*
X-01511Y-00207*
X-01507Y-00213*
X-01503Y-00219*
X-01498Y-00225*
X-01493Y-0023*
X-01488Y-00236*
X-01482Y-0024*
X-01476Y-00245*
X-0147Y-00249*
X-01464Y-00252*
X-01457Y-00255*
X-0145Y-00258*
X-01443Y-0026*
X-01435Y-00261*
X-01428Y-00262*
X-01421Y-00263*
X-01413*
X-01406Y-00262*
X-01399Y-00261*
X-01391Y-0026*
X-01384Y-00258*
X-01377Y-00255*
X-0137Y-00252*
X-01364Y-00249*
X-01358Y-00245*
X-01352Y-0024*
X-01346Y-00236*
X-01341Y-0023*
X-01336Y-00225*
X-01331Y-00219*
X-01327Y-00213*
X-01323Y-00207*
X-0132Y-002*
X-01317Y-00193*
X-01315Y-00186*
X-01313Y-00179*
X-01312Y-00171*
X-01311Y-00164*
X-01311Y-00157*
X-00847Y-03086D02*
D01*
X-00847Y-03079*
X-00848Y-03071*
X-00849Y-03064*
X-00851Y-03057*
X-00853Y-0305*
X-00856Y-03043*
X-00859Y-03036*
X-00863Y-0303*
X-00867Y-03024*
X-00872Y-03018*
X-00876Y-03012*
X-00882Y-03007*
X-00888Y-03002*
X-00894Y-02998*
X-009Y-02994*
X-00906Y-0299*
X-00913Y-02987*
X-0092Y-02985*
X-00927Y-02983*
X-00935Y-02981*
X-00942Y-0298*
X-00949Y-0298*
X-00957*
X-00964Y-0298*
X-00971Y-02981*
X-00979Y-02983*
X-00986Y-02985*
X-00993Y-02987*
X-01Y-0299*
X-01006Y-02994*
X-01012Y-02998*
X-01018Y-03002*
X-01024Y-03007*
X-01029Y-03012*
X-01034Y-03018*
X-01039Y-03024*
X-01043Y-0303*
X-01047Y-03036*
X-0105Y-03043*
X-01053Y-0305*
X-01055Y-03057*
X-01057Y-03064*
X-01058Y-03071*
X-01059Y-03079*
X-01059Y-03086*
X-01059Y-03093*
X-01058Y-03101*
X-01057Y-03108*
X-01055Y-03115*
X-01053Y-03122*
X-0105Y-03129*
X-01047Y-03136*
X-01043Y-03142*
X-01039Y-03149*
X-01034Y-03154*
X-01029Y-0316*
X-01024Y-03165*
X-01018Y-0317*
X-01012Y-03174*
X-01006Y-03178*
X-01Y-03182*
X-00993Y-03185*
X-00986Y-03187*
X-00979Y-03189*
X-00971Y-03191*
X-00964Y-03192*
X-00957Y-03192*
X-00949*
X-00942Y-03192*
X-00935Y-03191*
X-00927Y-03189*
X-0092Y-03187*
X-00913Y-03185*
X-00906Y-03182*
X-009Y-03178*
X-00894Y-03174*
X-00888Y-0317*
X-00882Y-03165*
X-00876Y-0316*
X-00872Y-03154*
X-00867Y-03149*
X-00863Y-03142*
X-00859Y-03136*
X-00856Y-03129*
X-00853Y-03122*
X-00851Y-03115*
X-00849Y-03108*
X-00848Y-03101*
X-00847Y-03093*
X-00847Y-03086*
G54D11*
X-00588Y-01585D02*
X-00568D01*
X-00588Y-01551D02*
X-00568D01*
X-00728Y-02622D02*
X-00716Y-02609D01*
X-00728Y-02622D02*
Y-02596D01*
X-00716Y-02609*
Y-02622D02*
Y-02596D01*
X-00728Y-02725D02*
X-00716Y-02712D01*
X-00728Y-02725D02*
Y-02699D01*
X-00716Y-02712*
Y-02725D02*
Y-02699D01*
X-00728Y-02673D02*
X-00716Y-0266D01*
X-00728Y-02673D02*
Y-02647D01*
X-00716Y-0266*
Y-02673D02*
Y-02647D01*
X-00614Y-02677D02*
X-00594D01*
X-00614Y-02643D02*
X-00594D01*
X-00614Y-02626D02*
X-00594D01*
X-00614Y-02592D02*
X-00594D01*
X-00614Y-02729D02*
X-00594D01*
X-00614Y-02695D02*
X-00594D01*
X-01111Y-01248D02*
Y-01228D01*
X-01077Y-01248D02*
Y-01228D01*
X-00562Y-01305D02*
X-00543D01*
X-00562Y-01338D02*
X-00543D01*
X-00094Y-01371D02*
Y-01351D01*
X-00062Y-01371D02*
Y-01351D01*
X-00514Y-01182D02*
X-00495D01*
X-00514Y-01148D02*
X-00495D01*
X-0037Y-01985D02*
X-0035D01*
X-0037Y-01951D02*
X-0035D01*
G54D12*
X-00116Y-02233D02*
Y-01209D01*
X-00234Y-02233D02*
X-00116D01*
X-00234Y-01229D02*
X-00215Y-01209D01*
X-00116*
X-00234Y-02233D02*
Y-01229D01*
X-01046Y-00025D02*
X-00853D01*
Y-02927D02*
Y-00025D01*
X-01053Y-02927D02*
X-00853D01*
X-01053D02*
Y-00033D01*
X-01046Y-00025*
M02*