%FSTAX23Y23*%
%MOIN*%
%SFA1B1*%

%IPPOS*%
%ADD28C,0.001969*%
%ADD29C,0.003937*%
%ADD30C,0.004331*%
%LNmicrophonearray.main-1*%
%LPD*%
G54D28*
X-00734Y-02709D02*
X-00735Y-02708D01*
X-00738*
X-00739Y-02709*
Y-02715*
X-00738Y-02716*
X-00735*
X-00734Y-02715*
X-0073Y-02716D02*
X-00727D01*
X-00726Y-02715*
Y-02712*
X-00727Y-02711*
X-0073*
X-00731Y-02712*
Y-02715*
X-0073Y-02716*
X-00723D02*
X-00721D01*
X-00722*
Y-02708*
X-00723*
X-00715Y-02716D02*
X-00713D01*
X-00711Y-02715*
Y-02712*
X-00713Y-02711*
X-00715*
X-00717Y-02712*
Y-02715*
X-00715Y-02716*
X-00709Y-02711D02*
Y-02716D01*
Y-02713*
X-00708Y-02712*
X-00706Y-02711*
X-00705*
X-00734Y-02607D02*
X-00735Y-02605D01*
X-00738*
X-00739Y-02607*
Y-02612*
X-00738Y-02613*
X-00735*
X-00734Y-02612*
X-0073Y-02613D02*
X-00727D01*
X-00726Y-02612*
Y-02609*
X-00727Y-02608*
X-0073*
X-00731Y-02609*
Y-02612*
X-0073Y-02613*
X-00723D02*
X-00721D01*
X-00722*
Y-02605*
X-00723*
X-00715Y-02613D02*
X-00713D01*
X-00711Y-02612*
Y-02609*
X-00713Y-02608*
X-00715*
X-00717Y-02609*
Y-02612*
X-00715Y-02613*
X-00709Y-02608D02*
Y-02613D01*
Y-0261*
X-00708Y-02609*
X-00706Y-02608*
X-00705*
X-00734Y-02657D02*
X-00735Y-02656D01*
X-00738*
X-00739Y-02657*
Y-02663*
X-00738Y-02664*
X-00735*
X-00734Y-02663*
X-0073Y-02664D02*
X-00727D01*
X-00726Y-02663*
Y-0266*
X-00727Y-02659*
X-0073*
X-00731Y-0266*
Y-02663*
X-0073Y-02664*
X-00723D02*
X-00721D01*
X-00722*
Y-02656*
X-00723*
X-00715Y-02664D02*
X-00713D01*
X-00711Y-02663*
Y-0266*
X-00713Y-02659*
X-00715*
X-00717Y-0266*
Y-02663*
X-00715Y-02664*
X-00709Y-02659D02*
Y-02664D01*
Y-02661*
X-00708Y-0266*
X-00706Y-02659*
X-00705*
G54D29*
X-00578Y-01173D02*
Y-01157D01*
X-0057*
X-00567Y-0116*
Y-01165*
X-0057Y-01167*
X-00578*
X-00573D02*
X-00567Y-01173D01*
X-00554D02*
X-0056D01*
X-00562Y-0117*
Y-01165*
X-0056Y-01162*
X-00554*
X-00552Y-01165*
Y-01167*
X-00562*
X-00546Y-01173D02*
X-00539D01*
X-00536Y-0117*
X-00539Y-01167*
X-00544*
X-00546Y-01165*
X-00544Y-01162*
X-00536*
X-00531Y-01173D02*
X-00525D01*
X-00528*
Y-01162*
X-00531*
X-00518Y-01173D02*
X-0051D01*
X-00507Y-0117*
X-0051Y-01167*
X-00515*
X-00518Y-01165*
X-00515Y-01162*
X-00507*
X-00499Y-0116D02*
Y-01162D01*
X-00502*
X-00497*
X-00499*
Y-0117*
X-00497Y-01173*
X-00486Y-01162D02*
X-00481D01*
X-00478Y-01165*
Y-01173*
X-00486*
X-00489Y-0117*
X-00486Y-01167*
X-00478*
X-00473Y-01173D02*
Y-01162D01*
X-00465*
X-00462Y-01165*
Y-01173*
X-00447Y-01162D02*
X-00455D01*
X-00457Y-01165*
Y-0117*
X-00455Y-01173*
X-00447*
X-00434D02*
X-00439D01*
X-00441Y-0117*
Y-01165*
X-00439Y-01162*
X-00434*
X-00431Y-01165*
Y-01167*
X-00441*
X-00626Y-01329D02*
Y-01313D01*
X-00618*
X-00616Y-01316*
Y-01321*
X-00618Y-01324*
X-00626*
X-00621D02*
X-00616Y-01329D01*
X-00603D02*
X-00608D01*
X-0061Y-01327*
Y-01321*
X-00608Y-01319*
X-00603*
X-006Y-01321*
Y-01324*
X-0061*
X-00595Y-01329D02*
X-00587D01*
X-00584Y-01327*
X-00587Y-01324*
X-00592*
X-00595Y-01321*
X-00592Y-01319*
X-00584*
X-00579Y-01329D02*
X-00574D01*
X-00576*
Y-01319*
X-00579*
X-00566Y-01329D02*
X-00558D01*
X-00555Y-01327*
X-00558Y-01324*
X-00563*
X-00566Y-01321*
X-00563Y-01319*
X-00555*
X-00547Y-01316D02*
Y-01319D01*
X-0055*
X-00545*
X-00547*
Y-01327*
X-00545Y-01329*
X-00534Y-01319D02*
X-00529D01*
X-00526Y-01321*
Y-01329*
X-00534*
X-00537Y-01327*
X-00534Y-01324*
X-00526*
X-00521Y-01329D02*
Y-01319D01*
X-00513*
X-00511Y-01321*
Y-01329*
X-00495Y-01319D02*
X-00503D01*
X-00505Y-01321*
Y-01327*
X-00503Y-01329*
X-00495*
X-00482D02*
X-00487D01*
X-0049Y-01327*
Y-01321*
X-00487Y-01319*
X-00482*
X-00479Y-01321*
Y-01324*
X-0049*
X-00652Y-01576D02*
Y-0156D01*
X-00644*
X-00641Y-01563*
Y-01568*
X-00644Y-01571*
X-00652*
X-00646D02*
X-00641Y-01576D01*
X-00628D02*
X-00633D01*
X-00636Y-01573*
Y-01568*
X-00633Y-01565*
X-00628*
X-00625Y-01568*
Y-01571*
X-00636*
X-0062Y-01576D02*
X-00612D01*
X-0061Y-01573*
X-00612Y-01571*
X-00618*
X-0062Y-01568*
X-00618Y-01565*
X-0061*
X-00604Y-01576D02*
X-00599D01*
X-00602*
Y-01565*
X-00604*
X-00591Y-01576D02*
X-00583D01*
X-00581Y-01573*
X-00583Y-01571*
X-00589*
X-00591Y-01568*
X-00589Y-01565*
X-00581*
X-00573Y-01563D02*
Y-01565D01*
X-00576*
X-0057*
X-00573*
Y-01573*
X-0057Y-01576*
X-0056Y-01565D02*
X-00555D01*
X-00552Y-01568*
Y-01576*
X-0056*
X-00562Y-01573*
X-0056Y-01571*
X-00552*
X-00547Y-01576D02*
Y-01565D01*
X-00539*
X-00536Y-01568*
Y-01576*
X-00521Y-01565D02*
X-00528D01*
X-00531Y-01568*
Y-01573*
X-00528Y-01576*
X-00521*
X-00507D02*
X-00513D01*
X-00515Y-01573*
Y-01568*
X-00513Y-01565*
X-00507*
X-00505Y-01568*
Y-01571*
X-00515*
X-00433Y-01976D02*
Y-0196D01*
X-00425*
X-00423Y-01963*
Y-01968*
X-00425Y-01971*
X-00433*
X-00428D02*
X-00423Y-01976D01*
X-0041D02*
X-00415D01*
X-00417Y-01973*
Y-01968*
X-00415Y-01965*
X-0041*
X-00407Y-01968*
Y-01971*
X-00417*
X-00402Y-01976D02*
X-00394D01*
X-00391Y-01973*
X-00394Y-01971*
X-00399*
X-00402Y-01968*
X-00399Y-01965*
X-00391*
X-00386Y-01976D02*
X-00381D01*
X-00383*
Y-01965*
X-00386*
X-00373Y-01976D02*
X-00365D01*
X-00362Y-01973*
X-00365Y-01971*
X-0037*
X-00373Y-01968*
X-0037Y-01965*
X-00362*
X-00354Y-01963D02*
Y-01965D01*
X-00357*
X-00352*
X-00354*
Y-01973*
X-00352Y-01976*
X-00341Y-01965D02*
X-00336D01*
X-00333Y-01968*
Y-01976*
X-00341*
X-00344Y-01973*
X-00341Y-01971*
X-00333*
X-00328Y-01976D02*
Y-01965D01*
X-0032*
X-00318Y-01968*
Y-01976*
X-00302Y-01965D02*
X-0031D01*
X-00313Y-01968*
Y-01973*
X-0031Y-01976*
X-00302*
X-00289D02*
X-00294D01*
X-00297Y-01973*
Y-01968*
X-00294Y-01965*
X-00289*
X-00286Y-01968*
Y-01971*
X-00297*
X-0053Y-02704D02*
Y-0272D01*
X-00538*
X-00541Y-02717*
Y-02712*
X-00538Y-02709*
X-0053*
X-00536D02*
X-00541Y-02704D01*
X-00554D02*
X-00549D01*
X-00546Y-02707*
Y-02712*
X-00549Y-02715*
X-00554*
X-00557Y-02712*
Y-02709*
X-00546*
X-00562Y-02704D02*
X-0057D01*
X-00572Y-02707*
X-0057Y-02709*
X-00564*
X-00562Y-02712*
X-00564Y-02715*
X-00572*
X-00578Y-02704D02*
X-00583D01*
X-0058*
Y-02715*
X-00578*
X-00591Y-02704D02*
X-00599D01*
X-00601Y-02707*
X-00599Y-02709*
X-00593*
X-00591Y-02712*
X-00593Y-02715*
X-00601*
X-00609Y-02717D02*
Y-02715D01*
X-00606*
X-00612*
X-00609*
Y-02707*
X-00612Y-02704*
X-00622Y-02715D02*
X-00627D01*
X-0063Y-02712*
Y-02704*
X-00622*
X-0062Y-02707*
X-00622Y-02709*
X-0063*
X-00635Y-02704D02*
Y-02715D01*
X-00643*
X-00646Y-02712*
Y-02704*
X-00662Y-02715D02*
X-00654D01*
X-00651Y-02712*
Y-02707*
X-00654Y-02704*
X-00662*
X-00675D02*
X-00669D01*
X-00667Y-02707*
Y-02712*
X-00669Y-02715*
X-00675*
X-00677Y-02712*
Y-02709*
X-00667*
X-01102Y-01164D02*
X-01086D01*
Y-01172*
X-01089Y-01175*
X-01094*
X-01097Y-01172*
Y-01164*
Y-01169D02*
X-01102Y-01175D01*
Y-01188D02*
Y-01183D01*
X-01099Y-0118*
X-01094*
X-01091Y-01183*
Y-01188*
X-01094Y-0119*
X-01097*
Y-0118*
X-01102Y-01196D02*
Y-01204D01*
X-01099Y-01206*
X-01097Y-01204*
Y-01198*
X-01094Y-01196*
X-01091Y-01198*
Y-01206*
X-01102Y-01211D02*
Y-01217D01*
Y-01214*
X-01091*
Y-01211*
X-01102Y-01225D02*
Y-01232D01*
X-01099Y-01235*
X-01097Y-01232*
Y-01227*
X-01094Y-01225*
X-01091Y-01227*
Y-01235*
X-01089Y-01243D02*
X-01091D01*
Y-0124*
Y-01246*
Y-01243*
X-01099*
X-01102Y-01246*
X-01091Y-01256D02*
Y-01261D01*
X-01094Y-01264*
X-01102*
Y-01256*
X-01099Y-01253*
X-01097Y-01256*
Y-01264*
X-01102Y-01269D02*
X-01091D01*
Y-01277*
X-01094Y-0128*
X-01102*
X-01091Y-01295D02*
Y-01288D01*
X-01094Y-01285*
X-01099*
X-01102Y-01288*
Y-01295*
Y-01309D02*
Y-01303D01*
X-01099Y-01301*
X-01094*
X-01091Y-01303*
Y-01309*
X-01094Y-01311*
X-01097*
Y-01301*
X-0053Y-02601D02*
Y-02617D01*
X-00538*
X-00541Y-02614*
Y-02609*
X-00538Y-02607*
X-0053*
X-00536D02*
X-00541Y-02601D01*
X-00554D02*
X-00549D01*
X-00546Y-02604*
Y-02609*
X-00549Y-02612*
X-00554*
X-00557Y-02609*
Y-02607*
X-00546*
X-00562Y-02601D02*
X-0057D01*
X-00572Y-02604*
X-0057Y-02607*
X-00564*
X-00562Y-02609*
X-00564Y-02612*
X-00572*
X-00578Y-02601D02*
X-00583D01*
X-0058*
Y-02612*
X-00578*
X-00591Y-02601D02*
X-00599D01*
X-00601Y-02604*
X-00599Y-02607*
X-00593*
X-00591Y-02609*
X-00593Y-02612*
X-00601*
X-00609Y-02614D02*
Y-02612D01*
X-00606*
X-00612*
X-00609*
Y-02604*
X-00612Y-02601*
X-00622Y-02612D02*
X-00627D01*
X-0063Y-02609*
Y-02601*
X-00622*
X-0062Y-02604*
X-00622Y-02607*
X-0063*
X-00635Y-02601D02*
Y-02612D01*
X-00643*
X-00646Y-02609*
Y-02601*
X-00662Y-02612D02*
X-00654D01*
X-00651Y-02609*
Y-02604*
X-00654Y-02601*
X-00662*
X-00675D02*
X-00669D01*
X-00667Y-02604*
Y-02609*
X-00669Y-02612*
X-00675*
X-00677Y-02609*
Y-02607*
X-00667*
X-0053Y-02652D02*
Y-02668D01*
X-00538*
X-00541Y-02665*
Y-0266*
X-00538Y-02657*
X-0053*
X-00536D02*
X-00541Y-02652D01*
X-00554D02*
X-00549D01*
X-00546Y-02655*
Y-0266*
X-00549Y-02663*
X-00554*
X-00557Y-0266*
Y-02657*
X-00546*
X-00562Y-02652D02*
X-0057D01*
X-00572Y-02655*
X-0057Y-02657*
X-00564*
X-00562Y-0266*
X-00564Y-02663*
X-00572*
X-00578Y-02652D02*
X-00583D01*
X-0058*
Y-02663*
X-00578*
X-00591Y-02652D02*
X-00599D01*
X-00601Y-02655*
X-00599Y-02657*
X-00593*
X-00591Y-0266*
X-00593Y-02663*
X-00601*
X-00609Y-02665D02*
Y-02663D01*
X-00606*
X-00612*
X-00609*
Y-02655*
X-00612Y-02652*
X-00622Y-02663D02*
X-00627D01*
X-0063Y-0266*
Y-02652*
X-00622*
X-0062Y-02655*
X-00622Y-02657*
X-0063*
X-00635Y-02652D02*
Y-02663D01*
X-00643*
X-00646Y-0266*
Y-02652*
X-00662Y-02663D02*
X-00654D01*
X-00651Y-0266*
Y-02655*
X-00654Y-02652*
X-00662*
X-00675D02*
X-00669D01*
X-00667Y-02655*
Y-0266*
X-00669Y-02663*
X-00675*
X-00677Y-0266*
Y-02657*
X-00667*
G54D30*
X-0007Y-01374D02*
X-00086D01*
X-0007Y-01364*
X-00086*
X-00083Y-01348D02*
X-00086Y-01351D01*
Y-01356*
X-00083Y-01359*
X-00073*
X-0007Y-01356*
Y-01351*
X-00073Y-01348*
M02*