%FSTAX23Y23*%
%MOIN*%
%SFA1B1*%

%IPPOS*%
%ADD31C,0.000500*%
%LNmicrophonearray.main-1*%
%LPD*%
G54D31*
X-0061Y-01584D02*
D01*
X-0061Y-01584*
X-0061Y-01584*
X-0061Y-01584*
X-0061Y-01584*
X-0061Y-01584*
X-0061Y-01585*
X-0061Y-01585*
X-0061Y-01585*
X-0061Y-01585*
X-0061Y-01585*
X-0061Y-01585*
X-0061Y-01585*
X-0061Y-01585*
X-0061Y-01585*
X-0061Y-01585*
X-0061Y-01585*
X-00609Y-01585*
X-00609Y-01585*
X-00609Y-01585*
X-00609Y-01585*
X-00609Y-01585*
X-00609Y-01585*
X-00609Y-01585*
Y-01551D02*
D01*
X-00609Y-01551*
X-00609Y-01551*
X-00609Y-01551*
X-00609Y-01551*
X-00609Y-01551*
X-0061Y-01551*
X-0061Y-01551*
X-0061Y-01551*
X-0061Y-01551*
X-0061Y-01551*
X-0061Y-01551*
X-0061Y-01551*
X-0061Y-01551*
X-0061Y-01551*
X-0061Y-01551*
X-0061Y-01551*
X-0061Y-01552*
X-0061Y-01552*
X-0061Y-01552*
X-0061Y-01552*
X-0061Y-01552*
X-0061Y-01552*
X-0061Y-01552*
X-00547Y-01585D02*
D01*
X-00547Y-01585*
X-00547Y-01585*
X-00547Y-01585*
X-00547Y-01585*
X-00547Y-01585*
X-00547Y-01585*
X-00547Y-01585*
X-00547Y-01585*
X-00547Y-01585*
X-00547Y-01585*
X-00547Y-01585*
X-00547Y-01585*
X-00547Y-01585*
X-00547Y-01585*
X-00547Y-01585*
X-00547Y-01585*
X-00547Y-01584*
X-00547Y-01584*
X-00547Y-01584*
X-00547Y-01584*
X-00547Y-01584*
X-00547Y-01584*
Y-01584*
Y-01552D02*
D01*
X-00547Y-01552*
X-00547Y-01552*
X-00547Y-01552*
X-00547Y-01552*
X-00547Y-01552*
X-00547Y-01552*
X-00547Y-01551*
X-00547Y-01551*
X-00547Y-01551*
X-00547Y-01551*
X-00547Y-01551*
X-00547Y-01551*
X-00547Y-01551*
X-00547Y-01551*
X-00547Y-01551*
X-00547Y-01551*
X-00547Y-01551*
X-00547Y-01551*
X-00547Y-01551*
X-00547Y-01551*
X-00547Y-01551*
X-00547Y-01551*
X-00547*
X-00753Y-02617D02*
D01*
X-00753Y-02617*
X-00752Y-02617*
X-00752Y-02617*
X-00751Y-02617*
X-00751Y-02617*
X-0075Y-02616*
X-0075Y-02616*
X-00749Y-02616*
X-00749Y-02616*
X-00748Y-02615*
X-00748Y-02615*
X-00748Y-02614*
X-00747Y-02614*
X-00747Y-02614*
X-00747Y-02613*
X-00746Y-02613*
X-00746Y-02612*
X-00746Y-02612*
X-00746Y-02611*
X-00746Y-02611*
X-00746Y-0261*
X-00746Y-02609*
Y-02609*
X-00746Y-02608*
X-00746Y-02608*
X-00746Y-02607*
X-00746Y-02607*
X-00746Y-02606*
X-00746Y-02606*
X-00747Y-02605*
X-00747Y-02605*
X-00747Y-02604*
X-00748Y-02604*
X-00748Y-02604*
X-00748Y-02603*
X-00749Y-02603*
X-00749Y-02603*
X-0075Y-02602*
X-0075Y-02602*
X-00751Y-02602*
X-00751Y-02602*
X-00752Y-02601*
X-00752Y-02601*
X-00753Y-02601*
X-00753Y-02601*
X-0069D02*
D01*
X-00691Y-02601*
X-00692Y-02601*
X-00692Y-02601*
X-00693Y-02602*
X-00693Y-02602*
X-00694Y-02602*
X-00694Y-02602*
X-00695Y-02603*
X-00695Y-02603*
X-00696Y-02603*
X-00696Y-02604*
X-00696Y-02604*
X-00697Y-02604*
X-00697Y-02605*
X-00697Y-02605*
X-00698Y-02606*
X-00698Y-02606*
X-00698Y-02607*
X-00698Y-02607*
X-00698Y-02608*
X-00698Y-02608*
X-00698Y-02609*
Y-02609*
X-00698Y-0261*
X-00698Y-02611*
X-00698Y-02611*
X-00698Y-02612*
X-00698Y-02612*
X-00698Y-02613*
X-00697Y-02613*
X-00697Y-02614*
X-00697Y-02614*
X-00696Y-02614*
X-00696Y-02615*
X-00696Y-02615*
X-00695Y-02616*
X-00695Y-02616*
X-00694Y-02616*
X-00694Y-02616*
X-00693Y-02617*
X-00693Y-02617*
X-00692Y-02617*
X-00692Y-02617*
X-00691Y-02617*
X-0069Y-02617*
X-00753Y-0272D02*
D01*
X-00753Y-0272*
X-00752Y-0272*
X-00752Y-0272*
X-00751Y-0272*
X-00751Y-02719*
X-0075Y-02719*
X-0075Y-02719*
X-00749Y-02719*
X-00749Y-02718*
X-00748Y-02718*
X-00748Y-02718*
X-00748Y-02717*
X-00747Y-02717*
X-00747Y-02717*
X-00747Y-02716*
X-00746Y-02716*
X-00746Y-02715*
X-00746Y-02715*
X-00746Y-02714*
X-00746Y-02713*
X-00746Y-02713*
X-00746Y-02712*
Y-02712*
X-00746Y-02711*
X-00746Y-02711*
X-00746Y-0271*
X-00746Y-0271*
X-00746Y-02709*
X-00746Y-02709*
X-00747Y-02708*
X-00747Y-02708*
X-00747Y-02707*
X-00748Y-02707*
X-00748Y-02706*
X-00748Y-02706*
X-00749Y-02706*
X-00749Y-02705*
X-0075Y-02705*
X-0075Y-02705*
X-00751Y-02705*
X-00751Y-02705*
X-00752Y-02704*
X-00752Y-02704*
X-00753Y-02704*
X-00753Y-02704*
X-0069D02*
D01*
X-00691Y-02704*
X-00692Y-02704*
X-00692Y-02704*
X-00693Y-02705*
X-00693Y-02705*
X-00694Y-02705*
X-00694Y-02705*
X-00695Y-02705*
X-00695Y-02706*
X-00696Y-02706*
X-00696Y-02706*
X-00696Y-02707*
X-00697Y-02707*
X-00697Y-02708*
X-00697Y-02708*
X-00698Y-02709*
X-00698Y-02709*
X-00698Y-0271*
X-00698Y-0271*
X-00698Y-02711*
X-00698Y-02711*
X-00698Y-02712*
Y-02712*
X-00698Y-02713*
X-00698Y-02713*
X-00698Y-02714*
X-00698Y-02715*
X-00698Y-02715*
X-00698Y-02716*
X-00697Y-02716*
X-00697Y-02717*
X-00697Y-02717*
X-00696Y-02717*
X-00696Y-02718*
X-00696Y-02718*
X-00695Y-02718*
X-00695Y-02719*
X-00694Y-02719*
X-00694Y-02719*
X-00693Y-02719*
X-00693Y-0272*
X-00692Y-0272*
X-00692Y-0272*
X-00691Y-0272*
X-0069Y-0272*
X-00753Y-02668D02*
D01*
X-00753Y-02668*
X-00752Y-02668*
X-00752Y-02668*
X-00751Y-02668*
X-00751Y-02667*
X-0075Y-02667*
X-0075Y-02667*
X-00749Y-02667*
X-00749Y-02666*
X-00748Y-02666*
X-00748Y-02666*
X-00748Y-02665*
X-00747Y-02665*
X-00747Y-02664*
X-00747Y-02664*
X-00746Y-02663*
X-00746Y-02663*
X-00746Y-02662*
X-00746Y-02662*
X-00746Y-02661*
X-00746Y-02661*
X-00746Y-0266*
Y-0266*
X-00746Y-02659*
X-00746Y-02659*
X-00746Y-02658*
X-00746Y-02657*
X-00746Y-02657*
X-00746Y-02656*
X-00747Y-02656*
X-00747Y-02656*
X-00747Y-02655*
X-00748Y-02655*
X-00748Y-02654*
X-00748Y-02654*
X-00749Y-02654*
X-00749Y-02653*
X-0075Y-02653*
X-0075Y-02653*
X-00751Y-02653*
X-00751Y-02652*
X-00752Y-02652*
X-00752Y-02652*
X-00753Y-02652*
X-00753Y-02652*
X-0069D02*
D01*
X-00691Y-02652*
X-00692Y-02652*
X-00692Y-02652*
X-00693Y-02652*
X-00693Y-02653*
X-00694Y-02653*
X-00694Y-02653*
X-00695Y-02653*
X-00695Y-02654*
X-00696Y-02654*
X-00696Y-02654*
X-00696Y-02655*
X-00697Y-02655*
X-00697Y-02656*
X-00697Y-02656*
X-00698Y-02656*
X-00698Y-02657*
X-00698Y-02657*
X-00698Y-02658*
X-00698Y-02659*
X-00698Y-02659*
X-00698Y-0266*
Y-0266*
X-00698Y-02661*
X-00698Y-02661*
X-00698Y-02662*
X-00698Y-02662*
X-00698Y-02663*
X-00698Y-02663*
X-00697Y-02664*
X-00697Y-02664*
X-00697Y-02665*
X-00696Y-02665*
X-00696Y-02666*
X-00696Y-02666*
X-00695Y-02666*
X-00695Y-02667*
X-00694Y-02667*
X-00694Y-02667*
X-00693Y-02667*
X-00693Y-02668*
X-00692Y-02668*
X-00692Y-02668*
X-00691Y-02668*
X-0069Y-02668*
X-00635Y-02676D02*
D01*
X-00635Y-02676*
X-00635Y-02676*
X-00635Y-02676*
X-00635Y-02676*
X-00635Y-02676*
X-00635Y-02676*
X-00635Y-02676*
X-00635Y-02676*
X-00635Y-02677*
X-00635Y-02677*
X-00635Y-02677*
X-00635Y-02677*
X-00635Y-02677*
X-00635Y-02677*
X-00635Y-02677*
X-00635Y-02677*
X-00635Y-02677*
X-00635Y-02677*
X-00635Y-02677*
X-00635Y-02677*
X-00635Y-02677*
X-00635Y-02677*
X-00635*
Y-02643D02*
D01*
X-00635Y-02643*
X-00635Y-02643*
X-00635Y-02643*
X-00635Y-02643*
X-00635Y-02643*
X-00635Y-02643*
X-00635Y-02643*
X-00635Y-02643*
X-00635Y-02643*
X-00635Y-02643*
X-00635Y-02643*
X-00635Y-02643*
X-00635Y-02643*
X-00635Y-02643*
X-00635Y-02643*
X-00635Y-02643*
X-00635Y-02643*
X-00635Y-02643*
X-00635Y-02643*
X-00635Y-02644*
X-00635Y-02644*
X-00635Y-02644*
Y-02644*
X-00573Y-02677D02*
D01*
X-00573Y-02677*
X-00573Y-02677*
X-00573Y-02677*
X-00573Y-02677*
X-00573Y-02677*
X-00573Y-02677*
X-00573Y-02677*
X-00573Y-02677*
X-00572Y-02677*
X-00572Y-02677*
X-00572Y-02677*
X-00572Y-02677*
X-00572Y-02677*
X-00572Y-02676*
X-00572Y-02676*
X-00572Y-02676*
X-00572Y-02676*
X-00572Y-02676*
X-00572Y-02676*
X-00572Y-02676*
X-00572Y-02676*
X-00572Y-02676*
Y-02676*
Y-02644D02*
D01*
X-00572Y-02644*
X-00572Y-02644*
X-00572Y-02644*
X-00572Y-02643*
X-00572Y-02643*
X-00572Y-02643*
X-00572Y-02643*
X-00572Y-02643*
X-00572Y-02643*
X-00572Y-02643*
X-00572Y-02643*
X-00572Y-02643*
X-00572Y-02643*
X-00573Y-02643*
X-00573Y-02643*
X-00573Y-02643*
X-00573Y-02643*
X-00573Y-02643*
X-00573Y-02643*
X-00573Y-02643*
X-00573Y-02643*
X-00573Y-02643*
X-00573Y-02643*
X-00635Y-02626D02*
D01*
X-00635Y-02626*
X-00635Y-02626*
X-00635Y-02626*
X-00635Y-02626*
X-00635Y-02626*
X-00635Y-02626*
X-00635Y-02626*
X-00635Y-02626*
X-00635Y-02626*
X-00635Y-02626*
X-00635Y-02626*
X-00635Y-02626*
X-00635Y-02626*
X-00635Y-02626*
X-00635Y-02626*
X-00635Y-02626*
X-00635Y-02626*
X-00635Y-02626*
X-00635Y-02626*
X-00635Y-02626*
X-00635Y-02626*
X-00635Y-02626*
X-00635*
Y-02592D02*
D01*
X-00635Y-02592*
X-00635Y-02592*
X-00635Y-02592*
X-00635Y-02592*
X-00635Y-02592*
X-00635Y-02592*
X-00635Y-02592*
X-00635Y-02593*
X-00635Y-02593*
X-00635Y-02593*
X-00635Y-02593*
X-00635Y-02593*
X-00635Y-02593*
X-00635Y-02593*
X-00635Y-02593*
X-00635Y-02593*
X-00635Y-02593*
X-00635Y-02593*
X-00635Y-02593*
X-00635Y-02593*
X-00635Y-02593*
X-00635Y-02593*
Y-02593*
X-00573Y-02626D02*
D01*
X-00573Y-02626*
X-00573Y-02626*
X-00573Y-02626*
X-00573Y-02626*
X-00573Y-02626*
X-00573Y-02626*
X-00573Y-02626*
X-00573Y-02626*
X-00572Y-02626*
X-00572Y-02626*
X-00572Y-02626*
X-00572Y-02626*
X-00572Y-02626*
X-00572Y-02626*
X-00572Y-02626*
X-00572Y-02626*
X-00572Y-02626*
X-00572Y-02626*
X-00572Y-02626*
X-00572Y-02626*
X-00572Y-02626*
X-00572Y-02626*
Y-02626*
Y-02593D02*
D01*
X-00572Y-02593*
X-00572Y-02593*
X-00572Y-02593*
X-00572Y-02593*
X-00572Y-02593*
X-00572Y-02593*
X-00572Y-02593*
X-00572Y-02593*
X-00572Y-02593*
X-00572Y-02593*
X-00572Y-02593*
X-00572Y-02593*
X-00572Y-02593*
X-00573Y-02593*
X-00573Y-02593*
X-00573Y-02592*
X-00573Y-02592*
X-00573Y-02592*
X-00573Y-02592*
X-00573Y-02592*
X-00573Y-02592*
X-00573Y-02592*
X-00573*
X-00635Y-02728D02*
D01*
X-00635Y-02728*
X-00635Y-02728*
X-00635Y-02729*
X-00635Y-02729*
X-00635Y-02729*
X-00635Y-02729*
X-00635Y-02729*
X-00635Y-02729*
X-00635Y-02729*
X-00635Y-02729*
X-00635Y-02729*
X-00635Y-02729*
X-00635Y-02729*
X-00635Y-02729*
X-00635Y-02729*
X-00635Y-02729*
X-00635Y-02729*
X-00635Y-02729*
X-00635Y-02729*
X-00635Y-02729*
X-00635Y-02729*
X-00635Y-02729*
X-00635*
Y-02695D02*
D01*
X-00635Y-02695*
X-00635Y-02695*
X-00635Y-02695*
X-00635Y-02695*
X-00635Y-02695*
X-00635Y-02695*
X-00635Y-02695*
X-00635Y-02695*
X-00635Y-02695*
X-00635Y-02695*
X-00635Y-02695*
X-00635Y-02695*
X-00635Y-02696*
X-00635Y-02696*
X-00635Y-02696*
X-00635Y-02696*
X-00635Y-02696*
X-00635Y-02696*
X-00635Y-02696*
X-00635Y-02696*
X-00635Y-02696*
X-00635Y-02696*
Y-02696*
X-00573Y-02729D02*
D01*
X-00573Y-02729*
X-00573Y-02729*
X-00573Y-02729*
X-00573Y-02729*
X-00573Y-02729*
X-00573Y-02729*
X-00573Y-02729*
X-00573Y-02729*
X-00572Y-02729*
X-00572Y-02729*
X-00572Y-02729*
X-00572Y-02729*
X-00572Y-02729*
X-00572Y-02729*
X-00572Y-02729*
X-00572Y-02729*
X-00572Y-02729*
X-00572Y-02729*
X-00572Y-02729*
X-00572Y-02729*
X-00572Y-02728*
X-00572Y-02728*
Y-02728*
Y-02696D02*
D01*
X-00572Y-02696*
X-00572Y-02696*
X-00572Y-02696*
X-00572Y-02696*
X-00572Y-02696*
X-00572Y-02696*
X-00572Y-02696*
X-00572Y-02696*
X-00572Y-02696*
X-00572Y-02696*
X-00572Y-02695*
X-00572Y-02695*
X-00572Y-02695*
X-00573Y-02695*
X-00573Y-02695*
X-00573Y-02695*
X-00573Y-02695*
X-00573Y-02695*
X-00573Y-02695*
X-00573Y-02695*
X-00573Y-02695*
X-00573Y-02695*
X-00573*
X-0111Y-01206D02*
D01*
X-0111Y-01206*
X-0111Y-01206*
X-0111Y-01206*
X-0111Y-01206*
X-0111Y-01206*
X-0111Y-01206*
X-01111Y-01206*
X-01111Y-01206*
X-01111Y-01206*
X-01111Y-01206*
X-01111Y-01206*
X-01111Y-01206*
X-01111Y-01206*
X-01111Y-01206*
X-01111Y-01206*
X-01111Y-01206*
X-01111Y-01206*
X-01111Y-01206*
X-01111Y-01206*
X-01111Y-01207*
X-01111Y-01207*
X-01111Y-01207*
Y-01207*
X-01077D02*
D01*
X-01077Y-01207*
X-01077Y-01207*
X-01077Y-01207*
X-01077Y-01206*
X-01077Y-01206*
X-01077Y-01206*
X-01077Y-01206*
X-01077Y-01206*
X-01077Y-01206*
X-01077Y-01206*
X-01077Y-01206*
X-01077Y-01206*
X-01077Y-01206*
X-01077Y-01206*
X-01077Y-01206*
X-01077Y-01206*
X-01078Y-01206*
X-01078Y-01206*
X-01078Y-01206*
X-01078Y-01206*
X-01078Y-01206*
X-01078Y-01206*
X-01078Y-01206*
X-01111Y-01269D02*
D01*
X-01111Y-01269*
X-01111Y-01269*
X-01111Y-01269*
X-01111Y-01269*
X-01111Y-01269*
X-01111Y-01269*
X-01111Y-01269*
X-01111Y-01269*
X-01111Y-01269*
X-01111Y-01269*
X-01111Y-01269*
X-01111Y-01269*
X-01111Y-01269*
X-01111Y-01269*
X-01111Y-01269*
X-0111Y-01269*
X-0111Y-01269*
X-0111Y-01269*
X-0111Y-01269*
X-0111Y-01269*
X-0111Y-01269*
X-0111Y-01269*
X-0111Y-01269*
X-01078D02*
D01*
X-01078Y-01269*
X-01078Y-01269*
X-01078Y-01269*
X-01078Y-01269*
X-01078Y-01269*
X-01077Y-01269*
X-01077Y-01269*
X-01077Y-01269*
X-01077Y-01269*
X-01077Y-01269*
X-01077Y-01269*
X-01077Y-01269*
X-01077Y-01269*
X-01077Y-01269*
X-01077Y-01269*
X-01077Y-01269*
X-01077Y-01269*
X-01077Y-01269*
X-01077Y-01269*
X-01077Y-01269*
X-01077Y-01269*
X-01077Y-01269*
X-01077Y-01269*
X-01311Y-00157D02*
D01*
X-01311Y-00149*
X-01312Y-00142*
X-01313Y-00135*
X-01315Y-00127*
X-01317Y-0012*
X-0132Y-00113*
X-01323Y-00107*
X-01327Y-001*
X-01331Y-00094*
X-01336Y-00088*
X-01341Y-00083*
X-01346Y-00078*
X-01352Y-00073*
X-01358Y-00068*
X-01364Y-00065*
X-0137Y-00061*
X-01377Y-00058*
X-01384Y-00056*
X-01391Y-00053*
X-01399Y-00052*
X-01406Y-00051*
X-01413Y-0005*
X-01421*
X-01428Y-00051*
X-01435Y-00052*
X-01443Y-00053*
X-0145Y-00056*
X-01457Y-00058*
X-01464Y-00061*
X-0147Y-00065*
X-01476Y-00068*
X-01482Y-00073*
X-01488Y-00078*
X-01493Y-00083*
X-01498Y-00088*
X-01503Y-00094*
X-01507Y-001*
X-01511Y-00107*
X-01514Y-00113*
X-01517Y-0012*
X-01519Y-00127*
X-01521Y-00135*
X-01522Y-00142*
X-01523Y-00149*
X-01523Y-00157*
X-01523Y-00164*
X-01522Y-00171*
X-01521Y-00179*
X-01519Y-00186*
X-01517Y-00193*
X-01514Y-002*
X-01511Y-00207*
X-01507Y-00213*
X-01503Y-00219*
X-01498Y-00225*
X-01493Y-0023*
X-01488Y-00236*
X-01482Y-0024*
X-01476Y-00245*
X-0147Y-00249*
X-01464Y-00252*
X-01457Y-00255*
X-0145Y-00258*
X-01443Y-0026*
X-01435Y-00261*
X-01428Y-00262*
X-01421Y-00263*
X-01413*
X-01406Y-00262*
X-01399Y-00261*
X-01391Y-0026*
X-01384Y-00258*
X-01377Y-00255*
X-0137Y-00252*
X-01364Y-00249*
X-01358Y-00245*
X-01352Y-0024*
X-01346Y-00236*
X-01341Y-0023*
X-01336Y-00225*
X-01331Y-00219*
X-01327Y-00213*
X-01323Y-00207*
X-0132Y-002*
X-01317Y-00193*
X-01315Y-00186*
X-01313Y-00179*
X-01312Y-00171*
X-01311Y-00164*
X-01311Y-00157*
X-00847Y-03086D02*
D01*
X-00847Y-03079*
X-00848Y-03071*
X-00849Y-03064*
X-00851Y-03057*
X-00853Y-0305*
X-00856Y-03043*
X-00859Y-03036*
X-00863Y-0303*
X-00867Y-03024*
X-00872Y-03018*
X-00876Y-03012*
X-00882Y-03007*
X-00888Y-03002*
X-00894Y-02998*
X-009Y-02994*
X-00906Y-0299*
X-00913Y-02987*
X-0092Y-02985*
X-00927Y-02983*
X-00935Y-02981*
X-00942Y-0298*
X-00949Y-0298*
X-00957*
X-00964Y-0298*
X-00971Y-02981*
X-00979Y-02983*
X-00986Y-02985*
X-00993Y-02987*
X-01Y-0299*
X-01006Y-02994*
X-01012Y-02998*
X-01018Y-03002*
X-01024Y-03007*
X-01029Y-03012*
X-01034Y-03018*
X-01039Y-03024*
X-01043Y-0303*
X-01047Y-03036*
X-0105Y-03043*
X-01053Y-0305*
X-01055Y-03057*
X-01057Y-03064*
X-01058Y-03071*
X-01059Y-03079*
X-01059Y-03086*
X-01059Y-03093*
X-01058Y-03101*
X-01057Y-03108*
X-01055Y-03115*
X-01053Y-03122*
X-0105Y-03129*
X-01047Y-03136*
X-01043Y-03142*
X-01039Y-03149*
X-01034Y-03154*
X-01029Y-0316*
X-01024Y-03165*
X-01018Y-0317*
X-01012Y-03174*
X-01006Y-03178*
X-01Y-03182*
X-00993Y-03185*
X-00986Y-03187*
X-00979Y-03189*
X-00971Y-03191*
X-00964Y-03192*
X-00957Y-03192*
X-00949*
X-00942Y-03192*
X-00935Y-03191*
X-00927Y-03189*
X-0092Y-03187*
X-00913Y-03185*
X-00906Y-03182*
X-009Y-03178*
X-00894Y-03174*
X-00888Y-0317*
X-00882Y-03165*
X-00876Y-0316*
X-00872Y-03154*
X-00867Y-03149*
X-00863Y-03142*
X-00859Y-03136*
X-00856Y-03129*
X-00853Y-03122*
X-00851Y-03115*
X-00849Y-03108*
X-00848Y-03101*
X-00847Y-03093*
X-00847Y-03086*
X-00521Y-01305D02*
D01*
X-00521Y-01305*
X-00521Y-01305*
X-00521Y-01305*
X-00521Y-01305*
X-00521Y-01305*
X-00521Y-01305*
X-00521Y-01305*
X-00521Y-01305*
X-00521Y-01305*
X-00521Y-01305*
X-00521Y-01305*
X-00521Y-01305*
X-00521Y-01305*
X-00521Y-01305*
X-00521Y-01305*
X-00521Y-01305*
X-00521Y-01305*
X-00521Y-01305*
X-00521Y-01305*
X-00521Y-01305*
X-00522Y-01305*
X-00522Y-01305*
X-00522*
Y-01338D02*
D01*
X-00522Y-01338*
X-00521Y-01338*
X-00521Y-01338*
X-00521Y-01338*
X-00521Y-01338*
X-00521Y-01338*
X-00521Y-01338*
X-00521Y-01338*
X-00521Y-01338*
X-00521Y-01338*
X-00521Y-01338*
X-00521Y-01338*
X-00521Y-01338*
X-00521Y-01338*
X-00521Y-01338*
X-00521Y-01338*
X-00521Y-01338*
X-00521Y-01338*
X-00521Y-01338*
X-00521Y-01338*
X-00521Y-01338*
X-00521Y-01338*
Y-01338*
X-00584Y-01305D02*
D01*
X-00584Y-01305*
X-00584Y-01305*
X-00584Y-01305*
X-00584Y-01305*
X-00584Y-01305*
X-00584Y-01305*
X-00584Y-01305*
X-00584Y-01305*
X-00584Y-01305*
X-00584Y-01305*
X-00584Y-01305*
X-00584Y-01305*
X-00584Y-01305*
X-00584Y-01305*
X-00584Y-01305*
X-00584Y-01305*
X-00584Y-01305*
X-00584Y-01305*
X-00584Y-01305*
X-00584Y-01305*
X-00584Y-01305*
X-00584Y-01305*
Y-01305*
Y-01338D02*
D01*
X-00584Y-01338*
X-00584Y-01338*
X-00584Y-01338*
X-00584Y-01338*
X-00584Y-01338*
X-00584Y-01338*
X-00584Y-01338*
X-00584Y-01338*
X-00584Y-01338*
X-00584Y-01338*
X-00584Y-01338*
X-00584Y-01338*
X-00584Y-01338*
X-00584Y-01338*
X-00584Y-01338*
X-00584Y-01338*
X-00584Y-01338*
X-00584Y-01338*
X-00584Y-01338*
X-00584Y-01338*
X-00584Y-01338*
X-00584Y-01338*
X-00584*
X-00536Y-01181D02*
D01*
X-00536Y-01181*
X-00536Y-01181*
X-00536Y-01181*
X-00536Y-01181*
X-00536Y-01181*
X-00536Y-01181*
X-00536Y-01181*
X-00536Y-01181*
X-00536Y-01181*
X-00536Y-01181*
X-00536Y-01181*
X-00536Y-01181*
X-00536Y-01182*
X-00536Y-01182*
X-00536Y-01182*
X-00536Y-01182*
X-00536Y-01182*
X-00536Y-01182*
X-00536Y-01182*
X-00536Y-01182*
X-00536Y-01182*
X-00536Y-01182*
X-00536*
Y-01148D02*
D01*
X-00536Y-01148*
X-00536Y-01148*
X-00536Y-01148*
X-00536Y-01148*
X-00536Y-01148*
X-00536Y-01148*
X-00536Y-01148*
X-00536Y-01148*
X-00536Y-01148*
X-00536Y-01148*
X-00536Y-01148*
X-00536Y-01148*
X-00536Y-01148*
X-00536Y-01148*
X-00536Y-01148*
X-00536Y-01148*
X-00536Y-01148*
X-00536Y-01148*
X-00536Y-01148*
X-00536Y-01148*
X-00536Y-01148*
X-00536Y-01149*
Y-01149*
X-00473Y-01182D02*
D01*
X-00473Y-01182*
X-00473Y-01182*
X-00473Y-01182*
X-00473Y-01182*
X-00473Y-01182*
X-00473Y-01182*
X-00473Y-01182*
X-00473Y-01182*
X-00473Y-01182*
X-00473Y-01181*
X-00473Y-01181*
X-00473Y-01181*
X-00473Y-01181*
X-00473Y-01181*
X-00473Y-01181*
X-00473Y-01181*
X-00473Y-01181*
X-00473Y-01181*
X-00473Y-01181*
X-00473Y-01181*
X-00473Y-01181*
X-00473Y-01181*
Y-01181*
Y-01149D02*
D01*
X-00473Y-01148*
X-00473Y-01148*
X-00473Y-01148*
X-00473Y-01148*
X-00473Y-01148*
X-00473Y-01148*
X-00473Y-01148*
X-00473Y-01148*
X-00473Y-01148*
X-00473Y-01148*
X-00473Y-01148*
X-00473Y-01148*
X-00473Y-01148*
X-00473Y-01148*
X-00473Y-01148*
X-00473Y-01148*
X-00473Y-01148*
X-00473Y-01148*
X-00473Y-01148*
X-00473Y-01148*
X-00473Y-01148*
X-00473Y-01148*
X-00473*
X-00391Y-01984D02*
D01*
X-00391Y-01984*
X-00391Y-01984*
X-00391Y-01984*
X-00391Y-01984*
X-00391Y-01984*
X-00391Y-01985*
X-00391Y-01985*
X-00391Y-01985*
X-00391Y-01985*
X-00391Y-01985*
X-00391Y-01985*
X-00391Y-01985*
X-00391Y-01985*
X-00391Y-01985*
X-00391Y-01985*
X-00391Y-01985*
X-00391Y-01985*
X-00391Y-01985*
X-00391Y-01985*
X-00391Y-01985*
X-00391Y-01985*
X-00391Y-01985*
X-00391Y-01985*
Y-01951D02*
D01*
X-00391Y-01951*
X-00391Y-01951*
X-00391Y-01951*
X-00391Y-01951*
X-00391Y-01951*
X-00391Y-01951*
X-00391Y-01951*
X-00391Y-01951*
X-00391Y-01951*
X-00391Y-01951*
X-00391Y-01951*
X-00391Y-01951*
X-00391Y-01951*
X-00391Y-01951*
X-00391Y-01951*
X-00391Y-01951*
X-00391Y-01952*
X-00391Y-01952*
X-00391Y-01952*
X-00391Y-01952*
X-00391Y-01952*
X-00391Y-01952*
Y-01952*
X-00329Y-01985D02*
D01*
X-00329Y-01985*
X-00329Y-01985*
X-00329Y-01985*
X-00329Y-01985*
X-00328Y-01985*
X-00328Y-01985*
X-00328Y-01985*
X-00328Y-01985*
X-00328Y-01985*
X-00328Y-01985*
X-00328Y-01985*
X-00328Y-01985*
X-00328Y-01985*
X-00328Y-01985*
X-00328Y-01985*
X-00328Y-01985*
X-00328Y-01984*
X-00328Y-01984*
X-00328Y-01984*
X-00328Y-01984*
X-00328Y-01984*
X-00328Y-01984*
Y-01984*
Y-01952D02*
D01*
X-00328Y-01952*
X-00328Y-01952*
X-00328Y-01952*
X-00328Y-01952*
X-00328Y-01952*
X-00328Y-01952*
X-00328Y-01951*
X-00328Y-01951*
X-00328Y-01951*
X-00328Y-01951*
X-00328Y-01951*
X-00328Y-01951*
X-00328Y-01951*
X-00328Y-01951*
X-00328Y-01951*
X-00328Y-01951*
X-00328Y-01951*
X-00329Y-01951*
X-00329Y-01951*
X-00329Y-01951*
X-00329Y-01951*
X-00329Y-01951*
X-00329*
X-0061Y-01584D02*
Y-01552D01*
X-00598Y-01585D02*
Y-01551D01*
X-00558Y-01585D02*
Y-01551D01*
X-00547Y-01584D02*
Y-01552D01*
X-00609Y-01585D02*
X-00547D01*
X-00609Y-01551D02*
X-00547D01*
X-00753Y-02625D02*
Y-02617D01*
Y-02601D02*
Y-02593D01*
X-0069Y-02625D02*
Y-02617D01*
Y-02601D02*
Y-02593D01*
X-0074Y-02625D02*
Y-02593D01*
X-00742Y-02625D02*
Y-02593D01*
X-00703Y-02625D02*
Y-02593D01*
X-00702Y-02625D02*
Y-02593D01*
X-00753Y-02625D02*
X-0069D01*
X-00753Y-02593D02*
X-0069D01*
X-00753Y-02728D02*
Y-0272D01*
Y-02704D02*
Y-02696D01*
X-0069Y-02728D02*
Y-0272D01*
Y-02704D02*
Y-02696D01*
X-0074Y-02728D02*
Y-02696D01*
X-00742Y-02728D02*
Y-02696D01*
X-00703Y-02728D02*
Y-02696D01*
X-00702Y-02728D02*
Y-02696D01*
X-00753Y-02728D02*
X-0069D01*
X-00753Y-02696D02*
X-0069D01*
X-00753Y-02676D02*
Y-02668D01*
Y-02652D02*
Y-02644D01*
X-0069Y-02676D02*
Y-02668D01*
Y-02652D02*
Y-02644D01*
X-0074Y-02676D02*
Y-02644D01*
X-00742Y-02676D02*
Y-02644D01*
X-00703Y-02676D02*
Y-02644D01*
X-00702Y-02676D02*
Y-02644D01*
X-00753Y-02676D02*
X-0069D01*
X-00753Y-02644D02*
X-0069D01*
X-00635Y-02677D02*
X-00573D01*
X-00635Y-02643D02*
X-00573D01*
X-00635Y-02676D02*
Y-02644D01*
X-00624Y-02677D02*
Y-02643D01*
X-00584Y-02677D02*
Y-02643D01*
X-00572Y-02676D02*
Y-02644D01*
X-00635Y-02626D02*
X-00573D01*
X-00635Y-02592D02*
X-00573D01*
X-00635Y-02626D02*
Y-02593D01*
X-00624Y-02626D02*
Y-02592D01*
X-00584Y-02626D02*
Y-02592D01*
X-00572Y-02626D02*
Y-02593D01*
X-00635Y-02729D02*
X-00573D01*
X-00635Y-02695D02*
X-00573D01*
X-00635Y-02728D02*
Y-02696D01*
X-00624Y-02729D02*
Y-02695D01*
X-00584Y-02729D02*
Y-02695D01*
X-00572Y-02728D02*
Y-02696D01*
X-0111Y-01206D02*
X-01078D01*
X-01111Y-01218D02*
X-01077D01*
X-01111Y-01258D02*
X-01077D01*
X-0111Y-01269D02*
X-01078D01*
X-01111Y-01269D02*
Y-01207D01*
X-01077Y-01269D02*
Y-01207D01*
X-01444Y-00111D02*
X-0139D01*
X-01444Y-00203D02*
X-0139D01*
X-0147Y-00157D02*
X-01444Y-00203D01*
X-0139D02*
X-01364Y-00157D01*
X-0147D02*
X-01444Y-00111D01*
X-0139D02*
X-01364Y-00157D01*
X-00926Y-0304D02*
X-009Y-03086D01*
X-01006D02*
X-0098Y-0304D01*
X-00926Y-03132D02*
X-009Y-03086D01*
X-01006D02*
X-0098Y-03132D01*
X-00926*
X-0098Y-0304D02*
X-00926D01*
X-00584Y-01305D02*
X-00522D01*
X-00584Y-01338D02*
X-00522D01*
X-00521Y-01338D02*
Y-01305D01*
X-00533Y-01338D02*
Y-01305D01*
X-00573Y-01338D02*
Y-01305D01*
X-00584Y-01338D02*
Y-01305D01*
X-00063Y-01377D02*
Y-01345D01*
X-00094Y-01377D02*
Y-01345D01*
X-00094Y-01393D02*
Y-01377D01*
X-00062*
Y-01393D02*
Y-01377D01*
X-00094Y-01393D02*
X-00062D01*
X-00094Y-01345D02*
Y-0133D01*
Y-01345D02*
X-00062D01*
Y-0133*
X-00094D02*
X-00062D01*
X-00536Y-01181D02*
Y-01149D01*
X-00525Y-01182D02*
Y-01148D01*
X-00484Y-01182D02*
Y-01148D01*
X-00473Y-01181D02*
Y-01149D01*
X-00536Y-01182D02*
X-00473D01*
X-00536Y-01148D02*
X-00473D01*
X-00391Y-01984D02*
Y-01952D01*
X-0038Y-01985D02*
Y-01951D01*
X-0034Y-01985D02*
Y-01951D01*
X-00328Y-01984D02*
Y-01952D01*
X-00391Y-01985D02*
X-00329D01*
X-00391Y-01951D02*
X-00329D01*
M02*