%FSTAX23Y23*%
%MOIN*%
%SFA1B1*%

%IPPOS*%
%ADD10C,0.007874*%
%ADD11C,0.005905*%
%ADD12C,0.010000*%
%ADD13C,0.003937*%
%LNmicrophonearray.main-1*%
%LPD*%
G36*
X-00665Y-01866D02*
Y-01748D01*
X-00645*
Y-01866*
X-00665*
G37*
G36*
X-00627Y-00677D02*
X-00509D01*
Y-00697*
X-00627*
Y-00677*
G37*
G36*
X-01489Y-01259D02*
X-01494D01*
Y-01254*
X-01489*
Y-01259*
G37*
G36*
X-01514Y-01253D02*
X-01514Y-01253D01*
X-01513Y-01253*
X-01513Y-01254*
X-01512Y-01254*
X-0151Y-01254*
X-01509Y-01254*
X-01508Y-01255*
X-01507Y-01255*
X-01506Y-01256*
X-01506Y-01256*
X-01506Y-01256*
X-01505Y-01256*
X-01505Y-01256*
X-01505Y-01257*
X-01505Y-01257*
X-01504Y-01257*
X-01504Y-01258*
X-01503Y-01258*
X-01503Y-01259*
X-01503Y-01259*
X-01502Y-0126*
X-01502Y-01261*
X-01501Y-01262*
X-01501Y-01262*
X-01501Y-01263*
X-015Y-01264*
X-01505Y-01265*
Y-01265*
X-01505Y-01265*
X-01505Y-01265*
X-01505Y-01265*
X-01506Y-01264*
X-01506Y-01264*
X-01506Y-01263*
X-01507Y-01262*
X-01507Y-01261*
X-01508Y-0126*
X-01509Y-01259*
X-01509Y-01259*
X-01509Y-01259*
X-0151Y-01259*
X-01511Y-01258*
X-01512Y-01258*
X-01513Y-01258*
X-01514Y-01258*
X-01515Y-01258*
X-01516*
X-01516Y-01258*
X-01516*
X-01517Y-01258*
X-01518Y-01258*
X-01519Y-01258*
X-0152Y-01258*
X-01521Y-01259*
X-01523Y-0126*
X-01523*
X-01523Y-0126*
X-01523Y-0126*
X-01524Y-0126*
X-01524Y-01261*
X-01525Y-01262*
X-01526Y-01263*
X-01526Y-01264*
X-01527Y-01265*
Y-01265*
X-01527Y-01265*
X-01527Y-01266*
X-01527Y-01266*
X-01527Y-01266*
X-01527Y-01267*
X-01527Y-01268*
X-01527Y-01269*
X-01528Y-0127*
X-01528Y-01271*
X-01528Y-01273*
Y-01273*
Y-01273*
Y-01273*
Y-01273*
X-01528Y-01274*
Y-01274*
X-01528Y-01275*
X-01528Y-01275*
X-01528Y-01277*
X-01527Y-01278*
X-01527Y-0128*
X-01526Y-01281*
Y-01281*
X-01526Y-01281*
X-01526Y-01281*
X-01526Y-01282*
X-01526Y-01282*
X-01525Y-01283*
X-01525Y-01284*
X-01524Y-01285*
X-01523Y-01286*
X-01522Y-01286*
X-01522*
X-01522Y-01286*
X-01522Y-01287*
X-01522Y-01287*
X-01521Y-01287*
X-01521Y-01287*
X-0152Y-01287*
X-01519Y-01288*
X-01518Y-01288*
X-01517Y-01288*
X-01516Y-01288*
X-01515*
X-01515Y-01288*
X-01515*
X-01514Y-01288*
X-01513Y-01288*
X-01512Y-01288*
X-01511Y-01287*
X-0151Y-01286*
X-01509Y-01286*
X-01509Y-01286*
X-01509Y-01286*
X-01508Y-01286*
X-01508Y-01285*
X-01508Y-01285*
X-01508Y-01285*
X-01508Y-01285*
X-01507Y-01284*
X-01507Y-01284*
X-01507Y-01283*
X-01506Y-01283*
X-01506Y-01282*
X-01506Y-01282*
X-01505Y-01281*
X-01505Y-0128*
X-01505Y-01279*
X-01505Y-01279*
X-015Y-0128*
Y-0128*
X-015Y-0128*
X-015Y-0128*
X-015Y-01281*
X-015Y-01281*
X-015Y-01282*
X-01501Y-01283*
X-01501Y-01283*
X-01502Y-01285*
X-01503Y-01286*
X-01503Y-01287*
X-01504Y-01288*
X-01504Y-01289*
X-01505Y-01289*
X-01505Y-01289*
X-01505Y-01289*
X-01506Y-01289*
X-01506Y-0129*
X-01506Y-0129*
X-01507Y-0129*
X-01507Y-0129*
X-01508Y-01291*
X-01509Y-01291*
X-01509Y-01291*
X-0151Y-01292*
X-01511Y-01292*
X-01512Y-01292*
X-01513Y-01292*
X-01514Y-01292*
X-01515Y-01292*
X-01516*
X-01516Y-01292*
X-01517*
X-01517Y-01292*
X-01518Y-01292*
X-01519Y-01292*
X-0152Y-01292*
X-01522Y-01291*
X-01524Y-01291*
X-01524Y-0129*
X-01525Y-0129*
X-01525Y-0129*
X-01525Y-0129*
X-01526Y-0129*
X-01526Y-01289*
X-01526Y-01289*
X-01526Y-01289*
X-01527Y-01289*
X-01527Y-01288*
X-01528Y-01288*
X-01528Y-01287*
X-01529Y-01286*
X-0153Y-01284*
X-01531Y-01283*
Y-01283*
X-01531Y-01282*
X-01531Y-01282*
X-01531Y-01282*
X-01531Y-01281*
X-01532Y-01281*
X-01532Y-0128*
X-01532Y-0128*
X-01532Y-01279*
X-01532Y-01278*
X-01533Y-01276*
X-01533Y-01275*
X-01533Y-01273*
Y-01273*
Y-01272*
Y-01272*
X-01533Y-01272*
Y-01271*
X-01533Y-0127*
X-01533Y-0127*
X-01533Y-01269*
X-01532Y-01267*
X-01532Y-01266*
X-01531Y-01264*
X-01531Y-01262*
X-01531Y-01262*
X-01531Y-01262*
X-01531Y-01262*
X-0153Y-01262*
X-0153Y-01261*
X-0153Y-01261*
X-01529Y-0126*
X-01528Y-01259*
X-01527Y-01258*
X-01526Y-01257*
X-01524Y-01256*
X-01524Y-01256*
X-01524Y-01255*
X-01524Y-01255*
X-01524Y-01255*
X-01523Y-01255*
X-01523Y-01255*
X-01522Y-01255*
X-01522Y-01254*
X-01521Y-01254*
X-0152Y-01254*
X-01519Y-01254*
X-01517Y-01253*
X-01515Y-01253*
X-01515*
X-01514Y-01253*
G37*
G36*
X-01278Y-01264D02*
X-01277Y-01264D01*
X-01276Y-01264*
X-01276Y-01264*
X-01275Y-01265*
X-01274Y-01265*
X-01275Y-01269*
X-01275Y-01269*
X-01276Y-01269*
X-01276Y-01269*
X-01276Y-01269*
X-01277Y-01269*
X-01278Y-01269*
X-01278Y-01269*
X-01279Y-01269*
X-01279*
X-01279Y-01269*
X-0128Y-01269*
X-0128Y-01269*
X-01281Y-01269*
X-01281Y-01269*
X-01281Y-01269*
X-01282Y-01269*
X-01282Y-0127*
X-01282Y-0127*
X-01282Y-0127*
X-01282Y-0127*
X-01283Y-01271*
X-01283Y-01271*
X-01283Y-01272*
X-01283Y-01272*
X-01283Y-01272*
X-01283Y-01273*
X-01284Y-01274*
X-01284Y-01274*
X-01284Y-01275*
X-01284Y-01276*
X-01284Y-01277*
Y-01292*
X-01289*
Y-01264*
X-01284*
Y-01268*
X-01284Y-01268*
X-01284Y-01268*
X-01284Y-01268*
X-01283Y-01267*
X-01283Y-01266*
X-01282Y-01266*
X-01282Y-01265*
X-01281Y-01265*
X-01281Y-01265*
X-01281Y-01265*
X-01281Y-01264*
X-01281Y-01264*
X-0128Y-01264*
X-0128Y-01264*
X-01279Y-01264*
X-01278Y-01264*
X-01278*
X-01278Y-01264*
G37*
G36*
X-01295D02*
X-01295Y-01264D01*
X-01294Y-01264*
X-01293Y-01264*
X-01292Y-01265*
X-01291Y-01265*
X-01293Y-01269*
X-01293Y-01269*
X-01293Y-01269*
X-01294Y-01269*
X-01294Y-01269*
X-01295Y-01269*
X-01295Y-01269*
X-01296Y-01269*
X-01296Y-01269*
X-01297*
X-01297Y-01269*
X-01297Y-01269*
X-01298Y-01269*
X-01298Y-01269*
X-01299Y-01269*
X-01299Y-01269*
X-01299Y-01269*
X-01299Y-0127*
X-01299Y-0127*
X-013Y-0127*
X-013Y-0127*
X-013Y-01271*
X-01301Y-01271*
X-01301Y-01272*
X-01301Y-01272*
X-01301Y-01272*
X-01301Y-01273*
X-01301Y-01274*
X-01301Y-01274*
X-01301Y-01275*
X-01301Y-01276*
X-01302Y-01277*
Y-01292*
X-01306*
Y-01264*
X-01302*
Y-01268*
X-01302Y-01268*
X-01302Y-01268*
X-01301Y-01268*
X-01301Y-01267*
X-01301Y-01266*
X-013Y-01266*
X-013Y-01265*
X-01299Y-01265*
X-01299Y-01265*
X-01299Y-01265*
X-01299Y-01264*
X-01298Y-01264*
X-01298Y-01264*
X-01297Y-01264*
X-01297Y-01264*
X-01296Y-01264*
X-01296*
X-01295Y-01264*
G37*
G36*
X-01357D02*
X-01356Y-01264D01*
X-01356Y-01264*
X-01355Y-01264*
X-01354Y-01265*
X-01353Y-01265*
X-01355Y-01269*
X-01355Y-01269*
X-01355Y-01269*
X-01355Y-01269*
X-01356Y-01269*
X-01356Y-01269*
X-01357Y-01269*
X-01357Y-01269*
X-01358Y-01269*
X-01358*
X-01359Y-01269*
X-01359Y-01269*
X-01359Y-01269*
X-0136Y-01269*
X-0136Y-01269*
X-01361Y-01269*
X-01361Y-01269*
X-01361Y-0127*
X-01361Y-0127*
X-01361Y-0127*
X-01362Y-0127*
X-01362Y-01271*
X-01362Y-01271*
X-01362Y-01272*
X-01362Y-01272*
X-01363Y-01272*
X-01363Y-01273*
X-01363Y-01274*
X-01363Y-01274*
X-01363Y-01275*
X-01363Y-01276*
X-01363Y-01277*
Y-01292*
X-01368*
Y-01264*
X-01364*
Y-01268*
X-01364Y-01268*
X-01363Y-01268*
X-01363Y-01268*
X-01363Y-01267*
X-01362Y-01266*
X-01362Y-01266*
X-01361Y-01265*
X-01361Y-01265*
X-01361Y-01265*
X-0136Y-01265*
X-0136Y-01264*
X-0136Y-01264*
X-01359Y-01264*
X-01359Y-01264*
X-01358Y-01264*
X-01358Y-01264*
X-01357*
X-01357Y-01264*
G37*
G36*
X-01471D02*
X-01471Y-01264D01*
X-0147Y-01264*
X-01469Y-01264*
X-01468Y-01265*
X-01467Y-01265*
X-01469Y-01269*
X-01469Y-01269*
X-01469Y-01269*
X-0147Y-01269*
X-0147Y-01269*
X-01471Y-01269*
X-01471Y-01269*
X-01472Y-01269*
X-01472Y-01269*
X-01473*
X-01473Y-01269*
X-01473Y-01269*
X-01474Y-01269*
X-01474Y-01269*
X-01475Y-01269*
X-01475Y-01269*
X-01475Y-01269*
X-01475Y-0127*
X-01476Y-0127*
X-01476Y-0127*
X-01476Y-0127*
X-01476Y-01271*
X-01477Y-01271*
X-01477Y-01272*
X-01477Y-01272*
X-01477Y-01272*
X-01477Y-01273*
X-01477Y-01274*
X-01477Y-01274*
X-01478Y-01275*
X-01478Y-01276*
X-01478Y-01277*
Y-01292*
X-01482*
Y-01264*
X-01478*
Y-01268*
X-01478Y-01268*
X-01478Y-01268*
X-01478Y-01268*
X-01477Y-01267*
X-01477Y-01266*
X-01476Y-01266*
X-01476Y-01265*
X-01475Y-01265*
X-01475Y-01265*
X-01475Y-01265*
X-01475Y-01264*
X-01474Y-01264*
X-01474Y-01264*
X-01473Y-01264*
X-01473Y-01264*
X-01472Y-01264*
X-01472*
X-01471Y-01264*
G37*
G36*
X-01453D02*
X-01452D01*
X-01452Y-01264*
X-01451Y-01264*
X-0145Y-01264*
X-01449Y-01265*
X-01447Y-01265*
X-01446Y-01266*
X-01446*
X-01446Y-01266*
X-01446Y-01266*
X-01445Y-01267*
X-01445Y-01268*
X-01444Y-01269*
X-01444Y-0127*
X-01443Y-01271*
X-01443Y-01272*
X-01447Y-01273*
Y-01273*
X-01447Y-01273*
X-01447Y-01273*
X-01447Y-01272*
X-01448Y-01272*
X-01448Y-01271*
X-01448Y-0127*
X-01449Y-01269*
X-01449Y-01269*
X-0145Y-01269*
X-0145Y-01269*
X-0145Y-01269*
X-01451Y-01268*
X-01451Y-01268*
X-01452Y-01268*
X-01453Y-01268*
X-01453Y-01268*
X-01454*
X-01454Y-01268*
X-01455Y-01268*
X-01455Y-01268*
X-01456Y-01268*
X-01457Y-01269*
X-01458Y-01269*
X-01459Y-0127*
X-01459Y-0127*
Y-0127*
X-01459Y-0127*
X-01459Y-0127*
X-01459Y-01271*
X-0146Y-01271*
X-0146Y-01271*
X-0146Y-01272*
X-0146Y-01272*
X-0146Y-01273*
X-01461Y-01273*
X-01461Y-01274*
X-01461Y-01274*
X-01461Y-01275*
X-01461Y-01276*
X-01461Y-01277*
Y-01278*
Y-01278*
Y-01278*
Y-01279*
X-01461Y-01279*
Y-01279*
X-01461Y-0128*
X-01461Y-01281*
X-01461Y-01282*
X-0146Y-01284*
X-0146Y-01285*
X-0146Y-01286*
X-01459Y-01286*
X-01459Y-01286*
X-01459Y-01286*
X-01458Y-01287*
X-01458Y-01287*
X-01457Y-01288*
X-01456Y-01288*
X-01455Y-01288*
X-01454Y-01288*
X-01454Y-01289*
X-01454*
X-01453Y-01288*
X-01453Y-01288*
X-01452Y-01288*
X-01451Y-01288*
X-01451Y-01288*
X-0145Y-01287*
X-01449Y-01287*
X-01449Y-01287*
X-01449Y-01287*
X-01449Y-01286*
X-01448Y-01286*
X-01448Y-01285*
X-01447Y-01284*
X-01447Y-01283*
X-01447Y-01282*
X-01442Y-01282*
Y-01282*
X-01442Y-01282*
X-01442Y-01283*
X-01442Y-01283*
X-01442Y-01283*
X-01443Y-01284*
X-01443Y-01285*
X-01443Y-01286*
X-01444Y-01287*
X-01445Y-01289*
X-01446Y-01289*
X-01446Y-0129*
X-01446Y-0129*
X-01446Y-0129*
X-01446Y-0129*
X-01447Y-0129*
X-01447Y-0129*
X-01447Y-01291*
X-01448Y-01291*
X-01448Y-01291*
X-01449Y-01292*
X-01451Y-01292*
X-01452Y-01292*
X-01453Y-01292*
X-01454Y-01292*
X-01454*
X-01455Y-01292*
X-01455Y-01292*
X-01456Y-01292*
X-01456Y-01292*
X-01457Y-01292*
X-01458Y-01291*
X-01459Y-01291*
X-0146Y-01291*
X-01461Y-0129*
X-01461Y-0129*
X-01462Y-01289*
X-01463Y-01289*
X-01463Y-01289*
X-01463Y-01289*
X-01463Y-01288*
X-01463Y-01288*
X-01463Y-01288*
X-01464Y-01287*
X-01464Y-01287*
X-01464Y-01286*
X-01465Y-01285*
X-01465Y-01284*
X-01465Y-01284*
X-01465Y-01283*
X-01466Y-01282*
X-01466Y-01281*
X-01466Y-01279*
X-01466Y-01278*
Y-01278*
Y-01278*
Y-01278*
Y-01277*
X-01466Y-01277*
Y-01277*
X-01466Y-01276*
X-01466Y-01276*
X-01466Y-01274*
X-01465Y-01273*
X-01465Y-01272*
X-01465Y-0127*
Y-0127*
X-01465Y-0127*
X-01464Y-0127*
X-01464Y-0127*
X-01464Y-01269*
X-01464Y-01269*
X-01463Y-01268*
X-01462Y-01267*
X-01461Y-01266*
X-0146Y-01265*
X-0146*
X-0146Y-01265*
X-0146Y-01265*
X-0146Y-01265*
X-01459Y-01265*
X-01459Y-01265*
X-01458Y-01265*
X-01457Y-01264*
X-01456Y-01264*
X-01455Y-01264*
X-01454Y-01264*
X-01453*
X-01453Y-01264*
G37*
G36*
X-0123Y-01292D02*
Y-01292D01*
X-0123Y-01292*
X-0123Y-01293*
X-0123Y-01293*
X-0123Y-01293*
X-0123Y-01294*
X-01231Y-01295*
X-01231Y-01296*
X-01231Y-01297*
X-01232Y-01298*
X-01232Y-01298*
X-01232Y-01298*
X-01232Y-01298*
X-01232Y-01299*
X-01233Y-01299*
X-01233Y-013*
X-01233Y-013*
X-01234Y-01301*
X-01234Y-01301*
X-01235Y-01302*
X-01235Y-01302*
X-01235Y-01302*
X-01236Y-01302*
X-01236Y-01302*
X-01237Y-01302*
X-01237Y-01303*
X-01238Y-01303*
X-01239Y-01303*
X-01239*
X-01239Y-01303*
X-0124*
X-0124Y-01303*
X-01241Y-01303*
X-01241Y-01302*
X-01242Y-01302*
X-01242Y-01298*
X-01242*
X-01242Y-01298*
X-01242Y-01298*
X-01241Y-01298*
X-01241Y-01298*
X-0124Y-01298*
X-01239*
X-01239Y-01298*
X-01239*
X-01238Y-01298*
X-01238Y-01298*
X-01237Y-01298*
X-01237*
X-01237Y-01298*
X-01237Y-01298*
X-01237Y-01297*
X-01236Y-01297*
X-01236Y-01296*
Y-01296*
X-01236Y-01296*
X-01236Y-01296*
X-01235Y-01296*
X-01235Y-01295*
X-01235Y-01295*
X-01235Y-01294*
X-01234Y-01293*
Y-01293*
X-01234Y-01293*
X-01234Y-01292*
X-01234Y-01292*
X-01244Y-01264*
X-01239*
X-01234Y-0128*
Y-0128*
X-01234Y-0128*
X-01233Y-0128*
X-01233Y-01281*
X-01233Y-01281*
X-01233Y-01281*
X-01233Y-01282*
X-01233Y-01283*
X-01232Y-01284*
X-01232Y-01285*
X-01232Y-01287*
Y-01286*
X-01232Y-01286*
X-01232Y-01286*
X-01231Y-01286*
X-01231Y-01286*
X-01231Y-01285*
X-01231Y-01285*
X-01231Y-01284*
X-0123Y-01283*
X-0123Y-01281*
X-0123Y-0128*
X-01224Y-01264*
X-01219*
X-0123Y-01292*
G37*
G36*
X-01416Y-01292D02*
X-0142D01*
Y-01288*
X-0142Y-01288*
X-0142Y-01288*
X-01421Y-01288*
X-01421Y-01288*
X-01421Y-01289*
X-01422Y-01289*
X-01422Y-0129*
X-01423Y-0129*
X-01423Y-0129*
X-01424Y-01291*
X-01425Y-01291*
X-01425Y-01292*
X-01426Y-01292*
X-01427Y-01292*
X-01428Y-01292*
X-01429Y-01292*
X-01429*
X-0143Y-01292*
X-0143Y-01292*
X-01431Y-01292*
X-01432Y-01292*
X-01433Y-01292*
X-01434Y-01291*
X-01434Y-01291*
X-01434Y-01291*
X-01434Y-01291*
X-01435Y-01291*
X-01435Y-0129*
X-01436Y-0129*
X-01436Y-0129*
X-01437Y-01289*
X-01437Y-01289*
X-01437Y-01289*
X-01437Y-01289*
X-01437Y-01288*
X-01437Y-01288*
X-01438Y-01287*
X-01438Y-01286*
X-01438Y-01286*
Y-01286*
X-01438Y-01285*
X-01438Y-01285*
Y-01285*
X-01438Y-01284*
X-01438Y-01283*
X-01438Y-01282*
Y-01281*
Y-01264*
X-01434*
Y-0128*
Y-0128*
Y-0128*
Y-0128*
Y-0128*
Y-01281*
X-01434Y-01282*
Y-01282*
X-01434Y-01283*
X-01434Y-01284*
X-01433Y-01284*
Y-01285*
X-01433Y-01285*
X-01433Y-01285*
X-01433Y-01285*
X-01433Y-01286*
X-01432Y-01286*
X-01432Y-01287*
X-01432Y-01287*
X-01432Y-01287*
X-01431Y-01287*
X-01431Y-01288*
X-01431Y-01288*
X-0143Y-01288*
X-01429Y-01288*
X-01429Y-01288*
X-01428Y-01288*
X-01428*
X-01427Y-01288*
X-01427Y-01288*
X-01426Y-01288*
X-01426Y-01288*
X-01425Y-01288*
X-01424Y-01287*
X-01424Y-01287*
X-01424Y-01287*
X-01423Y-01287*
X-01423Y-01287*
X-01423Y-01286*
X-01422Y-01286*
X-01422Y-01285*
X-01422Y-01284*
X-01421Y-01284*
X-01421Y-01284*
X-01421Y-01284*
X-01421Y-01283*
X-01421Y-01282*
X-01421Y-01281*
X-01421Y-0128*
X-01421Y-01279*
Y-01264*
X-01416*
Y-01292*
G37*
G36*
X-01258Y-01264D02*
X-01257Y-01264D01*
X-01256Y-01264*
X-01255Y-01264*
X-01255Y-01264*
X-01254Y-01265*
X-01254Y-01265*
X-01253Y-01265*
X-01253Y-01265*
X-01252Y-01265*
X-01252Y-01265*
X-01251Y-01266*
X-01251Y-01266*
X-0125Y-01267*
X-0125Y-01267*
X-0125Y-01267*
X-0125Y-01267*
X-0125Y-01267*
X-0125Y-01268*
X-01249Y-01268*
X-01249Y-01269*
X-01249Y-0127*
Y-0127*
X-01249Y-0127*
X-01249Y-0127*
X-01249Y-01271*
Y-01271*
X-01249Y-01272*
X-01249Y-01273*
Y-01274*
Y-0128*
Y-0128*
Y-01281*
Y-01281*
Y-01281*
Y-01282*
Y-01282*
X-01249Y-01284*
Y-01285*
X-01249Y-01286*
X-01249Y-01287*
Y-01288*
X-01249Y-01288*
X-01248Y-01288*
Y-01289*
X-01248Y-01289*
X-01248Y-01289*
X-01248Y-01289*
X-01248Y-0129*
X-01248Y-01291*
X-01248Y-01291*
X-01247Y-01292*
X-01252*
X-01252Y-01292*
X-01252Y-01291*
X-01252Y-01291*
X-01253Y-01291*
X-01253Y-0129*
X-01253Y-0129*
X-01253Y-01289*
X-01253Y-01288*
X-01253*
X-01253Y-01288*
X-01253Y-01289*
X-01254Y-01289*
X-01255Y-0129*
X-01255Y-0129*
X-01256Y-01291*
X-01257Y-01291*
X-01258Y-01291*
X-01258Y-01292*
X-01258Y-01292*
X-01259Y-01292*
X-0126Y-01292*
X-0126Y-01292*
X-01261Y-01292*
X-01262Y-01292*
X-01263Y-01292*
X-01264*
X-01264Y-01292*
X-01264*
X-01265Y-01292*
X-01266Y-01292*
X-01267Y-01292*
X-01268Y-01291*
X-01269Y-01291*
X-0127Y-0129*
X-0127Y-0129*
X-01271Y-0129*
X-01271Y-01289*
X-01271Y-01289*
X-01272Y-01288*
X-01272Y-01287*
X-01272Y-01286*
X-01272Y-01285*
X-01273Y-01285*
Y-01284*
Y-01284*
X-01272Y-01284*
X-01272Y-01283*
X-01272Y-01283*
X-01272Y-01282*
X-01272Y-01281*
X-01272Y-01281*
X-01272Y-01281*
X-01271Y-01281*
X-01271Y-0128*
X-01271Y-0128*
X-01271Y-01279*
X-0127Y-01279*
X-0127Y-01279*
X-01269Y-01278*
X-01269Y-01278*
X-01269Y-01278*
X-01269Y-01278*
X-01268Y-01278*
X-01268Y-01277*
X-01267Y-01277*
X-01267Y-01277*
X-01266Y-01277*
X-01266*
X-01266Y-01277*
X-01265Y-01276*
X-01265Y-01276*
X-01264Y-01276*
X-01264Y-01276*
X-01263Y-01276*
X-01262Y-01276*
X-01262*
X-01261Y-01276*
X-01261*
X-01261Y-01276*
X-0126Y-01276*
X-0126Y-01276*
X-01259Y-01276*
X-01259Y-01276*
X-01257Y-01275*
X-01256Y-01275*
X-01255Y-01275*
X-01254Y-01274*
X-01253Y-01274*
Y-01274*
Y-01274*
X-01253Y-01274*
Y-01273*
Y-01273*
Y-01273*
Y-01273*
Y-01273*
Y-01273*
X-01253Y-01272*
X-01254Y-01272*
X-01254Y-01271*
X-01254Y-0127*
X-01254Y-0127*
X-01255Y-01269*
X-01255Y-01269*
X-01255Y-01269*
X-01256Y-01269*
X-01256Y-01268*
X-01257Y-01268*
X-01258Y-01268*
X-01259Y-01268*
X-0126Y-01268*
X-01261*
X-01261Y-01268*
X-01262Y-01268*
X-01263Y-01268*
X-01264Y-01268*
X-01264Y-01268*
X-01265Y-01269*
X-01265Y-01269*
X-01265Y-01269*
X-01265Y-01269*
X-01266Y-0127*
X-01266Y-0127*
X-01267Y-01271*
X-01267Y-01272*
X-01267Y-01273*
X-01272Y-01272*
Y-01272*
X-01272Y-01272*
Y-01272*
X-01272Y-01272*
X-01271Y-01271*
X-01271Y-0127*
X-01271Y-0127*
X-01271Y-01269*
X-0127Y-01268*
X-0127Y-01267*
X-0127Y-01267*
X-01269Y-01267*
X-01269Y-01267*
X-01269Y-01266*
X-01268Y-01266*
X-01267Y-01266*
X-01267Y-01265*
X-01266Y-01265*
X-01266*
X-01265Y-01265*
X-01265Y-01265*
X-01265Y-01265*
X-01265Y-01264*
X-01264Y-01264*
X-01263Y-01264*
X-01262Y-01264*
X-01261Y-01264*
X-01259Y-01264*
X-01259*
X-01258Y-01264*
G37*
G36*
X-01323D02*
X-01322Y-01264D01*
X-01321Y-01264*
X-0132Y-01264*
X-01319Y-01264*
X-01318Y-01265*
X-01318Y-01265*
X-01318Y-01265*
X-01317Y-01265*
X-01317Y-01265*
X-01316Y-01265*
X-01316Y-01266*
X-01315Y-01266*
X-01315Y-01267*
X-01315Y-01267*
X-01315Y-01267*
X-01315Y-01267*
X-01314Y-01267*
X-01314Y-01268*
X-01314Y-01268*
X-01314Y-01269*
X-01314Y-0127*
Y-0127*
X-01313Y-0127*
X-01313Y-0127*
X-01313Y-01271*
Y-01271*
X-01313Y-01272*
X-01313Y-01273*
Y-01274*
Y-0128*
Y-0128*
Y-01281*
Y-01281*
Y-01281*
Y-01282*
Y-01282*
X-01313Y-01284*
Y-01285*
X-01313Y-01286*
X-01313Y-01287*
Y-01288*
X-01313Y-01288*
X-01313Y-01288*
Y-01289*
X-01313Y-01289*
X-01313Y-01289*
X-01313Y-01289*
X-01313Y-0129*
X-01312Y-01291*
X-01312Y-01291*
X-01312Y-01292*
X-01317*
X-01317Y-01292*
X-01317Y-01291*
X-01317Y-01291*
X-01317Y-01291*
X-01317Y-0129*
X-01317Y-0129*
X-01317Y-01289*
X-01318Y-01288*
X-01318*
X-01318Y-01288*
X-01318Y-01289*
X-01318Y-01289*
X-01319Y-0129*
X-0132Y-0129*
X-01321Y-01291*
X-01322Y-01291*
X-01323Y-01291*
X-01323Y-01292*
X-01323Y-01292*
X-01324Y-01292*
X-01324Y-01292*
X-01325Y-01292*
X-01326Y-01292*
X-01327Y-01292*
X-01328Y-01292*
X-01328*
X-01328Y-01292*
X-01329*
X-01329Y-01292*
X-0133Y-01292*
X-01331Y-01292*
X-01333Y-01291*
X-01334Y-01291*
X-01335Y-0129*
X-01335Y-0129*
X-01335Y-0129*
X-01335Y-01289*
X-01336Y-01289*
X-01336Y-01288*
X-01337Y-01287*
X-01337Y-01286*
X-01337Y-01285*
X-01337Y-01285*
Y-01284*
Y-01284*
X-01337Y-01284*
X-01337Y-01283*
X-01337Y-01283*
X-01337Y-01282*
X-01336Y-01281*
X-01336Y-01281*
X-01336Y-01281*
X-01336Y-01281*
X-01336Y-0128*
X-01336Y-0128*
X-01335Y-01279*
X-01335Y-01279*
X-01334Y-01279*
X-01334Y-01278*
X-01334Y-01278*
X-01334Y-01278*
X-01333Y-01278*
X-01333Y-01278*
X-01332Y-01277*
X-01332Y-01277*
X-01331Y-01277*
X-0133Y-01277*
X-0133*
X-0133Y-01277*
X-0133Y-01276*
X-01329Y-01276*
X-01329Y-01276*
X-01328Y-01276*
X-01327Y-01276*
X-01326Y-01276*
X-01326*
X-01326Y-01276*
X-01326*
X-01325Y-01276*
X-01325Y-01276*
X-01324Y-01276*
X-01324Y-01276*
X-01323Y-01276*
X-01322Y-01275*
X-0132Y-01275*
X-01319Y-01275*
X-01319Y-01274*
X-01318Y-01274*
Y-01274*
Y-01274*
X-01318Y-01274*
Y-01273*
Y-01273*
Y-01273*
Y-01273*
Y-01273*
Y-01273*
X-01318Y-01272*
X-01318Y-01272*
X-01318Y-01271*
X-01319Y-0127*
X-01319Y-0127*
X-01319Y-01269*
X-01319Y-01269*
X-0132Y-01269*
X-0132Y-01269*
X-01321Y-01268*
X-01321Y-01268*
X-01322Y-01268*
X-01323Y-01268*
X-01325Y-01268*
X-01325*
X-01326Y-01268*
X-01326Y-01268*
X-01327Y-01268*
X-01328Y-01268*
X-01329Y-01268*
X-01329Y-01269*
X-0133Y-01269*
X-0133Y-01269*
X-0133Y-01269*
X-0133Y-0127*
X-01331Y-0127*
X-01331Y-01271*
X-01331Y-01272*
X-01332Y-01273*
X-01336Y-01272*
Y-01272*
X-01336Y-01272*
Y-01272*
X-01336Y-01272*
X-01336Y-01271*
X-01336Y-0127*
X-01335Y-0127*
X-01335Y-01269*
X-01335Y-01268*
X-01334Y-01267*
X-01334Y-01267*
X-01334Y-01267*
X-01334Y-01267*
X-01333Y-01266*
X-01333Y-01266*
X-01332Y-01266*
X-01331Y-01265*
X-0133Y-01265*
X-0133*
X-0133Y-01265*
X-0133Y-01265*
X-0133Y-01265*
X-01329Y-01264*
X-01328Y-01264*
X-01327Y-01264*
X-01326Y-01264*
X-01325Y-01264*
X-01324Y-01264*
X-01323*
X-01323Y-01264*
G37*
G36*
X-01384D02*
X-01384Y-01264D01*
X-01383Y-01264*
X-01382Y-01264*
X-01381Y-01264*
X-0138Y-01265*
X-0138Y-01265*
X-01379Y-01265*
X-01379Y-01265*
X-01379Y-01265*
X-01378Y-01265*
X-01378Y-01266*
X-01377Y-01266*
X-01377Y-01267*
X-01377Y-01267*
X-01376Y-01267*
X-01376Y-01267*
X-01376Y-01267*
X-01376Y-01268*
X-01376Y-01268*
X-01375Y-01269*
X-01375Y-0127*
Y-0127*
X-01375Y-0127*
X-01375Y-0127*
X-01375Y-01271*
Y-01271*
X-01375Y-01272*
X-01375Y-01273*
Y-01274*
Y-0128*
Y-0128*
Y-01281*
Y-01281*
Y-01281*
Y-01282*
Y-01282*
X-01375Y-01284*
Y-01285*
X-01375Y-01286*
X-01375Y-01287*
Y-01288*
X-01375Y-01288*
X-01375Y-01288*
Y-01289*
X-01375Y-01289*
X-01375Y-01289*
X-01374Y-01289*
X-01374Y-0129*
X-01374Y-01291*
X-01374Y-01291*
X-01373Y-01292*
X-01378*
X-01378Y-01292*
X-01378Y-01291*
X-01379Y-01291*
X-01379Y-01291*
X-01379Y-0129*
X-01379Y-0129*
X-01379Y-01289*
X-01379Y-01288*
X-01379*
X-01379Y-01288*
X-0138Y-01289*
X-0138Y-01289*
X-01381Y-0129*
X-01382Y-0129*
X-01382Y-01291*
X-01383Y-01291*
X-01384Y-01291*
X-01384Y-01292*
X-01385Y-01292*
X-01385Y-01292*
X-01386Y-01292*
X-01387Y-01292*
X-01387Y-01292*
X-01388Y-01292*
X-01389Y-01292*
X-0139*
X-0139Y-01292*
X-01391*
X-01391Y-01292*
X-01392Y-01292*
X-01393Y-01292*
X-01394Y-01291*
X-01395Y-01291*
X-01396Y-0129*
X-01396Y-0129*
X-01397Y-0129*
X-01397Y-01289*
X-01398Y-01289*
X-01398Y-01288*
X-01398Y-01287*
X-01399Y-01286*
X-01399Y-01285*
X-01399Y-01285*
Y-01284*
Y-01284*
X-01399Y-01284*
X-01399Y-01283*
X-01398Y-01283*
X-01398Y-01282*
X-01398Y-01281*
X-01398Y-01281*
X-01398Y-01281*
X-01398Y-01281*
X-01397Y-0128*
X-01397Y-0128*
X-01397Y-01279*
X-01396Y-01279*
X-01396Y-01279*
X-01395Y-01278*
X-01395Y-01278*
X-01395Y-01278*
X-01395Y-01278*
X-01394Y-01278*
X-01394Y-01277*
X-01393Y-01277*
X-01393Y-01277*
X-01392Y-01277*
X-01392*
X-01392Y-01277*
X-01391Y-01276*
X-01391Y-01276*
X-0139Y-01276*
X-0139Y-01276*
X-01389Y-01276*
X-01388Y-01276*
X-01388*
X-01388Y-01276*
X-01387*
X-01387Y-01276*
X-01387Y-01276*
X-01386Y-01276*
X-01385Y-01276*
X-01385Y-01276*
X-01383Y-01275*
X-01382Y-01275*
X-01381Y-01275*
X-0138Y-01274*
X-0138Y-01274*
Y-01274*
Y-01274*
X-0138Y-01274*
Y-01273*
Y-01273*
Y-01273*
Y-01273*
Y-01273*
Y-01273*
X-0138Y-01272*
X-0138Y-01272*
X-0138Y-01271*
X-0138Y-0127*
X-01381Y-0127*
X-01381Y-01269*
X-01381Y-01269*
X-01381Y-01269*
X-01382Y-01269*
X-01382Y-01268*
X-01383Y-01268*
X-01384Y-01268*
X-01385Y-01268*
X-01386Y-01268*
X-01387*
X-01387Y-01268*
X-01388Y-01268*
X-01389Y-01268*
X-0139Y-01268*
X-0139Y-01268*
X-01391Y-01269*
X-01391Y-01269*
X-01391Y-01269*
X-01392Y-01269*
X-01392Y-0127*
X-01392Y-0127*
X-01393Y-01271*
X-01393Y-01272*
X-01393Y-01273*
X-01398Y-01272*
Y-01272*
X-01398Y-01272*
Y-01272*
X-01398Y-01272*
X-01398Y-01271*
X-01397Y-0127*
X-01397Y-0127*
X-01397Y-01269*
X-01396Y-01268*
X-01396Y-01267*
X-01396Y-01267*
X-01396Y-01267*
X-01395Y-01267*
X-01395Y-01266*
X-01394Y-01266*
X-01394Y-01266*
X-01393Y-01265*
X-01392Y-01265*
X-01392*
X-01392Y-01265*
X-01391Y-01265*
X-01391Y-01265*
X-01391Y-01264*
X-0139Y-01264*
X-01389Y-01264*
X-01388Y-01264*
X-01387Y-01264*
X-01386Y-01264*
X-01385*
X-01384Y-01264*
G37*
G36*
X-01404Y-01292D02*
X-01409D01*
Y-01254*
X-01404*
Y-01292*
G37*
G36*
X-01489D02*
X-01494D01*
Y-01264*
X-01489*
Y-01292*
G37*
G36*
X-01433Y-01319D02*
X-01432Y-01319D01*
X-01431Y-0132*
X-01431Y-0132*
X-0143Y-0132*
X-01429Y-0132*
X-01429Y-0132*
X-01429Y-0132*
X-01428Y-01321*
X-01428Y-01321*
X-01427Y-01321*
X-01427Y-01322*
X-01426Y-01322*
X-01426Y-01323*
X-01426Y-01323*
X-01426Y-01323*
X-01426Y-01323*
X-01425Y-01324*
X-01425Y-01324*
X-01425Y-01325*
X-01425Y-01325*
X-01424Y-01326*
Y-01326*
X-01424Y-01326*
X-01424Y-01327*
X-01424Y-01327*
Y-01328*
X-01424Y-01328*
X-01424Y-01329*
Y-01331*
Y-01347*
X-01429*
Y-01331*
Y-01331*
Y-01331*
Y-0133*
Y-0133*
X-01429Y-01329*
X-01429Y-01328*
X-01429Y-01328*
X-01429Y-01327*
X-01429Y-01326*
Y-01326*
X-01429Y-01326*
X-0143Y-01326*
X-0143Y-01326*
X-0143Y-01325*
X-0143Y-01325*
X-01431Y-01325*
X-01431Y-01324*
X-01431Y-01324*
X-01432Y-01324*
X-01432Y-01324*
X-01432Y-01324*
X-01433Y-01324*
X-01433Y-01323*
X-01434Y-01323*
X-01435Y-01323*
X-01435*
X-01435Y-01323*
X-01436Y-01323*
X-01436Y-01324*
X-01437Y-01324*
X-01438Y-01324*
X-01439Y-01325*
X-0144Y-01325*
X-0144Y-01325*
X-0144Y-01326*
X-0144Y-01326*
X-0144Y-01326*
X-01441Y-01326*
X-01441Y-01327*
X-01441Y-01327*
X-01441Y-01328*
X-01441Y-01328*
X-01441Y-01329*
X-01442Y-0133*
X-01442Y-01331*
X-01442Y-01331*
Y-01332*
Y-01347*
X-01446*
Y-0132*
X-01442*
Y-01324*
X-01442Y-01324*
X-01442Y-01324*
X-01442Y-01323*
X-01442Y-01323*
X-01441Y-01323*
X-01441Y-01322*
X-01441Y-01322*
X-0144Y-01322*
X-01439Y-01321*
X-01439Y-01321*
X-01438Y-0132*
X-01437Y-0132*
X-01436Y-0132*
X-01436Y-0132*
X-01435Y-01319*
X-01434Y-01319*
X-01433*
X-01433Y-01319*
G37*
G36*
X-01462D02*
X-01461Y-01319D01*
X-01461Y-0132*
X-0146Y-0132*
X-01459Y-0132*
X-01458Y-0132*
X-01458Y-0132*
X-01458Y-0132*
X-01458Y-01321*
X-01457Y-01321*
X-01457Y-01321*
X-01456Y-01322*
X-01456Y-01322*
X-01455Y-01323*
X-01455Y-01323*
X-01455Y-01323*
X-01455Y-01323*
X-01455Y-01324*
X-01455Y-01324*
X-01454Y-01325*
X-01454Y-01325*
X-01454Y-01326*
Y-01326*
X-01454Y-01326*
X-01454Y-01327*
X-01454Y-01327*
Y-01328*
X-01454Y-01328*
X-01454Y-01329*
Y-01331*
Y-01347*
X-01458*
Y-01331*
Y-01331*
Y-01331*
Y-0133*
Y-0133*
X-01458Y-01329*
X-01458Y-01328*
X-01458Y-01328*
X-01459Y-01327*
X-01459Y-01326*
Y-01326*
X-01459Y-01326*
X-01459Y-01326*
X-01459Y-01326*
X-01459Y-01325*
X-0146Y-01325*
X-0146Y-01325*
X-01461Y-01324*
X-01461Y-01324*
X-01461Y-01324*
X-01461Y-01324*
X-01462Y-01324*
X-01462Y-01324*
X-01463Y-01323*
X-01463Y-01323*
X-01464Y-01323*
X-01464*
X-01464Y-01323*
X-01465Y-01323*
X-01466Y-01324*
X-01466Y-01324*
X-01467Y-01324*
X-01468Y-01325*
X-01469Y-01325*
X-01469Y-01325*
X-01469Y-01326*
X-0147Y-01326*
X-0147Y-01326*
X-0147Y-01326*
X-0147Y-01327*
X-0147Y-01327*
X-01471Y-01328*
X-01471Y-01328*
X-01471Y-01329*
X-01471Y-0133*
X-01471Y-01331*
X-01471Y-01331*
Y-01332*
Y-01347*
X-01476*
Y-0132*
X-01472*
Y-01324*
X-01472Y-01324*
X-01471Y-01324*
X-01471Y-01323*
X-01471Y-01323*
X-01471Y-01323*
X-0147Y-01322*
X-0147Y-01322*
X-01469Y-01322*
X-01469Y-01321*
X-01468Y-01321*
X-01468Y-0132*
X-01467Y-0132*
X-01466Y-0132*
X-01465Y-0132*
X-01464Y-01319*
X-01463Y-01319*
X-01463*
X-01462Y-01319*
G37*
G36*
X-01306D02*
X-01306Y-01319D01*
X-01305Y-0132*
X-01304Y-0132*
X-01303Y-0132*
X-01302Y-01321*
X-01304Y-01325*
X-01304Y-01325*
X-01304Y-01325*
X-01305Y-01325*
X-01305Y-01325*
X-01306Y-01324*
X-01306Y-01324*
X-01307Y-01324*
X-01307Y-01324*
X-01308*
X-01308Y-01324*
X-01308Y-01324*
X-01309Y-01324*
X-01309Y-01325*
X-0131Y-01325*
X-0131Y-01325*
X-0131Y-01325*
X-0131Y-01325*
X-01311Y-01325*
X-01311Y-01326*
X-01311Y-01326*
X-01311Y-01327*
X-01312Y-01327*
X-01312Y-01328*
X-01312Y-01328*
X-01312Y-01328*
X-01312Y-01329*
X-01312Y-01329*
X-01312Y-0133*
X-01312Y-01331*
X-01313Y-01332*
X-01313Y-01333*
Y-01347*
X-01317*
Y-0132*
X-01313*
Y-01324*
X-01313Y-01324*
X-01313Y-01324*
X-01312Y-01323*
X-01312Y-01323*
X-01312Y-01322*
X-01311Y-01321*
X-01311Y-01321*
X-0131Y-0132*
X-0131Y-0132*
X-0131Y-0132*
X-0131Y-0132*
X-01309Y-0132*
X-01309Y-0132*
X-01308Y-01319*
X-01308Y-01319*
X-01307Y-01319*
X-01307*
X-01306Y-01319*
G37*
G36*
X-01376D02*
X-01376D01*
X-01375Y-01319*
X-01374Y-0132*
X-01373Y-0132*
X-01372Y-0132*
X-0137Y-01321*
X-01369Y-01322*
X-01369*
X-01369Y-01322*
X-01369Y-01322*
X-01368Y-01323*
X-01368Y-01323*
X-01367Y-01324*
X-01367Y-01325*
X-01366Y-01326*
X-01366Y-01328*
X-0137Y-01329*
Y-01329*
X-0137Y-01329*
X-0137Y-01328*
X-0137Y-01328*
X-01371Y-01327*
X-01371Y-01326*
X-01371Y-01326*
X-01372Y-01325*
X-01372Y-01325*
X-01373Y-01325*
X-01373Y-01324*
X-01373Y-01324*
X-01374Y-01324*
X-01374Y-01324*
X-01375Y-01323*
X-01376Y-01323*
X-01376Y-01323*
X-01377*
X-01377Y-01323*
X-01378Y-01323*
X-01378Y-01323*
X-01379Y-01324*
X-0138Y-01324*
X-01381Y-01325*
X-01382Y-01325*
X-01382Y-01326*
Y-01326*
X-01382Y-01326*
X-01382Y-01326*
X-01382Y-01326*
X-01383Y-01326*
X-01383Y-01327*
X-01383Y-01327*
X-01383Y-01328*
X-01383Y-01328*
X-01384Y-01329*
X-01384Y-01329*
X-01384Y-0133*
X-01384Y-01331*
X-01384Y-01332*
X-01384Y-01333*
Y-01334*
Y-01334*
Y-01334*
Y-01334*
X-01384Y-01334*
Y-01335*
X-01384Y-01335*
X-01384Y-01337*
X-01384Y-01338*
X-01383Y-01339*
X-01383Y-01341*
X-01383Y-01341*
X-01382Y-01342*
X-01382Y-01342*
X-01382Y-01342*
X-01381Y-01342*
X-01381Y-01343*
X-0138Y-01343*
X-01379Y-01344*
X-01378Y-01344*
X-01377Y-01344*
X-01377Y-01344*
X-01377*
X-01376Y-01344*
X-01376Y-01344*
X-01375Y-01344*
X-01374Y-01344*
X-01374Y-01343*
X-01373Y-01343*
X-01372Y-01342*
X-01372Y-01342*
X-01372Y-01342*
X-01372Y-01342*
X-01371Y-01341*
X-01371Y-0134*
X-0137Y-0134*
X-0137Y-01338*
X-0137Y-01337*
X-01365Y-01338*
Y-01338*
X-01365Y-01338*
X-01365Y-01338*
X-01365Y-01339*
X-01366Y-01339*
X-01366Y-0134*
X-01366Y-01341*
X-01366Y-01342*
X-01367Y-01343*
X-01368Y-01344*
X-01369Y-01345*
X-01369Y-01345*
X-01369Y-01345*
X-01369Y-01345*
X-01369Y-01346*
X-0137Y-01346*
X-0137Y-01346*
X-0137Y-01346*
X-01371Y-01346*
X-01371Y-01347*
X-01372Y-01347*
X-01374Y-01347*
X-01375Y-01348*
X-01376Y-01348*
X-01377Y-01348*
X-01377*
X-01378Y-01348*
X-01378Y-01348*
X-01379Y-01348*
X-01379Y-01348*
X-0138Y-01347*
X-01381Y-01347*
X-01382Y-01347*
X-01383Y-01346*
X-01384Y-01346*
X-01384Y-01345*
X-01385Y-01345*
X-01386Y-01344*
X-01386Y-01344*
X-01386Y-01344*
X-01386Y-01344*
X-01386Y-01344*
X-01386Y-01343*
X-01387Y-01343*
X-01387Y-01342*
X-01387Y-01342*
X-01388Y-01341*
X-01388Y-0134*
X-01388Y-01339*
X-01388Y-01338*
X-01389Y-01337*
X-01389Y-01336*
X-01389Y-01335*
X-01389Y-01334*
Y-01334*
Y-01334*
Y-01333*
Y-01333*
X-01389Y-01333*
Y-01332*
X-01389Y-01332*
X-01389Y-01331*
X-01389Y-0133*
X-01388Y-01329*
X-01388Y-01327*
X-01388Y-01326*
Y-01326*
X-01388Y-01326*
X-01387Y-01326*
X-01387Y-01325*
X-01387Y-01325*
X-01387Y-01324*
X-01386Y-01323*
X-01385Y-01322*
X-01384Y-01322*
X-01383Y-01321*
X-01383*
X-01383Y-01321*
X-01383Y-01321*
X-01383Y-01321*
X-01382Y-01321*
X-01382Y-0132*
X-01381Y-0132*
X-0138Y-0132*
X-01379Y-0132*
X-01378Y-01319*
X-01377Y-01319*
X-01376*
X-01376Y-01319*
G37*
G36*
X-0152D02*
X-01519D01*
X-01519Y-01319*
X-01518Y-0132*
X-01517Y-0132*
X-01516Y-0132*
X-01514Y-01321*
X-01513Y-01322*
X-01513*
X-01513Y-01322*
X-01513Y-01322*
X-01512Y-01323*
X-01512Y-01323*
X-01511Y-01324*
X-01511Y-01325*
X-0151Y-01326*
X-0151Y-01328*
X-01514Y-01329*
Y-01329*
X-01514Y-01329*
X-01514Y-01328*
X-01514Y-01328*
X-01515Y-01327*
X-01515Y-01326*
X-01515Y-01326*
X-01516Y-01325*
X-01516Y-01325*
X-01516Y-01325*
X-01517Y-01324*
X-01517Y-01324*
X-01518Y-01324*
X-01518Y-01324*
X-01519Y-01323*
X-0152Y-01323*
X-0152Y-01323*
X-01521*
X-01521Y-01323*
X-01522Y-01323*
X-01522Y-01323*
X-01523Y-01324*
X-01524Y-01324*
X-01525Y-01325*
X-01526Y-01325*
X-01526Y-01326*
Y-01326*
X-01526Y-01326*
X-01526Y-01326*
X-01526Y-01326*
X-01527Y-01326*
X-01527Y-01327*
X-01527Y-01327*
X-01527Y-01328*
X-01527Y-01328*
X-01528Y-01329*
X-01528Y-01329*
X-01528Y-0133*
X-01528Y-01331*
X-01528Y-01332*
X-01528Y-01333*
Y-01334*
Y-01334*
Y-01334*
Y-01334*
X-01528Y-01334*
Y-01335*
X-01528Y-01335*
X-01528Y-01337*
X-01528Y-01338*
X-01527Y-01339*
X-01527Y-01341*
X-01527Y-01341*
X-01526Y-01342*
X-01526Y-01342*
X-01526Y-01342*
X-01525Y-01342*
X-01525Y-01343*
X-01524Y-01343*
X-01523Y-01344*
X-01522Y-01344*
X-01521Y-01344*
X-01521Y-01344*
X-01521*
X-0152Y-01344*
X-0152Y-01344*
X-01519Y-01344*
X-01518Y-01344*
X-01518Y-01343*
X-01517Y-01343*
X-01516Y-01342*
X-01516Y-01342*
X-01516Y-01342*
X-01515Y-01342*
X-01515Y-01341*
X-01515Y-0134*
X-01514Y-0134*
X-01514Y-01338*
X-01514Y-01337*
X-01509Y-01338*
Y-01338*
X-01509Y-01338*
X-01509Y-01338*
X-01509Y-01339*
X-01509Y-01339*
X-0151Y-0134*
X-0151Y-01341*
X-0151Y-01342*
X-01511Y-01343*
X-01512Y-01344*
X-01512Y-01345*
X-01513Y-01345*
X-01513Y-01345*
X-01513Y-01345*
X-01513Y-01346*
X-01514Y-01346*
X-01514Y-01346*
X-01514Y-01346*
X-01515Y-01346*
X-01515Y-01347*
X-01516Y-01347*
X-01518Y-01347*
X-01519Y-01348*
X-0152Y-01348*
X-01521Y-01348*
X-01521*
X-01522Y-01348*
X-01522Y-01348*
X-01523Y-01348*
X-01523Y-01348*
X-01524Y-01347*
X-01525Y-01347*
X-01526Y-01347*
X-01527Y-01346*
X-01528Y-01346*
X-01528Y-01345*
X-01529Y-01345*
X-0153Y-01344*
X-0153Y-01344*
X-0153Y-01344*
X-0153Y-01344*
X-0153Y-01344*
X-0153Y-01343*
X-01531Y-01343*
X-01531Y-01342*
X-01531Y-01342*
X-01532Y-01341*
X-01532Y-0134*
X-01532Y-01339*
X-01532Y-01338*
X-01533Y-01337*
X-01533Y-01336*
X-01533Y-01335*
X-01533Y-01334*
Y-01334*
Y-01334*
Y-01333*
Y-01333*
X-01533Y-01333*
Y-01332*
X-01533Y-01332*
X-01533Y-01331*
X-01533Y-0133*
X-01532Y-01329*
X-01532Y-01327*
X-01532Y-01326*
Y-01326*
X-01531Y-01326*
X-01531Y-01326*
X-01531Y-01325*
X-01531Y-01325*
X-0153Y-01324*
X-0153Y-01323*
X-01529Y-01322*
X-01528Y-01322*
X-01527Y-01321*
X-01527*
X-01527Y-01321*
X-01527Y-01321*
X-01527Y-01321*
X-01526Y-01321*
X-01526Y-0132*
X-01525Y-0132*
X-01524Y-0132*
X-01523Y-0132*
X-01522Y-01319*
X-01521Y-01319*
X-0152*
X-0152Y-01319*
G37*
G36*
X-01356Y-0132D02*
X-01351D01*
Y-01324*
X-01356*
Y-0134*
Y-0134*
Y-0134*
Y-0134*
X-01356Y-01341*
X-01356Y-01342*
X-01356Y-01342*
X-01356Y-01342*
X-01356Y-01342*
X-01355Y-01343*
X-01355Y-01343*
X-01355Y-01343*
X-01355Y-01343*
X-01354Y-01343*
X-01354Y-01343*
X-01353Y-01343*
X-01353*
X-01352Y-01343*
X-01352*
X-01352Y-01343*
X-01351Y-01343*
X-01351Y-01347*
X-01351*
X-01351Y-01347*
X-01351Y-01347*
X-01352Y-01347*
X-01352Y-01348*
X-01353Y-01348*
X-01354Y-01348*
X-01355*
X-01355Y-01348*
X-01356Y-01348*
X-01356Y-01348*
X-01357Y-01347*
X-01357Y-01347*
X-01358Y-01347*
X-01358Y-01347*
X-01358Y-01347*
X-01358Y-01347*
X-01359Y-01346*
X-01359Y-01346*
X-01359Y-01346*
X-0136Y-01345*
X-0136Y-01345*
Y-01345*
X-0136Y-01345*
X-0136Y-01344*
X-0136Y-01344*
X-0136Y-01343*
X-0136Y-01342*
Y-01342*
X-0136Y-01341*
X-0136Y-01341*
Y-0134*
Y-01339*
Y-01324*
X-01364*
Y-0132*
X-0136*
Y-01313*
X-01356Y-0131*
Y-0132*
G37*
G36*
X-01335Y-01319D02*
X-01334Y-01319D01*
X-01334Y-0132*
X-01333Y-0132*
X-01332Y-0132*
X-01331Y-0132*
X-0133Y-01321*
X-01329Y-01321*
X-01328Y-01321*
X-01328Y-01322*
X-01327Y-01322*
X-01326Y-01323*
X-01326Y-01323*
X-01326Y-01323*
X-01326Y-01323*
X-01326Y-01324*
X-01325Y-01324*
X-01325Y-01325*
X-01325Y-01325*
X-01324Y-01326*
X-01324Y-01326*
X-01324Y-01327*
X-01323Y-01328*
X-01323Y-01329*
X-01323Y-0133*
X-01323Y-01331*
X-01323Y-01332*
X-01323Y-01333*
Y-01333*
Y-01333*
Y-01334*
Y-01334*
X-01323Y-01335*
X-01323Y-01335*
Y-01336*
X-01323Y-01336*
X-01323Y-01338*
X-01323Y-01339*
X-01324Y-0134*
X-01324Y-01342*
Y-01342*
X-01324Y-01342*
X-01324Y-01342*
X-01325Y-01342*
X-01325Y-01343*
X-01325Y-01343*
X-01326Y-01344*
X-01327Y-01345*
X-01328Y-01346*
X-01329Y-01346*
X-01329*
X-01329Y-01346*
X-01329Y-01346*
X-01329Y-01347*
X-0133Y-01347*
X-0133Y-01347*
X-01331Y-01347*
X-01332Y-01347*
X-01333Y-01348*
X-01334Y-01348*
X-01335Y-01348*
X-01336*
X-01336Y-01348*
X-01337Y-01348*
X-01337Y-01348*
X-01338Y-01348*
X-01339Y-01347*
X-0134Y-01347*
X-01341Y-01347*
X-01342Y-01346*
X-01343Y-01346*
X-01343Y-01345*
X-01344Y-01345*
X-01345Y-01344*
X-01345Y-01344*
X-01345Y-01344*
X-01345Y-01344*
X-01345Y-01344*
X-01346Y-01343*
X-01346Y-01343*
X-01346Y-01342*
X-01347Y-01342*
X-01347Y-01341*
X-01347Y-0134*
X-01347Y-01339*
X-01348Y-01338*
X-01348Y-01337*
X-01348Y-01336*
X-01348Y-01335*
X-01348Y-01334*
Y-01334*
Y-01333*
X-01348Y-01333*
Y-01332*
X-01348Y-01332*
X-01348Y-01331*
X-01348Y-0133*
X-01348Y-01329*
X-01348Y-01328*
X-01347Y-01328*
X-01347Y-01327*
X-01347Y-01326*
X-01346Y-01325*
X-01345Y-01324*
X-01345Y-01323*
X-01344Y-01322*
X-01344Y-01322*
X-01344Y-01322*
X-01344Y-01322*
X-01343Y-01322*
X-01343Y-01322*
X-01343Y-01321*
X-01342Y-01321*
X-01342Y-01321*
X-01341Y-01321*
X-0134Y-0132*
X-01339Y-0132*
X-01337Y-01319*
X-01336Y-01319*
X-01335Y-01319*
X-01335*
X-01335Y-01319*
G37*
G36*
X-01405D02*
X-01404Y-01319D01*
X-01404Y-0132*
X-01403Y-0132*
X-01403Y-0132*
X-01402Y-0132*
X-01401Y-0132*
X-01401Y-01321*
X-014Y-01321*
X-01399Y-01321*
X-01398Y-01322*
X-01398Y-01322*
X-01397Y-01323*
X-01397Y-01323*
X-01397Y-01323*
X-01397Y-01323*
X-01396Y-01324*
X-01396Y-01324*
X-01396Y-01325*
X-01395Y-01325*
X-01395Y-01326*
X-01395Y-01327*
X-01394Y-01327*
X-01394Y-01328*
X-01394Y-01329*
X-01394Y-0133*
X-01394Y-01331*
X-01393Y-01332*
X-01393Y-01334*
Y-01334*
Y-01334*
Y-01334*
X-01393Y-01335*
X-01414*
Y-01335*
Y-01335*
X-01414Y-01335*
Y-01336*
X-01414Y-01336*
X-01414Y-01336*
X-01414Y-01337*
X-01413Y-01338*
X-01413Y-0134*
X-01412Y-01341*
X-01411Y-01342*
X-01411*
X-01411Y-01342*
X-01411Y-01342*
X-0141Y-01343*
X-0141Y-01343*
X-01409Y-01343*
X-01408Y-01344*
X-01407Y-01344*
X-01406Y-01344*
X-01406Y-01344*
X-01405*
X-01405Y-01344*
X-01404Y-01344*
X-01403Y-01344*
X-01403Y-01344*
X-01402Y-01343*
X-01401Y-01343*
X-01401Y-01343*
X-01401Y-01343*
X-01401Y-01342*
X-014Y-01342*
X-014Y-01341*
X-01399Y-0134*
X-01399Y-0134*
X-01398Y-01338*
X-01394Y-01339*
Y-01339*
X-01394Y-01339*
X-01394Y-01339*
X-01394Y-0134*
X-01394Y-0134*
X-01394Y-01341*
X-01395Y-01341*
X-01395Y-01343*
X-01396Y-01344*
X-01397Y-01345*
X-01398Y-01346*
X-01398*
X-01398Y-01346*
X-01398Y-01346*
X-01398Y-01346*
X-01399Y-01346*
X-01399Y-01346*
X-01399Y-01347*
X-014Y-01347*
X-014Y-01347*
X-01401Y-01347*
X-01402Y-01348*
X-01404Y-01348*
X-01406Y-01348*
X-01406*
X-01407Y-01348*
X-01407Y-01348*
X-01408Y-01348*
X-01408Y-01348*
X-01409Y-01347*
X-01411Y-01347*
X-01411Y-01347*
X-01412Y-01346*
X-01413Y-01346*
X-01414Y-01345*
X-01414Y-01345*
X-01415Y-01344*
X-01415Y-01344*
X-01415Y-01344*
X-01415Y-01344*
X-01416Y-01344*
X-01416Y-01343*
X-01416Y-01343*
X-01417Y-01342*
X-01417Y-01342*
X-01417Y-01341*
X-01418Y-0134*
X-01418Y-01339*
X-01418Y-01338*
X-01418Y-01337*
X-01418Y-01336*
X-01419Y-01335*
X-01419Y-01334*
Y-01334*
Y-01334*
Y-01333*
X-01419Y-01333*
X-01419Y-01332*
X-01418Y-01331*
X-01418Y-01331*
X-01418Y-0133*
X-01418Y-01328*
X-01417Y-01327*
X-01417Y-01326*
X-01417Y-01326*
X-01416Y-01325*
X-01416Y-01324*
X-01415Y-01323*
X-01415Y-01323*
X-01415Y-01323*
X-01415Y-01323*
X-01414Y-01323*
X-01414Y-01322*
X-01414Y-01322*
X-01413Y-01322*
X-01413Y-01321*
X-01412Y-01321*
X-01411Y-01321*
X-0141Y-0132*
X-0141Y-0132*
X-01409Y-0132*
X-01408Y-01319*
X-01407Y-01319*
X-01406Y-01319*
X-01405*
X-01405Y-01319*
G37*
G36*
X-01493D02*
X-01493Y-01319D01*
X-01492Y-0132*
X-01492Y-0132*
X-01491Y-0132*
X-01489Y-0132*
X-01489Y-01321*
X-01488Y-01321*
X-01487Y-01321*
X-01486Y-01322*
X-01486Y-01322*
X-01485Y-01323*
X-01485Y-01323*
X-01485Y-01323*
X-01485Y-01323*
X-01484Y-01324*
X-01484Y-01324*
X-01484Y-01325*
X-01483Y-01325*
X-01483Y-01326*
X-01483Y-01326*
X-01482Y-01327*
X-01482Y-01328*
X-01482Y-01329*
X-01482Y-0133*
X-01481Y-01331*
X-01481Y-01332*
X-01481Y-01333*
Y-01333*
Y-01333*
Y-01334*
Y-01334*
X-01481Y-01335*
X-01481Y-01335*
Y-01336*
X-01481Y-01336*
X-01482Y-01338*
X-01482Y-01339*
X-01482Y-0134*
X-01483Y-01342*
Y-01342*
X-01483Y-01342*
X-01483Y-01342*
X-01483Y-01342*
X-01484Y-01343*
X-01484Y-01343*
X-01485Y-01344*
X-01486Y-01345*
X-01486Y-01346*
X-01488Y-01346*
X-01488*
X-01488Y-01346*
X-01488Y-01346*
X-01488Y-01347*
X-01488Y-01347*
X-01489Y-01347*
X-0149Y-01347*
X-0149Y-01347*
X-01492Y-01348*
X-01493Y-01348*
X-01494Y-01348*
X-01495*
X-01495Y-01348*
X-01496Y-01348*
X-01496Y-01348*
X-01497Y-01348*
X-01497Y-01347*
X-01499Y-01347*
X-015Y-01347*
X-015Y-01346*
X-01501Y-01346*
X-01502Y-01345*
X-01503Y-01345*
X-01503Y-01344*
X-01503Y-01344*
X-01504Y-01344*
X-01504Y-01344*
X-01504Y-01344*
X-01504Y-01343*
X-01505Y-01343*
X-01505Y-01342*
X-01505Y-01342*
X-01506Y-01341*
X-01506Y-0134*
X-01506Y-01339*
X-01506Y-01338*
X-01507Y-01337*
X-01507Y-01336*
X-01507Y-01335*
X-01507Y-01334*
Y-01334*
Y-01333*
X-01507Y-01333*
Y-01332*
X-01507Y-01332*
X-01507Y-01331*
X-01507Y-0133*
X-01506Y-01329*
X-01506Y-01328*
X-01506Y-01328*
X-01506Y-01327*
X-01505Y-01326*
X-01505Y-01325*
X-01504Y-01324*
X-01503Y-01323*
X-01503Y-01322*
X-01503Y-01322*
X-01503Y-01322*
X-01502Y-01322*
X-01502Y-01322*
X-01502Y-01322*
X-01501Y-01321*
X-01501Y-01321*
X-015Y-01321*
X-015Y-01321*
X-01499Y-0132*
X-01498Y-0132*
X-01496Y-01319*
X-01495Y-01319*
X-01494Y-01319*
X-01494*
X-01493Y-01319*
G37*
G36*
X-0077Y-02612D02*
X-00776D01*
Y-02605*
X-0077*
Y-02612*
G37*
G36*
X-01366D02*
X-01372D01*
Y-02605*
X-01366*
Y-02612*
G37*
G36*
X-01241Y-02618D02*
X-0124Y-02618D01*
X-01239Y-02618*
X-01238Y-02619*
X-01236Y-02619*
X-01235Y-0262*
X-01234Y-0262*
X-01234*
X-01233Y-02621*
X-01233Y-02621*
X-01232Y-02621*
X-01232Y-02622*
X-01231Y-02623*
X-0123Y-02624*
X-01229Y-02626*
X-01228Y-02627*
Y-02627*
X-01228Y-02627*
X-01228Y-02628*
X-01228Y-02628*
X-01228Y-02628*
X-01228Y-02629*
X-01227Y-0263*
X-01227Y-02632*
X-01227Y-02633*
X-01226Y-02635*
X-01226Y-02637*
Y-02637*
Y-02637*
Y-02637*
Y-02638*
X-01226Y-02638*
Y-02639*
X-01227Y-0264*
X-01227Y-02642*
X-01227Y-02643*
X-01228Y-02645*
X-01228Y-02647*
Y-02647*
X-01228Y-02647*
X-01229Y-02647*
X-01229Y-02648*
X-01229Y-02649*
X-0123Y-0265*
X-01231Y-02651*
X-01232Y-02652*
X-01233Y-02653*
X-01234Y-02654*
X-01234*
X-01234Y-02654*
X-01235Y-02654*
X-01235Y-02654*
X-01236Y-02655*
X-01237Y-02655*
X-01238Y-02655*
X-01239Y-02656*
X-01241Y-02656*
X-01242Y-02656*
X-01243*
X-01243Y-02656*
X-01244Y-02656*
X-01245Y-02656*
X-01246Y-02656*
X-01247Y-02655*
X-01248Y-02655*
X-01248Y-02655*
X-01248Y-02655*
X-01249Y-02654*
X-01249Y-02654*
X-0125Y-02654*
X-01251Y-02653*
X-01251Y-02652*
X-01252Y-02652*
Y-02669*
X-01258*
Y-02619*
X-01252*
Y-02624*
X-01252Y-02623*
X-01252Y-02623*
X-01252Y-02623*
X-01251Y-02622*
X-0125Y-02621*
X-0125Y-02621*
X-01249Y-0262*
X-01248Y-02619*
X-01248Y-02619*
X-01248Y-02619*
X-01247Y-02619*
X-01246Y-02619*
X-01245Y-02618*
X-01244Y-02618*
X-01243Y-02618*
X-01242Y-02618*
X-01241*
X-01241Y-02618*
G37*
G36*
X-00742D02*
X-00741Y-02618D01*
X-0074Y-02618*
X-00739Y-02618*
X-00738Y-02619*
X-00737Y-02619*
X-00737Y-02619*
X-00737Y-02619*
X-00736Y-0262*
X-00736Y-0262*
X-00735Y-0262*
X-00734Y-02621*
X-00733Y-02622*
X-00733Y-02622*
X-00733Y-02622*
X-00733Y-02623*
X-00732Y-02623*
X-00732Y-02624*
X-00732Y-02624*
X-00731Y-02625*
X-00731Y-02626*
X-00731Y-02627*
Y-02627*
X-00731Y-02627*
X-00731Y-02628*
X-00731Y-02628*
Y-02629*
X-00731Y-0263*
X-00731Y-02631*
Y-02633*
Y-02655*
X-00737*
Y-02633*
Y-02633*
Y-02633*
Y-02633*
Y-02632*
X-00737Y-02631*
X-00737Y-0263*
X-00737Y-02629*
X-00737Y-02628*
X-00737Y-02628*
Y-02627*
X-00738Y-02627*
X-00738Y-02627*
X-00738Y-02626*
X-00738Y-02626*
X-00739Y-02625*
X-00739Y-02625*
X-0074Y-02625*
X-0074Y-02624*
X-0074Y-02624*
X-00741Y-02624*
X-00741Y-02624*
X-00742Y-02624*
X-00743Y-02623*
X-00744Y-02623*
X-00744Y-02623*
X-00745*
X-00745Y-02623*
X-00746Y-02623*
X-00747Y-02624*
X-00748Y-02624*
X-00749Y-02624*
X-0075Y-02625*
X-00751Y-02626*
X-00751Y-02626*
X-00752Y-02626*
X-00752Y-02627*
X-00752Y-02627*
X-00752Y-02628*
X-00753Y-02628*
X-00753Y-02629*
X-00753Y-02629*
X-00753Y-0263*
X-00754Y-02631*
X-00754Y-02632*
X-00754Y-02633*
X-00754Y-02634*
Y-02635*
Y-02655*
X-0076*
Y-02619*
X-00755*
Y-02624*
X-00755Y-02624*
X-00754Y-02624*
X-00754Y-02623*
X-00754Y-02623*
X-00754Y-02623*
X-00753Y-02622*
X-00752Y-02622*
X-00752Y-02621*
X-00751Y-0262*
X-0075Y-0262*
X-00749Y-02619*
X-00748Y-02619*
X-00747Y-02619*
X-00746Y-02618*
X-00744Y-02618*
X-00743Y-02618*
X-00743*
X-00742Y-02618*
G37*
G36*
X-01122D02*
X-01121Y-02618D01*
X-0112Y-02618*
X-01119Y-02618*
X-01118Y-02619*
X-01117Y-02619*
X-01117Y-02619*
X-01117Y-02619*
X-01116Y-0262*
X-01116Y-0262*
X-01115Y-0262*
X-01114Y-02621*
X-01114Y-02622*
X-01113Y-02622*
X-01113Y-02622*
X-01113Y-02623*
X-01113Y-02623*
X-01112Y-02624*
X-01112Y-02624*
X-01112Y-02625*
X-01111Y-02626*
X-01111Y-02627*
Y-02627*
X-01111Y-02627*
X-01111Y-02628*
X-01111Y-02628*
Y-02629*
X-01111Y-0263*
X-01111Y-02631*
Y-02633*
Y-02655*
X-01117*
Y-02633*
Y-02633*
Y-02633*
Y-02633*
Y-02632*
X-01117Y-02631*
X-01117Y-0263*
X-01117Y-02629*
X-01117Y-02628*
X-01118Y-02628*
Y-02627*
X-01118Y-02627*
X-01118Y-02627*
X-01118Y-02626*
X-01119Y-02626*
X-01119Y-02625*
X-0112Y-02625*
X-0112Y-02625*
X-0112Y-02624*
X-01121Y-02624*
X-01121Y-02624*
X-01122Y-02624*
X-01122Y-02624*
X-01123Y-02623*
X-01124Y-02623*
X-01125Y-02623*
X-01125*
X-01125Y-02623*
X-01126Y-02623*
X-01127Y-02624*
X-01128Y-02624*
X-01129Y-02624*
X-0113Y-02625*
X-01131Y-02626*
X-01131Y-02626*
X-01132Y-02626*
X-01132Y-02627*
X-01132Y-02627*
X-01133Y-02628*
X-01133Y-02628*
X-01133Y-02629*
X-01133Y-02629*
X-01134Y-0263*
X-01134Y-02631*
X-01134Y-02632*
X-01134Y-02633*
X-01134Y-02634*
Y-02635*
Y-02655*
X-0114*
Y-02619*
X-01135*
Y-02624*
X-01135Y-02624*
X-01135Y-02624*
X-01134Y-02623*
X-01134Y-02623*
X-01134Y-02623*
X-01133Y-02622*
X-01133Y-02622*
X-01132Y-02621*
X-01131Y-0262*
X-0113Y-0262*
X-01129Y-02619*
X-01128Y-02619*
X-01127Y-02619*
X-01126Y-02618*
X-01125Y-02618*
X-01123Y-02618*
X-01123*
X-01122Y-02618*
G37*
G36*
X-00977D02*
X-00976Y-02618D01*
X-00975Y-02618*
X-00974Y-02619*
X-00973Y-02619*
X-00972Y-0262*
X-00974Y-02626*
X-00974Y-02626*
X-00974Y-02625*
X-00975Y-02625*
X-00975Y-02625*
X-00976Y-02625*
X-00977Y-02625*
X-00978Y-02624*
X-00978Y-02624*
X-00979*
X-00979Y-02624*
X-0098Y-02625*
X-0098Y-02625*
X-00981Y-02625*
X-00981Y-02625*
X-00982Y-02626*
X-00982Y-02626*
X-00982Y-02626*
X-00983Y-02626*
X-00983Y-02626*
X-00983Y-02627*
X-00984Y-02628*
X-00984Y-02628*
X-00984Y-02629*
X-00984Y-02629*
X-00984Y-0263*
X-00985Y-0263*
X-00985Y-02631*
X-00985Y-02632*
X-00985Y-02633*
X-00985Y-02635*
X-00985Y-02636*
Y-02655*
X-00992*
Y-02619*
X-00986*
Y-02624*
X-00986Y-02624*
X-00986Y-02624*
X-00985Y-02623*
X-00985Y-02622*
X-00984Y-02621*
X-00983Y-02621*
X-00983Y-0262*
X-00982Y-02619*
X-00982Y-02619*
X-00982Y-02619*
X-00981Y-02619*
X-00981Y-02619*
X-0098Y-02618*
X-0098Y-02618*
X-00979Y-02618*
X-00978Y-02618*
X-00978*
X-00977Y-02618*
G37*
G36*
X-01D02*
X-01Y-02618D01*
X-00999Y-02618*
X-00998Y-02619*
X-00996Y-02619*
X-00995Y-0262*
X-00997Y-02626*
X-00998Y-02626*
X-00998Y-02625*
X-00998Y-02625*
X-00999Y-02625*
X-00999Y-02625*
X-01Y-02625*
X-01001Y-02624*
X-01002Y-02624*
X-01002*
X-01003Y-02624*
X-01003Y-02625*
X-01004Y-02625*
X-01004Y-02625*
X-01005Y-02625*
X-01006Y-02626*
X-01006Y-02626*
X-01006Y-02626*
X-01006Y-02626*
X-01006Y-02626*
X-01007Y-02627*
X-01007Y-02628*
X-01007Y-02628*
X-01008Y-02629*
X-01008Y-02629*
X-01008Y-0263*
X-01008Y-0263*
X-01008Y-02631*
X-01009Y-02632*
X-01009Y-02633*
X-01009Y-02635*
X-01009Y-02636*
Y-02655*
X-01015*
Y-02619*
X-01009*
Y-02624*
X-01009Y-02624*
X-01009Y-02624*
X-01009Y-02623*
X-01008Y-02622*
X-01007Y-02621*
X-01007Y-02621*
X-01006Y-0262*
X-01006Y-02619*
X-01005Y-02619*
X-01005Y-02619*
X-01005Y-02619*
X-01004Y-02619*
X-01004Y-02618*
X-01003Y-02618*
X-01002Y-02618*
X-01002Y-02618*
X-01001*
X-01Y-02618*
G37*
G36*
X-01306D02*
X-01305Y-02618D01*
X-01304Y-02618*
X-01303Y-02619*
X-01302Y-02619*
X-01301Y-0262*
X-01303Y-02626*
X-01303Y-02626*
X-01304Y-02625*
X-01304Y-02625*
X-01305Y-02625*
X-01305Y-02625*
X-01306Y-02625*
X-01307Y-02624*
X-01308Y-02624*
X-01308*
X-01308Y-02624*
X-01309Y-02625*
X-01309Y-02625*
X-0131Y-02625*
X-01311Y-02625*
X-01311Y-02626*
X-01311Y-02626*
X-01312Y-02626*
X-01312Y-02626*
X-01312Y-02626*
X-01313Y-02627*
X-01313Y-02628*
X-01313Y-02628*
X-01314Y-02629*
X-01314Y-02629*
X-01314Y-0263*
X-01314Y-0263*
X-01314Y-02631*
X-01314Y-02632*
X-01314Y-02633*
X-01315Y-02635*
X-01315Y-02636*
Y-02655*
X-01321*
Y-02619*
X-01315*
Y-02624*
X-01315Y-02624*
X-01315Y-02624*
X-01314Y-02623*
X-01314Y-02622*
X-01313Y-02621*
X-01313Y-02621*
X-01312Y-0262*
X-01311Y-02619*
X-01311Y-02619*
X-01311Y-02619*
X-01311Y-02619*
X-0131Y-02619*
X-0131Y-02618*
X-01309Y-02618*
X-01308Y-02618*
X-01307Y-02618*
X-01307*
X-01306Y-02618*
G37*
G36*
X-0134D02*
X-0134D01*
X-01339Y-02618*
X-01338Y-02618*
X-01336Y-02619*
X-01335Y-02619*
X-01333Y-0262*
X-01332Y-02621*
X-01331*
X-01331Y-02621*
X-01331Y-02622*
X-0133Y-02622*
X-01329Y-02623*
X-01329Y-02624*
X-01328Y-02626*
X-01327Y-02628*
X-01327Y-02629*
X-01333Y-0263*
Y-0263*
X-01333Y-0263*
X-01333Y-0263*
X-01333Y-02629*
X-01333Y-02628*
X-01334Y-02628*
X-01334Y-02627*
X-01335Y-02626*
X-01336Y-02625*
X-01336Y-02625*
X-01336Y-02625*
X-01337Y-02624*
X-01337Y-02624*
X-01338Y-02624*
X-01339Y-02623*
X-0134Y-02623*
X-01341Y-02623*
X-01341*
X-01342Y-02623*
X-01343Y-02623*
X-01344Y-02623*
X-01345Y-02624*
X-01346Y-02624*
X-01347Y-02625*
X-01348Y-02626*
X-01349Y-02626*
Y-02626*
X-01349Y-02627*
X-01349Y-02627*
X-01349Y-02627*
X-01349Y-02627*
X-0135Y-02628*
X-0135Y-02628*
X-0135Y-02629*
X-0135Y-0263*
X-01351Y-0263*
X-01351Y-02631*
X-01351Y-02632*
X-01351Y-02633*
X-01351Y-02635*
X-01352Y-02636*
Y-02637*
Y-02637*
Y-02637*
Y-02638*
X-01351Y-02638*
Y-02639*
X-01351Y-0264*
X-01351Y-02641*
X-01351Y-02643*
X-0135Y-02645*
X-0135Y-02646*
X-01349Y-02647*
X-01349Y-02648*
X-01349Y-02648*
X-01348Y-02648*
X-01348Y-02649*
X-01347Y-02649*
X-01346Y-0265*
X-01344Y-02651*
X-01343Y-02651*
X-01342Y-02651*
X-01341Y-02651*
X-01341*
X-01341Y-02651*
X-0134Y-02651*
X-01339Y-02651*
X-01338Y-02651*
X-01337Y-0265*
X-01336Y-0265*
X-01335Y-02649*
X-01335Y-02649*
X-01335Y-02648*
X-01335Y-02648*
X-01334Y-02647*
X-01334Y-02646*
X-01333Y-02645*
X-01332Y-02644*
X-01332Y-02642*
X-01326Y-02643*
Y-02643*
X-01326Y-02643*
X-01326Y-02643*
X-01326Y-02644*
X-01326Y-02644*
X-01327Y-02645*
X-01327Y-02646*
X-01328Y-02648*
X-01329Y-0265*
X-0133Y-02651*
X-01331Y-02652*
X-01331Y-02653*
X-01331Y-02653*
X-01331Y-02653*
X-01332Y-02653*
X-01332Y-02653*
X-01332Y-02653*
X-01333Y-02654*
X-01333Y-02654*
X-01334Y-02654*
X-01335Y-02655*
X-01337Y-02656*
X-01339Y-02656*
X-0134Y-02656*
X-01341Y-02656*
X-01342*
X-01343Y-02656*
X-01343Y-02656*
X-01344Y-02656*
X-01345Y-02656*
X-01346Y-02656*
X-01348Y-02655*
X-01349Y-02655*
X-0135Y-02654*
X-01351Y-02654*
X-01352Y-02653*
X-01352Y-02652*
X-01353Y-02651*
X-01353Y-02651*
X-01354Y-02651*
X-01354Y-02651*
X-01354Y-0265*
X-01354Y-0265*
X-01355Y-02649*
X-01355Y-02649*
X-01356Y-02648*
X-01356Y-02647*
X-01356Y-02646*
X-01357Y-02645*
X-01357Y-02643*
X-01357Y-02642*
X-01358Y-0264*
X-01358Y-02639*
X-01358Y-02637*
Y-02637*
Y-02637*
Y-02637*
Y-02636*
X-01358Y-02636*
Y-02635*
X-01358Y-02634*
X-01358Y-02634*
X-01357Y-02632*
X-01357Y-0263*
X-01357Y-02629*
X-01356Y-02627*
Y-02627*
X-01356Y-02627*
X-01356Y-02626*
X-01356Y-02626*
X-01355Y-02625*
X-01354Y-02624*
X-01354Y-02623*
X-01353Y-02622*
X-01351Y-02621*
X-0135Y-0262*
X-0135*
X-0135Y-0262*
X-0135Y-0262*
X-01349Y-0262*
X-01349Y-0262*
X-01348Y-02619*
X-01347Y-02619*
X-01346Y-02619*
X-01345Y-02618*
X-01343Y-02618*
X-01341Y-02618*
X-01341*
X-0134Y-02618*
G37*
G36*
X-00825Y-02655D02*
X-00832D01*
Y-02613*
X-00846Y-02655*
X-00852*
X-00867Y-02612*
Y-02655*
X-00873*
Y-02605*
X-00863*
X-00851Y-02641*
Y-02641*
X-00851Y-02641*
X-00851Y-02641*
X-00851Y-02642*
X-00851Y-02642*
X-0085Y-02643*
X-0085Y-02645*
X-0085Y-02646*
X-00849Y-02647*
X-00849Y-02648*
X-00849Y-02648*
X-00849Y-02648*
X-00849Y-02647*
X-00848Y-02646*
X-00848Y-02645*
X-00847Y-02644*
X-00847Y-02642*
X-00846Y-0264*
X-00834Y-02605*
X-00825*
Y-02655*
G37*
G36*
X-01382D02*
X-01388D01*
Y-02613*
X-01403Y-02655*
X-01409*
X-01423Y-02612*
Y-02655*
X-0143*
Y-02605*
X-0142*
X-01408Y-02641*
Y-02641*
X-01408Y-02641*
X-01408Y-02641*
X-01408Y-02642*
X-01407Y-02642*
X-01407Y-02643*
X-01407Y-02645*
X-01406Y-02646*
X-01406Y-02647*
X-01406Y-02648*
X-01405Y-02648*
X-01405Y-02648*
X-01405Y-02647*
X-01405Y-02646*
X-01405Y-02645*
X-01404Y-02644*
X-01403Y-02642*
X-01403Y-0264*
X-01391Y-02605*
X-01382*
Y-02655*
G37*
G36*
X-00913Y-02656D02*
Y-02656D01*
X-00913Y-02656*
X-00913Y-02657*
X-00913Y-02657*
X-00913Y-02657*
X-00914Y-02658*
X-00914Y-02659*
X-00915Y-02661*
X-00915Y-02662*
X-00916Y-02663*
X-00916Y-02664*
X-00916Y-02664*
X-00916Y-02664*
X-00917Y-02665*
X-00917Y-02665*
X-00917Y-02666*
X-00918Y-02667*
X-00919Y-02667*
X-00919Y-02668*
X-0092Y-02669*
X-0092Y-02669*
X-0092Y-02669*
X-00921Y-02669*
X-00921Y-02669*
X-00922Y-0267*
X-00923Y-0267*
X-00924Y-0267*
X-00925Y-0267*
X-00925*
X-00926Y-0267*
X-00926*
X-00927Y-0267*
X-00928Y-0267*
X-00928Y-0267*
X-00929Y-02669*
X-0093Y-02664*
X-0093*
X-00929Y-02664*
X-00929Y-02664*
X-00929Y-02664*
X-00927Y-02664*
X-00926Y-02664*
X-00926*
X-00925Y-02664*
X-00925*
X-00924Y-02664*
X-00923Y-02664*
X-00923Y-02663*
X-00923*
X-00923Y-02663*
X-00922Y-02663*
X-00922Y-02663*
X-00922Y-02662*
X-00921Y-02662*
Y-02661*
X-00921Y-02661*
X-00921Y-02661*
X-00921Y-02661*
X-0092Y-0266*
X-0092Y-02659*
X-0092Y-02658*
X-00919Y-02657*
Y-02657*
X-00919Y-02657*
X-00919Y-02656*
X-00918Y-02655*
X-00932Y-02619*
X-00926*
X-00918Y-0264*
Y-0264*
X-00918Y-0264*
X-00918Y-0264*
X-00918Y-02641*
X-00918Y-02641*
X-00918Y-02642*
X-00917Y-02643*
X-00917Y-02644*
X-00916Y-02645*
X-00916Y-02647*
X-00915Y-02648*
Y-02648*
X-00915Y-02648*
X-00915Y-02648*
X-00915Y-02648*
X-00915Y-02647*
X-00915Y-02647*
X-00915Y-02646*
X-00914Y-02645*
X-00914Y-02643*
X-00913Y-02642*
X-00913Y-0264*
X-00905Y-02619*
X-00899*
X-00913Y-02656*
G37*
G36*
X-0077Y-02655D02*
X-00776D01*
Y-02619*
X-0077*
Y-02655*
G37*
G36*
X-00798Y-02618D02*
X-00797Y-02618D01*
X-00796Y-02618*
X-00794Y-02618*
X-00793Y-02619*
X-00792Y-02619*
X-00792Y-02619*
X-00792Y-02619*
X-00791Y-0262*
X-0079Y-0262*
X-0079Y-0262*
X-00789Y-02621*
X-00788Y-02621*
X-00788Y-02622*
X-00788Y-02622*
X-00787Y-02622*
X-00787Y-02623*
X-00787Y-02623*
X-00787Y-02624*
X-00786Y-02624*
X-00786Y-02625*
X-00786Y-02626*
Y-02626*
X-00786Y-02626*
X-00786Y-02627*
X-00786Y-02627*
Y-02628*
X-00786Y-02629*
X-00785Y-0263*
Y-02632*
Y-0264*
Y-0264*
Y-0264*
Y-02641*
Y-02641*
Y-02642*
Y-02643*
X-00785Y-02645*
Y-02646*
X-00785Y-02648*
X-00785Y-02649*
Y-0265*
X-00785Y-0265*
X-00785Y-02651*
Y-02651*
X-00785Y-02651*
X-00785Y-02652*
X-00785Y-02652*
X-00785Y-02653*
X-00784Y-02654*
X-00784Y-02655*
X-00784Y-02655*
X-0079*
X-0079Y-02655*
X-0079Y-02655*
X-0079Y-02655*
X-00791Y-02654*
X-00791Y-02653*
X-00791Y-02653*
X-00791Y-02652*
X-00791Y-02651*
X-00791*
X-00791Y-02651*
X-00792Y-02651*
X-00792Y-02652*
X-00793Y-02652*
X-00794Y-02653*
X-00795Y-02654*
X-00797Y-02654*
X-00798Y-02655*
X-00798Y-02655*
X-00798Y-02655*
X-00799Y-02655*
X-008Y-02656*
X-00801Y-02656*
X-00802Y-02656*
X-00803Y-02656*
X-00805Y-02656*
X-00805*
X-00806Y-02656*
X-00806*
X-00807Y-02656*
X-00808Y-02656*
X-0081Y-02655*
X-00811Y-02655*
X-00813Y-02654*
X-00814Y-02653*
X-00814Y-02653*
X-00815Y-02653*
X-00815Y-02652*
X-00816Y-02651*
X-00816Y-0265*
X-00817Y-02649*
X-00817Y-02647*
X-00817Y-02647*
X-00817Y-02646*
Y-02646*
Y-02645*
X-00817Y-02645*
X-00817Y-02644*
X-00817Y-02643*
X-00817Y-02643*
X-00816Y-02642*
X-00816Y-02641*
X-00816Y-02641*
X-00816Y-0264*
X-00816Y-0264*
X-00815Y-0264*
X-00815Y-02639*
X-00814Y-02638*
X-00814Y-02638*
X-00813Y-02637*
X-00813Y-02637*
X-00812Y-02637*
X-00812Y-02637*
X-00812Y-02636*
X-00811Y-02636*
X-0081Y-02636*
X-00809Y-02636*
X-00808Y-02635*
X-00808*
X-00808Y-02635*
X-00808Y-02635*
X-00807Y-02635*
X-00806Y-02635*
X-00805Y-02635*
X-00804Y-02634*
X-00803Y-02634*
X-00803*
X-00802Y-02634*
X-00802*
X-00802Y-02634*
X-00801Y-02634*
X-008Y-02634*
X-008Y-02634*
X-00799Y-02634*
X-00797Y-02633*
X-00795Y-02633*
X-00793Y-02633*
X-00793Y-02632*
X-00792Y-02632*
Y-02632*
Y-02632*
X-00792Y-02631*
Y-02631*
Y-02631*
Y-0263*
Y-0263*
Y-0263*
Y-0263*
X-00792Y-02629*
X-00792Y-02628*
X-00792Y-02628*
X-00793Y-02627*
X-00793Y-02626*
X-00794Y-02625*
X-00794Y-02625*
X-00794Y-02625*
X-00795Y-02625*
X-00795Y-02624*
X-00796Y-02624*
X-00797Y-02623*
X-00799Y-02623*
X-00801Y-02623*
X-00801*
X-00802Y-02623*
X-00803Y-02623*
X-00804Y-02623*
X-00805Y-02624*
X-00806Y-02624*
X-00807Y-02625*
X-00807Y-02625*
X-00807Y-02625*
X-00808Y-02625*
X-00808Y-02626*
X-00809Y-02627*
X-00809Y-02628*
X-0081Y-02629*
X-0081Y-0263*
X-00816Y-02629*
Y-02629*
X-00816Y-02629*
Y-02629*
X-00816Y-02629*
X-00816Y-02628*
X-00815Y-02627*
X-00815Y-02626*
X-00815Y-02625*
X-00814Y-02624*
X-00813Y-02623*
X-00813Y-02623*
X-00813Y-02623*
X-00813Y-02622*
X-00812Y-02622*
X-00811Y-02621*
X-0081Y-0262*
X-00809Y-0262*
X-00808Y-02619*
X-00808*
X-00808Y-02619*
X-00808Y-02619*
X-00807Y-02619*
X-00807Y-02619*
X-00806Y-02619*
X-00804Y-02618*
X-00803Y-02618*
X-00801Y-02618*
X-008Y-02618*
X-00799*
X-00798Y-02618*
G37*
G36*
X-00885Y-02655D02*
X-00892D01*
Y-02648*
X-00885*
Y-02655*
G37*
G36*
X-00951Y-02618D02*
X-0095Y-02618D01*
X-00949Y-02618*
X-00947Y-02618*
X-00946Y-02619*
X-00945Y-02619*
X-00945Y-02619*
X-00944Y-02619*
X-00944Y-0262*
X-00943Y-0262*
X-00943Y-0262*
X-00942Y-02621*
X-00941Y-02621*
X-00941Y-02622*
X-0094Y-02622*
X-0094Y-02622*
X-0094Y-02623*
X-0094Y-02623*
X-00939Y-02624*
X-00939Y-02624*
X-00939Y-02625*
X-00939Y-02626*
Y-02626*
X-00939Y-02626*
X-00939Y-02627*
X-00938Y-02627*
Y-02628*
X-00938Y-02629*
X-00938Y-0263*
Y-02632*
Y-0264*
Y-0264*
Y-0264*
Y-02641*
Y-02641*
Y-02642*
Y-02643*
X-00938Y-02645*
Y-02646*
X-00938Y-02648*
X-00938Y-02649*
Y-0265*
X-00938Y-0265*
X-00938Y-02651*
Y-02651*
X-00938Y-02651*
X-00938Y-02652*
X-00938Y-02652*
X-00937Y-02653*
X-00937Y-02654*
X-00937Y-02655*
X-00936Y-02655*
X-00943*
X-00943Y-02655*
X-00943Y-02655*
X-00943Y-02655*
X-00943Y-02654*
X-00944Y-02653*
X-00944Y-02653*
X-00944Y-02652*
X-00944Y-02651*
X-00944*
X-00944Y-02651*
X-00945Y-02651*
X-00945Y-02652*
X-00946Y-02652*
X-00947Y-02653*
X-00948Y-02654*
X-0095Y-02654*
X-00951Y-02655*
X-00951Y-02655*
X-00951Y-02655*
X-00952Y-02655*
X-00953Y-02656*
X-00954Y-02656*
X-00955Y-02656*
X-00956Y-02656*
X-00958Y-02656*
X-00958*
X-00959Y-02656*
X-00959*
X-0096Y-02656*
X-00961Y-02656*
X-00963Y-02655*
X-00964Y-02655*
X-00966Y-02654*
X-00967Y-02653*
X-00967Y-02653*
X-00967Y-02653*
X-00968Y-02652*
X-00968Y-02651*
X-00969Y-0265*
X-0097Y-02649*
X-0097Y-02647*
X-0097Y-02647*
X-0097Y-02646*
Y-02646*
Y-02645*
X-0097Y-02645*
X-0097Y-02644*
X-0097Y-02643*
X-0097Y-02643*
X-00969Y-02642*
X-00969Y-02641*
X-00969Y-02641*
X-00969Y-0264*
X-00968Y-0264*
X-00968Y-0264*
X-00968Y-02639*
X-00967Y-02638*
X-00966Y-02638*
X-00966Y-02637*
X-00966Y-02637*
X-00965Y-02637*
X-00965Y-02637*
X-00964Y-02636*
X-00964Y-02636*
X-00963Y-02636*
X-00962Y-02636*
X-00961Y-02635*
X-00961*
X-00961Y-02635*
X-0096Y-02635*
X-0096Y-02635*
X-00959Y-02635*
X-00958Y-02635*
X-00957Y-02634*
X-00956Y-02634*
X-00956*
X-00955Y-02634*
X-00955*
X-00954Y-02634*
X-00954Y-02634*
X-00953Y-02634*
X-00952Y-02634*
X-00952Y-02634*
X-0095Y-02633*
X-00948Y-02633*
X-00946Y-02633*
X-00945Y-02632*
X-00945Y-02632*
Y-02632*
Y-02632*
X-00945Y-02631*
Y-02631*
Y-02631*
Y-0263*
Y-0263*
Y-0263*
Y-0263*
X-00945Y-02629*
X-00945Y-02628*
X-00945Y-02628*
X-00945Y-02627*
X-00946Y-02626*
X-00946Y-02625*
X-00946Y-02625*
X-00947Y-02625*
X-00947Y-02625*
X-00948Y-02624*
X-00949Y-02624*
X-0095Y-02623*
X-00952Y-02623*
X-00953Y-02623*
X-00954*
X-00955Y-02623*
X-00956Y-02623*
X-00957Y-02623*
X-00958Y-02624*
X-00959Y-02624*
X-0096Y-02625*
X-0096Y-02625*
X-0096Y-02625*
X-00961Y-02625*
X-00961Y-02626*
X-00962Y-02627*
X-00962Y-02628*
X-00963Y-02629*
X-00963Y-0263*
X-00969Y-02629*
Y-02629*
X-00969Y-02629*
Y-02629*
X-00969Y-02629*
X-00969Y-02628*
X-00968Y-02627*
X-00968Y-02626*
X-00968Y-02625*
X-00967Y-02624*
X-00966Y-02623*
X-00966Y-02623*
X-00966Y-02623*
X-00966Y-02622*
X-00965Y-02622*
X-00964Y-02621*
X-00963Y-0262*
X-00962Y-0262*
X-00961Y-02619*
X-00961*
X-00961Y-02619*
X-0096Y-02619*
X-0096Y-02619*
X-00959Y-02619*
X-00958Y-02619*
X-00957Y-02618*
X-00956Y-02618*
X-00954Y-02618*
X-00953Y-02618*
X-00952*
X-00951Y-02618*
G37*
G36*
X-0102Y-02655D02*
X-01027D01*
X-01033Y-0264*
X-01054*
X-0106Y-02655*
X-01067*
X-01047Y-02605*
X-0104*
X-0102Y-02655*
G37*
G36*
X-01213Y-02623D02*
X-01213Y-02623D01*
X-01212Y-02623*
X-01212Y-02623*
X-01212Y-02622*
X-01211Y-02622*
X-01211Y-02621*
X-0121Y-02621*
X-0121Y-0262*
X-01209Y-0262*
X-01208Y-0262*
X-01206Y-02619*
X-01205Y-02618*
X-01204Y-02618*
X-01203Y-02618*
X-01202Y-02618*
X-01201*
X-012Y-02618*
X-01199Y-02618*
X-01198Y-02618*
X-01197Y-02619*
X-01196Y-02619*
X-01195Y-0262*
X-01195Y-0262*
X-01194Y-0262*
X-01194Y-0262*
X-01193Y-02621*
X-01192Y-02621*
X-01192Y-02622*
X-01191Y-02623*
X-0119Y-02624*
X-0119Y-02624*
X-0119Y-02625*
X-0119Y-02625*
X-0119Y-02626*
X-0119Y-02627*
X-01189Y-02629*
X-01189Y-0263*
X-01189Y-02632*
Y-02655*
X-01195*
Y-02632*
Y-02632*
Y-02632*
Y-02632*
Y-02631*
X-01195Y-02631*
X-01196Y-0263*
X-01196Y-02629*
X-01196Y-02627*
X-01197Y-02626*
X-01197Y-02625*
X-01197Y-02625*
X-01198Y-02625*
X-01198Y-02625*
X-01199Y-02624*
X-012Y-02624*
X-01201Y-02624*
X-01202Y-02623*
X-01203Y-02623*
X-01204*
X-01204Y-02623*
X-01205Y-02623*
X-01205Y-02624*
X-01206Y-02624*
X-01207Y-02624*
X-01208Y-02625*
X-01208Y-02625*
X-01209Y-02625*
X-01209Y-02625*
X-01209Y-02626*
X-0121Y-02626*
X-01211Y-02627*
X-01211Y-02628*
X-01212Y-02629*
X-01212Y-02629*
X-01212Y-02629*
X-01212Y-0263*
X-01212Y-0263*
X-01212Y-02631*
X-01212Y-02633*
X-01213Y-02634*
X-01213Y-02635*
Y-02655*
X-01219*
Y-02605*
X-01213*
Y-02623*
G37*
G36*
X-01366Y-02655D02*
X-01372D01*
Y-02619*
X-01366*
Y-02655*
G37*
G36*
X-01085Y-02618D02*
X-01084Y-02618D01*
X-01084Y-02618*
X-01083Y-02618*
X-01082Y-02619*
X-01081Y-02619*
X-0108Y-02619*
X-01079Y-0262*
X-01078Y-0262*
X-01077Y-02621*
X-01076Y-02621*
X-01075Y-02622*
X-01074Y-02623*
X-01074Y-02623*
X-01074Y-02623*
X-01074Y-02623*
X-01073Y-02624*
X-01073Y-02624*
X-01073Y-02625*
X-01072Y-02626*
X-01072Y-02627*
X-01071Y-02628*
X-01071Y-02629*
X-01071Y-0263*
X-0107Y-02631*
X-0107Y-02632*
X-0107Y-02634*
X-0107Y-02635*
X-0107Y-02637*
Y-02637*
Y-02637*
Y-02638*
X-0107Y-02639*
X-01097*
Y-02639*
Y-02639*
X-01097Y-02639*
Y-0264*
X-01097Y-0264*
X-01097Y-02641*
X-01096Y-02642*
X-01096Y-02644*
X-01095Y-02645*
X-01095Y-02647*
X-01094Y-02648*
X-01094*
X-01093Y-02648*
X-01093Y-02648*
X-01092Y-02649*
X-01091Y-02649*
X-0109Y-0265*
X-01089Y-02651*
X-01088Y-02651*
X-01087Y-02651*
X-01086Y-02651*
X-01085*
X-01085Y-02651*
X-01084Y-02651*
X-01083Y-02651*
X-01082Y-0265*
X-01081Y-0265*
X-0108Y-02649*
X-0108Y-02649*
X-0108Y-02649*
X-01079Y-02649*
X-01079Y-02648*
X-01078Y-02647*
X-01077Y-02646*
X-01077Y-02645*
X-01076Y-02644*
X-0107Y-02644*
Y-02644*
X-0107Y-02645*
X-0107Y-02645*
X-0107Y-02645*
X-0107Y-02646*
X-0107Y-02646*
X-01071Y-02648*
X-01072Y-02649*
X-01073Y-0265*
X-01074Y-02652*
X-01075Y-02653*
X-01076*
X-01076Y-02653*
X-01076Y-02653*
X-01076Y-02654*
X-01077Y-02654*
X-01077Y-02654*
X-01078Y-02654*
X-01078Y-02655*
X-01079Y-02655*
X-0108Y-02655*
X-01082Y-02656*
X-01084Y-02656*
X-01086Y-02656*
X-01087*
X-01087Y-02656*
X-01088Y-02656*
X-01089Y-02656*
X-0109Y-02656*
X-0109Y-02656*
X-01092Y-02655*
X-01094Y-02655*
X-01095Y-02654*
X-01096Y-02654*
X-01097Y-02653*
X-01098Y-02652*
X-01099Y-02651*
X-01099Y-02651*
X-01099Y-02651*
X-01099Y-02651*
X-01099Y-0265*
X-011Y-0265*
X-011Y-02649*
X-01101Y-02649*
X-01101Y-02648*
X-01101Y-02647*
X-01102Y-02646*
X-01102Y-02645*
X-01103Y-02643*
X-01103Y-02642*
X-01103Y-02641*
X-01103Y-02639*
X-01103Y-02637*
Y-02637*
Y-02637*
Y-02637*
X-01103Y-02636*
X-01103Y-02635*
X-01103Y-02634*
X-01103Y-02633*
X-01103Y-02632*
X-01102Y-0263*
X-01102Y-02629*
X-01101Y-02627*
X-01101Y-02626*
X-011Y-02625*
X-01099Y-02624*
X-01099Y-02623*
X-01098Y-02623*
X-01098Y-02623*
X-01098Y-02623*
X-01098Y-02622*
X-01097Y-02622*
X-01097Y-02621*
X-01096Y-02621*
X-01095Y-02621*
X-01094Y-0262*
X-01093Y-0262*
X-01092Y-02619*
X-01091Y-02619*
X-0109Y-02618*
X-01089Y-02618*
X-01088Y-02618*
X-01086Y-02618*
X-01085*
X-01085Y-02618*
G37*
G36*
X-01164D02*
X-01163Y-02618D01*
X-01162Y-02618*
X-01161Y-02618*
X-0116Y-02619*
X-01158Y-02619*
X-01157Y-0262*
X-01156Y-0262*
X-01155Y-02621*
X-01154Y-02621*
X-01153Y-02622*
X-01152Y-02623*
X-01152Y-02623*
X-01152Y-02623*
X-01152Y-02623*
X-01152Y-02624*
X-01151Y-02624*
X-01151Y-02625*
X-01151Y-02626*
X-0115Y-02626*
X-0115Y-02627*
X-01149Y-02628*
X-01149Y-0263*
X-01148Y-02631*
X-01148Y-02632*
X-01148Y-02633*
X-01148Y-02635*
X-01148Y-02637*
Y-02637*
Y-02637*
Y-02637*
Y-02638*
X-01148Y-02638*
X-01148Y-02639*
Y-0264*
X-01148Y-02641*
X-01148Y-02642*
X-01149Y-02644*
X-01149Y-02646*
X-0115Y-02648*
Y-02648*
X-0115Y-02648*
X-0115Y-02648*
X-0115Y-02648*
X-01151Y-02649*
X-01151Y-0265*
X-01152Y-02651*
X-01153Y-02652*
X-01155Y-02653*
X-01156Y-02654*
X-01156*
X-01156Y-02654*
X-01156Y-02654*
X-01157Y-02654*
X-01157Y-02654*
X-01158Y-02655*
X-01159Y-02655*
X-0116Y-02655*
X-01161Y-02656*
X-01163Y-02656*
X-01165Y-02656*
X-01166*
X-01166Y-02656*
X-01167Y-02656*
X-01168Y-02656*
X-01168Y-02656*
X-01169Y-02656*
X-01171Y-02655*
X-01172Y-02655*
X-01173Y-02654*
X-01174Y-02654*
X-01175Y-02653*
X-01176Y-02652*
X-01177Y-02651*
X-01177Y-02651*
X-01177Y-02651*
X-01178Y-02651*
X-01178Y-0265*
X-01178Y-0265*
X-01179Y-02649*
X-01179Y-02649*
X-0118Y-02648*
X-0118Y-02647*
X-0118Y-02646*
X-01181Y-02644*
X-01181Y-02643*
X-01182Y-02642*
X-01182Y-0264*
X-01182Y-02639*
X-01182Y-02637*
Y-02637*
Y-02637*
X-01182Y-02636*
Y-02635*
X-01182Y-02635*
X-01182Y-02634*
X-01182Y-02633*
X-01181Y-02631*
X-01181Y-0263*
X-01181Y-02629*
X-0118Y-02628*
X-0118Y-02626*
X-01179Y-02625*
X-01178Y-02624*
X-01177Y-02623*
X-01176Y-02622*
X-01176Y-02622*
X-01176Y-02622*
X-01176Y-02622*
X-01175Y-02621*
X-01175Y-02621*
X-01174Y-02621*
X-01174Y-0262*
X-01173Y-0262*
X-01172Y-0262*
X-01171Y-02619*
X-01169Y-02619*
X-01167Y-02618*
X-01166Y-02618*
X-01165Y-02618*
X-01164*
X-01164Y-02618*
G37*
G36*
X-01281D02*
X-01281Y-02618D01*
X-0128Y-02618*
X-01279Y-02618*
X-01278Y-02619*
X-01276Y-02619*
X-01275Y-0262*
X-01274Y-0262*
X-01273Y-02621*
X-01272Y-02621*
X-01271Y-02622*
X-0127Y-02623*
X-0127Y-02623*
X-0127Y-02623*
X-0127Y-02623*
X-01269Y-02624*
X-01269Y-02624*
X-01269Y-02625*
X-01268Y-02626*
X-01268Y-02626*
X-01267Y-02627*
X-01267Y-02628*
X-01266Y-0263*
X-01266Y-02631*
X-01266Y-02632*
X-01266Y-02633*
X-01265Y-02635*
X-01265Y-02637*
Y-02637*
Y-02637*
Y-02637*
Y-02638*
X-01265Y-02638*
X-01265Y-02639*
Y-0264*
X-01266Y-02641*
X-01266Y-02642*
X-01266Y-02644*
X-01267Y-02646*
X-01268Y-02648*
Y-02648*
X-01268Y-02648*
X-01268Y-02648*
X-01268Y-02648*
X-01268Y-02649*
X-01269Y-0265*
X-0127Y-02651*
X-01271Y-02652*
X-01272Y-02653*
X-01274Y-02654*
X-01274*
X-01274Y-02654*
X-01274Y-02654*
X-01274Y-02654*
X-01275Y-02654*
X-01275Y-02655*
X-01276Y-02655*
X-01278Y-02655*
X-01279Y-02656*
X-01281Y-02656*
X-01282Y-02656*
X-01283*
X-01284Y-02656*
X-01284Y-02656*
X-01285Y-02656*
X-01286Y-02656*
X-01287Y-02656*
X-01289Y-02655*
X-0129Y-02655*
X-01291Y-02654*
X-01292Y-02654*
X-01293Y-02653*
X-01294Y-02652*
X-01295Y-02651*
X-01295Y-02651*
X-01295Y-02651*
X-01295Y-02651*
X-01296Y-0265*
X-01296Y-0265*
X-01296Y-02649*
X-01297Y-02649*
X-01297Y-02648*
X-01298Y-02647*
X-01298Y-02646*
X-01299Y-02644*
X-01299Y-02643*
X-01299Y-02642*
X-01299Y-0264*
X-013Y-02639*
X-013Y-02637*
Y-02637*
Y-02637*
X-013Y-02636*
Y-02635*
X-01299Y-02635*
X-01299Y-02634*
X-01299Y-02633*
X-01299Y-02631*
X-01299Y-0263*
X-01298Y-02629*
X-01298Y-02628*
X-01297Y-02626*
X-01297Y-02625*
X-01296Y-02624*
X-01295Y-02623*
X-01294Y-02622*
X-01294Y-02622*
X-01294Y-02622*
X-01293Y-02622*
X-01293Y-02621*
X-01293Y-02621*
X-01292Y-02621*
X-01292Y-0262*
X-01291Y-0262*
X-0129Y-0262*
X-01289Y-02619*
X-01287Y-02619*
X-01285Y-02618*
X-01284Y-02618*
X-01282Y-02618*
X-01282*
X-01281Y-02618*
G37*
G36*
X-01049Y-02731D02*
X-01056D01*
Y-02724*
X-01049*
Y-02731*
G37*
G36*
X-01108D02*
X-01115D01*
Y-02724*
X-01108*
Y-02731*
G37*
G36*
X-01135D02*
X-01141D01*
Y-02691*
X-01141Y-02692*
X-01141Y-02692*
X-01142Y-02692*
X-01142Y-02693*
X-01143Y-02693*
X-01144Y-02694*
X-01145Y-02695*
X-01147Y-02696*
X-01147*
X-01147Y-02696*
X-01147Y-02696*
X-01148Y-02697*
X-01149Y-02697*
X-0115Y-02697*
X-01151Y-02698*
X-01152Y-02698*
X-01153Y-02699*
Y-02693*
X-01153*
X-01153Y-02693*
X-01153Y-02693*
X-01152Y-02692*
X-01152Y-02692*
X-01151Y-02692*
X-0115Y-02691*
X-01149Y-0269*
X-01147Y-02689*
X-01146Y-02688*
X-01144Y-02687*
X-01144Y-02687*
X-01144Y-02687*
X-01144Y-02687*
X-01143Y-02686*
X-01143Y-02686*
X-01142Y-02685*
X-01141Y-02684*
X-0114Y-02683*
X-01139Y-02681*
X-01139Y-0268*
X-01135*
Y-02731*
G37*
G36*
X-01022Y-0268D02*
X-01021Y-0268D01*
X-0102Y-02681*
X-01019Y-02681*
X-01018Y-02681*
X-01017Y-02682*
X-01017*
X-01017Y-02682*
X-01016Y-02682*
X-01016Y-02683*
X-01015Y-02683*
X-01014Y-02684*
X-01013Y-02685*
X-01012Y-02686*
X-01012Y-02687*
X-01012Y-02687*
X-01011Y-02687*
X-01011Y-02688*
X-0101Y-02689*
X-0101Y-0269*
X-01009Y-02691*
X-01009Y-02693*
X-01008Y-02694*
Y-02694*
X-01008Y-02694*
X-01008Y-02695*
X-01008Y-02695*
X-01008Y-02695*
X-01008Y-02696*
X-01008Y-02697*
X-01008Y-02697*
X-01008Y-02698*
X-01008Y-02699*
X-01008Y-027*
X-01007Y-02701*
X-01007Y-02702*
Y-02703*
X-01007Y-02705*
Y-02706*
Y-02706*
Y-02706*
Y-02707*
Y-02708*
X-01007Y-02708*
Y-02709*
X-01007Y-0271*
X-01007Y-02711*
X-01008Y-02713*
X-01008Y-02716*
X-01009Y-02718*
X-01009Y-02719*
X-01009Y-0272*
Y-0272*
X-01009Y-02721*
X-01009Y-02721*
X-0101Y-02721*
X-0101Y-02722*
X-0101Y-02722*
X-01011Y-02724*
X-01011Y-02725*
X-01012Y-02726*
X-01013Y-02728*
X-01015Y-02729*
X-01015*
X-01015Y-02729*
X-01015Y-02729*
X-01015Y-02729*
X-01016Y-0273*
X-01016Y-0273*
X-01017Y-0273*
X-01018Y-02731*
X-0102Y-02731*
X-01022Y-02732*
X-01024Y-02732*
X-01024*
X-01025Y-02732*
X-01026Y-02732*
X-01026Y-02731*
X-01027Y-02731*
X-01028Y-02731*
X-01029Y-02731*
X-0103Y-02731*
X-01031Y-0273*
X-01032Y-0273*
X-01033Y-02729*
X-01034Y-02728*
X-01034Y-02727*
X-01035Y-02727*
X-01035Y-02727*
X-01035Y-02726*
X-01036Y-02726*
X-01036Y-02725*
X-01036Y-02725*
X-01037Y-02724*
X-01037Y-02723*
X-01038Y-02722*
X-01038Y-0272*
X-01039Y-02719*
X-01039Y-02717*
X-01039Y-02715*
X-0104Y-02713*
X-0104Y-02711*
X-0104Y-02709*
X-0104Y-02706*
Y-02706*
Y-02706*
Y-02705*
Y-02705*
X-0104Y-02704*
Y-02703*
X-0104Y-02702*
X-0104Y-02701*
X-0104Y-02699*
X-01039Y-02696*
X-01039Y-02694*
X-01039Y-02693*
X-01038Y-02692*
Y-02692*
X-01038Y-02691*
X-01038Y-02691*
X-01038Y-02691*
X-01038Y-0269*
X-01038Y-0269*
X-01037Y-02688*
X-01036Y-02687*
X-01035Y-02686*
X-01034Y-02684*
X-01033Y-02683*
X-01033*
X-01033Y-02683*
X-01033Y-02683*
X-01032Y-02683*
X-01032Y-02683*
X-01031Y-02682*
X-0103Y-02682*
X-01029Y-02681*
X-01028Y-02681*
X-01026Y-0268*
X-01024Y-0268*
X-01023*
X-01022Y-0268*
G37*
G36*
X-01081D02*
X-0108Y-0268D01*
X-01079Y-02681*
X-01078Y-02681*
X-01077Y-02681*
X-01076Y-02682*
X-01075*
X-01075Y-02682*
X-01075Y-02682*
X-01074Y-02683*
X-01074Y-02683*
X-01073Y-02684*
X-01072Y-02685*
X-01071Y-02686*
X-0107Y-02687*
X-0107Y-02687*
X-0107Y-02687*
X-0107Y-02688*
X-01069Y-02689*
X-01069Y-0269*
X-01068Y-02691*
X-01068Y-02693*
X-01067Y-02694*
Y-02694*
X-01067Y-02694*
X-01067Y-02695*
X-01067Y-02695*
X-01067Y-02695*
X-01067Y-02696*
X-01067Y-02697*
X-01067Y-02697*
X-01067Y-02698*
X-01066Y-02699*
X-01066Y-027*
X-01066Y-02701*
X-01066Y-02702*
Y-02703*
X-01066Y-02705*
Y-02706*
Y-02706*
Y-02706*
Y-02707*
Y-02708*
X-01066Y-02708*
Y-02709*
X-01066Y-0271*
X-01066Y-02711*
X-01067Y-02713*
X-01067Y-02716*
X-01067Y-02718*
X-01068Y-02719*
X-01068Y-0272*
Y-0272*
X-01068Y-02721*
X-01068Y-02721*
X-01068Y-02721*
X-01069Y-02722*
X-01069Y-02722*
X-01069Y-02724*
X-0107Y-02725*
X-01071Y-02726*
X-01072Y-02728*
X-01073Y-02729*
X-01074*
X-01074Y-02729*
X-01074Y-02729*
X-01074Y-02729*
X-01074Y-0273*
X-01075Y-0273*
X-01076Y-0273*
X-01077Y-02731*
X-01079Y-02731*
X-01081Y-02732*
X-01083Y-02732*
X-01083*
X-01084Y-02732*
X-01084Y-02732*
X-01085Y-02731*
X-01086Y-02731*
X-01087Y-02731*
X-01088Y-02731*
X-01089Y-02731*
X-0109Y-0273*
X-01091Y-0273*
X-01091Y-02729*
X-01092Y-02728*
X-01093Y-02727*
X-01094Y-02727*
X-01094Y-02727*
X-01094Y-02726*
X-01095Y-02726*
X-01095Y-02725*
X-01095Y-02725*
X-01096Y-02724*
X-01096Y-02723*
X-01097Y-02722*
X-01097Y-0272*
X-01097Y-02719*
X-01098Y-02717*
X-01098Y-02715*
X-01099Y-02713*
X-01099Y-02711*
X-01099Y-02709*
X-01099Y-02706*
Y-02706*
Y-02706*
Y-02705*
Y-02705*
X-01099Y-02704*
Y-02703*
X-01099Y-02702*
X-01099Y-02701*
X-01099Y-02699*
X-01098Y-02696*
X-01098Y-02694*
X-01098Y-02693*
X-01097Y-02692*
Y-02692*
X-01097Y-02691*
X-01097Y-02691*
X-01097Y-02691*
X-01097Y-0269*
X-01096Y-0269*
X-01096Y-02688*
X-01095Y-02687*
X-01094Y-02686*
X-01093Y-02684*
X-01092Y-02683*
X-01092*
X-01092Y-02683*
X-01091Y-02683*
X-01091Y-02683*
X-01091Y-02683*
X-0109Y-02682*
X-01089Y-02682*
X-01088Y-02681*
X-01086Y-02681*
X-01085Y-0268*
X-01083Y-0268*
X-01082*
X-01081Y-0268*
G37*
G36*
X-01249Y-02241D02*
X-01257D01*
Y-02232*
X-01249*
Y-02241*
G37*
G36*
X-01215Y-02249D02*
X-01214Y-02249D01*
X-01213Y-02249*
X-01211Y-02249*
X-0121Y-0225*
X-01209Y-0225*
X-01208Y-0225*
X-01208Y-02251*
X-01207Y-02251*
X-01207Y-02251*
X-01206Y-02252*
X-01205Y-02253*
X-01204Y-02253*
X-01203Y-02254*
X-01203Y-02254*
X-01203Y-02255*
X-01203Y-02255*
X-01202Y-02256*
X-01202Y-02257*
X-01202Y-02258*
X-01201Y-02259*
X-01201Y-0226*
Y-0226*
X-01201Y-0226*
X-01201Y-02261*
X-01201Y-02262*
Y-02263*
X-01201Y-02264*
X-01201Y-02266*
Y-02267*
Y-02295*
X-01208*
Y-02268*
Y-02268*
Y-02268*
Y-02267*
Y-02266*
X-01208Y-02265*
X-01208Y-02264*
X-01209Y-02263*
X-01209Y-02262*
X-01209Y-02261*
Y-02261*
X-01209Y-0226*
X-0121Y-0226*
X-0121Y-02259*
X-0121Y-02259*
X-01211Y-02258*
X-01212Y-02257*
X-01213Y-02257*
X-01213Y-02257*
X-01213Y-02257*
X-01213Y-02256*
X-01214Y-02256*
X-01215Y-02256*
X-01216Y-02256*
X-01217Y-02256*
X-01218Y-02255*
X-01218*
X-01219Y-02256*
X-0122Y-02256*
X-01221Y-02256*
X-01222Y-02256*
X-01224Y-02257*
X-01225Y-02258*
X-01226Y-02259*
X-01227Y-02259*
X-01227Y-02259*
X-01227Y-0226*
X-01227Y-0226*
X-01228Y-02261*
X-01228Y-02261*
X-01228Y-02262*
X-01229Y-02263*
X-01229Y-02264*
X-01229Y-02265*
X-0123Y-02266*
X-0123Y-02268*
X-0123Y-02269*
Y-02271*
Y-02295*
X-01238*
Y-0225*
X-01231*
Y-02256*
X-01231Y-02256*
X-0123Y-02256*
X-0123Y-02256*
X-0123Y-02255*
X-01229Y-02255*
X-01229Y-02254*
X-01228Y-02253*
X-01227Y-02252*
X-01226Y-02252*
X-01225Y-02251*
X-01224Y-0225*
X-01223Y-0225*
X-01221Y-02249*
X-0122Y-02249*
X-01218Y-02249*
X-01216Y-02249*
X-01216*
X-01215Y-02249*
G37*
G36*
X-0094D02*
X-00939Y-02249D01*
X-00938Y-02249*
X-00937Y-0225*
X-00935Y-0225*
X-00934Y-02251*
X-00937Y-02258*
X-00937Y-02258*
X-00937Y-02258*
X-00938Y-02258*
X-00938Y-02258*
X-00939Y-02257*
X-0094Y-02257*
X-00941Y-02257*
X-00942Y-02257*
X-00943*
X-00943Y-02257*
X-00944Y-02257*
X-00944Y-02257*
X-00945Y-02257*
X-00946Y-02258*
X-00947Y-02258*
X-00947Y-02258*
X-00947Y-02259*
X-00947Y-02259*
X-00948Y-02259*
X-00948Y-0226*
X-00949Y-02261*
X-00949Y-02262*
X-00949Y-02263*
X-0095Y-02263*
X-0095Y-02263*
X-0095Y-02264*
X-0095Y-02265*
X-0095Y-02267*
X-00951Y-02268*
X-00951Y-0227*
X-00951Y-02272*
Y-02295*
X-00959*
Y-0225*
X-00951*
Y-02257*
X-00951Y-02257*
X-00951Y-02256*
X-00951Y-02255*
X-0095Y-02254*
X-00949Y-02253*
X-00948Y-02252*
X-00947Y-02251*
X-00947Y-0225*
X-00947Y-0225*
X-00946Y-0225*
X-00946Y-0225*
X-00945Y-0225*
X-00944Y-02249*
X-00944Y-02249*
X-00943Y-02249*
X-00942Y-02249*
X-00941*
X-0094Y-02249*
G37*
G36*
X-0097D02*
X-00969Y-02249D01*
X-00967Y-02249*
X-00966Y-0225*
X-00965Y-0225*
X-00963Y-02251*
X-00966Y-02258*
X-00966Y-02258*
X-00966Y-02258*
X-00967Y-02258*
X-00968Y-02258*
X-00968Y-02257*
X-00969Y-02257*
X-0097Y-02257*
X-00971Y-02257*
X-00972*
X-00972Y-02257*
X-00973Y-02257*
X-00974Y-02257*
X-00974Y-02257*
X-00975Y-02258*
X-00976Y-02258*
X-00976Y-02258*
X-00976Y-02259*
X-00977Y-02259*
X-00977Y-02259*
X-00978Y-0226*
X-00978Y-02261*
X-00978Y-02262*
X-00979Y-02263*
X-00979Y-02263*
X-00979Y-02263*
X-00979Y-02264*
X-00979Y-02265*
X-0098Y-02267*
X-0098Y-02268*
X-0098Y-0227*
X-0098Y-02272*
Y-02295*
X-00988*
Y-0225*
X-00981*
Y-02257*
X-00981Y-02257*
X-0098Y-02256*
X-0098Y-02255*
X-00979Y-02254*
X-00978Y-02253*
X-00978Y-02252*
X-00977Y-02251*
X-00976Y-0225*
X-00976Y-0225*
X-00976Y-0225*
X-00975Y-0225*
X-00975Y-0225*
X-00974Y-02249*
X-00973Y-02249*
X-00972Y-02249*
X-00971Y-02249*
X-0097*
X-0097Y-02249*
G37*
G36*
X-01072D02*
X-01071Y-02249D01*
X-0107Y-02249*
X-01069Y-0225*
X-01067Y-0225*
X-01066Y-02251*
X-01069Y-02258*
X-01069Y-02258*
X-01069Y-02258*
X-0107Y-02258*
X-0107Y-02258*
X-01071Y-02257*
X-01072Y-02257*
X-01073Y-02257*
X-01074Y-02257*
X-01075*
X-01075Y-02257*
X-01076Y-02257*
X-01076Y-02257*
X-01077Y-02257*
X-01078Y-02258*
X-01079Y-02258*
X-01079Y-02258*
X-01079Y-02259*
X-01079Y-02259*
X-0108Y-02259*
X-0108Y-0226*
X-01081Y-02261*
X-01081Y-02262*
X-01082Y-02263*
X-01082Y-02263*
X-01082Y-02263*
X-01082Y-02264*
X-01082Y-02265*
X-01083Y-02267*
X-01083Y-02268*
X-01083Y-0227*
X-01083Y-02272*
Y-02295*
X-01091*
Y-0225*
X-01084*
Y-02257*
X-01084Y-02257*
X-01083Y-02256*
X-01083Y-02255*
X-01082Y-02254*
X-01081Y-02253*
X-0108Y-02252*
X-0108Y-02251*
X-01079Y-0225*
X-01079Y-0225*
X-01078Y-0225*
X-01078Y-0225*
X-01077Y-0225*
X-01077Y-02249*
X-01076Y-02249*
X-01075Y-02249*
X-01074Y-02249*
X-01073*
X-01072Y-02249*
G37*
G36*
X-0086Y-02296D02*
Y-02296D01*
X-0086Y-02297*
X-0086Y-02297*
X-0086Y-02297*
X-00861Y-02298*
X-00861Y-02299*
X-00862Y-023*
X-00862Y-02302*
X-00863Y-02304*
X-00864Y-02305*
X-00864Y-02306*
X-00864Y-02307*
X-00864Y-02307*
X-00865Y-02307*
X-00865Y-02308*
X-00866Y-02309*
X-00867Y-0231*
X-00867Y-02311*
X-00868Y-02311*
X-00869Y-02312*
X-00869Y-02312*
X-0087Y-02312*
X-0087Y-02313*
X-00871Y-02313*
X-00872Y-02313*
X-00873Y-02314*
X-00874Y-02314*
X-00876Y-02314*
X-00876*
X-00876Y-02314*
X-00877*
X-00878Y-02314*
X-00879Y-02314*
X-00879Y-02313*
X-0088Y-02313*
X-00881Y-02306*
X-00881*
X-00881Y-02306*
X-0088Y-02306*
X-0088Y-02306*
X-00878Y-02306*
X-00877Y-02307*
X-00876*
X-00876Y-02306*
X-00875*
X-00874Y-02306*
X-00873Y-02306*
X-00873Y-02306*
X-00873*
X-00873Y-02305*
X-00872Y-02305*
X-00872Y-02305*
X-00871Y-02304*
X-0087Y-02303*
Y-02303*
X-0087Y-02303*
X-0087Y-02303*
X-0087Y-02302*
X-00869Y-02301*
X-00869Y-023*
X-00869Y-02299*
X-00868Y-02297*
Y-02297*
X-00868Y-02297*
X-00868Y-02296*
X-00867Y-02295*
X-00885Y-0225*
X-00876*
X-00867Y-02276*
Y-02276*
X-00867Y-02276*
X-00867Y-02277*
X-00867Y-02277*
X-00866Y-02278*
X-00866Y-02278*
X-00866Y-02279*
X-00865Y-02281*
X-00865Y-02283*
X-00864Y-02285*
X-00863Y-02287*
Y-02287*
X-00863Y-02287*
X-00863Y-02286*
X-00863Y-02286*
X-00863Y-02285*
X-00863Y-02285*
X-00863Y-02284*
X-00862Y-02282*
X-00861Y-0228*
X-00861Y-02278*
X-0086Y-02276*
X-0085Y-0225*
X-00843*
X-0086Y-02296*
G37*
G36*
X-00908Y-02249D02*
X-00906Y-02249D01*
X-00905Y-02249*
X-00903Y-02249*
X-00902Y-0225*
X-009Y-0225*
X-009Y-0225*
X-009Y-0225*
X-00899Y-02251*
X-00898Y-02251*
X-00897Y-02252*
X-00896Y-02252*
X-00896Y-02253*
X-00895Y-02254*
X-00895Y-02254*
X-00895Y-02254*
X-00894Y-02254*
X-00894Y-02255*
X-00893Y-02256*
X-00893Y-02257*
X-00893Y-02258*
X-00892Y-02259*
Y-02259*
X-00892Y-02259*
X-00892Y-0226*
X-00892Y-02261*
Y-02262*
X-00892Y-02263*
X-00892Y-02264*
Y-02266*
Y-02276*
Y-02276*
Y-02277*
Y-02277*
Y-02278*
Y-02279*
Y-0228*
X-00892Y-02282*
Y-02284*
X-00892Y-02287*
X-00892Y-02288*
Y-02289*
X-00892Y-02289*
X-00892Y-0229*
Y-0229*
X-00891Y-0229*
X-00891Y-02291*
X-00891Y-02292*
X-00891Y-02293*
X-00891Y-02293*
X-0089Y-02294*
X-0089Y-02295*
X-00898*
X-00898Y-02295*
X-00898Y-02295*
X-00898Y-02295*
X-00898Y-02294*
X-00899Y-02293*
X-00899Y-02292*
X-00899Y-02291*
X-00899Y-0229*
X-00899*
X-00899Y-0229*
X-009Y-0229*
X-00901Y-02291*
X-00902Y-02292*
X-00903Y-02293*
X-00905Y-02294*
X-00906Y-02294*
X-00908Y-02295*
X-00908Y-02295*
X-00908Y-02295*
X-00909Y-02295*
X-0091Y-02296*
X-00911Y-02296*
X-00913Y-02296*
X-00915Y-02296*
X-00916Y-02296*
X-00917*
X-00917Y-02296*
X-00918*
X-00919Y-02296*
X-0092Y-02296*
X-00922Y-02296*
X-00924Y-02295*
X-00926Y-02294*
X-00928Y-02293*
X-00928Y-02293*
X-00928Y-02292*
X-00929Y-02291*
X-0093Y-0229*
X-0093Y-02289*
X-00931Y-02287*
X-00932Y-02285*
X-00932Y-02285*
X-00932Y-02283*
Y-02283*
Y-02283*
X-00932Y-02282*
X-00932Y-02281*
X-00931Y-0228*
X-00931Y-02279*
X-00931Y-02278*
X-0093Y-02277*
X-0093Y-02277*
X-0093Y-02277*
X-0093Y-02276*
X-00929Y-02276*
X-00929Y-02275*
X-00928Y-02274*
X-00927Y-02274*
X-00926Y-02273*
X-00926Y-02273*
X-00926Y-02273*
X-00925Y-02272*
X-00925Y-02272*
X-00924Y-02272*
X-00923Y-02271*
X-00922Y-02271*
X-00921Y-0227*
X-00921*
X-0092Y-0227*
X-0092Y-0227*
X-00919Y-0227*
X-00918Y-0227*
X-00917Y-0227*
X-00915Y-02269*
X-00914Y-02269*
X-00914*
X-00913Y-02269*
X-00913*
X-00912Y-02269*
X-00912Y-02269*
X-00911Y-02269*
X-0091Y-02269*
X-00908Y-02268*
X-00906Y-02268*
X-00904Y-02268*
X-00902Y-02267*
X-00901Y-02267*
X-009Y-02266*
Y-02266*
Y-02266*
X-009Y-02266*
Y-02265*
Y-02265*
Y-02264*
Y-02264*
Y-02264*
Y-02264*
X-009Y-02263*
X-009Y-02262*
X-009Y-02261*
X-00901Y-0226*
X-00901Y-02259*
X-00902Y-02258*
X-00902Y-02258*
X-00903Y-02257*
X-00903Y-02257*
X-00904Y-02256*
X-00906Y-02256*
X-00907Y-02255*
X-00909Y-02255*
X-00911Y-02255*
X-00912*
X-00913Y-02255*
X-00914Y-02255*
X-00915Y-02256*
X-00917Y-02256*
X-00918Y-02256*
X-00919Y-02257*
X-00919Y-02257*
X-0092Y-02257*
X-0092Y-02258*
X-00921Y-02259*
X-00921Y-0226*
X-00922Y-02261*
X-00922Y-02262*
X-00923Y-02264*
X-0093Y-02263*
Y-02263*
X-0093Y-02263*
Y-02262*
X-0093Y-02262*
X-0093Y-02261*
X-0093Y-0226*
X-00929Y-02259*
X-00929Y-02257*
X-00928Y-02256*
X-00927Y-02255*
X-00927Y-02255*
X-00927Y-02255*
X-00926Y-02254*
X-00925Y-02253*
X-00924Y-02253*
X-00923Y-02252*
X-00922Y-02251*
X-0092Y-0225*
X-0092*
X-0092Y-0225*
X-0092Y-0225*
X-00919Y-0225*
X-00918Y-0225*
X-00917Y-0225*
X-00916Y-02249*
X-00914Y-02249*
X-00912Y-02249*
X-0091Y-02249*
X-00909*
X-00908Y-02249*
G37*
G36*
X-01015D02*
X-01014Y-02249D01*
X-01013Y-02249*
X-01011Y-02249*
X-01009Y-0225*
X-01008Y-0225*
X-01008Y-0225*
X-01007Y-0225*
X-01007Y-02251*
X-01006Y-02251*
X-01005Y-02252*
X-01004Y-02252*
X-01003Y-02253*
X-01003Y-02254*
X-01002Y-02254*
X-01002Y-02254*
X-01002Y-02254*
X-01002Y-02255*
X-01001Y-02256*
X-01001Y-02257*
X-01Y-02258*
X-01Y-02259*
Y-02259*
X-01Y-02259*
X-01Y-0226*
X-01Y-02261*
Y-02262*
X-01Y-02263*
X-01Y-02264*
Y-02266*
Y-02276*
Y-02276*
Y-02277*
Y-02277*
Y-02278*
Y-02279*
Y-0228*
X-01Y-02282*
Y-02284*
X-01Y-02287*
X-00999Y-02288*
Y-02289*
X-00999Y-02289*
X-00999Y-0229*
Y-0229*
X-00999Y-0229*
X-00999Y-02291*
X-00999Y-02292*
X-00999Y-02293*
X-00998Y-02293*
X-00998Y-02294*
X-00997Y-02295*
X-01005*
X-01006Y-02295*
X-01006Y-02295*
X-01006Y-02295*
X-01006Y-02294*
X-01006Y-02293*
X-01007Y-02292*
X-01007Y-02291*
X-01007Y-0229*
X-01007*
X-01007Y-0229*
X-01008Y-0229*
X-01008Y-02291*
X-0101Y-02292*
X-01011Y-02293*
X-01012Y-02294*
X-01014Y-02294*
X-01015Y-02295*
X-01015Y-02295*
X-01016Y-02295*
X-01017Y-02295*
X-01018Y-02296*
X-01019Y-02296*
X-01021Y-02296*
X-01022Y-02296*
X-01024Y-02296*
X-01025*
X-01025Y-02296*
X-01026*
X-01026Y-02296*
X-01028Y-02296*
X-0103Y-02296*
X-01032Y-02295*
X-01034Y-02294*
X-01035Y-02293*
X-01036Y-02293*
X-01036Y-02292*
X-01037Y-02291*
X-01037Y-0229*
X-01038Y-02289*
X-01039Y-02287*
X-01039Y-02285*
X-01039Y-02285*
X-01039Y-02283*
Y-02283*
Y-02283*
X-01039Y-02282*
X-01039Y-02281*
X-01039Y-0228*
X-01039Y-02279*
X-01038Y-02278*
X-01038Y-02277*
X-01038Y-02277*
X-01038Y-02277*
X-01037Y-02276*
X-01037Y-02276*
X-01036Y-02275*
X-01036Y-02274*
X-01035Y-02274*
X-01034Y-02273*
X-01034Y-02273*
X-01033Y-02273*
X-01033Y-02272*
X-01032Y-02272*
X-01031Y-02272*
X-0103Y-02271*
X-01029Y-02271*
X-01028Y-0227*
X-01028*
X-01028Y-0227*
X-01027Y-0227*
X-01027Y-0227*
X-01026Y-0227*
X-01024Y-0227*
X-01023Y-02269*
X-01021Y-02269*
X-01021*
X-01021Y-02269*
X-01021*
X-0102Y-02269*
X-01019Y-02269*
X-01018Y-02269*
X-01017Y-02269*
X-01016Y-02268*
X-01014Y-02268*
X-01012Y-02268*
X-0101Y-02267*
X-01009Y-02267*
X-01008Y-02266*
Y-02266*
Y-02266*
X-01008Y-02266*
Y-02265*
Y-02265*
Y-02264*
Y-02264*
Y-02264*
Y-02264*
X-01008Y-02263*
X-01008Y-02262*
X-01008Y-02261*
X-01009Y-0226*
X-01009Y-02259*
X-0101Y-02258*
X-0101Y-02258*
X-0101Y-02257*
X-01011Y-02257*
X-01012Y-02256*
X-01013Y-02256*
X-01015Y-02255*
X-01017Y-02255*
X-01019Y-02255*
X-0102*
X-0102Y-02255*
X-01022Y-02255*
X-01023Y-02256*
X-01024Y-02256*
X-01026Y-02256*
X-01027Y-02257*
X-01027Y-02257*
X-01027Y-02257*
X-01028Y-02258*
X-01028Y-02259*
X-01029Y-0226*
X-01029Y-02261*
X-0103Y-02262*
X-0103Y-02264*
X-01038Y-02263*
Y-02263*
X-01038Y-02263*
Y-02262*
X-01038Y-02262*
X-01038Y-02261*
X-01037Y-0226*
X-01037Y-02259*
X-01036Y-02257*
X-01035Y-02256*
X-01035Y-02255*
X-01035Y-02255*
X-01034Y-02255*
X-01034Y-02254*
X-01033Y-02253*
X-01032Y-02253*
X-01031Y-02252*
X-01029Y-02251*
X-01028Y-0225*
X-01028*
X-01028Y-0225*
X-01027Y-0225*
X-01027Y-0225*
X-01026Y-0225*
X-01025Y-0225*
X-01023Y-02249*
X-01022Y-02249*
X-0102Y-02249*
X-01017Y-02249*
X-01016*
X-01015Y-02249*
G37*
G36*
X-01118D02*
X-01117Y-02249D01*
X-01115Y-02249*
X-01114Y-02249*
X-01112Y-0225*
X-01111Y-0225*
X-01111Y-0225*
X-0111Y-0225*
X-0111Y-02251*
X-01109Y-02251*
X-01108Y-02252*
X-01107Y-02252*
X-01106Y-02253*
X-01105Y-02254*
X-01105Y-02254*
X-01105Y-02254*
X-01105Y-02254*
X-01104Y-02255*
X-01104Y-02256*
X-01104Y-02257*
X-01103Y-02258*
X-01103Y-02259*
Y-02259*
X-01103Y-02259*
X-01103Y-0226*
X-01103Y-02261*
Y-02262*
X-01103Y-02263*
X-01103Y-02264*
Y-02266*
Y-02276*
Y-02276*
Y-02277*
Y-02277*
Y-02278*
Y-02279*
Y-0228*
X-01102Y-02282*
Y-02284*
X-01102Y-02287*
X-01102Y-02288*
Y-02289*
X-01102Y-02289*
X-01102Y-0229*
Y-0229*
X-01102Y-0229*
X-01102Y-02291*
X-01102Y-02292*
X-01101Y-02293*
X-01101Y-02293*
X-01101Y-02294*
X-011Y-02295*
X-01108*
X-01108Y-02295*
X-01108Y-02295*
X-01109Y-02295*
X-01109Y-02294*
X-01109Y-02293*
X-01109Y-02292*
X-0111Y-02291*
X-0111Y-0229*
X-0111*
X-0111Y-0229*
X-0111Y-0229*
X-01111Y-02291*
X-01112Y-02292*
X-01114Y-02293*
X-01115Y-02294*
X-01117Y-02294*
X-01118Y-02295*
X-01118Y-02295*
X-01119Y-02295*
X-0112Y-02295*
X-01121Y-02296*
X-01122Y-02296*
X-01123Y-02296*
X-01125Y-02296*
X-01127Y-02296*
X-01127*
X-01128Y-02296*
X-01129*
X-01129Y-02296*
X-01131Y-02296*
X-01133Y-02296*
X-01135Y-02295*
X-01137Y-02294*
X-01138Y-02293*
X-01138Y-02293*
X-01139Y-02292*
X-0114Y-02291*
X-0114Y-0229*
X-01141Y-02289*
X-01142Y-02287*
X-01142Y-02285*
X-01142Y-02285*
X-01142Y-02283*
Y-02283*
Y-02283*
X-01142Y-02282*
X-01142Y-02281*
X-01142Y-0228*
X-01142Y-02279*
X-01141Y-02278*
X-01141Y-02277*
X-01141Y-02277*
X-01141Y-02277*
X-0114Y-02276*
X-0114Y-02276*
X-01139Y-02275*
X-01138Y-02274*
X-01138Y-02274*
X-01137Y-02273*
X-01137Y-02273*
X-01136Y-02273*
X-01136Y-02272*
X-01135Y-02272*
X-01134Y-02272*
X-01133Y-02271*
X-01132Y-02271*
X-01131Y-0227*
X-01131*
X-01131Y-0227*
X-0113Y-0227*
X-01129Y-0227*
X-01129Y-0227*
X-01127Y-0227*
X-01126Y-02269*
X-01124Y-02269*
X-01124*
X-01124Y-02269*
X-01123*
X-01123Y-02269*
X-01122Y-02269*
X-01121Y-02269*
X-0112Y-02269*
X-01119Y-02268*
X-01117Y-02268*
X-01114Y-02268*
X-01112Y-02267*
X-01111Y-02267*
X-0111Y-02266*
Y-02266*
Y-02266*
X-0111Y-02266*
Y-02265*
Y-02265*
Y-02264*
Y-02264*
Y-02264*
Y-02264*
X-0111Y-02263*
X-01111Y-02262*
X-01111Y-02261*
X-01111Y-0226*
X-01112Y-02259*
X-01113Y-02258*
X-01113Y-02258*
X-01113Y-02257*
X-01114Y-02257*
X-01115Y-02256*
X-01116Y-02256*
X-01118Y-02255*
X-01119Y-02255*
X-01121Y-02255*
X-01122*
X-01123Y-02255*
X-01125Y-02255*
X-01126Y-02256*
X-01127Y-02256*
X-01129Y-02256*
X-0113Y-02257*
X-0113Y-02257*
X-0113Y-02257*
X-01131Y-02258*
X-01131Y-02259*
X-01132Y-0226*
X-01132Y-02261*
X-01133Y-02262*
X-01133Y-02264*
X-01141Y-02263*
Y-02263*
X-01141Y-02263*
Y-02262*
X-01141Y-02262*
X-0114Y-02261*
X-0114Y-0226*
X-0114Y-02259*
X-01139Y-02257*
X-01138Y-02256*
X-01138Y-02255*
X-01137Y-02255*
X-01137Y-02255*
X-01137Y-02254*
X-01136Y-02253*
X-01135Y-02253*
X-01134Y-02252*
X-01132Y-02251*
X-01131Y-0225*
X-01131*
X-01131Y-0225*
X-0113Y-0225*
X-0113Y-0225*
X-01129Y-0225*
X-01128Y-0225*
X-01126Y-02249*
X-01124Y-02249*
X-01122Y-02249*
X-0112Y-02249*
X-01119*
X-01118Y-02249*
G37*
G36*
X-01249Y-02295D02*
X-01257D01*
Y-0225*
X-01249*
Y-02295*
G37*
G36*
X-01297Y-02288D02*
X-01266D01*
Y-02295*
X-01306*
Y-02232*
X-01297*
Y-02288*
G37*
G36*
X-01168Y-02249D02*
X-01168Y-02249D01*
X-01167Y-02249*
X-01166Y-02249*
X-01165Y-0225*
X-01163Y-0225*
X-01162Y-0225*
X-01161Y-02251*
X-0116Y-02251*
X-01158Y-02252*
X-01157Y-02253*
X-01156Y-02254*
X-01155Y-02255*
X-01155Y-02255*
X-01155Y-02255*
X-01154Y-02256*
X-01154Y-02256*
X-01154Y-02257*
X-01153Y-02258*
X-01153Y-02259*
X-01152Y-0226*
X-01151Y-02261*
X-01151Y-02262*
X-0115Y-02264*
X-0115Y-02265*
X-0115Y-02267*
X-01149Y-02269*
X-01149Y-02271*
X-01149Y-02273*
Y-02273*
Y-02273*
Y-02274*
X-01149Y-02275*
X-01183*
Y-02275*
Y-02275*
X-01183Y-02275*
Y-02276*
X-01183Y-02277*
X-01183Y-02277*
X-01183Y-02279*
X-01182Y-02281*
X-01181Y-02283*
X-0118Y-02285*
X-01179Y-02286*
X-01179*
X-01179Y-02286*
X-01178Y-02287*
X-01178Y-02287*
X-01177Y-02288*
X-01175Y-02289*
X-01173Y-02289*
X-01172Y-0229*
X-01171Y-0229*
X-0117Y-0229*
X-01169*
X-01168Y-0229*
X-01167Y-0229*
X-01166Y-0229*
X-01165Y-02289*
X-01163Y-02289*
X-01162Y-02288*
X-01162Y-02288*
X-01162Y-02287*
X-01161Y-02287*
X-0116Y-02286*
X-0116Y-02285*
X-01159Y-02284*
X-01158Y-02282*
X-01157Y-02281*
X-01149Y-02282*
Y-02282*
X-01149Y-02282*
X-0115Y-02282*
X-0115Y-02283*
X-0115Y-02283*
X-0115Y-02284*
X-01151Y-02286*
X-01152Y-02287*
X-01153Y-02289*
X-01155Y-02291*
X-01156Y-02293*
X-01157*
X-01157Y-02293*
X-01157Y-02293*
X-01157Y-02293*
X-01158Y-02294*
X-01158Y-02294*
X-01159Y-02294*
X-0116Y-02295*
X-01161Y-02295*
X-01162Y-02295*
X-01164Y-02296*
X-01167Y-02296*
X-0117Y-02296*
X-01171*
X-01171Y-02296*
X-01172Y-02296*
X-01173Y-02296*
X-01174Y-02296*
X-01175Y-02296*
X-01178Y-02295*
X-01179Y-02294*
X-0118Y-02294*
X-01182Y-02293*
X-01183Y-02292*
X-01184Y-02291*
X-01185Y-0229*
X-01186Y-0229*
X-01186Y-0229*
X-01186Y-0229*
X-01186Y-02289*
X-01187Y-02289*
X-01187Y-02288*
X-01188Y-02287*
X-01188Y-02286*
X-01189Y-02285*
X-01189Y-02283*
X-0119Y-02282*
X-0119Y-0228*
X-01191Y-02279*
X-01191Y-02277*
X-01191Y-02275*
X-01191Y-02273*
Y-02273*
Y-02273*
Y-02272*
X-01191Y-02271*
X-01191Y-0227*
X-01191Y-02269*
X-01191Y-02268*
X-01191Y-02267*
X-0119Y-02264*
X-01189Y-02262*
X-01189Y-02261*
X-01188Y-02259*
X-01187Y-02258*
X-01186Y-02256*
X-01185Y-02255*
X-01185Y-02255*
X-01185Y-02255*
X-01185Y-02255*
X-01184Y-02254*
X-01184Y-02254*
X-01183Y-02253*
X-01182Y-02252*
X-01181Y-02252*
X-0118Y-02251*
X-01179Y-02251*
X-01178Y-0225*
X-01176Y-0225*
X-01175Y-02249*
X-01173Y-02249*
X-01172Y-02249*
X-0117Y-02249*
X-01169*
X-01168Y-02249*
G37*
G36*
X-01138Y-02342D02*
X-01137Y-02342D01*
X-01136Y-02342*
X-01135Y-02342*
X-01134Y-02343*
X-01132Y-02343*
X-01132Y-02343*
X-01132Y-02343*
X-01131Y-02344*
X-0113Y-02344*
X-01129Y-02345*
X-01129Y-02345*
X-01128Y-02346*
X-01127Y-02347*
X-01127Y-02347*
X-01127Y-02347*
X-01127Y-02348*
X-01126Y-02349*
X-01126Y-02349*
X-01125Y-0235*
X-01125Y-02351*
X-01125Y-02353*
Y-02353*
X-01124Y-02353*
X-01124Y-02354*
X-01124Y-02354*
Y-02355*
X-01124Y-02357*
X-01124Y-02358*
Y-0236*
Y-02388*
X-01132*
Y-02361*
Y-0236*
Y-0236*
Y-0236*
Y-02359*
X-01132Y-02358*
X-01132Y-02357*
X-01132Y-02356*
X-01133Y-02354*
X-01133Y-02353*
Y-02353*
X-01133Y-02353*
X-01133Y-02353*
X-01134Y-02352*
X-01134Y-02352*
X-01135Y-02351*
X-01135Y-0235*
X-01136Y-0235*
X-01136Y-0235*
X-01136Y-02349*
X-01137Y-02349*
X-01138Y-02349*
X-01138Y-02349*
X-01139Y-02348*
X-0114Y-02348*
X-01141Y-02348*
X-01142*
X-01142Y-02348*
X-01143Y-02348*
X-01144Y-02349*
X-01146Y-02349*
X-01147Y-0235*
X-01149Y-0235*
X-0115Y-02351*
X-0115Y-02352*
X-0115Y-02352*
X-01151Y-02352*
X-01151Y-02353*
X-01151Y-02353*
X-01152Y-02354*
X-01152Y-02355*
X-01152Y-02356*
X-01153Y-02357*
X-01153Y-02358*
X-01153Y-02359*
X-01153Y-0236*
X-01153Y-02362*
Y-02363*
Y-02388*
X-01161*
Y-02343*
X-01154*
Y-02349*
X-01154Y-02349*
X-01154Y-02349*
X-01154Y-02348*
X-01153Y-02348*
X-01153Y-02347*
X-01152Y-02347*
X-01151Y-02346*
X-01151Y-02345*
X-0115Y-02345*
X-01149Y-02344*
X-01147Y-02343*
X-01146Y-02343*
X-01145Y-02342*
X-01143Y-02342*
X-01142Y-02342*
X-0114Y-02342*
X-01139*
X-01138Y-02342*
G37*
G36*
X-01187D02*
X-01186Y-02342D01*
X-01185Y-02342*
X-01184Y-02342*
X-01183Y-02343*
X-01181Y-02343*
X-01181Y-02343*
X-01181Y-02343*
X-0118Y-02344*
X-01179Y-02344*
X-01178Y-02345*
X-01178Y-02345*
X-01177Y-02346*
X-01176Y-02347*
X-01176Y-02347*
X-01176Y-02347*
X-01176Y-02348*
X-01175Y-02349*
X-01175Y-02349*
X-01174Y-0235*
X-01174Y-02351*
X-01174Y-02353*
Y-02353*
X-01174Y-02353*
X-01173Y-02354*
X-01173Y-02354*
Y-02355*
X-01173Y-02357*
X-01173Y-02358*
Y-0236*
Y-02388*
X-01181*
Y-02361*
Y-0236*
Y-0236*
Y-0236*
Y-02359*
X-01181Y-02358*
X-01181Y-02357*
X-01181Y-02356*
X-01182Y-02354*
X-01182Y-02353*
Y-02353*
X-01182Y-02353*
X-01182Y-02353*
X-01183Y-02352*
X-01183Y-02352*
X-01184Y-02351*
X-01184Y-0235*
X-01185Y-0235*
X-01185Y-0235*
X-01185Y-02349*
X-01186Y-02349*
X-01187Y-02349*
X-01187Y-02349*
X-01188Y-02348*
X-01189Y-02348*
X-0119Y-02348*
X-01191*
X-01191Y-02348*
X-01192Y-02348*
X-01193Y-02349*
X-01195Y-02349*
X-01196Y-0235*
X-01198Y-0235*
X-01199Y-02351*
X-01199Y-02352*
X-01199Y-02352*
X-012Y-02352*
X-012Y-02353*
X-012Y-02353*
X-01201Y-02354*
X-01201Y-02355*
X-01201Y-02356*
X-01202Y-02357*
X-01202Y-02358*
X-01202Y-02359*
X-01202Y-0236*
X-01202Y-02362*
Y-02363*
Y-02388*
X-0121*
Y-02343*
X-01203*
Y-02349*
X-01203Y-02349*
X-01203Y-02349*
X-01203Y-02348*
X-01202Y-02348*
X-01202Y-02347*
X-01201Y-02347*
X-012Y-02346*
X-012Y-02345*
X-01199Y-02345*
X-01198Y-02344*
X-01196Y-02343*
X-01195Y-02343*
X-01194Y-02342*
X-01192Y-02342*
X-01191Y-02342*
X-01189Y-02342*
X-01188*
X-01187Y-02342*
G37*
G36*
X-00927D02*
X-00926Y-02342D01*
X-00925Y-02342*
X-00924Y-02343*
X-00922Y-02343*
X-00921Y-02344*
X-00924Y-02351*
X-00924Y-02351*
X-00924Y-02351*
X-00925Y-02351*
X-00925Y-0235*
X-00926Y-0235*
X-00927Y-0235*
X-00928Y-0235*
X-00929Y-0235*
X-0093*
X-0093Y-0235*
X-00931Y-0235*
X-00931Y-0235*
X-00932Y-0235*
X-00933Y-02351*
X-00934Y-02351*
X-00934Y-02351*
X-00934Y-02351*
X-00934Y-02352*
X-00935Y-02352*
X-00935Y-02353*
X-00936Y-02354*
X-00936Y-02354*
X-00937Y-02355*
X-00937Y-02356*
X-00937Y-02356*
X-00937Y-02357*
X-00937Y-02358*
X-00938Y-02359*
X-00938Y-02361*
X-00938Y-02363*
X-00938Y-02364*
Y-02388*
X-00946*
Y-02343*
X-00939*
Y-02349*
X-00939Y-02349*
X-00938Y-02349*
X-00938Y-02348*
X-00937Y-02347*
X-00936Y-02346*
X-00935Y-02345*
X-00935Y-02344*
X-00934Y-02343*
X-00934Y-02343*
X-00933Y-02343*
X-00933Y-02343*
X-00932Y-02342*
X-00932Y-02342*
X-00931Y-02342*
X-0093Y-02342*
X-00929Y-02342*
X-00928*
X-00927Y-02342*
G37*
G36*
X-01043D02*
X-01043D01*
X-01042Y-02342*
X-0104Y-02342*
X-01038Y-02342*
X-01036Y-02343*
X-01034Y-02344*
X-01033Y-02345*
X-01032*
X-01032Y-02346*
X-01032Y-02346*
X-01031Y-02347*
X-0103Y-02348*
X-01029Y-0235*
X-01028Y-02351*
X-01027Y-02353*
X-01026Y-02356*
X-01034Y-02357*
Y-02357*
X-01034Y-02357*
X-01034Y-02356*
X-01034Y-02356*
X-01035Y-02355*
X-01035Y-02353*
X-01036Y-02352*
X-01037Y-02351*
X-01038Y-0235*
X-01038Y-0235*
X-01038Y-0235*
X-01039Y-0235*
X-0104Y-02349*
X-01041Y-02349*
X-01042Y-02348*
X-01043Y-02348*
X-01044Y-02348*
X-01045*
X-01045Y-02348*
X-01046Y-02348*
X-01048Y-02348*
X-01049Y-02349*
X-01051Y-0235*
X-01052Y-02351*
X-01053Y-02351*
X-01054Y-02352*
Y-02352*
X-01054Y-02352*
X-01054Y-02353*
X-01054Y-02353*
X-01055Y-02353*
X-01055Y-02354*
X-01055Y-02355*
X-01056Y-02355*
X-01056Y-02356*
X-01056Y-02357*
X-01057Y-02358*
X-01057Y-02359*
X-01057Y-02361*
X-01057Y-02362*
X-01058Y-02364*
Y-02365*
Y-02365*
Y-02366*
Y-02366*
X-01057Y-02367*
Y-02368*
X-01057Y-02368*
X-01057Y-0237*
X-01057Y-02373*
X-01056Y-02375*
X-01055Y-02377*
X-01055Y-02378*
X-01054Y-02379*
X-01054Y-02379*
X-01053Y-02379*
X-01053Y-0238*
X-01052Y-02381*
X-0105Y-02382*
X-01049Y-02382*
X-01047Y-02383*
X-01046Y-02383*
X-01045Y-02383*
X-01045*
X-01044Y-02383*
X-01043Y-02383*
X-01042Y-02383*
X-01041Y-02382*
X-0104Y-02382*
X-01038Y-02381*
X-01037Y-0238*
X-01037Y-0238*
X-01037Y-0238*
X-01036Y-02379*
X-01036Y-02378*
X-01035Y-02377*
X-01034Y-02375*
X-01034Y-02374*
X-01033Y-02372*
X-01026Y-02373*
Y-02373*
X-01026Y-02373*
X-01026Y-02373*
X-01026Y-02374*
X-01026Y-02375*
X-01026Y-02375*
X-01027Y-02377*
X-01028Y-02379*
X-01029Y-02381*
X-0103Y-02383*
X-01031Y-02384*
X-01032Y-02385*
X-01032Y-02385*
X-01032Y-02385*
X-01033Y-02385*
X-01033Y-02386*
X-01034Y-02386*
X-01034Y-02386*
X-01035Y-02387*
X-01036Y-02387*
X-01037Y-02388*
X-0104Y-02389*
X-01042Y-02389*
X-01043Y-02389*
X-01045Y-02389*
X-01046*
X-01046Y-02389*
X-01047Y-02389*
X-01048Y-02389*
X-01049Y-02389*
X-0105Y-02389*
X-01053Y-02388*
X-01054Y-02387*
X-01055Y-02387*
X-01056Y-02386*
X-01058Y-02385*
X-01059Y-02384*
X-0106Y-02383*
X-0106Y-02383*
X-0106Y-02383*
X-0106Y-02383*
X-01061Y-02382*
X-01061Y-02381*
X-01062Y-02381*
X-01062Y-0238*
X-01063Y-02379*
X-01063Y-02378*
X-01064Y-02376*
X-01064Y-02375*
X-01065Y-02373*
X-01065Y-02372*
X-01065Y-0237*
X-01065Y-02368*
X-01065Y-02366*
Y-02365*
Y-02365*
Y-02365*
Y-02364*
X-01065Y-02364*
Y-02363*
X-01065Y-02362*
X-01065Y-02361*
X-01065Y-02359*
X-01064Y-02357*
X-01064Y-02355*
X-01063Y-02353*
Y-02353*
X-01063Y-02352*
X-01063Y-02352*
X-01063Y-02352*
X-01062Y-02351*
X-01061Y-0235*
X-0106Y-02348*
X-01059Y-02347*
X-01057Y-02345*
X-01056Y-02344*
X-01056*
X-01055Y-02344*
X-01055Y-02344*
X-01055Y-02344*
X-01054Y-02344*
X-01054Y-02343*
X-01052Y-02343*
X-01051Y-02342*
X-01049Y-02342*
X-01047Y-02342*
X-01045Y-02342*
X-01044*
X-01043Y-02342*
G37*
G36*
X-01284D02*
X-01283D01*
X-01282Y-02342*
X-01281Y-02342*
X-01279Y-02342*
X-01277Y-02343*
X-01275Y-02344*
X-01273Y-02345*
X-01273*
X-01273Y-02346*
X-01272Y-02346*
X-01271Y-02347*
X-0127Y-02348*
X-01269Y-0235*
X-01268Y-02351*
X-01267Y-02353*
X-01267Y-02356*
X-01274Y-02357*
Y-02357*
X-01274Y-02357*
X-01274Y-02356*
X-01275Y-02356*
X-01275Y-02355*
X-01276Y-02353*
X-01276Y-02352*
X-01277Y-02351*
X-01278Y-0235*
X-01278Y-0235*
X-01278Y-0235*
X-01279Y-0235*
X-0128Y-02349*
X-01281Y-02349*
X-01282Y-02348*
X-01283Y-02348*
X-01285Y-02348*
X-01285*
X-01286Y-02348*
X-01287Y-02348*
X-01288Y-02348*
X-01289Y-02349*
X-01291Y-0235*
X-01293Y-02351*
X-01293Y-02351*
X-01294Y-02352*
Y-02352*
X-01294Y-02352*
X-01294Y-02353*
X-01295Y-02353*
X-01295Y-02353*
X-01295Y-02354*
X-01295Y-02355*
X-01296Y-02355*
X-01296Y-02356*
X-01296Y-02357*
X-01297Y-02358*
X-01297Y-02359*
X-01297Y-02361*
X-01297Y-02362*
X-01298Y-02364*
Y-02365*
Y-02365*
Y-02366*
Y-02366*
X-01298Y-02367*
Y-02368*
X-01297Y-02368*
X-01297Y-0237*
X-01297Y-02373*
X-01296Y-02375*
X-01295Y-02377*
X-01295Y-02378*
X-01294Y-02379*
X-01294Y-02379*
X-01294Y-02379*
X-01293Y-0238*
X-01292Y-02381*
X-0129Y-02382*
X-01289Y-02382*
X-01287Y-02383*
X-01286Y-02383*
X-01285Y-02383*
X-01285*
X-01284Y-02383*
X-01283Y-02383*
X-01282Y-02383*
X-01281Y-02382*
X-0128Y-02382*
X-01279Y-02381*
X-01277Y-0238*
X-01277Y-0238*
X-01277Y-0238*
X-01276Y-02379*
X-01276Y-02378*
X-01275Y-02377*
X-01274Y-02375*
X-01274Y-02374*
X-01274Y-02372*
X-01266Y-02373*
Y-02373*
X-01266Y-02373*
X-01266Y-02373*
X-01266Y-02374*
X-01266Y-02375*
X-01267Y-02375*
X-01267Y-02377*
X-01268Y-02379*
X-01269Y-02381*
X-01271Y-02383*
X-01271Y-02384*
X-01272Y-02385*
X-01272Y-02385*
X-01273Y-02385*
X-01273Y-02385*
X-01273Y-02386*
X-01274Y-02386*
X-01274Y-02386*
X-01275Y-02387*
X-01276Y-02387*
X-01278Y-02388*
X-0128Y-02389*
X-01282Y-02389*
X-01284Y-02389*
X-01285Y-02389*
X-01286*
X-01286Y-02389*
X-01287Y-02389*
X-01288Y-02389*
X-01289Y-02389*
X-0129Y-02389*
X-01293Y-02388*
X-01294Y-02387*
X-01295Y-02387*
X-01296Y-02386*
X-01298Y-02385*
X-01299Y-02384*
X-013Y-02383*
X-013Y-02383*
X-013Y-02383*
X-01301Y-02383*
X-01301Y-02382*
X-01301Y-02381*
X-01302Y-02381*
X-01302Y-0238*
X-01303Y-02379*
X-01303Y-02378*
X-01304Y-02376*
X-01304Y-02375*
X-01305Y-02373*
X-01305Y-02372*
X-01305Y-0237*
X-01306Y-02368*
X-01306Y-02366*
Y-02365*
Y-02365*
Y-02365*
Y-02364*
X-01306Y-02364*
Y-02363*
X-01305Y-02362*
X-01305Y-02361*
X-01305Y-02359*
X-01305Y-02357*
X-01304Y-02355*
X-01303Y-02353*
Y-02353*
X-01303Y-02352*
X-01303Y-02352*
X-01303Y-02352*
X-01302Y-02351*
X-01301Y-0235*
X-013Y-02348*
X-01299Y-02347*
X-01297Y-02345*
X-01296Y-02344*
X-01296*
X-01295Y-02344*
X-01295Y-02344*
X-01295Y-02344*
X-01294Y-02344*
X-01294Y-02343*
X-01292Y-02343*
X-01291Y-02342*
X-01289Y-02342*
X-01287Y-02342*
X-01285Y-02342*
X-01284*
X-01284Y-02342*
G37*
G36*
X-0101Y-02343D02*
X-01002D01*
Y-02349*
X-0101*
Y-02375*
Y-02376*
Y-02376*
Y-02377*
X-0101Y-02377*
X-0101Y-02379*
X-0101Y-02379*
X-0101Y-0238*
X-0101Y-0238*
X-01009Y-0238*
X-01009Y-02381*
X-01008Y-02381*
X-01008Y-02381*
X-01008Y-02381*
X-01007Y-02382*
X-01006Y-02382*
X-01005*
X-01004Y-02382*
X-01004*
X-01003Y-02382*
X-01002Y-02381*
X-01001Y-02388*
X-01001*
X-01002Y-02388*
X-01002Y-02388*
X-01003Y-02389*
X-01004Y-02389*
X-01005Y-02389*
X-01007Y-02389*
X-01008*
X-01009Y-02389*
X-0101Y-02389*
X-01011Y-02389*
X-01012Y-02388*
X-01013Y-02388*
X-01014Y-02388*
X-01014Y-02388*
X-01014Y-02387*
X-01014Y-02387*
X-01015Y-02387*
X-01015Y-02386*
X-01016Y-02386*
X-01017Y-02385*
X-01017Y-02384*
Y-02384*
X-01017Y-02384*
X-01017Y-02383*
X-01017Y-02382*
X-01018Y-02381*
X-01018Y-0238*
Y-02379*
X-01018Y-02378*
X-01018Y-02377*
Y-02376*
Y-02375*
Y-02349*
X-01024*
Y-02343*
X-01018*
Y-02331*
X-0101Y-02327*
Y-02343*
G37*
G36*
X-00975Y-02342D02*
X-00974Y-02342D01*
X-00973Y-02342*
X-00972Y-02342*
X-00971Y-02342*
X-00968Y-02343*
X-00967Y-02344*
X-00966Y-02344*
X-00964Y-02345*
X-00963Y-02346*
X-00962Y-02347*
X-00961Y-02348*
X-00961Y-02348*
X-0096Y-02348*
X-0096Y-02348*
X-0096Y-02349*
X-00959Y-02349*
X-00959Y-0235*
X-00958Y-02351*
X-00958Y-02352*
X-00957Y-02353*
X-00957Y-02355*
X-00956Y-02356*
X-00956Y-02358*
X-00955Y-02359*
X-00955Y-02361*
X-00955Y-02363*
X-00955Y-02365*
Y-02365*
Y-02365*
Y-02366*
Y-02366*
X-00955Y-02367*
X-00955Y-02368*
Y-02369*
X-00955Y-0237*
X-00955Y-02372*
X-00956Y-02374*
X-00957Y-02377*
X-00957Y-02379*
Y-02379*
X-00958Y-02379*
X-00958Y-02379*
X-00958Y-0238*
X-00959Y-0238*
X-00959Y-02382*
X-0096Y-02383*
X-00962Y-02384*
X-00963Y-02385*
X-00965Y-02387*
X-00965*
X-00965Y-02387*
X-00966Y-02387*
X-00966Y-02387*
X-00967Y-02387*
X-00967Y-02387*
X-00968Y-02388*
X-0097Y-02388*
X-00972Y-02389*
X-00974Y-02389*
X-00976Y-02389*
X-00977*
X-00978Y-02389*
X-00979Y-02389*
X-00979Y-02389*
X-00981Y-02389*
X-00982Y-02389*
X-00984Y-02388*
X-00985Y-02387*
X-00987Y-02387*
X-00988Y-02386*
X-00989Y-02385*
X-0099Y-02384*
X-00992Y-02383*
X-00992Y-02383*
X-00992Y-02383*
X-00992Y-02383*
X-00993Y-02382*
X-00993Y-02381*
X-00993Y-02381*
X-00994Y-0238*
X-00995Y-02379*
X-00995Y-02377*
X-00996Y-02376*
X-00996Y-02375*
X-00997Y-02373*
X-00997Y-02371*
X-00997Y-02369*
X-00997Y-02367*
X-00998Y-02365*
Y-02365*
Y-02365*
X-00997Y-02364*
Y-02363*
X-00997Y-02362*
X-00997Y-02361*
X-00997Y-0236*
X-00997Y-02358*
X-00996Y-02357*
X-00996Y-02355*
X-00995Y-02354*
X-00994Y-02352*
X-00994Y-02351*
X-00993Y-02349*
X-00992Y-02348*
X-0099Y-02347*
X-0099Y-02347*
X-0099Y-02346*
X-0099Y-02346*
X-00989Y-02346*
X-00989Y-02345*
X-00988Y-02345*
X-00987Y-02345*
X-00986Y-02344*
X-00985Y-02344*
X-00984Y-02343*
X-00982Y-02342*
X-00979Y-02342*
X-00978Y-02342*
X-00976Y-02342*
X-00975*
X-00975Y-02342*
G37*
G36*
X-01092D02*
X-01091Y-02342D01*
X-0109Y-02342*
X-01089Y-02342*
X-01088Y-02342*
X-01087Y-02343*
X-01086Y-02343*
X-01085Y-02344*
X-01083Y-02344*
X-01082Y-02345*
X-01081Y-02346*
X-0108Y-02347*
X-01078Y-02348*
X-01078Y-02348*
X-01078Y-02348*
X-01078Y-02348*
X-01078Y-02349*
X-01077Y-0235*
X-01077Y-0235*
X-01076Y-02351*
X-01076Y-02352*
X-01075Y-02354*
X-01074Y-02355*
X-01074Y-02356*
X-01074Y-02358*
X-01073Y-0236*
X-01073Y-02361*
X-01073Y-02363*
X-01073Y-02365*
Y-02365*
Y-02366*
Y-02366*
X-01073Y-02367*
X-01107*
Y-02367*
Y-02368*
X-01107Y-02368*
Y-02369*
X-01107Y-02369*
X-01107Y-0237*
X-01106Y-02372*
X-01106Y-02374*
X-01105Y-02376*
X-01104Y-02377*
X-01103Y-02379*
X-01103*
X-01103Y-02379*
X-01102Y-0238*
X-01101Y-0238*
X-011Y-02381*
X-01099Y-02382*
X-01097Y-02382*
X-01095Y-02383*
X-01094Y-02383*
X-01093Y-02383*
X-01092*
X-01092Y-02383*
X-01091Y-02383*
X-01089Y-02382*
X-01088Y-02382*
X-01087Y-02381*
X-01086Y-02381*
X-01086Y-02381*
X-01085Y-0238*
X-01085Y-0238*
X-01084Y-02379*
X-01083Y-02378*
X-01083Y-02377*
X-01082Y-02375*
X-01081Y-02374*
X-01073Y-02375*
Y-02375*
X-01073Y-02375*
X-01073Y-02375*
X-01073Y-02376*
X-01074Y-02376*
X-01074Y-02377*
X-01075Y-02379*
X-01075Y-0238*
X-01077Y-02382*
X-01078Y-02384*
X-0108Y-02385*
X-0108*
X-0108Y-02386*
X-01081Y-02386*
X-01081Y-02386*
X-01081Y-02386*
X-01082Y-02387*
X-01083Y-02387*
X-01084Y-02387*
X-01085Y-02388*
X-01085Y-02388*
X-01088Y-02389*
X-0109Y-02389*
X-01093Y-02389*
X-01094*
X-01095Y-02389*
X-01096Y-02389*
X-01097Y-02389*
X-01098Y-02389*
X-01099Y-02389*
X-01101Y-02388*
X-01103Y-02387*
X-01104Y-02387*
X-01105Y-02386*
X-01107Y-02385*
X-01108Y-02384*
X-01109Y-02383*
X-01109Y-02383*
X-01109Y-02383*
X-0111Y-02383*
X-0111Y-02382*
X-0111Y-02381*
X-01111Y-02381*
X-01111Y-0238*
X-01112Y-02379*
X-01112Y-02378*
X-01113Y-02376*
X-01113Y-02375*
X-01114Y-02373*
X-01114Y-02372*
X-01115Y-0237*
X-01115Y-02368*
X-01115Y-02366*
Y-02366*
Y-02365*
Y-02365*
X-01115Y-02364*
X-01115Y-02363*
X-01115Y-02362*
X-01114Y-02361*
X-01114Y-02359*
X-01113Y-02356*
X-01113Y-02355*
X-01112Y-02353*
X-01112Y-02352*
X-01111Y-02351*
X-0111Y-02349*
X-01109Y-02348*
X-01109Y-02348*
X-01109Y-02348*
X-01108Y-02347*
X-01108Y-02347*
X-01107Y-02346*
X-01107Y-02346*
X-01106Y-02345*
X-01105Y-02345*
X-01104Y-02344*
X-01103Y-02344*
X-01101Y-02343*
X-011Y-02343*
X-01098Y-02342*
X-01097Y-02342*
X-01095Y-02342*
X-01094Y-02342*
X-01093*
X-01092Y-02342*
G37*
G36*
X-01239D02*
X-01238Y-02342D01*
X-01237Y-02342*
X-01236Y-02342*
X-01235Y-02342*
X-01233Y-02343*
X-01232Y-02344*
X-0123Y-02344*
X-01229Y-02345*
X-01228Y-02346*
X-01227Y-02347*
X-01225Y-02348*
X-01225Y-02348*
X-01225Y-02348*
X-01225Y-02348*
X-01224Y-02349*
X-01224Y-02349*
X-01223Y-0235*
X-01223Y-02351*
X-01222Y-02352*
X-01222Y-02353*
X-01221Y-02355*
X-01221Y-02356*
X-0122Y-02358*
X-0122Y-02359*
X-0122Y-02361*
X-01219Y-02363*
X-01219Y-02365*
Y-02365*
Y-02365*
Y-02366*
Y-02366*
X-01219Y-02367*
X-0122Y-02368*
Y-02369*
X-0122Y-0237*
X-0122Y-02372*
X-01221Y-02374*
X-01221Y-02377*
X-01222Y-02379*
Y-02379*
X-01222Y-02379*
X-01222Y-02379*
X-01223Y-0238*
X-01223Y-0238*
X-01224Y-02382*
X-01225Y-02383*
X-01226Y-02384*
X-01228Y-02385*
X-0123Y-02387*
X-0123*
X-0123Y-02387*
X-0123Y-02387*
X-01231Y-02387*
X-01231Y-02387*
X-01232Y-02387*
X-01233Y-02388*
X-01235Y-02388*
X-01237Y-02389*
X-01239Y-02389*
X-01241Y-02389*
X-01242*
X-01242Y-02389*
X-01243Y-02389*
X-01244Y-02389*
X-01245Y-02389*
X-01246Y-02389*
X-01249Y-02388*
X-0125Y-02387*
X-01251Y-02387*
X-01253Y-02386*
X-01254Y-02385*
X-01255Y-02384*
X-01256Y-02383*
X-01256Y-02383*
X-01257Y-02383*
X-01257Y-02383*
X-01257Y-02382*
X-01258Y-02381*
X-01258Y-02381*
X-01259Y-0238*
X-01259Y-02379*
X-0126Y-02377*
X-0126Y-02376*
X-01261Y-02375*
X-01261Y-02373*
X-01262Y-02371*
X-01262Y-02369*
X-01262Y-02367*
X-01262Y-02365*
Y-02365*
Y-02365*
X-01262Y-02364*
Y-02363*
X-01262Y-02362*
X-01262Y-02361*
X-01262Y-0236*
X-01261Y-02358*
X-01261Y-02357*
X-0126Y-02355*
X-0126Y-02354*
X-01259Y-02352*
X-01258Y-02351*
X-01257Y-02349*
X-01256Y-02348*
X-01255Y-02347*
X-01255Y-02347*
X-01255Y-02346*
X-01254Y-02346*
X-01254Y-02346*
X-01253Y-02345*
X-01253Y-02345*
X-01252Y-02345*
X-01251Y-02344*
X-0125Y-02344*
X-01249Y-02343*
X-01247Y-02342*
X-01244Y-02342*
X-01242Y-02342*
X-01241Y-02342*
X-0124*
X-01239Y-02342*
G37*
G36*
X-00822Y-03054D02*
X-00821Y-03054D01*
X-0082Y-03054*
X-0082Y-03054*
X-00819Y-03055*
X-00818Y-03055*
X-00818*
X-00818Y-03055*
X-00818Y-03055*
X-00817Y-03056*
X-00817Y-03056*
X-00816Y-03056*
X-00816Y-03057*
X-00815Y-03057*
X-00815Y-03058*
X-00815Y-03058*
X-00815Y-03058*
X-00814Y-03059*
X-00814Y-03059*
X-00814Y-0306*
X-00814Y-0306*
X-00814Y-03061*
X-00814Y-03062*
Y-03062*
Y-03062*
X-00814Y-03063*
X-00814Y-03063*
X-00814Y-03064*
X-00814Y-03064*
X-00814Y-03065*
X-00815Y-03065*
X-00815Y-03066*
X-00815Y-03066*
X-00815Y-03066*
X-00816Y-03066*
X-00816Y-03067*
X-00817Y-03067*
X-00817Y-03068*
X-00818Y-03068*
X-00818*
X-00818Y-03068*
X-00818Y-03068*
X-00817Y-03068*
X-00817Y-03068*
X-00816Y-03069*
X-00816Y-03069*
X-00815Y-03069*
X-00814Y-0307*
X-00814Y-03071*
X-00814Y-03071*
X-00813Y-03071*
X-00813Y-03071*
X-00813Y-03072*
X-00813Y-03073*
X-00812Y-03073*
X-00812Y-03074*
X-00812Y-03075*
Y-03075*
Y-03076*
Y-03076*
X-00812Y-03076*
X-00812Y-03076*
X-00812Y-03077*
X-00812Y-03077*
X-00813Y-03078*
X-00813Y-03079*
X-00813Y-03079*
X-00813Y-0308*
X-00814Y-0308*
X-00814Y-03081*
X-00815Y-03082*
X-00815Y-03082*
X-00815Y-03082*
X-00815Y-03082*
X-00815Y-03082*
X-00816Y-03083*
X-00816Y-03083*
X-00816Y-03083*
X-00817Y-03083*
X-00817Y-03083*
X-00818Y-03084*
X-00818Y-03084*
X-00819Y-03084*
X-00819Y-03084*
X-0082Y-03085*
X-00821Y-03085*
X-00822Y-03085*
X-00822Y-03085*
X-00823*
X-00823Y-03085*
X-00823Y-03085*
X-00824Y-03085*
X-00824Y-03085*
X-00825Y-03085*
X-00826Y-03084*
X-00827Y-03084*
X-00827Y-03084*
X-00828Y-03083*
X-00829Y-03083*
X-00829Y-03083*
X-00829Y-03082*
X-00829Y-03082*
X-00829Y-03082*
X-00829Y-03082*
X-0083Y-03082*
X-0083Y-03082*
X-0083Y-03081*
X-0083Y-03081*
X-00831Y-0308*
X-00831Y-0308*
X-00831Y-03079*
X-00832Y-03078*
X-00832Y-03077*
X-00832Y-03076*
X-00828Y-03076*
Y-03076*
X-00828Y-03076*
X-00828Y-03076*
X-00828Y-03076*
X-00828Y-03077*
X-00828Y-03077*
X-00828Y-03078*
X-00828Y-03078*
X-00827Y-03079*
X-00827Y-0308*
X-00826Y-0308*
X-00826Y-03081*
X-00826Y-03081*
X-00826Y-03081*
X-00825Y-03081*
X-00825Y-03081*
X-00824Y-03082*
X-00823Y-03082*
X-00822Y-03082*
X-00822*
X-00822Y-03082*
X-00821Y-03082*
X-00821Y-03082*
X-0082Y-03081*
X-00819Y-03081*
X-00819Y-03081*
X-00818Y-0308*
X-00818Y-0308*
X-00818Y-0308*
X-00817Y-03079*
X-00817Y-03079*
X-00817Y-03078*
X-00816Y-03077*
X-00816Y-03077*
X-00816Y-03076*
Y-03075*
Y-03075*
Y-03075*
X-00816Y-03075*
X-00816Y-03075*
X-00816Y-03074*
X-00817Y-03073*
X-00817Y-03073*
X-00817Y-03072*
X-00818Y-03071*
X-00818Y-03071*
X-00818Y-03071*
X-00819Y-03071*
X-00819Y-0307*
X-0082Y-0307*
X-0082Y-0307*
X-00821Y-0307*
X-00822Y-0307*
X-00822*
X-00823Y-0307*
X-00823Y-0307*
X-00824Y-0307*
X-00824Y-0307*
X-00825Y-0307*
X-00824Y-03067*
X-00824*
X-00824Y-03067*
X-00823*
X-00823Y-03067*
X-00822Y-03067*
X-00822Y-03066*
X-00821Y-03066*
X-0082Y-03066*
X-00819Y-03066*
X-00819*
X-00819Y-03066*
X-00819Y-03065*
X-00819Y-03065*
X-00818Y-03065*
X-00818Y-03064*
X-00818Y-03063*
X-00818Y-03063*
X-00818Y-03062*
Y-03062*
Y-03062*
Y-03062*
Y-03061*
X-00818Y-03061*
X-00818Y-03061*
X-00818Y-0306*
X-00818Y-0306*
X-00818Y-03059*
X-00819Y-03058*
X-00819Y-03058*
X-00819Y-03058*
X-00819Y-03058*
X-0082Y-03058*
X-0082Y-03057*
X-00821Y-03057*
X-00822Y-03057*
X-00822Y-03057*
X-00823*
X-00823Y-03057*
X-00824Y-03057*
X-00824Y-03057*
X-00825Y-03058*
X-00826Y-03058*
X-00826Y-03058*
X-00826Y-03058*
X-00826Y-03059*
X-00827Y-03059*
X-00827Y-03059*
X-00827Y-0306*
X-00827Y-03061*
X-00828Y-03062*
X-00828Y-03062*
X-00832Y-03062*
Y-03062*
X-00832Y-03062*
X-00832Y-03061*
X-00831Y-03061*
X-00831Y-03061*
X-00831Y-03061*
X-00831Y-0306*
X-00831Y-03059*
X-0083Y-03058*
X-00829Y-03057*
X-00829Y-03056*
X-00829Y-03056*
X-00828Y-03056*
X-00828Y-03056*
X-00828Y-03056*
X-00828Y-03056*
X-00828Y-03055*
X-00827Y-03055*
X-00827Y-03055*
X-00826Y-03055*
X-00825Y-03054*
X-00824Y-03054*
X-00823Y-03054*
X-00822*
X-00822Y-03054*
G37*
G36*
X-00582Y-03074D02*
X-00577D01*
Y-03077*
X-00582*
Y-03084*
X-00585*
Y-03077*
X-00598*
Y-03074*
X-00585Y-03054*
X-00582*
Y-03074*
G37*
G36*
X-00607Y-03084D02*
X-0061D01*
Y-03061*
X-0061Y-03061*
X-00611Y-03061*
X-00611Y-03061*
X-00611Y-03062*
X-00612Y-03062*
X-00612Y-03062*
X-00613Y-03063*
X-00614Y-03063*
X-00614*
X-00614Y-03063*
X-00614Y-03064*
X-00615Y-03064*
X-00615Y-03064*
X-00616Y-03064*
X-00616Y-03065*
X-00617Y-03065*
X-00618Y-03065*
Y-03062*
X-00618*
X-00618Y-03062*
X-00617Y-03061*
X-00617Y-03061*
X-00617Y-03061*
X-00617Y-03061*
X-00616Y-03061*
X-00615Y-0306*
X-00614Y-0306*
X-00613Y-03059*
X-00612Y-03058*
X-00612Y-03058*
X-00612Y-03058*
X-00612Y-03058*
X-00612Y-03058*
X-00612Y-03057*
X-00611Y-03057*
X-00611Y-03056*
X-0061Y-03055*
X-00609Y-03055*
X-00609Y-03054*
X-00607*
Y-03084*
G37*
G36*
X-00637Y-03054D02*
X-00636Y-03054D01*
X-00635Y-03054*
X-00635Y-03054*
X-00634Y-03055*
X-00634*
X-00634Y-03055*
X-00634*
X-00633Y-03055*
X-00633Y-03055*
X-00632Y-03055*
X-00632Y-03055*
X-00631Y-03056*
X-0063Y-03056*
X-00629Y-03057*
X-00629Y-03057*
X-00629Y-03057*
X-00629Y-03057*
X-00629Y-03057*
X-00629Y-03058*
X-00628Y-03058*
X-00628Y-03059*
X-00627Y-0306*
X-00626Y-03061*
X-00626Y-03062*
Y-03062*
X-00626Y-03062*
X-00626Y-03062*
X-00626Y-03062*
X-00626Y-03063*
X-00625Y-03063*
X-00625Y-03064*
X-00625Y-03064*
X-00625Y-03064*
X-00625Y-03065*
X-00625Y-03066*
X-00625Y-03068*
X-00625Y-03069*
Y-03069*
Y-03069*
Y-03069*
Y-0307*
X-00625Y-0307*
Y-0307*
X-00625Y-03071*
X-00625Y-03072*
X-00625Y-03073*
X-00625Y-03074*
X-00625Y-03075*
Y-03075*
X-00625Y-03075*
X-00626Y-03075*
X-00626Y-03076*
X-00626Y-03076*
X-00626Y-03077*
X-00626Y-03077*
X-00627Y-03078*
X-00627Y-03079*
X-00628Y-0308*
X-00628Y-0308*
X-00628Y-0308*
X-00628Y-0308*
X-00628Y-03081*
X-00629Y-03081*
X-00629Y-03081*
X-0063Y-03082*
X-0063Y-03082*
X-0063Y-03082*
X-00631Y-03083*
X-00631Y-03083*
X-00631Y-03083*
X-00632Y-03083*
X-00632Y-03083*
X-00633Y-03084*
X-00634Y-03084*
X-00634*
X-00634Y-03084*
X-00634Y-03084*
X-00635Y-03084*
X-00635Y-03084*
X-00636Y-03084*
X-00637Y-03084*
X-00638Y-03084*
X-00639Y-03084*
X-0065*
Y-03054*
X-00638*
X-00637Y-03054*
G37*
G36*
X-00665D02*
X-00664Y-03054D01*
X-00663Y-03054*
X-00662Y-03054*
X-00662Y-03054*
X-00662*
X-00661Y-03055*
X-00661Y-03055*
X-0066Y-03055*
X-0066Y-03055*
X-00659Y-03055*
X-00659Y-03056*
X-00658Y-03056*
X-00658Y-03056*
X-00658Y-03056*
X-00658Y-03056*
X-00657Y-03057*
X-00657Y-03057*
X-00656Y-03058*
X-00656Y-03058*
X-00656Y-03059*
X-00656Y-03059*
X-00656Y-03059*
X-00655Y-03059*
X-00655Y-0306*
X-00655Y-03061*
X-00655Y-03061*
X-00655Y-03062*
X-00655Y-03063*
Y-03063*
Y-03063*
Y-03063*
X-00655Y-03064*
X-00655Y-03064*
X-00655Y-03064*
X-00655Y-03065*
X-00655Y-03065*
X-00655Y-03066*
X-00656Y-03067*
X-00656Y-03067*
X-00656Y-03068*
X-00656Y-03068*
X-00657Y-03069*
X-00657Y-03069*
X-00657Y-03069*
X-00657Y-0307*
X-00657Y-0307*
X-00658Y-0307*
X-00658Y-0307*
X-00658Y-0307*
X-00659Y-03071*
X-00659Y-03071*
X-0066Y-03071*
X-0066Y-03071*
X-00661Y-03071*
X-00662Y-03072*
X-00663Y-03072*
X-00664Y-03072*
X-00665Y-03072*
X-00666Y-03072*
X-00674*
Y-03084*
X-00678*
Y-03054*
X-00665*
X-00665Y-03054*
G37*
G36*
X-00704Y-03054D02*
X-00703Y-03054D01*
X-00703Y-03054*
X-00703Y-03054*
X-00702Y-03054*
X-00701Y-03055*
X-007Y-03055*
X-00699Y-03055*
X-00699Y-03056*
X-00698Y-03056*
X-00698Y-03056*
X-00698Y-03056*
X-00698Y-03057*
X-00697Y-03057*
X-00697Y-03057*
X-00697Y-03057*
X-00697Y-03057*
X-00697Y-03058*
X-00696Y-03058*
X-00696Y-03059*
X-00695Y-0306*
X-00695Y-03061*
X-00695Y-03061*
X-00695Y-03062*
X-00695Y-03062*
Y-03062*
Y-03063*
X-00695Y-03063*
X-00695Y-03064*
X-00695Y-03064*
X-00695Y-03065*
X-00696Y-03065*
X-00696Y-03066*
X-00696Y-03066*
X-00696Y-03066*
X-00696Y-03067*
X-00696Y-03067*
X-00697Y-03068*
X-00697Y-03068*
X-00698Y-03069*
X-00698Y-0307*
X-00698Y-0307*
X-00699Y-0307*
X-00699Y-0307*
X-00699Y-0307*
X-00699Y-03071*
X-007Y-03071*
X-007Y-03071*
X-00701Y-03072*
X-00701Y-03072*
X-00701Y-03073*
X-00702Y-03073*
X-00703Y-03074*
X-00703Y-03074*
X-00704Y-03075*
X-00704Y-03075*
X-00704Y-03075*
X-00704Y-03075*
X-00705Y-03075*
X-00705Y-03076*
X-00705Y-03076*
X-00706Y-03077*
X-00707Y-03077*
X-00707Y-03078*
X-00708Y-03078*
X-00708Y-03079*
X-00708Y-03079*
X-00708Y-03079*
X-00709Y-03079*
X-00709Y-03079*
X-00709Y-03079*
X-00709Y-0308*
X-00709Y-0308*
X-0071Y-03081*
X-00695*
Y-03084*
X-00715*
Y-03084*
Y-03084*
Y-03084*
X-00715Y-03084*
X-00715Y-03083*
X-00715Y-03083*
X-00715Y-03082*
X-00715Y-03082*
Y-03082*
X-00715Y-03082*
X-00715Y-03081*
X-00714Y-03081*
X-00714Y-03081*
X-00714Y-0308*
X-00713Y-03079*
X-00713Y-03079*
X-00712Y-03078*
Y-03078*
X-00712Y-03078*
X-00712Y-03077*
X-00712Y-03077*
X-00711Y-03076*
X-0071Y-03076*
X-00709Y-03075*
X-00708Y-03074*
X-00707Y-03073*
X-00707Y-03073*
X-00707Y-03073*
X-00707Y-03073*
X-00707Y-03073*
X-00706Y-03072*
X-00706Y-03072*
X-00705Y-03071*
X-00705Y-03071*
X-00704Y-0307*
X-00702Y-03069*
X-00702Y-03068*
X-00701Y-03068*
X-00701Y-03067*
X-00701Y-03067*
Y-03067*
X-00701Y-03067*
X-00701Y-03067*
X-007Y-03066*
X-007Y-03066*
X-007Y-03065*
X-00699Y-03065*
X-00699Y-03064*
X-00699Y-03063*
X-00699Y-03062*
Y-03062*
Y-03062*
X-00699Y-03062*
X-00699Y-03062*
X-00699Y-03061*
X-00699Y-0306*
X-007Y-0306*
X-007Y-03059*
X-00701Y-03059*
X-00701Y-03059*
X-00701Y-03058*
X-00701Y-03058*
X-00702Y-03058*
X-00702Y-03058*
X-00703Y-03057*
X-00704Y-03057*
X-00705Y-03057*
X-00705*
X-00705Y-03057*
X-00706Y-03057*
X-00706Y-03057*
X-00707Y-03057*
X-00708Y-03058*
X-00708Y-03058*
X-00709Y-03059*
X-00709Y-03059*
X-00709Y-03059*
X-0071Y-03059*
X-0071Y-0306*
X-0071Y-0306*
X-0071Y-03061*
X-00711Y-03062*
X-00711Y-03063*
X-00714Y-03063*
Y-03063*
X-00714Y-03063*
Y-03062*
X-00714Y-03062*
X-00714Y-03062*
X-00714Y-03061*
X-00714Y-03061*
X-00714Y-0306*
X-00714Y-03059*
X-00713Y-03058*
X-00713Y-03058*
X-00712Y-03057*
X-00712Y-03057*
X-00711Y-03056*
X-00711Y-03056*
X-00711Y-03056*
X-00711Y-03056*
X-00711Y-03056*
X-00711Y-03056*
X-0071Y-03056*
X-0071Y-03055*
X-0071Y-03055*
X-00709Y-03055*
X-00709Y-03055*
X-00708Y-03055*
X-00707Y-03054*
X-00707Y-03054*
X-00706Y-03054*
X-00705Y-03054*
X-00705Y-03054*
X-00704*
X-00704Y-03054*
G37*
G36*
X-00724Y-03084D02*
X-00728D01*
Y-03061*
X-00728Y-03061*
X-00728Y-03061*
X-00728Y-03061*
X-00729Y-03062*
X-00729Y-03062*
X-0073Y-03062*
X-00731Y-03063*
X-00731Y-03063*
X-00731*
X-00731Y-03063*
X-00732Y-03064*
X-00732Y-03064*
X-00733Y-03064*
X-00733Y-03064*
X-00734Y-03065*
X-00735Y-03065*
X-00735Y-03065*
Y-03062*
X-00735*
X-00735Y-03062*
X-00735Y-03061*
X-00735Y-03061*
X-00734Y-03061*
X-00734Y-03061*
X-00733Y-03061*
X-00733Y-0306*
X-00732Y-0306*
X-00731Y-03059*
X-0073Y-03058*
X-0073Y-03058*
X-0073Y-03058*
X-0073Y-03058*
X-00729Y-03058*
X-00729Y-03057*
X-00729Y-03057*
X-00728Y-03056*
X-00727Y-03055*
X-00727Y-03055*
X-00727Y-03054*
X-00724*
Y-03084*
G37*
G36*
X-00755Y-03054D02*
X-00754Y-03054D01*
X-00753Y-03054*
X-00752Y-03054*
X-00751Y-03055*
X-00751*
X-00751Y-03055*
X-00751*
X-00751Y-03055*
X-0075Y-03055*
X-0075Y-03055*
X-00749Y-03055*
X-00748Y-03056*
X-00748Y-03056*
X-00747Y-03057*
X-00747Y-03057*
X-00747Y-03057*
X-00747Y-03057*
X-00746Y-03057*
X-00746Y-03058*
X-00746Y-03058*
X-00745Y-03059*
X-00744Y-0306*
X-00744Y-03061*
X-00743Y-03062*
Y-03062*
X-00743Y-03062*
X-00743Y-03062*
X-00743Y-03062*
X-00743Y-03063*
X-00743Y-03063*
X-00743Y-03064*
X-00743Y-03064*
X-00743Y-03064*
X-00742Y-03065*
X-00742Y-03066*
X-00742Y-03068*
X-00742Y-03069*
Y-03069*
Y-03069*
Y-03069*
Y-0307*
X-00742Y-0307*
Y-0307*
X-00742Y-03071*
X-00742Y-03072*
X-00742Y-03073*
X-00743Y-03074*
X-00743Y-03075*
Y-03075*
X-00743Y-03075*
X-00743Y-03075*
X-00743Y-03076*
X-00743Y-03076*
X-00743Y-03077*
X-00744Y-03077*
X-00744Y-03078*
X-00745Y-03079*
X-00745Y-0308*
X-00745Y-0308*
X-00745Y-0308*
X-00745Y-0308*
X-00746Y-03081*
X-00746Y-03081*
X-00747Y-03081*
X-00747Y-03082*
X-00748Y-03082*
X-00748Y-03082*
X-00748Y-03083*
X-00748Y-03083*
X-00749Y-03083*
X-00749Y-03083*
X-0075Y-03083*
X-00751Y-03084*
X-00751Y-03084*
X-00751*
X-00752Y-03084*
X-00752Y-03084*
X-00752Y-03084*
X-00753Y-03084*
X-00753Y-03084*
X-00754Y-03084*
X-00755Y-03084*
X-00756Y-03084*
X-00767*
Y-03054*
X-00755*
X-00755Y-03054*
G37*
G36*
X-00782D02*
X-00781Y-03054D01*
X-00781Y-03054*
X-0078Y-03054*
X-00779Y-03054*
X-00779*
X-00779Y-03055*
X-00778Y-03055*
X-00778Y-03055*
X-00777Y-03055*
X-00777Y-03055*
X-00776Y-03056*
X-00776Y-03056*
X-00775Y-03056*
X-00775Y-03056*
X-00775Y-03056*
X-00775Y-03057*
X-00774Y-03057*
X-00774Y-03058*
X-00773Y-03058*
X-00773Y-03059*
X-00773Y-03059*
X-00773Y-03059*
X-00773Y-03059*
X-00773Y-0306*
X-00772Y-03061*
X-00772Y-03061*
X-00772Y-03062*
X-00772Y-03063*
Y-03063*
Y-03063*
Y-03063*
X-00772Y-03064*
X-00772Y-03064*
X-00772Y-03064*
X-00772Y-03065*
X-00772Y-03065*
X-00773Y-03066*
X-00773Y-03067*
X-00773Y-03067*
X-00774Y-03068*
X-00774Y-03068*
X-00774Y-03069*
X-00775Y-03069*
X-00775Y-03069*
X-00775Y-0307*
X-00775Y-0307*
X-00775Y-0307*
X-00775Y-0307*
X-00776Y-0307*
X-00776Y-03071*
X-00777Y-03071*
X-00777Y-03071*
X-00778Y-03071*
X-00779Y-03071*
X-00779Y-03072*
X-0078Y-03072*
X-00781Y-03072*
X-00782Y-03072*
X-00784Y-03072*
X-00791*
Y-03084*
X-00795*
Y-03054*
X-00783*
X-00782Y-03054*
G37*
G36*
X-00842Y-03084D02*
X-00845D01*
Y-03061*
X-00845Y-03061*
X-00846Y-03061*
X-00846Y-03061*
X-00846Y-03062*
X-00847Y-03062*
X-00847Y-03062*
X-00848Y-03063*
X-00849Y-03063*
X-00849*
X-00849Y-03063*
X-00849Y-03064*
X-0085Y-03064*
X-0085Y-03064*
X-00851Y-03064*
X-00851Y-03065*
X-00852Y-03065*
X-00853Y-03065*
Y-03062*
X-00853*
X-00853Y-03062*
X-00852Y-03061*
X-00852Y-03061*
X-00852Y-03061*
X-00852Y-03061*
X-00851Y-03061*
X-0085Y-0306*
X-00849Y-0306*
X-00848Y-03059*
X-00847Y-03058*
X-00847Y-03058*
X-00847Y-03058*
X-00847Y-03058*
X-00847Y-03058*
X-00847Y-03057*
X-00846Y-03057*
X-00845Y-03056*
X-00845Y-03055*
X-00844Y-03055*
X-00844Y-03054*
X-00842*
Y-03084*
G37*
G36*
X-00872Y-03054D02*
X-00871Y-03054D01*
X-0087Y-03054*
X-0087Y-03054*
X-00869Y-03055*
X-00869*
X-00869Y-03055*
X-00869*
X-00868Y-03055*
X-00868Y-03055*
X-00867Y-03055*
X-00867Y-03055*
X-00866Y-03056*
X-00865Y-03056*
X-00864Y-03057*
X-00864Y-03057*
X-00864Y-03057*
X-00864Y-03057*
X-00864Y-03057*
X-00864Y-03058*
X-00863Y-03058*
X-00862Y-03059*
X-00862Y-0306*
X-00861Y-03061*
X-00861Y-03062*
Y-03062*
X-00861Y-03062*
X-00861Y-03062*
X-00861Y-03062*
X-0086Y-03063*
X-0086Y-03063*
X-0086Y-03064*
X-0086Y-03064*
X-0086Y-03064*
X-0086Y-03065*
X-0086Y-03066*
X-0086Y-03068*
X-0086Y-03069*
Y-03069*
Y-03069*
Y-03069*
Y-0307*
X-0086Y-0307*
Y-0307*
X-0086Y-03071*
X-0086Y-03072*
X-0086Y-03073*
X-0086Y-03074*
X-0086Y-03075*
Y-03075*
X-0086Y-03075*
X-0086Y-03075*
X-00861Y-03076*
X-00861Y-03076*
X-00861Y-03077*
X-00861Y-03077*
X-00862Y-03078*
X-00862Y-03079*
X-00862Y-0308*
X-00862Y-0308*
X-00863Y-0308*
X-00863Y-0308*
X-00863Y-03081*
X-00864Y-03081*
X-00864Y-03081*
X-00865Y-03082*
X-00865Y-03082*
X-00865Y-03082*
X-00865Y-03083*
X-00866Y-03083*
X-00866Y-03083*
X-00867Y-03083*
X-00867Y-03083*
X-00868Y-03084*
X-00869Y-03084*
X-00869*
X-00869Y-03084*
X-00869Y-03084*
X-0087Y-03084*
X-0087Y-03084*
X-00871Y-03084*
X-00872Y-03084*
X-00873Y-03084*
X-00874Y-03084*
X-00885*
Y-03054*
X-00873*
X-00872Y-03054*
G37*
G36*
X-009D02*
X-00899Y-03054D01*
X-00898Y-03054*
X-00897Y-03054*
X-00897Y-03054*
X-00897*
X-00896Y-03055*
X-00896Y-03055*
X-00895Y-03055*
X-00895Y-03055*
X-00894Y-03055*
X-00894Y-03056*
X-00893Y-03056*
X-00893Y-03056*
X-00893Y-03056*
X-00892Y-03056*
X-00892Y-03057*
X-00892Y-03057*
X-00891Y-03058*
X-00891Y-03058*
X-00891Y-03059*
X-00891Y-03059*
X-0089Y-03059*
X-0089Y-03059*
X-0089Y-0306*
X-0089Y-03061*
X-0089Y-03061*
X-0089Y-03062*
X-0089Y-03063*
Y-03063*
Y-03063*
Y-03063*
X-0089Y-03064*
X-0089Y-03064*
X-0089Y-03064*
X-0089Y-03065*
X-0089Y-03065*
X-0089Y-03066*
X-0089Y-03067*
X-00891Y-03067*
X-00891Y-03068*
X-00891Y-03068*
X-00892Y-03069*
X-00892Y-03069*
X-00892Y-03069*
X-00892Y-0307*
X-00892Y-0307*
X-00893Y-0307*
X-00893Y-0307*
X-00893Y-0307*
X-00894Y-03071*
X-00894Y-03071*
X-00895Y-03071*
X-00895Y-03071*
X-00896Y-03071*
X-00897Y-03072*
X-00898Y-03072*
X-00899Y-03072*
X-009Y-03072*
X-00901Y-03072*
X-00909*
Y-03084*
X-00913*
Y-03054*
X-009*
X-009Y-03054*
G37*
%LNmicrophonearray.main-2*%
%LPC*%
G36*
X-01253Y-01278D02*
X-01253D01*
X-01254Y-01278*
X-01254Y-01278*
X-01254Y-01278*
X-01254Y-01278*
X-01255Y-01278*
X-01255Y-01278*
X-01255Y-01279*
X-01256Y-01279*
X-01256Y-01279*
X-01257Y-01279*
X-01258Y-01279*
X-01258Y-01279*
X-01259Y-01279*
X-0126Y-0128*
X-01261Y-0128*
X-01261*
X-01261Y-0128*
X-01262Y-0128*
X-01263Y-0128*
X-01263Y-0128*
X-01264Y-0128*
X-01265Y-0128*
X-01265Y-01281*
X-01265*
X-01265Y-01281*
X-01266Y-01281*
X-01266Y-01281*
X-01266Y-01282*
X-01267Y-01282*
Y-01282*
X-01267Y-01282*
X-01267Y-01283*
X-01267Y-01283*
X-01267Y-01283*
X-01267Y-01283*
X-01268Y-01284*
X-01268Y-01284*
Y-01284*
Y-01285*
X-01268Y-01285*
X-01267Y-01285*
X-01267Y-01286*
X-01267Y-01286*
X-01267Y-01287*
X-01266Y-01287*
X-01266Y-01288*
X-01266Y-01288*
X-01266Y-01288*
X-01265Y-01288*
X-01265Y-01288*
X-01264Y-01289*
X-01263Y-01289*
X-01262Y-01289*
X-01262*
X-01261Y-01289*
X-0126Y-01289*
X-0126Y-01288*
X-01259Y-01288*
X-01258Y-01288*
X-01257Y-01288*
X-01257Y-01287*
X-01257Y-01287*
X-01257Y-01287*
X-01256Y-01287*
X-01256Y-01286*
X-01255Y-01286*
X-01255Y-01285*
X-01254Y-01284*
X-01254Y-01284*
X-01254Y-01284*
X-01254Y-01284*
X-01254Y-01283*
X-01254Y-01282*
X-01254Y-01282*
X-01254Y-01281*
X-01253Y-0128*
X-01253Y-01278*
G37*
G36*
X-01318D02*
X-01318D01*
X-01318Y-01278*
X-01318Y-01278*
X-01318Y-01278*
X-01319Y-01278*
X-01319Y-01278*
X-01319Y-01278*
X-0132Y-01279*
X-0132Y-01279*
X-01321Y-01279*
X-01322Y-01279*
X-01322Y-01279*
X-01323Y-01279*
X-01324Y-01279*
X-01325Y-0128*
X-01326Y-0128*
X-01326*
X-01326Y-0128*
X-01327Y-0128*
X-01327Y-0128*
X-01328Y-0128*
X-01328Y-0128*
X-01329Y-0128*
X-0133Y-01281*
X-0133*
X-0133Y-01281*
X-0133Y-01281*
X-0133Y-01281*
X-01331Y-01282*
X-01331Y-01282*
Y-01282*
X-01332Y-01282*
X-01332Y-01283*
X-01332Y-01283*
X-01332Y-01283*
X-01332Y-01283*
X-01332Y-01284*
X-01332Y-01284*
Y-01284*
Y-01285*
X-01332Y-01285*
X-01332Y-01285*
X-01332Y-01286*
X-01331Y-01286*
X-01331Y-01287*
X-01331Y-01287*
X-01331Y-01288*
X-0133Y-01288*
X-0133Y-01288*
X-0133Y-01288*
X-01329Y-01288*
X-01328Y-01289*
X-01328Y-01289*
X-01327Y-01289*
X-01326*
X-01326Y-01289*
X-01325Y-01289*
X-01324Y-01288*
X-01323Y-01288*
X-01323Y-01288*
X-01322Y-01288*
X-01322Y-01287*
X-01322Y-01287*
X-01321Y-01287*
X-01321Y-01287*
X-0132Y-01286*
X-0132Y-01286*
X-01319Y-01285*
X-01319Y-01284*
X-01319Y-01284*
X-01319Y-01284*
X-01319Y-01284*
X-01318Y-01283*
X-01318Y-01282*
X-01318Y-01282*
X-01318Y-01281*
X-01318Y-0128*
X-01318Y-01278*
G37*
G36*
X-0138D02*
X-0138D01*
X-0138Y-01278*
X-0138Y-01278*
X-0138Y-01278*
X-0138Y-01278*
X-01381Y-01278*
X-01381Y-01278*
X-01382Y-01279*
X-01382Y-01279*
X-01383Y-01279*
X-01383Y-01279*
X-01384Y-01279*
X-01385Y-01279*
X-01385Y-01279*
X-01386Y-0128*
X-01387Y-0128*
X-01387*
X-01388Y-0128*
X-01388Y-0128*
X-01389Y-0128*
X-01389Y-0128*
X-0139Y-0128*
X-01391Y-0128*
X-01391Y-01281*
X-01391*
X-01391Y-01281*
X-01392Y-01281*
X-01392Y-01281*
X-01393Y-01282*
X-01393Y-01282*
Y-01282*
X-01393Y-01282*
X-01393Y-01283*
X-01393Y-01283*
X-01394Y-01283*
X-01394Y-01283*
X-01394Y-01284*
X-01394Y-01284*
Y-01284*
Y-01285*
X-01394Y-01285*
X-01394Y-01285*
X-01393Y-01286*
X-01393Y-01286*
X-01393Y-01287*
X-01392Y-01287*
X-01392Y-01288*
X-01392Y-01288*
X-01392Y-01288*
X-01391Y-01288*
X-01391Y-01288*
X-0139Y-01289*
X-01389Y-01289*
X-01388Y-01289*
X-01388*
X-01387Y-01289*
X-01387Y-01289*
X-01386Y-01288*
X-01385Y-01288*
X-01384Y-01288*
X-01383Y-01288*
X-01383Y-01287*
X-01383Y-01287*
X-01383Y-01287*
X-01382Y-01287*
X-01382Y-01286*
X-01381Y-01286*
X-01381Y-01285*
X-0138Y-01284*
X-0138Y-01284*
X-0138Y-01284*
X-0138Y-01284*
X-0138Y-01283*
X-0138Y-01282*
X-0138Y-01282*
X-0138Y-01281*
X-0138Y-0128*
X-0138Y-01278*
G37*
G36*
X-01335Y-01323D02*
X-01336D01*
X-01336Y-01323*
X-01337Y-01323*
X-01337Y-01323*
X-01338Y-01324*
X-01339Y-01324*
X-0134Y-01325*
X-01341Y-01325*
X-01341Y-01326*
Y-01326*
X-01341Y-01326*
X-01341Y-01326*
X-01342Y-01326*
X-01342Y-01327*
X-01342Y-01327*
X-01342Y-01327*
X-01342Y-01328*
X-01343Y-01328*
X-01343Y-01329*
X-01343Y-01329*
X-01343Y-0133*
X-01343Y-01331*
X-01343Y-01332*
X-01344Y-01333*
X-01344Y-01334*
Y-01334*
Y-01334*
Y-01334*
X-01344Y-01334*
Y-01335*
X-01343Y-01335*
X-01343Y-01337*
X-01343Y-01338*
X-01343Y-01339*
X-01342Y-0134*
X-01342Y-01341*
X-01341Y-01342*
X-01341*
X-01341Y-01342*
X-01341Y-01342*
X-0134Y-01342*
X-0134Y-01343*
X-01339Y-01343*
X-01338Y-01344*
X-01337Y-01344*
X-01336Y-01344*
X-01335Y-01344*
X-01335*
X-01335Y-01344*
X-01334Y-01344*
X-01333Y-01344*
X-01333Y-01343*
X-01332Y-01343*
X-01331Y-01342*
X-0133Y-01342*
X-0133Y-01341*
X-0133Y-01341*
X-0133Y-01341*
X-0133Y-01341*
X-01329Y-01341*
X-01329Y-01341*
X-01329Y-0134*
X-01329Y-0134*
X-01329Y-0134*
X-01328Y-01339*
X-01328Y-01338*
X-01328Y-01338*
X-01328Y-01337*
X-01328Y-01336*
X-01328Y-01335*
X-01327Y-01334*
Y-01333*
Y-01333*
Y-01333*
Y-01333*
X-01327Y-01333*
Y-01332*
X-01328Y-01332*
X-01328Y-01331*
X-01328Y-01329*
X-01328Y-01328*
X-01329Y-01327*
X-01329Y-01326*
X-0133Y-01326*
Y-01326*
X-0133Y-01326*
X-0133Y-01325*
X-01331Y-01325*
X-01331Y-01324*
X-01332Y-01324*
X-01333Y-01324*
X-01334Y-01323*
X-01335Y-01323*
X-01335Y-01323*
G37*
G36*
X-01406D02*
X-01406D01*
X-01406Y-01323*
X-01407Y-01323*
X-01408Y-01323*
X-01409Y-01324*
X-01409Y-01324*
X-0141Y-01325*
X-01411Y-01325*
X-01411Y-01325*
X-01412Y-01326*
X-01412Y-01326*
X-01412Y-01327*
X-01413Y-01328*
X-01413Y-01329*
X-01413Y-0133*
X-01414Y-01331*
X-01398*
Y-01331*
Y-01331*
X-01398Y-01331*
Y-0133*
X-01398Y-0133*
X-01399Y-01329*
X-01399Y-01328*
X-01399Y-01327*
X-014Y-01327*
X-014Y-01326*
Y-01326*
X-014Y-01326*
X-014Y-01325*
X-01401Y-01325*
X-01402Y-01325*
X-01402Y-01324*
X-01403Y-01324*
X-01405Y-01323*
X-01405Y-01323*
X-01406Y-01323*
G37*
G36*
X-01494D02*
X-01494D01*
X-01495Y-01323*
X-01495Y-01323*
X-01496Y-01323*
X-01497Y-01324*
X-01498Y-01324*
X-01499Y-01325*
X-01499Y-01325*
X-015Y-01326*
Y-01326*
X-015Y-01326*
X-015Y-01326*
X-015Y-01326*
X-015Y-01327*
X-01501Y-01327*
X-01501Y-01327*
X-01501Y-01328*
X-01501Y-01328*
X-01501Y-01329*
X-01502Y-01329*
X-01502Y-0133*
X-01502Y-01331*
X-01502Y-01332*
X-01502Y-01333*
X-01502Y-01334*
Y-01334*
Y-01334*
Y-01334*
X-01502Y-01334*
Y-01335*
X-01502Y-01335*
X-01502Y-01337*
X-01502Y-01338*
X-01501Y-01339*
X-01501Y-0134*
X-015Y-01341*
X-015Y-01342*
X-015*
X-015Y-01342*
X-01499Y-01342*
X-01499Y-01342*
X-01498Y-01343*
X-01497Y-01343*
X-01496Y-01344*
X-01495Y-01344*
X-01495Y-01344*
X-01494Y-01344*
X-01494*
X-01493Y-01344*
X-01493Y-01344*
X-01492Y-01344*
X-01491Y-01343*
X-0149Y-01343*
X-01489Y-01342*
X-01489Y-01342*
X-01488Y-01341*
X-01488Y-01341*
X-01488Y-01341*
X-01488Y-01341*
X-01488Y-01341*
X-01488Y-01341*
X-01488Y-0134*
X-01487Y-0134*
X-01487Y-0134*
X-01487Y-01339*
X-01487Y-01338*
X-01487Y-01338*
X-01486Y-01337*
X-01486Y-01336*
X-01486Y-01335*
X-01486Y-01334*
Y-01333*
Y-01333*
Y-01333*
Y-01333*
X-01486Y-01333*
Y-01332*
X-01486Y-01332*
X-01486Y-01331*
X-01487Y-01329*
X-01487Y-01328*
X-01488Y-01327*
X-01488Y-01326*
X-01488Y-01326*
Y-01326*
X-01488Y-01326*
X-01489Y-01325*
X-01489Y-01325*
X-0149Y-01324*
X-01491Y-01324*
X-01492Y-01324*
X-01493Y-01323*
X-01493Y-01323*
X-01494Y-01323*
G37*
G36*
X-01242Y-02623D02*
X-01243D01*
X-01243Y-02623*
X-01244Y-02623*
X-01245Y-02623*
X-01246Y-02624*
X-01247Y-02624*
X-01248Y-02625*
X-01248Y-02625*
X-01249Y-02626*
X-01249Y-02627*
Y-02627*
X-0125Y-02627*
X-0125Y-02627*
X-0125Y-02627*
X-0125Y-02628*
X-0125Y-02628*
X-01251Y-02629*
X-01251Y-02629*
X-01251Y-0263*
X-01251Y-02631*
X-01252Y-02632*
X-01252Y-02633*
X-01252Y-02634*
X-01252Y-02635*
X-01252Y-02636*
Y-02637*
Y-02637*
Y-02638*
Y-02638*
X-01252Y-02638*
Y-02639*
X-01252Y-0264*
X-01252Y-02641*
X-01252Y-02643*
X-01251Y-02645*
X-01251Y-02646*
X-0125Y-02647*
X-0125Y-02648*
X-01249Y-02648*
X-01249Y-02648*
X-01249Y-02649*
X-01248Y-02649*
X-01247Y-0265*
X-01246Y-02651*
X-01244Y-02651*
X-01243Y-02651*
X-01243Y-02651*
X-01242*
X-01242Y-02651*
X-01241Y-02651*
X-0124Y-02651*
X-01239Y-0265*
X-01238Y-0265*
X-01237Y-02649*
X-01236Y-02648*
X-01236Y-02648*
Y-02648*
X-01236Y-02647*
X-01235Y-02647*
X-01235Y-02647*
X-01235Y-02647*
X-01235Y-02646*
X-01234Y-02646*
X-01234Y-02645*
X-01234Y-02644*
X-01234Y-02643*
X-01233Y-02643*
X-01233Y-02642*
X-01233Y-0264*
X-01233Y-02639*
X-01233Y-02638*
Y-02637*
Y-02637*
Y-02636*
Y-02636*
X-01233Y-02636*
Y-02635*
X-01233Y-02634*
X-01233Y-02633*
X-01233Y-02631*
X-01234Y-02629*
X-01235Y-02628*
X-01235Y-02627*
X-01236Y-02626*
Y-02626*
X-01236Y-02626*
X-01236Y-02626*
X-01237Y-02625*
X-01237Y-02625*
X-01239Y-02624*
X-0124Y-02623*
X-01241Y-02623*
X-01242Y-02623*
X-01242Y-02623*
G37*
G36*
X-00792Y-02637D02*
X-00792D01*
X-00792Y-02637*
X-00792Y-02637*
X-00792Y-02637*
X-00793Y-02637*
X-00793Y-02637*
X-00794Y-02638*
X-00794Y-02638*
X-00795Y-02638*
X-00796Y-02638*
X-00797Y-02638*
X-00797Y-02639*
X-00798Y-02639*
X-008Y-02639*
X-00801Y-02639*
X-00802Y-02639*
X-00802*
X-00802Y-02639*
X-00803Y-0264*
X-00804Y-0264*
X-00805Y-0264*
X-00806Y-0264*
X-00807Y-0264*
X-00807Y-02641*
X-00807*
X-00808Y-02641*
X-00808Y-02641*
X-00808Y-02641*
X-00809Y-02642*
X-0081Y-02643*
Y-02643*
X-0081Y-02643*
X-0081Y-02643*
X-0081Y-02643*
X-0081Y-02644*
X-0081Y-02644*
X-00811Y-02645*
X-00811Y-02646*
Y-02646*
Y-02646*
X-00811Y-02646*
X-0081Y-02647*
X-0081Y-02648*
X-0081Y-02648*
X-00809Y-02649*
X-00809Y-0265*
X-00809Y-0265*
X-00808Y-0265*
X-00808Y-0265*
X-00807Y-0265*
X-00807Y-02651*
X-00806Y-02651*
X-00805Y-02651*
X-00803Y-02651*
X-00803*
X-00802Y-02651*
X-00801Y-02651*
X-008Y-02651*
X-00799Y-02651*
X-00798Y-0265*
X-00797Y-0265*
X-00797Y-0265*
X-00796Y-02649*
X-00796Y-02649*
X-00795Y-02649*
X-00795Y-02648*
X-00794Y-02647*
X-00793Y-02646*
X-00793Y-02645*
X-00793Y-02645*
X-00793Y-02645*
X-00793Y-02645*
X-00792Y-02644*
X-00792Y-02643*
X-00792Y-02642*
X-00792Y-02641*
X-00792Y-02639*
X-00792Y-02637*
G37*
G36*
X-00945D02*
X-00945D01*
X-00945Y-02637*
X-00945Y-02637*
X-00945Y-02637*
X-00946Y-02637*
X-00946Y-02637*
X-00947Y-02638*
X-00947Y-02638*
X-00948Y-02638*
X-00949Y-02638*
X-00949Y-02638*
X-0095Y-02639*
X-00951Y-02639*
X-00952Y-02639*
X-00954Y-02639*
X-00955Y-02639*
X-00955*
X-00955Y-02639*
X-00956Y-0264*
X-00957Y-0264*
X-00958Y-0264*
X-00959Y-0264*
X-00959Y-0264*
X-0096Y-02641*
X-0096*
X-0096Y-02641*
X-00961Y-02641*
X-00961Y-02641*
X-00962Y-02642*
X-00963Y-02643*
Y-02643*
X-00963Y-02643*
X-00963Y-02643*
X-00963Y-02643*
X-00963Y-02644*
X-00963Y-02644*
X-00963Y-02645*
X-00963Y-02646*
Y-02646*
Y-02646*
X-00963Y-02646*
X-00963Y-02647*
X-00963Y-02648*
X-00963Y-02648*
X-00962Y-02649*
X-00962Y-0265*
X-00962Y-0265*
X-00961Y-0265*
X-00961Y-0265*
X-0096Y-0265*
X-00959Y-02651*
X-00959Y-02651*
X-00957Y-02651*
X-00956Y-02651*
X-00956*
X-00955Y-02651*
X-00954Y-02651*
X-00953Y-02651*
X-00952Y-02651*
X-00951Y-0265*
X-0095Y-0265*
X-0095Y-0265*
X-00949Y-02649*
X-00949Y-02649*
X-00948Y-02649*
X-00948Y-02648*
X-00947Y-02647*
X-00946Y-02646*
X-00946Y-02645*
X-00946Y-02645*
X-00946Y-02645*
X-00945Y-02645*
X-00945Y-02644*
X-00945Y-02643*
X-00945Y-02642*
X-00945Y-02641*
X-00945Y-02639*
X-00945Y-02637*
G37*
G36*
X-01044Y-0261D02*
Y-0261D01*
X-01044Y-0261*
Y-02611*
X-01044Y-02611*
X-01044Y-02611*
X-01044Y-02612*
X-01045Y-02613*
X-01045Y-02615*
X-01046Y-02616*
X-01046Y-02618*
X-01047Y-0262*
X-01052Y-02635*
X-01035*
X-0104Y-02621*
Y-02621*
X-0104Y-0262*
X-01041Y-0262*
X-01041Y-0262*
X-01041Y-02619*
X-01041Y-02618*
X-01041Y-02618*
X-01042Y-02617*
X-01042Y-02615*
X-01043Y-02614*
X-01043Y-02612*
X-01044Y-0261*
G37*
G36*
X-01086Y-02623D02*
X-01087D01*
X-01087Y-02623*
X-01088Y-02623*
X-01089Y-02623*
X-0109Y-02624*
X-01091Y-02624*
X-01092Y-02625*
X-01093Y-02626*
X-01094Y-02626*
X-01094Y-02626*
X-01094Y-02627*
X-01095Y-02628*
X-01095Y-02629*
X-01096Y-0263*
X-01096Y-02632*
X-01097Y-02634*
X-01076*
Y-02633*
Y-02633*
X-01076Y-02633*
Y-02633*
X-01076Y-02632*
X-01077Y-02631*
X-01077Y-0263*
X-01077Y-02629*
X-01078Y-02628*
X-01078Y-02627*
Y-02627*
X-01079Y-02627*
X-01079Y-02626*
X-0108Y-02626*
X-01081Y-02625*
X-01082Y-02624*
X-01083Y-02624*
X-01084Y-02623*
X-01085Y-02623*
X-01086Y-02623*
G37*
G36*
X-01165D02*
X-01165D01*
X-01166Y-02623*
X-01166Y-02623*
X-01168Y-02623*
X-01169Y-02624*
X-0117Y-02625*
X-01171Y-02625*
X-01172Y-02626*
X-01173Y-02627*
Y-02627*
X-01173Y-02627*
X-01173Y-02627*
X-01173Y-02627*
X-01173Y-02628*
X-01173Y-02628*
X-01174Y-02629*
X-01174Y-02629*
X-01174Y-0263*
X-01175Y-02631*
X-01175Y-02632*
X-01175Y-02632*
X-01175Y-02633*
X-01175Y-02635*
X-01176Y-02636*
X-01176Y-02637*
Y-02637*
Y-02637*
Y-02638*
X-01176Y-02638*
Y-02639*
X-01175Y-02639*
X-01175Y-02641*
X-01175Y-02643*
X-01174Y-02644*
X-01174Y-02646*
X-01173Y-02647*
X-01173Y-02648*
X-01172*
X-01172Y-02648*
X-01172Y-02648*
X-01171Y-02649*
X-0117Y-02649*
X-01169Y-0265*
X-01168Y-02651*
X-01166Y-02651*
X-01166Y-02651*
X-01165Y-02651*
X-01164*
X-01164Y-02651*
X-01163Y-02651*
X-01162Y-02651*
X-01161Y-0265*
X-0116Y-0265*
X-01158Y-02649*
X-01158Y-02648*
X-01157Y-02648*
X-01157Y-02647*
X-01157Y-02647*
X-01157Y-02647*
X-01157Y-02647*
X-01156Y-02647*
X-01156Y-02646*
X-01156Y-02646*
X-01156Y-02645*
X-01155Y-02644*
X-01155Y-02643*
X-01155Y-02643*
X-01155Y-02642*
X-01154Y-0264*
X-01154Y-02639*
X-01154Y-02638*
Y-02637*
Y-02637*
Y-02637*
Y-02636*
X-01154Y-02636*
Y-02635*
X-01154Y-02635*
X-01154Y-02633*
X-01155Y-02631*
X-01155Y-0263*
X-01156Y-02628*
X-01157Y-02627*
X-01157Y-02627*
Y-02626*
X-01157Y-02626*
X-01158Y-02626*
X-01158Y-02625*
X-01159Y-02625*
X-0116Y-02624*
X-01162Y-02624*
X-01163Y-02623*
X-01164Y-02623*
X-01165Y-02623*
G37*
G36*
X-01282D02*
X-01283D01*
X-01283Y-02623*
X-01284Y-02623*
X-01285Y-02623*
X-01286Y-02624*
X-01288Y-02625*
X-01289Y-02625*
X-0129Y-02626*
X-0129Y-02627*
Y-02627*
X-0129Y-02627*
X-0129Y-02627*
X-01291Y-02627*
X-01291Y-02628*
X-01291Y-02628*
X-01291Y-02629*
X-01292Y-02629*
X-01292Y-0263*
X-01292Y-02631*
X-01293Y-02632*
X-01293Y-02632*
X-01293Y-02633*
X-01293Y-02635*
X-01293Y-02636*
X-01293Y-02637*
Y-02637*
Y-02637*
Y-02638*
X-01293Y-02638*
Y-02639*
X-01293Y-02639*
X-01293Y-02641*
X-01293Y-02643*
X-01292Y-02644*
X-01291Y-02646*
X-01291Y-02647*
X-0129Y-02648*
X-0129*
X-0129Y-02648*
X-0129Y-02648*
X-01289Y-02649*
X-01288Y-02649*
X-01287Y-0265*
X-01286Y-02651*
X-01284Y-02651*
X-01283Y-02651*
X-01282Y-02651*
X-01282*
X-01282Y-02651*
X-01281Y-02651*
X-0128Y-02651*
X-01279Y-0265*
X-01277Y-0265*
X-01276Y-02649*
X-01275Y-02648*
X-01275Y-02648*
X-01275Y-02647*
X-01275Y-02647*
X-01275Y-02647*
X-01274Y-02647*
X-01274Y-02647*
X-01274Y-02646*
X-01274Y-02646*
X-01273Y-02645*
X-01273Y-02644*
X-01273Y-02643*
X-01272Y-02643*
X-01272Y-02642*
X-01272Y-0264*
X-01272Y-02639*
X-01272Y-02638*
Y-02637*
Y-02637*
Y-02637*
Y-02636*
X-01272Y-02636*
Y-02635*
X-01272Y-02635*
X-01272Y-02633*
X-01272Y-02631*
X-01273Y-0263*
X-01274Y-02628*
X-01274Y-02627*
X-01275Y-02627*
Y-02626*
X-01275Y-02626*
X-01275Y-02626*
X-01276Y-02625*
X-01277Y-02625*
X-01278Y-02624*
X-01279Y-02624*
X-01281Y-02623*
X-01282Y-02623*
X-01282Y-02623*
G37*
G36*
X-01024Y-02685D02*
X-01024D01*
X-01025Y-02685*
X-01025Y-02686*
X-01026Y-02686*
X-01027Y-02686*
X-01029Y-02687*
X-01029Y-02687*
X-0103Y-02688*
X-0103Y-02688*
X-01031Y-02689*
Y-02689*
X-01031Y-02689*
X-01031Y-0269*
X-01031Y-0269*
X-01031Y-0269*
X-01032Y-02691*
X-01032Y-02692*
X-01032Y-02693*
X-01033Y-02694*
X-01033Y-02695*
X-01033Y-02697*
X-01033Y-02698*
X-01034Y-027*
X-01034Y-02702*
X-01034Y-02704*
X-01034Y-02706*
Y-02706*
Y-02707*
Y-02707*
X-01034Y-02708*
Y-02709*
X-01034Y-0271*
X-01034Y-02711*
X-01034Y-02713*
X-01033Y-02716*
X-01033Y-02717*
X-01033Y-02718*
X-01032Y-0272*
X-01032Y-02721*
X-01031Y-02722*
X-01031Y-02723*
Y-02723*
X-01031Y-02723*
X-0103Y-02723*
X-0103Y-02724*
X-01029Y-02725*
X-01028Y-02725*
X-01027Y-02726*
X-01025Y-02727*
X-01025Y-02727*
X-01024Y-02727*
X-01023*
X-01023Y-02727*
X-01022Y-02726*
X-01021Y-02726*
X-0102Y-02726*
X-01019Y-02725*
X-01018Y-02724*
X-01018Y-02724*
X-01017Y-02723*
X-01017Y-02723*
Y-02723*
X-01016Y-02722*
X-01016Y-02722*
X-01016Y-02722*
X-01016Y-02721*
X-01016Y-02721*
X-01015Y-0272*
X-01015Y-02719*
X-01015Y-02718*
X-01015Y-02717*
X-01014Y-02715*
X-01014Y-02714*
X-01014Y-02712*
X-01014Y-0271*
X-01014Y-02708*
Y-02706*
Y-02706*
Y-02706*
Y-02706*
Y-02705*
X-01014Y-02704*
Y-02703*
X-01014Y-02702*
X-01014Y-02701*
X-01014Y-02699*
X-01014Y-02697*
X-01015Y-02695*
X-01015Y-02694*
X-01015Y-02693*
X-01016Y-02691*
X-01016Y-0269*
X-01017Y-0269*
Y-02689*
X-01017Y-02689*
X-01017Y-02689*
X-01017Y-02689*
X-01018Y-02688*
X-01019Y-02687*
X-0102Y-02687*
X-01021Y-02686*
X-01021Y-02686*
X-01022Y-02685*
X-01023Y-02685*
X-01024Y-02685*
G37*
G36*
X-01083D02*
X-01083D01*
X-01083Y-02685*
X-01084Y-02686*
X-01085Y-02686*
X-01086Y-02686*
X-01087Y-02687*
X-01088Y-02687*
X-01089Y-02688*
X-01089Y-02688*
X-0109Y-02689*
Y-02689*
X-0109Y-02689*
X-0109Y-0269*
X-0109Y-0269*
X-0109Y-0269*
X-01091Y-02691*
X-01091Y-02692*
X-01091Y-02693*
X-01091Y-02694*
X-01092Y-02695*
X-01092Y-02697*
X-01092Y-02698*
X-01092Y-027*
X-01093Y-02702*
X-01093Y-02704*
X-01093Y-02706*
Y-02706*
Y-02707*
Y-02707*
X-01093Y-02708*
Y-02709*
X-01093Y-0271*
X-01092Y-02711*
X-01092Y-02713*
X-01092Y-02716*
X-01092Y-02717*
X-01091Y-02718*
X-01091Y-0272*
X-01091Y-02721*
X-0109Y-02722*
X-0109Y-02723*
Y-02723*
X-0109Y-02723*
X-01089Y-02723*
X-01089Y-02724*
X-01088Y-02725*
X-01087Y-02725*
X-01085Y-02726*
X-01084Y-02727*
X-01083Y-02727*
X-01083Y-02727*
X-01082*
X-01082Y-02727*
X-01081Y-02726*
X-0108Y-02726*
X-01079Y-02726*
X-01078Y-02725*
X-01077Y-02724*
X-01077Y-02724*
X-01076Y-02723*
X-01075Y-02723*
Y-02723*
X-01075Y-02722*
X-01075Y-02722*
X-01075Y-02722*
X-01075Y-02721*
X-01074Y-02721*
X-01074Y-0272*
X-01074Y-02719*
X-01074Y-02718*
X-01073Y-02717*
X-01073Y-02715*
X-01073Y-02714*
X-01073Y-02712*
X-01073Y-0271*
X-01072Y-02708*
Y-02706*
Y-02706*
Y-02706*
Y-02706*
Y-02705*
X-01073Y-02704*
Y-02703*
X-01073Y-02702*
X-01073Y-02701*
X-01073Y-02699*
X-01073Y-02697*
X-01073Y-02695*
X-01074Y-02694*
X-01074Y-02693*
X-01074Y-02691*
X-01075Y-0269*
X-01075Y-0269*
Y-02689*
X-01076Y-02689*
X-01076Y-02689*
X-01076Y-02689*
X-01077Y-02688*
X-01077Y-02687*
X-01078Y-02687*
X-0108Y-02686*
X-0108Y-02686*
X-01081Y-02685*
X-01082Y-02685*
X-01083Y-02685*
G37*
G36*
X-009Y-02273D02*
X-009D01*
X-009Y-02273*
X-009Y-02273*
X-00901Y-02273*
X-00901Y-02273*
X-00902Y-02273*
X-00902Y-02273*
X-00903Y-02274*
X-00904Y-02274*
X-00905Y-02274*
X-00906Y-02274*
X-00907Y-02275*
X-00908Y-02275*
X-0091Y-02275*
X-00911Y-02275*
X-00913Y-02276*
X-00913*
X-00913Y-02276*
X-00914Y-02276*
X-00915Y-02276*
X-00916Y-02276*
X-00917Y-02276*
X-00918Y-02277*
X-00919Y-02277*
X-00919*
X-0092Y-02277*
X-0092Y-02277*
X-0092Y-02278*
X-00922Y-02278*
X-00922Y-0228*
Y-0228*
X-00923Y-0228*
X-00923Y-0228*
X-00923Y-02281*
X-00923Y-02281*
X-00923Y-02282*
X-00923Y-02282*
X-00923Y-02283*
Y-02283*
Y-02284*
X-00923Y-02284*
X-00923Y-02285*
X-00923Y-02286*
X-00922Y-02287*
X-00922Y-02288*
X-00921Y-02288*
X-00921Y-02288*
X-00921Y-02289*
X-0092Y-02289*
X-00919Y-02289*
X-00918Y-0229*
X-00917Y-0229*
X-00916Y-0229*
X-00914Y-0229*
X-00914*
X-00913Y-0229*
X-00912Y-0229*
X-0091Y-0229*
X-00909Y-0229*
X-00908Y-02289*
X-00906Y-02288*
X-00906Y-02288*
X-00906Y-02288*
X-00905Y-02288*
X-00904Y-02287*
X-00904Y-02286*
X-00903Y-02285*
X-00902Y-02284*
X-00901Y-02283*
X-00901Y-02283*
X-00901Y-02283*
X-00901Y-02282*
X-00901Y-02281*
X-009Y-0228*
X-009Y-02279*
X-009Y-02277*
X-009Y-02275*
X-009Y-02273*
G37*
G36*
X-01008D02*
X-01008D01*
X-01008Y-02273*
X-01008Y-02273*
X-01008Y-02273*
X-01009Y-02273*
X-01009Y-02273*
X-0101Y-02273*
X-01011Y-02274*
X-01012Y-02274*
X-01013Y-02274*
X-01014Y-02274*
X-01015Y-02275*
X-01016Y-02275*
X-01017Y-02275*
X-01019Y-02275*
X-0102Y-02276*
X-0102*
X-01021Y-02276*
X-01022Y-02276*
X-01023Y-02276*
X-01024Y-02276*
X-01025Y-02276*
X-01026Y-02277*
X-01027Y-02277*
X-01027*
X-01027Y-02277*
X-01028Y-02277*
X-01028Y-02278*
X-01029Y-02278*
X-0103Y-0228*
Y-0228*
X-0103Y-0228*
X-0103Y-0228*
X-01031Y-02281*
X-01031Y-02281*
X-01031Y-02282*
X-01031Y-02282*
X-01031Y-02283*
Y-02283*
Y-02284*
X-01031Y-02284*
X-01031Y-02285*
X-01031Y-02286*
X-0103Y-02287*
X-0103Y-02288*
X-01029Y-02288*
X-01029Y-02288*
X-01028Y-02289*
X-01028Y-02289*
X-01027Y-02289*
X-01026Y-0229*
X-01025Y-0229*
X-01024Y-0229*
X-01022Y-0229*
X-01021*
X-0102Y-0229*
X-01019Y-0229*
X-01018Y-0229*
X-01017Y-0229*
X-01015Y-02289*
X-01014Y-02288*
X-01014Y-02288*
X-01013Y-02288*
X-01013Y-02288*
X-01012Y-02287*
X-01011Y-02286*
X-0101Y-02285*
X-0101Y-02284*
X-01009Y-02283*
X-01009Y-02283*
X-01009Y-02283*
X-01009Y-02282*
X-01008Y-02281*
X-01008Y-0228*
X-01008Y-02279*
X-01008Y-02277*
X-01008Y-02275*
X-01008Y-02273*
G37*
G36*
X-0111D02*
X-0111D01*
X-01111Y-02273*
X-01111Y-02273*
X-01111Y-02273*
X-01112Y-02273*
X-01112Y-02273*
X-01113Y-02273*
X-01114Y-02274*
X-01114Y-02274*
X-01115Y-02274*
X-01116Y-02274*
X-01118Y-02275*
X-01119Y-02275*
X-0112Y-02275*
X-01122Y-02275*
X-01123Y-02276*
X-01123*
X-01124Y-02276*
X-01125Y-02276*
X-01126Y-02276*
X-01127Y-02276*
X-01128Y-02276*
X-01129Y-02277*
X-0113Y-02277*
X-0113*
X-0113Y-02277*
X-01131Y-02277*
X-01131Y-02278*
X-01132Y-02278*
X-01133Y-0228*
Y-0228*
X-01133Y-0228*
X-01133Y-0228*
X-01133Y-02281*
X-01134Y-02281*
X-01134Y-02282*
X-01134Y-02282*
X-01134Y-02283*
Y-02283*
Y-02284*
X-01134Y-02284*
X-01134Y-02285*
X-01133Y-02286*
X-01133Y-02287*
X-01132Y-02288*
X-01132Y-02288*
X-01132Y-02288*
X-01131Y-02289*
X-01131Y-02289*
X-0113Y-02289*
X-01129Y-0229*
X-01128Y-0229*
X-01126Y-0229*
X-01125Y-0229*
X-01124*
X-01123Y-0229*
X-01122Y-0229*
X-01121Y-0229*
X-0112Y-0229*
X-01118Y-02289*
X-01117Y-02288*
X-01117Y-02288*
X-01116Y-02288*
X-01116Y-02288*
X-01115Y-02287*
X-01114Y-02286*
X-01113Y-02285*
X-01112Y-02284*
X-01112Y-02283*
X-01112Y-02283*
X-01112Y-02283*
X-01111Y-02282*
X-01111Y-02281*
X-01111Y-0228*
X-01111Y-02279*
X-01111Y-02277*
X-0111Y-02275*
X-0111Y-02273*
G37*
G36*
X-0117Y-02255D02*
X-0117D01*
X-01171Y-02255*
X-01172Y-02255*
X-01173Y-02256*
X-01174Y-02256*
X-01176Y-02257*
X-01177Y-02258*
X-01179Y-02259*
X-01179Y-02259*
X-01179Y-02259*
X-0118Y-0226*
X-01181Y-02261*
X-01181Y-02263*
X-01182Y-02264*
X-01183Y-02266*
X-01183Y-02268*
X-01157*
Y-02268*
Y-02268*
X-01157Y-02268*
Y-02267*
X-01158Y-02266*
X-01158Y-02265*
X-01158Y-02264*
X-01159Y-02262*
X-01159Y-02261*
X-0116Y-0226*
Y-0226*
X-0116Y-0226*
X-01161Y-02259*
X-01162Y-02258*
X-01163Y-02257*
X-01164Y-02257*
X-01166Y-02256*
X-01168Y-02255*
X-01169Y-02255*
X-0117Y-02255*
G37*
G36*
X-00976Y-02348D02*
X-00977D01*
X-00977Y-02348*
X-00978Y-02348*
X-00979Y-02348*
X-00981Y-02349*
X-00983Y-0235*
X-00984Y-02351*
X-00985Y-02352*
X-00986Y-02352*
Y-02352*
X-00986Y-02352*
X-00986Y-02353*
X-00986Y-02353*
X-00987Y-02354*
X-00987Y-02354*
X-00987Y-02355*
X-00988Y-02356*
X-00988Y-02356*
X-00988Y-02357*
X-00989Y-02358*
X-00989Y-0236*
X-00989Y-02361*
X-00989Y-02362*
X-00989Y-02364*
X-0099Y-02365*
Y-02365*
Y-02366*
Y-02366*
X-00989Y-02367*
Y-02368*
X-00989Y-02368*
X-00989Y-0237*
X-00989Y-02373*
X-00988Y-02375*
X-00987Y-02377*
X-00986Y-02378*
X-00986Y-02379*
X-00986*
X-00986Y-02379*
X-00985Y-02379*
X-00984Y-0238*
X-00983Y-02381*
X-00982Y-02382*
X-0098Y-02382*
X-00978Y-02383*
X-00977Y-02383*
X-00976Y-02383*
X-00976*
X-00975Y-02383*
X-00974Y-02383*
X-00973Y-02382*
X-00971Y-02382*
X-0097Y-02381*
X-00968Y-0238*
X-00967Y-02379*
X-00967Y-02379*
X-00966Y-02378*
X-00966Y-02378*
X-00966Y-02378*
X-00966Y-02378*
X-00966Y-02377*
X-00965Y-02377*
X-00965Y-02376*
X-00965Y-02375*
X-00964Y-02374*
X-00964Y-02373*
X-00964Y-02372*
X-00963Y-02371*
X-00963Y-0237*
X-00963Y-02368*
X-00963Y-02367*
Y-02365*
Y-02365*
Y-02365*
Y-02364*
X-00963Y-02364*
Y-02363*
X-00963Y-02362*
X-00963Y-0236*
X-00964Y-02358*
X-00964Y-02356*
X-00965Y-02354*
X-00966Y-02353*
X-00967Y-02352*
Y-02352*
X-00967Y-02352*
X-00967Y-02352*
X-00968Y-02351*
X-00969Y-0235*
X-00971Y-02349*
X-00972Y-02349*
X-00974Y-02348*
X-00975Y-02348*
X-00976Y-02348*
G37*
G36*
X-01093D02*
X-01094D01*
X-01094Y-02348*
X-01095Y-02348*
X-01097Y-02348*
X-01098Y-02349*
X-011Y-02349*
X-01101Y-0235*
X-01102Y-02352*
X-01103Y-02352*
X-01103Y-02352*
X-01104Y-02353*
X-01104Y-02354*
X-01105Y-02355*
X-01106Y-02357*
X-01106Y-02359*
X-01106Y-02361*
X-01081*
Y-02361*
Y-02361*
X-01081Y-0236*
Y-0236*
X-01081Y-02359*
X-01081Y-02358*
X-01082Y-02356*
X-01082Y-02355*
X-01083Y-02354*
X-01084Y-02352*
Y-02352*
X-01084Y-02352*
X-01085Y-02352*
X-01085Y-02351*
X-01086Y-0235*
X-01088Y-02349*
X-01089Y-02349*
X-01091Y-02348*
X-01092Y-02348*
X-01093Y-02348*
G37*
G36*
X-01241D02*
X-01241D01*
X-01242Y-02348*
X-01243Y-02348*
X-01244Y-02348*
X-01246Y-02349*
X-01247Y-0235*
X-01249Y-02351*
X-0125Y-02352*
X-0125Y-02352*
Y-02352*
X-01251Y-02352*
X-01251Y-02353*
X-01251Y-02353*
X-01251Y-02354*
X-01252Y-02354*
X-01252Y-02355*
X-01252Y-02356*
X-01253Y-02356*
X-01253Y-02357*
X-01253Y-02358*
X-01254Y-0236*
X-01254Y-02361*
X-01254Y-02362*
X-01254Y-02364*
X-01254Y-02365*
Y-02365*
Y-02366*
Y-02366*
X-01254Y-02367*
Y-02368*
X-01254Y-02368*
X-01254Y-0237*
X-01253Y-02373*
X-01253Y-02375*
X-01252Y-02377*
X-01251Y-02378*
X-0125Y-02379*
X-0125*
X-0125Y-02379*
X-0125Y-02379*
X-01249Y-0238*
X-01248Y-02381*
X-01246Y-02382*
X-01245Y-02382*
X-01243Y-02383*
X-01242Y-02383*
X-01241Y-02383*
X-0124*
X-0124Y-02383*
X-01239Y-02383*
X-01237Y-02382*
X-01236Y-02382*
X-01234Y-02381*
X-01233Y-0238*
X-01232Y-02379*
X-01231Y-02379*
X-01231Y-02378*
X-01231Y-02378*
X-01231Y-02378*
X-01231Y-02378*
X-0123Y-02377*
X-0123Y-02377*
X-0123Y-02376*
X-01229Y-02375*
X-01229Y-02374*
X-01229Y-02373*
X-01228Y-02372*
X-01228Y-02371*
X-01228Y-0237*
X-01227Y-02368*
X-01227Y-02367*
Y-02365*
Y-02365*
Y-02365*
Y-02364*
X-01227Y-02364*
Y-02363*
X-01227Y-02362*
X-01228Y-0236*
X-01228Y-02358*
X-01229Y-02356*
X-0123Y-02354*
X-0123Y-02353*
X-01231Y-02352*
Y-02352*
X-01231Y-02352*
X-01232Y-02352*
X-01233Y-02351*
X-01234Y-0235*
X-01235Y-02349*
X-01237Y-02349*
X-01239Y-02348*
X-0124Y-02348*
X-01241Y-02348*
G37*
G36*
X-00585Y-0306D02*
X-00595Y-03074D01*
X-00585*
Y-0306*
G37*
G36*
X-00639Y-03058D02*
X-00646D01*
Y-03081*
X-00638*
X-00638Y-03081*
X-00637Y-03081*
X-00637Y-03081*
X-00636Y-03081*
X-00635Y-0308*
X-00634Y-0308*
X-00634Y-0308*
X-00634Y-0308*
X-00634Y-0308*
X-00633Y-0308*
X-00633Y-0308*
X-00633Y-03079*
X-00632Y-03079*
X-00632Y-03079*
X-00632Y-03079*
X-00632Y-03078*
X-00631Y-03078*
X-00631Y-03078*
X-00631Y-03077*
X-0063Y-03076*
X-0063Y-03076*
X-0063Y-03075*
Y-03075*
X-0063Y-03075*
X-00629Y-03075*
X-00629Y-03074*
X-00629Y-03074*
X-00629Y-03074*
X-00629Y-03074*
X-00629Y-03073*
X-00629Y-03072*
X-00629Y-03071*
X-00629Y-0307*
X-00629Y-03069*
Y-03069*
Y-03069*
Y-03069*
X-00629Y-03068*
Y-03068*
X-00629Y-03067*
X-00629Y-03067*
X-00629Y-03066*
X-00629Y-03065*
X-00629Y-03064*
X-0063Y-03063*
X-0063Y-03062*
X-0063Y-03062*
Y-03062*
X-0063Y-03062*
X-0063Y-03062*
X-00631Y-03061*
X-00631Y-03061*
X-00631Y-0306*
X-00632Y-0306*
X-00633Y-03059*
X-00633Y-03059*
X-00634Y-03058*
X-00634Y-03058*
X-00634Y-03058*
X-00635Y-03058*
X-00635Y-03058*
X-00636Y-03058*
X-00637Y-03058*
X-00637Y-03058*
X-00638*
X-00639Y-03058*
G37*
G36*
X-00665D02*
X-00674D01*
Y-03069*
X-00666*
X-00665Y-03068*
X-00665*
X-00665Y-03068*
X-00664Y-03068*
X-00663Y-03068*
X-00662Y-03068*
X-00661Y-03068*
X-00661Y-03067*
X-0066Y-03067*
X-0066Y-03067*
X-0066Y-03067*
X-0066Y-03066*
X-0066Y-03066*
X-00659Y-03065*
X-00659Y-03065*
X-00659Y-03064*
X-00659Y-03063*
Y-03063*
Y-03063*
Y-03063*
X-00659Y-03062*
X-00659Y-03062*
X-00659Y-03061*
X-00659Y-03061*
X-00659Y-0306*
X-0066Y-0306*
X-0066Y-0306*
X-0066Y-0306*
X-0066Y-03059*
X-0066Y-03059*
X-00661Y-03059*
X-00661Y-03059*
X-00662Y-03058*
X-00662Y-03058*
X-00662*
X-00663Y-03058*
X-00663Y-03058*
X-00663Y-03058*
X-00664Y-03058*
X-00664Y-03058*
X-00665Y-03058*
G37*
G36*
X-00756D02*
X-00763D01*
Y-03081*
X-00756*
X-00756Y-03081*
X-00755Y-03081*
X-00754Y-03081*
X-00753Y-03081*
X-00753Y-0308*
X-00752Y-0308*
X-00752Y-0308*
X-00752Y-0308*
X-00751Y-0308*
X-00751Y-0308*
X-00751Y-0308*
X-0075Y-03079*
X-0075Y-03079*
X-00749Y-03079*
X-00749Y-03079*
X-00749Y-03078*
X-00749Y-03078*
X-00748Y-03078*
X-00748Y-03077*
X-00748Y-03076*
X-00747Y-03076*
X-00747Y-03075*
Y-03075*
X-00747Y-03075*
X-00747Y-03075*
X-00747Y-03074*
X-00747Y-03074*
X-00747Y-03074*
X-00747Y-03074*
X-00747Y-03073*
X-00746Y-03072*
X-00746Y-03071*
X-00746Y-0307*
X-00746Y-03069*
Y-03069*
Y-03069*
Y-03069*
X-00746Y-03068*
Y-03068*
X-00746Y-03067*
X-00746Y-03067*
X-00746Y-03066*
X-00747Y-03065*
X-00747Y-03064*
X-00747Y-03063*
X-00748Y-03062*
X-00748Y-03062*
Y-03062*
X-00748Y-03062*
X-00748Y-03062*
X-00748Y-03061*
X-00748Y-03061*
X-00749Y-0306*
X-00749Y-0306*
X-0075Y-03059*
X-00751Y-03059*
X-00752Y-03058*
X-00752Y-03058*
X-00752Y-03058*
X-00752Y-03058*
X-00753Y-03058*
X-00754Y-03058*
X-00754Y-03058*
X-00755Y-03058*
X-00755*
X-00756Y-03058*
G37*
G36*
X-00783D02*
X-00791D01*
Y-03069*
X-00783*
X-00783Y-03068*
X-00783*
X-00782Y-03068*
X-00781Y-03068*
X-0078Y-03068*
X-00779Y-03068*
X-00779Y-03068*
X-00778Y-03067*
X-00778Y-03067*
X-00778Y-03067*
X-00778Y-03067*
X-00777Y-03066*
X-00777Y-03066*
X-00777Y-03065*
X-00777Y-03065*
X-00776Y-03064*
X-00776Y-03063*
Y-03063*
Y-03063*
Y-03063*
X-00776Y-03062*
X-00776Y-03062*
X-00777Y-03061*
X-00777Y-03061*
X-00777Y-0306*
X-00777Y-0306*
X-00777Y-0306*
X-00777Y-0306*
X-00778Y-03059*
X-00778Y-03059*
X-00778Y-03059*
X-00779Y-03059*
X-00779Y-03058*
X-0078Y-03058*
X-0078*
X-0078Y-03058*
X-0078Y-03058*
X-00781Y-03058*
X-00781Y-03058*
X-00782Y-03058*
X-00783Y-03058*
G37*
G36*
X-00874D02*
X-00881D01*
Y-03081*
X-00873*
X-00873Y-03081*
X-00872Y-03081*
X-00872Y-03081*
X-00871Y-03081*
X-0087Y-0308*
X-00869Y-0308*
X-00869Y-0308*
X-00869Y-0308*
X-00869Y-0308*
X-00868Y-0308*
X-00868Y-0308*
X-00868Y-03079*
X-00867Y-03079*
X-00867Y-03079*
X-00867Y-03079*
X-00866Y-03078*
X-00866Y-03078*
X-00866Y-03078*
X-00866Y-03077*
X-00865Y-03076*
X-00865Y-03076*
X-00864Y-03075*
Y-03075*
X-00864Y-03075*
X-00864Y-03075*
X-00864Y-03074*
X-00864Y-03074*
X-00864Y-03074*
X-00864Y-03074*
X-00864Y-03073*
X-00864Y-03072*
X-00864Y-03071*
X-00864Y-0307*
X-00864Y-03069*
Y-03069*
Y-03069*
Y-03069*
X-00864Y-03068*
Y-03068*
X-00864Y-03067*
X-00864Y-03067*
X-00864Y-03066*
X-00864Y-03065*
X-00864Y-03064*
X-00865Y-03063*
X-00865Y-03062*
X-00865Y-03062*
Y-03062*
X-00865Y-03062*
X-00865Y-03062*
X-00865Y-03061*
X-00866Y-03061*
X-00866Y-0306*
X-00867Y-0306*
X-00868Y-03059*
X-00868Y-03059*
X-00869Y-03058*
X-00869Y-03058*
X-00869Y-03058*
X-0087Y-03058*
X-0087Y-03058*
X-00871Y-03058*
X-00872Y-03058*
X-00872Y-03058*
X-00873*
X-00874Y-03058*
G37*
G36*
X-009D02*
X-00909D01*
Y-03069*
X-00901*
X-009Y-03068*
X-009*
X-009Y-03068*
X-00899Y-03068*
X-00898Y-03068*
X-00897Y-03068*
X-00896Y-03068*
X-00896Y-03067*
X-00895Y-03067*
X-00895Y-03067*
X-00895Y-03067*
X-00895Y-03066*
X-00895Y-03066*
X-00894Y-03065*
X-00894Y-03065*
X-00894Y-03064*
X-00894Y-03063*
Y-03063*
Y-03063*
Y-03063*
X-00894Y-03062*
X-00894Y-03062*
X-00894Y-03061*
X-00894Y-03061*
X-00894Y-0306*
X-00895Y-0306*
X-00895Y-0306*
X-00895Y-0306*
X-00895Y-03059*
X-00895Y-03059*
X-00896Y-03059*
X-00896Y-03059*
X-00897Y-03058*
X-00897Y-03058*
X-00897*
X-00897Y-03058*
X-00898Y-03058*
X-00898Y-03058*
X-00899Y-03058*
X-00899Y-03058*
X-009Y-03058*
G37*
%LNmicrophonearray.main-3*%
%LPD*%
G54D10*
X-00023Y-00072D02*
D01*
X-00023Y-00069*
X-00024Y-00066*
X-00024Y-00062*
X-00025Y-00059*
X-00026Y-00055*
X-00028Y-00052*
X-00029Y-00049*
X-00031Y-00046*
X-00033Y-00043*
X-00035Y-0004*
X-00037Y-00038*
X-0004Y-00035*
X-00043Y-00033*
X-00045Y-00031*
X-00048Y-00029*
X-00051Y-00028*
X-00055Y-00026*
X-00058Y-00025*
X-00061Y-00024*
X-00065Y-00023*
X-00068Y-00023*
X-00072Y-00023*
X-00075*
X-00079Y-00023*
X-00082Y-00023*
X-00085Y-00024*
X-00089Y-00025*
X-00092Y-00026*
X-00095Y-00028*
X-00098Y-00029*
X-00101Y-00031*
X-00104Y-00033*
X-00107Y-00035*
X-00109Y-00038*
X-00112Y-0004*
X-00114Y-00043*
X-00116Y-00046*
X-00117Y-00049*
X-00119Y-00052*
X-0012Y-00055*
X-00121Y-00059*
X-00122Y-00062*
X-00123Y-00066*
X-00123Y-00069*
X-00123Y-00072*
X-00123Y-00076*
X-00123Y-00079*
X-00122Y-00083*
X-00121Y-00086*
X-0012Y-0009*
X-00119Y-00093*
X-00117Y-00096*
X-00116Y-00099*
X-00114Y-00102*
X-00112Y-00105*
X-00109Y-00107*
X-00107Y-0011*
X-00104Y-00112*
X-00101Y-00114*
X-00098Y-00116*
X-00095Y-00117*
X-00092Y-00119*
X-00089Y-0012*
X-00085Y-00121*
X-00082Y-00122*
X-00079Y-00122*
X-00075Y-00122*
X-00072*
X-00068Y-00122*
X-00065Y-00122*
X-00061Y-00121*
X-00058Y-0012*
X-00055Y-00119*
X-00051Y-00117*
X-00048Y-00116*
X-00045Y-00114*
X-00043Y-00112*
X-0004Y-0011*
X-00037Y-00107*
X-00035Y-00105*
X-00033Y-00102*
X-00031Y-00099*
X-00029Y-00096*
X-00028Y-00093*
X-00026Y-0009*
X-00025Y-00086*
X-00024Y-00083*
X-00024Y-00079*
X-00023Y-00076*
X-00023Y-00072*
X-01032Y-01141D02*
D01*
X-01032Y-01138*
X-01033Y-01134*
X-01033Y-01131*
X-01034Y-01127*
X-01035Y-01124*
X-01036Y-01121*
X-01038Y-01118*
X-0104Y-01115*
X-01042Y-01112*
X-01044Y-01109*
X-01046Y-01106*
X-01049Y-01104*
X-01051Y-01102*
X-01054Y-011*
X-01057Y-01098*
X-0106Y-01096*
X-01063Y-01095*
X-01067Y-01094*
X-0107Y-01093*
X-01073Y-01092*
X-01077Y-01092*
X-0108Y-01091*
X-01084*
X-01087Y-01092*
X-01091Y-01092*
X-01094Y-01093*
X-01098Y-01094*
X-01101Y-01095*
X-01104Y-01096*
X-01107Y-01098*
X-0111Y-011*
X-01113Y-01102*
X-01116Y-01104*
X-01118Y-01106*
X-0112Y-01109*
X-01123Y-01112*
X-01125Y-01115*
X-01126Y-01118*
X-01128Y-01121*
X-01129Y-01124*
X-0113Y-01127*
X-01131Y-01131*
X-01132Y-01134*
X-01132Y-01138*
X-01132Y-01141*
X-01132Y-01145*
X-01132Y-01148*
X-01131Y-01152*
X-0113Y-01155*
X-01129Y-01158*
X-01128Y-01162*
X-01126Y-01165*
X-01125Y-01168*
X-01123Y-01171*
X-0112Y-01173*
X-01118Y-01176*
X-01116Y-01178*
X-01113Y-01181*
X-0111Y-01183*
X-01107Y-01185*
X-01104Y-01186*
X-01101Y-01188*
X-01098Y-01189*
X-01094Y-0119*
X-01091Y-0119*
X-01087Y-01191*
X-01084Y-01191*
X-0108*
X-01077Y-01191*
X-01073Y-0119*
X-0107Y-0119*
X-01067Y-01189*
X-01063Y-01188*
X-0106Y-01186*
X-01057Y-01185*
X-01054Y-01183*
X-01051Y-01181*
X-01049Y-01178*
X-01046Y-01176*
X-01044Y-01173*
X-01042Y-01171*
X-0104Y-01168*
X-01038Y-01165*
X-01036Y-01162*
X-01035Y-01158*
X-01034Y-01155*
X-01033Y-01152*
X-01033Y-01148*
X-01032Y-01145*
X-01032Y-01141*
X-00013Y-00502D02*
D01*
X-00014Y-00499*
X-00014Y-00495*
X-00015Y-00492*
X-00015Y-00488*
X-00016Y-00485*
X-00018Y-00482*
X-00019Y-00479*
X-00021Y-00476*
X-00023Y-00473*
X-00025Y-0047*
X-00027Y-00467*
X-0003Y-00465*
X-00033Y-00463*
X-00035Y-00461*
X-00038Y-00459*
X-00042Y-00457*
X-00045Y-00456*
X-00048Y-00455*
X-00051Y-00454*
X-00055Y-00453*
X-00058Y-00452*
X-00062Y-00452*
X-00065*
X-00069Y-00452*
X-00072Y-00453*
X-00076Y-00454*
X-00079Y-00455*
X-00082Y-00456*
X-00085Y-00457*
X-00088Y-00459*
X-00091Y-00461*
X-00094Y-00463*
X-00097Y-00465*
X-00099Y-00467*
X-00102Y-0047*
X-00104Y-00473*
X-00106Y-00476*
X-00108Y-00479*
X-00109Y-00482*
X-0011Y-00485*
X-00112Y-00488*
X-00112Y-00492*
X-00113Y-00495*
X-00113Y-00499*
X-00113Y-00502*
X-00113Y-00506*
X-00113Y-00509*
X-00112Y-00512*
X-00112Y-00516*
X-0011Y-00519*
X-00109Y-00522*
X-00108Y-00526*
X-00106Y-00529*
X-00104Y-00531*
X-00102Y-00534*
X-00099Y-00537*
X-00097Y-00539*
X-00094Y-00541*
X-00091Y-00544*
X-00088Y-00545*
X-00085Y-00547*
X-00082Y-00548*
X-00079Y-0055*
X-00076Y-00551*
X-00072Y-00551*
X-00069Y-00552*
X-00065Y-00552*
X-00062*
X-00058Y-00552*
X-00055Y-00551*
X-00051Y-00551*
X-00048Y-0055*
X-00045Y-00548*
X-00042Y-00547*
X-00038Y-00545*
X-00035Y-00544*
X-00033Y-00541*
X-0003Y-00539*
X-00027Y-00537*
X-00025Y-00534*
X-00023Y-00531*
X-00021Y-00529*
X-00019Y-00526*
X-00018Y-00522*
X-00016Y-00519*
X-00015Y-00516*
X-00015Y-00512*
X-00014Y-00509*
X-00014Y-00506*
X-00013Y-00502*
X-01232Y-01024D02*
D01*
X-01232Y-0102*
X-01232Y-01017*
X-01233Y-01013*
X-01234Y-0101*
X-01235Y-01006*
X-01236Y-01003*
X-01238Y-01*
X-01239Y-00997*
X-01241Y-00994*
X-01244Y-00991*
X-01246Y-00989*
X-01248Y-00986*
X-01251Y-00984*
X-01254Y-00982*
X-01257Y-0098*
X-0126Y-00979*
X-01263Y-00977*
X-01266Y-00976*
X-0127Y-00975*
X-01273Y-00974*
X-01277Y-00974*
X-0128Y-00974*
X-01284*
X-01287Y-00974*
X-01291Y-00974*
X-01294Y-00975*
X-01297Y-00976*
X-01301Y-00977*
X-01304Y-00979*
X-01307Y-0098*
X-0131Y-00982*
X-01313Y-00984*
X-01315Y-00986*
X-01318Y-00989*
X-0132Y-00991*
X-01322Y-00994*
X-01324Y-00997*
X-01326Y-01*
X-01328Y-01003*
X-01329Y-01006*
X-0133Y-0101*
X-01331Y-01013*
X-01331Y-01017*
X-01332Y-0102*
X-01332Y-01024*
X-01332Y-01027*
X-01331Y-01031*
X-01331Y-01034*
X-0133Y-01037*
X-01329Y-01041*
X-01328Y-01044*
X-01326Y-01047*
X-01324Y-0105*
X-01322Y-01053*
X-0132Y-01056*
X-01318Y-01058*
X-01315Y-01061*
X-01313Y-01063*
X-0131Y-01065*
X-01307Y-01067*
X-01304Y-01068*
X-01301Y-0107*
X-01297Y-01071*
X-01294Y-01072*
X-01291Y-01073*
X-01287Y-01073*
X-01284Y-01074*
X-0128*
X-01277Y-01073*
X-01273Y-01073*
X-0127Y-01072*
X-01266Y-01071*
X-01263Y-0107*
X-0126Y-01068*
X-01257Y-01067*
X-01254Y-01065*
X-01251Y-01063*
X-01248Y-01061*
X-01246Y-01058*
X-01244Y-01056*
X-01241Y-01053*
X-01239Y-0105*
X-01238Y-01047*
X-01236Y-01044*
X-01235Y-01041*
X-01234Y-01037*
X-01233Y-01034*
X-01232Y-01031*
X-01232Y-01027*
X-01232Y-01024*
X-01018Y-00275D02*
D01*
X-01019Y-00271*
X-01019Y-00268*
X-0102Y-00264*
X-0102Y-00261*
X-01021Y-00257*
X-01023Y-00254*
X-01024Y-00251*
X-01026Y-00248*
X-01028Y-00245*
X-0103Y-00242*
X-01033Y-0024*
X-01035Y-00237*
X-01038Y-00235*
X-01041Y-00233*
X-01043Y-00231*
X-01047Y-0023*
X-0105Y-00228*
X-01053Y-00227*
X-01056Y-00226*
X-0106Y-00225*
X-01063Y-00225*
X-01067Y-00225*
X-0107*
X-01074Y-00225*
X-01077Y-00225*
X-01081Y-00226*
X-01084Y-00227*
X-01087Y-00228*
X-0109Y-0023*
X-01093Y-00231*
X-01096Y-00233*
X-01099Y-00235*
X-01102Y-00237*
X-01104Y-0024*
X-01107Y-00242*
X-01109Y-00245*
X-01111Y-00248*
X-01113Y-00251*
X-01114Y-00254*
X-01115Y-00257*
X-01117Y-00261*
X-01117Y-00264*
X-01118Y-00268*
X-01118Y-00271*
X-01118Y-00275*
X-01118Y-00278*
X-01118Y-00281*
X-01117Y-00285*
X-01117Y-00288*
X-01115Y-00292*
X-01114Y-00295*
X-01113Y-00298*
X-01111Y-00301*
X-01109Y-00304*
X-01107Y-00307*
X-01104Y-00309*
X-01102Y-00312*
X-01099Y-00314*
X-01096Y-00316*
X-01093Y-00318*
X-0109Y-00319*
X-01087Y-00321*
X-01084Y-00322*
X-01081Y-00323*
X-01077Y-00324*
X-01074Y-00324*
X-0107Y-00324*
X-01067*
X-01063Y-00324*
X-0106Y-00324*
X-01056Y-00323*
X-01053Y-00322*
X-0105Y-00321*
X-01047Y-00319*
X-01043Y-00318*
X-01041Y-00316*
X-01038Y-00314*
X-01035Y-00312*
X-01033Y-00309*
X-0103Y-00307*
X-01028Y-00304*
X-01026Y-00301*
X-01024Y-00298*
X-01023Y-00295*
X-01021Y-00292*
X-0102Y-00288*
X-0102Y-00285*
X-01019Y-00281*
X-01019Y-00278*
X-01018Y-00275*
X-00691Y-02436D02*
D01*
X-00692Y-02433*
X-00692Y-02429*
X-00692Y-02426*
X-00693Y-02422*
X-00694Y-02419*
X-00696Y-02416*
X-00697Y-02413*
X-00699Y-0241*
X-00701Y-02407*
X-00703Y-02404*
X-00705Y-02402*
X-00708Y-02399*
X-00711Y-02397*
X-00713Y-02395*
X-00716Y-02393*
X-00719Y-02391*
X-00723Y-0239*
X-00726Y-02389*
X-00729Y-02388*
X-00733Y-02387*
X-00736Y-02387*
X-0074Y-02386*
X-00743*
X-00747Y-02387*
X-0075Y-02387*
X-00753Y-02388*
X-00757Y-02389*
X-0076Y-0239*
X-00763Y-02391*
X-00766Y-02393*
X-00769Y-02395*
X-00772Y-02397*
X-00775Y-02399*
X-00777Y-02402*
X-0078Y-02404*
X-00782Y-02407*
X-00784Y-0241*
X-00786Y-02413*
X-00787Y-02416*
X-00788Y-02419*
X-00789Y-02422*
X-0079Y-02426*
X-00791Y-02429*
X-00791Y-02433*
X-00791Y-02436*
X-00791Y-0244*
X-00791Y-02443*
X-0079Y-02447*
X-00789Y-0245*
X-00788Y-02453*
X-00787Y-02457*
X-00786Y-0246*
X-00784Y-02463*
X-00782Y-02466*
X-0078Y-02468*
X-00777Y-02471*
X-00775Y-02473*
X-00772Y-02476*
X-00769Y-02478*
X-00766Y-0248*
X-00763Y-02481*
X-0076Y-02483*
X-00757Y-02484*
X-00753Y-02485*
X-0075Y-02486*
X-00747Y-02486*
X-00743Y-02486*
X-0074*
X-00736Y-02486*
X-00733Y-02486*
X-00729Y-02485*
X-00726Y-02484*
X-00723Y-02483*
X-00719Y-02481*
X-00716Y-0248*
X-00713Y-02478*
X-00711Y-02476*
X-00708Y-02473*
X-00705Y-02471*
X-00703Y-02468*
X-00701Y-02466*
X-00699Y-02463*
X-00697Y-0246*
X-00696Y-02457*
X-00694Y-02453*
X-00693Y-0245*
X-00692Y-02447*
X-00692Y-02443*
X-00692Y-0244*
X-00691Y-02436*
X-00843Y-02816D02*
D01*
X-00843Y-02812*
X-00844Y-02809*
X-00844Y-02805*
X-00845Y-02802*
X-00846Y-02798*
X-00847Y-02795*
X-00849Y-02792*
X-00851Y-02789*
X-00853Y-02786*
X-00855Y-02783*
X-00857Y-02781*
X-0086Y-02778*
X-00862Y-02776*
X-00865Y-02774*
X-00868Y-02772*
X-00871Y-02771*
X-00874Y-02769*
X-00878Y-02768*
X-00881Y-02767*
X-00884Y-02766*
X-00888Y-02766*
X-00891Y-02766*
X-00895*
X-00898Y-02766*
X-00902Y-02766*
X-00905Y-02767*
X-00909Y-02768*
X-00912Y-02769*
X-00915Y-02771*
X-00918Y-02772*
X-00921Y-02774*
X-00924Y-02776*
X-00927Y-02778*
X-00929Y-02781*
X-00931Y-02783*
X-00934Y-02786*
X-00935Y-02789*
X-00937Y-02792*
X-00939Y-02795*
X-0094Y-02798*
X-00941Y-02802*
X-00942Y-02805*
X-00943Y-02809*
X-00943Y-02812*
X-00943Y-02816*
X-00943Y-02819*
X-00943Y-02822*
X-00942Y-02826*
X-00941Y-02829*
X-0094Y-02833*
X-00939Y-02836*
X-00937Y-02839*
X-00935Y-02842*
X-00934Y-02845*
X-00931Y-02848*
X-00929Y-0285*
X-00927Y-02853*
X-00924Y-02855*
X-00921Y-02857*
X-00918Y-02859*
X-00915Y-0286*
X-00912Y-02862*
X-00909Y-02863*
X-00905Y-02864*
X-00902Y-02865*
X-00898Y-02865*
X-00895Y-02865*
X-00891*
X-00888Y-02865*
X-00884Y-02865*
X-00881Y-02864*
X-00878Y-02863*
X-00874Y-02862*
X-00871Y-0286*
X-00868Y-02859*
X-00865Y-02857*
X-00862Y-02855*
X-0086Y-02853*
X-00857Y-0285*
X-00855Y-02848*
X-00853Y-02845*
X-00851Y-02842*
X-00849Y-02839*
X-00847Y-02836*
X-00846Y-02833*
X-00845Y-02829*
X-00844Y-02826*
X-00844Y-02822*
X-00843Y-02819*
X-00843Y-02816*
X-00019Y-01844D02*
D01*
X-00019Y-01841*
X-00019Y-01837*
X-0002Y-01834*
X-00021Y-0183*
X-00022Y-01827*
X-00023Y-01824*
X-00025Y-01821*
X-00026Y-01818*
X-00028Y-01815*
X-00031Y-01812*
X-00033Y-01809*
X-00035Y-01807*
X-00038Y-01805*
X-00041Y-01803*
X-00044Y-01801*
X-00047Y-01799*
X-0005Y-01798*
X-00053Y-01796*
X-00057Y-01796*
X-0006Y-01795*
X-00064Y-01794*
X-00067Y-01794*
X-00071*
X-00074Y-01794*
X-00078Y-01795*
X-00081Y-01796*
X-00084Y-01796*
X-00088Y-01798*
X-00091Y-01799*
X-00094Y-01801*
X-00097Y-01803*
X-001Y-01805*
X-00102Y-01807*
X-00105Y-01809*
X-00107Y-01812*
X-00109Y-01815*
X-00111Y-01818*
X-00113Y-01821*
X-00115Y-01824*
X-00116Y-01827*
X-00117Y-0183*
X-00118Y-01834*
X-00118Y-01837*
X-00119Y-01841*
X-00119Y-01844*
X-00119Y-01848*
X-00118Y-01851*
X-00118Y-01854*
X-00117Y-01858*
X-00116Y-01861*
X-00115Y-01864*
X-00113Y-01868*
X-00111Y-01871*
X-00109Y-01873*
X-00107Y-01876*
X-00105Y-01879*
X-00102Y-01881*
X-001Y-01883*
X-00097Y-01885*
X-00094Y-01887*
X-00091Y-01889*
X-00088Y-0189*
X-00084Y-01892*
X-00081Y-01893*
X-00078Y-01893*
X-00074Y-01894*
X-00071Y-01894*
X-00067*
X-00064Y-01894*
X-0006Y-01893*
X-00057Y-01893*
X-00053Y-01892*
X-0005Y-0189*
X-00047Y-01889*
X-00044Y-01887*
X-00041Y-01885*
X-00038Y-01883*
X-00035Y-01881*
X-00033Y-01879*
X-00031Y-01876*
X-00028Y-01873*
X-00026Y-01871*
X-00025Y-01868*
X-00023Y-01864*
X-00022Y-01861*
X-00021Y-01858*
X-0002Y-01854*
X-00019Y-01851*
X-00019Y-01848*
X-00019Y-01844*
X-00511Y-00624D02*
D01*
X-00511Y-00623*
X-00511Y-00622*
X-00511Y-00621*
X-00512Y-0062*
X-00512Y-0062*
X-00512Y-00619*
X-00512Y-00618*
X-00513Y-00617*
X-00513Y-00617*
X-00514Y-00616*
X-00514Y-00616*
X-00515Y-00615*
X-00516Y-00614*
X-00516Y-00614*
X-00517Y-00614*
X-00518Y-00613*
X-00518Y-00613*
X-00519Y-00613*
X-0052Y-00612*
X-00521Y-00612*
X-00522Y-00612*
X-00522Y-00612*
X-00523Y-00612*
X-00718Y-0175D02*
D01*
X-00719Y-0175*
X-0072Y-0175*
X-0072Y-0175*
X-00721Y-0175*
X-00722Y-01751*
X-00723Y-01751*
X-00724Y-01751*
X-00724Y-01752*
X-00725Y-01752*
X-00726Y-01753*
X-00726Y-01753*
X-00727Y-01754*
X-00727Y-01754*
X-00728Y-01755*
X-00728Y-01756*
X-00729Y-01757*
X-00729Y-01757*
X-00729Y-01758*
X-00729Y-01759*
X-0073Y-0176*
X-0073Y-0176*
X-0073Y-01761*
X-0073Y-01762*
X-00728Y-01026D02*
D01*
X-00728Y-01022*
X-00729Y-01019*
X-00729Y-01015*
X-0073Y-01012*
X-00731Y-01009*
X-00733Y-01005*
X-00734Y-01002*
X-00736Y-00999*
X-00738Y-00996*
X-0074Y-00993*
X-00742Y-00991*
X-00745Y-00988*
X-00747Y-00986*
X-0075Y-00984*
X-00753Y-00982*
X-00756Y-00981*
X-00759Y-00979*
X-00763Y-00978*
X-00766Y-00977*
X-0077Y-00976*
X-00773Y-00976*
X-00776Y-00976*
X-0078*
X-00783Y-00976*
X-00787Y-00976*
X-0079Y-00977*
X-00794Y-00978*
X-00797Y-00979*
X-008Y-00981*
X-00803Y-00982*
X-00806Y-00984*
X-00809Y-00986*
X-00812Y-00988*
X-00814Y-00991*
X-00817Y-00993*
X-00819Y-00996*
X-00821Y-00999*
X-00822Y-01002*
X-00824Y-01005*
X-00825Y-01009*
X-00826Y-01012*
X-00827Y-01015*
X-00828Y-01019*
X-00828Y-01022*
X-00828Y-01026*
X-00828Y-01029*
X-00828Y-01033*
X-00827Y-01036*
X-00826Y-01039*
X-00825Y-01043*
X-00824Y-01046*
X-00822Y-01049*
X-00821Y-01052*
X-00819Y-01055*
X-00817Y-01058*
X-00814Y-0106*
X-00812Y-01063*
X-00809Y-01065*
X-00806Y-01067*
X-00803Y-01069*
X-008Y-01071*
X-00797Y-01072*
X-00794Y-01073*
X-0079Y-01074*
X-00787Y-01075*
X-00783Y-01075*
X-0078Y-01076*
X-00776*
X-00773Y-01075*
X-0077Y-01075*
X-00766Y-01074*
X-00763Y-01073*
X-00759Y-01072*
X-00756Y-01071*
X-00753Y-01069*
X-0075Y-01067*
X-00747Y-01065*
X-00745Y-01063*
X-00742Y-0106*
X-0074Y-01058*
X-00738Y-01055*
X-00736Y-01052*
X-00734Y-01049*
X-00733Y-01046*
X-00731Y-01043*
X-0073Y-01039*
X-00729Y-01036*
X-00729Y-01033*
X-00728Y-01029*
X-00728Y-01026*
X-00492Y-01064D02*
D01*
X-00493Y-0106*
X-00493Y-01057*
X-00494Y-01053*
X-00494Y-0105*
X-00495Y-01047*
X-00497Y-01043*
X-00498Y-0104*
X-005Y-01037*
X-00502Y-01034*
X-00504Y-01032*
X-00506Y-01029*
X-00509Y-01027*
X-00512Y-01024*
X-00514Y-01022*
X-00517Y-0102*
X-0052Y-01019*
X-00524Y-01017*
X-00527Y-01016*
X-0053Y-01015*
X-00534Y-01015*
X-00537Y-01014*
X-00541Y-01014*
X-00544*
X-00548Y-01014*
X-00551Y-01015*
X-00555Y-01015*
X-00558Y-01016*
X-00561Y-01017*
X-00564Y-01019*
X-00567Y-0102*
X-0057Y-01022*
X-00573Y-01024*
X-00576Y-01027*
X-00578Y-01029*
X-00581Y-01032*
X-00583Y-01034*
X-00585Y-01037*
X-00587Y-0104*
X-00588Y-01043*
X-00589Y-01047*
X-0059Y-0105*
X-00591Y-01053*
X-00592Y-01057*
X-00592Y-0106*
X-00592Y-01064*
X-00592Y-01067*
X-00592Y-01071*
X-00591Y-01074*
X-0059Y-01078*
X-00589Y-01081*
X-00588Y-01084*
X-00587Y-01087*
X-00585Y-0109*
X-00583Y-01093*
X-00581Y-01096*
X-00578Y-01098*
X-00576Y-01101*
X-00573Y-01103*
X-0057Y-01105*
X-00567Y-01107*
X-00564Y-01109*
X-00561Y-0111*
X-00558Y-01111*
X-00555Y-01112*
X-00551Y-01113*
X-00548Y-01113*
X-00544Y-01114*
X-00541*
X-00537Y-01113*
X-00534Y-01113*
X-0053Y-01112*
X-00527Y-01111*
X-00524Y-0111*
X-0052Y-01109*
X-00517Y-01107*
X-00514Y-01105*
X-00512Y-01103*
X-00509Y-01101*
X-00506Y-01098*
X-00504Y-01096*
X-00502Y-01093*
X-005Y-0109*
X-00498Y-01087*
X-00497Y-01084*
X-00495Y-01081*
X-00494Y-01078*
X-00494Y-01074*
X-00493Y-01071*
X-00493Y-01067*
X-00492Y-01064*
X-00505Y-02071D02*
D01*
X-00505Y-02067*
X-00506Y-02064*
X-00506Y-0206*
X-00507Y-02057*
X-00508Y-02054*
X-0051Y-0205*
X-00511Y-02047*
X-00513Y-02044*
X-00515Y-02041*
X-00517Y-02039*
X-00519Y-02036*
X-00522Y-02034*
X-00525Y-02031*
X-00527Y-02029*
X-0053Y-02027*
X-00533Y-02026*
X-00537Y-02024*
X-0054Y-02023*
X-00543Y-02022*
X-00547Y-02022*
X-0055Y-02021*
X-00554Y-02021*
X-00557*
X-00561Y-02021*
X-00564Y-02022*
X-00567Y-02022*
X-00571Y-02023*
X-00574Y-02024*
X-00577Y-02026*
X-0058Y-02027*
X-00583Y-02029*
X-00586Y-02031*
X-00589Y-02034*
X-00591Y-02036*
X-00594Y-02039*
X-00596Y-02041*
X-00598Y-02044*
X-006Y-02047*
X-00601Y-0205*
X-00602Y-02054*
X-00603Y-02057*
X-00604Y-0206*
X-00605Y-02064*
X-00605Y-02067*
X-00605Y-02071*
X-00605Y-02074*
X-00605Y-02078*
X-00604Y-02081*
X-00603Y-02085*
X-00602Y-02088*
X-00601Y-02091*
X-006Y-02094*
X-00598Y-02097*
X-00596Y-021*
X-00594Y-02103*
X-00591Y-02105*
X-00589Y-02108*
X-00586Y-0211*
X-00583Y-02112*
X-0058Y-02114*
X-00577Y-02116*
X-00574Y-02117*
X-00571Y-02118*
X-00567Y-02119*
X-00564Y-0212*
X-00561Y-0212*
X-00557Y-02121*
X-00554*
X-0055Y-0212*
X-00547Y-0212*
X-00543Y-02119*
X-0054Y-02118*
X-00537Y-02117*
X-00533Y-02116*
X-0053Y-02114*
X-00527Y-02112*
X-00525Y-0211*
X-00522Y-02108*
X-00519Y-02105*
X-00517Y-02103*
X-00515Y-021*
X-00513Y-02097*
X-00511Y-02094*
X-0051Y-02091*
X-00508Y-02088*
X-00507Y-02085*
X-00506Y-02081*
X-00506Y-02078*
X-00505Y-02074*
X-00505Y-02071*
X-00688Y-02019D02*
D01*
X-00688Y-02016*
X-00689Y-02012*
X-00689Y-02009*
X-0069Y-02005*
X-00691Y-02002*
X-00693Y-01999*
X-00694Y-01996*
X-00696Y-01993*
X-00698Y-0199*
X-007Y-01987*
X-00702Y-01985*
X-00705Y-01982*
X-00707Y-0198*
X-0071Y-01978*
X-00713Y-01976*
X-00716Y-01974*
X-0072Y-01973*
X-00723Y-01972*
X-00726Y-01971*
X-0073Y-0197*
X-00733Y-0197*
X-00736Y-01969*
X-0074*
X-00743Y-0197*
X-00747Y-0197*
X-0075Y-01971*
X-00754Y-01972*
X-00757Y-01973*
X-0076Y-01974*
X-00763Y-01976*
X-00766Y-01978*
X-00769Y-0198*
X-00772Y-01982*
X-00774Y-01985*
X-00777Y-01987*
X-00779Y-0199*
X-00781Y-01993*
X-00782Y-01996*
X-00784Y-01999*
X-00785Y-02002*
X-00786Y-02005*
X-00787Y-02009*
X-00788Y-02012*
X-00788Y-02016*
X-00788Y-02019*
X-00788Y-02023*
X-00788Y-02026*
X-00787Y-0203*
X-00786Y-02033*
X-00785Y-02036*
X-00784Y-0204*
X-00782Y-02043*
X-00781Y-02046*
X-00779Y-02049*
X-00777Y-02051*
X-00774Y-02054*
X-00772Y-02056*
X-00769Y-02059*
X-00766Y-02061*
X-00763Y-02063*
X-0076Y-02064*
X-00757Y-02066*
X-00754Y-02067*
X-0075Y-02068*
X-00747Y-02069*
X-00743Y-02069*
X-0074Y-02069*
X-00736*
X-00733Y-02069*
X-0073Y-02069*
X-00726Y-02068*
X-00723Y-02067*
X-0072Y-02066*
X-00716Y-02064*
X-00713Y-02063*
X-0071Y-02061*
X-00707Y-02059*
X-00705Y-02056*
X-00702Y-02054*
X-007Y-02051*
X-00698Y-02049*
X-00696Y-02046*
X-00694Y-02043*
X-00693Y-0204*
X-00691Y-02036*
X-0069Y-02033*
X-00689Y-0203*
X-00689Y-02026*
X-00688Y-02023*
X-00688Y-02019*
X-00018Y-01556D02*
D01*
X-00018Y-01553*
X-00018Y-01549*
X-00019Y-01546*
X-0002Y-01542*
X-00021Y-01539*
X-00022Y-01536*
X-00024Y-01533*
X-00025Y-0153*
X-00027Y-01527*
X-00029Y-01524*
X-00032Y-01521*
X-00034Y-01519*
X-00037Y-01517*
X-0004Y-01515*
X-00043Y-01513*
X-00046Y-01511*
X-00049Y-0151*
X-00052Y-01509*
X-00056Y-01508*
X-00059Y-01507*
X-00062Y-01507*
X-00066Y-01506*
X-00069*
X-00073Y-01507*
X-00076Y-01507*
X-0008Y-01508*
X-00083Y-01509*
X-00086Y-0151*
X-0009Y-01511*
X-00093Y-01513*
X-00096Y-01515*
X-00098Y-01517*
X-00101Y-01519*
X-00104Y-01521*
X-00106Y-01524*
X-00108Y-01527*
X-0011Y-0153*
X-00112Y-01533*
X-00113Y-01536*
X-00115Y-01539*
X-00116Y-01542*
X-00117Y-01546*
X-00117Y-01549*
X-00118Y-01553*
X-00118Y-01556*
X-00118Y-0156*
X-00117Y-01563*
X-00117Y-01567*
X-00116Y-0157*
X-00115Y-01573*
X-00113Y-01577*
X-00112Y-0158*
X-0011Y-01583*
X-00108Y-01586*
X-00106Y-01588*
X-00104Y-01591*
X-00101Y-01593*
X-00098Y-01596*
X-00096Y-01598*
X-00093Y-016*
X-0009Y-01601*
X-00086Y-01603*
X-00083Y-01604*
X-0008Y-01605*
X-00076Y-01605*
X-00073Y-01606*
X-00069Y-01606*
X-00066*
X-00062Y-01606*
X-00059Y-01605*
X-00056Y-01605*
X-00052Y-01604*
X-00049Y-01603*
X-00046Y-01601*
X-00043Y-016*
X-0004Y-01598*
X-00037Y-01596*
X-00034Y-01593*
X-00032Y-01591*
X-00029Y-01588*
X-00027Y-01586*
X-00025Y-01583*
X-00024Y-0158*
X-00022Y-01577*
X-00021Y-01573*
X-0002Y-0157*
X-00019Y-01567*
X-00018Y-01563*
X-00018Y-0156*
X-00018Y-01556*
X-00384Y-02379D02*
D01*
X-00384Y-02376*
X-00384Y-02372*
X-00385Y-02369*
X-00386Y-02365*
X-00387Y-02362*
X-00388Y-02359*
X-00389Y-02356*
X-00391Y-02353*
X-00393Y-0235*
X-00395Y-02347*
X-00398Y-02344*
X-004Y-02342*
X-00403Y-0234*
X-00406Y-02338*
X-00409Y-02336*
X-00412Y-02334*
X-00415Y-02333*
X-00418Y-02332*
X-00422Y-02331*
X-00425Y-0233*
X-00428Y-02329*
X-00432Y-02329*
X-00435*
X-00439Y-02329*
X-00442Y-0233*
X-00446Y-02331*
X-00449Y-02332*
X-00452Y-02333*
X-00456Y-02334*
X-00459Y-02336*
X-00462Y-02338*
X-00464Y-0234*
X-00467Y-02342*
X-0047Y-02344*
X-00472Y-02347*
X-00474Y-0235*
X-00476Y-02353*
X-00478Y-02356*
X-00479Y-02359*
X-00481Y-02362*
X-00482Y-02365*
X-00483Y-02369*
X-00483Y-02372*
X-00484Y-02376*
X-00484Y-02379*
X-00484Y-02383*
X-00483Y-02386*
X-00483Y-02389*
X-00482Y-02393*
X-00481Y-02396*
X-00479Y-02399*
X-00478Y-02403*
X-00476Y-02406*
X-00474Y-02408*
X-00472Y-02411*
X-0047Y-02414*
X-00467Y-02416*
X-00464Y-02418*
X-00462Y-02421*
X-00459Y-02422*
X-00456Y-02424*
X-00452Y-02425*
X-00449Y-02427*
X-00446Y-02428*
X-00442Y-02428*
X-00439Y-02429*
X-00435Y-02429*
X-00432*
X-00428Y-02429*
X-00425Y-02428*
X-00422Y-02428*
X-00418Y-02427*
X-00415Y-02425*
X-00412Y-02424*
X-00409Y-02422*
X-00406Y-02421*
X-00403Y-02418*
X-004Y-02416*
X-00398Y-02414*
X-00395Y-02411*
X-00393Y-02408*
X-00391Y-02406*
X-00389Y-02403*
X-00388Y-02399*
X-00387Y-02396*
X-00386Y-02393*
X-00385Y-02389*
X-00384Y-02386*
X-00384Y-02383*
X-00384Y-02379*
X-00025Y-02677D02*
D01*
X-00025Y-02673*
X-00025Y-0267*
X-00026Y-02666*
X-00027Y-02663*
X-00028Y-0266*
X-00029Y-02656*
X-00031Y-02653*
X-00032Y-0265*
X-00034Y-02647*
X-00037Y-02645*
X-00039Y-02642*
X-00041Y-0264*
X-00044Y-02637*
X-00047Y-02635*
X-0005Y-02633*
X-00053Y-02632*
X-00056Y-0263*
X-00059Y-02629*
X-00063Y-02628*
X-00066Y-02627*
X-0007Y-02627*
X-00073Y-02627*
X-00077*
X-0008Y-02627*
X-00083Y-02627*
X-00087Y-02628*
X-0009Y-02629*
X-00094Y-0263*
X-00097Y-02632*
X-001Y-02633*
X-00103Y-02635*
X-00106Y-02637*
X-00108Y-0264*
X-00111Y-02642*
X-00113Y-02645*
X-00115Y-02647*
X-00117Y-0265*
X-00119Y-02653*
X-0012Y-02656*
X-00122Y-0266*
X-00123Y-02663*
X-00124Y-02666*
X-00124Y-0267*
X-00125Y-02673*
X-00125Y-02677*
X-00125Y-0268*
X-00124Y-02684*
X-00124Y-02687*
X-00123Y-0269*
X-00122Y-02694*
X-0012Y-02697*
X-00119Y-027*
X-00117Y-02703*
X-00115Y-02706*
X-00113Y-02709*
X-00111Y-02711*
X-00108Y-02714*
X-00106Y-02716*
X-00103Y-02718*
X-001Y-0272*
X-00097Y-02722*
X-00094Y-02723*
X-0009Y-02724*
X-00087Y-02725*
X-00083Y-02726*
X-0008Y-02726*
X-00077Y-02727*
X-00073*
X-0007Y-02726*
X-00066Y-02726*
X-00063Y-02725*
X-00059Y-02724*
X-00056Y-02723*
X-00053Y-02722*
X-0005Y-0272*
X-00047Y-02718*
X-00044Y-02716*
X-00041Y-02714*
X-00039Y-02711*
X-00037Y-02709*
X-00034Y-02706*
X-00032Y-02703*
X-00031Y-027*
X-00029Y-02697*
X-00028Y-02694*
X-00027Y-0269*
X-00026Y-02687*
X-00025Y-02684*
X-00025Y-0268*
X-00025Y-02677*
X-00534Y-01594D02*
D01*
X-00534Y-01591*
X-00534Y-01587*
X-00535Y-01584*
X-00536Y-0158*
X-00537Y-01577*
X-00538Y-01574*
X-0054Y-01571*
X-00541Y-01567*
X-00543Y-01565*
X-00546Y-01562*
X-00548Y-01559*
X-0055Y-01557*
X-00553Y-01555*
X-00556Y-01553*
X-00559Y-01551*
X-00562Y-01549*
X-00565Y-01548*
X-00568Y-01546*
X-00572Y-01545*
X-00575Y-01545*
X-00579Y-01544*
X-00582Y-01544*
X-00586*
X-00589Y-01544*
X-00593Y-01545*
X-00596Y-01545*
X-00599Y-01546*
X-00603Y-01548*
X-00606Y-01549*
X-00609Y-01551*
X-00612Y-01553*
X-00615Y-01555*
X-00617Y-01557*
X-0062Y-01559*
X-00622Y-01562*
X-00624Y-01565*
X-00626Y-01567*
X-00628Y-01571*
X-0063Y-01574*
X-00631Y-01577*
X-00632Y-0158*
X-00633Y-01584*
X-00633Y-01587*
X-00634Y-01591*
X-00634Y-01594*
X-00634Y-01597*
X-00633Y-01601*
X-00633Y-01604*
X-00632Y-01608*
X-00631Y-01611*
X-0063Y-01614*
X-00628Y-01617*
X-00626Y-0162*
X-00624Y-01623*
X-00622Y-01626*
X-0062Y-01629*
X-00617Y-01631*
X-00615Y-01633*
X-00612Y-01635*
X-00609Y-01637*
X-00606Y-01639*
X-00603Y-0164*
X-00599Y-01642*
X-00596Y-01643*
X-00593Y-01643*
X-00589Y-01644*
X-00586Y-01644*
X-00582*
X-00579Y-01644*
X-00575Y-01643*
X-00572Y-01643*
X-00568Y-01642*
X-00565Y-0164*
X-00562Y-01639*
X-00559Y-01637*
X-00556Y-01635*
X-00553Y-01633*
X-0055Y-01631*
X-00548Y-01629*
X-00546Y-01626*
X-00543Y-01623*
X-00541Y-0162*
X-0054Y-01617*
X-00538Y-01614*
X-00537Y-01611*
X-00536Y-01608*
X-00535Y-01604*
X-00534Y-01601*
X-00534Y-01597*
X-00534Y-01594*
X-01056Y-01289D02*
D01*
X-01056Y-01286*
X-01056Y-01282*
X-01057Y-01279*
X-01057Y-01275*
X-01059Y-01272*
X-0106Y-01269*
X-01061Y-01266*
X-01063Y-01263*
X-01065Y-0126*
X-01067Y-01257*
X-0107Y-01254*
X-01072Y-01252*
X-01075Y-0125*
X-01078Y-01248*
X-01081Y-01246*
X-01084Y-01244*
X-01087Y-01243*
X-0109Y-01241*
X-01093Y-01241*
X-01097Y-0124*
X-011Y-01239*
X-01104Y-01239*
X-01107*
X-01111Y-01239*
X-01114Y-0124*
X-01118Y-01241*
X-01121Y-01241*
X-01124Y-01243*
X-01127Y-01244*
X-01131Y-01246*
X-01133Y-01248*
X-01136Y-0125*
X-01139Y-01252*
X-01141Y-01254*
X-01144Y-01257*
X-01146Y-0126*
X-01148Y-01263*
X-0115Y-01266*
X-01151Y-01269*
X-01153Y-01272*
X-01154Y-01275*
X-01154Y-01279*
X-01155Y-01282*
X-01155Y-01286*
X-01156Y-01289*
X-01155Y-01293*
X-01155Y-01296*
X-01154Y-01299*
X-01154Y-01303*
X-01153Y-01306*
X-01151Y-01309*
X-0115Y-01313*
X-01148Y-01316*
X-01146Y-01318*
X-01144Y-01321*
X-01141Y-01324*
X-01139Y-01326*
X-01136Y-01328*
X-01133Y-0133*
X-01131Y-01332*
X-01127Y-01334*
X-01124Y-01335*
X-01121Y-01337*
X-01118Y-01338*
X-01114Y-01338*
X-01111Y-01339*
X-01107Y-01339*
X-01104*
X-011Y-01339*
X-01097Y-01338*
X-01093Y-01338*
X-0109Y-01337*
X-01087Y-01335*
X-01084Y-01334*
X-01081Y-01332*
X-01078Y-0133*
X-01075Y-01328*
X-01072Y-01326*
X-0107Y-01324*
X-01067Y-01321*
X-01065Y-01318*
X-01063Y-01316*
X-01061Y-01313*
X-0106Y-01309*
X-01059Y-01306*
X-01057Y-01303*
X-01057Y-01299*
X-01056Y-01296*
X-01056Y-01293*
X-01056Y-01289*
X-00024Y-01078D02*
D01*
X-00024Y-01075*
X-00025Y-01071*
X-00025Y-01068*
X-00026Y-01064*
X-00027Y-01061*
X-00029Y-01058*
X-0003Y-01055*
X-00032Y-01052*
X-00034Y-01049*
X-00036Y-01046*
X-00038Y-01044*
X-00041Y-01041*
X-00044Y-01039*
X-00046Y-01037*
X-00049Y-01035*
X-00052Y-01033*
X-00056Y-01032*
X-00059Y-01031*
X-00062Y-0103*
X-00066Y-01029*
X-00069Y-01029*
X-00073Y-01028*
X-00076*
X-0008Y-01029*
X-00083Y-01029*
X-00086Y-0103*
X-0009Y-01031*
X-00093Y-01032*
X-00096Y-01033*
X-00099Y-01035*
X-00102Y-01037*
X-00105Y-01039*
X-00108Y-01041*
X-0011Y-01044*
X-00113Y-01046*
X-00115Y-01049*
X-00117Y-01052*
X-00119Y-01055*
X-0012Y-01058*
X-00121Y-01061*
X-00122Y-01064*
X-00123Y-01068*
X-00124Y-01071*
X-00124Y-01075*
X-00124Y-01078*
X-00124Y-01082*
X-00124Y-01085*
X-00123Y-01089*
X-00122Y-01092*
X-00121Y-01095*
X-0012Y-01099*
X-00119Y-01102*
X-00117Y-01105*
X-00115Y-01108*
X-00113Y-0111*
X-0011Y-01113*
X-00108Y-01115*
X-00105Y-01118*
X-00102Y-0112*
X-00099Y-01122*
X-00096Y-01123*
X-00093Y-01125*
X-0009Y-01126*
X-00086Y-01127*
X-00083Y-01127*
X-0008Y-01128*
X-00076Y-01128*
X-00073*
X-00069Y-01128*
X-00066Y-01127*
X-00062Y-01127*
X-00059Y-01126*
X-00056Y-01125*
X-00052Y-01123*
X-00049Y-01122*
X-00046Y-0112*
X-00044Y-01118*
X-00041Y-01115*
X-00038Y-01113*
X-00036Y-0111*
X-00034Y-01108*
X-00032Y-01105*
X-0003Y-01102*
X-00029Y-01099*
X-00027Y-01095*
X-00026Y-01092*
X-00025Y-01089*
X-00025Y-01085*
X-00024Y-01082*
X-00024Y-01078*
X-00602Y-00157D02*
D01*
X-00602Y-00149*
X-00603Y-00142*
X-00604Y-00135*
X-00606Y-00127*
X-00608Y-0012*
X-00611Y-00113*
X-00614Y-00107*
X-00618Y-001*
X-00622Y-00094*
X-00627Y-00088*
X-00632Y-00083*
X-00637Y-00078*
X-00643Y-00073*
X-00649Y-00068*
X-00655Y-00065*
X-00662Y-00061*
X-00668Y-00058*
X-00675Y-00056*
X-00683Y-00053*
X-0069Y-00052*
X-00697Y-00051*
X-00705Y-0005*
X-00712*
X-00719Y-00051*
X-00727Y-00052*
X-00734Y-00053*
X-00741Y-00056*
X-00748Y-00058*
X-00755Y-00061*
X-00761Y-00065*
X-00768Y-00068*
X-00774Y-00073*
X-00779Y-00078*
X-00785Y-00083*
X-0079Y-00088*
X-00794Y-00094*
X-00798Y-001*
X-00802Y-00107*
X-00805Y-00113*
X-00808Y-0012*
X-00811Y-00127*
X-00812Y-00135*
X-00814Y-00142*
X-00814Y-00149*
X-00815Y-00157*
X-00814Y-00164*
X-00814Y-00171*
X-00812Y-00179*
X-00811Y-00186*
X-00808Y-00193*
X-00805Y-002*
X-00802Y-00207*
X-00798Y-00213*
X-00794Y-00219*
X-0079Y-00225*
X-00785Y-0023*
X-00779Y-00236*
X-00774Y-0024*
X-00768Y-00245*
X-00761Y-00249*
X-00755Y-00252*
X-00748Y-00255*
X-00741Y-00258*
X-00734Y-0026*
X-00727Y-00261*
X-00719Y-00262*
X-00712Y-00263*
X-00705*
X-00697Y-00262*
X-0069Y-00261*
X-00683Y-0026*
X-00675Y-00258*
X-00668Y-00255*
X-00662Y-00252*
X-00655Y-00249*
X-00649Y-00245*
X-00643Y-0024*
X-00637Y-00236*
X-00632Y-0023*
X-00627Y-00225*
X-00622Y-00219*
X-00618Y-00213*
X-00614Y-00207*
X-00611Y-002*
X-00608Y-00193*
X-00606Y-00186*
X-00604Y-00179*
X-00603Y-00171*
X-00602Y-00164*
X-00602Y-00157*
X-00138Y-03086D02*
D01*
X-00138Y-03079*
X-00139Y-03071*
X-0014Y-03064*
X-00142Y-03057*
X-00144Y-0305*
X-00147Y-03043*
X-0015Y-03036*
X-00154Y-0303*
X-00158Y-03024*
X-00163Y-03018*
X-00168Y-03012*
X-00173Y-03007*
X-00179Y-03002*
X-00185Y-02998*
X-00191Y-02994*
X-00198Y-0299*
X-00204Y-02987*
X-00211Y-02985*
X-00219Y-02983*
X-00226Y-02981*
X-00233Y-0298*
X-00241Y-0298*
X-00248*
X-00255Y-0298*
X-00263Y-02981*
X-0027Y-02983*
X-00277Y-02985*
X-00284Y-02987*
X-00291Y-0299*
X-00297Y-02994*
X-00304Y-02998*
X-0031Y-03002*
X-00315Y-03007*
X-00321Y-03012*
X-00326Y-03018*
X-0033Y-03024*
X-00334Y-0303*
X-00338Y-03036*
X-00341Y-03043*
X-00344Y-0305*
X-00346Y-03057*
X-00348Y-03064*
X-0035Y-03071*
X-0035Y-03079*
X-00351Y-03086*
X-0035Y-03093*
X-0035Y-03101*
X-00348Y-03108*
X-00346Y-03115*
X-00344Y-03122*
X-00341Y-03129*
X-00338Y-03136*
X-00334Y-03142*
X-0033Y-03149*
X-00326Y-03154*
X-00321Y-0316*
X-00315Y-03165*
X-0031Y-0317*
X-00304Y-03174*
X-00297Y-03178*
X-00291Y-03182*
X-00284Y-03185*
X-00277Y-03187*
X-0027Y-03189*
X-00263Y-03191*
X-00255Y-03192*
X-00248Y-03192*
X-00241*
X-00233Y-03192*
X-00226Y-03191*
X-00219Y-03189*
X-00211Y-03187*
X-00204Y-03185*
X-00198Y-03182*
X-00191Y-03178*
X-00185Y-03174*
X-00179Y-0317*
X-00173Y-03165*
X-00168Y-0316*
X-00163Y-03154*
X-00158Y-03149*
X-00154Y-03142*
X-0015Y-03136*
X-00147Y-03129*
X-00144Y-03122*
X-00142Y-03115*
X-0014Y-03108*
X-00139Y-03101*
X-00138Y-03093*
X-00138Y-03086*
X-00539Y-00612D02*
X-00523D01*
X-00511Y-00659D02*
Y-00624D01*
X-00627Y-00697D02*
X-00509D01*
X-00627Y-00677D02*
X-00509D01*
X-00627Y-00697D02*
Y-00677D01*
X-00509Y-00697D02*
Y-00677D01*
X-00645Y-01866D02*
Y-01748D01*
X-00665Y-01866D02*
Y-01748D01*
Y-01866D02*
X-00645D01*
X-00665Y-01748D02*
X-00645D01*
X-00718Y-0175D02*
X-00683D01*
X-0073Y-01777D02*
Y-01762D01*
G54D11*
X-00641Y-00556D02*
Y-00537D01*
X-00607Y-00556D02*
Y-00537D01*
X-00502Y-00879D02*
X-00491Y-00867D01*
X-00502Y-00879D02*
Y-00854D01*
X-00491Y-00867*
Y-00879D02*
Y-00854D01*
X-00576Y-00777D02*
X-00556D01*
X-00576Y-00808D02*
X-00556D01*
X-00661Y-01262D02*
X-00641D01*
X-00661Y-0123D02*
X-00641D01*
X-0066Y-0069D02*
Y-0067D01*
X-00693Y-0069D02*
Y-0067D01*
X-00506Y-00901D02*
X-00487D01*
X-00506Y-00934D02*
X-00487D01*
X-00419Y-032D02*
Y-0318D01*
X-00453Y-032D02*
Y-0318D01*
X-00473Y-032D02*
Y-0318D01*
X-00506Y-032D02*
Y-0318D01*
X-00526Y-032D02*
Y-0318D01*
X-00559Y-032D02*
Y-0318D01*
X-00663Y-01874D02*
X-00644D01*
X-00663Y-01908D02*
X-00644D01*
X-00659Y-01683D02*
X-00639D01*
X-00659Y-01717D02*
X-00639D01*
X-00465Y-00788D02*
Y-00768D01*
X-00432Y-00788D02*
Y-00768D01*
X-00449Y-03092D02*
X-00423D01*
X-00436D02*
X-00423Y-0308D01*
X-00449D02*
X-00423D01*
X-00449D02*
X-00436Y-03092D01*
X-00502Y-0309D02*
X-00477D01*
X-00489D02*
X-00477Y-03079D01*
X-00502D02*
X-00477D01*
X-00502D02*
X-00489Y-0309D01*
X-00555D02*
X-0053D01*
X-00543D02*
X-0053Y-03079D01*
X-00555D02*
X-0053D01*
X-00555D02*
X-00543Y-0309D01*
X-00549Y-00534D02*
Y-00508D01*
Y-00521D02*
X-00537Y-00534D01*
Y-00508*
X-00549Y-00521D02*
X-00537Y-00508D01*
X-00553Y-00589D02*
X-00534D01*
X-00553Y-00557D02*
X-00534D01*
X-00616Y-02141D02*
X-00603D01*
X-00609*
Y-0218*
X-00616*
X-00603*
X-00557D02*
X-00583D01*
X-00557Y-02154*
Y-02147*
X-00563Y-02141*
X-00576*
X-00583Y-02147*
X-00517D02*
X-00524Y-02141D01*
X-00537*
X-00543Y-02147*
Y-02154*
X-00537Y-02161*
X-00524*
X-00517Y-02167*
Y-02174*
X-00524Y-0218*
X-00537*
X-00543Y-02174*
X-00504Y-02147D02*
X-00498Y-02141D01*
X-00484*
X-00478Y-02147*
Y-02154*
X-00484Y-02161*
X-00491*
X-00484*
X-00478Y-02167*
Y-02174*
X-00484Y-0218*
X-00498*
X-00504Y-02174*
X-00553Y-02209D02*
X-0056Y-02202D01*
X-00573*
X-0058Y-02209*
Y-02215*
X-00573Y-02222*
X-0056*
X-00553Y-02229*
Y-02235*
X-0056Y-02242*
X-00573*
X-0058Y-02235*
X-0054Y-02202D02*
Y-02242D01*
X-00521*
X-00514Y-02235*
Y-02209*
X-00521Y-02202*
X-0054*
X-00503Y-02447D02*
X-0049D01*
X-00497*
Y-02486*
X-00503*
X-0049*
X-00444D02*
X-00471D01*
X-00444Y-0246*
Y-02453*
X-00451Y-02447*
X-00464*
X-00471Y-02453*
X-00405D02*
X-00412Y-02447D01*
X-00425*
X-00431Y-02453*
Y-0246*
X-00425Y-02466*
X-00412*
X-00405Y-02473*
Y-02479*
X-00412Y-02486*
X-00425*
X-00431Y-02479*
X-00392Y-02453D02*
X-00385Y-02447D01*
X-00372*
X-00366Y-02453*
Y-0246*
X-00372Y-02466*
X-00379*
X-00372*
X-00366Y-02473*
Y-02479*
X-00372Y-02486*
X-00385*
X-00392Y-02479*
X-00467Y-02508D02*
Y-02547D01*
X-00454Y-02534*
X-00441Y-02547*
Y-02508*
X-00402Y-02515D02*
X-00408Y-02508D01*
X-00421*
X-00428Y-02515*
Y-02521*
X-00421Y-02528*
X-00408*
X-00402Y-02534*
Y-02541*
X-00408Y-02547*
X-00421*
X-00428Y-02541*
X-01129Y-00963D02*
Y-00989D01*
X-01116Y-01002*
X-01103Y-00989*
Y-00963*
X-01089D02*
Y-01002D01*
X-0107*
X-01063Y-00996*
Y-00969*
X-0107Y-00963*
X-01089*
X-0105D02*
Y-01002D01*
X-0103*
X-01024Y-00996*
Y-00969*
X-0103Y-00963*
X-0105*
X-01145Y-01063D02*
Y-01024D01*
X-01132Y-01037*
X-01119Y-01024*
Y-01063*
X-01106Y-01024D02*
X-01093D01*
X-01099*
Y-01063*
X-01106*
X-01093*
X-01047Y-01031D02*
X-01053Y-01024D01*
X-01066*
X-01073Y-01031*
Y-01057*
X-01066Y-01063*
X-01053*
X-01047Y-01057*
X-01007Y-01031D02*
X-01014Y-01024D01*
X-01027*
X-01034Y-01031*
Y-01037*
X-01027Y-01044*
X-01014*
X-01007Y-0105*
Y-01057*
X-01014Y-01063*
X-01027*
X-01034Y-01057*
X-00076Y-00186D02*
X-00102D01*
Y-00205*
X-00089Y-00199*
X-00082*
X-00076Y-00205*
Y-00218*
X-00082Y-00225*
X-00095*
X-00102Y-00218*
X-00063Y-00186D02*
Y-00212D01*
X-00049Y-00225*
X-00036Y-00212*
Y-00186*
X-01052Y-01199D02*
Y-01239D01*
X-01032*
X-01025Y-01232*
Y-01206*
X-01032Y-01199*
X-01052*
X-00993D02*
X-01006D01*
X-01012Y-01206*
Y-01232*
X-01006Y-01239*
X-00993*
X-00986Y-01232*
Y-01206*
X-00993Y-01199*
X-00973Y-01239D02*
X-0096D01*
X-00966*
Y-01199*
X-00973Y-01206*
X-00793Y-02088D02*
Y-02127D01*
X-00773*
X-00766Y-02121*
Y-02094*
X-00773Y-02088*
X-00793*
X-00734D02*
X-00747D01*
X-00753Y-02094*
Y-02121*
X-00747Y-02127*
X-00734*
X-00727Y-02121*
Y-02094*
X-00734Y-02088*
X-00688Y-02127D02*
X-00714D01*
X-00688Y-02101*
Y-02094*
X-00694Y-02088*
X-00707*
X-00714Y-02094*
X-011Y-00352D02*
X-01107Y-00345D01*
X-0112*
X-01126Y-00352*
Y-00378*
X-0112Y-00384*
X-01107*
X-011Y-00378*
Y-00365*
X-01113*
X-01087Y-00384D02*
Y-00345D01*
X-01061Y-00384*
Y-00345*
X-01047D02*
Y-00384D01*
X-01028*
X-01021Y-00378*
Y-00352*
X-01028Y-00345*
X-01047*
X-001Y-00389D02*
X-00107Y-00382D01*
X-0012*
X-00126Y-00389*
Y-00415*
X-0012Y-00422*
X-00107*
X-001Y-00415*
Y-00402*
X-00113*
X-00087Y-00422D02*
Y-00382D01*
X-00061Y-00422*
Y-00382*
X-00048D02*
Y-00422D01*
X-00028*
X-00022Y-00415*
Y-00389*
X-00028Y-00382*
X-00048*
X-01309Y-01102D02*
X-01316Y-01096D01*
X-01329*
X-01335Y-01102*
Y-01129*
X-01329Y-01135*
X-01316*
X-01309Y-01129*
Y-01116*
X-01322*
X-01296Y-01135D02*
Y-01096D01*
X-0127Y-01135*
Y-01096*
X-01257D02*
Y-01135D01*
X-01237*
X-0123Y-01129*
Y-01102*
X-01237Y-01096*
X-01257*
X-00099Y-01921D02*
X-00105Y-01914D01*
X-00118*
X-00125Y-01921*
Y-01947*
X-00118Y-01954*
X-00105*
X-00099Y-01947*
Y-01934*
X-00112*
X-00086Y-01954D02*
Y-01914D01*
X-00059Y-01954*
Y-01914*
X-00046D02*
Y-01954D01*
X-00027*
X-0002Y-01947*
Y-01921*
X-00027Y-01914*
X-00046*
X-0077Y-02508D02*
X-00776Y-02502D01*
X-00789*
X-00796Y-02508*
Y-02535*
X-00789Y-02541*
X-00776*
X-0077Y-02535*
Y-02521*
X-00783*
X-00756Y-02541D02*
Y-02502D01*
X-0073Y-02541*
Y-02502*
X-00717D02*
Y-02541D01*
X-00697*
X-00691Y-02535*
Y-02508*
X-00697Y-02502*
X-00717*
X-00795Y-02798D02*
X-00802Y-02792D01*
X-00815*
X-00821Y-02798*
Y-02825*
X-00815Y-02831*
X-00802*
X-00795Y-02825*
Y-02812*
X-00808*
X-00782Y-02831D02*
Y-02792D01*
X-00756Y-02831*
Y-02792*
X-00743D02*
Y-02831D01*
X-00723*
X-00716Y-02825*
Y-02798*
X-00723Y-02792*
X-00743*
G54D12*
X-01186Y-0193D02*
X-01147Y-01891D01*
X-01402Y-0193D02*
Y-01379D01*
X-01147*
Y-0193D02*
Y-01379D01*
X-01402Y-0193D02*
X-01147D01*
X-00337Y-00025D02*
X-00144D01*
Y-02927D02*
Y-00025D01*
X-00345Y-02927D02*
X-00144D01*
X-00345D02*
Y-00033D01*
X-00337Y-00025*
X-00825Y-02233D02*
Y-01209D01*
X-00943Y-02233D02*
X-00825D01*
X-00943Y-01229D02*
X-00923Y-01209D01*
X-00825*
X-00943Y-02233D02*
Y-01229D01*
G54D13*
X-00605Y-01444D02*
X-00596D01*
X-006*
Y-01472*
X-00605*
X-00596*
X-00563D02*
X-00582D01*
X-00563Y-01453*
Y-01449*
X-00568Y-01444*
X-00577*
X-00582Y-01449*
X-00536D02*
X-00541Y-01444D01*
X-0055*
X-00554Y-01449*
Y-01453*
X-0055Y-01458*
X-00541*
X-00536Y-01463*
Y-01467*
X-00541Y-01472*
X-0055*
X-00554Y-01467*
X-00508Y-01472D02*
X-00527D01*
X-00508Y-01453*
Y-01449*
X-00513Y-01444*
X-00522*
X-00527Y-01449*
X-00561Y-01491D02*
X-00566Y-01487D01*
X-00575*
X-0058Y-01491*
Y-01496*
X-00575Y-015*
X-00566*
X-00561Y-01505*
Y-0151*
X-00566Y-01514*
X-00575*
X-0058Y-0151*
X-00552Y-01487D02*
Y-01514D01*
X-00538*
X-00534Y-0151*
Y-01491*
X-00538Y-01487*
X-00552*
X-00127Y-01404D02*
X-00118D01*
X-00123*
Y-01432*
X-00127*
X-00118*
X-00086D02*
X-00104D01*
X-00086Y-01413*
Y-01409*
X-00091Y-01404*
X-001*
X-00104Y-01409*
X-00059D02*
X-00063Y-01404D01*
X-00072*
X-00077Y-01409*
Y-01413*
X-00072Y-01418*
X-00063*
X-00059Y-01423*
Y-01427*
X-00063Y-01432*
X-00072*
X-00077Y-01427*
X-00049Y-01409D02*
X-00045Y-01404D01*
X-00036*
X-00031Y-01409*
Y-01413*
X-00036Y-01418*
X-0004*
X-00036*
X-00031Y-01423*
Y-01427*
X-00036Y-01432*
X-00045*
X-00049Y-01427*
X-00084Y-01451D02*
X-00088Y-01447D01*
X-00098*
X-00102Y-01451*
Y-0147*
X-00098Y-01474*
X-00088*
X-00084Y-0147*
X-00075Y-01447D02*
Y-01474D01*
Y-01465*
X-00056Y-01447*
X-0007Y-01461*
X-00056Y-01474*
X-00124Y-01173D02*
X-00116D01*
X-0012*
Y-01197*
X-00124*
X-00116*
X-00088D02*
X-00104D01*
X-00088Y-01181*
Y-01177*
X-00092Y-01173*
X-001*
X-00104Y-01177*
X-00064D02*
X-00068Y-01173D01*
X-00076*
X-0008Y-01177*
Y-01181*
X-00076Y-01185*
X-00068*
X-00064Y-01189*
Y-01193*
X-00068Y-01197*
X-00076*
X-0008Y-01193*
X-00041Y-01197D02*
X-00057D01*
X-00041Y-01181*
Y-01177*
X-00045Y-01173*
X-00053*
X-00057Y-01177*
X-00086Y-01215D02*
X-0009Y-01211D01*
X-00098*
X-00102Y-01215*
Y-01231*
X-00098Y-01235*
X-0009*
X-00086Y-01231*
X-00078Y-01211D02*
Y-01235D01*
Y-01227*
X-00063Y-01211*
X-00074Y-01223*
X-00063Y-01235*
X-00793Y-00894D02*
X-00798Y-00889D01*
X-00807*
X-00812Y-00894*
Y-00912*
X-00807Y-00917*
X-00798*
X-00793Y-00912*
X-00784Y-00889D02*
Y-00917D01*
X-00766*
X-00757Y-00889D02*
Y-00917D01*
Y-00907*
X-00738Y-00889*
X-00752Y-00903*
X-00738Y-00917*
X-00798Y-00932D02*
X-00807D01*
X-00812Y-00936*
Y-00955*
X-00807Y-00959*
X-00798*
X-00793Y-00955*
Y-00936*
X-00798Y-00932*
X-00784D02*
Y-00955D01*
X-0078Y-00959*
X-00771*
X-00766Y-00955*
Y-00932*
X-00757D02*
X-00738D01*
X-00748*
Y-00959*
X-00556Y-01128D02*
X-00561Y-01123D01*
X-0057*
X-00575Y-01128*
Y-01146*
X-0057Y-01151*
X-00561*
X-00556Y-01146*
X-00547Y-01123D02*
Y-01151D01*
X-00529*
X-0052Y-01123D02*
Y-01151D01*
Y-01142*
X-00501Y-01123*
X-00515Y-01137*
X-00501Y-01151*
X-00559Y-01166D02*
X-00549D01*
X-00554*
Y-01193*
X-00559*
X-00549*
X-00536D02*
Y-01166D01*
X-00517Y-01193*
Y-01166*
X-00128Y-00764D02*
X-00119D01*
X-00124*
Y-00792*
X-00128*
X-00119*
X-00087D02*
X-00105D01*
X-00087Y-00773*
Y-00769*
X-00092Y-00764*
X-00101*
X-00105Y-00769*
X-0006D02*
X-00064Y-00764D01*
X-00073*
X-00078Y-00769*
Y-00773*
X-00073Y-00778*
X-00064*
X-0006Y-00782*
Y-00787*
X-00064Y-00792*
X-00073*
X-00078Y-00787*
X-00032Y-00792D02*
X-0005D01*
X-00032Y-00773*
Y-00769*
X-00037Y-00764*
X-00046*
X-0005Y-00769*
X-00103Y-00807D02*
Y-00834D01*
X-00094Y-00825*
X-00085Y-00834*
Y-00807*
X-00057Y-00811D02*
X-00062Y-00807D01*
X-00071*
X-00076Y-00811*
Y-00816*
X-00071Y-0082*
X-00062*
X-00057Y-00825*
Y-0083*
X-00062Y-00834*
X-00071*
X-00076Y-0083*
X-00124Y-0253D02*
X-00114D01*
X-00119*
Y-02557*
X-00124*
X-00114*
X-00082D02*
X-00101D01*
X-00082Y-02539*
Y-02534*
X-00087Y-0253*
X-00096*
X-00101Y-02534*
X-00055D02*
X-00059Y-0253D01*
X-00068*
X-00073Y-02534*
Y-02539*
X-00068Y-02544*
X-00059*
X-00055Y-02548*
Y-02553*
X-00059Y-02557*
X-00068*
X-00073Y-02553*
X-00027Y-02557D02*
X-00045D01*
X-00027Y-02539*
Y-02534*
X-00032Y-0253*
X-00041*
X-00045Y-02534*
X-00112Y-026D02*
Y-02572D01*
X-00103Y-02582*
X-00094Y-02572*
Y-026*
X-00066Y-02577D02*
X-00071Y-02572D01*
X-0008*
X-00084Y-02577*
Y-02595*
X-0008Y-026*
X-00071*
X-00066Y-02595*
X-00057Y-02572D02*
Y-026D01*
Y-02591*
X-00039Y-02572*
X-00052Y-02586*
X-00039Y-026*
M02*