%FSTAX23Y23*%
%MOIN*%
%SFA1B1*%

%IPPOS*%
%ADD42C,0.000500*%
%LNmicrophonearray.main-1*%
%LPD*%
G54D42*
X-0064Y-00515D02*
D01*
X-0064Y-00515*
X-0064Y-00515*
X-0064Y-00515*
X-00641Y-00515*
X-00641Y-00515*
X-00641Y-00515*
X-00641Y-00515*
X-00641Y-00515*
X-00641Y-00515*
X-00641Y-00515*
X-00641Y-00515*
X-00641Y-00515*
X-00641Y-00515*
X-00641Y-00515*
X-00641Y-00515*
X-00641Y-00515*
X-00641Y-00515*
X-00641Y-00515*
X-00641Y-00515*
X-00641Y-00515*
X-00641Y-00515*
X-00641Y-00515*
X-00641Y-00515*
X-00607D02*
D01*
X-00607Y-00515*
X-00607Y-00515*
X-00607Y-00515*
X-00607Y-00515*
X-00607Y-00515*
X-00607Y-00515*
X-00607Y-00515*
X-00607Y-00515*
X-00607Y-00515*
X-00607Y-00515*
X-00607Y-00515*
X-00607Y-00515*
X-00607Y-00515*
X-00608Y-00515*
X-00608Y-00515*
X-00608Y-00515*
X-00608Y-00515*
X-00608Y-00515*
X-00608Y-00515*
X-00608Y-00515*
X-00608Y-00515*
X-00608Y-00515*
X-00608*
X-00641Y-00578D02*
D01*
X-00641Y-00578*
X-00641Y-00578*
X-00641Y-00578*
X-00641Y-00578*
X-00641Y-00578*
X-00641Y-00578*
X-00641Y-00578*
X-00641Y-00578*
X-00641Y-00578*
X-00641Y-00578*
X-00641Y-00578*
X-00641Y-00578*
X-00641Y-00578*
X-00641Y-00578*
X-00641Y-00578*
X-00641Y-00578*
X-00641Y-00578*
X-00641Y-00578*
X-00641Y-00578*
X-0064Y-00578*
X-0064Y-00578*
X-0064Y-00578*
X-0064*
X-00608D02*
D01*
X-00608Y-00578*
X-00608Y-00578*
X-00608Y-00578*
X-00608Y-00578*
X-00608Y-00578*
X-00608Y-00578*
X-00608Y-00578*
X-00608Y-00578*
X-00607Y-00578*
X-00607Y-00578*
X-00607Y-00578*
X-00607Y-00578*
X-00607Y-00578*
X-00607Y-00578*
X-00607Y-00578*
X-00607Y-00578*
X-00607Y-00578*
X-00607Y-00578*
X-00607Y-00578*
X-00607Y-00578*
X-00607Y-00578*
X-00607Y-00578*
Y-00578*
X-00528Y-00874D02*
D01*
X-00528Y-00874*
X-00527Y-00874*
X-00526Y-00874*
X-00526Y-00874*
X-00525Y-00874*
X-00525Y-00874*
X-00524Y-00874*
X-00524Y-00873*
X-00523Y-00873*
X-00523Y-00873*
X-00523Y-00872*
X-00522Y-00872*
X-00522Y-00871*
X-00522Y-00871*
X-00521Y-00871*
X-00521Y-0087*
X-00521Y-0087*
X-00521Y-00869*
X-0052Y-00869*
X-0052Y-00868*
X-0052Y-00867*
X-0052Y-00867*
Y-00866*
X-0052Y-00866*
X-0052Y-00865*
X-0052Y-00865*
X-00521Y-00864*
X-00521Y-00864*
X-00521Y-00863*
X-00521Y-00863*
X-00522Y-00862*
X-00522Y-00862*
X-00522Y-00861*
X-00523Y-00861*
X-00523Y-00861*
X-00523Y-0086*
X-00524Y-0086*
X-00524Y-0086*
X-00525Y-00859*
X-00525Y-00859*
X-00526Y-00859*
X-00526Y-00859*
X-00527Y-00859*
X-00528Y-00859*
X-00528Y-00859*
X-00465D02*
D01*
X-00466Y-00859*
X-00466Y-00859*
X-00467Y-00859*
X-00467Y-00859*
X-00468Y-00859*
X-00468Y-00859*
X-00469Y-0086*
X-00469Y-0086*
X-0047Y-0086*
X-0047Y-00861*
X-00471Y-00861*
X-00471Y-00861*
X-00471Y-00862*
X-00472Y-00862*
X-00472Y-00863*
X-00472Y-00863*
X-00472Y-00864*
X-00473Y-00864*
X-00473Y-00865*
X-00473Y-00865*
X-00473Y-00866*
X-00473Y-00866*
Y-00867*
X-00473Y-00867*
X-00473Y-00868*
X-00473Y-00869*
X-00473Y-00869*
X-00472Y-0087*
X-00472Y-0087*
X-00472Y-00871*
X-00472Y-00871*
X-00471Y-00871*
X-00471Y-00872*
X-00471Y-00872*
X-0047Y-00873*
X-0047Y-00873*
X-00469Y-00873*
X-00469Y-00874*
X-00468Y-00874*
X-00468Y-00874*
X-00467Y-00874*
X-00467Y-00874*
X-00466Y-00874*
X-00466Y-00874*
X-00465Y-00874*
X-00038Y-00066D02*
D01*
X-00038Y-00066*
X-00039Y-00066*
X-00039Y-00066*
X-00039Y-00065*
X-00039Y-00065*
X-00039Y-00065*
X-00039Y-00065*
X-00039Y-00064*
X-00039Y-00064*
X-00039Y-00064*
X-0004Y-00064*
X-0004Y-00063*
X-0004Y-00063*
X-0004Y-00063*
X-0004Y-00063*
X-00041Y-00063*
X-00041Y-00063*
X-00041Y-00063*
X-00041Y-00063*
X-00042Y-00062*
X-00042Y-00062*
X-00042Y-00062*
X-00042Y-00062*
X-00104D02*
D01*
X-00104Y-00062*
X-00105Y-00062*
X-00105Y-00063*
X-00105Y-00063*
X-00106Y-00063*
X-00106Y-00063*
X-00106Y-00063*
X-00106Y-00063*
X-00107Y-00063*
X-00107Y-00063*
X-00107Y-00064*
X-00107Y-00064*
X-00107Y-00064*
X-00107Y-00064*
X-00108Y-00064*
X-00108Y-00065*
X-00108Y-00065*
X-00108Y-00065*
X-00108Y-00065*
X-00108Y-00066*
X-00108Y-00066*
X-00108Y-00066*
X-00108Y-00066*
X-00042Y-00083D02*
D01*
X-00042Y-00083*
X-00042Y-00082*
X-00042Y-00082*
X-00041Y-00082*
X-00041Y-00082*
X-00041Y-00082*
X-00041Y-00082*
X-0004Y-00082*
X-0004Y-00082*
X-0004Y-00082*
X-0004Y-00081*
X-00039Y-00081*
X-00039Y-00081*
X-00039Y-00081*
X-00039Y-00081*
X-00039Y-0008*
X-00039Y-0008*
X-00039Y-0008*
X-00039Y-0008*
X-00039Y-00079*
X-00038Y-00079*
X-00038Y-00079*
X-00038Y-00079*
X-00108D02*
D01*
X-00108Y-00079*
X-00108Y-00079*
X-00108Y-00079*
X-00108Y-0008*
X-00108Y-0008*
X-00108Y-0008*
X-00108Y-0008*
X-00108Y-00081*
X-00107Y-00081*
X-00107Y-00081*
X-00107Y-00081*
X-00107Y-00082*
X-00107Y-00082*
X-00106Y-00082*
X-00106Y-00082*
X-00106Y-00082*
X-00106Y-00082*
X-00105Y-00082*
X-00105Y-00082*
X-00105Y-00082*
X-00105Y-00082*
X-00104Y-00083*
X-00104Y-00083*
X-00023Y-00072D02*
D01*
X-00023Y-00069*
X-00024Y-00066*
X-00024Y-00062*
X-00025Y-00059*
X-00026Y-00055*
X-00028Y-00052*
X-00029Y-00049*
X-00031Y-00046*
X-00033Y-00043*
X-00035Y-0004*
X-00037Y-00038*
X-0004Y-00035*
X-00043Y-00033*
X-00045Y-00031*
X-00048Y-00029*
X-00051Y-00028*
X-00055Y-00026*
X-00058Y-00025*
X-00061Y-00024*
X-00065Y-00023*
X-00068Y-00023*
X-00072Y-00023*
X-00075*
X-00079Y-00023*
X-00082Y-00023*
X-00085Y-00024*
X-00089Y-00025*
X-00092Y-00026*
X-00095Y-00028*
X-00098Y-00029*
X-00101Y-00031*
X-00104Y-00033*
X-00107Y-00035*
X-00109Y-00038*
X-00112Y-0004*
X-00114Y-00043*
X-00116Y-00046*
X-00117Y-00049*
X-00119Y-00052*
X-0012Y-00055*
X-00121Y-00059*
X-00122Y-00062*
X-00123Y-00066*
X-00123Y-00069*
X-00123Y-00072*
X-00123Y-00076*
X-00123Y-00079*
X-00122Y-00083*
X-00121Y-00086*
X-0012Y-0009*
X-00119Y-00093*
X-00117Y-00096*
X-00116Y-00099*
X-00114Y-00102*
X-00112Y-00105*
X-00109Y-00107*
X-00107Y-0011*
X-00104Y-00112*
X-00101Y-00114*
X-00098Y-00116*
X-00095Y-00117*
X-00092Y-00119*
X-00089Y-0012*
X-00085Y-00121*
X-00082Y-00122*
X-00079Y-00122*
X-00075Y-00122*
X-00072*
X-00068Y-00122*
X-00065Y-00122*
X-00061Y-00121*
X-00058Y-0012*
X-00055Y-00119*
X-00051Y-00117*
X-00048Y-00116*
X-00045Y-00114*
X-00043Y-00112*
X-0004Y-0011*
X-00037Y-00107*
X-00035Y-00105*
X-00033Y-00102*
X-00031Y-00099*
X-00029Y-00096*
X-00028Y-00093*
X-00026Y-0009*
X-00025Y-00086*
X-00024Y-00083*
X-00024Y-00079*
X-00023Y-00076*
X-00023Y-00072*
X-01047Y-01135D02*
D01*
X-01047Y-01135*
X-01047Y-01135*
X-01047Y-01134*
X-01047Y-01134*
X-01048Y-01134*
X-01048Y-01134*
X-01048Y-01133*
X-01048Y-01133*
X-01048Y-01133*
X-01048Y-01133*
X-01048Y-01132*
X-01049Y-01132*
X-01049Y-01132*
X-01049Y-01132*
X-01049Y-01132*
X-0105Y-01132*
X-0105Y-01131*
X-0105Y-01131*
X-0105Y-01131*
X-01051Y-01131*
X-01051Y-01131*
X-01051Y-01131*
X-01051Y-01131*
X-01113D02*
D01*
X-01113Y-01131*
X-01114Y-01131*
X-01114Y-01131*
X-01114Y-01131*
X-01114Y-01131*
X-01115Y-01132*
X-01115Y-01132*
X-01115Y-01132*
X-01115Y-01132*
X-01116Y-01132*
X-01116Y-01132*
X-01116Y-01132*
X-01116Y-01133*
X-01116Y-01133*
X-01116Y-01133*
X-01117Y-01133*
X-01117Y-01134*
X-01117Y-01134*
X-01117Y-01134*
X-01117Y-01134*
X-01117Y-01135*
X-01117Y-01135*
X-01117Y-01135*
X-01051Y-01151D02*
D01*
X-01051Y-01151*
X-01051Y-01151*
X-0105Y-01151*
X-0105Y-01151*
X-0105Y-01151*
X-0105Y-01151*
X-01049Y-01151*
X-01049Y-01151*
X-01049Y-01151*
X-01049Y-0115*
X-01049Y-0115*
X-01048Y-0115*
X-01048Y-0115*
X-01048Y-0115*
X-01048Y-01149*
X-01048Y-01149*
X-01048Y-01149*
X-01048Y-01149*
X-01047Y-01148*
X-01047Y-01148*
X-01047Y-01148*
X-01047Y-01147*
X-01047Y-01147*
X-01117D02*
D01*
X-01117Y-01148*
X-01117Y-01148*
X-01117Y-01148*
X-01117Y-01148*
X-01117Y-01149*
X-01117Y-01149*
X-01117Y-01149*
X-01116Y-01149*
X-01116Y-0115*
X-01116Y-0115*
X-01116Y-0115*
X-01116Y-0115*
X-01116Y-0115*
X-01115Y-01151*
X-01115Y-01151*
X-01115Y-01151*
X-01115Y-01151*
X-01114Y-01151*
X-01114Y-01151*
X-01114Y-01151*
X-01113Y-01151*
X-01113Y-01151*
X-01113Y-01151*
X-01032Y-01141D02*
D01*
X-01032Y-01138*
X-01033Y-01134*
X-01033Y-01131*
X-01034Y-01127*
X-01035Y-01124*
X-01036Y-01121*
X-01038Y-01118*
X-0104Y-01115*
X-01042Y-01112*
X-01044Y-01109*
X-01046Y-01106*
X-01049Y-01104*
X-01051Y-01102*
X-01054Y-011*
X-01057Y-01098*
X-0106Y-01096*
X-01063Y-01095*
X-01067Y-01094*
X-0107Y-01093*
X-01073Y-01092*
X-01077Y-01092*
X-0108Y-01091*
X-01084*
X-01087Y-01092*
X-01091Y-01092*
X-01094Y-01093*
X-01098Y-01094*
X-01101Y-01095*
X-01104Y-01096*
X-01107Y-01098*
X-0111Y-011*
X-01113Y-01102*
X-01116Y-01104*
X-01118Y-01106*
X-0112Y-01109*
X-01123Y-01112*
X-01125Y-01115*
X-01126Y-01118*
X-01128Y-01121*
X-01129Y-01124*
X-0113Y-01127*
X-01131Y-01131*
X-01132Y-01134*
X-01132Y-01138*
X-01132Y-01141*
X-01132Y-01145*
X-01132Y-01148*
X-01131Y-01152*
X-0113Y-01155*
X-01129Y-01158*
X-01128Y-01162*
X-01126Y-01165*
X-01125Y-01168*
X-01123Y-01171*
X-0112Y-01173*
X-01118Y-01176*
X-01116Y-01178*
X-01113Y-01181*
X-0111Y-01183*
X-01107Y-01185*
X-01104Y-01186*
X-01101Y-01188*
X-01098Y-01189*
X-01094Y-0119*
X-01091Y-0119*
X-01087Y-01191*
X-01084Y-01191*
X-0108*
X-01077Y-01191*
X-01073Y-0119*
X-0107Y-0119*
X-01067Y-01189*
X-01063Y-01188*
X-0106Y-01186*
X-01057Y-01185*
X-01054Y-01183*
X-01051Y-01181*
X-01049Y-01178*
X-01046Y-01176*
X-01044Y-01173*
X-01042Y-01171*
X-0104Y-01168*
X-01038Y-01165*
X-01036Y-01162*
X-01035Y-01158*
X-01034Y-01155*
X-01033Y-01152*
X-01033Y-01148*
X-01032Y-01145*
X-01032Y-01141*
X-00029Y-00496D02*
D01*
X-00029Y-00496*
X-00029Y-00495*
X-00029Y-00495*
X-00029Y-00495*
X-00029Y-00495*
X-00029Y-00494*
X-00029Y-00494*
X-00029Y-00494*
X-00029Y-00494*
X-0003Y-00493*
X-0003Y-00493*
X-0003Y-00493*
X-0003Y-00493*
X-0003Y-00493*
X-00031Y-00493*
X-00031Y-00492*
X-00031Y-00492*
X-00031Y-00492*
X-00032Y-00492*
X-00032Y-00492*
X-00032Y-00492*
X-00032Y-00492*
X-00033Y-00492*
X-00094D02*
D01*
X-00095Y-00492*
X-00095Y-00492*
X-00095Y-00492*
X-00095Y-00492*
X-00096Y-00492*
X-00096Y-00492*
X-00096Y-00492*
X-00096Y-00493*
X-00097Y-00493*
X-00097Y-00493*
X-00097Y-00493*
X-00097Y-00493*
X-00097Y-00494*
X-00098Y-00494*
X-00098Y-00494*
X-00098Y-00494*
X-00098Y-00494*
X-00098Y-00495*
X-00098Y-00495*
X-00098Y-00495*
X-00098Y-00496*
X-00098Y-00496*
X-00098Y-00496*
X-00033Y-00512D02*
D01*
X-00032Y-00512*
X-00032Y-00512*
X-00032Y-00512*
X-00031Y-00512*
X-00031Y-00512*
X-00031Y-00512*
X-00031Y-00512*
X-0003Y-00512*
X-0003Y-00511*
X-0003Y-00511*
X-0003Y-00511*
X-0003Y-00511*
X-00029Y-00511*
X-00029Y-0051*
X-00029Y-0051*
X-00029Y-0051*
X-00029Y-0051*
X-00029Y-00509*
X-00029Y-00509*
X-00029Y-00509*
X-00029Y-00509*
X-00029Y-00508*
X-00029Y-00508*
X-00098D02*
D01*
X-00098Y-00508*
X-00098Y-00509*
X-00098Y-00509*
X-00098Y-00509*
X-00098Y-0051*
X-00098Y-0051*
X-00098Y-0051*
X-00098Y-0051*
X-00098Y-0051*
X-00097Y-00511*
X-00097Y-00511*
X-00097Y-00511*
X-00097Y-00511*
X-00097Y-00511*
X-00096Y-00512*
X-00096Y-00512*
X-00096Y-00512*
X-00096Y-00512*
X-00095Y-00512*
X-00095Y-00512*
X-00095Y-00512*
X-00094Y-00512*
X-00094Y-00512*
X-00013Y-00502D02*
D01*
X-00014Y-00499*
X-00014Y-00495*
X-00015Y-00492*
X-00015Y-00488*
X-00016Y-00485*
X-00018Y-00482*
X-00019Y-00479*
X-00021Y-00476*
X-00023Y-00473*
X-00025Y-0047*
X-00027Y-00467*
X-0003Y-00465*
X-00033Y-00463*
X-00035Y-00461*
X-00038Y-00459*
X-00042Y-00457*
X-00045Y-00456*
X-00048Y-00455*
X-00051Y-00454*
X-00055Y-00453*
X-00058Y-00452*
X-00062Y-00452*
X-00065*
X-00069Y-00452*
X-00072Y-00453*
X-00076Y-00454*
X-00079Y-00455*
X-00082Y-00456*
X-00085Y-00457*
X-00088Y-00459*
X-00091Y-00461*
X-00094Y-00463*
X-00097Y-00465*
X-00099Y-00467*
X-00102Y-0047*
X-00104Y-00473*
X-00106Y-00476*
X-00108Y-00479*
X-00109Y-00482*
X-0011Y-00485*
X-00112Y-00488*
X-00112Y-00492*
X-00113Y-00495*
X-00113Y-00499*
X-00113Y-00502*
X-00113Y-00506*
X-00113Y-00509*
X-00112Y-00512*
X-00112Y-00516*
X-0011Y-00519*
X-00109Y-00522*
X-00108Y-00526*
X-00106Y-00529*
X-00104Y-00531*
X-00102Y-00534*
X-00099Y-00537*
X-00097Y-00539*
X-00094Y-00541*
X-00091Y-00544*
X-00088Y-00545*
X-00085Y-00547*
X-00082Y-00548*
X-00079Y-0055*
X-00076Y-00551*
X-00072Y-00551*
X-00069Y-00552*
X-00065Y-00552*
X-00062*
X-00058Y-00552*
X-00055Y-00551*
X-00051Y-00551*
X-00048Y-0055*
X-00045Y-00548*
X-00042Y-00547*
X-00038Y-00545*
X-00035Y-00544*
X-00033Y-00541*
X-0003Y-00539*
X-00027Y-00537*
X-00025Y-00534*
X-00023Y-00531*
X-00021Y-00529*
X-00019Y-00526*
X-00018Y-00522*
X-00016Y-00519*
X-00015Y-00516*
X-00015Y-00512*
X-00014Y-00509*
X-00014Y-00506*
X-00013Y-00502*
X-01247Y-01017D02*
D01*
X-01247Y-01017*
X-01247Y-01017*
X-01247Y-01017*
X-01247Y-01016*
X-01247Y-01016*
X-01247Y-01016*
X-01247Y-01016*
X-01248Y-01015*
X-01248Y-01015*
X-01248Y-01015*
X-01248Y-01015*
X-01248Y-01015*
X-01248Y-01014*
X-01249Y-01014*
X-01249Y-01014*
X-01249Y-01014*
X-01249Y-01014*
X-0125Y-01014*
X-0125Y-01014*
X-0125Y-01014*
X-01251Y-01014*
X-01251Y-01014*
X-01251Y-01014*
X-01313D02*
D01*
X-01313Y-01014*
X-01313Y-01014*
X-01314Y-01014*
X-01314Y-01014*
X-01314Y-01014*
X-01314Y-01014*
X-01315Y-01014*
X-01315Y-01014*
X-01315Y-01014*
X-01315Y-01014*
X-01315Y-01015*
X-01316Y-01015*
X-01316Y-01015*
X-01316Y-01015*
X-01316Y-01015*
X-01316Y-01016*
X-01316Y-01016*
X-01316Y-01016*
X-01317Y-01017*
X-01317Y-01017*
X-01317Y-01017*
X-01317Y-01017*
X-01317Y-01017*
X-01251Y-01034D02*
D01*
X-01251Y-01034*
X-0125Y-01034*
X-0125Y-01034*
X-0125Y-01033*
X-0125Y-01033*
X-01249Y-01033*
X-01249Y-01033*
X-01249Y-01033*
X-01249Y-01033*
X-01248Y-01033*
X-01248Y-01032*
X-01248Y-01032*
X-01248Y-01032*
X-01248Y-01032*
X-01248Y-01032*
X-01247Y-01031*
X-01247Y-01031*
X-01247Y-01031*
X-01247Y-01031*
X-01247Y-0103*
X-01247Y-0103*
X-01247Y-0103*
X-01247Y-0103*
X-01317D02*
D01*
X-01317Y-0103*
X-01317Y-0103*
X-01317Y-0103*
X-01317Y-01031*
X-01316Y-01031*
X-01316Y-01031*
X-01316Y-01032*
X-01316Y-01032*
X-01316Y-01032*
X-01316Y-01032*
X-01316Y-01032*
X-01315Y-01033*
X-01315Y-01033*
X-01315Y-01033*
X-01315Y-01033*
X-01314Y-01033*
X-01314Y-01033*
X-01314Y-01033*
X-01314Y-01033*
X-01313Y-01034*
X-01313Y-01034*
X-01313Y-01034*
X-01313Y-01034*
X-01232Y-01024D02*
D01*
X-01232Y-0102*
X-01232Y-01017*
X-01233Y-01013*
X-01234Y-0101*
X-01235Y-01006*
X-01236Y-01003*
X-01238Y-01*
X-01239Y-00997*
X-01241Y-00994*
X-01244Y-00991*
X-01246Y-00989*
X-01248Y-00986*
X-01251Y-00984*
X-01254Y-00982*
X-01257Y-0098*
X-0126Y-00979*
X-01263Y-00977*
X-01266Y-00976*
X-0127Y-00975*
X-01273Y-00974*
X-01277Y-00974*
X-0128Y-00974*
X-01284*
X-01287Y-00974*
X-01291Y-00974*
X-01294Y-00975*
X-01297Y-00976*
X-01301Y-00977*
X-01304Y-00979*
X-01307Y-0098*
X-0131Y-00982*
X-01313Y-00984*
X-01315Y-00986*
X-01318Y-00989*
X-0132Y-00991*
X-01322Y-00994*
X-01324Y-00997*
X-01326Y-01*
X-01328Y-01003*
X-01329Y-01006*
X-0133Y-0101*
X-01331Y-01013*
X-01331Y-01017*
X-01332Y-0102*
X-01332Y-01024*
X-01332Y-01027*
X-01331Y-01031*
X-01331Y-01034*
X-0133Y-01037*
X-01329Y-01041*
X-01328Y-01044*
X-01326Y-01047*
X-01324Y-0105*
X-01322Y-01053*
X-0132Y-01056*
X-01318Y-01058*
X-01315Y-01061*
X-01313Y-01063*
X-0131Y-01065*
X-01307Y-01067*
X-01304Y-01068*
X-01301Y-0107*
X-01297Y-01071*
X-01294Y-01072*
X-01291Y-01073*
X-01287Y-01073*
X-01284Y-01074*
X-0128*
X-01277Y-01073*
X-01273Y-01073*
X-0127Y-01072*
X-01266Y-01071*
X-01263Y-0107*
X-0126Y-01068*
X-01257Y-01067*
X-01254Y-01065*
X-01251Y-01063*
X-01248Y-01061*
X-01246Y-01058*
X-01244Y-01056*
X-01241Y-01053*
X-01239Y-0105*
X-01238Y-01047*
X-01236Y-01044*
X-01235Y-01041*
X-01234Y-01037*
X-01233Y-01034*
X-01232Y-01031*
X-01232Y-01027*
X-01232Y-01024*
X-01034Y-00268D02*
D01*
X-01034Y-00268*
X-01034Y-00268*
X-01034Y-00268*
X-01034Y-00267*
X-01034Y-00267*
X-01034Y-00267*
X-01034Y-00267*
X-01034Y-00266*
X-01034Y-00266*
X-01035Y-00266*
X-01035Y-00266*
X-01035Y-00265*
X-01035Y-00265*
X-01035Y-00265*
X-01036Y-00265*
X-01036Y-00265*
X-01036Y-00265*
X-01036Y-00265*
X-01037Y-00265*
X-01037Y-00265*
X-01037Y-00264*
X-01037Y-00264*
X-01038Y-00264*
X-01099D02*
D01*
X-011Y-00264*
X-011Y-00264*
X-011Y-00265*
X-011Y-00265*
X-01101Y-00265*
X-01101Y-00265*
X-01101Y-00265*
X-01101Y-00265*
X-01102Y-00265*
X-01102Y-00265*
X-01102Y-00266*
X-01102Y-00266*
X-01102Y-00266*
X-01103Y-00266*
X-01103Y-00266*
X-01103Y-00267*
X-01103Y-00267*
X-01103Y-00267*
X-01103Y-00267*
X-01103Y-00268*
X-01103Y-00268*
X-01103Y-00268*
X-01103Y-00268*
X-01038Y-00285D02*
D01*
X-01037Y-00285*
X-01037Y-00285*
X-01037Y-00284*
X-01036Y-00284*
X-01036Y-00284*
X-01036Y-00284*
X-01036Y-00284*
X-01035Y-00284*
X-01035Y-00284*
X-01035Y-00284*
X-01035Y-00283*
X-01035Y-00283*
X-01034Y-00283*
X-01034Y-00283*
X-01034Y-00283*
X-01034Y-00282*
X-01034Y-00282*
X-01034Y-00282*
X-01034Y-00282*
X-01034Y-00281*
X-01034Y-00281*
X-01034Y-00281*
X-01034Y-00281*
X-01103D02*
D01*
X-01103Y-00281*
X-01103Y-00281*
X-01103Y-00281*
X-01103Y-00282*
X-01103Y-00282*
X-01103Y-00282*
X-01103Y-00282*
X-01103Y-00283*
X-01103Y-00283*
X-01102Y-00283*
X-01102Y-00283*
X-01102Y-00284*
X-01102Y-00284*
X-01102Y-00284*
X-01101Y-00284*
X-01101Y-00284*
X-01101Y-00284*
X-01101Y-00284*
X-011Y-00284*
X-011Y-00284*
X-011Y-00285*
X-011Y-00285*
X-01099Y-00285*
X-01018Y-00275D02*
D01*
X-01019Y-00271*
X-01019Y-00268*
X-0102Y-00264*
X-0102Y-00261*
X-01021Y-00257*
X-01023Y-00254*
X-01024Y-00251*
X-01026Y-00248*
X-01028Y-00245*
X-0103Y-00242*
X-01033Y-0024*
X-01035Y-00237*
X-01038Y-00235*
X-01041Y-00233*
X-01043Y-00231*
X-01047Y-0023*
X-0105Y-00228*
X-01053Y-00227*
X-01056Y-00226*
X-0106Y-00225*
X-01063Y-00225*
X-01067Y-00225*
X-0107*
X-01074Y-00225*
X-01077Y-00225*
X-01081Y-00226*
X-01084Y-00227*
X-01087Y-00228*
X-0109Y-0023*
X-01093Y-00231*
X-01096Y-00233*
X-01099Y-00235*
X-01102Y-00237*
X-01104Y-0024*
X-01107Y-00242*
X-01109Y-00245*
X-01111Y-00248*
X-01113Y-00251*
X-01114Y-00254*
X-01115Y-00257*
X-01117Y-00261*
X-01117Y-00264*
X-01118Y-00268*
X-01118Y-00271*
X-01118Y-00275*
X-01118Y-00278*
X-01118Y-00281*
X-01117Y-00285*
X-01117Y-00288*
X-01115Y-00292*
X-01114Y-00295*
X-01113Y-00298*
X-01111Y-00301*
X-01109Y-00304*
X-01107Y-00307*
X-01104Y-00309*
X-01102Y-00312*
X-01099Y-00314*
X-01096Y-00316*
X-01093Y-00318*
X-0109Y-00319*
X-01087Y-00321*
X-01084Y-00322*
X-01081Y-00323*
X-01077Y-00324*
X-01074Y-00324*
X-0107Y-00324*
X-01067*
X-01063Y-00324*
X-0106Y-00324*
X-01056Y-00323*
X-01053Y-00322*
X-0105Y-00321*
X-01047Y-00319*
X-01043Y-00318*
X-01041Y-00316*
X-01038Y-00314*
X-01035Y-00312*
X-01033Y-00309*
X-0103Y-00307*
X-01028Y-00304*
X-01026Y-00301*
X-01024Y-00298*
X-01023Y-00295*
X-01021Y-00292*
X-0102Y-00288*
X-0102Y-00285*
X-01019Y-00281*
X-01019Y-00278*
X-01018Y-00275*
X-00707Y-0243D02*
D01*
X-00707Y-0243*
X-00707Y-0243*
X-00707Y-02429*
X-00707Y-02429*
X-00707Y-02429*
X-00707Y-02429*
X-00707Y-02428*
X-00707Y-02428*
X-00707Y-02428*
X-00707Y-02428*
X-00708Y-02427*
X-00708Y-02427*
X-00708Y-02427*
X-00708Y-02427*
X-00709Y-02427*
X-00709Y-02427*
X-00709Y-02427*
X-00709Y-02426*
X-0071Y-02426*
X-0071Y-02426*
X-0071Y-02426*
X-0071Y-02426*
X-0071Y-02426*
X-00772D02*
D01*
X-00773Y-02426*
X-00773Y-02426*
X-00773Y-02426*
X-00773Y-02426*
X-00774Y-02426*
X-00774Y-02427*
X-00774Y-02427*
X-00774Y-02427*
X-00775Y-02427*
X-00775Y-02427*
X-00775Y-02427*
X-00775Y-02428*
X-00775Y-02428*
X-00776Y-02428*
X-00776Y-02428*
X-00776Y-02428*
X-00776Y-02429*
X-00776Y-02429*
X-00776Y-02429*
X-00776Y-02429*
X-00776Y-0243*
X-00776Y-0243*
X-00776Y-0243*
X-0071Y-02446D02*
D01*
X-0071Y-02446*
X-0071Y-02446*
X-0071Y-02446*
X-00709Y-02446*
X-00709Y-02446*
X-00709Y-02446*
X-00709Y-02446*
X-00708Y-02446*
X-00708Y-02446*
X-00708Y-02445*
X-00708Y-02445*
X-00708Y-02445*
X-00707Y-02445*
X-00707Y-02445*
X-00707Y-02444*
X-00707Y-02444*
X-00707Y-02444*
X-00707Y-02444*
X-00707Y-02443*
X-00707Y-02443*
X-00707Y-02443*
X-00707Y-02443*
X-00707Y-02442*
X-00776D02*
D01*
X-00776Y-02443*
X-00776Y-02443*
X-00776Y-02443*
X-00776Y-02443*
X-00776Y-02444*
X-00776Y-02444*
X-00776Y-02444*
X-00776Y-02444*
X-00775Y-02445*
X-00775Y-02445*
X-00775Y-02445*
X-00775Y-02445*
X-00775Y-02445*
X-00774Y-02446*
X-00774Y-02446*
X-00774Y-02446*
X-00774Y-02446*
X-00774Y-02446*
X-00773Y-02446*
X-00773Y-02446*
X-00773Y-02446*
X-00772Y-02446*
X-00772Y-02446*
X-00691Y-02436D02*
D01*
X-00692Y-02433*
X-00692Y-02429*
X-00692Y-02426*
X-00693Y-02422*
X-00694Y-02419*
X-00696Y-02416*
X-00697Y-02413*
X-00699Y-0241*
X-00701Y-02407*
X-00703Y-02404*
X-00705Y-02402*
X-00708Y-02399*
X-00711Y-02397*
X-00713Y-02395*
X-00716Y-02393*
X-00719Y-02391*
X-00723Y-0239*
X-00726Y-02389*
X-00729Y-02388*
X-00733Y-02387*
X-00736Y-02387*
X-0074Y-02386*
X-00743*
X-00747Y-02387*
X-0075Y-02387*
X-00753Y-02388*
X-00757Y-02389*
X-0076Y-0239*
X-00763Y-02391*
X-00766Y-02393*
X-00769Y-02395*
X-00772Y-02397*
X-00775Y-02399*
X-00777Y-02402*
X-0078Y-02404*
X-00782Y-02407*
X-00784Y-0241*
X-00786Y-02413*
X-00787Y-02416*
X-00788Y-02419*
X-00789Y-02422*
X-0079Y-02426*
X-00791Y-02429*
X-00791Y-02433*
X-00791Y-02436*
X-00791Y-0244*
X-00791Y-02443*
X-0079Y-02447*
X-00789Y-0245*
X-00788Y-02453*
X-00787Y-02457*
X-00786Y-0246*
X-00784Y-02463*
X-00782Y-02466*
X-0078Y-02468*
X-00777Y-02471*
X-00775Y-02473*
X-00772Y-02476*
X-00769Y-02478*
X-00766Y-0248*
X-00763Y-02481*
X-0076Y-02483*
X-00757Y-02484*
X-00753Y-02485*
X-0075Y-02486*
X-00747Y-02486*
X-00743Y-02486*
X-0074*
X-00736Y-02486*
X-00733Y-02486*
X-00729Y-02485*
X-00726Y-02484*
X-00723Y-02483*
X-00719Y-02481*
X-00716Y-0248*
X-00713Y-02478*
X-00711Y-02476*
X-00708Y-02473*
X-00705Y-02471*
X-00703Y-02468*
X-00701Y-02466*
X-00699Y-02463*
X-00697Y-0246*
X-00696Y-02457*
X-00694Y-02453*
X-00693Y-0245*
X-00692Y-02447*
X-00692Y-02443*
X-00692Y-0244*
X-00691Y-02436*
X-00858Y-02809D02*
D01*
X-00858Y-02809*
X-00858Y-02809*
X-00858Y-02809*
X-00858Y-02808*
X-00858Y-02808*
X-00859Y-02808*
X-00859Y-02808*
X-00859Y-02807*
X-00859Y-02807*
X-00859Y-02807*
X-00859Y-02807*
X-0086Y-02806*
X-0086Y-02806*
X-0086Y-02806*
X-0086Y-02806*
X-0086Y-02806*
X-00861Y-02806*
X-00861Y-02806*
X-00861Y-02806*
X-00861Y-02806*
X-00862Y-02806*
X-00862Y-02805*
X-00862Y-02805*
X-00924D02*
D01*
X-00924Y-02805*
X-00925Y-02806*
X-00925Y-02806*
X-00925Y-02806*
X-00925Y-02806*
X-00926Y-02806*
X-00926Y-02806*
X-00926Y-02806*
X-00926Y-02806*
X-00927Y-02806*
X-00927Y-02807*
X-00927Y-02807*
X-00927Y-02807*
X-00927Y-02807*
X-00927Y-02807*
X-00928Y-02808*
X-00928Y-02808*
X-00928Y-02808*
X-00928Y-02808*
X-00928Y-02809*
X-00928Y-02809*
X-00928Y-02809*
X-00928Y-02809*
X-00862Y-02826D02*
D01*
X-00862Y-02826*
X-00862Y-02826*
X-00861Y-02825*
X-00861Y-02825*
X-00861Y-02825*
X-00861Y-02825*
X-0086Y-02825*
X-0086Y-02825*
X-0086Y-02825*
X-0086Y-02825*
X-00859Y-02824*
X-00859Y-02824*
X-00859Y-02824*
X-00859Y-02824*
X-00859Y-02824*
X-00859Y-02823*
X-00859Y-02823*
X-00858Y-02823*
X-00858Y-02823*
X-00858Y-02822*
X-00858Y-02822*
X-00858Y-02822*
X-00858Y-02822*
X-00928D02*
D01*
X-00928Y-02822*
X-00928Y-02822*
X-00928Y-02822*
X-00928Y-02823*
X-00928Y-02823*
X-00928Y-02823*
X-00927Y-02823*
X-00927Y-02824*
X-00927Y-02824*
X-00927Y-02824*
X-00927Y-02824*
X-00927Y-02825*
X-00926Y-02825*
X-00926Y-02825*
X-00926Y-02825*
X-00926Y-02825*
X-00925Y-02825*
X-00925Y-02825*
X-00925Y-02825*
X-00925Y-02826*
X-00924Y-02826*
X-00924Y-02826*
X-00924Y-02826*
X-00843Y-02816D02*
D01*
X-00843Y-02812*
X-00844Y-02809*
X-00844Y-02805*
X-00845Y-02802*
X-00846Y-02798*
X-00847Y-02795*
X-00849Y-02792*
X-00851Y-02789*
X-00853Y-02786*
X-00855Y-02783*
X-00857Y-02781*
X-0086Y-02778*
X-00862Y-02776*
X-00865Y-02774*
X-00868Y-02772*
X-00871Y-02771*
X-00874Y-02769*
X-00878Y-02768*
X-00881Y-02767*
X-00884Y-02766*
X-00888Y-02766*
X-00891Y-02766*
X-00895*
X-00898Y-02766*
X-00902Y-02766*
X-00905Y-02767*
X-00909Y-02768*
X-00912Y-02769*
X-00915Y-02771*
X-00918Y-02772*
X-00921Y-02774*
X-00924Y-02776*
X-00927Y-02778*
X-00929Y-02781*
X-00931Y-02783*
X-00934Y-02786*
X-00935Y-02789*
X-00937Y-02792*
X-00939Y-02795*
X-0094Y-02798*
X-00941Y-02802*
X-00942Y-02805*
X-00943Y-02809*
X-00943Y-02812*
X-00943Y-02816*
X-00943Y-02819*
X-00943Y-02822*
X-00942Y-02826*
X-00941Y-02829*
X-0094Y-02833*
X-00939Y-02836*
X-00937Y-02839*
X-00935Y-02842*
X-00934Y-02845*
X-00931Y-02848*
X-00929Y-0285*
X-00927Y-02853*
X-00924Y-02855*
X-00921Y-02857*
X-00918Y-02859*
X-00915Y-0286*
X-00912Y-02862*
X-00909Y-02863*
X-00905Y-02864*
X-00902Y-02865*
X-00898Y-02865*
X-00895Y-02865*
X-00891*
X-00888Y-02865*
X-00884Y-02865*
X-00881Y-02864*
X-00878Y-02863*
X-00874Y-02862*
X-00871Y-0286*
X-00868Y-02859*
X-00865Y-02857*
X-00862Y-02855*
X-0086Y-02853*
X-00857Y-0285*
X-00855Y-02848*
X-00853Y-02845*
X-00851Y-02842*
X-00849Y-02839*
X-00847Y-02836*
X-00846Y-02833*
X-00845Y-02829*
X-00844Y-02826*
X-00844Y-02822*
X-00843Y-02819*
X-00843Y-02816*
X-00063Y-01879D02*
D01*
X-00062Y-01879*
X-00062Y-01879*
X-00062Y-01879*
X-00062Y-01879*
X-00061Y-01879*
X-00061Y-01879*
X-00061Y-01878*
X-00061Y-01878*
X-0006Y-01878*
X-0006Y-01878*
X-0006Y-01878*
X-0006Y-01878*
X-0006Y-01877*
X-00059Y-01877*
X-00059Y-01877*
X-00059Y-01877*
X-00059Y-01876*
X-00059Y-01876*
X-00059Y-01876*
X-00059Y-01876*
X-00059Y-01875*
X-00059Y-01875*
X-00059Y-01875*
Y-01813D02*
D01*
X-00059Y-01813*
X-00059Y-01813*
X-00059Y-01812*
X-00059Y-01812*
X-00059Y-01812*
X-00059Y-01812*
X-00059Y-01811*
X-00059Y-01811*
X-0006Y-01811*
X-0006Y-01811*
X-0006Y-0181*
X-0006Y-0181*
X-0006Y-0181*
X-00061Y-0181*
X-00061Y-0181*
X-00061Y-0181*
X-00061Y-01809*
X-00062Y-01809*
X-00062Y-01809*
X-00062Y-01809*
X-00062Y-01809*
X-00063Y-01809*
X-00063Y-01809*
X-00079Y-01875D02*
D01*
X-00079Y-01875*
X-00079Y-01875*
X-00079Y-01876*
X-00079Y-01876*
X-00079Y-01876*
X-00079Y-01877*
X-00078Y-01877*
X-00078Y-01877*
X-00078Y-01877*
X-00078Y-01877*
X-00078Y-01878*
X-00078Y-01878*
X-00077Y-01878*
X-00077Y-01878*
X-00077Y-01878*
X-00077Y-01878*
X-00076Y-01879*
X-00076Y-01879*
X-00076Y-01879*
X-00076Y-01879*
X-00075Y-01879*
X-00075Y-01879*
X-00075Y-01879*
Y-01809D02*
D01*
X-00075Y-01809*
X-00075Y-01809*
X-00076Y-01809*
X-00076Y-01809*
X-00076Y-01809*
X-00077Y-0181*
X-00077Y-0181*
X-00077Y-0181*
X-00077Y-0181*
X-00077Y-0181*
X-00078Y-0181*
X-00078Y-0181*
X-00078Y-01811*
X-00078Y-01811*
X-00078Y-01811*
X-00078Y-01811*
X-00079Y-01812*
X-00079Y-01812*
X-00079Y-01812*
X-00079Y-01812*
X-00079Y-01813*
X-00079Y-01813*
X-00079Y-01813*
X-00019Y-01844D02*
D01*
X-00019Y-01841*
X-00019Y-01837*
X-0002Y-01834*
X-00021Y-0183*
X-00022Y-01827*
X-00023Y-01824*
X-00025Y-01821*
X-00026Y-01818*
X-00028Y-01815*
X-00031Y-01812*
X-00033Y-01809*
X-00035Y-01807*
X-00038Y-01805*
X-00041Y-01803*
X-00044Y-01801*
X-00047Y-01799*
X-0005Y-01798*
X-00053Y-01796*
X-00057Y-01796*
X-0006Y-01795*
X-00064Y-01794*
X-00067Y-01794*
X-00071*
X-00074Y-01794*
X-00078Y-01795*
X-00081Y-01796*
X-00084Y-01796*
X-00088Y-01798*
X-00091Y-01799*
X-00094Y-01801*
X-00097Y-01803*
X-001Y-01805*
X-00102Y-01807*
X-00105Y-01809*
X-00107Y-01812*
X-00109Y-01815*
X-00111Y-01818*
X-00113Y-01821*
X-00115Y-01824*
X-00116Y-01827*
X-00117Y-0183*
X-00118Y-01834*
X-00118Y-01837*
X-00119Y-01841*
X-00119Y-01844*
X-00119Y-01848*
X-00118Y-01851*
X-00118Y-01854*
X-00117Y-01858*
X-00116Y-01861*
X-00115Y-01864*
X-00113Y-01868*
X-00111Y-01871*
X-00109Y-01873*
X-00107Y-01876*
X-00105Y-01879*
X-00102Y-01881*
X-001Y-01883*
X-00097Y-01885*
X-00094Y-01887*
X-00091Y-01889*
X-00088Y-0189*
X-00084Y-01892*
X-00081Y-01893*
X-00078Y-01893*
X-00074Y-01894*
X-00071Y-01894*
X-00067*
X-00064Y-01894*
X-0006Y-01893*
X-00057Y-01893*
X-00053Y-01892*
X-0005Y-0189*
X-00047Y-01889*
X-00044Y-01887*
X-00041Y-01885*
X-00038Y-01883*
X-00035Y-01881*
X-00033Y-01879*
X-00031Y-01876*
X-00028Y-01873*
X-00026Y-01871*
X-00025Y-01868*
X-00023Y-01864*
X-00022Y-01861*
X-00021Y-01858*
X-0002Y-01854*
X-00019Y-01851*
X-00019Y-01848*
X-00019Y-01844*
X-00689Y-01132D02*
D01*
X-00689Y-01132*
X-00689Y-01132*
X-00689Y-01132*
X-00689Y-01132*
X-00689Y-01132*
X-00689Y-01132*
X-00689Y-01132*
X-00689Y-01132*
X-00689Y-01132*
X-00689Y-01132*
X-00689Y-01132*
X-00689Y-01132*
X-00689Y-01132*
X-00689Y-01132*
X-00689Y-01132*
X-00689Y-01133*
X-00689Y-01133*
X-00689Y-01133*
X-00689Y-01133*
X-00689Y-01133*
X-00689Y-01133*
X-00689Y-01133*
X-00689Y-01133*
Y-01165D02*
D01*
X-00689Y-01165*
X-00689Y-01165*
X-00689Y-01165*
X-00689Y-01165*
X-00689Y-01166*
X-00689Y-01166*
X-00689Y-01166*
X-00689Y-01166*
X-00689Y-01166*
X-00689Y-01166*
X-00689Y-01166*
X-00689Y-01166*
X-00689Y-01166*
X-00689Y-01166*
X-00689Y-01166*
X-00689Y-01166*
X-00689Y-01166*
X-00689Y-01166*
X-00689Y-01166*
X-00689Y-01166*
X-00689Y-01166*
X-00689Y-01166*
X-00689*
X-00626Y-01133D02*
D01*
Y-01133*
X-00626Y-01133*
X-00626Y-01133*
X-00626Y-01133*
X-00626Y-01133*
X-00626Y-01133*
X-00626Y-01133*
X-00626Y-01132*
X-00626Y-01132*
X-00626Y-01132*
X-00626Y-01132*
X-00626Y-01132*
X-00626Y-01132*
X-00626Y-01132*
X-00627Y-01132*
X-00627Y-01132*
X-00627Y-01132*
X-00627Y-01132*
X-00627Y-01132*
X-00627Y-01132*
X-00627Y-01132*
X-00627Y-01132*
X-00627*
Y-01166D02*
D01*
X-00627Y-01166*
X-00627Y-01166*
X-00627Y-01166*
X-00627Y-01166*
X-00627Y-01166*
X-00627Y-01166*
X-00627Y-01166*
X-00626Y-01166*
X-00626Y-01166*
X-00626Y-01166*
X-00626Y-01166*
X-00626Y-01166*
X-00626Y-01166*
X-00626Y-01166*
X-00626Y-01166*
X-00626Y-01166*
X-00626Y-01166*
X-00626Y-01165*
X-00626Y-01165*
X-00626Y-01165*
X-00626Y-01165*
X-00626Y-01165*
Y-01165*
X-0063Y-01203D02*
D01*
X-0063Y-01202*
X-00631Y-01202*
X-00631Y-01202*
X-00631Y-01201*
X-00631Y-01201*
X-00631Y-01201*
X-00631Y-012*
X-00631Y-012*
X-00631Y-012*
X-00632Y-01199*
X-00632Y-01199*
X-00632Y-01199*
X-00632Y-01199*
X-00633Y-01198*
X-00633Y-01198*
X-00633Y-01198*
X-00634Y-01198*
X-00634Y-01198*
X-00634Y-01198*
X-00635Y-01198*
X-00635Y-01198*
X-00635Y-01198*
X-00636*
X-00636Y-01198*
X-00636Y-01198*
X-00637Y-01198*
X-00637Y-01198*
X-00637Y-01198*
X-00638Y-01198*
X-00638Y-01198*
X-00638Y-01198*
X-00638Y-01199*
X-00639Y-01199*
X-00639Y-01199*
X-00639Y-01199*
X-00639Y-012*
X-0064Y-012*
X-0064Y-012*
X-0064Y-01201*
X-0064Y-01201*
X-0064Y-01201*
X-0064Y-01202*
X-0064Y-01202*
X-0064Y-01202*
X-0064Y-01203*
X-0064Y-01203*
X-0064Y-01203*
X-0064Y-01204*
X-0064Y-01204*
X-0064Y-01204*
X-0064Y-01205*
X-0064Y-01205*
X-0064Y-01205*
X-00639Y-01205*
X-00639Y-01206*
X-00639Y-01206*
X-00639Y-01206*
X-00638Y-01206*
X-00638Y-01207*
X-00638Y-01207*
X-00638Y-01207*
X-00637Y-01207*
X-00637Y-01207*
X-00637Y-01207*
X-00636Y-01207*
X-00636Y-01207*
X-00636Y-01207*
X-00635*
X-00635Y-01207*
X-00635Y-01207*
X-00634Y-01207*
X-00634Y-01207*
X-00634Y-01207*
X-00633Y-01207*
X-00633Y-01207*
X-00633Y-01207*
X-00632Y-01206*
X-00632Y-01206*
X-00632Y-01206*
X-00632Y-01206*
X-00631Y-01205*
X-00631Y-01205*
X-00631Y-01205*
X-00631Y-01205*
X-00631Y-01204*
X-00631Y-01204*
X-00631Y-01204*
X-00631Y-01203*
X-0063Y-01203*
X-0063Y-01203*
X-00518Y-00667D02*
D01*
X-00518Y-00667*
X-00518Y-00667*
X-00518Y-00666*
X-00518Y-00666*
X-00518Y-00666*
X-00519Y-00665*
X-00519Y-00665*
X-00519Y-00665*
X-00519Y-00664*
X-00519Y-00664*
X-0052Y-00664*
X-0052Y-00664*
X-0052Y-00663*
X-0052Y-00663*
X-00521Y-00663*
X-00521Y-00663*
X-00521Y-00663*
X-00522Y-00663*
X-00522Y-00663*
X-00522Y-00662*
X-00523Y-00662*
X-00523Y-00662*
X-00523*
X-00524Y-00662*
X-00524Y-00662*
X-00524Y-00663*
X-00525Y-00663*
X-00525Y-00663*
X-00525Y-00663*
X-00526Y-00663*
X-00526Y-00663*
X-00526Y-00663*
X-00526Y-00664*
X-00527Y-00664*
X-00527Y-00664*
X-00527Y-00664*
X-00527Y-00665*
X-00527Y-00665*
X-00528Y-00665*
X-00528Y-00666*
X-00528Y-00666*
X-00528Y-00666*
X-00528Y-00667*
X-00528Y-00667*
X-00528Y-00667*
X-00528Y-00668*
X-00528Y-00668*
X-00528Y-00668*
X-00528Y-00669*
X-00528Y-00669*
X-00528Y-00669*
X-00527Y-0067*
X-00527Y-0067*
X-00527Y-0067*
X-00527Y-0067*
X-00527Y-00671*
X-00526Y-00671*
X-00526Y-00671*
X-00526Y-00671*
X-00526Y-00672*
X-00525Y-00672*
X-00525Y-00672*
X-00525Y-00672*
X-00524Y-00672*
X-00524Y-00672*
X-00524Y-00672*
X-00523Y-00672*
X-00523*
X-00523Y-00672*
X-00522Y-00672*
X-00522Y-00672*
X-00522Y-00672*
X-00521Y-00672*
X-00521Y-00672*
X-00521Y-00672*
X-0052Y-00671*
X-0052Y-00671*
X-0052Y-00671*
X-0052Y-00671*
X-00519Y-0067*
X-00519Y-0067*
X-00519Y-0067*
X-00519Y-0067*
X-00519Y-00669*
X-00518Y-00669*
X-00518Y-00669*
X-00518Y-00668*
X-00518Y-00668*
X-00518Y-00668*
X-00518Y-00667*
X-0067Y-01762D02*
D01*
X-0067Y-01762*
X-0067Y-01761*
X-0067Y-01761*
X-0067Y-01761*
X-0067Y-0176*
X-0067Y-0176*
X-0067Y-0176*
X-0067Y-01759*
X-0067Y-01759*
X-00671Y-01759*
X-00671Y-01759*
X-00671Y-01758*
X-00671Y-01758*
X-00672Y-01758*
X-00672Y-01758*
X-00672Y-01758*
X-00673Y-01757*
X-00673Y-01757*
X-00673Y-01757*
X-00674Y-01757*
X-00674Y-01757*
X-00674Y-01757*
X-00675*
X-00675Y-01757*
X-00675Y-01757*
X-00676Y-01757*
X-00676Y-01757*
X-00676Y-01757*
X-00677Y-01758*
X-00677Y-01758*
X-00677Y-01758*
X-00677Y-01758*
X-00678Y-01758*
X-00678Y-01759*
X-00678Y-01759*
X-00678Y-01759*
X-00679Y-01759*
X-00679Y-0176*
X-00679Y-0176*
X-00679Y-0176*
X-00679Y-01761*
X-00679Y-01761*
X-00679Y-01761*
X-00679Y-01762*
X-00679Y-01762*
X-00679Y-01762*
X-00679Y-01763*
X-00679Y-01763*
X-00679Y-01763*
X-00679Y-01764*
X-00679Y-01764*
X-00679Y-01764*
X-00679Y-01765*
X-00678Y-01765*
X-00678Y-01765*
X-00678Y-01765*
X-00678Y-01766*
X-00677Y-01766*
X-00677Y-01766*
X-00677Y-01766*
X-00677Y-01766*
X-00676Y-01766*
X-00676Y-01767*
X-00676Y-01767*
X-00675Y-01767*
X-00675Y-01767*
X-00675Y-01767*
X-00674*
X-00674Y-01767*
X-00674Y-01767*
X-00673Y-01767*
X-00673Y-01767*
X-00673Y-01766*
X-00672Y-01766*
X-00672Y-01766*
X-00672Y-01766*
X-00671Y-01766*
X-00671Y-01766*
X-00671Y-01765*
X-00671Y-01765*
X-0067Y-01765*
X-0067Y-01765*
X-0067Y-01764*
X-0067Y-01764*
X-0067Y-01764*
X-0067Y-01763*
X-0067Y-01763*
X-0067Y-01763*
X-0067Y-01762*
X-0067Y-01762*
X-0066Y-00712D02*
D01*
X-0066Y-00712*
X-0066Y-00712*
X-0066Y-00712*
X-0066Y-00712*
X-0066Y-00712*
X-0066Y-00712*
X-0066Y-00712*
X-0066Y-00712*
X-0066Y-00712*
X-0066Y-00712*
X-0066Y-00712*
X-0066Y-00712*
X-0066Y-00712*
X-0066Y-00712*
X-0066Y-00712*
X-0066Y-00712*
X-0066Y-00711*
X-0066Y-00711*
X-0066Y-00711*
X-0066Y-00711*
X-0066Y-00711*
X-0066Y-00711*
Y-00711*
X-00693D02*
D01*
X-00693Y-00711*
X-00693Y-00711*
X-00693Y-00711*
X-00693Y-00711*
X-00693Y-00711*
X-00693Y-00712*
X-00693Y-00712*
X-00693Y-00712*
X-00693Y-00712*
X-00693Y-00712*
X-00693Y-00712*
X-00693Y-00712*
X-00693Y-00712*
X-00693Y-00712*
X-00693Y-00712*
X-00693Y-00712*
X-00693Y-00712*
X-00693Y-00712*
X-00693Y-00712*
X-00693Y-00712*
X-00693Y-00712*
X-00693Y-00712*
X-00693Y-00712*
X-0066Y-00649D02*
D01*
X-0066Y-00649*
X-0066Y-00649*
X-0066Y-00649*
X-0066Y-00649*
X-0066Y-00649*
X-0066Y-00649*
X-0066Y-00649*
X-0066Y-00649*
X-0066Y-00649*
X-0066Y-00649*
X-0066Y-00649*
X-0066Y-00649*
X-0066Y-00649*
X-0066Y-00649*
X-0066Y-00649*
X-0066Y-00649*
X-0066Y-00649*
X-0066Y-00649*
X-0066Y-00649*
X-0066Y-00649*
X-0066Y-00649*
X-0066Y-00649*
X-0066Y-00649*
X-00693D02*
D01*
X-00693Y-00649*
X-00693Y-00649*
X-00693Y-00649*
X-00693Y-00649*
X-00693Y-00649*
X-00693Y-00649*
X-00693Y-00649*
X-00693Y-00649*
X-00693Y-00649*
X-00693Y-00649*
X-00693Y-00649*
X-00693Y-00649*
X-00693Y-00649*
X-00693Y-00649*
X-00693Y-00649*
X-00693Y-00649*
X-00693Y-00649*
X-00693Y-00649*
X-00693Y-00649*
X-00693Y-00649*
X-00693Y-00649*
X-00693Y-00649*
X-00693Y-00649*
X-00465Y-00901D02*
D01*
X-00465Y-00901*
X-00465Y-00901*
X-00465Y-00901*
X-00465Y-00901*
X-00465Y-00901*
X-00465Y-00901*
X-00465Y-00901*
X-00465Y-00901*
X-00465Y-00901*
X-00465Y-00901*
X-00465Y-00901*
X-00465Y-00901*
X-00465Y-00901*
X-00465Y-00901*
X-00465Y-00901*
X-00465Y-00901*
X-00465Y-00901*
X-00465Y-00901*
X-00465Y-00901*
X-00465Y-00901*
X-00465Y-00901*
X-00465Y-00901*
X-00465Y-00901*
Y-00934D02*
D01*
X-00465Y-00934*
X-00465Y-00934*
X-00465Y-00934*
X-00465Y-00934*
X-00465Y-00934*
X-00465Y-00934*
X-00465Y-00934*
X-00465Y-00934*
X-00465Y-00934*
X-00465Y-00934*
X-00465Y-00934*
X-00465Y-00934*
X-00465Y-00934*
X-00465Y-00934*
X-00465Y-00934*
X-00465Y-00934*
X-00465Y-00934*
X-00465Y-00934*
X-00465Y-00934*
X-00465Y-00934*
X-00465Y-00934*
X-00465Y-00934*
Y-00934*
X-00528Y-00901D02*
D01*
X-00528Y-00901*
X-00528Y-00901*
X-00528Y-00901*
X-00528Y-00901*
X-00528Y-00901*
X-00528Y-00901*
X-00528Y-00901*
X-00528Y-00901*
X-00528Y-00901*
X-00528Y-00901*
X-00528Y-00901*
X-00528Y-00901*
X-00528Y-00901*
X-00528Y-00901*
X-00528Y-00901*
X-00528Y-00901*
X-00528Y-00901*
X-00528Y-00901*
X-00528Y-00901*
X-00528Y-00901*
X-00528Y-00901*
X-00528Y-00901*
X-00528Y-00901*
Y-00934D02*
D01*
X-00528Y-00934*
X-00528Y-00934*
X-00528Y-00934*
X-00528Y-00934*
X-00528Y-00934*
X-00528Y-00934*
X-00528Y-00934*
X-00528Y-00934*
X-00528Y-00934*
X-00528Y-00934*
X-00528Y-00934*
X-00528Y-00934*
X-00528Y-00934*
X-00528Y-00934*
X-00528Y-00934*
X-00528Y-00934*
X-00528Y-00934*
X-00528Y-00934*
X-00528Y-00934*
X-00528Y-00934*
X-00528Y-00934*
X-00528Y-00934*
X-00528*
X-00051Y-01199D02*
D01*
X-00051Y-01199*
X-00051Y-01199*
X-00051Y-01199*
X-00051Y-01199*
X-00051Y-01199*
X-00051Y-01199*
X-00051Y-01199*
X-00051Y-01199*
X-00051Y-01199*
X-00051Y-01199*
X-00051Y-01199*
X-00051Y-01199*
X-00051Y-01199*
X-00051Y-01199*
X-00051Y-01199*
X-00051Y-01199*
X-00051Y-01199*
X-00051Y-01199*
X-00051Y-01199*
X-00051Y-01199*
X-00051Y-01199*
X-00051Y-01199*
X-00051*
X-00084D02*
D01*
X-00084Y-01199*
X-00084Y-01199*
X-00084Y-01199*
X-00084Y-01199*
X-00084Y-01199*
X-00084Y-01199*
X-00084Y-01199*
X-00084Y-01199*
X-00084Y-01199*
X-00084Y-01199*
X-00084Y-01199*
X-00084Y-01199*
X-00084Y-01199*
X-00084Y-01199*
X-00084Y-01199*
X-00084Y-01199*
X-00084Y-01199*
X-00084Y-01199*
X-00084Y-01199*
X-00084Y-01199*
X-00084Y-01199*
X-00084Y-01199*
Y-01199*
X-00051Y-01262D02*
D01*
X-00051Y-01262*
X-00051Y-01262*
X-00051Y-01262*
X-00051Y-01262*
X-00051Y-01262*
X-00051Y-01262*
X-00051Y-01262*
X-00051Y-01262*
X-00051Y-01262*
X-00051Y-01262*
X-00051Y-01262*
X-00051Y-01262*
X-00051Y-01262*
X-00051Y-01262*
X-00051Y-01262*
X-00051Y-01262*
X-00051Y-01262*
X-00051Y-01262*
X-00051Y-01262*
X-00051Y-01262*
X-00051Y-01262*
X-00051Y-01261*
Y-01261*
X-00084D02*
D01*
X-00084Y-01261*
X-00084Y-01262*
X-00084Y-01262*
X-00084Y-01262*
X-00084Y-01262*
X-00084Y-01262*
X-00084Y-01262*
X-00084Y-01262*
X-00084Y-01262*
X-00084Y-01262*
X-00084Y-01262*
X-00084Y-01262*
X-00084Y-01262*
X-00084Y-01262*
X-00084Y-01262*
X-00084Y-01262*
X-00084Y-01262*
X-00084Y-01262*
X-00084Y-01262*
X-00084Y-01262*
X-00084Y-01262*
X-00084Y-01262*
X-00084Y-01262*
X-0042Y-03222D02*
D01*
X-0042Y-03222*
X-0042Y-03222*
X-0042Y-03222*
X-0042Y-03222*
X-00419Y-03222*
X-00419Y-03222*
X-00419Y-03222*
X-00419Y-03222*
X-00419Y-03222*
X-00419Y-03222*
X-00419Y-03222*
X-00419Y-03222*
X-00419Y-03222*
X-00419Y-03221*
X-00419Y-03221*
X-00419Y-03221*
X-00419Y-03221*
X-00419Y-03221*
X-00419Y-03221*
X-00419Y-03221*
X-00419Y-03221*
X-00419Y-03221*
Y-03221*
X-00453D02*
D01*
Y-03221*
X-00453Y-03221*
X-00453Y-03221*
X-00453Y-03221*
X-00453Y-03221*
X-00453Y-03221*
X-00453Y-03221*
X-00453Y-03221*
X-00453Y-03222*
X-00453Y-03222*
X-00453Y-03222*
X-00453Y-03222*
X-00453Y-03222*
X-00453Y-03222*
X-00452Y-03222*
X-00452Y-03222*
X-00452Y-03222*
X-00452Y-03222*
X-00452Y-03222*
X-00452Y-03222*
X-00452Y-03222*
X-00452Y-03222*
X-00452*
X-00419Y-03159D02*
D01*
X-00419Y-03159*
X-00419Y-03159*
X-00419Y-03159*
X-00419Y-03159*
X-00419Y-03159*
X-00419Y-03159*
X-00419Y-03159*
X-00419Y-03159*
X-00419Y-03159*
X-00419Y-03159*
X-00419Y-03159*
X-00419Y-03159*
X-00419Y-03159*
X-00419Y-03159*
X-00419Y-03159*
X-00419Y-03159*
X-00419Y-03159*
X-00419Y-03159*
X-0042Y-03159*
X-0042Y-03159*
X-0042Y-03159*
X-0042Y-03159*
X-0042*
X-00452D02*
D01*
X-00452Y-03159*
X-00452Y-03159*
X-00452Y-03159*
X-00452Y-03159*
X-00452Y-03159*
X-00452Y-03159*
X-00452Y-03159*
X-00453Y-03159*
X-00453Y-03159*
X-00453Y-03159*
X-00453Y-03159*
X-00453Y-03159*
X-00453Y-03159*
X-00453Y-03159*
X-00453Y-03159*
X-00453Y-03159*
X-00453Y-03159*
X-00453Y-03159*
X-00453Y-03159*
X-00453Y-03159*
X-00453Y-03159*
X-00453Y-03159*
Y-03159*
X-00473Y-03222D02*
D01*
X-00473Y-03222*
X-00473Y-03222*
X-00473Y-03222*
X-00473Y-03222*
X-00473Y-03222*
X-00473Y-03222*
X-00473Y-03222*
X-00473Y-03222*
X-00473Y-03222*
X-00473Y-03222*
X-00473Y-03222*
X-00473Y-03222*
X-00473Y-03222*
X-00473Y-03221*
X-00473Y-03221*
X-00473Y-03221*
X-00473Y-03221*
X-00473Y-03221*
X-00473Y-03221*
X-00473Y-03221*
X-00473Y-03221*
X-00473Y-03221*
X-00473Y-03221*
X-00506D02*
D01*
X-00506Y-03221*
X-00506Y-03221*
X-00506Y-03221*
X-00506Y-03221*
X-00506Y-03221*
X-00506Y-03221*
X-00506Y-03221*
X-00506Y-03221*
X-00506Y-03222*
X-00506Y-03222*
X-00506Y-03222*
X-00506Y-03222*
X-00506Y-03222*
X-00506Y-03222*
X-00506Y-03222*
X-00506Y-03222*
X-00506Y-03222*
X-00506Y-03222*
X-00506Y-03222*
X-00506Y-03222*
X-00506Y-03222*
X-00506Y-03222*
X-00506*
X-00473Y-03159D02*
D01*
X-00473Y-03159*
X-00473Y-03159*
X-00473Y-03159*
X-00473Y-03159*
X-00473Y-03159*
X-00473Y-03159*
X-00473Y-03159*
X-00473Y-03159*
X-00473Y-03159*
X-00473Y-03159*
X-00473Y-03159*
X-00473Y-03159*
X-00473Y-03159*
X-00473Y-03159*
X-00473Y-03159*
X-00473Y-03159*
X-00473Y-03159*
X-00473Y-03159*
X-00473Y-03159*
X-00473Y-03159*
X-00473Y-03159*
X-00473Y-03159*
X-00473*
X-00506D02*
D01*
X-00506Y-03159*
X-00506Y-03159*
X-00506Y-03159*
X-00506Y-03159*
X-00506Y-03159*
X-00506Y-03159*
X-00506Y-03159*
X-00506Y-03159*
X-00506Y-03159*
X-00506Y-03159*
X-00506Y-03159*
X-00506Y-03159*
X-00506Y-03159*
X-00506Y-03159*
X-00506Y-03159*
X-00506Y-03159*
X-00506Y-03159*
X-00506Y-03159*
X-00506Y-03159*
X-00506Y-03159*
X-00506Y-03159*
X-00506Y-03159*
Y-03159*
X-00526Y-03222D02*
D01*
X-00526Y-03222*
X-00526Y-03222*
X-00526Y-03222*
X-00526Y-03222*
X-00526Y-03222*
X-00526Y-03222*
X-00526Y-03222*
X-00526Y-03222*
X-00526Y-03222*
X-00526Y-03222*
X-00526Y-03222*
X-00526Y-03222*
X-00526Y-03222*
X-00526Y-03221*
X-00526Y-03221*
X-00526Y-03221*
X-00526Y-03221*
X-00526Y-03221*
X-00526Y-03221*
X-00526Y-03221*
X-00526Y-03221*
X-00526Y-03221*
Y-03221*
X-00559D02*
D01*
X-00559Y-03221*
X-00559Y-03221*
X-00559Y-03221*
X-00559Y-03221*
X-00559Y-03221*
X-00559Y-03221*
X-00559Y-03221*
X-00559Y-03221*
X-00559Y-03222*
X-00559Y-03222*
X-00559Y-03222*
X-00559Y-03222*
X-00559Y-03222*
X-00559Y-03222*
X-00559Y-03222*
X-00559Y-03222*
X-00559Y-03222*
X-00559Y-03222*
X-00559Y-03222*
X-00559Y-03222*
X-00559Y-03222*
X-00559Y-03222*
X-00559*
X-00526Y-03159D02*
D01*
X-00526Y-03159*
X-00526Y-03159*
X-00526Y-03159*
X-00526Y-03159*
X-00526Y-03159*
X-00526Y-03159*
X-00526Y-03159*
X-00526Y-03159*
X-00526Y-03159*
X-00526Y-03159*
X-00526Y-03159*
X-00526Y-03159*
X-00526Y-03159*
X-00526Y-03159*
X-00526Y-03159*
X-00526Y-03159*
X-00526Y-03159*
X-00526Y-03159*
X-00526Y-03159*
X-00526Y-03159*
X-00526Y-03159*
X-00526Y-03159*
X-00526*
X-00559D02*
D01*
X-00559Y-03159*
X-00559Y-03159*
X-00559Y-03159*
X-00559Y-03159*
X-00559Y-03159*
X-00559Y-03159*
X-00559Y-03159*
X-00559Y-03159*
X-00559Y-03159*
X-00559Y-03159*
X-00559Y-03159*
X-00559Y-03159*
X-00559Y-03159*
X-00559Y-03159*
X-00559Y-03159*
X-00559Y-03159*
X-00559Y-03159*
X-00559Y-03159*
X-00559Y-03159*
X-00559Y-03159*
X-00559Y-03159*
X-00559Y-03159*
Y-03159*
X-00622Y-01875D02*
D01*
X-00622Y-01875*
X-00622Y-01875*
X-00622Y-01875*
X-00622Y-01875*
X-00622Y-01875*
X-00622Y-01875*
X-00622Y-01875*
X-00622Y-01875*
X-00622Y-01875*
X-00622Y-01875*
X-00622Y-01875*
X-00622Y-01875*
X-00622Y-01875*
X-00622Y-01875*
X-00622Y-01875*
X-00622Y-01875*
X-00622Y-01874*
X-00622Y-01874*
X-00622Y-01874*
X-00622Y-01874*
X-00622Y-01874*
X-00623Y-01874*
X-00623*
Y-01908D02*
D01*
X-00623Y-01908*
X-00622Y-01908*
X-00622Y-01908*
X-00622Y-01908*
X-00622Y-01908*
X-00622Y-01908*
X-00622Y-01908*
X-00622Y-01908*
X-00622Y-01908*
X-00622Y-01908*
X-00622Y-01908*
X-00622Y-01908*
X-00622Y-01908*
X-00622Y-01908*
X-00622Y-01908*
X-00622Y-01908*
X-00622Y-01908*
X-00622Y-01908*
X-00622Y-01908*
X-00622Y-01908*
X-00622Y-01908*
X-00622Y-01908*
X-00622Y-01908*
X-00685Y-01874D02*
D01*
X-00685Y-01874*
X-00685Y-01874*
X-00685Y-01874*
X-00685Y-01874*
X-00685Y-01874*
X-00685Y-01874*
X-00685Y-01875*
X-00685Y-01875*
X-00685Y-01875*
X-00685Y-01875*
X-00685Y-01875*
X-00685Y-01875*
X-00685Y-01875*
X-00685Y-01875*
X-00685Y-01875*
X-00685Y-01875*
X-00685Y-01875*
X-00685Y-01875*
X-00685Y-01875*
X-00685Y-01875*
X-00685Y-01875*
X-00685Y-01875*
Y-01875*
Y-01908D02*
D01*
X-00685Y-01908*
X-00685Y-01908*
X-00685Y-01908*
X-00685Y-01908*
X-00685Y-01908*
X-00685Y-01908*
X-00685Y-01908*
X-00685Y-01908*
X-00685Y-01908*
X-00685Y-01908*
X-00685Y-01908*
X-00685Y-01908*
X-00685Y-01908*
X-00685Y-01908*
X-00685Y-01908*
X-00685Y-01908*
X-00685Y-01908*
X-00685Y-01908*
X-00685Y-01908*
X-00685Y-01908*
X-00685Y-01908*
X-00685Y-01908*
X-00685Y-01908*
X-00617Y-01684D02*
D01*
X-00617Y-01684*
X-00617Y-01684*
X-00618Y-01684*
X-00618Y-01684*
X-00618Y-01684*
X-00618Y-01684*
X-00618Y-01684*
X-00618Y-01684*
X-00618Y-01684*
X-00618Y-01683*
X-00618Y-01683*
X-00618Y-01683*
X-00618Y-01683*
X-00618Y-01683*
X-00618Y-01683*
X-00618Y-01683*
X-00618Y-01683*
X-00618Y-01683*
X-00618Y-01683*
X-00618Y-01683*
X-00618Y-01683*
X-00618Y-01683*
X-00618*
Y-01717D02*
D01*
X-00618Y-01717*
X-00618Y-01717*
X-00618Y-01717*
X-00618Y-01717*
X-00618Y-01717*
X-00618Y-01717*
X-00618Y-01717*
X-00618Y-01717*
X-00618Y-01717*
X-00618Y-01717*
X-00618Y-01717*
X-00618Y-01717*
X-00618Y-01717*
X-00618Y-01717*
X-00618Y-01717*
X-00618Y-01717*
X-00618Y-01717*
X-00618Y-01717*
X-00618Y-01717*
X-00617Y-01716*
X-00617Y-01716*
X-00617Y-01716*
Y-01716*
X-0068Y-01683D02*
D01*
X-0068Y-01683*
X-0068Y-01683*
X-0068Y-01683*
X-0068Y-01683*
X-0068Y-01683*
X-0068Y-01683*
X-0068Y-01683*
X-0068Y-01683*
X-0068Y-01683*
X-0068Y-01683*
X-0068Y-01683*
X-0068Y-01683*
X-0068Y-01684*
X-0068Y-01684*
X-0068Y-01684*
X-0068Y-01684*
X-0068Y-01684*
X-0068Y-01684*
X-0068Y-01684*
X-0068Y-01684*
X-0068Y-01684*
X-0068Y-01684*
Y-01684*
Y-01716D02*
D01*
X-0068Y-01716*
X-0068Y-01716*
X-0068Y-01717*
X-0068Y-01717*
X-0068Y-01717*
X-0068Y-01717*
X-0068Y-01717*
X-0068Y-01717*
X-0068Y-01717*
X-0068Y-01717*
X-0068Y-01717*
X-0068Y-01717*
X-0068Y-01717*
X-0068Y-01717*
X-0068Y-01717*
X-0068Y-01717*
X-0068Y-01717*
X-0068Y-01717*
X-0068Y-01717*
X-0068Y-01717*
X-0068Y-01717*
X-0068Y-01717*
X-0068*
X-00465Y-00747D02*
D01*
X-00465Y-00747*
X-00465Y-00747*
X-00465Y-00747*
X-00465Y-00747*
X-00465Y-00747*
X-00465Y-00747*
X-00465Y-00747*
X-00465Y-00747*
X-00465Y-00747*
X-00465Y-00747*
X-00465Y-00747*
X-00465Y-00747*
X-00465Y-00747*
X-00465Y-00747*
X-00465Y-00747*
X-00465Y-00747*
X-00465Y-00747*
X-00465Y-00747*
X-00465Y-00747*
X-00465Y-00747*
X-00465Y-00747*
X-00465Y-00747*
Y-00747*
X-00432D02*
D01*
X-00432Y-00747*
X-00432Y-00747*
X-00432Y-00747*
X-00432Y-00747*
X-00432Y-00747*
X-00432Y-00747*
X-00432Y-00747*
X-00432Y-00747*
X-00432Y-00747*
X-00432Y-00747*
X-00432Y-00747*
X-00432Y-00747*
X-00432Y-00747*
X-00432Y-00747*
X-00432Y-00747*
X-00432Y-00747*
X-00432Y-00747*
X-00432Y-00747*
X-00432Y-00747*
X-00432Y-00747*
X-00432Y-00747*
X-00432Y-00747*
X-00432*
X-00465Y-00809D02*
D01*
X-00465Y-00809*
X-00465Y-00809*
X-00465Y-00809*
X-00465Y-00809*
X-00465Y-00809*
X-00465Y-0081*
X-00465Y-0081*
X-00465Y-0081*
X-00465Y-0081*
X-00465Y-0081*
X-00465Y-0081*
X-00465Y-0081*
X-00465Y-0081*
X-00465Y-0081*
X-00465Y-0081*
X-00465Y-0081*
X-00465Y-0081*
X-00465Y-0081*
X-00465Y-0081*
X-00465Y-0081*
X-00465Y-0081*
X-00465Y-0081*
X-00465Y-0081*
X-00432D02*
D01*
X-00432Y-0081*
X-00432Y-0081*
X-00432Y-0081*
X-00432Y-0081*
X-00432Y-0081*
X-00432Y-0081*
X-00432Y-0081*
X-00432Y-0081*
X-00432Y-0081*
X-00432Y-0081*
X-00432Y-0081*
X-00432Y-0081*
X-00432Y-0081*
X-00432Y-0081*
X-00432Y-0081*
X-00432Y-0081*
X-00432Y-00809*
X-00432Y-00809*
X-00432Y-00809*
X-00432Y-00809*
X-00432Y-00809*
X-00432Y-00809*
Y-00809*
X-00743Y-0102D02*
D01*
X-00743Y-01019*
X-00743Y-01019*
X-00743Y-01019*
X-00744Y-01018*
X-00744Y-01018*
X-00744Y-01018*
X-00744Y-01018*
X-00744Y-01017*
X-00744Y-01017*
X-00744Y-01017*
X-00744Y-01017*
X-00745Y-01017*
X-00745Y-01016*
X-00745Y-01016*
X-00745Y-01016*
X-00746Y-01016*
X-00746Y-01016*
X-00746Y-01016*
X-00746Y-01016*
X-00747Y-01016*
X-00747Y-01016*
X-00747Y-01016*
X-00747Y-01016*
X-00809D02*
D01*
X-00809Y-01016*
X-0081Y-01016*
X-0081Y-01016*
X-0081Y-01016*
X-0081Y-01016*
X-00811Y-01016*
X-00811Y-01016*
X-00811Y-01016*
X-00811Y-01016*
X-00812Y-01016*
X-00812Y-01017*
X-00812Y-01017*
X-00812Y-01017*
X-00812Y-01017*
X-00813Y-01018*
X-00813Y-01018*
X-00813Y-01018*
X-00813Y-01018*
X-00813Y-01019*
X-00813Y-01019*
X-00813Y-01019*
X-00813Y-01019*
X-00813Y-0102*
X-00747Y-01036D02*
D01*
X-00747Y-01036*
X-00747Y-01036*
X-00746Y-01036*
X-00746Y-01035*
X-00746Y-01035*
X-00746Y-01035*
X-00745Y-01035*
X-00745Y-01035*
X-00745Y-01035*
X-00745Y-01035*
X-00745Y-01035*
X-00744Y-01034*
X-00744Y-01034*
X-00744Y-01034*
X-00744Y-01034*
X-00744Y-01033*
X-00744Y-01033*
X-00744Y-01033*
X-00743Y-01033*
X-00743Y-01032*
X-00743Y-01032*
X-00743Y-01032*
X-00743Y-01032*
X-00813D02*
D01*
X-00813Y-01032*
X-00813Y-01032*
X-00813Y-01033*
X-00813Y-01033*
X-00813Y-01033*
X-00813Y-01033*
X-00813Y-01034*
X-00812Y-01034*
X-00812Y-01034*
X-00812Y-01034*
X-00812Y-01034*
X-00812Y-01035*
X-00812Y-01035*
X-00811Y-01035*
X-00811Y-01035*
X-00811Y-01035*
X-00811Y-01035*
X-0081Y-01035*
X-0081Y-01036*
X-0081Y-01036*
X-0081Y-01036*
X-00809Y-01036*
X-00809Y-01036*
X-00728Y-01026D02*
D01*
X-00728Y-01022*
X-00729Y-01019*
X-00729Y-01015*
X-0073Y-01012*
X-00731Y-01009*
X-00733Y-01005*
X-00734Y-01002*
X-00736Y-00999*
X-00738Y-00996*
X-0074Y-00993*
X-00742Y-00991*
X-00745Y-00988*
X-00747Y-00986*
X-0075Y-00984*
X-00753Y-00982*
X-00756Y-00981*
X-00759Y-00979*
X-00763Y-00978*
X-00766Y-00977*
X-0077Y-00976*
X-00773Y-00976*
X-00776Y-00976*
X-0078*
X-00783Y-00976*
X-00787Y-00976*
X-0079Y-00977*
X-00794Y-00978*
X-00797Y-00979*
X-008Y-00981*
X-00803Y-00982*
X-00806Y-00984*
X-00809Y-00986*
X-00812Y-00988*
X-00814Y-00991*
X-00817Y-00993*
X-00819Y-00996*
X-00821Y-00999*
X-00822Y-01002*
X-00824Y-01005*
X-00825Y-01009*
X-00826Y-01012*
X-00827Y-01015*
X-00828Y-01019*
X-00828Y-01022*
X-00828Y-01026*
X-00828Y-01029*
X-00828Y-01033*
X-00827Y-01036*
X-00826Y-01039*
X-00825Y-01043*
X-00824Y-01046*
X-00822Y-01049*
X-00821Y-01052*
X-00819Y-01055*
X-00817Y-01058*
X-00814Y-0106*
X-00812Y-01063*
X-00809Y-01065*
X-00806Y-01067*
X-00803Y-01069*
X-008Y-01071*
X-00797Y-01072*
X-00794Y-01073*
X-0079Y-01074*
X-00787Y-01075*
X-00783Y-01075*
X-0078Y-01076*
X-00776*
X-00773Y-01075*
X-0077Y-01075*
X-00766Y-01074*
X-00763Y-01073*
X-00759Y-01072*
X-00756Y-01071*
X-00753Y-01069*
X-0075Y-01067*
X-00747Y-01065*
X-00745Y-01063*
X-00742Y-0106*
X-0074Y-01058*
X-00738Y-01055*
X-00736Y-01052*
X-00734Y-01049*
X-00733Y-01046*
X-00731Y-01043*
X-0073Y-01039*
X-00729Y-01036*
X-00729Y-01033*
X-00728Y-01029*
X-00728Y-01026*
X-00508Y-01058D02*
D01*
X-00508Y-01057*
X-00508Y-01057*
X-00508Y-01057*
X-00508Y-01057*
X-00508Y-01056*
X-00508Y-01056*
X-00508Y-01056*
X-00508Y-01056*
X-00508Y-01055*
X-00508Y-01055*
X-00509Y-01055*
X-00509Y-01055*
X-00509Y-01055*
X-00509Y-01054*
X-0051Y-01054*
X-0051Y-01054*
X-0051Y-01054*
X-0051Y-01054*
X-00511Y-01054*
X-00511Y-01054*
X-00511Y-01054*
X-00511Y-01054*
X-00512Y-01054*
X-00573D02*
D01*
X-00574Y-01054*
X-00574Y-01054*
X-00574Y-01054*
X-00574Y-01054*
X-00575Y-01054*
X-00575Y-01054*
X-00575Y-01054*
X-00575Y-01054*
X-00576Y-01054*
X-00576Y-01055*
X-00576Y-01055*
X-00576Y-01055*
X-00576Y-01055*
X-00577Y-01055*
X-00577Y-01056*
X-00577Y-01056*
X-00577Y-01056*
X-00577Y-01056*
X-00577Y-01057*
X-00577Y-01057*
X-00577Y-01057*
X-00577Y-01058*
X-00577Y-01058*
X-00512Y-01074D02*
D01*
X-00511Y-01074*
X-00511Y-01074*
X-00511Y-01074*
X-0051Y-01074*
X-0051Y-01074*
X-0051Y-01073*
X-0051Y-01073*
X-00509Y-01073*
X-00509Y-01073*
X-00509Y-01073*
X-00509Y-01073*
X-00509Y-01072*
X-00508Y-01072*
X-00508Y-01072*
X-00508Y-01072*
X-00508Y-01072*
X-00508Y-01071*
X-00508Y-01071*
X-00508Y-01071*
X-00508Y-01071*
X-00508Y-0107*
X-00508Y-0107*
X-00508Y-0107*
X-00577D02*
D01*
X-00577Y-0107*
X-00577Y-0107*
X-00577Y-01071*
X-00577Y-01071*
X-00577Y-01071*
X-00577Y-01071*
X-00577Y-01072*
X-00577Y-01072*
X-00577Y-01072*
X-00576Y-01072*
X-00576Y-01073*
X-00576Y-01073*
X-00576Y-01073*
X-00576Y-01073*
X-00575Y-01073*
X-00575Y-01073*
X-00575Y-01074*
X-00575Y-01074*
X-00574Y-01074*
X-00574Y-01074*
X-00574Y-01074*
X-00573Y-01074*
X-00573Y-01074*
X-00492Y-01064D02*
D01*
X-00493Y-0106*
X-00493Y-01057*
X-00494Y-01053*
X-00494Y-0105*
X-00495Y-01047*
X-00497Y-01043*
X-00498Y-0104*
X-005Y-01037*
X-00502Y-01034*
X-00504Y-01032*
X-00506Y-01029*
X-00509Y-01027*
X-00512Y-01024*
X-00514Y-01022*
X-00517Y-0102*
X-0052Y-01019*
X-00524Y-01017*
X-00527Y-01016*
X-0053Y-01015*
X-00534Y-01015*
X-00537Y-01014*
X-00541Y-01014*
X-00544*
X-00548Y-01014*
X-00551Y-01015*
X-00555Y-01015*
X-00558Y-01016*
X-00561Y-01017*
X-00564Y-01019*
X-00567Y-0102*
X-0057Y-01022*
X-00573Y-01024*
X-00576Y-01027*
X-00578Y-01029*
X-00581Y-01032*
X-00583Y-01034*
X-00585Y-01037*
X-00587Y-0104*
X-00588Y-01043*
X-00589Y-01047*
X-0059Y-0105*
X-00591Y-01053*
X-00592Y-01057*
X-00592Y-0106*
X-00592Y-01064*
X-00592Y-01067*
X-00592Y-01071*
X-00591Y-01074*
X-0059Y-01078*
X-00589Y-01081*
X-00588Y-01084*
X-00587Y-01087*
X-00585Y-0109*
X-00583Y-01093*
X-00581Y-01096*
X-00578Y-01098*
X-00576Y-01101*
X-00573Y-01103*
X-0057Y-01105*
X-00567Y-01107*
X-00564Y-01109*
X-00561Y-0111*
X-00558Y-01111*
X-00555Y-01112*
X-00551Y-01113*
X-00548Y-01113*
X-00544Y-01114*
X-00541*
X-00537Y-01113*
X-00534Y-01113*
X-0053Y-01112*
X-00527Y-01111*
X-00524Y-0111*
X-0052Y-01109*
X-00517Y-01107*
X-00514Y-01105*
X-00512Y-01103*
X-00509Y-01101*
X-00506Y-01098*
X-00504Y-01096*
X-00502Y-01093*
X-005Y-0109*
X-00498Y-01087*
X-00497Y-01084*
X-00495Y-01081*
X-00494Y-01078*
X-00494Y-01074*
X-00493Y-01071*
X-00493Y-01067*
X-00492Y-01064*
X-00521Y-02065D02*
D01*
X-00521Y-02064*
X-00521Y-02064*
X-00521Y-02064*
X-00521Y-02064*
X-00521Y-02063*
X-00521Y-02063*
X-00521Y-02063*
X-00521Y-02063*
X-00521Y-02062*
X-00521Y-02062*
X-00522Y-02062*
X-00522Y-02062*
X-00522Y-02062*
X-00522Y-02061*
X-00522Y-02061*
X-00523Y-02061*
X-00523Y-02061*
X-00523Y-02061*
X-00524Y-02061*
X-00524Y-02061*
X-00524Y-02061*
X-00524Y-02061*
X-00524Y-02061*
X-00586D02*
D01*
X-00587Y-02061*
X-00587Y-02061*
X-00587Y-02061*
X-00587Y-02061*
X-00588Y-02061*
X-00588Y-02061*
X-00588Y-02061*
X-00588Y-02061*
X-00589Y-02061*
X-00589Y-02062*
X-00589Y-02062*
X-00589Y-02062*
X-00589Y-02062*
X-0059Y-02062*
X-0059Y-02063*
X-0059Y-02063*
X-0059Y-02063*
X-0059Y-02063*
X-0059Y-02064*
X-0059Y-02064*
X-0059Y-02064*
X-0059Y-02065*
X-0059Y-02065*
X-00524Y-02081D02*
D01*
X-00524Y-02081*
X-00524Y-02081*
X-00524Y-02081*
X-00523Y-02081*
X-00523Y-02081*
X-00523Y-0208*
X-00523Y-0208*
X-00522Y-0208*
X-00522Y-0208*
X-00522Y-0208*
X-00522Y-0208*
X-00522Y-02079*
X-00521Y-02079*
X-00521Y-02079*
X-00521Y-02079*
X-00521Y-02079*
X-00521Y-02078*
X-00521Y-02078*
X-00521Y-02078*
X-00521Y-02078*
X-00521Y-02077*
X-00521Y-02077*
X-00521Y-02077*
X-0059D02*
D01*
X-0059Y-02077*
X-0059Y-02077*
X-0059Y-02078*
X-0059Y-02078*
X-0059Y-02078*
X-0059Y-02078*
X-0059Y-02079*
X-0059Y-02079*
X-00589Y-02079*
X-00589Y-02079*
X-00589Y-0208*
X-00589Y-0208*
X-00589Y-0208*
X-00588Y-0208*
X-00588Y-0208*
X-00588Y-0208*
X-00588Y-02081*
X-00587Y-02081*
X-00587Y-02081*
X-00587Y-02081*
X-00587Y-02081*
X-00586Y-02081*
X-00586Y-02081*
X-00505Y-02071D02*
D01*
X-00505Y-02067*
X-00506Y-02064*
X-00506Y-0206*
X-00507Y-02057*
X-00508Y-02054*
X-0051Y-0205*
X-00511Y-02047*
X-00513Y-02044*
X-00515Y-02041*
X-00517Y-02039*
X-00519Y-02036*
X-00522Y-02034*
X-00525Y-02031*
X-00527Y-02029*
X-0053Y-02027*
X-00533Y-02026*
X-00537Y-02024*
X-0054Y-02023*
X-00543Y-02022*
X-00547Y-02022*
X-0055Y-02021*
X-00554Y-02021*
X-00557*
X-00561Y-02021*
X-00564Y-02022*
X-00567Y-02022*
X-00571Y-02023*
X-00574Y-02024*
X-00577Y-02026*
X-0058Y-02027*
X-00583Y-02029*
X-00586Y-02031*
X-00589Y-02034*
X-00591Y-02036*
X-00594Y-02039*
X-00596Y-02041*
X-00598Y-02044*
X-006Y-02047*
X-00601Y-0205*
X-00602Y-02054*
X-00603Y-02057*
X-00604Y-0206*
X-00605Y-02064*
X-00605Y-02067*
X-00605Y-02071*
X-00605Y-02074*
X-00605Y-02078*
X-00604Y-02081*
X-00603Y-02085*
X-00602Y-02088*
X-00601Y-02091*
X-006Y-02094*
X-00598Y-02097*
X-00596Y-021*
X-00594Y-02103*
X-00591Y-02105*
X-00589Y-02108*
X-00586Y-0211*
X-00583Y-02112*
X-0058Y-02114*
X-00577Y-02116*
X-00574Y-02117*
X-00571Y-02118*
X-00567Y-02119*
X-00564Y-0212*
X-00561Y-0212*
X-00557Y-02121*
X-00554*
X-0055Y-0212*
X-00547Y-0212*
X-00543Y-02119*
X-0054Y-02118*
X-00537Y-02117*
X-00533Y-02116*
X-0053Y-02114*
X-00527Y-02112*
X-00525Y-0211*
X-00522Y-02108*
X-00519Y-02105*
X-00517Y-02103*
X-00515Y-021*
X-00513Y-02097*
X-00511Y-02094*
X-0051Y-02091*
X-00508Y-02088*
X-00507Y-02085*
X-00506Y-02081*
X-00506Y-02078*
X-00505Y-02074*
X-00505Y-02071*
X-00703Y-02013D02*
D01*
X-00703Y-02013*
X-00703Y-02013*
X-00703Y-02012*
X-00704Y-02012*
X-00704Y-02012*
X-00704Y-02012*
X-00704Y-02011*
X-00704Y-02011*
X-00704Y-02011*
X-00704Y-02011*
X-00705Y-0201*
X-00705Y-0201*
X-00705Y-0201*
X-00705Y-0201*
X-00705Y-0201*
X-00706Y-0201*
X-00706Y-0201*
X-00706Y-02009*
X-00706Y-02009*
X-00707Y-02009*
X-00707Y-02009*
X-00707Y-02009*
X-00707Y-02009*
X-00769D02*
D01*
X-00769Y-02009*
X-0077Y-02009*
X-0077Y-02009*
X-0077Y-02009*
X-0077Y-02009*
X-00771Y-0201*
X-00771Y-0201*
X-00771Y-0201*
X-00771Y-0201*
X-00772Y-0201*
X-00772Y-0201*
X-00772Y-02011*
X-00772Y-02011*
X-00772Y-02011*
X-00773Y-02011*
X-00773Y-02011*
X-00773Y-02012*
X-00773Y-02012*
X-00773Y-02012*
X-00773Y-02012*
X-00773Y-02013*
X-00773Y-02013*
X-00773Y-02013*
X-00707Y-02029D02*
D01*
X-00707Y-02029*
X-00707Y-02029*
X-00707Y-02029*
X-00706Y-02029*
X-00706Y-02029*
X-00706Y-02029*
X-00705Y-02029*
X-00705Y-02029*
X-00705Y-02029*
X-00705Y-02028*
X-00705Y-02028*
X-00704Y-02028*
X-00704Y-02028*
X-00704Y-02028*
X-00704Y-02027*
X-00704Y-02027*
X-00704Y-02027*
X-00704Y-02027*
X-00704Y-02026*
X-00703Y-02026*
X-00703Y-02026*
X-00703Y-02026*
X-00703Y-02025*
X-00773D02*
D01*
X-00773Y-02026*
X-00773Y-02026*
X-00773Y-02026*
X-00773Y-02026*
X-00773Y-02027*
X-00773Y-02027*
X-00773Y-02027*
X-00772Y-02027*
X-00772Y-02028*
X-00772Y-02028*
X-00772Y-02028*
X-00772Y-02028*
X-00772Y-02028*
X-00771Y-02029*
X-00771Y-02029*
X-00771Y-02029*
X-00771Y-02029*
X-0077Y-02029*
X-0077Y-02029*
X-0077Y-02029*
X-0077Y-02029*
X-00769Y-02029*
X-00769Y-02029*
X-00688Y-02019D02*
D01*
X-00688Y-02016*
X-00689Y-02012*
X-00689Y-02009*
X-0069Y-02005*
X-00691Y-02002*
X-00693Y-01999*
X-00694Y-01996*
X-00696Y-01993*
X-00698Y-0199*
X-007Y-01987*
X-00702Y-01985*
X-00705Y-01982*
X-00707Y-0198*
X-0071Y-01978*
X-00713Y-01976*
X-00716Y-01974*
X-0072Y-01973*
X-00723Y-01972*
X-00726Y-01971*
X-0073Y-0197*
X-00733Y-0197*
X-00736Y-01969*
X-0074*
X-00743Y-0197*
X-00747Y-0197*
X-0075Y-01971*
X-00754Y-01972*
X-00757Y-01973*
X-0076Y-01974*
X-00763Y-01976*
X-00766Y-01978*
X-00769Y-0198*
X-00772Y-01982*
X-00774Y-01985*
X-00777Y-01987*
X-00779Y-0199*
X-00781Y-01993*
X-00782Y-01996*
X-00784Y-01999*
X-00785Y-02002*
X-00786Y-02005*
X-00787Y-02009*
X-00788Y-02012*
X-00788Y-02016*
X-00788Y-02019*
X-00788Y-02023*
X-00788Y-02026*
X-00787Y-0203*
X-00786Y-02033*
X-00785Y-02036*
X-00784Y-0204*
X-00782Y-02043*
X-00781Y-02046*
X-00779Y-02049*
X-00777Y-02051*
X-00774Y-02054*
X-00772Y-02056*
X-00769Y-02059*
X-00766Y-02061*
X-00763Y-02063*
X-0076Y-02064*
X-00757Y-02066*
X-00754Y-02067*
X-0075Y-02068*
X-00747Y-02069*
X-00743Y-02069*
X-0074Y-02069*
X-00736*
X-00733Y-02069*
X-0073Y-02069*
X-00726Y-02068*
X-00723Y-02067*
X-0072Y-02066*
X-00716Y-02064*
X-00713Y-02063*
X-0071Y-02061*
X-00707Y-02059*
X-00705Y-02056*
X-00702Y-02054*
X-007Y-02051*
X-00698Y-02049*
X-00696Y-02046*
X-00694Y-02043*
X-00693Y-0204*
X-00691Y-02036*
X-0069Y-02033*
X-00689Y-0203*
X-00689Y-02026*
X-00688Y-02023*
X-00688Y-02019*
X-00033Y-0155D02*
D01*
X-00033Y-0155*
X-00033Y-0155*
X-00033Y-01549*
X-00033Y-01549*
X-00033Y-01549*
X-00033Y-01549*
X-00033Y-01548*
X-00033Y-01548*
X-00034Y-01548*
X-00034Y-01548*
X-00034Y-01547*
X-00034Y-01547*
X-00034Y-01547*
X-00035Y-01547*
X-00035Y-01547*
X-00035Y-01547*
X-00035Y-01546*
X-00036Y-01546*
X-00036Y-01546*
X-00036Y-01546*
X-00036Y-01546*
X-00037Y-01546*
X-00037Y-01546*
X-00099D02*
D01*
X-00099Y-01546*
X-00099Y-01546*
X-00099Y-01546*
X-001Y-01546*
X-001Y-01546*
X-001Y-01547*
X-001Y-01547*
X-00101Y-01547*
X-00101Y-01547*
X-00101Y-01547*
X-00101Y-01547*
X-00101Y-01547*
X-00102Y-01548*
X-00102Y-01548*
X-00102Y-01548*
X-00102Y-01548*
X-00102Y-01549*
X-00102Y-01549*
X-00102Y-01549*
X-00102Y-01549*
X-00102Y-0155*
X-00102Y-0155*
X-00102Y-0155*
X-00037Y-01566D02*
D01*
X-00036Y-01566*
X-00036Y-01566*
X-00036Y-01566*
X-00036Y-01566*
X-00035Y-01566*
X-00035Y-01566*
X-00035Y-01566*
X-00035Y-01566*
X-00034Y-01566*
X-00034Y-01565*
X-00034Y-01565*
X-00034Y-01565*
X-00034Y-01565*
X-00033Y-01565*
X-00033Y-01564*
X-00033Y-01564*
X-00033Y-01564*
X-00033Y-01564*
X-00033Y-01563*
X-00033Y-01563*
X-00033Y-01563*
X-00033Y-01562*
X-00033Y-01562*
X-00102D02*
D01*
X-00102Y-01563*
X-00102Y-01563*
X-00102Y-01563*
X-00102Y-01563*
X-00102Y-01564*
X-00102Y-01564*
X-00102Y-01564*
X-00102Y-01564*
X-00102Y-01565*
X-00102Y-01565*
X-00101Y-01565*
X-00101Y-01565*
X-00101Y-01565*
X-00101Y-01566*
X-00101Y-01566*
X-001Y-01566*
X-001Y-01566*
X-001Y-01566*
X-001Y-01566*
X-00099Y-01566*
X-00099Y-01566*
X-00099Y-01566*
X-00099Y-01566*
X-00018Y-01556D02*
D01*
X-00018Y-01553*
X-00018Y-01549*
X-00019Y-01546*
X-0002Y-01542*
X-00021Y-01539*
X-00022Y-01536*
X-00024Y-01533*
X-00025Y-0153*
X-00027Y-01527*
X-00029Y-01524*
X-00032Y-01521*
X-00034Y-01519*
X-00037Y-01517*
X-0004Y-01515*
X-00043Y-01513*
X-00046Y-01511*
X-00049Y-0151*
X-00052Y-01509*
X-00056Y-01508*
X-00059Y-01507*
X-00062Y-01507*
X-00066Y-01506*
X-00069*
X-00073Y-01507*
X-00076Y-01507*
X-0008Y-01508*
X-00083Y-01509*
X-00086Y-0151*
X-0009Y-01511*
X-00093Y-01513*
X-00096Y-01515*
X-00098Y-01517*
X-00101Y-01519*
X-00104Y-01521*
X-00106Y-01524*
X-00108Y-01527*
X-0011Y-0153*
X-00112Y-01533*
X-00113Y-01536*
X-00115Y-01539*
X-00116Y-01542*
X-00117Y-01546*
X-00117Y-01549*
X-00118Y-01553*
X-00118Y-01556*
X-00118Y-0156*
X-00117Y-01563*
X-00117Y-01567*
X-00116Y-0157*
X-00115Y-01573*
X-00113Y-01577*
X-00112Y-0158*
X-0011Y-01583*
X-00108Y-01586*
X-00106Y-01588*
X-00104Y-01591*
X-00101Y-01593*
X-00098Y-01596*
X-00096Y-01598*
X-00093Y-016*
X-0009Y-01601*
X-00086Y-01603*
X-00083Y-01604*
X-0008Y-01605*
X-00076Y-01605*
X-00073Y-01606*
X-00069Y-01606*
X-00066*
X-00062Y-01606*
X-00059Y-01605*
X-00056Y-01605*
X-00052Y-01604*
X-00049Y-01603*
X-00046Y-01601*
X-00043Y-016*
X-0004Y-01598*
X-00037Y-01596*
X-00034Y-01593*
X-00032Y-01591*
X-00029Y-01588*
X-00027Y-01586*
X-00025Y-01583*
X-00024Y-0158*
X-00022Y-01577*
X-00021Y-01573*
X-0002Y-0157*
X-00019Y-01567*
X-00018Y-01563*
X-00018Y-0156*
X-00018Y-01556*
X-00399Y-02373D02*
D01*
X-00399Y-02373*
X-00399Y-02372*
X-00399Y-02372*
X-00399Y-02372*
X-00399Y-02372*
X-00399Y-02371*
X-00399Y-02371*
X-00399Y-02371*
X-004Y-02371*
X-004Y-0237*
X-004Y-0237*
X-004Y-0237*
X-004Y-0237*
X-00401Y-0237*
X-00401Y-0237*
X-00401Y-02369*
X-00401Y-02369*
X-00402Y-02369*
X-00402Y-02369*
X-00402Y-02369*
X-00402Y-02369*
X-00403Y-02369*
X-00403Y-02369*
X-00465D02*
D01*
X-00465Y-02369*
X-00465Y-02369*
X-00465Y-02369*
X-00466Y-02369*
X-00466Y-02369*
X-00466Y-02369*
X-00466Y-02369*
X-00467Y-0237*
X-00467Y-0237*
X-00467Y-0237*
X-00467Y-0237*
X-00467Y-0237*
X-00468Y-02371*
X-00468Y-02371*
X-00468Y-02371*
X-00468Y-02371*
X-00468Y-02371*
X-00468Y-02372*
X-00468Y-02372*
X-00468Y-02372*
X-00468Y-02373*
X-00468Y-02373*
X-00468Y-02373*
X-00403Y-02389D02*
D01*
X-00402Y-02389*
X-00402Y-02389*
X-00402Y-02389*
X-00402Y-02389*
X-00401Y-02389*
X-00401Y-02389*
X-00401Y-02389*
X-00401Y-02389*
X-004Y-02388*
X-004Y-02388*
X-004Y-02388*
X-004Y-02388*
X-004Y-02388*
X-00399Y-02387*
X-00399Y-02387*
X-00399Y-02387*
X-00399Y-02387*
X-00399Y-02386*
X-00399Y-02386*
X-00399Y-02386*
X-00399Y-02386*
X-00399Y-02385*
X-00399Y-02385*
X-00468D02*
D01*
X-00468Y-02385*
X-00468Y-02386*
X-00468Y-02386*
X-00468Y-02386*
X-00468Y-02387*
X-00468Y-02387*
X-00468Y-02387*
X-00468Y-02387*
X-00468Y-02387*
X-00468Y-02388*
X-00467Y-02388*
X-00467Y-02388*
X-00467Y-02388*
X-00467Y-02388*
X-00467Y-02389*
X-00466Y-02389*
X-00466Y-02389*
X-00466Y-02389*
X-00465Y-02389*
X-00465Y-02389*
X-00465Y-02389*
X-00465Y-02389*
X-00465Y-02389*
X-00384Y-02379D02*
D01*
X-00384Y-02376*
X-00384Y-02372*
X-00385Y-02369*
X-00386Y-02365*
X-00387Y-02362*
X-00388Y-02359*
X-00389Y-02356*
X-00391Y-02353*
X-00393Y-0235*
X-00395Y-02347*
X-00398Y-02344*
X-004Y-02342*
X-00403Y-0234*
X-00406Y-02338*
X-00409Y-02336*
X-00412Y-02334*
X-00415Y-02333*
X-00418Y-02332*
X-00422Y-02331*
X-00425Y-0233*
X-00428Y-02329*
X-00432Y-02329*
X-00435*
X-00439Y-02329*
X-00442Y-0233*
X-00446Y-02331*
X-00449Y-02332*
X-00452Y-02333*
X-00456Y-02334*
X-00459Y-02336*
X-00462Y-02338*
X-00464Y-0234*
X-00467Y-02342*
X-0047Y-02344*
X-00472Y-02347*
X-00474Y-0235*
X-00476Y-02353*
X-00478Y-02356*
X-00479Y-02359*
X-00481Y-02362*
X-00482Y-02365*
X-00483Y-02369*
X-00483Y-02372*
X-00484Y-02376*
X-00484Y-02379*
X-00484Y-02383*
X-00483Y-02386*
X-00483Y-02389*
X-00482Y-02393*
X-00481Y-02396*
X-00479Y-02399*
X-00478Y-02403*
X-00476Y-02406*
X-00474Y-02408*
X-00472Y-02411*
X-0047Y-02414*
X-00467Y-02416*
X-00464Y-02418*
X-00462Y-02421*
X-00459Y-02422*
X-00456Y-02424*
X-00452Y-02425*
X-00449Y-02427*
X-00446Y-02428*
X-00442Y-02428*
X-00439Y-02429*
X-00435Y-02429*
X-00432*
X-00428Y-02429*
X-00425Y-02428*
X-00422Y-02428*
X-00418Y-02427*
X-00415Y-02425*
X-00412Y-02424*
X-00409Y-02422*
X-00406Y-02421*
X-00403Y-02418*
X-004Y-02416*
X-00398Y-02414*
X-00395Y-02411*
X-00393Y-02408*
X-00391Y-02406*
X-00389Y-02403*
X-00388Y-02399*
X-00387Y-02396*
X-00386Y-02393*
X-00385Y-02389*
X-00384Y-02386*
X-00384Y-02383*
X-00384Y-02379*
X-0004Y-02671D02*
D01*
X-0004Y-0267*
X-0004Y-0267*
X-0004Y-0267*
X-0004Y-02669*
X-0004Y-02669*
X-0004Y-02669*
X-0004Y-02669*
X-00041Y-02668*
X-00041Y-02668*
X-00041Y-02668*
X-00041Y-02668*
X-00041Y-02668*
X-00041Y-02667*
X-00042Y-02667*
X-00042Y-02667*
X-00042Y-02667*
X-00042Y-02667*
X-00043Y-02667*
X-00043Y-02667*
X-00043Y-02667*
X-00043Y-02667*
X-00044Y-02667*
X-00044Y-02667*
X-00106D02*
D01*
X-00106Y-02667*
X-00106Y-02667*
X-00107Y-02667*
X-00107Y-02667*
X-00107Y-02667*
X-00107Y-02667*
X-00108Y-02667*
X-00108Y-02667*
X-00108Y-02667*
X-00108Y-02668*
X-00108Y-02668*
X-00109Y-02668*
X-00109Y-02668*
X-00109Y-02668*
X-00109Y-02669*
X-00109Y-02669*
X-00109Y-02669*
X-00109Y-02669*
X-0011Y-0267*
X-0011Y-0267*
X-0011Y-0267*
X-0011Y-0267*
X-0011Y-02671*
X-00044Y-02687D02*
D01*
X-00044Y-02687*
X-00043Y-02687*
X-00043Y-02687*
X-00043Y-02687*
X-00043Y-02686*
X-00042Y-02686*
X-00042Y-02686*
X-00042Y-02686*
X-00042Y-02686*
X-00041Y-02686*
X-00041Y-02686*
X-00041Y-02685*
X-00041Y-02685*
X-00041Y-02685*
X-0004Y-02685*
X-0004Y-02684*
X-0004Y-02684*
X-0004Y-02684*
X-0004Y-02684*
X-0004Y-02683*
X-0004Y-02683*
X-0004Y-02683*
X-0004Y-02683*
X-0011D02*
D01*
X-0011Y-02683*
X-0011Y-02683*
X-0011Y-02684*
X-0011Y-02684*
X-00109Y-02684*
X-00109Y-02684*
X-00109Y-02685*
X-00109Y-02685*
X-00109Y-02685*
X-00109Y-02685*
X-00109Y-02686*
X-00108Y-02686*
X-00108Y-02686*
X-00108Y-02686*
X-00108Y-02686*
X-00107Y-02686*
X-00107Y-02686*
X-00107Y-02687*
X-00107Y-02687*
X-00106Y-02687*
X-00106Y-02687*
X-00106Y-02687*
X-00106Y-02687*
X-00025Y-02677D02*
D01*
X-00025Y-02673*
X-00025Y-0267*
X-00026Y-02666*
X-00027Y-02663*
X-00028Y-0266*
X-00029Y-02656*
X-00031Y-02653*
X-00032Y-0265*
X-00034Y-02647*
X-00037Y-02645*
X-00039Y-02642*
X-00041Y-0264*
X-00044Y-02637*
X-00047Y-02635*
X-0005Y-02633*
X-00053Y-02632*
X-00056Y-0263*
X-00059Y-02629*
X-00063Y-02628*
X-00066Y-02627*
X-0007Y-02627*
X-00073Y-02627*
X-00077*
X-0008Y-02627*
X-00083Y-02627*
X-00087Y-02628*
X-0009Y-02629*
X-00094Y-0263*
X-00097Y-02632*
X-001Y-02633*
X-00103Y-02635*
X-00106Y-02637*
X-00108Y-0264*
X-00111Y-02642*
X-00113Y-02645*
X-00115Y-02647*
X-00117Y-0265*
X-00119Y-02653*
X-0012Y-02656*
X-00122Y-0266*
X-00123Y-02663*
X-00124Y-02666*
X-00124Y-0267*
X-00125Y-02673*
X-00125Y-02677*
X-00125Y-0268*
X-00124Y-02684*
X-00124Y-02687*
X-00123Y-0269*
X-00122Y-02694*
X-0012Y-02697*
X-00119Y-027*
X-00117Y-02703*
X-00115Y-02706*
X-00113Y-02709*
X-00111Y-02711*
X-00108Y-02714*
X-00106Y-02716*
X-00103Y-02718*
X-001Y-0272*
X-00097Y-02722*
X-00094Y-02723*
X-0009Y-02724*
X-00087Y-02725*
X-00083Y-02726*
X-0008Y-02726*
X-00077Y-02727*
X-00073*
X-0007Y-02726*
X-00066Y-02726*
X-00063Y-02725*
X-00059Y-02724*
X-00056Y-02723*
X-00053Y-02722*
X-0005Y-0272*
X-00047Y-02718*
X-00044Y-02716*
X-00041Y-02714*
X-00039Y-02711*
X-00037Y-02709*
X-00034Y-02706*
X-00032Y-02703*
X-00031Y-027*
X-00029Y-02697*
X-00028Y-02694*
X-00027Y-0269*
X-00026Y-02687*
X-00025Y-02684*
X-00025Y-0268*
X-00025Y-02677*
X-00549Y-01588D02*
D01*
X-00549Y-01588*
X-00549Y-01587*
X-00549Y-01587*
X-00549Y-01587*
X-00549Y-01587*
X-00549Y-01586*
X-00549Y-01586*
X-0055Y-01586*
X-0055Y-01586*
X-0055Y-01585*
X-0055Y-01585*
X-0055Y-01585*
X-00551Y-01585*
X-00551Y-01585*
X-00551Y-01584*
X-00551Y-01584*
X-00551Y-01584*
X-00552Y-01584*
X-00552Y-01584*
X-00552Y-01584*
X-00553Y-01584*
X-00553Y-01584*
X-00553Y-01584*
X-00615D02*
D01*
X-00615Y-01584*
X-00615Y-01584*
X-00616Y-01584*
X-00616Y-01584*
X-00616Y-01584*
X-00616Y-01584*
X-00617Y-01584*
X-00617Y-01585*
X-00617Y-01585*
X-00617Y-01585*
X-00618Y-01585*
X-00618Y-01585*
X-00618Y-01585*
X-00618Y-01586*
X-00618Y-01586*
X-00618Y-01586*
X-00618Y-01586*
X-00619Y-01587*
X-00619Y-01587*
X-00619Y-01587*
X-00619Y-01587*
X-00619Y-01588*
X-00619Y-01588*
X-00553Y-01604D02*
D01*
X-00553Y-01604*
X-00552Y-01604*
X-00552Y-01604*
X-00552Y-01604*
X-00552Y-01604*
X-00551Y-01604*
X-00551Y-01604*
X-00551Y-01603*
X-00551Y-01603*
X-0055Y-01603*
X-0055Y-01603*
X-0055Y-01603*
X-0055Y-01603*
X-0055Y-01602*
X-0055Y-01602*
X-00549Y-01602*
X-00549Y-01602*
X-00549Y-01601*
X-00549Y-01601*
X-00549Y-01601*
X-00549Y-01601*
X-00549Y-016*
X-00549Y-016*
X-00619D02*
D01*
X-00619Y-016*
X-00619Y-01601*
X-00619Y-01601*
X-00619Y-01601*
X-00618Y-01601*
X-00618Y-01602*
X-00618Y-01602*
X-00618Y-01602*
X-00618Y-01602*
X-00618Y-01603*
X-00618Y-01603*
X-00617Y-01603*
X-00617Y-01603*
X-00617Y-01603*
X-00617Y-01604*
X-00617Y-01604*
X-00616Y-01604*
X-00616Y-01604*
X-00616Y-01604*
X-00615Y-01604*
X-00615Y-01604*
X-00615Y-01604*
X-00615Y-01604*
X-00534Y-01594D02*
D01*
X-00534Y-01591*
X-00534Y-01587*
X-00535Y-01584*
X-00536Y-0158*
X-00537Y-01577*
X-00538Y-01574*
X-0054Y-01571*
X-00541Y-01567*
X-00543Y-01565*
X-00546Y-01562*
X-00548Y-01559*
X-0055Y-01557*
X-00553Y-01555*
X-00556Y-01553*
X-00559Y-01551*
X-00562Y-01549*
X-00565Y-01548*
X-00568Y-01546*
X-00572Y-01545*
X-00575Y-01545*
X-00579Y-01544*
X-00582Y-01544*
X-00586*
X-00589Y-01544*
X-00593Y-01545*
X-00596Y-01545*
X-00599Y-01546*
X-00603Y-01548*
X-00606Y-01549*
X-00609Y-01551*
X-00612Y-01553*
X-00615Y-01555*
X-00617Y-01557*
X-0062Y-01559*
X-00622Y-01562*
X-00624Y-01565*
X-00626Y-01567*
X-00628Y-01571*
X-0063Y-01574*
X-00631Y-01577*
X-00632Y-0158*
X-00633Y-01584*
X-00633Y-01587*
X-00634Y-01591*
X-00634Y-01594*
X-00634Y-01597*
X-00633Y-01601*
X-00633Y-01604*
X-00632Y-01608*
X-00631Y-01611*
X-0063Y-01614*
X-00628Y-01617*
X-00626Y-0162*
X-00624Y-01623*
X-00622Y-01626*
X-0062Y-01629*
X-00617Y-01631*
X-00615Y-01633*
X-00612Y-01635*
X-00609Y-01637*
X-00606Y-01639*
X-00603Y-0164*
X-00599Y-01642*
X-00596Y-01643*
X-00593Y-01643*
X-00589Y-01644*
X-00586Y-01644*
X-00582*
X-00579Y-01644*
X-00575Y-01643*
X-00572Y-01643*
X-00568Y-01642*
X-00565Y-0164*
X-00562Y-01639*
X-00559Y-01637*
X-00556Y-01635*
X-00553Y-01633*
X-0055Y-01631*
X-00548Y-01629*
X-00546Y-01626*
X-00543Y-01623*
X-00541Y-0162*
X-0054Y-01617*
X-00538Y-01614*
X-00537Y-01611*
X-00536Y-01608*
X-00535Y-01604*
X-00534Y-01601*
X-00534Y-01597*
X-00534Y-01594*
X-01071Y-01283D02*
D01*
X-01071Y-01283*
X-01071Y-01282*
X-01071Y-01282*
X-01071Y-01282*
X-01071Y-01282*
X-01071Y-01281*
X-01071Y-01281*
X-01071Y-01281*
X-01071Y-01281*
X-01072Y-0128*
X-01072Y-0128*
X-01072Y-0128*
X-01072Y-0128*
X-01072Y-0128*
X-01073Y-0128*
X-01073Y-01279*
X-01073Y-01279*
X-01073Y-01279*
X-01074Y-01279*
X-01074Y-01279*
X-01074Y-01279*
X-01074Y-01279*
X-01075Y-01279*
X-01136D02*
D01*
X-01137Y-01279*
X-01137Y-01279*
X-01137Y-01279*
X-01138Y-01279*
X-01138Y-01279*
X-01138Y-01279*
X-01138Y-01279*
X-01139Y-0128*
X-01139Y-0128*
X-01139Y-0128*
X-01139Y-0128*
X-01139Y-0128*
X-0114Y-01281*
X-0114Y-01281*
X-0114Y-01281*
X-0114Y-01281*
X-0114Y-01281*
X-0114Y-01282*
X-0114Y-01282*
X-0114Y-01282*
X-0114Y-01283*
X-0114Y-01283*
X-0114Y-01283*
X-01075Y-01299D02*
D01*
X-01074Y-01299*
X-01074Y-01299*
X-01074Y-01299*
X-01074Y-01299*
X-01073Y-01299*
X-01073Y-01299*
X-01073Y-01299*
X-01073Y-01298*
X-01072Y-01298*
X-01072Y-01298*
X-01072Y-01298*
X-01072Y-01298*
X-01072Y-01298*
X-01071Y-01297*
X-01071Y-01297*
X-01071Y-01297*
X-01071Y-01297*
X-01071Y-01296*
X-01071Y-01296*
X-01071Y-01296*
X-01071Y-01296*
X-01071Y-01295*
X-01071Y-01295*
X-0114D02*
D01*
X-0114Y-01295*
X-0114Y-01296*
X-0114Y-01296*
X-0114Y-01296*
X-0114Y-01296*
X-0114Y-01297*
X-0114Y-01297*
X-0114Y-01297*
X-0114Y-01297*
X-01139Y-01298*
X-01139Y-01298*
X-01139Y-01298*
X-01139Y-01298*
X-01139Y-01298*
X-01138Y-01299*
X-01138Y-01299*
X-01138Y-01299*
X-01138Y-01299*
X-01137Y-01299*
X-01137Y-01299*
X-01137Y-01299*
X-01137Y-01299*
X-01136Y-01299*
X-01056Y-01289D02*
D01*
X-01056Y-01286*
X-01056Y-01282*
X-01057Y-01279*
X-01057Y-01275*
X-01059Y-01272*
X-0106Y-01269*
X-01061Y-01266*
X-01063Y-01263*
X-01065Y-0126*
X-01067Y-01257*
X-0107Y-01254*
X-01072Y-01252*
X-01075Y-0125*
X-01078Y-01248*
X-01081Y-01246*
X-01084Y-01244*
X-01087Y-01243*
X-0109Y-01241*
X-01093Y-01241*
X-01097Y-0124*
X-011Y-01239*
X-01104Y-01239*
X-01107*
X-01111Y-01239*
X-01114Y-0124*
X-01118Y-01241*
X-01121Y-01241*
X-01124Y-01243*
X-01127Y-01244*
X-01131Y-01246*
X-01133Y-01248*
X-01136Y-0125*
X-01139Y-01252*
X-01141Y-01254*
X-01144Y-01257*
X-01146Y-0126*
X-01148Y-01263*
X-0115Y-01266*
X-01151Y-01269*
X-01153Y-01272*
X-01154Y-01275*
X-01154Y-01279*
X-01155Y-01282*
X-01155Y-01286*
X-01156Y-01289*
X-01155Y-01293*
X-01155Y-01296*
X-01154Y-01299*
X-01154Y-01303*
X-01153Y-01306*
X-01151Y-01309*
X-0115Y-01313*
X-01148Y-01316*
X-01146Y-01318*
X-01144Y-01321*
X-01141Y-01324*
X-01139Y-01326*
X-01136Y-01328*
X-01133Y-0133*
X-01131Y-01332*
X-01127Y-01334*
X-01124Y-01335*
X-01121Y-01337*
X-01118Y-01338*
X-01114Y-01338*
X-01111Y-01339*
X-01107Y-01339*
X-01104*
X-011Y-01339*
X-01097Y-01338*
X-01093Y-01338*
X-0109Y-01337*
X-01087Y-01335*
X-01084Y-01334*
X-01081Y-01332*
X-01078Y-0133*
X-01075Y-01328*
X-01072Y-01326*
X-0107Y-01324*
X-01067Y-01321*
X-01065Y-01318*
X-01063Y-01316*
X-01061Y-01313*
X-0106Y-01309*
X-01059Y-01306*
X-01057Y-01303*
X-01057Y-01299*
X-01056Y-01296*
X-01056Y-01293*
X-01056Y-01289*
X-0004Y-01072D02*
D01*
X-0004Y-01072*
X-0004Y-01072*
X-0004Y-01071*
X-0004Y-01071*
X-0004Y-01071*
X-0004Y-01071*
X-0004Y-0107*
X-0004Y-0107*
X-0004Y-0107*
X-0004Y-0107*
X-00041Y-01069*
X-00041Y-01069*
X-00041Y-01069*
X-00041Y-01069*
X-00041Y-01069*
X-00042Y-01069*
X-00042Y-01068*
X-00042Y-01068*
X-00043Y-01068*
X-00043Y-01068*
X-00043Y-01068*
X-00043Y-01068*
X-00043Y-01068*
X-00105D02*
D01*
X-00106Y-01068*
X-00106Y-01068*
X-00106Y-01068*
X-00106Y-01068*
X-00107Y-01068*
X-00107Y-01069*
X-00107Y-01069*
X-00107Y-01069*
X-00108Y-01069*
X-00108Y-01069*
X-00108Y-01069*
X-00108Y-0107*
X-00108Y-0107*
X-00109Y-0107*
X-00109Y-0107*
X-00109Y-0107*
X-00109Y-01071*
X-00109Y-01071*
X-00109Y-01071*
X-00109Y-01071*
X-00109Y-01072*
X-00109Y-01072*
X-00109Y-01072*
X-00043Y-01088D02*
D01*
X-00043Y-01088*
X-00043Y-01088*
X-00043Y-01088*
X-00042Y-01088*
X-00042Y-01088*
X-00042Y-01088*
X-00042Y-01088*
X-00041Y-01088*
X-00041Y-01088*
X-00041Y-01087*
X-00041Y-01087*
X-00041Y-01087*
X-0004Y-01087*
X-0004Y-01087*
X-0004Y-01086*
X-0004Y-01086*
X-0004Y-01086*
X-0004Y-01086*
X-0004Y-01085*
X-0004Y-01085*
X-0004Y-01085*
X-0004Y-01084*
X-0004Y-01084*
X-00109D02*
D01*
X-00109Y-01085*
X-00109Y-01085*
X-00109Y-01085*
X-00109Y-01085*
X-00109Y-01086*
X-00109Y-01086*
X-00109Y-01086*
X-00109Y-01086*
X-00108Y-01087*
X-00108Y-01087*
X-00108Y-01087*
X-00108Y-01087*
X-00108Y-01087*
X-00107Y-01088*
X-00107Y-01088*
X-00107Y-01088*
X-00107Y-01088*
X-00106Y-01088*
X-00106Y-01088*
X-00106Y-01088*
X-00106Y-01088*
X-00105Y-01088*
X-00105Y-01088*
X-00024Y-01078D02*
D01*
X-00024Y-01075*
X-00025Y-01071*
X-00025Y-01068*
X-00026Y-01064*
X-00027Y-01061*
X-00029Y-01058*
X-0003Y-01055*
X-00032Y-01052*
X-00034Y-01049*
X-00036Y-01046*
X-00038Y-01044*
X-00041Y-01041*
X-00044Y-01039*
X-00046Y-01037*
X-00049Y-01035*
X-00052Y-01033*
X-00056Y-01032*
X-00059Y-01031*
X-00062Y-0103*
X-00066Y-01029*
X-00069Y-01029*
X-00073Y-01028*
X-00076*
X-0008Y-01029*
X-00083Y-01029*
X-00086Y-0103*
X-0009Y-01031*
X-00093Y-01032*
X-00096Y-01033*
X-00099Y-01035*
X-00102Y-01037*
X-00105Y-01039*
X-00108Y-01041*
X-0011Y-01044*
X-00113Y-01046*
X-00115Y-01049*
X-00117Y-01052*
X-00119Y-01055*
X-0012Y-01058*
X-00121Y-01061*
X-00122Y-01064*
X-00123Y-01068*
X-00124Y-01071*
X-00124Y-01075*
X-00124Y-01078*
X-00124Y-01082*
X-00124Y-01085*
X-00123Y-01089*
X-00122Y-01092*
X-00121Y-01095*
X-0012Y-01099*
X-00119Y-01102*
X-00117Y-01105*
X-00115Y-01108*
X-00113Y-0111*
X-0011Y-01113*
X-00108Y-01115*
X-00105Y-01118*
X-00102Y-0112*
X-00099Y-01122*
X-00096Y-01123*
X-00093Y-01125*
X-0009Y-01126*
X-00086Y-01127*
X-00083Y-01127*
X-0008Y-01128*
X-00076Y-01128*
X-00073*
X-00069Y-01128*
X-00066Y-01127*
X-00062Y-01127*
X-00059Y-01126*
X-00056Y-01125*
X-00052Y-01123*
X-00049Y-01122*
X-00046Y-0112*
X-00044Y-01118*
X-00041Y-01115*
X-00038Y-01113*
X-00036Y-0111*
X-00034Y-01108*
X-00032Y-01105*
X-0003Y-01102*
X-00029Y-01099*
X-00027Y-01095*
X-00026Y-01092*
X-00025Y-01089*
X-00025Y-01085*
X-00024Y-01082*
X-00024Y-01078*
X-0012Y-009D02*
D01*
X-00121Y-009*
X-00121Y-009*
X-00121Y-009*
X-00122Y-009*
X-00122Y-009*
X-00122Y-009*
X-00122Y-009*
X-00123Y-009*
X-00123Y-00901*
X-00123Y-00901*
X-00123Y-00901*
X-00123Y-00901*
X-00124Y-00901*
X-00124Y-00902*
X-00124Y-00902*
X-00124Y-00902*
X-00124Y-00902*
X-00124Y-00902*
X-00124Y-00903*
X-00124Y-00903*
X-00124Y-00903*
X-00124Y-00904*
X-00124Y-00904*
X-00055D02*
D01*
X-00055Y-00903*
X-00055Y-00903*
X-00055Y-00903*
X-00055Y-00903*
X-00055Y-00902*
X-00055Y-00902*
X-00055Y-00902*
X-00055Y-00902*
X-00055Y-00901*
X-00056Y-00901*
X-00056Y-00901*
X-00056Y-00901*
X-00056Y-00901*
X-00056Y-009*
X-00057Y-009*
X-00057Y-009*
X-00057Y-009*
X-00057Y-009*
X-00058Y-009*
X-00058Y-009*
X-00058Y-009*
X-00059Y-009*
X-00059Y-009*
X-00124Y-00916D02*
D01*
X-00124Y-00916*
X-00124Y-00916*
X-00124Y-00917*
X-00124Y-00917*
X-00124Y-00917*
X-00124Y-00918*
X-00124Y-00918*
X-00124Y-00918*
X-00124Y-00918*
X-00124Y-00918*
X-00123Y-00919*
X-00123Y-00919*
X-00123Y-00919*
X-00123Y-00919*
X-00122Y-00919*
X-00122Y-00919*
X-00122Y-0092*
X-00122Y-0092*
X-00121Y-0092*
X-00121Y-0092*
X-00121Y-0092*
X-00121Y-0092*
X-0012Y-0092*
X-00059D02*
D01*
X-00058Y-0092*
X-00058Y-0092*
X-00058Y-0092*
X-00058Y-0092*
X-00057Y-0092*
X-00057Y-0092*
X-00057Y-00919*
X-00057Y-00919*
X-00056Y-00919*
X-00056Y-00919*
X-00056Y-00919*
X-00056Y-00919*
X-00056Y-00918*
X-00055Y-00918*
X-00055Y-00918*
X-00055Y-00918*
X-00055Y-00917*
X-00055Y-00917*
X-00055Y-00917*
X-00055Y-00917*
X-00055Y-00916*
X-00055Y-00916*
X-00055Y-00916*
X-0004Y-0091D02*
D01*
X-0004Y-00906*
X-0004Y-00903*
X-00041Y-00899*
X-00042Y-00896*
X-00043Y-00893*
X-00044Y-00889*
X-00045Y-00886*
X-00047Y-00883*
X-00049Y-0088*
X-00051Y-00878*
X-00054Y-00875*
X-00056Y-00873*
X-00059Y-0087*
X-00062Y-00868*
X-00065Y-00867*
X-00068Y-00865*
X-00071Y-00863*
X-00074Y-00862*
X-00077Y-00861*
X-00081Y-00861*
X-00084Y-0086*
X-00088Y-0086*
X-00091*
X-00095Y-0086*
X-00098Y-00861*
X-00102Y-00861*
X-00105Y-00862*
X-00108Y-00863*
X-00111Y-00865*
X-00115Y-00867*
X-00118Y-00868*
X-0012Y-0087*
X-00123Y-00873*
X-00126Y-00875*
X-00128Y-00878*
X-0013Y-0088*
X-00132Y-00883*
X-00134Y-00886*
X-00135Y-00889*
X-00137Y-00893*
X-00138Y-00896*
X-00138Y-00899*
X-00139Y-00903*
X-00139Y-00906*
X-0014Y-0091*
X-00139Y-00913*
X-00139Y-00917*
X-00138Y-0092*
X-00138Y-00924*
X-00137Y-00927*
X-00135Y-0093*
X-00134Y-00933*
X-00132Y-00936*
X-0013Y-00939*
X-00128Y-00942*
X-00126Y-00945*
X-00123Y-00947*
X-0012Y-00949*
X-00118Y-00951*
X-00115Y-00953*
X-00111Y-00955*
X-00108Y-00956*
X-00105Y-00957*
X-00102Y-00958*
X-00098Y-00959*
X-00095Y-0096*
X-00091Y-0096*
X-00088*
X-00084Y-0096*
X-00081Y-00959*
X-00077Y-00958*
X-00074Y-00957*
X-00071Y-00956*
X-00068Y-00955*
X-00065Y-00953*
X-00062Y-00951*
X-00059Y-00949*
X-00056Y-00947*
X-00054Y-00945*
X-00051Y-00942*
X-00049Y-00939*
X-00047Y-00936*
X-00045Y-00933*
X-00044Y-0093*
X-00043Y-00927*
X-00042Y-00924*
X-00041Y-0092*
X-0004Y-00917*
X-0004Y-00913*
X-0004Y-0091*
X-00428Y-03118D02*
D01*
X-00428Y-03117*
X-00428Y-03116*
X-00428Y-03116*
X-00428Y-03115*
X-00429Y-03115*
X-00429Y-03114*
X-00429Y-03114*
X-00429Y-03113*
X-0043Y-03113*
X-0043Y-03112*
X-0043Y-03112*
X-00431Y-03112*
X-00431Y-03111*
X-00432Y-03111*
X-00432Y-03111*
X-00433Y-0311*
X-00433Y-0311*
X-00434Y-0311*
X-00434Y-0311*
X-00435Y-0311*
X-00435Y-0311*
X-00436Y-0311*
X-00436*
X-00437Y-0311*
X-00437Y-0311*
X-00438Y-0311*
X-00438Y-0311*
X-00439Y-0311*
X-00439Y-0311*
X-0044Y-03111*
X-0044Y-03111*
X-00441Y-03111*
X-00441Y-03112*
X-00442Y-03112*
X-00442Y-03112*
X-00442Y-03113*
X-00443Y-03113*
X-00443Y-03114*
X-00443Y-03114*
X-00443Y-03115*
X-00444Y-03115*
X-00444Y-03116*
X-00444Y-03116*
X-00444Y-03117*
X-00444Y-03118*
Y-03055D02*
D01*
X-00444Y-03055*
X-00444Y-03056*
X-00444Y-03056*
X-00444Y-03057*
X-00443Y-03057*
X-00443Y-03058*
X-00443Y-03058*
X-00443Y-03059*
X-00442Y-03059*
X-00442Y-0306*
X-00442Y-0306*
X-00441Y-0306*
X-00441Y-03061*
X-0044Y-03061*
X-0044Y-03061*
X-00439Y-03062*
X-00439Y-03062*
X-00438Y-03062*
X-00438Y-03062*
X-00437Y-03062*
X-00437Y-03062*
X-00436Y-03062*
X-00436*
X-00435Y-03062*
X-00435Y-03062*
X-00434Y-03062*
X-00434Y-03062*
X-00433Y-03062*
X-00433Y-03062*
X-00432Y-03061*
X-00432Y-03061*
X-00431Y-03061*
X-00431Y-0306*
X-0043Y-0306*
X-0043Y-0306*
X-0043Y-03059*
X-00429Y-03059*
X-00429Y-03058*
X-00429Y-03058*
X-00429Y-03057*
X-00428Y-03057*
X-00428Y-03056*
X-00428Y-03056*
X-00428Y-03055*
X-00428Y-03055*
X-00481Y-03116D02*
D01*
X-00481Y-03115*
X-00482Y-03115*
X-00482Y-03114*
X-00482Y-03114*
X-00482Y-03113*
X-00482Y-03113*
X-00482Y-03112*
X-00483Y-03112*
X-00483Y-03111*
X-00483Y-03111*
X-00484Y-0311*
X-00484Y-0311*
X-00484Y-0311*
X-00485Y-03109*
X-00485Y-03109*
X-00486Y-03109*
X-00486Y-03109*
X-00487Y-03108*
X-00487Y-03108*
X-00488Y-03108*
X-00488Y-03108*
X-00489Y-03108*
X-0049*
X-0049Y-03108*
X-00491Y-03108*
X-00491Y-03108*
X-00492Y-03108*
X-00492Y-03109*
X-00493Y-03109*
X-00493Y-03109*
X-00494Y-03109*
X-00494Y-0311*
X-00495Y-0311*
X-00495Y-0311*
X-00495Y-03111*
X-00496Y-03111*
X-00496Y-03112*
X-00496Y-03112*
X-00496Y-03113*
X-00497Y-03113*
X-00497Y-03114*
X-00497Y-03114*
X-00497Y-03115*
X-00497Y-03115*
X-00497Y-03116*
Y-03053D02*
D01*
X-00497Y-03053*
X-00497Y-03054*
X-00497Y-03055*
X-00497Y-03055*
X-00497Y-03056*
X-00496Y-03056*
X-00496Y-03057*
X-00496Y-03057*
X-00496Y-03058*
X-00495Y-03058*
X-00495Y-03058*
X-00495Y-03059*
X-00494Y-03059*
X-00494Y-03059*
X-00493Y-0306*
X-00493Y-0306*
X-00492Y-0306*
X-00492Y-0306*
X-00491Y-03061*
X-00491Y-03061*
X-0049Y-03061*
X-0049Y-03061*
X-00489*
X-00488Y-03061*
X-00488Y-03061*
X-00487Y-03061*
X-00487Y-0306*
X-00486Y-0306*
X-00486Y-0306*
X-00485Y-0306*
X-00485Y-03059*
X-00484Y-03059*
X-00484Y-03059*
X-00484Y-03058*
X-00483Y-03058*
X-00483Y-03058*
X-00483Y-03057*
X-00482Y-03057*
X-00482Y-03056*
X-00482Y-03056*
X-00482Y-03055*
X-00482Y-03055*
X-00482Y-03054*
X-00481Y-03053*
X-00481Y-03053*
X-00535Y-03116D02*
D01*
X-00535Y-03115*
X-00535Y-03115*
X-00535Y-03114*
X-00535Y-03114*
X-00535Y-03113*
X-00535Y-03113*
X-00536Y-03112*
X-00536Y-03112*
X-00536Y-03111*
X-00537Y-03111*
X-00537Y-0311*
X-00537Y-0311*
X-00538Y-0311*
X-00538Y-03109*
X-00539Y-03109*
X-00539Y-03109*
X-0054Y-03109*
X-0054Y-03108*
X-00541Y-03108*
X-00541Y-03108*
X-00542Y-03108*
X-00542Y-03108*
X-00543*
X-00543Y-03108*
X-00544Y-03108*
X-00545Y-03108*
X-00545Y-03108*
X-00546Y-03109*
X-00546Y-03109*
X-00547Y-03109*
X-00547Y-03109*
X-00547Y-0311*
X-00548Y-0311*
X-00548Y-0311*
X-00549Y-03111*
X-00549Y-03111*
X-00549Y-03112*
X-0055Y-03112*
X-0055Y-03113*
X-0055Y-03113*
X-0055Y-03114*
X-0055Y-03114*
X-0055Y-03115*
X-00551Y-03115*
X-00551Y-03116*
Y-03053D02*
D01*
X-00551Y-03053*
X-0055Y-03054*
X-0055Y-03055*
X-0055Y-03055*
X-0055Y-03056*
X-0055Y-03056*
X-0055Y-03057*
X-00549Y-03057*
X-00549Y-03058*
X-00549Y-03058*
X-00548Y-03058*
X-00548Y-03059*
X-00547Y-03059*
X-00547Y-03059*
X-00547Y-0306*
X-00546Y-0306*
X-00546Y-0306*
X-00545Y-0306*
X-00545Y-03061*
X-00544Y-03061*
X-00543Y-03061*
X-00543Y-03061*
X-00542*
X-00542Y-03061*
X-00541Y-03061*
X-00541Y-03061*
X-0054Y-0306*
X-0054Y-0306*
X-00539Y-0306*
X-00539Y-0306*
X-00538Y-03059*
X-00538Y-03059*
X-00537Y-03059*
X-00537Y-03058*
X-00537Y-03058*
X-00536Y-03058*
X-00536Y-03057*
X-00536Y-03057*
X-00535Y-03056*
X-00535Y-03056*
X-00535Y-03055*
X-00535Y-03055*
X-00535Y-03054*
X-00535Y-03053*
X-00535Y-03053*
X-00574Y-00529D02*
D01*
X-00574Y-00529*
X-00573Y-00529*
X-00573Y-00529*
X-00572Y-00529*
X-00572Y-00529*
X-00571Y-00528*
X-00571Y-00528*
X-0057Y-00528*
X-0057Y-00527*
X-00569Y-00527*
X-00569Y-00527*
X-00568Y-00526*
X-00568Y-00526*
X-00568Y-00526*
X-00567Y-00525*
X-00567Y-00525*
X-00567Y-00524*
X-00567Y-00524*
X-00567Y-00523*
X-00566Y-00522*
X-00566Y-00522*
X-00566Y-00521*
Y-00521*
X-00566Y-0052*
X-00566Y-0052*
X-00567Y-00519*
X-00567Y-00519*
X-00567Y-00518*
X-00567Y-00518*
X-00567Y-00517*
X-00568Y-00517*
X-00568Y-00516*
X-00568Y-00516*
X-00569Y-00515*
X-00569Y-00515*
X-0057Y-00515*
X-0057Y-00514*
X-00571Y-00514*
X-00571Y-00514*
X-00572Y-00514*
X-00572Y-00514*
X-00573Y-00513*
X-00573Y-00513*
X-00574Y-00513*
X-00574Y-00513*
X-00511D02*
D01*
X-00512Y-00513*
X-00512Y-00513*
X-00513Y-00513*
X-00513Y-00514*
X-00514Y-00514*
X-00514Y-00514*
X-00515Y-00514*
X-00515Y-00514*
X-00516Y-00515*
X-00516Y-00515*
X-00517Y-00515*
X-00517Y-00516*
X-00517Y-00516*
X-00518Y-00517*
X-00518Y-00517*
X-00518Y-00518*
X-00519Y-00518*
X-00519Y-00519*
X-00519Y-00519*
X-00519Y-0052*
X-00519Y-0052*
X-00519Y-00521*
Y-00521*
X-00519Y-00522*
X-00519Y-00522*
X-00519Y-00523*
X-00519Y-00524*
X-00519Y-00524*
X-00518Y-00525*
X-00518Y-00525*
X-00518Y-00526*
X-00517Y-00526*
X-00517Y-00526*
X-00517Y-00527*
X-00516Y-00527*
X-00516Y-00527*
X-00515Y-00528*
X-00515Y-00528*
X-00514Y-00528*
X-00514Y-00529*
X-00513Y-00529*
X-00513Y-00529*
X-00512Y-00529*
X-00512Y-00529*
X-00511Y-00529*
X-00602Y-00157D02*
D01*
X-00602Y-00149*
X-00603Y-00142*
X-00604Y-00135*
X-00606Y-00127*
X-00608Y-0012*
X-00611Y-00113*
X-00614Y-00107*
X-00618Y-001*
X-00622Y-00094*
X-00627Y-00088*
X-00632Y-00083*
X-00637Y-00078*
X-00643Y-00073*
X-00649Y-00068*
X-00655Y-00065*
X-00662Y-00061*
X-00668Y-00058*
X-00675Y-00056*
X-00683Y-00053*
X-0069Y-00052*
X-00697Y-00051*
X-00705Y-0005*
X-00712*
X-00719Y-00051*
X-00727Y-00052*
X-00734Y-00053*
X-00741Y-00056*
X-00748Y-00058*
X-00755Y-00061*
X-00761Y-00065*
X-00768Y-00068*
X-00774Y-00073*
X-00779Y-00078*
X-00785Y-00083*
X-0079Y-00088*
X-00794Y-00094*
X-00798Y-001*
X-00802Y-00107*
X-00805Y-00113*
X-00808Y-0012*
X-00811Y-00127*
X-00812Y-00135*
X-00814Y-00142*
X-00814Y-00149*
X-00815Y-00157*
X-00814Y-00164*
X-00814Y-00171*
X-00812Y-00179*
X-00811Y-00186*
X-00808Y-00193*
X-00805Y-002*
X-00802Y-00207*
X-00798Y-00213*
X-00794Y-00219*
X-0079Y-00225*
X-00785Y-0023*
X-00779Y-00236*
X-00774Y-0024*
X-00768Y-00245*
X-00761Y-00249*
X-00755Y-00252*
X-00748Y-00255*
X-00741Y-00258*
X-00734Y-0026*
X-00727Y-00261*
X-00719Y-00262*
X-00712Y-00263*
X-00705*
X-00697Y-00262*
X-0069Y-00261*
X-00683Y-0026*
X-00675Y-00258*
X-00668Y-00255*
X-00662Y-00252*
X-00655Y-00249*
X-00649Y-00245*
X-00643Y-0024*
X-00637Y-00236*
X-00632Y-0023*
X-00627Y-00225*
X-00622Y-00219*
X-00618Y-00213*
X-00614Y-00207*
X-00611Y-002*
X-00608Y-00193*
X-00606Y-00186*
X-00604Y-00179*
X-00603Y-00171*
X-00602Y-00164*
X-00602Y-00157*
X-00138Y-03086D02*
D01*
X-00138Y-03079*
X-00139Y-03071*
X-0014Y-03064*
X-00142Y-03057*
X-00144Y-0305*
X-00147Y-03043*
X-0015Y-03036*
X-00154Y-0303*
X-00158Y-03024*
X-00163Y-03018*
X-00168Y-03012*
X-00173Y-03007*
X-00179Y-03002*
X-00185Y-02998*
X-00191Y-02994*
X-00198Y-0299*
X-00204Y-02987*
X-00211Y-02985*
X-00219Y-02983*
X-00226Y-02981*
X-00233Y-0298*
X-00241Y-0298*
X-00248*
X-00255Y-0298*
X-00263Y-02981*
X-0027Y-02983*
X-00277Y-02985*
X-00284Y-02987*
X-00291Y-0299*
X-00297Y-02994*
X-00304Y-02998*
X-0031Y-03002*
X-00315Y-03007*
X-00321Y-03012*
X-00326Y-03018*
X-0033Y-03024*
X-00334Y-0303*
X-00338Y-03036*
X-00341Y-03043*
X-00344Y-0305*
X-00346Y-03057*
X-00348Y-03064*
X-0035Y-03071*
X-0035Y-03079*
X-00351Y-03086*
X-0035Y-03093*
X-0035Y-03101*
X-00348Y-03108*
X-00346Y-03115*
X-00344Y-03122*
X-00341Y-03129*
X-00338Y-03136*
X-00334Y-03142*
X-0033Y-03149*
X-00326Y-03154*
X-00321Y-0316*
X-00315Y-03165*
X-0031Y-0317*
X-00304Y-03174*
X-00297Y-03178*
X-00291Y-03182*
X-00284Y-03185*
X-00277Y-03187*
X-0027Y-03189*
X-00263Y-03191*
X-00255Y-03192*
X-00248Y-03192*
X-00241*
X-00233Y-03192*
X-00226Y-03191*
X-00219Y-03189*
X-00211Y-03187*
X-00204Y-03185*
X-00198Y-03182*
X-00191Y-03178*
X-00185Y-03174*
X-00179Y-0317*
X-00173Y-03165*
X-00168Y-0316*
X-00163Y-03154*
X-00158Y-03149*
X-00154Y-03142*
X-0015Y-03136*
X-00147Y-03129*
X-00144Y-03122*
X-00142Y-03115*
X-0014Y-03108*
X-00139Y-03101*
X-00138Y-03093*
X-00138Y-03086*
X-00641Y-00578D02*
Y-00515D01*
X-00607Y-00578D02*
Y-00515D01*
X-0064Y-00515D02*
X-00608D01*
X-00641Y-00526D02*
X-00607D01*
X-00641Y-00567D02*
X-00607D01*
X-0064Y-00578D02*
X-00608D01*
X-00528Y-00882D02*
Y-00874D01*
Y-00859D02*
Y-00851D01*
X-00465Y-00882D02*
Y-00874D01*
Y-00859D02*
Y-00851D01*
X-00515Y-00882D02*
Y-00851D01*
X-00516Y-00882D02*
Y-00851D01*
X-00478Y-00882D02*
Y-00851D01*
X-00477Y-00882D02*
Y-00851D01*
X-00528Y-00882D02*
X-00465D01*
X-00528Y-00851D02*
X-00465D01*
X-00582Y-00808D02*
X-0055D01*
X-00582Y-00777D02*
X-0055D01*
X-00597Y-00777D02*
X-00582D01*
Y-00808D02*
Y-00777D01*
X-00597Y-00808D02*
X-00582D01*
X-00597D02*
Y-00777D01*
X-0055D02*
X-00534D01*
X-0055Y-00808D02*
Y-00777D01*
Y-00808D02*
X-00534D01*
Y-00777*
X-00108Y-00066D02*
X-00038D01*
X-00108Y-00079D02*
X-00038D01*
X-00104Y-00062D02*
X-00042D01*
X-00104Y-00083D02*
X-00042D01*
X-00038Y-00079D02*
Y-00066D01*
X-00108Y-00079D02*
Y-00066D01*
X-01117Y-01135D02*
X-01047D01*
X-01117Y-01147D02*
X-01047D01*
X-01113Y-01131D02*
X-01051D01*
X-01113Y-01151D02*
X-01051D01*
X-01047Y-01147D02*
Y-01135D01*
X-01117Y-01147D02*
Y-01135D01*
X-00098Y-00496D02*
X-00029D01*
X-00098Y-00508D02*
X-00029D01*
X-00094Y-00492D02*
X-00033D01*
X-00094Y-00512D02*
X-00033D01*
X-00029Y-00508D02*
Y-00496D01*
X-00098Y-00508D02*
Y-00496D01*
X-01317Y-01017D02*
X-01247D01*
X-01317Y-0103D02*
X-01247D01*
X-01313Y-01014D02*
X-01251D01*
X-01313Y-01034D02*
X-01251D01*
X-01247Y-0103D02*
Y-01017D01*
X-01317Y-0103D02*
Y-01017D01*
X-01103Y-00268D02*
X-01034D01*
X-01103Y-00281D02*
X-01034D01*
X-01099Y-00264D02*
X-01038D01*
X-01099Y-00285D02*
X-01038D01*
X-01034Y-00281D02*
Y-00268D01*
X-01103Y-00281D02*
Y-00268D01*
X-00776Y-0243D02*
X-00707D01*
X-00776Y-02442D02*
X-00707D01*
X-00772Y-02426D02*
X-0071D01*
X-00772Y-02446D02*
X-0071D01*
X-00707Y-02442D02*
Y-0243D01*
X-00776Y-02442D02*
Y-0243D01*
X-00928Y-02809D02*
X-00858D01*
X-00928Y-02822D02*
X-00858D01*
X-00924Y-02805D02*
X-00862D01*
X-00924Y-02826D02*
X-00862D01*
X-00858Y-02822D02*
Y-02809D01*
X-00928Y-02822D02*
Y-02809D01*
X-00063Y-01879D02*
Y-01809D01*
X-00075Y-01879D02*
Y-01809D01*
X-00059Y-01875D02*
Y-01813D01*
X-00079Y-01875D02*
Y-01813D01*
X-00075Y-01879D02*
X-00063D01*
X-00075Y-01809D02*
X-00063D01*
X-00689Y-01132D02*
X-00627D01*
X-00689Y-01166D02*
X-00627D01*
X-00689Y-01165D02*
Y-01133D01*
X-00678Y-01166D02*
Y-01132D01*
X-00638Y-01166D02*
Y-01132D01*
X-00626Y-01165D02*
Y-01133D01*
X-00628Y-01195D02*
X-00623Y-0119D01*
X-00628Y-013D02*
Y-01195D01*
Y-013D02*
X-00623Y-01305D01*
Y-0119*
X-00682Y-01195D02*
X-00628D01*
X-00682Y-013D02*
Y-01195D01*
Y-013D02*
X-00628D01*
X-00686Y-01305D02*
X-00682Y-013D01*
X-00686Y-0119D02*
X-00682Y-01195D01*
X-00686Y-01305D02*
Y-0119D01*
Y-01305D02*
X-00623D01*
X-00686Y-0119D02*
X-00623D01*
Y-01275D02*
X-00596D01*
X-00623Y-01295D02*
X-00596D01*
X-00714D02*
X-00686D01*
X-00714Y-01275D02*
X-00686D01*
X-00714Y-01257D02*
X-00686D01*
X-00714Y-01238D02*
X-00686D01*
X-00714Y-012D02*
X-00686D01*
X-00714Y-0122D02*
X-00686D01*
X-00623Y-01257D02*
X-00596D01*
X-00623Y-01238D02*
X-00596D01*
X-00616Y-01295D02*
Y-01275D01*
X-00694Y-01295D02*
Y-01275D01*
X-00623Y-0122D02*
X-00596D01*
X-00623Y-012D02*
X-00596D01*
X-00694Y-01257D02*
Y-01238D01*
X-00616Y-01257D02*
Y-01238D01*
X-00694Y-0122D02*
Y-012D01*
X-00616Y-0122D02*
Y-012D01*
X-00612Y-01295D02*
Y-01275D01*
Y-0122D02*
Y-012D01*
Y-01257D02*
Y-01238D01*
X-00698Y-01295D02*
Y-01275D01*
Y-0122D02*
Y-012D01*
Y-01257D02*
Y-01238D01*
X-00701Y-01295D02*
Y-01275D01*
Y-01257D02*
Y-01238D01*
Y-0122D02*
Y-012D01*
X-00609Y-01295D02*
Y-01275D01*
Y-01257D02*
Y-01238D01*
Y-0122D02*
Y-012D01*
X-00596Y-01295D02*
Y-01275D01*
Y-01257D02*
Y-01238D01*
X-00714Y-01295D02*
Y-01275D01*
X-00596Y-0122D02*
Y-012D01*
X-00714Y-01257D02*
Y-01238D01*
Y-0122D02*
Y-012D01*
X-00667Y-01231D02*
X-00635D01*
X-00667Y-01261D02*
X-00635D01*
Y-01262D02*
X-0062D01*
X-00635D02*
Y-0123D01*
X-0062*
Y-01262D02*
Y-0123D01*
X-00683Y-01262D02*
X-00667D01*
Y-0123*
X-00683D02*
X-00667D01*
X-00683Y-01262D02*
Y-0123D01*
X-00979Y-01333D02*
Y-01302D01*
X-00949Y-01333D02*
Y-01302D01*
X-00948Y-01349D02*
Y-01333D01*
X-0098D02*
X-00948D01*
X-0098Y-01349D02*
Y-01333D01*
Y-01349D02*
X-00948D01*
Y-01302D02*
Y-01286D01*
X-0098Y-01302D02*
X-00948D01*
X-0098D02*
Y-01286D01*
X-00948*
X-00541Y-00746D02*
X-00521D01*
X-00615D02*
X-00596D01*
X-00578Y-00628D02*
X-00558D01*
X-00541D02*
X-00521D01*
X-00615D02*
X-00596D01*
X-00578Y-00641D02*
X-00558D01*
X-00615D02*
X-00596D01*
X-00541D02*
X-00521D01*
X-00615Y-00733D02*
X-00596D01*
X-00541D02*
X-00521D01*
X-00615Y-0073D02*
X-00596D01*
X-00541D02*
X-00521D01*
X-00578Y-00644D02*
X-00558D01*
X-00541D02*
X-00521D01*
X-00615D02*
X-00596D01*
X-00541Y-00726D02*
X-00521D01*
X-00541Y-00655D02*
Y-00628D01*
X-00521Y-00655D02*
Y-00628D01*
X-00541Y-00648D02*
X-00521D01*
X-00596Y-00655D02*
Y-00628D01*
X-00615Y-00648D02*
X-00596D01*
X-00615Y-00655D02*
Y-00628D01*
X-00521Y-00746D02*
Y-00718D01*
X-00541Y-00746D02*
Y-00718D01*
X-00615Y-00726D02*
X-00596D01*
Y-00746D02*
Y-00718D01*
X-00615Y-00746D02*
Y-00718D01*
X-00578Y-00648D02*
X-00558D01*
X-00578Y-00655D02*
Y-00628D01*
X-00558Y-00655D02*
Y-00628D01*
X-00511Y-00718D02*
Y-00655D01*
X-00515Y-00714D02*
Y-00659D01*
X-00625Y-00718D02*
X-00511D01*
X-00515Y-00714D02*
X-00511Y-00718D01*
X-00621Y-00714D02*
X-00515D01*
X-00625Y-00718D02*
Y-00655D01*
Y-00718D02*
X-00621Y-00714D01*
Y-00659*
X-00625Y-00655D02*
X-00511D01*
X-00625D02*
X-00621Y-00659D01*
X-00515*
X-00511Y-00655*
X-00596Y-01779D02*
Y-0176D01*
Y-01817D02*
Y-01797D01*
X-00714Y-01779D02*
Y-0176D01*
X-00596Y-01854D02*
Y-01835D01*
X-00714Y-01817D02*
Y-01797D01*
Y-01854D02*
Y-01835D01*
X-00701Y-01779D02*
Y-0176D01*
Y-01817D02*
Y-01797D01*
Y-01854D02*
Y-01835D01*
X-00609Y-01779D02*
Y-0176D01*
Y-01817D02*
Y-01797D01*
Y-01854D02*
Y-01835D01*
X-00612Y-01817D02*
Y-01797D01*
Y-01779D02*
Y-0176D01*
Y-01854D02*
Y-01835D01*
X-00698Y-01817D02*
Y-01797D01*
Y-01779D02*
Y-0176D01*
Y-01854D02*
Y-01835D01*
X-00694Y-01779D02*
Y-0176D01*
X-00616Y-01779D02*
Y-0176D01*
X-00694Y-01817D02*
Y-01797D01*
X-00616Y-01817D02*
Y-01797D01*
X-00714Y-0176D02*
X-00686D01*
X-00714Y-01779D02*
X-00686D01*
X-00616Y-01854D02*
Y-01835D01*
X-00694Y-01854D02*
Y-01835D01*
X-00714Y-01797D02*
X-00686D01*
X-00714Y-01817D02*
X-00686D01*
X-00623Y-01779D02*
X-00596D01*
X-00623Y-0176D02*
X-00596D01*
X-00623Y-01797D02*
X-00596D01*
X-00623Y-01817D02*
X-00596D01*
X-00623Y-01835D02*
X-00596D01*
X-00623Y-01854D02*
X-00596D01*
X-00714D02*
X-00686D01*
X-00714Y-01835D02*
X-00686D01*
Y-0175D02*
X-00623D01*
X-00686Y-01864D02*
X-00623D01*
Y-0175*
X-00628Y-01754D02*
X-00623Y-0175D01*
X-00628Y-0186D02*
X-00623Y-01864D01*
X-00682Y-0186D02*
X-00628D01*
Y-01754*
X-00682D02*
X-00628D01*
X-00686Y-01864D02*
Y-0175D01*
Y-01864D02*
X-00682Y-0186D01*
Y-01754*
X-00686Y-0175D02*
X-00682Y-01754D01*
X-00693Y-00712D02*
X-0066D01*
X-00693Y-007D02*
X-0066D01*
X-00693Y-0066D02*
X-0066D01*
X-00693Y-00649D02*
X-0066D01*
X-0066Y-00711D02*
Y-00649D01*
X-00693Y-00711D02*
Y-00649D01*
X-00465Y-00934D02*
Y-00901D01*
X-00476Y-00934D02*
Y-00901D01*
X-00517Y-00934D02*
Y-00901D01*
X-00528Y-00934D02*
Y-00901D01*
X-00528Y-00901D02*
X-00465D01*
X-00528Y-00934D02*
X-00465D01*
X-00084Y-01199D02*
X-00051D01*
X-00084Y-0121D02*
X-00051D01*
X-00084Y-0125D02*
X-00051D01*
X-00084Y-01262D02*
X-00051D01*
X-00051Y-01261D02*
Y-01199D01*
X-00084Y-01261D02*
Y-01199D01*
X-00452Y-03222D02*
X-0042D01*
X-00453Y-0321D02*
X-00419D01*
X-00453Y-0317D02*
X-00419D01*
X-00452Y-03159D02*
X-0042D01*
X-00419Y-03221D02*
Y-03159D01*
X-00453Y-03221D02*
Y-03159D01*
X-00506Y-03222D02*
X-00473D01*
X-00506Y-0321D02*
X-00473D01*
X-00506Y-0317D02*
X-00473D01*
X-00506Y-03159D02*
X-00473D01*
X-00473Y-03221D02*
Y-03159D01*
X-00506Y-03221D02*
Y-03159D01*
X-00559Y-03222D02*
X-00526D01*
X-00559Y-0321D02*
X-00526D01*
X-00559Y-0317D02*
X-00526D01*
X-00559Y-03159D02*
X-00526D01*
X-00526Y-03221D02*
Y-03159D01*
X-00559Y-03221D02*
Y-03159D01*
X-00622Y-01908D02*
Y-01875D01*
X-00634Y-01908D02*
Y-01874D01*
X-00674Y-01908D02*
Y-01874D01*
X-00685Y-01908D02*
Y-01875D01*
X-00685Y-01874D02*
X-00623D01*
X-00685Y-01908D02*
X-00623D01*
X-00617Y-01716D02*
Y-01684D01*
X-00629Y-01717D02*
Y-01683D01*
X-00669Y-01717D02*
Y-01683D01*
X-0068Y-01716D02*
Y-01684D01*
X-0068Y-01683D02*
X-00618D01*
X-0068Y-01717D02*
X-00618D01*
X-00465Y-00747D02*
X-00432D01*
X-00465Y-00758D02*
X-00432D01*
X-00465Y-00798D02*
X-00432D01*
X-00465Y-0081D02*
X-00432D01*
X-00465Y-00809D02*
Y-00747D01*
X-00432Y-00809D02*
Y-00747D01*
X-00813Y-0102D02*
X-00743D01*
X-00813Y-01032D02*
X-00743D01*
X-00809Y-01016D02*
X-00747D01*
X-00809Y-01036D02*
X-00747D01*
X-00743Y-01032D02*
Y-0102D01*
X-00813Y-01032D02*
Y-0102D01*
X-00577Y-01058D02*
X-00508D01*
X-00577Y-0107D02*
X-00508D01*
X-00573Y-01054D02*
X-00512D01*
X-00573Y-01074D02*
X-00512D01*
X-00508Y-0107D02*
Y-01058D01*
X-00577Y-0107D02*
Y-01058D01*
X-0059Y-02065D02*
X-00521D01*
X-0059Y-02077D02*
X-00521D01*
X-00586Y-02061D02*
X-00524D01*
X-00586Y-02081D02*
X-00524D01*
X-00521Y-02077D02*
Y-02065D01*
X-0059Y-02077D02*
Y-02065D01*
X-00773Y-02013D02*
X-00703D01*
X-00773Y-02025D02*
X-00703D01*
X-00769Y-02009D02*
X-00707D01*
X-00769Y-02029D02*
X-00707D01*
X-00703Y-02025D02*
Y-02013D01*
X-00773Y-02025D02*
Y-02013D01*
X-00102Y-0155D02*
X-00033D01*
X-00102Y-01562D02*
X-00033D01*
X-00099Y-01546D02*
X-00037D01*
X-00099Y-01566D02*
X-00037D01*
X-00033Y-01562D02*
Y-0155D01*
X-00102Y-01562D02*
Y-0155D01*
X-00468Y-02373D02*
X-00399D01*
X-00468Y-02385D02*
X-00399D01*
X-00465Y-02369D02*
X-00403D01*
X-00465Y-02389D02*
X-00403D01*
X-00399Y-02385D02*
Y-02373D01*
X-00468Y-02385D02*
Y-02373D01*
X-0011Y-02671D02*
X-0004D01*
X-0011Y-02683D02*
X-0004D01*
X-00106Y-02667D02*
X-00044D01*
X-00106Y-02687D02*
X-00044D01*
X-0004Y-02683D02*
Y-02671D01*
X-0011Y-02683D02*
Y-02671D01*
X-00619Y-01588D02*
X-00549D01*
X-00619Y-016D02*
X-00549D01*
X-00615Y-01584D02*
X-00553D01*
X-00615Y-01604D02*
X-00553D01*
X-00549Y-016D02*
Y-01588D01*
X-00619Y-016D02*
Y-01588D01*
X-0114Y-01283D02*
X-01071D01*
X-0114Y-01295D02*
X-01071D01*
X-01136Y-01279D02*
X-01075D01*
X-01136Y-01299D02*
X-01075D01*
X-01071Y-01295D02*
Y-01283D01*
X-0114Y-01295D02*
Y-01283D01*
X-00109Y-01072D02*
X-0004D01*
X-00109Y-01084D02*
X-0004D01*
X-00105Y-01068D02*
X-00043D01*
X-00105Y-01088D02*
X-00043D01*
X-0004Y-01084D02*
Y-01072D01*
X-00109Y-01084D02*
Y-01072D01*
X-00124Y-00904D02*
X-00055D01*
X-00124Y-00916D02*
X-00055D01*
X-0012Y-009D02*
X-00059D01*
X-0012Y-0092D02*
X-00059D01*
X-00124Y-00916D02*
Y-00904D01*
X-00055Y-00916D02*
Y-00904D01*
X-0042Y-03118D02*
Y-03055D01*
X-00452Y-03118D02*
Y-03055D01*
Y-03106D02*
X-0042D01*
X-00452Y-03105D02*
X-0042D01*
X-00452Y-03066D02*
X-0042D01*
X-00452Y-03068D02*
X-0042D01*
X-00428Y-03118D02*
X-0042D01*
X-00452D02*
X-00444D01*
X-00428Y-03055D02*
X-0042D01*
X-00452D02*
X-00444D01*
X-00474Y-03116D02*
Y-03053D01*
X-00505Y-03116D02*
Y-03053D01*
Y-03104D02*
X-00474D01*
X-00505Y-03103D02*
X-00474D01*
X-00505Y-03065D02*
X-00474D01*
X-00505Y-03066D02*
X-00474D01*
X-00481Y-03116D02*
X-00474D01*
X-00505D02*
X-00497D01*
X-00481Y-03053D02*
X-00474D01*
X-00505D02*
X-00497D01*
X-00527Y-03116D02*
Y-03053D01*
X-00558Y-03116D02*
Y-03053D01*
Y-03104D02*
X-00527D01*
X-00558Y-03103D02*
X-00527D01*
X-00558Y-03065D02*
X-00527D01*
X-00558Y-03066D02*
X-00527D01*
X-00535Y-03116D02*
X-00527D01*
X-00558D02*
X-00551D01*
X-00535Y-03053D02*
X-00527D01*
X-00558D02*
X-00551D01*
X-00574Y-00537D02*
X-00511D01*
X-00574Y-00505D02*
X-00511D01*
X-00562Y-00537D02*
Y-00505D01*
X-00561Y-00537D02*
Y-00505D01*
X-00523Y-00537D02*
Y-00505D01*
X-00524Y-00537D02*
Y-00505D01*
X-00574Y-00537D02*
Y-00529D01*
Y-00513D02*
Y-00505D01*
X-00511Y-00537D02*
Y-00529D01*
Y-00513D02*
Y-00505D01*
X-01412Y-01516D02*
X-01381D01*
Y-015*
X-01412D02*
X-01381D01*
X-01412Y-01516D02*
Y-015D01*
Y-01453D02*
X-01381D01*
Y-01469D02*
Y-01453D01*
X-01412Y-01469D02*
X-01381D01*
X-01412D02*
Y-01453D01*
X-01412Y-015D02*
Y-01469D01*
X-01381Y-015D02*
Y-01469D01*
X-00512Y-00589D02*
Y-00557D01*
X-00528Y-00589D02*
X-00512D01*
X-00528D02*
Y-00557D01*
X-00512*
X-00575Y-00589D02*
Y-00557D01*
Y-00589D02*
X-00559D01*
Y-00557*
X-00575D02*
X-00559D01*
Y-00558D02*
X-00528D01*
X-00559Y-00588D02*
X-00528D01*
X-00622Y-01823D02*
Y-01792D01*
X-00637D02*
X-00622D01*
X-00637Y-01823D02*
Y-01792D01*
Y-01823D02*
X-00622D01*
X-00685D02*
Y-01792D01*
X-00669*
Y-01823D02*
Y-01792D01*
X-00685Y-01823D02*
X-00669D01*
Y-01823D02*
X-00637D01*
X-00669Y-01792D02*
X-00637D01*
X-00754Y-0013D02*
X-00708Y-00103D01*
X-00754Y-00183D02*
X-00708Y-0021D01*
Y-00103D02*
X-00662Y-0013D01*
X-00708Y-0021D02*
X-00662Y-00183D01*
Y-0013*
X-00754Y-00183D02*
Y-0013D01*
X-0029Y-03113D02*
Y-03059D01*
X-00198Y-03113D02*
Y-03059D01*
X-00244Y-03139D02*
X-00198Y-03113D01*
X-00244Y-03033D02*
X-00198Y-03059D01*
X-0029Y-03113D02*
X-00244Y-03139D01*
X-0029Y-03059D02*
X-00244Y-03033D01*
M02*