%FSTAX23Y23*%
%MOIN*%
%SFA1B1*%

%IPPOS*%
%AMD14*
4,1,8,-0.011800,-0.015700,0.011800,-0.015700,0.019700,-0.007900,0.019700,0.007900,0.011800,0.015700,-0.011800,0.015700,-0.019700,0.007900,-0.019700,-0.007900,-0.011800,-0.015700,0.0*
1,1,0.015748,-0.011800,-0.007900*
1,1,0.015748,0.011800,-0.007900*
1,1,0.015748,0.011800,0.007900*
1,1,0.015748,-0.011800,0.007900*
%
%AMD15*
4,1,8,0.012600,0.015700,-0.012600,0.015700,-0.015700,0.012600,-0.015700,-0.012600,-0.012600,-0.015700,0.012600,-0.015700,0.015700,-0.012600,0.015700,0.012600,0.012600,0.015700,0.0*
1,1,0.006299,0.012600,0.012600*
1,1,0.006299,-0.012600,0.012600*
1,1,0.006299,-0.012600,-0.012600*
1,1,0.006299,0.012600,-0.012600*
%
%AMD16*
4,1,8,-0.015700,0.011800,-0.015700,-0.011800,-0.007900,-0.019700,0.007900,-0.019700,0.015700,-0.011800,0.015700,0.011800,0.007900,0.019700,-0.007900,0.019700,-0.015700,0.011800,0.0*
1,1,0.015748,-0.007900,0.011800*
1,1,0.015748,-0.007900,-0.011800*
1,1,0.015748,0.007900,-0.011800*
1,1,0.015748,0.007900,0.011800*
%
%AMD17*
4,1,8,0.008300,0.021700,-0.008300,0.021700,-0.011800,0.018100,-0.011800,-0.018100,-0.008300,-0.021700,0.008300,-0.021700,0.011800,-0.018100,0.011800,0.018100,0.008300,0.021700,0.0*
1,1,0.007087,0.008300,0.018100*
1,1,0.007087,-0.008300,0.018100*
1,1,0.007087,-0.008300,-0.018100*
1,1,0.007087,0.008300,-0.018100*
%
%AMD18*
4,1,8,-0.021700,0.008300,-0.021700,-0.008300,-0.018100,-0.011800,0.018100,-0.011800,0.021700,-0.008300,0.021700,0.008300,0.018100,0.011800,-0.018100,0.011800,-0.021700,0.008300,0.0*
1,1,0.007087,-0.018100,0.008300*
1,1,0.007087,-0.018100,-0.008300*
1,1,0.007087,0.018100,-0.008300*
1,1,0.007087,0.018100,0.008300*
%
%AMD19*
4,1,8,0.015700,-0.012600,0.015700,0.012600,0.012600,0.015700,-0.012600,0.015700,-0.015700,0.012600,-0.015700,-0.012600,-0.012600,-0.015700,0.012600,-0.015700,0.015700,-0.012600,0.0*
1,1,0.006299,0.012600,-0.012600*
1,1,0.006299,0.012600,0.012600*
1,1,0.006299,-0.012600,0.012600*
1,1,0.006299,-0.012600,-0.012600*
%
G04~CAMADD=14~8~0.0~0.0~393.7~315.0~78.7~0.0~15~0.0~0.0~0.0~0.0~0~0.0~0.0~0.0~0.0~0~0.0~0.0~0.0~180.0~394.0~315.0*
%ADD14D14*%
G04~CAMADD=15~8~0.0~0.0~315.0~315.0~31.5~0.0~15~0.0~0.0~0.0~0.0~0~0.0~0.0~0.0~0.0~0~0.0~0.0~0.0~0.0~315.0~315.0*
%ADD15D15*%
G04~CAMADD=16~8~0.0~0.0~393.7~315.0~78.7~0.0~15~0.0~0.0~0.0~0.0~0~0.0~0.0~0.0~0.0~0~0.0~0.0~0.0~90.0~316.0~393.0*
%ADD16D16*%
G04~CAMADD=17~8~0.0~0.0~236.2~433.1~35.4~0.0~15~0.0~0.0~0.0~0.0~0~0.0~0.0~0.0~0.0~0~0.0~0.0~0.0~0.0~236.2~433.1*
%ADD17D17*%
G04~CAMADD=18~8~0.0~0.0~236.2~433.1~35.4~0.0~15~0.0~0.0~0.0~0.0~0~0.0~0.0~0.0~0.0~0~0.0~0.0~0.0~90.0~434.0~237.0*
%ADD18D18*%
G04~CAMADD=19~8~0.0~0.0~315.0~315.0~31.5~0.0~15~0.0~0.0~0.0~0.0~0~0.0~0.0~0.0~0.0~0~0.0~0.0~0.0~270.0~314.0~314.0*
%ADD19D19*%
%ADD31C,0.013780*%
%ADD32C,0.019685*%
%ADD33C,0.070866*%
%ADD34C,0.060000*%
%ADD35C,0.196850*%
%ADD36C,0.188976*%
%ADD37C,0.023622*%
%LNmicrophonearray.main-1*%
%LPD*%
G36*
X-00147Y-00115D02*
X-0015Y-00132D01*
X-00275*
Y-00117*
X-00269Y-00113*
X-00261Y-00105*
X-00256Y-00095*
X-00253Y-00084*
Y-00072*
X-00256Y-00061*
X-00261Y-00051*
X-00269Y-00043*
X-00279Y-00037*
X-00291Y-00034*
X-00302*
X-00313Y-00037*
X-00323Y-00043*
X-00331Y-00051*
X-00337Y-00061*
X-0034Y-00072*
Y-00084*
X-00337Y-00095*
X-00331Y-00105*
X-00323Y-00113*
X-00317Y-00117*
Y-00132*
X-00385*
Y-00518*
X-00484Y-00617*
X-0049Y-00612*
X-00502*
X-00503Y-00607*
X-00496Y-00605*
X-00488Y-006*
X-00484Y-00593*
X-00482Y-00585*
Y-0058*
X-00512*
Y-00566*
X-00482*
Y-00561*
X-00484Y-00553*
X-00488Y-00546*
X-00485Y-0054*
X-00483Y-00534*
Y-00528*
X-00513*
Y-00521*
X-0052*
Y-00491*
X-00526*
X-00532Y-00493*
X-00538Y-00496*
X-00538Y-00497*
X-00543Y-00497*
X-00576Y-00465*
Y-0001*
X-00147*
Y-00115*
G37*
G36*
X-01533Y-0001D02*
X-01533Y-0001D01*
X-01533Y-0001*
X-00594*
X-0059Y-00015*
Y-00465*
X-00589Y-0047*
X-00586Y-00475*
X-00574Y-00487*
X-00576Y-00491*
X-00585*
X-00591Y-00493*
X-00592Y-00493*
X-00597Y-00492*
X-00597Y-00491*
X-00604Y-00487*
X-00612Y-00485*
X-00636*
X-00644Y-00487*
X-00651Y-00491*
X-00656Y-00499*
X-00658Y-00507*
Y-00523*
X-00656Y-00531*
X-00651Y-00538*
X-00644Y-00543*
X-00641Y-00544*
Y-00549*
X-00644Y-0055*
X-00651Y-00554*
X-00656Y-00562*
X-00658Y-0057*
Y-00579*
X-00663Y-00581*
X-00664Y-00581*
X-00669Y-00577*
X-00676Y-00576*
X-00683*
X-00689Y-00577*
X-00695Y-00581*
X-007Y-00585*
X-00703Y-00591*
X-00705Y-00598*
Y-00605*
X-00703Y-00611*
X-007Y-00617*
X-00699Y-00617*
X-007Y-00622*
X-00704Y-00625*
X-00709Y-00632*
X-0071Y-00641*
Y-00657*
X-00709Y-00665*
X-00704Y-00672*
X-00697Y-00677*
X-00693Y-00678*
Y-00683*
X-00697Y-00683*
X-00704Y-00688*
X-00709Y-00695*
X-0071Y-00704*
Y-00705*
X-00677*
X-00643*
Y-00704*
X-00644Y-00695*
X-00649Y-00688*
X-00656Y-00683*
X-0066Y-00683*
Y-00678*
X-00656Y-00677*
X-00649Y-00672*
X-00645Y-00666*
X-0063*
X-0063Y-00666*
X-00626Y-00672*
X-00621Y-00676*
X-00614Y-00677*
X-00597*
X-00591Y-00676*
X-00587Y-00673*
X-00583Y-00676*
X-00576Y-00677*
X-00575*
Y-00641*
X-00561*
Y-00677*
X-0056*
X-00553Y-00676*
X-00549Y-00673*
X-00546Y-00676*
X-00539Y-00677*
X-00522*
X-00516Y-00676*
X-0051Y-00672*
X-00506Y-00666*
X-00505Y-0066*
Y-0064*
X-00495Y-0063*
X-00493Y-00628*
X-0049Y-0063*
X-00484Y-00631*
X-00479Y-0063*
X-00474Y-00627*
X-00375Y-00528*
X-00372Y-00523*
X-00371Y-00518*
Y-00146*
X-00333*
X-00331Y-00151*
X-00331Y-00151*
X-00337Y-00161*
X-0034Y-00171*
X-00296*
X-00253*
X-00256Y-00161*
X-00261Y-00151*
X-00262Y-00151*
X-0026Y-00146*
X-00233*
X-00231Y-00151*
X-00231Y-00151*
X-00237Y-00161*
X-0024Y-00172*
Y-00184*
X-00237Y-00195*
X-00231Y-00205*
X-00223Y-00213*
X-00213Y-00219*
X-00202Y-00222*
X-00191*
X-00179Y-00219*
X-00169Y-00213*
X-00161Y-00205*
X-00156Y-00195*
X-00153Y-00184*
Y-00172*
X-00156Y-00161*
X-00161Y-00151*
X-00162Y-00151*
X-0016Y-00146*
X-0015*
X-00149Y-00146*
X-00148Y-00146*
X-00146Y-00146*
X-00145Y-00145*
X-00144Y-00144*
X-00143Y-00144*
X-00142Y-00143*
X-0014Y-00142*
X-0014Y-00141*
X-00139Y-0014*
X-00138Y-00139*
X-00137Y-00138*
X-00137Y-00136*
X-00137Y-00135*
X-00133Y-00117*
X-00133Y-00116*
X-00133Y-00115*
Y-00096*
X-00116*
X-00113Y-00103*
X-00104Y-00112*
X-00092Y-00118*
X-0008Y-00122*
X-00067*
X-00054Y-00118*
X-00043Y-00112*
X-00034Y-00103*
X-00027Y-00091*
X-00024Y-00079*
Y-00066*
X-00027Y-00053*
X-00034Y-00042*
X-00043Y-00033*
X-00054Y-00027*
X-00067Y-00023*
X-0008*
X-00092Y-00027*
X-00104Y-00033*
X-00113Y-00042*
X-00119Y-00053*
X-00119Y-00054*
X-00133*
Y-0001*
X-00132Y-0001*
X-00036*
X-0003Y-00011*
X-00025Y-00013*
X-0002Y-00016*
X-00016Y-0002*
X-00013Y-00025*
X-00011Y-0003*
X-0001Y-00031*
Y-0049*
X-00015Y-00491*
X-00018Y-00483*
X-00024Y-00472*
X-00033Y-00463*
X-00044Y-00456*
X-00057Y-00453*
Y-00502*
Y-00551*
X-00044Y-00548*
X-00033Y-00541*
X-00024Y-00532*
X-00018Y-00521*
X-00015Y-00513*
X-0001Y-00514*
Y-03275*
X-00011Y-03276*
X-00013Y-03281*
X-00016Y-03286*
X-0002Y-0329*
X-00024Y-03293*
X-01549*
X-01553Y-0329*
X-01557Y-03286*
X-0156Y-03281*
X-01561Y-0328*
X-01564Y-01621*
X-01564Y-00039*
X-01564Y-00036*
X-01563Y-0003*
X-0156Y-00025*
X-01557Y-0002*
X-01553Y-00016*
X-01548Y-00013*
X-01542Y-0001*
X-01536Y-00009*
X-01533Y-0001*
G37*
%LNmicrophonearray.main-2*%
%LPC*%
G36*
X-00189Y-00035D02*
Y-00071D01*
X-00153*
X-00156Y-00061*
X-00161Y-00051*
X-00169Y-00043*
X-00179Y-00037*
X-00189Y-00035*
G37*
G36*
X-00203D02*
X-00213Y-00037D01*
X-00223Y-00043*
X-00231Y-00051*
X-00237Y-00061*
X-0024Y-00071*
X-00203*
Y-00035*
G37*
G36*
X-00153Y-00085D02*
X-00189D01*
Y-00122*
X-00179Y-00119*
X-00169Y-00113*
X-00161Y-00105*
X-00156Y-00095*
X-00153Y-00085*
G37*
G36*
X-00203D02*
X-0024D01*
X-00237Y-00095*
X-00231Y-00105*
X-00223Y-00113*
X-00213Y-00119*
X-00203Y-00122*
Y-00085*
G37*
G36*
X-00421Y-00247D02*
X-00427D01*
X-00434Y-00249*
X-00439Y-00252*
X-0048*
X-00485Y-00249*
X-00491Y-00247*
X-00498*
X-00505Y-00249*
X-00511Y-00252*
X-00515Y-00257*
X-00519Y-00263*
X-0052Y-00269*
Y-00276*
X-00519Y-00283*
X-00515Y-00288*
X-00511Y-00293*
X-00505Y-00297*
X-00498Y-00298*
X-00491*
X-00485Y-00297*
X-0048Y-00294*
X-00439*
X-00434Y-00297*
X-00427Y-00298*
X-00421*
X-00414Y-00297*
X-00408Y-00293*
X-00404Y-00288*
X-004Y-00283*
X-00398Y-00276*
Y-00269*
X-004Y-00263*
X-00404Y-00257*
X-00408Y-00252*
X-00414Y-00249*
X-00421Y-00247*
G37*
G36*
X-00501Y-00491D02*
X-00506D01*
Y-00514*
X-00483*
Y-00509*
X-00485Y-00502*
X-00488Y-00496*
X-00494Y-00493*
X-00501Y-00491*
G37*
G36*
X-007Y-00048D02*
X-00701D01*
Y-0015*
X-006*
Y-00148*
X-00603Y-00131*
X-00608Y-00115*
X-00616Y-001*
X-00626Y-00086*
X-00638Y-00074*
X-00652Y-00064*
X-00667Y-00056*
X-00683Y-00051*
X-007Y-00048*
G37*
G36*
X-00715D02*
X-00717D01*
X-00734Y-00051*
X-0075Y-00056*
X-00765Y-00064*
X-00779Y-00074*
X-00791Y-00086*
X-00801Y-001*
X-00809Y-00115*
X-00814Y-00131*
X-00817Y-00148*
Y-0015*
X-00715*
Y-00048*
G37*
G36*
X-00253Y-00185D02*
X-00289D01*
Y-00222*
X-00279Y-00219*
X-00269Y-00213*
X-00261Y-00205*
X-00256Y-00195*
X-00253Y-00185*
G37*
G36*
X-00303D02*
X-0034D01*
X-00337Y-00195*
X-00331Y-00205*
X-00323Y-00213*
X-00313Y-00219*
X-00303Y-00222*
Y-00185*
G37*
G36*
X-006Y-00164D02*
X-00701D01*
Y-00265*
X-007*
X-00683Y-00262*
X-00667Y-00257*
X-00652Y-00249*
X-00638Y-00239*
X-00626Y-00227*
X-00616Y-00213*
X-00608Y-00198*
X-00603Y-00182*
X-006Y-00165*
Y-00164*
G37*
G36*
X-00715D02*
X-00817D01*
Y-00165*
X-00814Y-00182*
X-00809Y-00198*
X-00801Y-00213*
X-00791Y-00227*
X-00779Y-00239*
X-00765Y-00249*
X-0075Y-00257*
X-00734Y-00262*
X-00717Y-00265*
X-00715*
Y-00164*
G37*
G36*
X-01062Y-00225D02*
Y-00268D01*
X-01019*
X-01023Y-00256*
X-01029Y-00244*
X-01038Y-00235*
X-01049Y-00229*
X-01062Y-00225*
G37*
G36*
X-01075D02*
X-01087Y-00229D01*
X-01099Y-00235*
X-01108Y-00244*
X-01114Y-00256*
X-01118Y-00268*
X-01075*
Y-00225*
G37*
G36*
X-00191Y-00234D02*
X-00202D01*
X-00213Y-00237*
X-00223Y-00243*
X-00231Y-00251*
X-00237Y-00261*
X-0024Y-00272*
Y-00284*
X-00237Y-00295*
X-00231Y-00305*
X-00223Y-00313*
X-00213Y-00319*
X-00202Y-00322*
X-00191*
X-00179Y-00319*
X-00169Y-00313*
X-00161Y-00305*
X-00156Y-00295*
X-00153Y-00284*
Y-00272*
X-00156Y-00261*
X-00161Y-00251*
X-00169Y-00243*
X-00179Y-00237*
X-00191Y-00234*
G37*
G36*
X-00291D02*
X-00302D01*
X-00313Y-00237*
X-00323Y-00243*
X-00331Y-00251*
X-00337Y-00261*
X-0034Y-00272*
Y-00284*
X-00337Y-00295*
X-00331Y-00305*
X-00323Y-00313*
X-00313Y-00319*
X-00302Y-00322*
X-00291*
X-00279Y-00319*
X-00269Y-00313*
X-00261Y-00305*
X-00256Y-00295*
X-00253Y-00284*
Y-00272*
X-00256Y-00261*
X-00261Y-00251*
X-00269Y-00243*
X-00279Y-00237*
X-00291Y-00234*
G37*
G36*
X-01019Y-00281D02*
X-01062D01*
Y-00324*
X-01049Y-0032*
X-01038Y-00314*
X-01029Y-00305*
X-01023Y-00293*
X-01019Y-00281*
G37*
G36*
X-01075D02*
X-01118D01*
X-01114Y-00293*
X-01108Y-00305*
X-01099Y-00314*
X-01087Y-0032*
X-01075Y-00324*
Y-00281*
G37*
G36*
X-00191Y-00334D02*
X-00202D01*
X-00213Y-00337*
X-00223Y-00343*
X-00231Y-00351*
X-00237Y-00361*
X-0024Y-00372*
Y-00384*
X-00237Y-00395*
X-00231Y-00405*
X-00223Y-00413*
X-00213Y-00419*
X-00202Y-00422*
X-00191*
X-00179Y-00419*
X-00169Y-00413*
X-00161Y-00405*
X-00156Y-00395*
X-00153Y-00384*
Y-00372*
X-00156Y-00361*
X-00161Y-00351*
X-00169Y-00343*
X-00179Y-00337*
X-00191Y-00334*
G37*
G36*
X-00291D02*
X-00302D01*
X-00313Y-00337*
X-00323Y-00343*
X-00331Y-00351*
X-00337Y-00361*
X-0034Y-00372*
Y-00384*
X-00337Y-00395*
X-00331Y-00405*
X-00323Y-00413*
X-00313Y-00419*
X-00302Y-00422*
X-00291*
X-00279Y-00419*
X-00269Y-00413*
X-00261Y-00405*
X-00256Y-00395*
X-00253Y-00384*
Y-00372*
X-00256Y-00361*
X-00261Y-00351*
X-00269Y-00343*
X-00279Y-00337*
X-00291Y-00334*
G37*
G36*
X-0007Y-00453D02*
X-00082Y-00456D01*
X-00094Y-00463*
X-00103Y-00472*
X-00109Y-00483*
X-00113Y-00495*
X-0007*
Y-00453*
G37*
G36*
X-00191Y-00434D02*
X-00202D01*
X-00213Y-00437*
X-00223Y-00443*
X-00231Y-00451*
X-00237Y-00461*
X-0024Y-00472*
Y-00484*
X-00237Y-00495*
X-00231Y-00505*
X-00223Y-00513*
X-00213Y-00519*
X-00202Y-00522*
X-00191*
X-00179Y-00519*
X-00169Y-00513*
X-00161Y-00505*
X-00156Y-00495*
X-00153Y-00484*
Y-00472*
X-00156Y-00461*
X-00161Y-00451*
X-00169Y-00443*
X-00179Y-00437*
X-00191Y-00434*
G37*
G36*
X-00291D02*
X-00302D01*
X-00313Y-00437*
X-00323Y-00443*
X-00331Y-00451*
X-00337Y-00461*
X-0034Y-00472*
Y-00484*
X-00337Y-00495*
X-00331Y-00505*
X-00323Y-00513*
X-00313Y-00519*
X-00302Y-00522*
X-00291*
X-00279Y-00519*
X-00269Y-00513*
X-00261Y-00505*
X-00256Y-00495*
X-00253Y-00484*
Y-00472*
X-00256Y-00461*
X-00261Y-00451*
X-00269Y-00443*
X-00279Y-00437*
X-00291Y-00434*
G37*
G36*
X-01387Y-00434D02*
X-01389D01*
Y-0054*
X-01284*
Y-00538*
X-01286Y-0052*
X-01292Y-00503*
X-013Y-00488*
X-0131Y-00473*
X-01323Y-00461*
X-01337Y-0045*
X-01353Y-00442*
X-0137Y-00437*
X-01387Y-00434*
G37*
G36*
X-01403D02*
X-01405D01*
X-01422Y-00437*
X-01439Y-00442*
X-01455Y-0045*
X-01469Y-00461*
X-01481Y-00473*
X-01492Y-00488*
X-015Y-00503*
X-01505Y-0052*
X-01508Y-00538*
Y-0054*
X-01403*
Y-00434*
G37*
G36*
X-0007Y-00509D02*
X-00113D01*
X-00109Y-00521*
X-00103Y-00532*
X-00094Y-00541*
X-00082Y-00548*
X-0007Y-00551*
Y-00509*
G37*
G36*
X-00289Y-00535D02*
Y-00571D01*
X-00253*
X-00256Y-00561*
X-00261Y-00551*
X-00269Y-00543*
X-00279Y-00537*
X-00289Y-00535*
G37*
G36*
X-00303D02*
X-00313Y-00537D01*
X-00323Y-00543*
X-00331Y-00551*
X-00337Y-00561*
X-0034Y-00571*
X-00303*
Y-00535*
G37*
G36*
X-00253Y-00585D02*
X-00289D01*
Y-00622*
X-00279Y-00619*
X-00269Y-00613*
X-00261Y-00605*
X-00256Y-00595*
X-00253Y-00585*
G37*
G36*
X-00303D02*
X-0034D01*
X-00337Y-00595*
X-00331Y-00605*
X-00323Y-00613*
X-00313Y-00619*
X-00303Y-00622*
Y-00585*
G37*
G36*
X-00191Y-00534D02*
X-00202D01*
X-00213Y-00537*
X-00223Y-00543*
X-00231Y-00551*
X-00237Y-00561*
X-0024Y-00572*
Y-00584*
X-00237Y-00595*
X-00231Y-00605*
X-00223Y-00613*
X-00213Y-00619*
X-00202Y-00622*
X-00191*
X-00179Y-00619*
X-00169Y-00613*
X-00161Y-00605*
X-00156Y-00595*
X-00153Y-00584*
Y-00572*
X-00156Y-00561*
X-00161Y-00551*
X-00169Y-00543*
X-00179Y-00537*
X-00191Y-00534*
G37*
G36*
X-01284Y-00553D02*
X-01389D01*
Y-00659*
X-01387*
X-0137Y-00656*
X-01353Y-0065*
X-01337Y-00642*
X-01323Y-00632*
X-0131Y-00619*
X-013Y-00605*
X-01292Y-00589*
X-01286Y-00573*
X-01284Y-00555*
Y-00553*
G37*
G36*
X-01403D02*
X-01508D01*
Y-00555*
X-01505Y-00573*
X-015Y-00589*
X-01492Y-00605*
X-01481Y-00619*
X-01469Y-00632*
X-01455Y-00642*
X-01439Y-0065*
X-01422Y-00656*
X-01405Y-00659*
X-01403*
Y-00553*
G37*
G36*
X-00191Y-00634D02*
X-00202D01*
X-00213Y-00637*
X-00223Y-00643*
X-00231Y-00651*
X-00237Y-00661*
X-0024Y-00672*
Y-00684*
X-00237Y-00695*
X-00231Y-00705*
X-00223Y-00713*
X-00213Y-00719*
X-00202Y-00722*
X-00191*
X-00179Y-00719*
X-00169Y-00713*
X-00161Y-00705*
X-00156Y-00695*
X-00153Y-00684*
Y-00672*
X-00156Y-00661*
X-00161Y-00651*
X-00169Y-00643*
X-00179Y-00637*
X-00191Y-00634*
G37*
G36*
X-00291D02*
X-00302D01*
X-00313Y-00637*
X-00323Y-00643*
X-00331Y-00651*
X-00337Y-00661*
X-0034Y-00672*
Y-00684*
X-00337Y-00695*
X-00331Y-00705*
X-00323Y-00713*
X-00313Y-00719*
X-00302Y-00722*
X-00291*
X-00279Y-00719*
X-00269Y-00713*
X-00261Y-00705*
X-00256Y-00695*
X-00253Y-00684*
Y-00672*
X-00256Y-00661*
X-00261Y-00651*
X-00269Y-00643*
X-00279Y-00637*
X-00291Y-00634*
G37*
G36*
X-00437Y-00717D02*
X-00442D01*
Y-0074*
X-00415*
Y-00739*
X-00416Y-0073*
X-00421Y-00723*
X-00428Y-00718*
X-00437Y-00717*
G37*
G36*
X-00456D02*
X-0046D01*
X-00469Y-00718*
X-00476Y-00723*
X-00481Y-0073*
X-00483Y-00739*
Y-0074*
X-00456*
Y-00717*
G37*
G36*
X-00643Y-00719D02*
X-0067D01*
Y-00742*
X-00665*
X-00656Y-0074*
X-00649Y-00735*
X-00644Y-00728*
X-00643Y-0072*
Y-00719*
G37*
G36*
X-00683D02*
X-0071D01*
Y-0072*
X-00709Y-00728*
X-00704Y-00735*
X-00697Y-0074*
X-00688Y-00742*
X-00683*
Y-00719*
G37*
G36*
X-00522Y-00696D02*
X-00539D01*
X-00546Y-00698*
X-00552Y-00701*
X-00555Y-00707*
X-00557Y-00714*
Y-0075*
X-00555Y-00757*
X-00555Y-00758*
Y-00763*
X-00558Y-00765*
X-00563Y-00772*
X-00563Y-00774*
X-00564Y-00774*
X-00569Y-00773*
X-00569Y-00772*
X-00574Y-00765*
X-00581Y-0076*
X-00581Y-00755*
X-0058Y-0075*
Y-00714*
X-00581Y-00707*
X-00585Y-00701*
X-00591Y-00698*
X-00597Y-00696*
X-00614*
X-00621Y-00698*
X-00626Y-00701*
X-0063Y-00707*
X-00631Y-00714*
Y-0075*
X-0063Y-00757*
X-00626Y-00763*
X-00625Y-00764*
X-00624Y-00769*
X-00626Y-00772*
X-00627Y-00781*
Y-00785*
X-00597*
Y-00792*
X-00591*
Y-00826*
X-0059*
X-00581Y-00825*
X-00574Y-0082*
X-00569Y-00813*
X-00569Y-00811*
X-00564Y-00811*
X-00563Y-00811*
X-00563Y-00813*
X-00558Y-0082*
X-00555Y-00822*
Y-00848*
X-00556Y-00854*
Y-00879*
X-00555Y-00886*
X-00552Y-0089*
X-00556Y-00897*
X-00558Y-00906*
Y-00909*
X-0056Y-0091*
X-007Y-0105*
X-00705Y-01058*
X-00707Y-01067*
Y-0122*
X-00709Y-01223*
X-00741*
X-00742Y-01223*
X-00749*
X-00753Y-01224*
X-00786*
X-00788Y-01224*
X-00848*
X-00857Y-01225*
X-00858Y-01226*
X-00865Y-01222*
X-00877Y-01219*
X-0089*
X-00903Y-01222*
X-00914Y-01229*
X-00923Y-01238*
X-00927Y-01244*
X-00987*
X-01032Y-01199*
X-01039Y-01194*
X-01049Y-01192*
X-0106*
Y-01185*
X-01052Y-01181*
X-01043Y-01171*
X-01036Y-0116*
X-01033Y-01148*
Y-01135*
X-01036Y-01122*
X-01043Y-01111*
X-01052Y-01102*
X-01063Y-01095*
X-01076Y-01092*
X-01089*
X-01101Y-01095*
X-01112Y-01102*
X-01122Y-01111*
X-01128Y-01122*
X-01131Y-01135*
Y-01148*
X-01128Y-0116*
X-01122Y-01171*
X-01112Y-01181*
X-01108Y-01183*
Y-01192*
X-01167*
X-01177Y-01194*
X-01185Y-01199*
X-01342Y-01357*
X-01348Y-01364*
X-01349Y-01374*
Y-01409*
X-01356Y-01412*
X-01365Y-01421*
X-01371Y-01433*
X-01375Y-01445*
Y-01458*
X-01371Y-01471*
X-01365Y-01482*
X-01356Y-01491*
X-01344Y-01498*
X-01338Y-01499*
Y-01504*
X-01344Y-01506*
X-01356Y-01512*
X-01365Y-01521*
X-01371Y-01533*
X-01375Y-01545*
Y-01558*
X-01371Y-01571*
X-01365Y-01582*
X-01356Y-01591*
X-01344Y-01598*
X-01338Y-01599*
Y-01604*
X-01344Y-01606*
X-01356Y-01612*
X-01365Y-01621*
X-01371Y-01633*
X-01375Y-01645*
Y-01658*
X-01371Y-01671*
X-01365Y-01682*
X-01356Y-01691*
X-01344Y-01698*
X-01338Y-01699*
Y-01704*
X-01344Y-01706*
X-01356Y-01712*
X-01365Y-01721*
X-01371Y-01733*
X-01375Y-01745*
Y-01758*
X-01371Y-01771*
X-01365Y-01782*
X-01356Y-01791*
X-01344Y-01798*
X-01338Y-01799*
Y-01804*
X-01344Y-01806*
X-01356Y-01812*
X-01365Y-01821*
X-01371Y-01833*
X-01374Y-01845*
X-01325*
Y-01852*
X-01318*
Y-01901*
X-01306Y-01898*
X-01295Y-01891*
X-01286Y-01882*
X-01279Y-01871*
X-01278Y-01865*
X-01273*
X-01271Y-01871*
X-01265Y-01882*
X-01256Y-01891*
X-01244Y-01898*
X-01232Y-01901*
X-01219*
X-01206Y-01898*
X-01195Y-01891*
X-01186Y-01882*
X-01179Y-01871*
X-01176Y-01858*
Y-01845*
X-01179Y-01833*
X-01186Y-01821*
X-01195Y-01812*
X-01206Y-01806*
X-01212Y-01804*
Y-01799*
X-01206Y-01798*
X-01195Y-01791*
X-01186Y-01782*
X-01179Y-01771*
X-01176Y-01758*
Y-01745*
X-01179Y-01733*
X-01186Y-01721*
X-01195Y-01712*
X-01206Y-01706*
X-01212Y-01704*
Y-01699*
X-01206Y-01698*
X-01195Y-01691*
X-01186Y-01682*
X-01179Y-01671*
X-01176Y-01658*
Y-01645*
X-01179Y-01633*
X-01186Y-01621*
X-01195Y-01612*
X-01206Y-01606*
X-01212Y-01604*
Y-01599*
X-01206Y-01598*
X-01195Y-01591*
X-01186Y-01582*
X-01181Y-01573*
X-0105*
X-01023Y-016*
Y-0185*
X-01021Y-01858*
X-01016Y-01865*
X-0093Y-01951*
X-00933Y-01962*
Y-01974*
X-0093Y-01987*
X-00923Y-01998*
X-00914Y-02007*
X-00903Y-02014*
X-00897Y-02015*
Y-02021*
X-00903Y-02022*
X-00914Y-02029*
X-00923Y-02038*
X-0093Y-02049*
X-00933Y-02061*
X-00884*
X-00835*
X-00838Y-02049*
X-00844Y-02038*
X-00854Y-02029*
X-00865Y-02022*
X-00871Y-02021*
Y-02015*
X-00865Y-02014*
X-00854Y-02007*
X-00844Y-01998*
X-00839Y-01989*
X-00798*
X-00785Y-02003*
X-00787Y-02013*
Y-02026*
X-00784Y-02038*
X-00778Y-02049*
X-00768Y-02059*
X-00757Y-02065*
X-00745Y-02068*
X-00732*
X-00719Y-02065*
X-00708Y-02059*
X-00699Y-02049*
X-00692Y-02038*
X-00689Y-02026*
Y-02013*
X-00692Y-02*
X-00699Y-01989*
X-00708Y-0198*
X-00719Y-01973*
X-00732Y-0197*
X-00745*
X-00755Y-01973*
X-00775Y-01953*
X-00781Y-01949*
X-0079Y-01947*
X-00826*
X-00828Y-01942*
X-008Y-01914*
X-00711*
X-00709Y-01919*
X-00701Y-01923*
X-00693Y-01925*
X-00677*
X-00669Y-01923*
X-00662Y-01919*
X-00657Y-01911*
X-00656Y-01908*
X-00651*
X-0065Y-01911*
X-00646Y-01919*
X-00638Y-01923*
X-0063Y-01925*
X-00622*
X-00581Y-01966*
Y-02028*
X-00586Y-02031*
X-00595Y-02041*
X-00601Y-02052*
X-00605Y-02064*
Y-02077*
X-00601Y-0209*
X-00595Y-02101*
X-00586Y-0211*
X-00574Y-02117*
X-00562Y-0212*
X-00549*
X-00536Y-02117*
X-00525Y-0211*
X-00516Y-02101*
X-0051Y-0209*
X-00506Y-02077*
Y-02064*
X-0051Y-02052*
X-00516Y-02041*
X-00525Y-02031*
X-00536Y-02025*
X-00538Y-02024*
Y-01999*
X-00335*
X-00331Y-02005*
X-00323Y-02013*
X-00313Y-02019*
X-00302Y-02022*
X-00291*
X-00279Y-02019*
X-00269Y-02013*
X-00261Y-02005*
X-00256Y-01995*
X-00253Y-01984*
Y-01972*
X-00256Y-01961*
X-00261Y-01951*
X-00269Y-01943*
X-00279Y-01937*
X-00291Y-01934*
X-00302*
X-00313Y-01937*
X-00323Y-01943*
X-00331Y-01951*
X-00335Y-01957*
X-00539*
X-0054Y-0195*
X-00545Y-01943*
X-00592Y-01895*
Y-01879*
X-00593Y-01875*
X-00592Y-0187*
X-00589Y-0187*
X-00585Y-01869*
X-00579Y-01865*
X-00575Y-01859*
X-00574Y-01853*
Y-01836*
X-00575Y-01833*
X-00571Y-01828*
X-00557*
X-00553Y-0183*
X-00546Y-01832*
X-00539*
X-00533Y-0183*
X-00527Y-01827*
X-00522Y-01822*
X-00519Y-01816*
X-00517Y-01809*
Y-01803*
X-00519Y-01796*
X-00522Y-0179*
X-00527Y-01786*
X-00533Y-01782*
X-00539Y-0178*
X-00546*
X-00553Y-01782*
X-00558Y-01785*
X-0057*
X-00574Y-0178*
X-00574Y-01778*
Y-01761*
X-00575Y-01755*
X-00579Y-01749*
X-00585Y-01745*
X-00592Y-01744*
X-00596*
Y-01729*
X-00594Y-01728*
X-0059Y-01721*
X-00428*
X-0042Y-0172*
X-00413Y-01715*
X-00405Y-01707*
X-004Y-017*
X-00399Y-01692*
Y-01011*
X-00309Y-0092*
X-00302Y-00922*
X-00291*
X-00279Y-00919*
X-00269Y-00913*
X-00261Y-00905*
X-00256Y-00895*
X-00253Y-00884*
Y-00872*
X-00256Y-00861*
X-00261Y-00851*
X-00269Y-00843*
X-00279Y-00837*
X-00291Y-00834*
X-00302*
X-00313Y-00837*
X-00323Y-00843*
X-00331Y-00851*
X-00337Y-00861*
X-0034Y-00872*
Y-00884*
X-00338Y-0089*
X-00435Y-00987*
X-00439Y-00994*
X-00441Y-01002*
Y-01679*
X-00456*
X-00457Y-01674*
X-00457Y-01674*
X-00453Y-01669*
X-00449Y-01663*
X-00447Y-01657*
Y-0165*
X-00449Y-01645*
Y-01521*
X-00451Y-01512*
X-00456Y-01504*
X-00675Y-01285*
X-00673Y-0128*
X-00666Y-01278*
X-00659Y-01273*
X-00654Y-01266*
X-00654Y-01263*
X-00649*
X-00648Y-01266*
X-00643Y-01273*
X-00636Y-01278*
X-00628Y-0128*
X-00627*
Y-01246*
X-0062*
X-00627*
Y-01212*
X-00628*
X-00636Y-01214*
X-00643Y-01219*
X-00648Y-01226*
X-00649Y-01229*
X-00654*
X-00654Y-01226*
X-00659Y-0122*
Y-01077*
X-00533Y-00951*
X-0052*
X-00512Y-0095*
X-00505Y-00945*
X-005Y-00938*
X-00499Y-00934*
X-00494*
X-00493Y-00938*
X-00489Y-00945*
X-00481Y-0095*
X-00473Y-00951*
X-00457*
X-00449Y-0095*
X-00442Y-00945*
X-00439Y-00942*
X-00431*
X-00422Y-0094*
X-00414Y-00935*
X-00385Y-00905*
X-0038Y-00898*
X-00378Y-00888*
Y-00832*
X-00376Y-00827*
Y-0082*
X-00378Y-00813*
X-00382Y-00808*
X-00386Y-00803*
X-00392Y-00799*
X-00399Y-00798*
X-00405*
X-0041Y-00799*
X-00416Y-00797*
X-00416Y-00793*
X-00421Y-00786*
X-00428Y-00781*
X-00432Y-00781*
Y-00776*
X-00428Y-00775*
X-00421Y-0077*
X-00416Y-00763*
X-00415Y-00755*
Y-00754*
X-00483*
Y-00755*
X-00481Y-00763*
X-00476Y-0077*
X-00469Y-00775*
X-00466Y-00776*
Y-00781*
X-00469Y-00781*
X-00476Y-00786*
X-00481Y-00793*
X-00483Y-00802*
Y-00818*
X-00481Y-00826*
X-00477Y-00832*
X-00479Y-00837*
X-0048*
X-00486Y-00838*
X-00492Y-00842*
X-00494Y-00844*
X-005*
X-00501Y-00842*
X-00507Y-00838*
Y-00813*
X-00506Y-00813*
X-00505Y-00804*
Y-00781*
X-00506Y-00772*
X-00507Y-00771*
Y-00758*
X-00506Y-00757*
X-00505Y-0075*
Y-00714*
X-00506Y-00707*
X-0051Y-00701*
X-00516Y-00698*
X-00522Y-00696*
G37*
G36*
X-00191Y-00734D02*
X-00202D01*
X-00213Y-00737*
X-00223Y-00743*
X-00231Y-00751*
X-00237Y-00761*
X-0024Y-00772*
Y-00784*
X-00237Y-00795*
X-00231Y-00805*
X-00223Y-00813*
X-00213Y-00819*
X-00202Y-00822*
X-00191*
X-00179Y-00819*
X-00169Y-00813*
X-00161Y-00805*
X-00156Y-00795*
X-00153Y-00784*
Y-00772*
X-00156Y-00761*
X-00161Y-00751*
X-00169Y-00743*
X-00179Y-00737*
X-00191Y-00734*
G37*
G36*
X-00291D02*
X-00302D01*
X-00313Y-00737*
X-00323Y-00743*
X-00331Y-00751*
X-00337Y-00761*
X-0034Y-00772*
Y-00784*
X-00337Y-00795*
X-00331Y-00805*
X-00323Y-00813*
X-00313Y-00819*
X-00302Y-00822*
X-00291*
X-00279Y-00819*
X-00269Y-00813*
X-00261Y-00805*
X-00256Y-00795*
X-00253Y-00784*
Y-00772*
X-00256Y-00761*
X-00261Y-00751*
X-00269Y-00743*
X-00279Y-00737*
X-00291Y-00734*
G37*
G36*
X-00604Y-00799D02*
X-00627D01*
Y-00804*
X-00626Y-00813*
X-00621Y-0082*
X-00614Y-00825*
X-00605Y-00826*
X-00604*
Y-00799*
G37*
G36*
X-00191Y-00834D02*
X-00202D01*
X-00213Y-00837*
X-00223Y-00843*
X-00231Y-00851*
X-00237Y-00861*
X-0024Y-00872*
Y-00884*
X-00237Y-00895*
X-00231Y-00905*
X-00223Y-00913*
X-00213Y-00919*
X-00202Y-00922*
X-00191*
X-00179Y-00919*
X-00169Y-00913*
X-00161Y-00905*
X-00156Y-00895*
X-00153Y-00884*
Y-00872*
X-00156Y-00861*
X-00161Y-00851*
X-00169Y-00843*
X-00179Y-00837*
X-00191Y-00834*
G37*
G36*
X-00083Y-00861D02*
X-00096D01*
X-00109Y-00864*
X-0012Y-0087*
X-00129Y-0088*
X-00135Y-00891*
X-00138Y-009*
X-00139*
X-00147Y-00901*
X-00154Y-00906*
X-00184Y-00936*
X-00191Y-00934*
X-00202*
X-00213Y-00937*
X-00223Y-00943*
X-00231Y-00951*
X-00235Y-00957*
X-00258*
X-00261Y-00951*
X-00269Y-00943*
X-00279Y-00937*
X-00291Y-00934*
X-00302*
X-00313Y-00937*
X-00323Y-00943*
X-00331Y-00951*
X-00337Y-00961*
X-0034Y-00972*
Y-00984*
X-00337Y-00995*
X-00331Y-01005*
X-00323Y-01013*
X-00313Y-01019*
X-00302Y-01022*
X-00291*
X-00279Y-01019*
X-00269Y-01013*
X-00261Y-01005*
X-00258Y-00999*
X-00235*
X-00231Y-01005*
X-00223Y-01013*
X-00213Y-01019*
X-00202Y-01022*
X-00191*
X-00179Y-01019*
X-00169Y-01013*
X-00161Y-01005*
X-00156Y-00995*
X-00153Y-00984*
Y-00972*
X-00154Y-00966*
X-0013Y-00942*
X-00127*
X-0012Y-00949*
X-00109Y-00956*
X-00096Y-00959*
X-00083*
X-00071Y-00956*
X-00059Y-00949*
X-0005Y-0094*
X-00044Y-00929*
X-0004Y-00916*
Y-00903*
X-00044Y-00891*
X-0005Y-0088*
X-00059Y-0087*
X-00071Y-00864*
X-00083Y-00861*
G37*
G36*
X-01275Y-00974D02*
Y-01017D01*
X-01233*
X-01236Y-01005*
X-01242Y-00993*
X-01252Y-00984*
X-01263Y-00978*
X-01275Y-00974*
G37*
G36*
X-01289D02*
X-01301Y-00978D01*
X-01312Y-00984*
X-01321Y-00993*
X-01328Y-01005*
X-01331Y-01017*
X-01289*
Y-00974*
G37*
G36*
X-01233Y-0103D02*
X-01275D01*
Y-01073*
X-01263Y-01069*
X-01252Y-01063*
X-01242Y-01054*
X-01236Y-01043*
X-01233Y-0103*
G37*
G36*
X-01289D02*
X-01331D01*
X-01328Y-01043*
X-01321Y-01054*
X-01312Y-01063*
X-01301Y-01069*
X-01289Y-01073*
Y-0103*
G37*
G36*
X-00772Y-00976D02*
X-00785D01*
X-00797Y-0098*
X-00808Y-00986*
X-00818Y-00995*
X-00824Y-01007*
X-00827Y-01019*
Y-01032*
X-00824Y-01045*
X-00818Y-01056*
X-00808Y-01065*
X-00797Y-01071*
X-00785Y-01075*
X-00772*
X-00759Y-01071*
X-00748Y-01065*
X-00739Y-01056*
X-00732Y-01045*
X-00729Y-01032*
Y-01019*
X-00732Y-01007*
X-00739Y-00995*
X-00748Y-00986*
X-00759Y-0098*
X-00772Y-00976*
G37*
G36*
X-00536Y-01015D02*
X-00549D01*
X-00561Y-01018*
X-00573Y-01024*
X-00582Y-01034*
X-00588Y-01045*
X-00592Y-01057*
Y-0107*
X-00588Y-01083*
X-00582Y-01094*
X-00573Y-01103*
X-00561Y-0111*
X-00549Y-01113*
X-00536*
X-00523Y-0111*
X-00512Y-01103*
X-00503Y-01094*
X-00497Y-01083*
X-00493Y-0107*
Y-01057*
X-00497Y-01045*
X-00503Y-01034*
X-00512Y-01024*
X-00523Y-01018*
X-00536Y-01015*
G37*
G36*
X-00191Y-01034D02*
X-00202D01*
X-00213Y-01037*
X-00223Y-01043*
X-00231Y-01051*
X-00237Y-01061*
X-0024Y-01072*
Y-01084*
X-00237Y-01095*
X-00231Y-01105*
X-00223Y-01113*
X-00213Y-01119*
X-00202Y-01122*
X-00191*
X-00179Y-01119*
X-00169Y-01113*
X-00161Y-01105*
X-00156Y-01095*
X-00153Y-01084*
Y-01072*
X-00156Y-01061*
X-00161Y-01051*
X-00169Y-01043*
X-00179Y-01037*
X-00191Y-01034*
G37*
G36*
X-00291D02*
X-00302D01*
X-00313Y-01037*
X-00323Y-01043*
X-00331Y-01051*
X-00337Y-01061*
X-0034Y-01072*
Y-01084*
X-00337Y-01095*
X-00331Y-01105*
X-00323Y-01113*
X-00313Y-01119*
X-00302Y-01122*
X-00291*
X-00279Y-01119*
X-00269Y-01113*
X-00261Y-01105*
X-00256Y-01095*
X-00253Y-01084*
Y-01072*
X-00256Y-01061*
X-00261Y-01051*
X-00269Y-01043*
X-00279Y-01037*
X-00291Y-01034*
G37*
G36*
X-00068Y-01029D02*
X-00081D01*
X-00093Y-01032*
X-00105Y-01039*
X-00114Y-01048*
X-0012Y-01059*
X-00124Y-01072*
Y-01085*
X-0012Y-01097*
X-00114Y-01108*
X-00105Y-01118*
X-00093Y-01124*
X-00081Y-01127*
X-00068*
X-00055Y-01124*
X-00044Y-01118*
X-00035Y-01108*
X-00029Y-01097*
X-00025Y-01085*
Y-01072*
X-00029Y-01059*
X-00035Y-01048*
X-00044Y-01039*
X-00055Y-01032*
X-00068Y-01029*
G37*
G36*
X-00191Y-01134D02*
X-00202D01*
X-00213Y-01137*
X-00223Y-01143*
X-00231Y-01151*
X-00237Y-01161*
X-0024Y-01172*
Y-01184*
X-00237Y-01195*
X-00231Y-01205*
X-00223Y-01213*
X-00213Y-01219*
X-00202Y-01222*
X-00191*
X-00179Y-01219*
X-00169Y-01213*
X-00161Y-01205*
X-00156Y-01195*
X-00153Y-01184*
Y-01172*
X-00156Y-01161*
X-00161Y-01151*
X-00169Y-01143*
X-00179Y-01137*
X-00191Y-01134*
G37*
G36*
X-00291D02*
X-00302D01*
X-00313Y-01137*
X-00323Y-01143*
X-00331Y-01151*
X-00337Y-01161*
X-0034Y-01172*
Y-01184*
X-00337Y-01195*
X-00331Y-01205*
X-00323Y-01213*
X-00313Y-01219*
X-00302Y-01222*
X-00291*
X-00279Y-01219*
X-00269Y-01213*
X-00261Y-01205*
X-00256Y-01195*
X-00253Y-01184*
Y-01172*
X-00256Y-01161*
X-00261Y-01151*
X-00269Y-01143*
X-00279Y-01137*
X-00291Y-01134*
G37*
G36*
X-00612Y-01212D02*
X-00613D01*
Y-01239*
X-0059*
Y-01234*
X-00591Y-01226*
X-00596Y-01219*
X-00603Y-01214*
X-00612Y-01212*
G37*
G36*
X-0059Y-01253D02*
X-00613D01*
Y-0128*
X-00612*
X-00603Y-01278*
X-00596Y-01273*
X-00591Y-01266*
X-0059Y-01258*
Y-01253*
G37*
G36*
X-00191Y-01234D02*
X-00202D01*
X-00213Y-01237*
X-00223Y-01243*
X-00231Y-01251*
X-00237Y-01261*
X-0024Y-01272*
Y-01284*
X-00237Y-01295*
X-00231Y-01305*
X-00223Y-01313*
X-00213Y-01319*
X-00202Y-01322*
X-00191*
X-00179Y-01319*
X-00169Y-01313*
X-00161Y-01305*
X-00156Y-01295*
X-00153Y-01284*
Y-01272*
X-00156Y-01261*
X-00161Y-01251*
X-00169Y-01243*
X-00179Y-01237*
X-00191Y-01234*
G37*
G36*
X-00291D02*
X-00302D01*
X-00313Y-01237*
X-00323Y-01243*
X-00331Y-01251*
X-00337Y-01261*
X-0034Y-01272*
Y-01284*
X-00337Y-01295*
X-00331Y-01305*
X-00323Y-01313*
X-00313Y-01319*
X-00302Y-01322*
X-00291*
X-00279Y-01319*
X-00269Y-01313*
X-00261Y-01305*
X-00256Y-01295*
X-00253Y-01284*
Y-01272*
X-00256Y-01261*
X-00261Y-01251*
X-00269Y-01243*
X-00279Y-01237*
X-00291Y-01234*
G37*
G36*
X-00191Y-01334D02*
X-00202D01*
X-00213Y-01337*
X-00223Y-01343*
X-00231Y-01351*
X-00237Y-01361*
X-0024Y-01372*
Y-01384*
X-00237Y-01395*
X-00231Y-01405*
X-00223Y-01413*
X-00213Y-01419*
X-00202Y-01422*
X-00191*
X-00179Y-01419*
X-00169Y-01413*
X-00161Y-01405*
X-00156Y-01395*
X-00153Y-01384*
Y-01372*
X-00156Y-01361*
X-00161Y-01351*
X-00169Y-01343*
X-00179Y-01337*
X-00191Y-01334*
G37*
G36*
X-00291D02*
X-00302D01*
X-00313Y-01337*
X-00323Y-01343*
X-00331Y-01351*
X-00337Y-01361*
X-0034Y-01372*
Y-01384*
X-00337Y-01395*
X-00331Y-01405*
X-00323Y-01413*
X-00313Y-01419*
X-00302Y-01422*
X-00291*
X-00279Y-01419*
X-00269Y-01413*
X-00261Y-01405*
X-00256Y-01395*
X-00253Y-01384*
Y-01372*
X-00256Y-01361*
X-00261Y-01351*
X-00269Y-01343*
X-00279Y-01337*
X-00291Y-01334*
G37*
G36*
X-00191Y-01434D02*
X-00202D01*
X-00213Y-01437*
X-00223Y-01443*
X-00231Y-01451*
X-00237Y-01461*
X-0024Y-01472*
Y-01484*
X-00237Y-01495*
X-00231Y-01505*
X-00223Y-01513*
X-00213Y-01519*
X-00202Y-01522*
X-00191*
X-00179Y-01519*
X-00169Y-01513*
X-00161Y-01505*
X-00156Y-01495*
X-00153Y-01484*
Y-01472*
X-00156Y-01461*
X-00161Y-01451*
X-00169Y-01443*
X-00179Y-01437*
X-00191Y-01434*
G37*
G36*
X-00291D02*
X-00302D01*
X-00313Y-01437*
X-00323Y-01443*
X-00331Y-01451*
X-00337Y-01461*
X-0034Y-01472*
Y-01484*
X-00337Y-01495*
X-00331Y-01505*
X-00323Y-01513*
X-00313Y-01519*
X-00302Y-01522*
X-00291*
X-00279Y-01519*
X-00269Y-01513*
X-00261Y-01505*
X-00256Y-01495*
X-00253Y-01484*
Y-01472*
X-00256Y-01461*
X-00261Y-01451*
X-00269Y-01443*
X-00279Y-01437*
X-00291Y-01434*
G37*
G36*
X-00061Y-01507D02*
X-00074D01*
X-00087Y-0151*
X-00098Y-01517*
X-00107Y-01526*
X-00114Y-01537*
X-00117Y-0155*
Y-01563*
X-00114Y-01575*
X-00107Y-01586*
X-00098Y-01596*
X-00087Y-01602*
X-00074Y-01605*
X-00061*
X-00049Y-01602*
X-00037Y-01596*
X-00028Y-01586*
X-00022Y-01575*
X-00018Y-01563*
Y-0155*
X-00022Y-01537*
X-00028Y-01526*
X-00037Y-01517*
X-00049Y-0151*
X-00061Y-01507*
G37*
G36*
X-00191Y-01534D02*
X-00202D01*
X-00213Y-01537*
X-00223Y-01543*
X-00231Y-01551*
X-00237Y-01561*
X-0024Y-01572*
Y-01584*
X-00237Y-01595*
X-00231Y-01605*
X-00223Y-01613*
X-00213Y-01619*
X-00202Y-01622*
X-00191*
X-00179Y-01619*
X-00169Y-01613*
X-00161Y-01605*
X-00156Y-01595*
X-00153Y-01584*
Y-01572*
X-00156Y-01561*
X-00161Y-01551*
X-00169Y-01543*
X-00179Y-01537*
X-00191Y-01534*
G37*
G36*
X-00291D02*
X-00302D01*
X-00313Y-01537*
X-00323Y-01543*
X-00331Y-01551*
X-00337Y-01561*
X-0034Y-01572*
Y-01584*
X-00337Y-01595*
X-00331Y-01605*
X-00323Y-01613*
X-00313Y-01619*
X-00302Y-01622*
X-00291*
X-00279Y-01619*
X-00269Y-01613*
X-00261Y-01605*
X-00256Y-01595*
X-00253Y-01584*
Y-01572*
X-00256Y-01561*
X-00261Y-01551*
X-00269Y-01543*
X-00279Y-01537*
X-00291Y-01534*
G37*
G36*
X-00191Y-01634D02*
X-00202D01*
X-00213Y-01637*
X-00223Y-01643*
X-00231Y-01651*
X-00237Y-01661*
X-0024Y-01672*
Y-01684*
X-00237Y-01695*
X-00231Y-01705*
X-00223Y-01713*
X-00213Y-01719*
X-00202Y-01722*
X-00191*
X-00179Y-01719*
X-00169Y-01713*
X-00161Y-01705*
X-00156Y-01695*
X-00153Y-01684*
Y-01672*
X-00156Y-01661*
X-00161Y-01651*
X-00169Y-01643*
X-00179Y-01637*
X-00191Y-01634*
G37*
G36*
X-00291D02*
X-00302D01*
X-00313Y-01637*
X-00323Y-01643*
X-00331Y-01651*
X-00337Y-01661*
X-0034Y-01672*
Y-01684*
X-00337Y-01695*
X-00331Y-01705*
X-00323Y-01713*
X-00313Y-01719*
X-00302Y-01722*
X-00291*
X-00279Y-01719*
X-00269Y-01713*
X-00261Y-01705*
X-00256Y-01695*
X-00253Y-01684*
Y-01672*
X-00256Y-01661*
X-00261Y-01651*
X-00269Y-01643*
X-00279Y-01637*
X-00291Y-01634*
G37*
G36*
X-00191Y-01734D02*
X-00202D01*
X-00213Y-01737*
X-00223Y-01743*
X-00231Y-01751*
X-00237Y-01761*
X-0024Y-01772*
Y-01784*
X-00237Y-01795*
X-00231Y-01805*
X-00223Y-01813*
X-00213Y-01819*
X-00202Y-01822*
X-00191*
X-00179Y-01819*
X-00169Y-01813*
X-00161Y-01805*
X-00156Y-01795*
X-00153Y-01784*
Y-01772*
X-00156Y-01761*
X-00161Y-01751*
X-00169Y-01743*
X-00179Y-01737*
X-00191Y-01734*
G37*
G36*
X-00291D02*
X-00302D01*
X-00313Y-01737*
X-00323Y-01743*
X-00331Y-01751*
X-00337Y-01761*
X-0034Y-01772*
Y-01784*
X-00337Y-01795*
X-00331Y-01805*
X-00323Y-01813*
X-00313Y-01819*
X-00302Y-01822*
X-00291*
X-00279Y-01819*
X-00269Y-01813*
X-00261Y-01805*
X-00256Y-01795*
X-00253Y-01784*
Y-01772*
X-00256Y-01761*
X-00261Y-01751*
X-00269Y-01743*
X-00279Y-01737*
X-00291Y-01734*
G37*
G36*
X-00062Y-01795D02*
Y-01837D01*
X-0002*
X-00023Y-01825*
X-00029Y-01814*
X-00039Y-01805*
X-0005Y-01798*
X-00062Y-01795*
G37*
G36*
X-00076D02*
X-00088Y-01798D01*
X-00099Y-01805*
X-00108Y-01814*
X-00115Y-01825*
X-00118Y-01837*
X-00076*
Y-01795*
G37*
G36*
X-0002Y-01851D02*
X-00062D01*
Y-01893*
X-0005Y-0189*
X-00039Y-01883*
X-00029Y-01874*
X-00023Y-01863*
X-0002Y-01851*
G37*
G36*
X-00076D02*
X-00118D01*
X-00115Y-01863*
X-00108Y-01874*
X-00099Y-01883*
X-00088Y-0189*
X-00076Y-01893*
Y-01851*
G37*
G36*
X-01332Y-01859D02*
X-01374D01*
X-01371Y-01871*
X-01365Y-01882*
X-01356Y-01891*
X-01344Y-01898*
X-01332Y-01901*
Y-01859*
G37*
G36*
X-00191Y-01834D02*
X-00202D01*
X-00213Y-01837*
X-00223Y-01843*
X-00231Y-01851*
X-00237Y-01861*
X-0024Y-01872*
Y-01884*
X-00237Y-01895*
X-00231Y-01905*
X-00223Y-01913*
X-00213Y-01919*
X-00202Y-01922*
X-00191*
X-00179Y-01919*
X-00169Y-01913*
X-00161Y-01905*
X-00156Y-01895*
X-00153Y-01884*
Y-01872*
X-00156Y-01861*
X-00161Y-01851*
X-00169Y-01843*
X-00179Y-01837*
X-00191Y-01834*
G37*
G36*
X-00291D02*
X-00302D01*
X-00313Y-01837*
X-00323Y-01843*
X-00331Y-01851*
X-00337Y-01861*
X-0034Y-01872*
Y-01884*
X-00337Y-01895*
X-00331Y-01905*
X-00323Y-01913*
X-00313Y-01919*
X-00302Y-01922*
X-00291*
X-00279Y-01919*
X-00269Y-01913*
X-00261Y-01905*
X-00256Y-01895*
X-00253Y-01884*
Y-01872*
X-00256Y-01861*
X-00261Y-01851*
X-00269Y-01843*
X-00279Y-01837*
X-00291Y-01834*
G37*
G36*
X-00191Y-01934D02*
X-00202D01*
X-00213Y-01937*
X-00223Y-01943*
X-00231Y-01951*
X-00237Y-01961*
X-0024Y-01972*
Y-01984*
X-00237Y-01995*
X-00231Y-02005*
X-00223Y-02013*
X-00213Y-02019*
X-00202Y-02022*
X-00191*
X-00179Y-02019*
X-00169Y-02013*
X-00161Y-02005*
X-00156Y-01995*
X-00153Y-01984*
Y-01972*
X-00156Y-01961*
X-00161Y-01951*
X-00169Y-01943*
X-00179Y-01937*
X-00191Y-01934*
G37*
G36*
Y-02034D02*
X-00202D01*
X-00213Y-02037*
X-00223Y-02043*
X-00231Y-02051*
X-00237Y-02061*
X-0024Y-02072*
Y-02084*
X-00237Y-02095*
X-00231Y-02105*
X-00223Y-02113*
X-00213Y-02119*
X-00202Y-02122*
X-00191*
X-00179Y-02119*
X-00169Y-02113*
X-00161Y-02105*
X-00156Y-02095*
X-00153Y-02084*
Y-02072*
X-00156Y-02061*
X-00161Y-02051*
X-00169Y-02043*
X-00179Y-02037*
X-00191Y-02034*
G37*
G36*
X-00291D02*
X-00302D01*
X-00313Y-02037*
X-00323Y-02043*
X-00331Y-02051*
X-00337Y-02061*
X-0034Y-02072*
Y-02084*
X-00337Y-02095*
X-00331Y-02105*
X-00323Y-02113*
X-00313Y-02119*
X-00302Y-02122*
X-00291*
X-00279Y-02119*
X-00269Y-02113*
X-00261Y-02105*
X-00256Y-02095*
X-00253Y-02084*
Y-02072*
X-00256Y-02061*
X-00261Y-02051*
X-00269Y-02043*
X-00279Y-02037*
X-00291Y-02034*
G37*
G36*
X-00835Y-02075D02*
X-00884D01*
X-00933*
X-0093Y-02087*
X-00923Y-02098*
X-00914Y-02107*
X-00903Y-02114*
X-00897Y-02115*
Y-02121*
X-00903Y-02122*
X-00914Y-02129*
X-00923Y-02138*
X-0093Y-02149*
X-00933Y-02162*
Y-02174*
X-0093Y-02187*
X-00923Y-02198*
X-00914Y-02207*
X-00903Y-02214*
X-0089Y-02217*
X-00877*
X-00865Y-02214*
X-00854Y-02207*
X-00844Y-02198*
X-00838Y-02187*
X-00835Y-02174*
Y-02162*
X-00838Y-02149*
X-00844Y-02138*
X-00854Y-02129*
X-00865Y-02122*
X-00871Y-02121*
Y-02115*
X-00865Y-02114*
X-00854Y-02107*
X-00844Y-02098*
X-00838Y-02087*
X-00835Y-02075*
G37*
G36*
X-00191Y-02134D02*
X-00202D01*
X-00213Y-02137*
X-00223Y-02143*
X-00231Y-02151*
X-00237Y-02161*
X-0024Y-02172*
Y-02184*
X-00237Y-02195*
X-00231Y-02205*
X-00223Y-02213*
X-00213Y-02219*
X-00202Y-02222*
X-00191*
X-00179Y-02219*
X-00169Y-02213*
X-00161Y-02205*
X-00156Y-02195*
X-00153Y-02184*
Y-02172*
X-00156Y-02161*
X-00161Y-02151*
X-00169Y-02143*
X-00179Y-02137*
X-00191Y-02134*
G37*
G36*
X-00291D02*
X-00302D01*
X-00313Y-02137*
X-00323Y-02143*
X-00331Y-02151*
X-00337Y-02161*
X-0034Y-02172*
Y-02184*
X-00337Y-02195*
X-00331Y-02205*
X-00323Y-02213*
X-00313Y-02219*
X-00302Y-02222*
X-00291*
X-00279Y-02219*
X-00269Y-02213*
X-00261Y-02205*
X-00256Y-02195*
X-00253Y-02184*
Y-02172*
X-00256Y-02161*
X-00261Y-02151*
X-00269Y-02143*
X-00279Y-02137*
X-00291Y-02134*
G37*
G36*
X-00191Y-02234D02*
X-00202D01*
X-00213Y-02237*
X-00223Y-02243*
X-00231Y-02251*
X-00237Y-02261*
X-0024Y-02272*
Y-02284*
X-00237Y-02295*
X-00231Y-02305*
X-00223Y-02313*
X-00213Y-02319*
X-00202Y-02322*
X-00191*
X-00179Y-02319*
X-00169Y-02313*
X-00161Y-02305*
X-00156Y-02295*
X-00153Y-02284*
Y-02272*
X-00156Y-02261*
X-00161Y-02251*
X-00169Y-02243*
X-00179Y-02237*
X-00191Y-02234*
G37*
G36*
X-00291D02*
X-00302D01*
X-00313Y-02237*
X-00323Y-02243*
X-00331Y-02251*
X-00337Y-02261*
X-0034Y-02272*
Y-02284*
X-00337Y-02295*
X-00331Y-02305*
X-00323Y-02313*
X-00313Y-02319*
X-00302Y-02322*
X-00291*
X-00279Y-02319*
X-00269Y-02313*
X-00261Y-02305*
X-00256Y-02295*
X-00253Y-02284*
Y-02272*
X-00256Y-02261*
X-00261Y-02251*
X-00269Y-02243*
X-00279Y-02237*
X-00291Y-02234*
G37*
G36*
X-00191Y-02334D02*
X-00202D01*
X-00213Y-02337*
X-00223Y-02343*
X-00231Y-02351*
X-00237Y-02361*
X-0024Y-02372*
Y-02384*
X-00237Y-02395*
X-00231Y-02405*
X-00223Y-02413*
X-00213Y-02419*
X-00202Y-02422*
X-00191*
X-00179Y-02419*
X-00169Y-02413*
X-00161Y-02405*
X-00156Y-02395*
X-00153Y-02384*
Y-02372*
X-00156Y-02361*
X-00161Y-02351*
X-00169Y-02343*
X-00179Y-02337*
X-00191Y-02334*
G37*
G36*
X-00427Y-0233D02*
X-0044D01*
X-00453Y-02333*
X-00464Y-0234*
X-00473Y-02349*
X-00479Y-0236*
X-00483Y-02373*
Y-02386*
X-00479Y-02398*
X-00473Y-02409*
X-00464Y-02418*
X-00453Y-02425*
X-0044Y-02428*
X-00427*
X-00415Y-02425*
X-00403Y-02418*
X-00394Y-02409*
X-00389Y-024*
X-00334*
X-00331Y-02405*
X-00323Y-02413*
X-00313Y-02419*
X-00302Y-02422*
X-00291*
X-00279Y-02419*
X-00269Y-02413*
X-00261Y-02405*
X-00256Y-02395*
X-00253Y-02384*
Y-02372*
X-00256Y-02361*
X-00261Y-02351*
X-00269Y-02343*
X-00279Y-02337*
X-00291Y-02334*
X-00302*
X-00313Y-02337*
X-00323Y-02343*
X-00331Y-02351*
X-00335Y-02358*
X-00389*
X-00394Y-02349*
X-00403Y-0234*
X-00415Y-02333*
X-00427Y-0233*
G37*
G36*
X-00735Y-02387D02*
Y-02429D01*
X-00692*
X-00696Y-02417*
X-00702Y-02406*
X-00711Y-02397*
X-00722Y-0239*
X-00735Y-02387*
G37*
G36*
X-00748D02*
X-0076Y-0239D01*
X-00772Y-02397*
X-00781Y-02406*
X-00787Y-02417*
X-0079Y-02429*
X-00748*
Y-02387*
G37*
G36*
X-00692Y-02443D02*
X-00735D01*
Y-02485*
X-00722Y-02482*
X-00711Y-02476*
X-00702Y-02466*
X-00696Y-02455*
X-00692Y-02443*
G37*
G36*
X-00748D02*
X-0079D01*
X-00787Y-02455*
X-00781Y-02466*
X-00772Y-02476*
X-0076Y-02482*
X-00748Y-02485*
Y-02443*
G37*
G36*
X-00191Y-02434D02*
X-00202D01*
X-00213Y-02437*
X-00223Y-02443*
X-00231Y-02451*
X-00237Y-02461*
X-0024Y-02472*
Y-02484*
X-00237Y-02495*
X-00231Y-02505*
X-00223Y-02513*
X-00213Y-02519*
X-00202Y-02522*
X-00191*
X-00179Y-02519*
X-00169Y-02513*
X-00161Y-02505*
X-00156Y-02495*
X-00153Y-02484*
Y-02472*
X-00156Y-02461*
X-00161Y-02451*
X-00169Y-02443*
X-00179Y-02437*
X-00191Y-02434*
G37*
G36*
X-00291D02*
X-00302D01*
X-00313Y-02437*
X-00323Y-02443*
X-00331Y-02451*
X-00337Y-02461*
X-0034Y-02472*
Y-02484*
X-00337Y-02495*
X-00331Y-02505*
X-00323Y-02513*
X-00313Y-02519*
X-00302Y-02522*
X-00291*
X-00279Y-02519*
X-00269Y-02513*
X-00261Y-02505*
X-00256Y-02495*
X-00253Y-02484*
Y-02472*
X-00256Y-02461*
X-00261Y-02451*
X-00269Y-02443*
X-00279Y-02437*
X-00291Y-02434*
G37*
G36*
X-00191Y-02534D02*
X-00202D01*
X-00213Y-02537*
X-00223Y-02543*
X-00231Y-02551*
X-00237Y-02561*
X-0024Y-02572*
Y-02584*
X-00237Y-02595*
X-00231Y-02605*
X-00223Y-02613*
X-00213Y-02619*
X-00202Y-02622*
X-00191*
X-00179Y-02619*
X-00169Y-02613*
X-00161Y-02605*
X-00156Y-02595*
X-00153Y-02584*
Y-02572*
X-00156Y-02561*
X-00161Y-02551*
X-00169Y-02543*
X-00179Y-02537*
X-00191Y-02534*
G37*
G36*
X-00291D02*
X-00302D01*
X-00313Y-02537*
X-00323Y-02543*
X-00331Y-02551*
X-00337Y-02561*
X-0034Y-02572*
Y-02584*
X-00337Y-02595*
X-00331Y-02605*
X-00323Y-02613*
X-00313Y-02619*
X-00302Y-02622*
X-00291*
X-00279Y-02619*
X-00269Y-02613*
X-00261Y-02605*
X-00256Y-02595*
X-00253Y-02584*
Y-02572*
X-00256Y-02561*
X-00261Y-02551*
X-00269Y-02543*
X-00279Y-02537*
X-00291Y-02534*
G37*
G36*
X-00191Y-02634D02*
X-00202D01*
X-00213Y-02637*
X-00223Y-02643*
X-00231Y-02651*
X-00237Y-02661*
X-0024Y-02672*
Y-02684*
X-00237Y-02695*
X-00231Y-02705*
X-00223Y-02713*
X-00213Y-02719*
X-00202Y-02722*
X-00191*
X-00179Y-02719*
X-00169Y-02713*
X-00161Y-02705*
X-00156Y-02695*
X-00153Y-02684*
Y-02672*
X-00156Y-02661*
X-00161Y-02651*
X-00169Y-02643*
X-00179Y-02637*
X-00191Y-02634*
G37*
G36*
X-00291D02*
X-00302D01*
X-00313Y-02637*
X-00323Y-02643*
X-00331Y-02651*
X-00337Y-02661*
X-0034Y-02672*
Y-02684*
X-00337Y-02695*
X-00331Y-02705*
X-00323Y-02713*
X-00313Y-02719*
X-00302Y-02722*
X-00291*
X-00279Y-02719*
X-00269Y-02713*
X-00261Y-02705*
X-00256Y-02695*
X-00253Y-02684*
Y-02672*
X-00256Y-02661*
X-00261Y-02651*
X-00269Y-02643*
X-00279Y-02637*
X-00291Y-02634*
G37*
G36*
X-00068Y-02627D02*
X-00081D01*
X-00094Y-02631*
X-00105Y-02637*
X-00114Y-02646*
X-00121Y-02658*
X-00124Y-0267*
Y-02683*
X-00121Y-02696*
X-00114Y-02707*
X-00105Y-02716*
X-00094Y-02723*
X-00081Y-02726*
X-00068*
X-00056Y-02723*
X-00045Y-02716*
X-00035Y-02707*
X-00029Y-02696*
X-00026Y-02683*
Y-0267*
X-00029Y-02658*
X-00035Y-02646*
X-00045Y-02637*
X-00056Y-02631*
X-00068Y-02627*
G37*
G36*
X-00886Y-02766D02*
Y-02809D01*
X-00844*
X-00847Y-02797*
X-00854Y-02785*
X-00863Y-02776*
X-00874Y-0277*
X-00886Y-02766*
G37*
G36*
X-009D02*
X-00912Y-0277D01*
X-00923Y-02776*
X-00932Y-02785*
X-00939Y-02797*
X-00942Y-02809*
X-009*
Y-02766*
G37*
G36*
X-00291Y-02734D02*
X-00302D01*
X-00313Y-02737*
X-00323Y-02743*
X-00331Y-02751*
X-00337Y-02761*
X-0034Y-02772*
Y-02784*
X-00337Y-02795*
X-00331Y-02805*
X-00323Y-02813*
X-00313Y-02819*
X-00302Y-02822*
X-00291*
X-00279Y-02819*
X-00269Y-02813*
X-00261Y-02805*
X-00256Y-02795*
X-00253Y-02784*
Y-02772*
X-00256Y-02761*
X-00261Y-02751*
X-00269Y-02743*
X-00279Y-02737*
X-00291Y-02734*
G37*
G36*
X-00191D02*
X-00202D01*
X-00213Y-02737*
X-00223Y-02743*
X-00231Y-02751*
X-00237Y-02761*
X-0024Y-02772*
Y-02784*
X-00237Y-02795*
X-00231Y-02805*
X-00223Y-02813*
X-00213Y-02819*
X-00202Y-02822*
X-00191*
X-00184Y-0282*
X-00169Y-02835*
X-0017Y-02837*
X-00175Y-0284*
X-00179Y-02837*
X-00191Y-02834*
X-00202*
X-00213Y-02837*
X-00223Y-02843*
X-00231Y-02851*
X-00237Y-02861*
X-0024Y-02872*
Y-02884*
X-00238Y-0289*
X-00252Y-02904*
X-00255Y-02903*
X-00257Y-02898*
X-00256Y-02895*
X-00253Y-02884*
Y-02872*
X-00256Y-02861*
X-00261Y-02851*
X-00269Y-02843*
X-00279Y-02837*
X-00291Y-02834*
X-00302*
X-00313Y-02837*
X-00323Y-02843*
X-00331Y-02851*
X-00335Y-02857*
X-00372*
X-0038Y-02859*
X-00386Y-02863*
X-00548Y-03025*
X-00555*
X-00562Y-03026*
X-00567Y-0303*
X-00571Y-03036*
X-00573Y-03042*
Y-03067*
X-00571Y-03074*
X-00567Y-0308*
X-00565Y-03081*
Y-03087*
X-00567Y-03089*
X-00571Y-03095*
X-00573Y-03101*
Y-03127*
X-00571Y-03133*
X-0057Y-03135*
X-0057Y-03135*
X-00575Y-03142*
X-00577Y-03151*
Y-03167*
X-00575Y-03175*
X-0057Y-03182*
X-00563Y-03187*
X-0056Y-03188*
Y-03193*
X-00563Y-03193*
X-0057Y-03198*
X-00575Y-03205*
X-00577Y-03214*
Y-03215*
X-00543*
Y-03222*
X-00536*
Y-03252*
X-00531*
X-00522Y-0325*
X-00516Y-03246*
X-0051Y-0325*
X-00501Y-03252*
X-00496*
Y-03222*
X-00482*
Y-03252*
X-00477*
X-00469Y-0325*
X-00463Y-03246*
X-00456Y-0325*
X-00448Y-03252*
X-00443*
Y-03222*
X-00436*
Y-03215*
X-00402*
Y-03214*
X-00404Y-03205*
X-00409Y-03198*
X-00416Y-03193*
X-00419Y-03193*
Y-03188*
X-00416Y-03187*
X-00409Y-03182*
X-00404Y-03175*
X-00402Y-03167*
Y-03151*
X-00404Y-03142*
X-00408Y-03136*
X-00407Y-03135*
X-00406Y-03128*
Y-03103*
X-00407Y-03096*
X-00411Y-03091*
X-00414Y-03089*
Y-03083*
X-00411Y-03081*
X-00409Y-03078*
X-00401*
X-00393Y-03076*
X-00386Y-03071*
X-00341Y-03026*
X-00337Y-03029*
X-00345Y-03044*
X-0035Y-03061*
X-00353Y-03078*
Y-03079*
X-00244*
Y-03086*
Y-03079*
X-00136*
Y-03078*
X-00139Y-03061*
X-00144Y-03044*
X-00152Y-03029*
X-00162Y-03016*
X-00174Y-03003*
X-00188Y-02993*
X-00203Y-02986*
X-00212Y-02983*
X-00212Y-02978*
X-00203*
X-00195Y-02976*
X-00188Y-02971*
X-00131Y-02914*
X-00126Y-02907*
X-00125Y-02899*
Y-02829*
X-00126Y-02821*
X-00131Y-02814*
X-00154Y-0279*
X-00153Y-02784*
Y-02772*
X-00156Y-02761*
X-00161Y-02751*
X-00169Y-02743*
X-00179Y-02737*
X-00191Y-02734*
G37*
G36*
X-00844Y-02822D02*
X-00886D01*
Y-02865*
X-00874Y-02861*
X-00863Y-02855*
X-00854Y-02846*
X-00847Y-02835*
X-00844Y-02822*
G37*
G36*
X-009D02*
X-00942D01*
X-00939Y-02835*
X-00932Y-02846*
X-00923Y-02855*
X-00912Y-02861*
X-009Y-02865*
Y-02822*
G37*
G36*
X-01387Y-02777D02*
X-01389D01*
Y-02883*
X-01284*
Y-02881*
X-01286Y-02863*
X-01292Y-02847*
X-013Y-02831*
X-0131Y-02817*
X-01323Y-02804*
X-01337Y-02794*
X-01353Y-02786*
X-0137Y-0278*
X-01387Y-02777*
G37*
G36*
X-01403D02*
X-01405D01*
X-01422Y-0278*
X-01439Y-02786*
X-01455Y-02794*
X-01469Y-02804*
X-01481Y-02817*
X-01492Y-02831*
X-015Y-02847*
X-01505Y-02863*
X-01508Y-02881*
Y-02883*
X-01403*
Y-02777*
G37*
G36*
X-01284Y-02897D02*
X-01389D01*
Y-03002*
X-01387*
X-0137Y-02999*
X-01353Y-02994*
X-01337Y-02986*
X-01323Y-02975*
X-0131Y-02963*
X-013Y-02948*
X-01292Y-02933*
X-01286Y-02916*
X-01284Y-02898*
Y-02897*
G37*
G36*
X-01403D02*
X-01508D01*
Y-02898*
X-01505Y-02916*
X-015Y-02933*
X-01492Y-02948*
X-01481Y-02963*
X-01469Y-02975*
X-01455Y-02986*
X-01439Y-02994*
X-01422Y-02999*
X-01405Y-03002*
X-01403*
Y-02897*
G37*
G36*
X-00136Y-03093D02*
X-00237D01*
Y-03194*
X-00236*
X-00219Y-03192*
X-00203Y-03186*
X-00188Y-03179*
X-00174Y-03169*
X-00162Y-03157*
X-00152Y-03143*
X-00144Y-03128*
X-00139Y-03111*
X-00136Y-03095*
Y-03093*
G37*
G36*
X-00251D02*
X-00353D01*
Y-03095*
X-0035Y-03111*
X-00345Y-03128*
X-00337Y-03143*
X-00327Y-03157*
X-00315Y-03169*
X-00301Y-03179*
X-00286Y-03186*
X-0027Y-03192*
X-00253Y-03194*
X-00251*
Y-03093*
G37*
G36*
X-00402Y-03229D02*
X-00429D01*
Y-03252*
X-00424*
X-00416Y-0325*
X-00409Y-03245*
X-00404Y-03238*
X-00402Y-0323*
Y-03229*
G37*
G36*
X-0055D02*
X-00577D01*
Y-0323*
X-00575Y-03238*
X-0057Y-03245*
X-00563Y-0325*
X-00554Y-03252*
X-0055*
Y-03229*
G37*
%LNmicrophonearray.main-3*%
%LPD*%
G36*
X-01014Y-01285D02*
X-01006Y-0129D01*
X-00996Y-01292*
X-00927*
X-00923Y-01298*
X-00914Y-01307*
X-00903Y-01314*
X-00897Y-01315*
Y-01321*
X-00903Y-01322*
X-00914Y-01329*
X-00923Y-01338*
X-00928Y-01347*
X-01084*
Y-01334*
X-01075Y-01328*
X-01066Y-01319*
X-0106Y-01308*
X-01056Y-01296*
Y-01283*
X-0106Y-0127*
X-01066Y-01259*
X-01075Y-0125*
X-01083Y-01245*
X-01082Y-0124*
X-01059*
X-01014Y-01285*
G37*
G36*
X-01128Y-01245D02*
X-01136Y-0125D01*
X-01145Y-01259*
X-01151Y-0127*
X-01155Y-01283*
Y-01296*
X-01151Y-01308*
X-01145Y-01319*
X-01136Y-01328*
X-01127Y-01334*
Y-01347*
X-01142*
X-0115Y-01349*
X-01156Y-01353*
X-01209Y-01405*
X-01219Y-01402*
X-01232*
X-01244Y-01406*
X-01256Y-01412*
X-01265Y-01421*
X-01271Y-01433*
X-01273Y-01439*
X-01278*
X-01279Y-01433*
X-01286Y-01421*
X-01295Y-01412*
X-01301Y-01409*
Y-01384*
X-01158Y-0124*
X-01129*
X-01128Y-01245*
G37*
G36*
X-00702Y-01406D02*
Y-01671D01*
X-00704Y-01673*
X-00709Y-0168*
X-0071Y-01688*
Y-01705*
X-00715Y-01709*
X-0072Y-01716*
X-00721Y-01724*
Y-01744*
X-00725Y-01745*
X-00731Y-01749*
X-00735Y-01755*
X-00736Y-01761*
Y-01778*
X-00735Y-01785*
X-00732Y-01788*
X-00735Y-01792*
X-00736Y-01799*
Y-018*
X-007*
X-00664*
Y-01799*
X-00666Y-01792*
X-00668Y-01788*
X-00666Y-01785*
X-00664Y-01778*
Y-01761*
X-00666Y-01755*
X-0067Y-01749*
X-00675Y-01745*
X-00679Y-01744*
Y-01734*
X-00673*
X-00664Y-01732*
X-00657Y-01728*
X-00652Y-0172*
X-00652Y-01717*
X-00646*
X-00646Y-0172*
X-00641Y-01728*
X-00639Y-01729*
Y-01748*
X-0064Y-01749*
X-00644Y-01755*
X-00645Y-01761*
Y-01778*
X-00644Y-01785*
X-00642Y-01788*
X-00644Y-01792*
X-00645Y-01799*
Y-01815*
X-00644Y-01822*
X-00642Y-01826*
X-00644Y-01829*
X-00645Y-01836*
Y-01853*
X-00644Y-01859*
X-00643Y-01862*
X-00646Y-01864*
X-0065Y-01871*
X-00651Y-01874*
X-00656*
X-00657Y-01871*
X-00662Y-01864*
X-00667Y-0186*
X-00666Y-01859*
X-00664Y-01853*
Y-01836*
X-00666Y-01829*
X-00668Y-01826*
X-00666Y-01822*
X-00664Y-01815*
Y-01814*
X-007*
X-00736*
Y-01815*
X-00735Y-01822*
X-00732Y-01826*
X-00735Y-01829*
X-00736Y-01836*
Y-01853*
X-00735Y-01859*
X-00731Y-01865*
X-00728Y-01867*
X-00729Y-01872*
X-00809*
X-00817Y-01874*
X-00824Y-01878*
X-00833Y-01887*
X-00837Y-01885*
X-00835Y-01874*
Y-01862*
X-00838Y-01849*
X-00844Y-01838*
X-00854Y-01829*
X-00865Y-01822*
X-00871Y-01821*
Y-01815*
X-00865Y-01814*
X-00854Y-01807*
X-00844Y-01798*
X-00838Y-01787*
X-00835Y-01774*
Y-01762*
X-00838Y-01749*
X-00844Y-01738*
X-00854Y-01729*
X-00865Y-01722*
X-00871Y-01721*
Y-01715*
X-00865Y-01714*
X-00854Y-01707*
X-00844Y-01698*
X-00838Y-01687*
X-00835Y-01674*
Y-01662*
X-00838Y-01649*
X-00844Y-01638*
X-00854Y-01629*
X-00865Y-01622*
X-00871Y-01621*
Y-01615*
X-00865Y-01614*
X-00854Y-01607*
X-00844Y-01598*
X-00838Y-01587*
X-00835Y-01574*
Y-01562*
X-00838Y-01549*
X-00844Y-01538*
X-00854Y-01529*
X-00865Y-01522*
X-00871Y-01521*
Y-01515*
X-00865Y-01514*
X-00854Y-01507*
X-00844Y-01498*
X-00838Y-01487*
X-00835Y-01475*
X-00884*
X-00933*
X-0093Y-01487*
X-00923Y-01498*
X-00914Y-01507*
X-00903Y-01514*
X-00897Y-01515*
Y-01521*
X-00903Y-01522*
X-00914Y-01529*
X-00923Y-01538*
X-0093Y-01549*
X-00933Y-01562*
Y-01574*
X-0093Y-01587*
X-00923Y-01598*
X-00914Y-01607*
X-00903Y-01614*
X-00897Y-01615*
Y-01621*
X-00903Y-01622*
X-00914Y-01629*
X-00923Y-01638*
X-0093Y-01649*
X-00933Y-01662*
Y-01674*
X-0093Y-01687*
X-00923Y-01698*
X-00914Y-01707*
X-00903Y-01714*
X-00897Y-01715*
Y-01721*
X-00903Y-01722*
X-00914Y-01729*
X-00923Y-01738*
X-0093Y-01749*
X-00933Y-01762*
Y-01774*
X-0093Y-01787*
X-00923Y-01798*
X-00914Y-01807*
X-00903Y-01814*
X-00897Y-01815*
Y-01821*
X-00903Y-01822*
X-00914Y-01829*
X-00923Y-01838*
X-0093Y-01849*
X-00933Y-01862*
Y-01874*
X-0093Y-01885*
X-00935Y-01887*
X-0098Y-01842*
Y-01591*
X-00982Y-01583*
X-00987Y-01577*
X-01026Y-01537*
X-01033Y-01532*
X-01041Y-01531*
X-01181*
X-01186Y-01521*
X-01195Y-01512*
X-01206Y-01506*
X-01212Y-01504*
Y-01499*
X-01206Y-01498*
X-01195Y-01491*
X-01186Y-01482*
X-01179Y-01471*
X-01176Y-01458*
Y-01445*
X-01179Y-01435*
X-01133Y-01389*
X-00928*
X-00923Y-01398*
X-00914Y-01407*
X-00903Y-01414*
X-00897Y-01415*
Y-01421*
X-00903Y-01422*
X-00914Y-01429*
X-00923Y-01438*
X-0093Y-01449*
X-00933Y-01461*
X-00884*
X-00835*
X-00838Y-01449*
X-00844Y-01438*
X-00854Y-01429*
X-00865Y-01422*
X-00871Y-01421*
Y-01415*
X-00865Y-01414*
X-00854Y-01407*
X-00844Y-01398*
X-00839Y-01389*
X-00719*
X-00702Y-01406*
G37*
G36*
X-00787Y-01272D02*
X-00756D01*
X-00497Y-01531*
Y-01645*
X-00499Y-0165*
Y-01657*
X-00497Y-01663*
X-00494Y-01669*
X-00489Y-01674*
X-00489Y-01674*
X-0049Y-01679*
X-0059*
X-00594Y-01673*
X-00596Y-01671*
Y-01648*
X-00591Y-01643*
X-0059Y-01643*
X-00577*
X-00565Y-0164*
X-00554Y-01633*
X-00544Y-01624*
X-00538Y-01613*
X-00535Y-016*
Y-01588*
X-00538Y-01575*
X-00544Y-01564*
X-00554Y-01555*
X-00565Y-01548*
X-00577Y-01545*
X-0059*
X-00603Y-01548*
X-00614Y-01555*
X-00623Y-01564*
X-0063Y-01575*
X-00633Y-01588*
Y-016*
X-0063Y-01613*
X-00626Y-01619*
X-00632Y-01625*
X-00637Y-01632*
X-00639Y-0164*
Y-01671*
X-00641Y-01673*
X-00646Y-0168*
X-00646Y-01683*
X-00652*
X-00652Y-0168*
X-00657Y-01673*
X-00659Y-01671*
Y-01398*
X-00661Y-01389*
X-00666Y-01383*
X-00695Y-01353*
X-00702Y-01349*
X-0071Y-01347*
X-00839*
X-00844Y-01338*
X-00854Y-01329*
X-00865Y-01322*
X-00871Y-01321*
Y-01315*
X-00865Y-01314*
X-00854Y-01307*
X-00844Y-01298*
X-00838Y-01287*
X-00835Y-01274*
Y-01272*
X-0079*
X-00787Y-01272*
G37*
G54D14*
X-00624Y-00578D03*
Y-00515D03*
X-00677Y-00649D03*
Y-00712D03*
X-00436Y-03159D03*
Y-03222D03*
X-00489Y-03159D03*
Y-03222D03*
X-00543Y-03159D03*
Y-03222D03*
X-00449Y-0081D03*
Y-00747D03*
G54D15*
X-00526Y-00867D03*
X-00467D03*
X-00572Y-00521D03*
X-00513D03*
G54D16*
X-00597Y-00792D03*
X-00534D03*
X-0062Y-01246D03*
X-00683D03*
X-00528Y-00917D03*
X-00465D03*
X-00685Y-01891D03*
X-00622D03*
X-0068Y-017D03*
X-00617D03*
X-00512Y-00573D03*
X-00575D03*
G54D17*
X-00531Y-00641D03*
X-00568D03*
X-00606D03*
Y-00732D03*
X-00531D03*
G54D18*
X-0061Y-0177D03*
Y-01807D03*
Y-01844D03*
X-007D03*
Y-01807D03*
Y-0177D03*
G54D19*
X-00436Y-03116D03*
Y-03057D03*
X-00489Y-03114D03*
Y-03055D03*
X-00543Y-03114D03*
Y-03055D03*
G54D31*
X-00445Y-00747D02*
Y-00676D01*
X-00347Y-00578*
X-00543Y-0069D02*
X-00506D01*
X-00449Y-00848D02*
Y-0081D01*
X-00467Y-00867D02*
X-00449Y-00848D01*
X-00527Y-00908D02*
Y-00868D01*
X-00526Y-00867*
X-00528Y-00917D02*
X-00527Y-00917D01*
X-00568Y-00684D02*
Y-00641D01*
X-00614Y-00867D02*
Y-00864D01*
X-00597Y-00848*
Y-00788*
X-00638Y-00761D02*
X-00611Y-00788D01*
X-00638Y-00761D02*
Y-00704D01*
X-0062Y-00792D02*
X-00611D01*
X-00618Y-00684D02*
X-00568D01*
X-00638Y-00704D02*
X-00618Y-00684D01*
X-01396Y-00546D02*
X-00885D01*
X-00455Y-01164D02*
X-00454Y-01164D01*
X-01396Y-0289D02*
Y-02771D01*
Y-03015D02*
Y-0289D01*
X-00347Y-0057D02*
X-00339Y-00578D01*
X-00347Y-0057D02*
Y-00186D01*
Y-00578D02*
X-00339D01*
X-00296*
X-00347Y-00186D02*
X-00339Y-00178D01*
X-00296*
X-00076Y-00075D02*
X-00073Y-00072D01*
X-00196Y-00078D02*
X-00193Y-00075D01*
X-00076*
X-00317Y-02929D02*
X-00275D01*
X-00273Y-02927*
X-00245*
X-00401Y-03057D02*
X-00301Y-02956D01*
X-00203*
X-00146Y-02899*
Y-02829*
X-00348Y-0296D02*
X-00317Y-02929D01*
X-00436Y-03057D02*
X-00401D01*
X-00196Y-02778D02*
X-00146Y-02829D01*
X-00245Y-02927D02*
X-00196Y-02878D01*
X-00296Y-00978D02*
X-00196D01*
X-00296Y-00178D02*
Y-00078D01*
X-00297Y-02379D02*
X-00296Y-02378D01*
X-00433Y-02379D02*
X-00297D01*
X-00434Y-02379D02*
X-00433Y-02379D01*
X-0042Y-01002D02*
X-00296Y-00878D01*
X-0042Y-01692D02*
Y-01002D01*
X-00428Y-017D02*
X-0042Y-01692D01*
X-00617Y-017D02*
X-00428D01*
X-00398Y-0296D02*
X-00348D01*
X-0048Y-03042D02*
X-00398Y-0296D01*
X-0048Y-03046D02*
Y-03042D01*
X-00489Y-03055D02*
X-0048Y-03046D01*
X-00101Y-00921D02*
X-0009Y-0091D01*
X-00139Y-00921D02*
X-00101D01*
X-00185Y-00966D02*
X-00139Y-00921D01*
X-00196Y-00966D02*
X-00185D01*
X-00196Y-00978D02*
Y-00966D01*
X-00372Y-02878D02*
X-00296D01*
X-00534Y-03041D02*
X-00372Y-02878D01*
X-00534Y-03046D02*
Y-03041D01*
X-00543Y-03055D02*
X-00534Y-03046D01*
X-0056Y-01978D02*
X-00296D01*
X-01225Y-01552D02*
X-01041D01*
X-01002Y-01591*
Y-0185D02*
Y-01591D01*
X-0062Y-01246D02*
X-00555D01*
X-01106Y-01368D02*
X-0071D01*
X-0068Y-01398*
Y-017D02*
Y-01398D01*
Y-01705D02*
Y-017D01*
X-00555Y-01246D02*
X-00554Y-01248D01*
X-0062Y-01246D02*
X-0062Y-01246D01*
X-00555D02*
X-00555Y-01246D01*
X-00455Y-01164D02*
X-00454Y-01163D01*
Y-0124D02*
Y-01164D01*
X-00462Y-01248D02*
X-00454Y-0124D01*
X-00554Y-01248D02*
X-00462D01*
X-01325Y-027D02*
Y-01852D01*
X-01396Y-02771D02*
X-01325Y-027D01*
X-01002Y-0185D02*
X-00884Y-01968D01*
X-01225Y-01452D02*
X-01142Y-01368D01*
X-01106*
X-00436Y-03222D02*
X-00261D01*
X-00244Y-03205D02*
Y-03086D01*
X-00261Y-03222D02*
X-00244Y-03205D01*
X-0119Y-03222D02*
X-00543D01*
X-01396Y-03015D02*
X-0119Y-03222D01*
X-00543Y-01807D02*
X-00543Y-01806D01*
X-0061Y-01807D02*
X-00609Y-01807D01*
X-00543*
X-00495Y-00273D02*
X-00424D01*
X-00678Y-0064D02*
X-00673Y-00645D01*
X-00678Y-0064D02*
Y-00603D01*
X-00679Y-00601D02*
X-00678Y-00603D01*
X-00694Y-0057D02*
X-00693Y-00569D01*
X-00665*
X-00708Y-0057D02*
X-00694D01*
X-00664D02*
X-00632D01*
X-00665Y-00569D02*
X-00664Y-0057D01*
X-00708Y-0057D02*
Y-00157D01*
X-00708Y-0057D02*
X-00708Y-0057D01*
X-00632Y-0057D02*
X-00624Y-00578D01*
X-00622Y-00575*
X-00673Y-00645D02*
X-00609D01*
X-00563Y-0067D02*
X-00543Y-0069D01*
X-00609Y-00645D02*
X-00606Y-00641D01*
X-00575Y-00612D02*
X-00573Y-00613D01*
Y-00637D02*
Y-00613D01*
Y-00637D02*
X-00568Y-00641D01*
X-00575Y-00612D02*
Y-00573D01*
X-00577Y-00575D02*
X-00575Y-00573D01*
X-00622Y-00575D02*
X-00577D01*
X-00621Y-00518D02*
X-00575D01*
X-00572Y-00521*
X-00624Y-00515D02*
X-00621Y-00518D01*
X-00436Y-03159D02*
Y-03116D01*
X-00489Y-03159D02*
Y-03114D01*
X-00543Y-03159D02*
Y-03114D01*
X-01106Y-01368D02*
Y-01289D01*
X-00884Y-01968D02*
X-0079D01*
X-00738Y-02019*
X-0056Y-02079D02*
Y-01978D01*
Y-01958*
X-00622Y-01895D02*
X-0056Y-01958D01*
X-00687Y-01893D02*
X-00685Y-01891D01*
X-00809Y-01893D02*
X-00687D01*
X-00884Y-01968D02*
X-00809Y-01893D01*
X-007Y-01872D02*
Y-01844D01*
Y-01872D02*
X-00685Y-01887D01*
Y-01891D02*
Y-01887D01*
X-00622Y-01891D02*
X-00616Y-01885D01*
Y-01849*
X-00611Y-01844*
X-0061*
X-00622Y-01895D02*
Y-01891D01*
X-00745Y-01807D02*
X-00701D01*
X-007Y-01807*
X-00746Y-01806D02*
X-00745Y-01807D01*
X-007Y-01724D02*
X-0068Y-01705D01*
X-007Y-0177D02*
Y-01724D01*
X-00617Y-01765D02*
X-00613Y-0177D01*
X-00617Y-01765D02*
Y-017D01*
X-00613Y-0177D02*
X-0061D01*
X-00617Y-0164D02*
X-00584Y-01606D01*
X-00617Y-017D02*
Y-0164D01*
X-00584Y-01606D02*
Y-01594D01*
X-00489Y-03222D02*
X-00436D01*
X-00543D02*
D01*
X-00489*
G54D32*
X-00431Y-00917D02*
X-00402Y-00888D01*
Y-00823*
X-00534Y-00927D02*
X-00526Y-00919D01*
Y-00908*
X-00683Y-01067D02*
X-00543Y-00927D01*
X-00534*
X-00539Y-00784D02*
X-00532D01*
X-00548Y-00792D02*
X-00539Y-00784D01*
X-00548Y-00792D02*
X-00539Y-00801D01*
X-00532*
X-00531Y-00862D02*
X-00526Y-00866D01*
X-00531Y-00862D02*
Y-00802D01*
X-00532Y-00801D02*
X-00531Y-00802D01*
X-00532Y-00784D02*
X-00531Y-00782D01*
Y-00732*
X-00355Y-00025D02*
X-00196D01*
X-0053Y-00336D02*
Y-002D01*
X-00355Y-00025*
X-01084Y-01216D02*
X-01049D01*
X-01167D02*
X-01084D01*
Y-01143D02*
X-01082Y-01141D01*
X-01084Y-01216D02*
Y-01143D01*
X-0053Y-00336D02*
X-00513Y-00353D01*
Y-00521D02*
Y-00353D01*
X-00745Y-01249D02*
X-00473Y-01521D01*
X-00683Y-01246D02*
Y-01067D01*
X-00473Y-01654D02*
Y-01521D01*
X-00745Y-01249D02*
X-00744Y-01247D01*
X-00684*
X-00746Y-01248D02*
X-00745Y-01249D01*
X-00684Y-01247D02*
X-00683Y-01246D01*
X-00868Y-01268D02*
X-00848Y-01248D01*
X-00884Y-01268D02*
X-00868D01*
X-00996D02*
X-00884D01*
X-01049Y-01216D02*
X-00996Y-01268D01*
X-01325Y-01374D02*
X-01167Y-01216D01*
X-01325Y-01452D02*
Y-01374D01*
X-00848Y-01248D02*
X-00788D01*
X-00787Y-01248D02*
X-00746D01*
X-00788Y-01248D02*
X-00787Y-01248D01*
X-00465Y-00917D02*
X-00431D01*
X-00525Y-00627D02*
X-00512Y-00613D01*
X-00526Y-00627D02*
X-00525D01*
X-00512Y-00613D02*
Y-00573D01*
X-00531Y-00632D02*
X-00526Y-00627D01*
X-00531Y-00641D02*
Y-00632D01*
X-00513Y-00572D02*
Y-00522D01*
X-00513Y-00521D02*
X-00513Y-00522D01*
Y-00572D02*
X-00512Y-00573D01*
G54D33*
X-00073Y-00072D03*
X-01082Y-01141D03*
X-01325Y-01852D03*
Y-01452D03*
Y-01552D03*
Y-01652D03*
Y-01752D03*
X-01225Y-01552D03*
Y-01652D03*
Y-01752D03*
Y-01452D03*
Y-01852D03*
X-00063Y-00502D03*
X-01282Y-01024D03*
X-01068Y-00275D03*
X-00741Y-02436D03*
X-00893Y-02816D03*
X-00069Y-01844D03*
X-00884Y-01268D03*
Y-02068D03*
Y-01368D03*
Y-01468D03*
Y-01568D03*
Y-01668D03*
Y-01768D03*
Y-01868D03*
Y-01968D03*
Y-02168D03*
X-00778Y-01026D03*
X-00542Y-01064D03*
X-00555Y-02071D03*
X-00738Y-02019D03*
X-00068Y-01556D03*
X-00434Y-02379D03*
X-00075Y-02677D03*
X-00584Y-01594D03*
X-01106Y-01289D03*
X-00074Y-01078D03*
X-0009Y-0091D03*
G54D34*
X-00196Y-02778D03*
X-00296Y-00178D03*
Y-00278D03*
Y-00378D03*
Y-00478D03*
Y-00578D03*
Y-00678D03*
Y-00778D03*
Y-00878D03*
Y-00978D03*
Y-01078D03*
Y-01178D03*
Y-01278D03*
Y-01378D03*
Y-01478D03*
Y-01578D03*
Y-01678D03*
Y-01778D03*
Y-01878D03*
Y-01978D03*
Y-02078D03*
Y-02178D03*
Y-02278D03*
Y-02378D03*
Y-02478D03*
Y-02578D03*
Y-02678D03*
Y-02778D03*
X-00196Y-00178D03*
Y-00278D03*
Y-00378D03*
Y-00478D03*
Y-00578D03*
Y-00678D03*
Y-00778D03*
Y-00878D03*
Y-00978D03*
Y-01078D03*
Y-01178D03*
Y-01278D03*
Y-01378D03*
Y-01478D03*
Y-01578D03*
Y-01678D03*
Y-01778D03*
Y-01878D03*
Y-01978D03*
Y-02078D03*
Y-02178D03*
Y-02278D03*
Y-02378D03*
Y-02478D03*
Y-02578D03*
Y-02678D03*
X-00296Y-02878D03*
X-00196D03*
X-00296Y-00078D03*
X-00196D03*
G54D35*
X-01396Y-0289D03*
Y-00546D03*
G54D36*
X-00244Y-03086D03*
X-00708Y-00157D03*
G54D37*
X-01042Y-01819D03*
Y-01768D03*
Y-0171D03*
X-01092Y-02051D03*
X-01113Y-01959D03*
X-0111Y-01885D03*
Y-01696D03*
X-01045Y-01902D03*
X-0111Y-01771D03*
X-01004Y-02013D03*
X-01045Y-01968D03*
X-00985Y-02056D03*
X-00969Y-01813D03*
Y-0175D03*
X-00954Y-01852D03*
Y-01694D03*
X-0094Y-02047D03*
X-00937Y-02104D03*
X-00455Y-01365D03*
X-00966Y-01608D03*
X-00778Y-01418D03*
X-00787Y-01535D03*
X-0092Y-01519D03*
X-00989Y-01552D03*
X-00979Y-01434D03*
X-00402Y-00823D03*
X-00614Y-00867D03*
X-00247Y-01953D03*
X-00254Y-02015D03*
X-00261Y-00921D03*
X-00098Y-00157D03*
Y-00551D03*
Y-01732D03*
Y-02913D03*
X-00393Y-02322D03*
Y-02716D03*
X-00492Y-02125D03*
X-0059Y-02322D03*
X-00492Y-02519D03*
X-0059Y-02716D03*
X-00492Y-02913D03*
X-00787Y-00354D03*
Y-00748D03*
X-00688Y-00944D03*
Y-02125D03*
X-00787Y-02322D03*
X-00688Y-02519D03*
X-00787Y-02716D03*
X-00688Y-02913D03*
X-00787Y-0311D03*
X-00885Y-00157D03*
X-00984Y-00354D03*
X-00885Y-00551D03*
X-00984Y-00748D03*
X-00885Y-00944D03*
X-00984Y-01141D03*
Y-02322D03*
X-00885Y-02519D03*
X-00984Y-02716D03*
X-00885Y-02913D03*
X-00984Y-0311D03*
X-01082Y-00157D03*
X-01181Y-00354D03*
X-01082Y-00551D03*
X-01181Y-00748D03*
X-01082Y-00944D03*
X-01181Y-01141D03*
X-01082Y-02125D03*
X-01181Y-02322D03*
X-01082Y-02519D03*
X-01181Y-02716D03*
X-01082Y-02913D03*
X-01181Y-0311D03*
X-01279Y-00157D03*
X-01377Y-00354D03*
Y-00748D03*
X-01279Y-00944D03*
X-01377Y-01141D03*
Y-01929D03*
X-01279Y-02125D03*
X-01377Y-02322D03*
X-01279Y-02519D03*
X-01377Y-02716D03*
Y-0311D03*
X-00618Y-01946D03*
X-00592Y-02004D03*
X-00501Y-02011D03*
X-00438D03*
X-00375D03*
X-00361Y-01945D03*
X-00424D03*
X-00487D03*
X-00546Y-01925D03*
X-00565Y-01864D03*
X-00358Y-00893D03*
X-00446Y-00983D03*
X-00453Y-01297D03*
Y-01423D03*
Y-01486D03*
X-00533Y-01629D03*
X-00529Y-01566D03*
X-00583Y-01533D03*
X-00637Y-01564D03*
X-00647Y-01626D03*
X-00548Y-01733D03*
X-00422Y-01732D03*
X-00387Y-0168D03*
Y-01617D03*
Y-01554D03*
Y-01491D03*
Y-01428D03*
Y-01365D03*
Y-01302D03*
Y-01176D03*
Y-01113D03*
Y-0105D03*
X-00363Y-00991D03*
X-01154Y-01585D03*
X-01091D03*
X-00923Y-02015D03*
X-00719Y-01926D03*
X-00656Y-01929D03*
X-00773Y-0186D03*
X-01093Y-01519D03*
X-01156D03*
X-01174Y-01354D03*
X-01225Y-0139D03*
X-01169Y-01476D03*
X-01145Y-01418D03*
X-01084Y-01401D03*
X-00715Y-01409D03*
X-00713Y-01472D03*
Y-01661D03*
X-00648Y-01444D03*
X-0101Y-01334D03*
X-01062Y-01333D03*
X-01124Y-01819D03*
X-01168Y-01773D03*
X-00733Y-01174D03*
X-00859Y-01179D03*
X-00922D03*
X-01048Y-01402D03*
X-01045Y-01458D03*
X-0105Y-01519D03*
X-01045Y-0163D03*
X-0109D03*
X-01153Y-01634D03*
X-0117Y-01885D03*
X-00984Y-0216D03*
X-00745Y-01249D03*
X-00543Y-01806D03*
X-00555Y-01246D03*
X-00454Y-01163D03*
X-00473Y-01654D03*
X-00679Y-00601D03*
X-00495Y-00273D03*
X-00424D03*
X-00746Y-01806D03*
M02*