%FSTAX23Y23*%
%MOIN*%
%SFA1B1*%

%IPPOS*%
%ADD43C,0.002000*%
%ADD44C,0.002665*%
%LNmicrophonearray.main-1*%
%LPD*%
G54D43*
X-00081Y-0008D02*
Y-00064D01*
X-00065*
Y-0008*
X-00081*
X-0109Y-01149D02*
Y-01133D01*
X-01074*
Y-01149*
X-0109*
X-01333Y-0186D02*
Y-01844D01*
X-01317*
Y-0186*
X-01333*
Y-0146D02*
Y-01444D01*
X-01317*
Y-0146*
X-01333*
Y-0156D02*
Y-01544D01*
X-01317*
Y-0156*
X-01333*
Y-0166D02*
Y-01644D01*
X-01317*
Y-0166*
X-01333*
Y-0176D02*
Y-01744D01*
X-01317*
Y-0176*
X-01333*
X-01233Y-0156D02*
Y-01544D01*
X-01217*
Y-0156*
X-01233*
Y-0166D02*
Y-01644D01*
X-01217*
Y-0166*
X-01233*
Y-0176D02*
Y-01744D01*
X-01217*
Y-0176*
X-01233*
Y-0146D02*
Y-01444D01*
X-01217*
Y-0146*
X-01233*
Y-0186D02*
Y-01844D01*
X-01217*
Y-0186*
X-01233*
X-00071Y-0051D02*
Y-00494D01*
X-00055*
Y-0051*
X-00071*
X-0129Y-01032D02*
Y-01016D01*
X-01274*
Y-01032*
X-0129*
X-01076Y-00283D02*
Y-00267D01*
X-0106*
Y-00283*
X-01076*
X-00749Y-02444D02*
Y-02428D01*
X-00733*
Y-02444*
X-00749*
X-00901Y-02824D02*
Y-02808D01*
X-00885*
Y-02824*
X-00901*
X-00077Y-01852D02*
Y-01836D01*
X-00061*
Y-01852*
X-00077*
X-00892Y-01276D02*
Y-0126D01*
X-00876*
Y-01276*
X-00892*
Y-02076D02*
Y-0206D01*
X-00876*
Y-02076*
X-00892*
Y-01376D02*
Y-0136D01*
X-00876*
Y-01376*
X-00892*
Y-01476D02*
Y-0146D01*
X-00876*
Y-01476*
X-00892*
Y-01576D02*
Y-0156D01*
X-00876*
Y-01576*
X-00892*
Y-01676D02*
Y-0166D01*
X-00876*
Y-01676*
X-00892*
Y-01776D02*
Y-0176D01*
X-00876*
Y-01776*
X-00892*
Y-01876D02*
Y-0186D01*
X-00876*
Y-01876*
X-00892*
Y-01976D02*
Y-0196D01*
X-00876*
Y-01976*
X-00892*
Y-02176D02*
Y-0216D01*
X-00876*
Y-02176*
X-00892*
X-00786Y-01034D02*
Y-01018D01*
X-0077*
Y-01034*
X-00786*
X-0055Y-01072D02*
Y-01056D01*
X-00534*
Y-01072*
X-0055*
X-00563Y-02079D02*
Y-02063D01*
X-00547*
Y-02079*
X-00563*
X-00746Y-02027D02*
Y-02011D01*
X-0073*
Y-02027*
X-00746*
X-00076Y-01564D02*
Y-01548D01*
X-0006*
Y-01564*
X-00076*
X-00442Y-02387D02*
Y-02371D01*
X-00426*
Y-02387*
X-00442*
X-00083Y-02685D02*
Y-02669D01*
X-00067*
Y-02685*
X-00083*
X-00592Y-01602D02*
Y-01586D01*
X-00576*
Y-01602*
X-00592*
X-01114Y-01297D02*
Y-01281D01*
X-01098*
Y-01297*
X-01114*
X-00082Y-01086D02*
Y-0107D01*
X-00066*
Y-01086*
X-00082*
X-00098Y-00918D02*
Y-00902D01*
X-00082*
Y-00918*
X-00098*
X-01396Y-02898D02*
X-01404Y-02882D01*
X-01388*
X-01396Y-02898*
Y-00554D02*
X-01404Y-00538D01*
X-01388*
X-01396Y-00554*
X-00244Y-03094D02*
X-0024Y-0309D01*
X-00236*
X-0024Y-03086*
X-00236Y-03082*
X-0024*
X-00244Y-03078*
X-00248Y-03082*
X-00252*
X-00248Y-03086*
X-00252Y-0309*
X-00248*
X-00244Y-03094*
X-00708Y-00165D02*
X-00704Y-00161D01*
X-007*
X-00704Y-00157*
X-007Y-00153*
X-00704*
X-00708Y-00149*
X-00712Y-00153*
X-00716*
X-00712Y-00157*
X-00716Y-00161*
X-00712*
X-00708Y-00165*
X-0105Y-01827D02*
X-01046Y-01819D01*
X-0105Y-01811*
X-01042Y-01815*
X-01034Y-01811*
X-01038Y-01819*
X-01034Y-01827*
X-01042Y-01823*
X-0105Y-01827*
Y-01776D02*
X-01046Y-01768D01*
X-0105Y-0176*
X-01042Y-01764*
X-01034Y-0176*
X-01038Y-01768*
X-01034Y-01776*
X-01042Y-01772*
X-0105Y-01776*
Y-01718D02*
X-01046Y-0171D01*
X-0105Y-01702*
X-01042Y-01706*
X-01034Y-01702*
X-01038Y-0171*
X-01034Y-01718*
X-01042Y-01714*
X-0105Y-01718*
X-011Y-02059D02*
X-01096Y-02051D01*
X-011Y-02043*
X-01092Y-02047*
X-01084Y-02043*
X-01088Y-02051*
X-01084Y-02059*
X-01092Y-02055*
X-011Y-02059*
X-01121Y-01967D02*
X-01117Y-01959D01*
X-01121Y-01951*
X-01113Y-01955*
X-01105Y-01951*
X-01109Y-01959*
X-01105Y-01967*
X-01113Y-01963*
X-01121Y-01967*
X-01118Y-01893D02*
X-01114Y-01885D01*
X-01118Y-01877*
X-0111Y-01881*
X-01102Y-01877*
X-01106Y-01885*
X-01102Y-01893*
X-0111Y-01889*
X-01118Y-01893*
Y-01704D02*
X-01114Y-01696D01*
X-01118Y-01688*
X-0111Y-01692*
X-01102Y-01688*
X-01106Y-01696*
X-01102Y-01704*
X-0111Y-017*
X-01118Y-01704*
X-01053Y-0191D02*
X-01049Y-01902D01*
X-01053Y-01894*
X-01045Y-01898*
X-01037Y-01894*
X-01041Y-01902*
X-01037Y-0191*
X-01045Y-01906*
X-01053Y-0191*
X-01118Y-01779D02*
X-01114Y-01771D01*
X-01118Y-01763*
X-0111Y-01767*
X-01102Y-01763*
X-01106Y-01771*
X-01102Y-01779*
X-0111Y-01775*
X-01118Y-01779*
X-01012Y-02021D02*
X-01008Y-02013D01*
X-01012Y-02005*
X-01004Y-02009*
X-00996Y-02005*
X-01Y-02013*
X-00996Y-02021*
X-01004Y-02017*
X-01012Y-02021*
X-01053Y-01976D02*
X-01049Y-01968D01*
X-01053Y-0196*
X-01045Y-01964*
X-01037Y-0196*
X-01041Y-01968*
X-01037Y-01976*
X-01045Y-01972*
X-01053Y-01976*
X-00993Y-02064D02*
X-00989Y-02056D01*
X-00993Y-02048*
X-00985Y-02052*
X-00977Y-02048*
X-00981Y-02056*
X-00977Y-02064*
X-00985Y-0206*
X-00993Y-02064*
X-00977Y-01821D02*
X-00973Y-01813D01*
X-00977Y-01805*
X-00969Y-01809*
X-00961Y-01805*
X-00965Y-01813*
X-00961Y-01821*
X-00969Y-01817*
X-00977Y-01821*
Y-01758D02*
X-00973Y-0175D01*
X-00977Y-01742*
X-00969Y-01746*
X-00961Y-01742*
X-00965Y-0175*
X-00961Y-01758*
X-00969Y-01754*
X-00977Y-01758*
X-00962Y-0186D02*
X-00958Y-01852D01*
X-00962Y-01844*
X-00954Y-01848*
X-00946Y-01844*
X-0095Y-01852*
X-00946Y-0186*
X-00954Y-01856*
X-00962Y-0186*
Y-01702D02*
X-00958Y-01694D01*
X-00962Y-01686*
X-00954Y-0169*
X-00946Y-01686*
X-0095Y-01694*
X-00946Y-01702*
X-00954Y-01698*
X-00962Y-01702*
X-00948Y-02055D02*
X-00944Y-02047D01*
X-00948Y-02039*
X-0094Y-02043*
X-00932Y-02039*
X-00936Y-02047*
X-00932Y-02055*
X-0094Y-02051*
X-00948Y-02055*
X-00945Y-02112D02*
X-00941Y-02104D01*
X-00945Y-02096*
X-00937Y-021*
X-00929Y-02096*
X-00933Y-02104*
X-00929Y-02112*
X-00937Y-02108*
X-00945Y-02112*
X-00463Y-01373D02*
X-00459Y-01365D01*
X-00463Y-01357*
X-00455Y-01361*
X-00447Y-01357*
X-00451Y-01365*
X-00447Y-01373*
X-00455Y-01369*
X-00463Y-01373*
X-00974Y-01616D02*
X-0097Y-01608D01*
X-00974Y-016*
X-00966Y-01604*
X-00958Y-016*
X-00962Y-01608*
X-00958Y-01616*
X-00966Y-01612*
X-00974Y-01616*
X-00786Y-01426D02*
X-00782Y-01418D01*
X-00786Y-0141*
X-00778Y-01414*
X-0077Y-0141*
X-00774Y-01418*
X-0077Y-01426*
X-00778Y-01422*
X-00786Y-01426*
X-00795Y-01543D02*
X-00791Y-01535D01*
X-00795Y-01527*
X-00787Y-01531*
X-00779Y-01527*
X-00783Y-01535*
X-00779Y-01543*
X-00787Y-01539*
X-00795Y-01543*
X-00928Y-01527D02*
X-00924Y-01519D01*
X-00928Y-01511*
X-0092Y-01515*
X-00912Y-01511*
X-00916Y-01519*
X-00912Y-01527*
X-0092Y-01523*
X-00928Y-01527*
X-00997Y-0156D02*
X-00993Y-01552D01*
X-00997Y-01544*
X-00989Y-01548*
X-00981Y-01544*
X-00985Y-01552*
X-00981Y-0156*
X-00989Y-01556*
X-00997Y-0156*
X-00987Y-01442D02*
X-00983Y-01434D01*
X-00987Y-01426*
X-00979Y-0143*
X-00971Y-01426*
X-00975Y-01434*
X-00971Y-01442*
X-00979Y-01438*
X-00987Y-01442*
X-0041Y-00831D02*
X-00406Y-00823D01*
X-0041Y-00815*
X-00402Y-00819*
X-00394Y-00815*
X-00398Y-00823*
X-00394Y-00831*
X-00402Y-00827*
X-0041Y-00831*
X-00622Y-00875D02*
X-00618Y-00867D01*
X-00622Y-00859*
X-00614Y-00863*
X-00606Y-00859*
X-0061Y-00867*
X-00606Y-00875*
X-00614Y-00871*
X-00622Y-00875*
X-00255Y-01961D02*
X-00251Y-01953D01*
X-00255Y-01945*
X-00247Y-01949*
X-00239Y-01945*
X-00243Y-01953*
X-00239Y-01961*
X-00247Y-01957*
X-00255Y-01961*
X-00262Y-02023D02*
X-00258Y-02015D01*
X-00262Y-02007*
X-00254Y-02011*
X-00246Y-02007*
X-0025Y-02015*
X-00246Y-02023*
X-00254Y-02019*
X-00262Y-02023*
X-00269Y-00929D02*
X-00265Y-00921D01*
X-00269Y-00913*
X-00261Y-00917*
X-00253Y-00913*
X-00257Y-00921*
X-00253Y-00929*
X-00261Y-00925*
X-00269Y-00929*
X-00106Y-00165D02*
X-00102Y-00157D01*
X-00106Y-00149*
X-00098Y-00153*
X-0009Y-00149*
X-00094Y-00157*
X-0009Y-00165*
X-00098Y-00161*
X-00106Y-00165*
Y-00559D02*
X-00102Y-00551D01*
X-00106Y-00543*
X-00098Y-00547*
X-0009Y-00543*
X-00094Y-00551*
X-0009Y-00559*
X-00098Y-00555*
X-00106Y-00559*
Y-0174D02*
X-00102Y-01732D01*
X-00106Y-01724*
X-00098Y-01728*
X-0009Y-01724*
X-00094Y-01732*
X-0009Y-0174*
X-00098Y-01736*
X-00106Y-0174*
Y-02921D02*
X-00102Y-02913D01*
X-00106Y-02905*
X-00098Y-02909*
X-0009Y-02905*
X-00094Y-02913*
X-0009Y-02921*
X-00098Y-02917*
X-00106Y-02921*
X-00401Y-0233D02*
X-00397Y-02322D01*
X-00401Y-02314*
X-00393Y-02318*
X-00385Y-02314*
X-00389Y-02322*
X-00385Y-0233*
X-00393Y-02326*
X-00401Y-0233*
Y-02724D02*
X-00397Y-02716D01*
X-00401Y-02708*
X-00393Y-02712*
X-00385Y-02708*
X-00389Y-02716*
X-00385Y-02724*
X-00393Y-0272*
X-00401Y-02724*
X-005Y-02133D02*
X-00496Y-02125D01*
X-005Y-02117*
X-00492Y-02121*
X-00484Y-02117*
X-00488Y-02125*
X-00484Y-02133*
X-00492Y-02129*
X-005Y-02133*
X-00598Y-0233D02*
X-00594Y-02322D01*
X-00598Y-02314*
X-0059Y-02318*
X-00582Y-02314*
X-00586Y-02322*
X-00582Y-0233*
X-0059Y-02326*
X-00598Y-0233*
X-005Y-02527D02*
X-00496Y-02519D01*
X-005Y-02511*
X-00492Y-02515*
X-00484Y-02511*
X-00488Y-02519*
X-00484Y-02527*
X-00492Y-02523*
X-005Y-02527*
X-00598Y-02724D02*
X-00594Y-02716D01*
X-00598Y-02708*
X-0059Y-02712*
X-00582Y-02708*
X-00586Y-02716*
X-00582Y-02724*
X-0059Y-0272*
X-00598Y-02724*
X-005Y-02921D02*
X-00496Y-02913D01*
X-005Y-02905*
X-00492Y-02909*
X-00484Y-02905*
X-00488Y-02913*
X-00484Y-02921*
X-00492Y-02917*
X-005Y-02921*
X-00795Y-00362D02*
X-00791Y-00354D01*
X-00795Y-00346*
X-00787Y-0035*
X-00779Y-00346*
X-00783Y-00354*
X-00779Y-00362*
X-00787Y-00358*
X-00795Y-00362*
Y-00756D02*
X-00791Y-00748D01*
X-00795Y-0074*
X-00787Y-00744*
X-00779Y-0074*
X-00783Y-00748*
X-00779Y-00756*
X-00787Y-00752*
X-00795Y-00756*
X-00696Y-00952D02*
X-00692Y-00944D01*
X-00696Y-00936*
X-00688Y-0094*
X-0068Y-00936*
X-00684Y-00944*
X-0068Y-00952*
X-00688Y-00948*
X-00696Y-00952*
Y-02133D02*
X-00692Y-02125D01*
X-00696Y-02117*
X-00688Y-02121*
X-0068Y-02117*
X-00684Y-02125*
X-0068Y-02133*
X-00688Y-02129*
X-00696Y-02133*
X-00795Y-0233D02*
X-00791Y-02322D01*
X-00795Y-02314*
X-00787Y-02318*
X-00779Y-02314*
X-00783Y-02322*
X-00779Y-0233*
X-00787Y-02326*
X-00795Y-0233*
X-00696Y-02527D02*
X-00692Y-02519D01*
X-00696Y-02511*
X-00688Y-02515*
X-0068Y-02511*
X-00684Y-02519*
X-0068Y-02527*
X-00688Y-02523*
X-00696Y-02527*
X-00795Y-02724D02*
X-00791Y-02716D01*
X-00795Y-02708*
X-00787Y-02712*
X-00779Y-02708*
X-00783Y-02716*
X-00779Y-02724*
X-00787Y-0272*
X-00795Y-02724*
X-00696Y-02921D02*
X-00692Y-02913D01*
X-00696Y-02905*
X-00688Y-02909*
X-0068Y-02905*
X-00684Y-02913*
X-0068Y-02921*
X-00688Y-02917*
X-00696Y-02921*
X-00795Y-03118D02*
X-00791Y-0311D01*
X-00795Y-03102*
X-00787Y-03106*
X-00779Y-03102*
X-00783Y-0311*
X-00779Y-03118*
X-00787Y-03114*
X-00795Y-03118*
X-00893Y-00165D02*
X-00889Y-00157D01*
X-00893Y-00149*
X-00885Y-00153*
X-00877Y-00149*
X-00881Y-00157*
X-00877Y-00165*
X-00885Y-00161*
X-00893Y-00165*
X-00992Y-00362D02*
X-00988Y-00354D01*
X-00992Y-00346*
X-00984Y-0035*
X-00976Y-00346*
X-0098Y-00354*
X-00976Y-00362*
X-00984Y-00358*
X-00992Y-00362*
X-00893Y-00559D02*
X-00889Y-00551D01*
X-00893Y-00543*
X-00885Y-00547*
X-00877Y-00543*
X-00881Y-00551*
X-00877Y-00559*
X-00885Y-00555*
X-00893Y-00559*
X-00992Y-00756D02*
X-00988Y-00748D01*
X-00992Y-0074*
X-00984Y-00744*
X-00976Y-0074*
X-0098Y-00748*
X-00976Y-00756*
X-00984Y-00752*
X-00992Y-00756*
X-00893Y-00952D02*
X-00889Y-00944D01*
X-00893Y-00936*
X-00885Y-0094*
X-00877Y-00936*
X-00881Y-00944*
X-00877Y-00952*
X-00885Y-00948*
X-00893Y-00952*
X-00992Y-01149D02*
X-00988Y-01141D01*
X-00992Y-01133*
X-00984Y-01137*
X-00976Y-01133*
X-0098Y-01141*
X-00976Y-01149*
X-00984Y-01145*
X-00992Y-01149*
Y-0233D02*
X-00988Y-02322D01*
X-00992Y-02314*
X-00984Y-02318*
X-00976Y-02314*
X-0098Y-02322*
X-00976Y-0233*
X-00984Y-02326*
X-00992Y-0233*
X-00893Y-02527D02*
X-00889Y-02519D01*
X-00893Y-02511*
X-00885Y-02515*
X-00877Y-02511*
X-00881Y-02519*
X-00877Y-02527*
X-00885Y-02523*
X-00893Y-02527*
X-00992Y-02724D02*
X-00988Y-02716D01*
X-00992Y-02708*
X-00984Y-02712*
X-00976Y-02708*
X-0098Y-02716*
X-00976Y-02724*
X-00984Y-0272*
X-00992Y-02724*
X-00893Y-02921D02*
X-00889Y-02913D01*
X-00893Y-02905*
X-00885Y-02909*
X-00877Y-02905*
X-00881Y-02913*
X-00877Y-02921*
X-00885Y-02917*
X-00893Y-02921*
X-00992Y-03118D02*
X-00988Y-0311D01*
X-00992Y-03102*
X-00984Y-03106*
X-00976Y-03102*
X-0098Y-0311*
X-00976Y-03118*
X-00984Y-03114*
X-00992Y-03118*
X-0109Y-00165D02*
X-01086Y-00157D01*
X-0109Y-00149*
X-01082Y-00153*
X-01074Y-00149*
X-01078Y-00157*
X-01074Y-00165*
X-01082Y-00161*
X-0109Y-00165*
X-01189Y-00362D02*
X-01185Y-00354D01*
X-01189Y-00346*
X-01181Y-0035*
X-01173Y-00346*
X-01177Y-00354*
X-01173Y-00362*
X-01181Y-00358*
X-01189Y-00362*
X-0109Y-00559D02*
X-01086Y-00551D01*
X-0109Y-00543*
X-01082Y-00547*
X-01074Y-00543*
X-01078Y-00551*
X-01074Y-00559*
X-01082Y-00555*
X-0109Y-00559*
X-01189Y-00756D02*
X-01185Y-00748D01*
X-01189Y-0074*
X-01181Y-00744*
X-01173Y-0074*
X-01177Y-00748*
X-01173Y-00756*
X-01181Y-00752*
X-01189Y-00756*
X-0109Y-00952D02*
X-01086Y-00944D01*
X-0109Y-00936*
X-01082Y-0094*
X-01074Y-00936*
X-01078Y-00944*
X-01074Y-00952*
X-01082Y-00948*
X-0109Y-00952*
X-01189Y-01149D02*
X-01185Y-01141D01*
X-01189Y-01133*
X-01181Y-01137*
X-01173Y-01133*
X-01177Y-01141*
X-01173Y-01149*
X-01181Y-01145*
X-01189Y-01149*
X-0109Y-02133D02*
X-01086Y-02125D01*
X-0109Y-02117*
X-01082Y-02121*
X-01074Y-02117*
X-01078Y-02125*
X-01074Y-02133*
X-01082Y-02129*
X-0109Y-02133*
X-01189Y-0233D02*
X-01185Y-02322D01*
X-01189Y-02314*
X-01181Y-02318*
X-01173Y-02314*
X-01177Y-02322*
X-01173Y-0233*
X-01181Y-02326*
X-01189Y-0233*
X-0109Y-02527D02*
X-01086Y-02519D01*
X-0109Y-02511*
X-01082Y-02515*
X-01074Y-02511*
X-01078Y-02519*
X-01074Y-02527*
X-01082Y-02523*
X-0109Y-02527*
X-01189Y-02724D02*
X-01185Y-02716D01*
X-01189Y-02708*
X-01181Y-02712*
X-01173Y-02708*
X-01177Y-02716*
X-01173Y-02724*
X-01181Y-0272*
X-01189Y-02724*
X-0109Y-02921D02*
X-01086Y-02913D01*
X-0109Y-02905*
X-01082Y-02909*
X-01074Y-02905*
X-01078Y-02913*
X-01074Y-02921*
X-01082Y-02917*
X-0109Y-02921*
X-01189Y-03118D02*
X-01185Y-0311D01*
X-01189Y-03102*
X-01181Y-03106*
X-01173Y-03102*
X-01177Y-0311*
X-01173Y-03118*
X-01181Y-03114*
X-01189Y-03118*
X-01287Y-00165D02*
X-01283Y-00157D01*
X-01287Y-00149*
X-01279Y-00153*
X-01271Y-00149*
X-01275Y-00157*
X-01271Y-00165*
X-01279Y-00161*
X-01287Y-00165*
X-01385Y-00362D02*
X-01381Y-00354D01*
X-01385Y-00346*
X-01377Y-0035*
X-01369Y-00346*
X-01373Y-00354*
X-01369Y-00362*
X-01377Y-00358*
X-01385Y-00362*
Y-00756D02*
X-01381Y-00748D01*
X-01385Y-0074*
X-01377Y-00744*
X-01369Y-0074*
X-01373Y-00748*
X-01369Y-00756*
X-01377Y-00752*
X-01385Y-00756*
X-01287Y-00952D02*
X-01283Y-00944D01*
X-01287Y-00936*
X-01279Y-0094*
X-01271Y-00936*
X-01275Y-00944*
X-01271Y-00952*
X-01279Y-00948*
X-01287Y-00952*
X-01385Y-01149D02*
X-01381Y-01141D01*
X-01385Y-01133*
X-01377Y-01137*
X-01369Y-01133*
X-01373Y-01141*
X-01369Y-01149*
X-01377Y-01145*
X-01385Y-01149*
Y-01937D02*
X-01381Y-01929D01*
X-01385Y-01921*
X-01377Y-01925*
X-01369Y-01921*
X-01373Y-01929*
X-01369Y-01937*
X-01377Y-01933*
X-01385Y-01937*
X-01287Y-02133D02*
X-01283Y-02125D01*
X-01287Y-02117*
X-01279Y-02121*
X-01271Y-02117*
X-01275Y-02125*
X-01271Y-02133*
X-01279Y-02129*
X-01287Y-02133*
X-01385Y-0233D02*
X-01381Y-02322D01*
X-01385Y-02314*
X-01377Y-02318*
X-01369Y-02314*
X-01373Y-02322*
X-01369Y-0233*
X-01377Y-02326*
X-01385Y-0233*
X-01287Y-02527D02*
X-01283Y-02519D01*
X-01287Y-02511*
X-01279Y-02515*
X-01271Y-02511*
X-01275Y-02519*
X-01271Y-02527*
X-01279Y-02523*
X-01287Y-02527*
X-01385Y-02724D02*
X-01381Y-02716D01*
X-01385Y-02708*
X-01377Y-02712*
X-01369Y-02708*
X-01373Y-02716*
X-01369Y-02724*
X-01377Y-0272*
X-01385Y-02724*
Y-03118D02*
X-01381Y-0311D01*
X-01385Y-03102*
X-01377Y-03106*
X-01369Y-03102*
X-01373Y-0311*
X-01369Y-03118*
X-01377Y-03114*
X-01385Y-03118*
X-00626Y-01954D02*
X-00622Y-01946D01*
X-00626Y-01938*
X-00618Y-01942*
X-0061Y-01938*
X-00614Y-01946*
X-0061Y-01954*
X-00618Y-0195*
X-00626Y-01954*
X-006Y-02012D02*
X-00596Y-02004D01*
X-006Y-01996*
X-00592Y-02*
X-00584Y-01996*
X-00588Y-02004*
X-00584Y-02012*
X-00592Y-02008*
X-006Y-02012*
X-00509Y-02019D02*
X-00505Y-02011D01*
X-00509Y-02003*
X-00501Y-02007*
X-00493Y-02003*
X-00497Y-02011*
X-00493Y-02019*
X-00501Y-02015*
X-00509Y-02019*
X-00446D02*
X-00442Y-02011D01*
X-00446Y-02003*
X-00438Y-02007*
X-0043Y-02003*
X-00434Y-02011*
X-0043Y-02019*
X-00438Y-02015*
X-00446Y-02019*
X-00383D02*
X-00379Y-02011D01*
X-00383Y-02003*
X-00375Y-02007*
X-00367Y-02003*
X-00371Y-02011*
X-00367Y-02019*
X-00375Y-02015*
X-00383Y-02019*
X-00369Y-01953D02*
X-00365Y-01945D01*
X-00369Y-01937*
X-00361Y-01941*
X-00353Y-01937*
X-00357Y-01945*
X-00353Y-01953*
X-00361Y-01949*
X-00369Y-01953*
X-00432D02*
X-00428Y-01945D01*
X-00432Y-01937*
X-00424Y-01941*
X-00416Y-01937*
X-0042Y-01945*
X-00416Y-01953*
X-00424Y-01949*
X-00432Y-01953*
X-00495D02*
X-00491Y-01945D01*
X-00495Y-01937*
X-00487Y-01941*
X-00479Y-01937*
X-00483Y-01945*
X-00479Y-01953*
X-00487Y-01949*
X-00495Y-01953*
X-00554Y-01933D02*
X-0055Y-01925D01*
X-00554Y-01917*
X-00546Y-01921*
X-00538Y-01917*
X-00542Y-01925*
X-00538Y-01933*
X-00546Y-01929*
X-00554Y-01933*
X-00573Y-01872D02*
X-00569Y-01864D01*
X-00573Y-01856*
X-00565Y-0186*
X-00557Y-01856*
X-00561Y-01864*
X-00557Y-01872*
X-00565Y-01868*
X-00573Y-01872*
X-00366Y-00901D02*
X-00362Y-00893D01*
X-00366Y-00885*
X-00358Y-00889*
X-0035Y-00885*
X-00354Y-00893*
X-0035Y-00901*
X-00358Y-00897*
X-00366Y-00901*
X-00454Y-00991D02*
X-0045Y-00983D01*
X-00454Y-00975*
X-00446Y-00979*
X-00438Y-00975*
X-00442Y-00983*
X-00438Y-00991*
X-00446Y-00987*
X-00454Y-00991*
X-00461Y-01305D02*
X-00457Y-01297D01*
X-00461Y-01289*
X-00453Y-01293*
X-00445Y-01289*
X-00449Y-01297*
X-00445Y-01305*
X-00453Y-01301*
X-00461Y-01305*
Y-01431D02*
X-00457Y-01423D01*
X-00461Y-01415*
X-00453Y-01419*
X-00445Y-01415*
X-00449Y-01423*
X-00445Y-01431*
X-00453Y-01427*
X-00461Y-01431*
Y-01494D02*
X-00457Y-01486D01*
X-00461Y-01478*
X-00453Y-01482*
X-00445Y-01478*
X-00449Y-01486*
X-00445Y-01494*
X-00453Y-0149*
X-00461Y-01494*
X-00541Y-01637D02*
X-00537Y-01629D01*
X-00541Y-01621*
X-00533Y-01625*
X-00525Y-01621*
X-00529Y-01629*
X-00525Y-01637*
X-00533Y-01633*
X-00541Y-01637*
X-00537Y-01574D02*
X-00533Y-01566D01*
X-00537Y-01558*
X-00529Y-01562*
X-00521Y-01558*
X-00525Y-01566*
X-00521Y-01574*
X-00529Y-0157*
X-00537Y-01574*
X-00591Y-01541D02*
X-00587Y-01533D01*
X-00591Y-01525*
X-00583Y-01529*
X-00575Y-01525*
X-00579Y-01533*
X-00575Y-01541*
X-00583Y-01537*
X-00591Y-01541*
X-00645Y-01572D02*
X-00641Y-01564D01*
X-00645Y-01556*
X-00637Y-0156*
X-00629Y-01556*
X-00633Y-01564*
X-00629Y-01572*
X-00637Y-01568*
X-00645Y-01572*
X-00655Y-01634D02*
X-00651Y-01626D01*
X-00655Y-01618*
X-00647Y-01622*
X-00639Y-01618*
X-00643Y-01626*
X-00639Y-01634*
X-00647Y-0163*
X-00655Y-01634*
X-00556Y-01741D02*
X-00552Y-01733D01*
X-00556Y-01725*
X-00548Y-01729*
X-0054Y-01725*
X-00544Y-01733*
X-0054Y-01741*
X-00548Y-01737*
X-00556Y-01741*
X-0043Y-0174D02*
X-00426Y-01732D01*
X-0043Y-01724*
X-00422Y-01728*
X-00414Y-01724*
X-00418Y-01732*
X-00414Y-0174*
X-00422Y-01736*
X-0043Y-0174*
X-00395Y-01688D02*
X-00391Y-0168D01*
X-00395Y-01672*
X-00387Y-01676*
X-00379Y-01672*
X-00383Y-0168*
X-00379Y-01688*
X-00387Y-01684*
X-00395Y-01688*
Y-01625D02*
X-00391Y-01617D01*
X-00395Y-01609*
X-00387Y-01613*
X-00379Y-01609*
X-00383Y-01617*
X-00379Y-01625*
X-00387Y-01621*
X-00395Y-01625*
Y-01562D02*
X-00391Y-01554D01*
X-00395Y-01546*
X-00387Y-0155*
X-00379Y-01546*
X-00383Y-01554*
X-00379Y-01562*
X-00387Y-01558*
X-00395Y-01562*
Y-01499D02*
X-00391Y-01491D01*
X-00395Y-01483*
X-00387Y-01487*
X-00379Y-01483*
X-00383Y-01491*
X-00379Y-01499*
X-00387Y-01495*
X-00395Y-01499*
Y-01436D02*
X-00391Y-01428D01*
X-00395Y-0142*
X-00387Y-01424*
X-00379Y-0142*
X-00383Y-01428*
X-00379Y-01436*
X-00387Y-01432*
X-00395Y-01436*
Y-01373D02*
X-00391Y-01365D01*
X-00395Y-01357*
X-00387Y-01361*
X-00379Y-01357*
X-00383Y-01365*
X-00379Y-01373*
X-00387Y-01369*
X-00395Y-01373*
Y-0131D02*
X-00391Y-01302D01*
X-00395Y-01294*
X-00387Y-01298*
X-00379Y-01294*
X-00383Y-01302*
X-00379Y-0131*
X-00387Y-01306*
X-00395Y-0131*
Y-01184D02*
X-00391Y-01176D01*
X-00395Y-01168*
X-00387Y-01172*
X-00379Y-01168*
X-00383Y-01176*
X-00379Y-01184*
X-00387Y-0118*
X-00395Y-01184*
Y-01121D02*
X-00391Y-01113D01*
X-00395Y-01105*
X-00387Y-01109*
X-00379Y-01105*
X-00383Y-01113*
X-00379Y-01121*
X-00387Y-01117*
X-00395Y-01121*
Y-01058D02*
X-00391Y-0105D01*
X-00395Y-01042*
X-00387Y-01046*
X-00379Y-01042*
X-00383Y-0105*
X-00379Y-01058*
X-00387Y-01054*
X-00395Y-01058*
X-00371Y-00999D02*
X-00367Y-00991D01*
X-00371Y-00983*
X-00363Y-00987*
X-00355Y-00983*
X-00359Y-00991*
X-00355Y-00999*
X-00363Y-00995*
X-00371Y-00999*
X-01162Y-01593D02*
X-01158Y-01585D01*
X-01162Y-01577*
X-01154Y-01581*
X-01146Y-01577*
X-0115Y-01585*
X-01146Y-01593*
X-01154Y-01589*
X-01162Y-01593*
X-01099D02*
X-01095Y-01585D01*
X-01099Y-01577*
X-01091Y-01581*
X-01083Y-01577*
X-01087Y-01585*
X-01083Y-01593*
X-01091Y-01589*
X-01099Y-01593*
X-00931Y-02023D02*
X-00927Y-02015D01*
X-00931Y-02007*
X-00923Y-02011*
X-00915Y-02007*
X-00919Y-02015*
X-00915Y-02023*
X-00923Y-02019*
X-00931Y-02023*
X-00727Y-01934D02*
X-00723Y-01926D01*
X-00727Y-01918*
X-00719Y-01922*
X-00711Y-01918*
X-00715Y-01926*
X-00711Y-01934*
X-00719Y-0193*
X-00727Y-01934*
X-00664Y-01937D02*
X-0066Y-01929D01*
X-00664Y-01921*
X-00656Y-01925*
X-00648Y-01921*
X-00652Y-01929*
X-00648Y-01937*
X-00656Y-01933*
X-00664Y-01937*
X-00781Y-01868D02*
X-00777Y-0186D01*
X-00781Y-01852*
X-00773Y-01856*
X-00765Y-01852*
X-00769Y-0186*
X-00765Y-01868*
X-00773Y-01864*
X-00781Y-01868*
X-01101Y-01527D02*
X-01097Y-01519D01*
X-01101Y-01511*
X-01093Y-01515*
X-01085Y-01511*
X-01089Y-01519*
X-01085Y-01527*
X-01093Y-01523*
X-01101Y-01527*
X-01164D02*
X-0116Y-01519D01*
X-01164Y-01511*
X-01156Y-01515*
X-01148Y-01511*
X-01152Y-01519*
X-01148Y-01527*
X-01156Y-01523*
X-01164Y-01527*
X-01182Y-01362D02*
X-01178Y-01354D01*
X-01182Y-01346*
X-01174Y-0135*
X-01166Y-01346*
X-0117Y-01354*
X-01166Y-01362*
X-01174Y-01358*
X-01182Y-01362*
X-01233Y-01398D02*
X-01229Y-0139D01*
X-01233Y-01382*
X-01225Y-01386*
X-01217Y-01382*
X-01221Y-0139*
X-01217Y-01398*
X-01225Y-01394*
X-01233Y-01398*
X-01177Y-01484D02*
X-01173Y-01476D01*
X-01177Y-01468*
X-01169Y-01472*
X-01161Y-01468*
X-01165Y-01476*
X-01161Y-01484*
X-01169Y-0148*
X-01177Y-01484*
X-01153Y-01426D02*
X-01149Y-01418D01*
X-01153Y-0141*
X-01145Y-01414*
X-01137Y-0141*
X-01141Y-01418*
X-01137Y-01426*
X-01145Y-01422*
X-01153Y-01426*
X-01092Y-01409D02*
X-01088Y-01401D01*
X-01092Y-01393*
X-01084Y-01397*
X-01076Y-01393*
X-0108Y-01401*
X-01076Y-01409*
X-01084Y-01405*
X-01092Y-01409*
X-00723Y-01417D02*
X-00719Y-01409D01*
X-00723Y-01401*
X-00715Y-01405*
X-00707Y-01401*
X-00711Y-01409*
X-00707Y-01417*
X-00715Y-01413*
X-00723Y-01417*
X-00721Y-0148D02*
X-00717Y-01472D01*
X-00721Y-01464*
X-00713Y-01468*
X-00705Y-01464*
X-00709Y-01472*
X-00705Y-0148*
X-00713Y-01476*
X-00721Y-0148*
Y-01669D02*
X-00717Y-01661D01*
X-00721Y-01653*
X-00713Y-01657*
X-00705Y-01653*
X-00709Y-01661*
X-00705Y-01669*
X-00713Y-01665*
X-00721Y-01669*
X-00656Y-01452D02*
X-00652Y-01444D01*
X-00656Y-01436*
X-00648Y-0144*
X-0064Y-01436*
X-00644Y-01444*
X-0064Y-01452*
X-00648Y-01448*
X-00656Y-01452*
X-01018Y-01342D02*
X-01014Y-01334D01*
X-01018Y-01326*
X-0101Y-0133*
X-01002Y-01326*
X-01006Y-01334*
X-01002Y-01342*
X-0101Y-01338*
X-01018Y-01342*
X-0107Y-01341D02*
X-01066Y-01333D01*
X-0107Y-01325*
X-01062Y-01329*
X-01054Y-01325*
X-01058Y-01333*
X-01054Y-01341*
X-01062Y-01337*
X-0107Y-01341*
X-01132Y-01827D02*
X-01128Y-01819D01*
X-01132Y-01811*
X-01124Y-01815*
X-01116Y-01811*
X-0112Y-01819*
X-01116Y-01827*
X-01124Y-01823*
X-01132Y-01827*
X-01176Y-01781D02*
X-01172Y-01773D01*
X-01176Y-01765*
X-01168Y-01769*
X-0116Y-01765*
X-01164Y-01773*
X-0116Y-01781*
X-01168Y-01777*
X-01176Y-01781*
X-00741Y-01182D02*
X-00737Y-01174D01*
X-00741Y-01166*
X-00733Y-0117*
X-00725Y-01166*
X-00729Y-01174*
X-00725Y-01182*
X-00733Y-01178*
X-00741Y-01182*
X-00867Y-01187D02*
X-00863Y-01179D01*
X-00867Y-01171*
X-00859Y-01175*
X-00851Y-01171*
X-00855Y-01179*
X-00851Y-01187*
X-00859Y-01183*
X-00867Y-01187*
X-0093D02*
X-00926Y-01179D01*
X-0093Y-01171*
X-00922Y-01175*
X-00914Y-01171*
X-00918Y-01179*
X-00914Y-01187*
X-00922Y-01183*
X-0093Y-01187*
X-01056Y-0141D02*
X-01052Y-01402D01*
X-01056Y-01394*
X-01048Y-01398*
X-0104Y-01394*
X-01044Y-01402*
X-0104Y-0141*
X-01048Y-01406*
X-01056Y-0141*
X-01053Y-01466D02*
X-01049Y-01458D01*
X-01053Y-0145*
X-01045Y-01454*
X-01037Y-0145*
X-01041Y-01458*
X-01037Y-01466*
X-01045Y-01462*
X-01053Y-01466*
X-01058Y-01527D02*
X-01054Y-01519D01*
X-01058Y-01511*
X-0105Y-01515*
X-01042Y-01511*
X-01046Y-01519*
X-01042Y-01527*
X-0105Y-01523*
X-01058Y-01527*
X-01053Y-01638D02*
X-01049Y-0163D01*
X-01053Y-01622*
X-01045Y-01626*
X-01037Y-01622*
X-01041Y-0163*
X-01037Y-01638*
X-01045Y-01634*
X-01053Y-01638*
X-01098D02*
X-01094Y-0163D01*
X-01098Y-01622*
X-0109Y-01626*
X-01082Y-01622*
X-01086Y-0163*
X-01082Y-01638*
X-0109Y-01634*
X-01098Y-01638*
X-01161Y-01642D02*
X-01157Y-01634D01*
X-01161Y-01626*
X-01153Y-0163*
X-01145Y-01626*
X-01149Y-01634*
X-01145Y-01642*
X-01153Y-01638*
X-01161Y-01642*
X-01178Y-01893D02*
X-01174Y-01885D01*
X-01178Y-01877*
X-0117Y-01881*
X-01162Y-01877*
X-01166Y-01885*
X-01162Y-01893*
X-0117Y-01889*
X-01178Y-01893*
X-00992Y-02168D02*
X-00988Y-0216D01*
X-00992Y-02152*
X-00984Y-02156*
X-00976Y-02152*
X-0098Y-0216*
X-00976Y-02168*
X-00984Y-02164*
X-00992Y-02168*
X-00753Y-01257D02*
X-00749Y-01249D01*
X-00753Y-01241*
X-00745Y-01245*
X-00737Y-01241*
X-00741Y-01249*
X-00737Y-01257*
X-00745Y-01253*
X-00753Y-01257*
X-00551Y-01814D02*
X-00547Y-01806D01*
X-00551Y-01798*
X-00543Y-01802*
X-00535Y-01798*
X-00539Y-01806*
X-00535Y-01814*
X-00543Y-0181*
X-00551Y-01814*
X-00563Y-01254D02*
X-00559Y-01246D01*
X-00563Y-01238*
X-00555Y-01242*
X-00547Y-01238*
X-00551Y-01246*
X-00547Y-01254*
X-00555Y-0125*
X-00563Y-01254*
X-00462Y-01171D02*
X-00458Y-01163D01*
X-00462Y-01155*
X-00454Y-01159*
X-00446Y-01155*
X-0045Y-01163*
X-00446Y-01171*
X-00454Y-01167*
X-00462Y-01171*
X-00481Y-01662D02*
X-00477Y-01654D01*
X-00481Y-01646*
X-00473Y-0165*
X-00465Y-01646*
X-00469Y-01654*
X-00465Y-01662*
X-00473Y-01658*
X-00481Y-01662*
X-00687Y-00609D02*
X-00683Y-00601D01*
X-00687Y-00593*
X-00679Y-00597*
X-00671Y-00593*
X-00675Y-00601*
X-00671Y-00609*
X-00679Y-00605*
X-00687Y-00609*
X-00503Y-00281D02*
X-00499Y-00273D01*
X-00503Y-00265*
X-00495Y-00269*
X-00487Y-00265*
X-00491Y-00273*
X-00487Y-00281*
X-00495Y-00277*
X-00503Y-00281*
X-00432D02*
X-00428Y-00273D01*
X-00432Y-00265*
X-00424Y-00269*
X-00416Y-00265*
X-0042Y-00273*
X-00416Y-00281*
X-00424Y-00277*
X-00432Y-00281*
X-00754Y-01814D02*
X-0075Y-01806D01*
X-00754Y-01798*
X-00746Y-01802*
X-00738Y-01798*
X-00742Y-01806*
X-00738Y-01814*
X-00746Y-0181*
X-00754Y-01814*
G54D44*
X-00188Y-02778D02*
D01*
X-00188Y-02778*
X-00188Y-02777*
X-00189Y-02777*
X-00189Y-02776*
X-00189Y-02776*
X-00189Y-02775*
X-00189Y-02774*
X-0019Y-02774*
X-0019Y-02774*
X-0019Y-02773*
X-00191Y-02773*
X-00191Y-02772*
X-00191Y-02772*
X-00192Y-02772*
X-00192Y-02771*
X-00193Y-02771*
X-00193Y-02771*
X-00194Y-02771*
X-00194Y-0277*
X-00195Y-0277*
X-00196Y-0277*
X-00196Y-0277*
X-00197*
X-00197Y-0277*
X-00198Y-0277*
X-00198Y-0277*
X-00199Y-02771*
X-00199Y-02771*
X-002Y-02771*
X-002Y-02771*
X-00201Y-02772*
X-00201Y-02772*
X-00202Y-02772*
X-00202Y-02773*
X-00202Y-02773*
X-00203Y-02774*
X-00203Y-02774*
X-00203Y-02774*
X-00204Y-02775*
X-00204Y-02776*
X-00204Y-02776*
X-00204Y-02777*
X-00204Y-02777*
X-00204Y-02778*
X-00204Y-02778*
X-00204Y-02779*
X-00204Y-02779*
X-00204Y-0278*
X-00204Y-0278*
X-00204Y-02781*
X-00204Y-02781*
X-00203Y-02782*
X-00203Y-02782*
X-00203Y-02783*
X-00202Y-02783*
X-00202Y-02784*
X-00202Y-02784*
X-00201Y-02785*
X-00201Y-02785*
X-002Y-02785*
X-002Y-02785*
X-00199Y-02786*
X-00199Y-02786*
X-00198Y-02786*
X-00198Y-02786*
X-00197Y-02786*
X-00197Y-02786*
X-00196*
X-00196Y-02786*
X-00195Y-02786*
X-00194Y-02786*
X-00194Y-02786*
X-00193Y-02786*
X-00193Y-02785*
X-00192Y-02785*
X-00192Y-02785*
X-00191Y-02785*
X-00191Y-02784*
X-00191Y-02784*
X-0019Y-02783*
X-0019Y-02783*
X-0019Y-02782*
X-00189Y-02782*
X-00189Y-02781*
X-00189Y-02781*
X-00189Y-0278*
X-00189Y-0278*
X-00188Y-02779*
X-00188Y-02779*
X-00188Y-02778*
X-00288Y-00178D02*
D01*
X-00288Y-00178*
X-00288Y-00177*
X-00289Y-00177*
X-00289Y-00176*
X-00289Y-00176*
X-00289Y-00175*
X-00289Y-00174*
X-0029Y-00174*
X-0029Y-00174*
X-0029Y-00173*
X-00291Y-00173*
X-00291Y-00172*
X-00291Y-00172*
X-00292Y-00172*
X-00292Y-00171*
X-00293Y-00171*
X-00293Y-00171*
X-00294Y-00171*
X-00294Y-0017*
X-00295Y-0017*
X-00296Y-0017*
X-00296Y-0017*
X-00297*
X-00297Y-0017*
X-00298Y-0017*
X-00298Y-0017*
X-00299Y-00171*
X-00299Y-00171*
X-003Y-00171*
X-003Y-00171*
X-00301Y-00172*
X-00301Y-00172*
X-00302Y-00172*
X-00302Y-00173*
X-00302Y-00173*
X-00303Y-00174*
X-00303Y-00174*
X-00303Y-00174*
X-00304Y-00175*
X-00304Y-00176*
X-00304Y-00176*
X-00304Y-00177*
X-00304Y-00177*
X-00304Y-00178*
X-00304Y-00178*
X-00304Y-00179*
X-00304Y-00179*
X-00304Y-0018*
X-00304Y-0018*
X-00304Y-00181*
X-00304Y-00181*
X-00303Y-00182*
X-00303Y-00182*
X-00303Y-00183*
X-00302Y-00183*
X-00302Y-00184*
X-00302Y-00184*
X-00301Y-00185*
X-00301Y-00185*
X-003Y-00185*
X-003Y-00185*
X-00299Y-00186*
X-00299Y-00186*
X-00298Y-00186*
X-00298Y-00186*
X-00297Y-00186*
X-00297Y-00186*
X-00296*
X-00296Y-00186*
X-00295Y-00186*
X-00294Y-00186*
X-00294Y-00186*
X-00293Y-00186*
X-00293Y-00185*
X-00292Y-00185*
X-00292Y-00185*
X-00291Y-00185*
X-00291Y-00184*
X-00291Y-00184*
X-0029Y-00183*
X-0029Y-00183*
X-0029Y-00182*
X-00289Y-00182*
X-00289Y-00181*
X-00289Y-00181*
X-00289Y-0018*
X-00289Y-0018*
X-00288Y-00179*
X-00288Y-00179*
X-00288Y-00178*
Y-00278D02*
D01*
X-00288Y-00278*
X-00288Y-00277*
X-00289Y-00277*
X-00289Y-00276*
X-00289Y-00276*
X-00289Y-00275*
X-00289Y-00274*
X-0029Y-00274*
X-0029Y-00274*
X-0029Y-00273*
X-00291Y-00273*
X-00291Y-00272*
X-00291Y-00272*
X-00292Y-00272*
X-00292Y-00271*
X-00293Y-00271*
X-00293Y-00271*
X-00294Y-00271*
X-00294Y-0027*
X-00295Y-0027*
X-00296Y-0027*
X-00296Y-0027*
X-00297*
X-00297Y-0027*
X-00298Y-0027*
X-00298Y-0027*
X-00299Y-00271*
X-00299Y-00271*
X-003Y-00271*
X-003Y-00271*
X-00301Y-00272*
X-00301Y-00272*
X-00302Y-00272*
X-00302Y-00273*
X-00302Y-00273*
X-00303Y-00274*
X-00303Y-00274*
X-00303Y-00274*
X-00304Y-00275*
X-00304Y-00276*
X-00304Y-00276*
X-00304Y-00277*
X-00304Y-00277*
X-00304Y-00278*
X-00304Y-00278*
X-00304Y-00279*
X-00304Y-00279*
X-00304Y-0028*
X-00304Y-0028*
X-00304Y-00281*
X-00304Y-00281*
X-00303Y-00282*
X-00303Y-00282*
X-00303Y-00283*
X-00302Y-00283*
X-00302Y-00284*
X-00302Y-00284*
X-00301Y-00285*
X-00301Y-00285*
X-003Y-00285*
X-003Y-00285*
X-00299Y-00286*
X-00299Y-00286*
X-00298Y-00286*
X-00298Y-00286*
X-00297Y-00286*
X-00297Y-00286*
X-00296*
X-00296Y-00286*
X-00295Y-00286*
X-00294Y-00286*
X-00294Y-00286*
X-00293Y-00286*
X-00293Y-00285*
X-00292Y-00285*
X-00292Y-00285*
X-00291Y-00285*
X-00291Y-00284*
X-00291Y-00284*
X-0029Y-00283*
X-0029Y-00283*
X-0029Y-00282*
X-00289Y-00282*
X-00289Y-00281*
X-00289Y-00281*
X-00289Y-0028*
X-00289Y-0028*
X-00288Y-00279*
X-00288Y-00279*
X-00288Y-00278*
Y-00378D02*
D01*
X-00288Y-00378*
X-00288Y-00377*
X-00289Y-00377*
X-00289Y-00376*
X-00289Y-00376*
X-00289Y-00375*
X-00289Y-00374*
X-0029Y-00374*
X-0029Y-00374*
X-0029Y-00373*
X-00291Y-00373*
X-00291Y-00372*
X-00291Y-00372*
X-00292Y-00372*
X-00292Y-00371*
X-00293Y-00371*
X-00293Y-00371*
X-00294Y-00371*
X-00294Y-0037*
X-00295Y-0037*
X-00296Y-0037*
X-00296Y-0037*
X-00297*
X-00297Y-0037*
X-00298Y-0037*
X-00298Y-0037*
X-00299Y-00371*
X-00299Y-00371*
X-003Y-00371*
X-003Y-00371*
X-00301Y-00372*
X-00301Y-00372*
X-00302Y-00372*
X-00302Y-00373*
X-00302Y-00373*
X-00303Y-00374*
X-00303Y-00374*
X-00303Y-00374*
X-00304Y-00375*
X-00304Y-00376*
X-00304Y-00376*
X-00304Y-00377*
X-00304Y-00377*
X-00304Y-00378*
X-00304Y-00378*
X-00304Y-00379*
X-00304Y-00379*
X-00304Y-0038*
X-00304Y-0038*
X-00304Y-00381*
X-00304Y-00381*
X-00303Y-00382*
X-00303Y-00382*
X-00303Y-00383*
X-00302Y-00383*
X-00302Y-00384*
X-00302Y-00384*
X-00301Y-00385*
X-00301Y-00385*
X-003Y-00385*
X-003Y-00385*
X-00299Y-00386*
X-00299Y-00386*
X-00298Y-00386*
X-00298Y-00386*
X-00297Y-00386*
X-00297Y-00386*
X-00296*
X-00296Y-00386*
X-00295Y-00386*
X-00294Y-00386*
X-00294Y-00386*
X-00293Y-00386*
X-00293Y-00385*
X-00292Y-00385*
X-00292Y-00385*
X-00291Y-00385*
X-00291Y-00384*
X-00291Y-00384*
X-0029Y-00383*
X-0029Y-00383*
X-0029Y-00382*
X-00289Y-00382*
X-00289Y-00381*
X-00289Y-00381*
X-00289Y-0038*
X-00289Y-0038*
X-00288Y-00379*
X-00288Y-00379*
X-00288Y-00378*
Y-00478D02*
D01*
X-00288Y-00478*
X-00288Y-00477*
X-00289Y-00477*
X-00289Y-00476*
X-00289Y-00476*
X-00289Y-00475*
X-00289Y-00474*
X-0029Y-00474*
X-0029Y-00474*
X-0029Y-00473*
X-00291Y-00473*
X-00291Y-00472*
X-00291Y-00472*
X-00292Y-00472*
X-00292Y-00471*
X-00293Y-00471*
X-00293Y-00471*
X-00294Y-00471*
X-00294Y-0047*
X-00295Y-0047*
X-00296Y-0047*
X-00296Y-0047*
X-00297*
X-00297Y-0047*
X-00298Y-0047*
X-00298Y-0047*
X-00299Y-00471*
X-00299Y-00471*
X-003Y-00471*
X-003Y-00471*
X-00301Y-00472*
X-00301Y-00472*
X-00302Y-00472*
X-00302Y-00473*
X-00302Y-00473*
X-00303Y-00474*
X-00303Y-00474*
X-00303Y-00474*
X-00304Y-00475*
X-00304Y-00476*
X-00304Y-00476*
X-00304Y-00477*
X-00304Y-00477*
X-00304Y-00478*
X-00304Y-00478*
X-00304Y-00479*
X-00304Y-00479*
X-00304Y-0048*
X-00304Y-0048*
X-00304Y-00481*
X-00304Y-00481*
X-00303Y-00482*
X-00303Y-00482*
X-00303Y-00483*
X-00302Y-00483*
X-00302Y-00484*
X-00302Y-00484*
X-00301Y-00485*
X-00301Y-00485*
X-003Y-00485*
X-003Y-00485*
X-00299Y-00486*
X-00299Y-00486*
X-00298Y-00486*
X-00298Y-00486*
X-00297Y-00486*
X-00297Y-00486*
X-00296*
X-00296Y-00486*
X-00295Y-00486*
X-00294Y-00486*
X-00294Y-00486*
X-00293Y-00486*
X-00293Y-00485*
X-00292Y-00485*
X-00292Y-00485*
X-00291Y-00485*
X-00291Y-00484*
X-00291Y-00484*
X-0029Y-00483*
X-0029Y-00483*
X-0029Y-00482*
X-00289Y-00482*
X-00289Y-00481*
X-00289Y-00481*
X-00289Y-0048*
X-00289Y-0048*
X-00288Y-00479*
X-00288Y-00479*
X-00288Y-00478*
Y-00578D02*
D01*
X-00288Y-00578*
X-00288Y-00577*
X-00289Y-00577*
X-00289Y-00576*
X-00289Y-00576*
X-00289Y-00575*
X-00289Y-00574*
X-0029Y-00574*
X-0029Y-00574*
X-0029Y-00573*
X-00291Y-00573*
X-00291Y-00572*
X-00291Y-00572*
X-00292Y-00572*
X-00292Y-00571*
X-00293Y-00571*
X-00293Y-00571*
X-00294Y-00571*
X-00294Y-0057*
X-00295Y-0057*
X-00296Y-0057*
X-00296Y-0057*
X-00297*
X-00297Y-0057*
X-00298Y-0057*
X-00298Y-0057*
X-00299Y-00571*
X-00299Y-00571*
X-003Y-00571*
X-003Y-00571*
X-00301Y-00572*
X-00301Y-00572*
X-00302Y-00572*
X-00302Y-00573*
X-00302Y-00573*
X-00303Y-00574*
X-00303Y-00574*
X-00303Y-00574*
X-00304Y-00575*
X-00304Y-00576*
X-00304Y-00576*
X-00304Y-00577*
X-00304Y-00577*
X-00304Y-00578*
X-00304Y-00578*
X-00304Y-00579*
X-00304Y-00579*
X-00304Y-0058*
X-00304Y-0058*
X-00304Y-00581*
X-00304Y-00581*
X-00303Y-00582*
X-00303Y-00582*
X-00303Y-00583*
X-00302Y-00583*
X-00302Y-00584*
X-00302Y-00584*
X-00301Y-00585*
X-00301Y-00585*
X-003Y-00585*
X-003Y-00585*
X-00299Y-00586*
X-00299Y-00586*
X-00298Y-00586*
X-00298Y-00586*
X-00297Y-00586*
X-00297Y-00586*
X-00296*
X-00296Y-00586*
X-00295Y-00586*
X-00294Y-00586*
X-00294Y-00586*
X-00293Y-00586*
X-00293Y-00585*
X-00292Y-00585*
X-00292Y-00585*
X-00291Y-00585*
X-00291Y-00584*
X-00291Y-00584*
X-0029Y-00583*
X-0029Y-00583*
X-0029Y-00582*
X-00289Y-00582*
X-00289Y-00581*
X-00289Y-00581*
X-00289Y-0058*
X-00289Y-0058*
X-00288Y-00579*
X-00288Y-00579*
X-00288Y-00578*
Y-00678D02*
D01*
X-00288Y-00678*
X-00288Y-00677*
X-00289Y-00677*
X-00289Y-00676*
X-00289Y-00676*
X-00289Y-00675*
X-00289Y-00674*
X-0029Y-00674*
X-0029Y-00674*
X-0029Y-00673*
X-00291Y-00673*
X-00291Y-00672*
X-00291Y-00672*
X-00292Y-00672*
X-00292Y-00671*
X-00293Y-00671*
X-00293Y-00671*
X-00294Y-00671*
X-00294Y-0067*
X-00295Y-0067*
X-00296Y-0067*
X-00296Y-0067*
X-00297*
X-00297Y-0067*
X-00298Y-0067*
X-00298Y-0067*
X-00299Y-00671*
X-00299Y-00671*
X-003Y-00671*
X-003Y-00671*
X-00301Y-00672*
X-00301Y-00672*
X-00302Y-00672*
X-00302Y-00673*
X-00302Y-00673*
X-00303Y-00674*
X-00303Y-00674*
X-00303Y-00674*
X-00304Y-00675*
X-00304Y-00676*
X-00304Y-00676*
X-00304Y-00677*
X-00304Y-00677*
X-00304Y-00678*
X-00304Y-00678*
X-00304Y-00679*
X-00304Y-00679*
X-00304Y-0068*
X-00304Y-0068*
X-00304Y-00681*
X-00304Y-00681*
X-00303Y-00682*
X-00303Y-00682*
X-00303Y-00683*
X-00302Y-00683*
X-00302Y-00684*
X-00302Y-00684*
X-00301Y-00685*
X-00301Y-00685*
X-003Y-00685*
X-003Y-00685*
X-00299Y-00686*
X-00299Y-00686*
X-00298Y-00686*
X-00298Y-00686*
X-00297Y-00686*
X-00297Y-00686*
X-00296*
X-00296Y-00686*
X-00295Y-00686*
X-00294Y-00686*
X-00294Y-00686*
X-00293Y-00686*
X-00293Y-00685*
X-00292Y-00685*
X-00292Y-00685*
X-00291Y-00685*
X-00291Y-00684*
X-00291Y-00684*
X-0029Y-00683*
X-0029Y-00683*
X-0029Y-00682*
X-00289Y-00682*
X-00289Y-00681*
X-00289Y-00681*
X-00289Y-0068*
X-00289Y-0068*
X-00288Y-00679*
X-00288Y-00679*
X-00288Y-00678*
Y-00778D02*
D01*
X-00288Y-00778*
X-00288Y-00777*
X-00289Y-00777*
X-00289Y-00776*
X-00289Y-00776*
X-00289Y-00775*
X-00289Y-00774*
X-0029Y-00774*
X-0029Y-00774*
X-0029Y-00773*
X-00291Y-00773*
X-00291Y-00772*
X-00291Y-00772*
X-00292Y-00772*
X-00292Y-00771*
X-00293Y-00771*
X-00293Y-00771*
X-00294Y-00771*
X-00294Y-0077*
X-00295Y-0077*
X-00296Y-0077*
X-00296Y-0077*
X-00297*
X-00297Y-0077*
X-00298Y-0077*
X-00298Y-0077*
X-00299Y-00771*
X-00299Y-00771*
X-003Y-00771*
X-003Y-00771*
X-00301Y-00772*
X-00301Y-00772*
X-00302Y-00772*
X-00302Y-00773*
X-00302Y-00773*
X-00303Y-00774*
X-00303Y-00774*
X-00303Y-00774*
X-00304Y-00775*
X-00304Y-00776*
X-00304Y-00776*
X-00304Y-00777*
X-00304Y-00777*
X-00304Y-00778*
X-00304Y-00778*
X-00304Y-00779*
X-00304Y-00779*
X-00304Y-0078*
X-00304Y-0078*
X-00304Y-00781*
X-00304Y-00781*
X-00303Y-00782*
X-00303Y-00782*
X-00303Y-00783*
X-00302Y-00783*
X-00302Y-00784*
X-00302Y-00784*
X-00301Y-00785*
X-00301Y-00785*
X-003Y-00785*
X-003Y-00785*
X-00299Y-00786*
X-00299Y-00786*
X-00298Y-00786*
X-00298Y-00786*
X-00297Y-00786*
X-00297Y-00786*
X-00296*
X-00296Y-00786*
X-00295Y-00786*
X-00294Y-00786*
X-00294Y-00786*
X-00293Y-00786*
X-00293Y-00785*
X-00292Y-00785*
X-00292Y-00785*
X-00291Y-00785*
X-00291Y-00784*
X-00291Y-00784*
X-0029Y-00783*
X-0029Y-00783*
X-0029Y-00782*
X-00289Y-00782*
X-00289Y-00781*
X-00289Y-00781*
X-00289Y-0078*
X-00289Y-0078*
X-00288Y-00779*
X-00288Y-00779*
X-00288Y-00778*
Y-00878D02*
D01*
X-00288Y-00878*
X-00288Y-00877*
X-00289Y-00877*
X-00289Y-00876*
X-00289Y-00876*
X-00289Y-00875*
X-00289Y-00874*
X-0029Y-00874*
X-0029Y-00874*
X-0029Y-00873*
X-00291Y-00873*
X-00291Y-00872*
X-00291Y-00872*
X-00292Y-00872*
X-00292Y-00871*
X-00293Y-00871*
X-00293Y-00871*
X-00294Y-00871*
X-00294Y-0087*
X-00295Y-0087*
X-00296Y-0087*
X-00296Y-0087*
X-00297*
X-00297Y-0087*
X-00298Y-0087*
X-00298Y-0087*
X-00299Y-00871*
X-00299Y-00871*
X-003Y-00871*
X-003Y-00871*
X-00301Y-00872*
X-00301Y-00872*
X-00302Y-00872*
X-00302Y-00873*
X-00302Y-00873*
X-00303Y-00874*
X-00303Y-00874*
X-00303Y-00874*
X-00304Y-00875*
X-00304Y-00876*
X-00304Y-00876*
X-00304Y-00877*
X-00304Y-00877*
X-00304Y-00878*
X-00304Y-00878*
X-00304Y-00879*
X-00304Y-00879*
X-00304Y-0088*
X-00304Y-0088*
X-00304Y-00881*
X-00304Y-00881*
X-00303Y-00882*
X-00303Y-00882*
X-00303Y-00883*
X-00302Y-00883*
X-00302Y-00884*
X-00302Y-00884*
X-00301Y-00885*
X-00301Y-00885*
X-003Y-00885*
X-003Y-00885*
X-00299Y-00886*
X-00299Y-00886*
X-00298Y-00886*
X-00298Y-00886*
X-00297Y-00886*
X-00297Y-00886*
X-00296*
X-00296Y-00886*
X-00295Y-00886*
X-00294Y-00886*
X-00294Y-00886*
X-00293Y-00886*
X-00293Y-00885*
X-00292Y-00885*
X-00292Y-00885*
X-00291Y-00885*
X-00291Y-00884*
X-00291Y-00884*
X-0029Y-00883*
X-0029Y-00883*
X-0029Y-00882*
X-00289Y-00882*
X-00289Y-00881*
X-00289Y-00881*
X-00289Y-0088*
X-00289Y-0088*
X-00288Y-00879*
X-00288Y-00879*
X-00288Y-00878*
Y-00978D02*
D01*
X-00288Y-00978*
X-00288Y-00977*
X-00289Y-00977*
X-00289Y-00976*
X-00289Y-00976*
X-00289Y-00975*
X-00289Y-00974*
X-0029Y-00974*
X-0029Y-00974*
X-0029Y-00973*
X-00291Y-00973*
X-00291Y-00972*
X-00291Y-00972*
X-00292Y-00972*
X-00292Y-00971*
X-00293Y-00971*
X-00293Y-00971*
X-00294Y-00971*
X-00294Y-0097*
X-00295Y-0097*
X-00296Y-0097*
X-00296Y-0097*
X-00297*
X-00297Y-0097*
X-00298Y-0097*
X-00298Y-0097*
X-00299Y-00971*
X-00299Y-00971*
X-003Y-00971*
X-003Y-00971*
X-00301Y-00972*
X-00301Y-00972*
X-00302Y-00972*
X-00302Y-00973*
X-00302Y-00973*
X-00303Y-00974*
X-00303Y-00974*
X-00303Y-00974*
X-00304Y-00975*
X-00304Y-00976*
X-00304Y-00976*
X-00304Y-00977*
X-00304Y-00977*
X-00304Y-00978*
X-00304Y-00978*
X-00304Y-00979*
X-00304Y-00979*
X-00304Y-0098*
X-00304Y-0098*
X-00304Y-00981*
X-00304Y-00981*
X-00303Y-00982*
X-00303Y-00982*
X-00303Y-00983*
X-00302Y-00983*
X-00302Y-00984*
X-00302Y-00984*
X-00301Y-00985*
X-00301Y-00985*
X-003Y-00985*
X-003Y-00985*
X-00299Y-00986*
X-00299Y-00986*
X-00298Y-00986*
X-00298Y-00986*
X-00297Y-00986*
X-00297Y-00986*
X-00296*
X-00296Y-00986*
X-00295Y-00986*
X-00294Y-00986*
X-00294Y-00986*
X-00293Y-00986*
X-00293Y-00985*
X-00292Y-00985*
X-00292Y-00985*
X-00291Y-00985*
X-00291Y-00984*
X-00291Y-00984*
X-0029Y-00983*
X-0029Y-00983*
X-0029Y-00982*
X-00289Y-00982*
X-00289Y-00981*
X-00289Y-00981*
X-00289Y-0098*
X-00289Y-0098*
X-00288Y-00979*
X-00288Y-00979*
X-00288Y-00978*
Y-01078D02*
D01*
X-00288Y-01078*
X-00288Y-01077*
X-00289Y-01077*
X-00289Y-01076*
X-00289Y-01076*
X-00289Y-01075*
X-00289Y-01074*
X-0029Y-01074*
X-0029Y-01074*
X-0029Y-01073*
X-00291Y-01073*
X-00291Y-01072*
X-00291Y-01072*
X-00292Y-01072*
X-00292Y-01071*
X-00293Y-01071*
X-00293Y-01071*
X-00294Y-01071*
X-00294Y-0107*
X-00295Y-0107*
X-00296Y-0107*
X-00296Y-0107*
X-00297*
X-00297Y-0107*
X-00298Y-0107*
X-00298Y-0107*
X-00299Y-01071*
X-00299Y-01071*
X-003Y-01071*
X-003Y-01071*
X-00301Y-01072*
X-00301Y-01072*
X-00302Y-01072*
X-00302Y-01073*
X-00302Y-01073*
X-00303Y-01074*
X-00303Y-01074*
X-00303Y-01074*
X-00304Y-01075*
X-00304Y-01076*
X-00304Y-01076*
X-00304Y-01077*
X-00304Y-01077*
X-00304Y-01078*
X-00304Y-01078*
X-00304Y-01079*
X-00304Y-01079*
X-00304Y-0108*
X-00304Y-0108*
X-00304Y-01081*
X-00304Y-01081*
X-00303Y-01082*
X-00303Y-01082*
X-00303Y-01083*
X-00302Y-01083*
X-00302Y-01084*
X-00302Y-01084*
X-00301Y-01085*
X-00301Y-01085*
X-003Y-01085*
X-003Y-01085*
X-00299Y-01086*
X-00299Y-01086*
X-00298Y-01086*
X-00298Y-01086*
X-00297Y-01086*
X-00297Y-01086*
X-00296*
X-00296Y-01086*
X-00295Y-01086*
X-00294Y-01086*
X-00294Y-01086*
X-00293Y-01086*
X-00293Y-01085*
X-00292Y-01085*
X-00292Y-01085*
X-00291Y-01085*
X-00291Y-01084*
X-00291Y-01084*
X-0029Y-01083*
X-0029Y-01083*
X-0029Y-01082*
X-00289Y-01082*
X-00289Y-01081*
X-00289Y-01081*
X-00289Y-0108*
X-00289Y-0108*
X-00288Y-01079*
X-00288Y-01079*
X-00288Y-01078*
Y-01178D02*
D01*
X-00288Y-01178*
X-00288Y-01177*
X-00289Y-01177*
X-00289Y-01176*
X-00289Y-01176*
X-00289Y-01175*
X-00289Y-01174*
X-0029Y-01174*
X-0029Y-01174*
X-0029Y-01173*
X-00291Y-01173*
X-00291Y-01172*
X-00291Y-01172*
X-00292Y-01172*
X-00292Y-01171*
X-00293Y-01171*
X-00293Y-01171*
X-00294Y-01171*
X-00294Y-0117*
X-00295Y-0117*
X-00296Y-0117*
X-00296Y-0117*
X-00297*
X-00297Y-0117*
X-00298Y-0117*
X-00298Y-0117*
X-00299Y-01171*
X-00299Y-01171*
X-003Y-01171*
X-003Y-01171*
X-00301Y-01172*
X-00301Y-01172*
X-00302Y-01172*
X-00302Y-01173*
X-00302Y-01173*
X-00303Y-01174*
X-00303Y-01174*
X-00303Y-01174*
X-00304Y-01175*
X-00304Y-01176*
X-00304Y-01176*
X-00304Y-01177*
X-00304Y-01177*
X-00304Y-01178*
X-00304Y-01178*
X-00304Y-01179*
X-00304Y-01179*
X-00304Y-0118*
X-00304Y-0118*
X-00304Y-01181*
X-00304Y-01181*
X-00303Y-01182*
X-00303Y-01182*
X-00303Y-01183*
X-00302Y-01183*
X-00302Y-01184*
X-00302Y-01184*
X-00301Y-01185*
X-00301Y-01185*
X-003Y-01185*
X-003Y-01185*
X-00299Y-01186*
X-00299Y-01186*
X-00298Y-01186*
X-00298Y-01186*
X-00297Y-01186*
X-00297Y-01186*
X-00296*
X-00296Y-01186*
X-00295Y-01186*
X-00294Y-01186*
X-00294Y-01186*
X-00293Y-01186*
X-00293Y-01185*
X-00292Y-01185*
X-00292Y-01185*
X-00291Y-01185*
X-00291Y-01184*
X-00291Y-01184*
X-0029Y-01183*
X-0029Y-01183*
X-0029Y-01182*
X-00289Y-01182*
X-00289Y-01181*
X-00289Y-01181*
X-00289Y-0118*
X-00289Y-0118*
X-00288Y-01179*
X-00288Y-01179*
X-00288Y-01178*
Y-01278D02*
D01*
X-00288Y-01278*
X-00288Y-01277*
X-00289Y-01277*
X-00289Y-01276*
X-00289Y-01276*
X-00289Y-01275*
X-00289Y-01274*
X-0029Y-01274*
X-0029Y-01274*
X-0029Y-01273*
X-00291Y-01273*
X-00291Y-01272*
X-00291Y-01272*
X-00292Y-01272*
X-00292Y-01271*
X-00293Y-01271*
X-00293Y-01271*
X-00294Y-01271*
X-00294Y-0127*
X-00295Y-0127*
X-00296Y-0127*
X-00296Y-0127*
X-00297*
X-00297Y-0127*
X-00298Y-0127*
X-00298Y-0127*
X-00299Y-01271*
X-00299Y-01271*
X-003Y-01271*
X-003Y-01271*
X-00301Y-01272*
X-00301Y-01272*
X-00302Y-01272*
X-00302Y-01273*
X-00302Y-01273*
X-00303Y-01274*
X-00303Y-01274*
X-00303Y-01274*
X-00304Y-01275*
X-00304Y-01276*
X-00304Y-01276*
X-00304Y-01277*
X-00304Y-01277*
X-00304Y-01278*
X-00304Y-01278*
X-00304Y-01279*
X-00304Y-01279*
X-00304Y-0128*
X-00304Y-0128*
X-00304Y-01281*
X-00304Y-01281*
X-00303Y-01282*
X-00303Y-01282*
X-00303Y-01283*
X-00302Y-01283*
X-00302Y-01284*
X-00302Y-01284*
X-00301Y-01285*
X-00301Y-01285*
X-003Y-01285*
X-003Y-01285*
X-00299Y-01286*
X-00299Y-01286*
X-00298Y-01286*
X-00298Y-01286*
X-00297Y-01286*
X-00297Y-01286*
X-00296*
X-00296Y-01286*
X-00295Y-01286*
X-00294Y-01286*
X-00294Y-01286*
X-00293Y-01286*
X-00293Y-01285*
X-00292Y-01285*
X-00292Y-01285*
X-00291Y-01285*
X-00291Y-01284*
X-00291Y-01284*
X-0029Y-01283*
X-0029Y-01283*
X-0029Y-01282*
X-00289Y-01282*
X-00289Y-01281*
X-00289Y-01281*
X-00289Y-0128*
X-00289Y-0128*
X-00288Y-01279*
X-00288Y-01279*
X-00288Y-01278*
Y-01378D02*
D01*
X-00288Y-01378*
X-00288Y-01377*
X-00289Y-01377*
X-00289Y-01376*
X-00289Y-01376*
X-00289Y-01375*
X-00289Y-01374*
X-0029Y-01374*
X-0029Y-01374*
X-0029Y-01373*
X-00291Y-01373*
X-00291Y-01372*
X-00291Y-01372*
X-00292Y-01372*
X-00292Y-01371*
X-00293Y-01371*
X-00293Y-01371*
X-00294Y-01371*
X-00294Y-0137*
X-00295Y-0137*
X-00296Y-0137*
X-00296Y-0137*
X-00297*
X-00297Y-0137*
X-00298Y-0137*
X-00298Y-0137*
X-00299Y-01371*
X-00299Y-01371*
X-003Y-01371*
X-003Y-01371*
X-00301Y-01372*
X-00301Y-01372*
X-00302Y-01372*
X-00302Y-01373*
X-00302Y-01373*
X-00303Y-01374*
X-00303Y-01374*
X-00303Y-01374*
X-00304Y-01375*
X-00304Y-01376*
X-00304Y-01376*
X-00304Y-01377*
X-00304Y-01377*
X-00304Y-01378*
X-00304Y-01378*
X-00304Y-01379*
X-00304Y-01379*
X-00304Y-0138*
X-00304Y-0138*
X-00304Y-01381*
X-00304Y-01381*
X-00303Y-01382*
X-00303Y-01382*
X-00303Y-01383*
X-00302Y-01383*
X-00302Y-01384*
X-00302Y-01384*
X-00301Y-01385*
X-00301Y-01385*
X-003Y-01385*
X-003Y-01385*
X-00299Y-01386*
X-00299Y-01386*
X-00298Y-01386*
X-00298Y-01386*
X-00297Y-01386*
X-00297Y-01386*
X-00296*
X-00296Y-01386*
X-00295Y-01386*
X-00294Y-01386*
X-00294Y-01386*
X-00293Y-01386*
X-00293Y-01385*
X-00292Y-01385*
X-00292Y-01385*
X-00291Y-01385*
X-00291Y-01384*
X-00291Y-01384*
X-0029Y-01383*
X-0029Y-01383*
X-0029Y-01382*
X-00289Y-01382*
X-00289Y-01381*
X-00289Y-01381*
X-00289Y-0138*
X-00289Y-0138*
X-00288Y-01379*
X-00288Y-01379*
X-00288Y-01378*
Y-01478D02*
D01*
X-00288Y-01478*
X-00288Y-01477*
X-00289Y-01477*
X-00289Y-01476*
X-00289Y-01476*
X-00289Y-01475*
X-00289Y-01474*
X-0029Y-01474*
X-0029Y-01474*
X-0029Y-01473*
X-00291Y-01473*
X-00291Y-01472*
X-00291Y-01472*
X-00292Y-01472*
X-00292Y-01471*
X-00293Y-01471*
X-00293Y-01471*
X-00294Y-01471*
X-00294Y-0147*
X-00295Y-0147*
X-00296Y-0147*
X-00296Y-0147*
X-00297*
X-00297Y-0147*
X-00298Y-0147*
X-00298Y-0147*
X-00299Y-01471*
X-00299Y-01471*
X-003Y-01471*
X-003Y-01471*
X-00301Y-01472*
X-00301Y-01472*
X-00302Y-01472*
X-00302Y-01473*
X-00302Y-01473*
X-00303Y-01474*
X-00303Y-01474*
X-00303Y-01474*
X-00304Y-01475*
X-00304Y-01476*
X-00304Y-01476*
X-00304Y-01477*
X-00304Y-01477*
X-00304Y-01478*
X-00304Y-01478*
X-00304Y-01479*
X-00304Y-01479*
X-00304Y-0148*
X-00304Y-0148*
X-00304Y-01481*
X-00304Y-01481*
X-00303Y-01482*
X-00303Y-01482*
X-00303Y-01483*
X-00302Y-01483*
X-00302Y-01484*
X-00302Y-01484*
X-00301Y-01485*
X-00301Y-01485*
X-003Y-01485*
X-003Y-01485*
X-00299Y-01486*
X-00299Y-01486*
X-00298Y-01486*
X-00298Y-01486*
X-00297Y-01486*
X-00297Y-01486*
X-00296*
X-00296Y-01486*
X-00295Y-01486*
X-00294Y-01486*
X-00294Y-01486*
X-00293Y-01486*
X-00293Y-01485*
X-00292Y-01485*
X-00292Y-01485*
X-00291Y-01485*
X-00291Y-01484*
X-00291Y-01484*
X-0029Y-01483*
X-0029Y-01483*
X-0029Y-01482*
X-00289Y-01482*
X-00289Y-01481*
X-00289Y-01481*
X-00289Y-0148*
X-00289Y-0148*
X-00288Y-01479*
X-00288Y-01479*
X-00288Y-01478*
Y-01578D02*
D01*
X-00288Y-01578*
X-00288Y-01577*
X-00289Y-01577*
X-00289Y-01576*
X-00289Y-01576*
X-00289Y-01575*
X-00289Y-01574*
X-0029Y-01574*
X-0029Y-01574*
X-0029Y-01573*
X-00291Y-01573*
X-00291Y-01572*
X-00291Y-01572*
X-00292Y-01572*
X-00292Y-01571*
X-00293Y-01571*
X-00293Y-01571*
X-00294Y-01571*
X-00294Y-0157*
X-00295Y-0157*
X-00296Y-0157*
X-00296Y-0157*
X-00297*
X-00297Y-0157*
X-00298Y-0157*
X-00298Y-0157*
X-00299Y-01571*
X-00299Y-01571*
X-003Y-01571*
X-003Y-01571*
X-00301Y-01572*
X-00301Y-01572*
X-00302Y-01572*
X-00302Y-01573*
X-00302Y-01573*
X-00303Y-01574*
X-00303Y-01574*
X-00303Y-01574*
X-00304Y-01575*
X-00304Y-01576*
X-00304Y-01576*
X-00304Y-01577*
X-00304Y-01577*
X-00304Y-01578*
X-00304Y-01578*
X-00304Y-01579*
X-00304Y-01579*
X-00304Y-0158*
X-00304Y-0158*
X-00304Y-01581*
X-00304Y-01581*
X-00303Y-01582*
X-00303Y-01582*
X-00303Y-01583*
X-00302Y-01583*
X-00302Y-01584*
X-00302Y-01584*
X-00301Y-01585*
X-00301Y-01585*
X-003Y-01585*
X-003Y-01585*
X-00299Y-01586*
X-00299Y-01586*
X-00298Y-01586*
X-00298Y-01586*
X-00297Y-01586*
X-00297Y-01586*
X-00296*
X-00296Y-01586*
X-00295Y-01586*
X-00294Y-01586*
X-00294Y-01586*
X-00293Y-01586*
X-00293Y-01585*
X-00292Y-01585*
X-00292Y-01585*
X-00291Y-01585*
X-00291Y-01584*
X-00291Y-01584*
X-0029Y-01583*
X-0029Y-01583*
X-0029Y-01582*
X-00289Y-01582*
X-00289Y-01581*
X-00289Y-01581*
X-00289Y-0158*
X-00289Y-0158*
X-00288Y-01579*
X-00288Y-01579*
X-00288Y-01578*
Y-01678D02*
D01*
X-00288Y-01678*
X-00288Y-01677*
X-00289Y-01677*
X-00289Y-01676*
X-00289Y-01676*
X-00289Y-01675*
X-00289Y-01674*
X-0029Y-01674*
X-0029Y-01674*
X-0029Y-01673*
X-00291Y-01673*
X-00291Y-01672*
X-00291Y-01672*
X-00292Y-01672*
X-00292Y-01671*
X-00293Y-01671*
X-00293Y-01671*
X-00294Y-01671*
X-00294Y-0167*
X-00295Y-0167*
X-00296Y-0167*
X-00296Y-0167*
X-00297*
X-00297Y-0167*
X-00298Y-0167*
X-00298Y-0167*
X-00299Y-01671*
X-00299Y-01671*
X-003Y-01671*
X-003Y-01671*
X-00301Y-01672*
X-00301Y-01672*
X-00302Y-01672*
X-00302Y-01673*
X-00302Y-01673*
X-00303Y-01674*
X-00303Y-01674*
X-00303Y-01674*
X-00304Y-01675*
X-00304Y-01676*
X-00304Y-01676*
X-00304Y-01677*
X-00304Y-01677*
X-00304Y-01678*
X-00304Y-01678*
X-00304Y-01679*
X-00304Y-01679*
X-00304Y-0168*
X-00304Y-0168*
X-00304Y-01681*
X-00304Y-01681*
X-00303Y-01682*
X-00303Y-01682*
X-00303Y-01683*
X-00302Y-01683*
X-00302Y-01684*
X-00302Y-01684*
X-00301Y-01685*
X-00301Y-01685*
X-003Y-01685*
X-003Y-01685*
X-00299Y-01686*
X-00299Y-01686*
X-00298Y-01686*
X-00298Y-01686*
X-00297Y-01686*
X-00297Y-01686*
X-00296*
X-00296Y-01686*
X-00295Y-01686*
X-00294Y-01686*
X-00294Y-01686*
X-00293Y-01686*
X-00293Y-01685*
X-00292Y-01685*
X-00292Y-01685*
X-00291Y-01685*
X-00291Y-01684*
X-00291Y-01684*
X-0029Y-01683*
X-0029Y-01683*
X-0029Y-01682*
X-00289Y-01682*
X-00289Y-01681*
X-00289Y-01681*
X-00289Y-0168*
X-00289Y-0168*
X-00288Y-01679*
X-00288Y-01679*
X-00288Y-01678*
Y-01778D02*
D01*
X-00288Y-01778*
X-00288Y-01777*
X-00289Y-01777*
X-00289Y-01776*
X-00289Y-01776*
X-00289Y-01775*
X-00289Y-01774*
X-0029Y-01774*
X-0029Y-01774*
X-0029Y-01773*
X-00291Y-01773*
X-00291Y-01772*
X-00291Y-01772*
X-00292Y-01772*
X-00292Y-01771*
X-00293Y-01771*
X-00293Y-01771*
X-00294Y-01771*
X-00294Y-0177*
X-00295Y-0177*
X-00296Y-0177*
X-00296Y-0177*
X-00297*
X-00297Y-0177*
X-00298Y-0177*
X-00298Y-0177*
X-00299Y-01771*
X-00299Y-01771*
X-003Y-01771*
X-003Y-01771*
X-00301Y-01772*
X-00301Y-01772*
X-00302Y-01772*
X-00302Y-01773*
X-00302Y-01773*
X-00303Y-01774*
X-00303Y-01774*
X-00303Y-01774*
X-00304Y-01775*
X-00304Y-01776*
X-00304Y-01776*
X-00304Y-01777*
X-00304Y-01777*
X-00304Y-01778*
X-00304Y-01778*
X-00304Y-01779*
X-00304Y-01779*
X-00304Y-0178*
X-00304Y-0178*
X-00304Y-01781*
X-00304Y-01781*
X-00303Y-01782*
X-00303Y-01782*
X-00303Y-01783*
X-00302Y-01783*
X-00302Y-01784*
X-00302Y-01784*
X-00301Y-01785*
X-00301Y-01785*
X-003Y-01785*
X-003Y-01785*
X-00299Y-01786*
X-00299Y-01786*
X-00298Y-01786*
X-00298Y-01786*
X-00297Y-01786*
X-00297Y-01786*
X-00296*
X-00296Y-01786*
X-00295Y-01786*
X-00294Y-01786*
X-00294Y-01786*
X-00293Y-01786*
X-00293Y-01785*
X-00292Y-01785*
X-00292Y-01785*
X-00291Y-01785*
X-00291Y-01784*
X-00291Y-01784*
X-0029Y-01783*
X-0029Y-01783*
X-0029Y-01782*
X-00289Y-01782*
X-00289Y-01781*
X-00289Y-01781*
X-00289Y-0178*
X-00289Y-0178*
X-00288Y-01779*
X-00288Y-01779*
X-00288Y-01778*
Y-01878D02*
D01*
X-00288Y-01878*
X-00288Y-01877*
X-00289Y-01877*
X-00289Y-01876*
X-00289Y-01876*
X-00289Y-01875*
X-00289Y-01874*
X-0029Y-01874*
X-0029Y-01874*
X-0029Y-01873*
X-00291Y-01873*
X-00291Y-01872*
X-00291Y-01872*
X-00292Y-01872*
X-00292Y-01871*
X-00293Y-01871*
X-00293Y-01871*
X-00294Y-01871*
X-00294Y-0187*
X-00295Y-0187*
X-00296Y-0187*
X-00296Y-0187*
X-00297*
X-00297Y-0187*
X-00298Y-0187*
X-00298Y-0187*
X-00299Y-01871*
X-00299Y-01871*
X-003Y-01871*
X-003Y-01871*
X-00301Y-01872*
X-00301Y-01872*
X-00302Y-01872*
X-00302Y-01873*
X-00302Y-01873*
X-00303Y-01874*
X-00303Y-01874*
X-00303Y-01874*
X-00304Y-01875*
X-00304Y-01876*
X-00304Y-01876*
X-00304Y-01877*
X-00304Y-01877*
X-00304Y-01878*
X-00304Y-01878*
X-00304Y-01879*
X-00304Y-01879*
X-00304Y-0188*
X-00304Y-0188*
X-00304Y-01881*
X-00304Y-01881*
X-00303Y-01882*
X-00303Y-01882*
X-00303Y-01883*
X-00302Y-01883*
X-00302Y-01884*
X-00302Y-01884*
X-00301Y-01885*
X-00301Y-01885*
X-003Y-01885*
X-003Y-01885*
X-00299Y-01886*
X-00299Y-01886*
X-00298Y-01886*
X-00298Y-01886*
X-00297Y-01886*
X-00297Y-01886*
X-00296*
X-00296Y-01886*
X-00295Y-01886*
X-00294Y-01886*
X-00294Y-01886*
X-00293Y-01886*
X-00293Y-01885*
X-00292Y-01885*
X-00292Y-01885*
X-00291Y-01885*
X-00291Y-01884*
X-00291Y-01884*
X-0029Y-01883*
X-0029Y-01883*
X-0029Y-01882*
X-00289Y-01882*
X-00289Y-01881*
X-00289Y-01881*
X-00289Y-0188*
X-00289Y-0188*
X-00288Y-01879*
X-00288Y-01879*
X-00288Y-01878*
Y-01978D02*
D01*
X-00288Y-01978*
X-00288Y-01977*
X-00289Y-01977*
X-00289Y-01976*
X-00289Y-01976*
X-00289Y-01975*
X-00289Y-01974*
X-0029Y-01974*
X-0029Y-01974*
X-0029Y-01973*
X-00291Y-01973*
X-00291Y-01972*
X-00291Y-01972*
X-00292Y-01972*
X-00292Y-01971*
X-00293Y-01971*
X-00293Y-01971*
X-00294Y-01971*
X-00294Y-0197*
X-00295Y-0197*
X-00296Y-0197*
X-00296Y-0197*
X-00297*
X-00297Y-0197*
X-00298Y-0197*
X-00298Y-0197*
X-00299Y-01971*
X-00299Y-01971*
X-003Y-01971*
X-003Y-01971*
X-00301Y-01972*
X-00301Y-01972*
X-00302Y-01972*
X-00302Y-01973*
X-00302Y-01973*
X-00303Y-01974*
X-00303Y-01974*
X-00303Y-01974*
X-00304Y-01975*
X-00304Y-01976*
X-00304Y-01976*
X-00304Y-01977*
X-00304Y-01977*
X-00304Y-01978*
X-00304Y-01978*
X-00304Y-01979*
X-00304Y-01979*
X-00304Y-0198*
X-00304Y-0198*
X-00304Y-01981*
X-00304Y-01981*
X-00303Y-01982*
X-00303Y-01982*
X-00303Y-01983*
X-00302Y-01983*
X-00302Y-01984*
X-00302Y-01984*
X-00301Y-01985*
X-00301Y-01985*
X-003Y-01985*
X-003Y-01985*
X-00299Y-01986*
X-00299Y-01986*
X-00298Y-01986*
X-00298Y-01986*
X-00297Y-01986*
X-00297Y-01986*
X-00296*
X-00296Y-01986*
X-00295Y-01986*
X-00294Y-01986*
X-00294Y-01986*
X-00293Y-01986*
X-00293Y-01985*
X-00292Y-01985*
X-00292Y-01985*
X-00291Y-01985*
X-00291Y-01984*
X-00291Y-01984*
X-0029Y-01983*
X-0029Y-01983*
X-0029Y-01982*
X-00289Y-01982*
X-00289Y-01981*
X-00289Y-01981*
X-00289Y-0198*
X-00289Y-0198*
X-00288Y-01979*
X-00288Y-01979*
X-00288Y-01978*
Y-02078D02*
D01*
X-00288Y-02078*
X-00288Y-02077*
X-00289Y-02077*
X-00289Y-02076*
X-00289Y-02076*
X-00289Y-02075*
X-00289Y-02074*
X-0029Y-02074*
X-0029Y-02074*
X-0029Y-02073*
X-00291Y-02073*
X-00291Y-02072*
X-00291Y-02072*
X-00292Y-02072*
X-00292Y-02071*
X-00293Y-02071*
X-00293Y-02071*
X-00294Y-02071*
X-00294Y-0207*
X-00295Y-0207*
X-00296Y-0207*
X-00296Y-0207*
X-00297*
X-00297Y-0207*
X-00298Y-0207*
X-00298Y-0207*
X-00299Y-02071*
X-00299Y-02071*
X-003Y-02071*
X-003Y-02071*
X-00301Y-02072*
X-00301Y-02072*
X-00302Y-02072*
X-00302Y-02073*
X-00302Y-02073*
X-00303Y-02074*
X-00303Y-02074*
X-00303Y-02074*
X-00304Y-02075*
X-00304Y-02076*
X-00304Y-02076*
X-00304Y-02077*
X-00304Y-02077*
X-00304Y-02078*
X-00304Y-02078*
X-00304Y-02079*
X-00304Y-02079*
X-00304Y-0208*
X-00304Y-0208*
X-00304Y-02081*
X-00304Y-02081*
X-00303Y-02082*
X-00303Y-02082*
X-00303Y-02083*
X-00302Y-02083*
X-00302Y-02084*
X-00302Y-02084*
X-00301Y-02085*
X-00301Y-02085*
X-003Y-02085*
X-003Y-02085*
X-00299Y-02086*
X-00299Y-02086*
X-00298Y-02086*
X-00298Y-02086*
X-00297Y-02086*
X-00297Y-02086*
X-00296*
X-00296Y-02086*
X-00295Y-02086*
X-00294Y-02086*
X-00294Y-02086*
X-00293Y-02086*
X-00293Y-02085*
X-00292Y-02085*
X-00292Y-02085*
X-00291Y-02085*
X-00291Y-02084*
X-00291Y-02084*
X-0029Y-02083*
X-0029Y-02083*
X-0029Y-02082*
X-00289Y-02082*
X-00289Y-02081*
X-00289Y-02081*
X-00289Y-0208*
X-00289Y-0208*
X-00288Y-02079*
X-00288Y-02079*
X-00288Y-02078*
Y-02178D02*
D01*
X-00288Y-02178*
X-00288Y-02177*
X-00289Y-02177*
X-00289Y-02176*
X-00289Y-02176*
X-00289Y-02175*
X-00289Y-02174*
X-0029Y-02174*
X-0029Y-02174*
X-0029Y-02173*
X-00291Y-02173*
X-00291Y-02172*
X-00291Y-02172*
X-00292Y-02172*
X-00292Y-02171*
X-00293Y-02171*
X-00293Y-02171*
X-00294Y-02171*
X-00294Y-0217*
X-00295Y-0217*
X-00296Y-0217*
X-00296Y-0217*
X-00297*
X-00297Y-0217*
X-00298Y-0217*
X-00298Y-0217*
X-00299Y-02171*
X-00299Y-02171*
X-003Y-02171*
X-003Y-02171*
X-00301Y-02172*
X-00301Y-02172*
X-00302Y-02172*
X-00302Y-02173*
X-00302Y-02173*
X-00303Y-02174*
X-00303Y-02174*
X-00303Y-02174*
X-00304Y-02175*
X-00304Y-02176*
X-00304Y-02176*
X-00304Y-02177*
X-00304Y-02177*
X-00304Y-02178*
X-00304Y-02178*
X-00304Y-02179*
X-00304Y-02179*
X-00304Y-0218*
X-00304Y-0218*
X-00304Y-02181*
X-00304Y-02181*
X-00303Y-02182*
X-00303Y-02182*
X-00303Y-02183*
X-00302Y-02183*
X-00302Y-02184*
X-00302Y-02184*
X-00301Y-02185*
X-00301Y-02185*
X-003Y-02185*
X-003Y-02185*
X-00299Y-02186*
X-00299Y-02186*
X-00298Y-02186*
X-00298Y-02186*
X-00297Y-02186*
X-00297Y-02186*
X-00296*
X-00296Y-02186*
X-00295Y-02186*
X-00294Y-02186*
X-00294Y-02186*
X-00293Y-02186*
X-00293Y-02185*
X-00292Y-02185*
X-00292Y-02185*
X-00291Y-02185*
X-00291Y-02184*
X-00291Y-02184*
X-0029Y-02183*
X-0029Y-02183*
X-0029Y-02182*
X-00289Y-02182*
X-00289Y-02181*
X-00289Y-02181*
X-00289Y-0218*
X-00289Y-0218*
X-00288Y-02179*
X-00288Y-02179*
X-00288Y-02178*
Y-02278D02*
D01*
X-00288Y-02278*
X-00288Y-02277*
X-00289Y-02277*
X-00289Y-02276*
X-00289Y-02276*
X-00289Y-02275*
X-00289Y-02274*
X-0029Y-02274*
X-0029Y-02274*
X-0029Y-02273*
X-00291Y-02273*
X-00291Y-02272*
X-00291Y-02272*
X-00292Y-02272*
X-00292Y-02271*
X-00293Y-02271*
X-00293Y-02271*
X-00294Y-02271*
X-00294Y-0227*
X-00295Y-0227*
X-00296Y-0227*
X-00296Y-0227*
X-00297*
X-00297Y-0227*
X-00298Y-0227*
X-00298Y-0227*
X-00299Y-02271*
X-00299Y-02271*
X-003Y-02271*
X-003Y-02271*
X-00301Y-02272*
X-00301Y-02272*
X-00302Y-02272*
X-00302Y-02273*
X-00302Y-02273*
X-00303Y-02274*
X-00303Y-02274*
X-00303Y-02274*
X-00304Y-02275*
X-00304Y-02276*
X-00304Y-02276*
X-00304Y-02277*
X-00304Y-02277*
X-00304Y-02278*
X-00304Y-02278*
X-00304Y-02279*
X-00304Y-02279*
X-00304Y-0228*
X-00304Y-0228*
X-00304Y-02281*
X-00304Y-02281*
X-00303Y-02282*
X-00303Y-02282*
X-00303Y-02283*
X-00302Y-02283*
X-00302Y-02284*
X-00302Y-02284*
X-00301Y-02285*
X-00301Y-02285*
X-003Y-02285*
X-003Y-02285*
X-00299Y-02286*
X-00299Y-02286*
X-00298Y-02286*
X-00298Y-02286*
X-00297Y-02286*
X-00297Y-02286*
X-00296*
X-00296Y-02286*
X-00295Y-02286*
X-00294Y-02286*
X-00294Y-02286*
X-00293Y-02286*
X-00293Y-02285*
X-00292Y-02285*
X-00292Y-02285*
X-00291Y-02285*
X-00291Y-02284*
X-00291Y-02284*
X-0029Y-02283*
X-0029Y-02283*
X-0029Y-02282*
X-00289Y-02282*
X-00289Y-02281*
X-00289Y-02281*
X-00289Y-0228*
X-00289Y-0228*
X-00288Y-02279*
X-00288Y-02279*
X-00288Y-02278*
Y-02378D02*
D01*
X-00288Y-02378*
X-00288Y-02377*
X-00289Y-02377*
X-00289Y-02376*
X-00289Y-02376*
X-00289Y-02375*
X-00289Y-02374*
X-0029Y-02374*
X-0029Y-02374*
X-0029Y-02373*
X-00291Y-02373*
X-00291Y-02372*
X-00291Y-02372*
X-00292Y-02372*
X-00292Y-02371*
X-00293Y-02371*
X-00293Y-02371*
X-00294Y-02371*
X-00294Y-0237*
X-00295Y-0237*
X-00296Y-0237*
X-00296Y-0237*
X-00297*
X-00297Y-0237*
X-00298Y-0237*
X-00298Y-0237*
X-00299Y-02371*
X-00299Y-02371*
X-003Y-02371*
X-003Y-02371*
X-00301Y-02372*
X-00301Y-02372*
X-00302Y-02372*
X-00302Y-02373*
X-00302Y-02373*
X-00303Y-02374*
X-00303Y-02374*
X-00303Y-02374*
X-00304Y-02375*
X-00304Y-02376*
X-00304Y-02376*
X-00304Y-02377*
X-00304Y-02377*
X-00304Y-02378*
X-00304Y-02378*
X-00304Y-02379*
X-00304Y-02379*
X-00304Y-0238*
X-00304Y-0238*
X-00304Y-02381*
X-00304Y-02381*
X-00303Y-02382*
X-00303Y-02382*
X-00303Y-02383*
X-00302Y-02383*
X-00302Y-02384*
X-00302Y-02384*
X-00301Y-02385*
X-00301Y-02385*
X-003Y-02385*
X-003Y-02385*
X-00299Y-02386*
X-00299Y-02386*
X-00298Y-02386*
X-00298Y-02386*
X-00297Y-02386*
X-00297Y-02386*
X-00296*
X-00296Y-02386*
X-00295Y-02386*
X-00294Y-02386*
X-00294Y-02386*
X-00293Y-02386*
X-00293Y-02385*
X-00292Y-02385*
X-00292Y-02385*
X-00291Y-02385*
X-00291Y-02384*
X-00291Y-02384*
X-0029Y-02383*
X-0029Y-02383*
X-0029Y-02382*
X-00289Y-02382*
X-00289Y-02381*
X-00289Y-02381*
X-00289Y-0238*
X-00289Y-0238*
X-00288Y-02379*
X-00288Y-02379*
X-00288Y-02378*
Y-02478D02*
D01*
X-00288Y-02478*
X-00288Y-02477*
X-00289Y-02477*
X-00289Y-02476*
X-00289Y-02476*
X-00289Y-02475*
X-00289Y-02474*
X-0029Y-02474*
X-0029Y-02474*
X-0029Y-02473*
X-00291Y-02473*
X-00291Y-02472*
X-00291Y-02472*
X-00292Y-02472*
X-00292Y-02471*
X-00293Y-02471*
X-00293Y-02471*
X-00294Y-02471*
X-00294Y-0247*
X-00295Y-0247*
X-00296Y-0247*
X-00296Y-0247*
X-00297*
X-00297Y-0247*
X-00298Y-0247*
X-00298Y-0247*
X-00299Y-02471*
X-00299Y-02471*
X-003Y-02471*
X-003Y-02471*
X-00301Y-02472*
X-00301Y-02472*
X-00302Y-02472*
X-00302Y-02473*
X-00302Y-02473*
X-00303Y-02474*
X-00303Y-02474*
X-00303Y-02474*
X-00304Y-02475*
X-00304Y-02476*
X-00304Y-02476*
X-00304Y-02477*
X-00304Y-02477*
X-00304Y-02478*
X-00304Y-02478*
X-00304Y-02479*
X-00304Y-02479*
X-00304Y-0248*
X-00304Y-0248*
X-00304Y-02481*
X-00304Y-02481*
X-00303Y-02482*
X-00303Y-02482*
X-00303Y-02483*
X-00302Y-02483*
X-00302Y-02484*
X-00302Y-02484*
X-00301Y-02485*
X-00301Y-02485*
X-003Y-02485*
X-003Y-02485*
X-00299Y-02486*
X-00299Y-02486*
X-00298Y-02486*
X-00298Y-02486*
X-00297Y-02486*
X-00297Y-02486*
X-00296*
X-00296Y-02486*
X-00295Y-02486*
X-00294Y-02486*
X-00294Y-02486*
X-00293Y-02486*
X-00293Y-02485*
X-00292Y-02485*
X-00292Y-02485*
X-00291Y-02485*
X-00291Y-02484*
X-00291Y-02484*
X-0029Y-02483*
X-0029Y-02483*
X-0029Y-02482*
X-00289Y-02482*
X-00289Y-02481*
X-00289Y-02481*
X-00289Y-0248*
X-00289Y-0248*
X-00288Y-02479*
X-00288Y-02479*
X-00288Y-02478*
Y-02578D02*
D01*
X-00288Y-02578*
X-00288Y-02577*
X-00289Y-02577*
X-00289Y-02576*
X-00289Y-02576*
X-00289Y-02575*
X-00289Y-02574*
X-0029Y-02574*
X-0029Y-02574*
X-0029Y-02573*
X-00291Y-02573*
X-00291Y-02572*
X-00291Y-02572*
X-00292Y-02572*
X-00292Y-02571*
X-00293Y-02571*
X-00293Y-02571*
X-00294Y-02571*
X-00294Y-0257*
X-00295Y-0257*
X-00296Y-0257*
X-00296Y-0257*
X-00297*
X-00297Y-0257*
X-00298Y-0257*
X-00298Y-0257*
X-00299Y-02571*
X-00299Y-02571*
X-003Y-02571*
X-003Y-02571*
X-00301Y-02572*
X-00301Y-02572*
X-00302Y-02572*
X-00302Y-02573*
X-00302Y-02573*
X-00303Y-02574*
X-00303Y-02574*
X-00303Y-02574*
X-00304Y-02575*
X-00304Y-02576*
X-00304Y-02576*
X-00304Y-02577*
X-00304Y-02577*
X-00304Y-02578*
X-00304Y-02578*
X-00304Y-02579*
X-00304Y-02579*
X-00304Y-0258*
X-00304Y-0258*
X-00304Y-02581*
X-00304Y-02581*
X-00303Y-02582*
X-00303Y-02582*
X-00303Y-02583*
X-00302Y-02583*
X-00302Y-02584*
X-00302Y-02584*
X-00301Y-02585*
X-00301Y-02585*
X-003Y-02585*
X-003Y-02585*
X-00299Y-02586*
X-00299Y-02586*
X-00298Y-02586*
X-00298Y-02586*
X-00297Y-02586*
X-00297Y-02586*
X-00296*
X-00296Y-02586*
X-00295Y-02586*
X-00294Y-02586*
X-00294Y-02586*
X-00293Y-02586*
X-00293Y-02585*
X-00292Y-02585*
X-00292Y-02585*
X-00291Y-02585*
X-00291Y-02584*
X-00291Y-02584*
X-0029Y-02583*
X-0029Y-02583*
X-0029Y-02582*
X-00289Y-02582*
X-00289Y-02581*
X-00289Y-02581*
X-00289Y-0258*
X-00289Y-0258*
X-00288Y-02579*
X-00288Y-02579*
X-00288Y-02578*
Y-02678D02*
D01*
X-00288Y-02678*
X-00288Y-02677*
X-00289Y-02677*
X-00289Y-02676*
X-00289Y-02676*
X-00289Y-02675*
X-00289Y-02674*
X-0029Y-02674*
X-0029Y-02674*
X-0029Y-02673*
X-00291Y-02673*
X-00291Y-02672*
X-00291Y-02672*
X-00292Y-02672*
X-00292Y-02671*
X-00293Y-02671*
X-00293Y-02671*
X-00294Y-02671*
X-00294Y-0267*
X-00295Y-0267*
X-00296Y-0267*
X-00296Y-0267*
X-00297*
X-00297Y-0267*
X-00298Y-0267*
X-00298Y-0267*
X-00299Y-02671*
X-00299Y-02671*
X-003Y-02671*
X-003Y-02671*
X-00301Y-02672*
X-00301Y-02672*
X-00302Y-02672*
X-00302Y-02673*
X-00302Y-02673*
X-00303Y-02674*
X-00303Y-02674*
X-00303Y-02674*
X-00304Y-02675*
X-00304Y-02676*
X-00304Y-02676*
X-00304Y-02677*
X-00304Y-02677*
X-00304Y-02678*
X-00304Y-02678*
X-00304Y-02679*
X-00304Y-02679*
X-00304Y-0268*
X-00304Y-0268*
X-00304Y-02681*
X-00304Y-02681*
X-00303Y-02682*
X-00303Y-02682*
X-00303Y-02683*
X-00302Y-02683*
X-00302Y-02684*
X-00302Y-02684*
X-00301Y-02685*
X-00301Y-02685*
X-003Y-02685*
X-003Y-02685*
X-00299Y-02686*
X-00299Y-02686*
X-00298Y-02686*
X-00298Y-02686*
X-00297Y-02686*
X-00297Y-02686*
X-00296*
X-00296Y-02686*
X-00295Y-02686*
X-00294Y-02686*
X-00294Y-02686*
X-00293Y-02686*
X-00293Y-02685*
X-00292Y-02685*
X-00292Y-02685*
X-00291Y-02685*
X-00291Y-02684*
X-00291Y-02684*
X-0029Y-02683*
X-0029Y-02683*
X-0029Y-02682*
X-00289Y-02682*
X-00289Y-02681*
X-00289Y-02681*
X-00289Y-0268*
X-00289Y-0268*
X-00288Y-02679*
X-00288Y-02679*
X-00288Y-02678*
Y-02778D02*
D01*
X-00288Y-02778*
X-00288Y-02777*
X-00289Y-02777*
X-00289Y-02776*
X-00289Y-02776*
X-00289Y-02775*
X-00289Y-02774*
X-0029Y-02774*
X-0029Y-02774*
X-0029Y-02773*
X-00291Y-02773*
X-00291Y-02772*
X-00291Y-02772*
X-00292Y-02772*
X-00292Y-02771*
X-00293Y-02771*
X-00293Y-02771*
X-00294Y-02771*
X-00294Y-0277*
X-00295Y-0277*
X-00296Y-0277*
X-00296Y-0277*
X-00297*
X-00297Y-0277*
X-00298Y-0277*
X-00298Y-0277*
X-00299Y-02771*
X-00299Y-02771*
X-003Y-02771*
X-003Y-02771*
X-00301Y-02772*
X-00301Y-02772*
X-00302Y-02772*
X-00302Y-02773*
X-00302Y-02773*
X-00303Y-02774*
X-00303Y-02774*
X-00303Y-02774*
X-00304Y-02775*
X-00304Y-02776*
X-00304Y-02776*
X-00304Y-02777*
X-00304Y-02777*
X-00304Y-02778*
X-00304Y-02778*
X-00304Y-02779*
X-00304Y-02779*
X-00304Y-0278*
X-00304Y-0278*
X-00304Y-02781*
X-00304Y-02781*
X-00303Y-02782*
X-00303Y-02782*
X-00303Y-02783*
X-00302Y-02783*
X-00302Y-02784*
X-00302Y-02784*
X-00301Y-02785*
X-00301Y-02785*
X-003Y-02785*
X-003Y-02785*
X-00299Y-02786*
X-00299Y-02786*
X-00298Y-02786*
X-00298Y-02786*
X-00297Y-02786*
X-00297Y-02786*
X-00296*
X-00296Y-02786*
X-00295Y-02786*
X-00294Y-02786*
X-00294Y-02786*
X-00293Y-02786*
X-00293Y-02785*
X-00292Y-02785*
X-00292Y-02785*
X-00291Y-02785*
X-00291Y-02784*
X-00291Y-02784*
X-0029Y-02783*
X-0029Y-02783*
X-0029Y-02782*
X-00289Y-02782*
X-00289Y-02781*
X-00289Y-02781*
X-00289Y-0278*
X-00289Y-0278*
X-00288Y-02779*
X-00288Y-02779*
X-00288Y-02778*
X-00188Y-00178D02*
D01*
X-00188Y-00178*
X-00188Y-00177*
X-00189Y-00177*
X-00189Y-00176*
X-00189Y-00176*
X-00189Y-00175*
X-00189Y-00174*
X-0019Y-00174*
X-0019Y-00174*
X-0019Y-00173*
X-00191Y-00173*
X-00191Y-00172*
X-00191Y-00172*
X-00192Y-00172*
X-00192Y-00171*
X-00193Y-00171*
X-00193Y-00171*
X-00194Y-00171*
X-00194Y-0017*
X-00195Y-0017*
X-00196Y-0017*
X-00196Y-0017*
X-00197*
X-00197Y-0017*
X-00198Y-0017*
X-00198Y-0017*
X-00199Y-00171*
X-00199Y-00171*
X-002Y-00171*
X-002Y-00171*
X-00201Y-00172*
X-00201Y-00172*
X-00202Y-00172*
X-00202Y-00173*
X-00202Y-00173*
X-00203Y-00174*
X-00203Y-00174*
X-00203Y-00174*
X-00204Y-00175*
X-00204Y-00176*
X-00204Y-00176*
X-00204Y-00177*
X-00204Y-00177*
X-00204Y-00178*
X-00204Y-00178*
X-00204Y-00179*
X-00204Y-00179*
X-00204Y-0018*
X-00204Y-0018*
X-00204Y-00181*
X-00204Y-00181*
X-00203Y-00182*
X-00203Y-00182*
X-00203Y-00183*
X-00202Y-00183*
X-00202Y-00184*
X-00202Y-00184*
X-00201Y-00185*
X-00201Y-00185*
X-002Y-00185*
X-002Y-00185*
X-00199Y-00186*
X-00199Y-00186*
X-00198Y-00186*
X-00198Y-00186*
X-00197Y-00186*
X-00197Y-00186*
X-00196*
X-00196Y-00186*
X-00195Y-00186*
X-00194Y-00186*
X-00194Y-00186*
X-00193Y-00186*
X-00193Y-00185*
X-00192Y-00185*
X-00192Y-00185*
X-00191Y-00185*
X-00191Y-00184*
X-00191Y-00184*
X-0019Y-00183*
X-0019Y-00183*
X-0019Y-00182*
X-00189Y-00182*
X-00189Y-00181*
X-00189Y-00181*
X-00189Y-0018*
X-00189Y-0018*
X-00188Y-00179*
X-00188Y-00179*
X-00188Y-00178*
Y-00278D02*
D01*
X-00188Y-00278*
X-00188Y-00277*
X-00189Y-00277*
X-00189Y-00276*
X-00189Y-00276*
X-00189Y-00275*
X-00189Y-00274*
X-0019Y-00274*
X-0019Y-00274*
X-0019Y-00273*
X-00191Y-00273*
X-00191Y-00272*
X-00191Y-00272*
X-00192Y-00272*
X-00192Y-00271*
X-00193Y-00271*
X-00193Y-00271*
X-00194Y-00271*
X-00194Y-0027*
X-00195Y-0027*
X-00196Y-0027*
X-00196Y-0027*
X-00197*
X-00197Y-0027*
X-00198Y-0027*
X-00198Y-0027*
X-00199Y-00271*
X-00199Y-00271*
X-002Y-00271*
X-002Y-00271*
X-00201Y-00272*
X-00201Y-00272*
X-00202Y-00272*
X-00202Y-00273*
X-00202Y-00273*
X-00203Y-00274*
X-00203Y-00274*
X-00203Y-00274*
X-00204Y-00275*
X-00204Y-00276*
X-00204Y-00276*
X-00204Y-00277*
X-00204Y-00277*
X-00204Y-00278*
X-00204Y-00278*
X-00204Y-00279*
X-00204Y-00279*
X-00204Y-0028*
X-00204Y-0028*
X-00204Y-00281*
X-00204Y-00281*
X-00203Y-00282*
X-00203Y-00282*
X-00203Y-00283*
X-00202Y-00283*
X-00202Y-00284*
X-00202Y-00284*
X-00201Y-00285*
X-00201Y-00285*
X-002Y-00285*
X-002Y-00285*
X-00199Y-00286*
X-00199Y-00286*
X-00198Y-00286*
X-00198Y-00286*
X-00197Y-00286*
X-00197Y-00286*
X-00196*
X-00196Y-00286*
X-00195Y-00286*
X-00194Y-00286*
X-00194Y-00286*
X-00193Y-00286*
X-00193Y-00285*
X-00192Y-00285*
X-00192Y-00285*
X-00191Y-00285*
X-00191Y-00284*
X-00191Y-00284*
X-0019Y-00283*
X-0019Y-00283*
X-0019Y-00282*
X-00189Y-00282*
X-00189Y-00281*
X-00189Y-00281*
X-00189Y-0028*
X-00189Y-0028*
X-00188Y-00279*
X-00188Y-00279*
X-00188Y-00278*
Y-00378D02*
D01*
X-00188Y-00378*
X-00188Y-00377*
X-00189Y-00377*
X-00189Y-00376*
X-00189Y-00376*
X-00189Y-00375*
X-00189Y-00374*
X-0019Y-00374*
X-0019Y-00374*
X-0019Y-00373*
X-00191Y-00373*
X-00191Y-00372*
X-00191Y-00372*
X-00192Y-00372*
X-00192Y-00371*
X-00193Y-00371*
X-00193Y-00371*
X-00194Y-00371*
X-00194Y-0037*
X-00195Y-0037*
X-00196Y-0037*
X-00196Y-0037*
X-00197*
X-00197Y-0037*
X-00198Y-0037*
X-00198Y-0037*
X-00199Y-00371*
X-00199Y-00371*
X-002Y-00371*
X-002Y-00371*
X-00201Y-00372*
X-00201Y-00372*
X-00202Y-00372*
X-00202Y-00373*
X-00202Y-00373*
X-00203Y-00374*
X-00203Y-00374*
X-00203Y-00374*
X-00204Y-00375*
X-00204Y-00376*
X-00204Y-00376*
X-00204Y-00377*
X-00204Y-00377*
X-00204Y-00378*
X-00204Y-00378*
X-00204Y-00379*
X-00204Y-00379*
X-00204Y-0038*
X-00204Y-0038*
X-00204Y-00381*
X-00204Y-00381*
X-00203Y-00382*
X-00203Y-00382*
X-00203Y-00383*
X-00202Y-00383*
X-00202Y-00384*
X-00202Y-00384*
X-00201Y-00385*
X-00201Y-00385*
X-002Y-00385*
X-002Y-00385*
X-00199Y-00386*
X-00199Y-00386*
X-00198Y-00386*
X-00198Y-00386*
X-00197Y-00386*
X-00197Y-00386*
X-00196*
X-00196Y-00386*
X-00195Y-00386*
X-00194Y-00386*
X-00194Y-00386*
X-00193Y-00386*
X-00193Y-00385*
X-00192Y-00385*
X-00192Y-00385*
X-00191Y-00385*
X-00191Y-00384*
X-00191Y-00384*
X-0019Y-00383*
X-0019Y-00383*
X-0019Y-00382*
X-00189Y-00382*
X-00189Y-00381*
X-00189Y-00381*
X-00189Y-0038*
X-00189Y-0038*
X-00188Y-00379*
X-00188Y-00379*
X-00188Y-00378*
Y-00478D02*
D01*
X-00188Y-00478*
X-00188Y-00477*
X-00189Y-00477*
X-00189Y-00476*
X-00189Y-00476*
X-00189Y-00475*
X-00189Y-00474*
X-0019Y-00474*
X-0019Y-00474*
X-0019Y-00473*
X-00191Y-00473*
X-00191Y-00472*
X-00191Y-00472*
X-00192Y-00472*
X-00192Y-00471*
X-00193Y-00471*
X-00193Y-00471*
X-00194Y-00471*
X-00194Y-0047*
X-00195Y-0047*
X-00196Y-0047*
X-00196Y-0047*
X-00197*
X-00197Y-0047*
X-00198Y-0047*
X-00198Y-0047*
X-00199Y-00471*
X-00199Y-00471*
X-002Y-00471*
X-002Y-00471*
X-00201Y-00472*
X-00201Y-00472*
X-00202Y-00472*
X-00202Y-00473*
X-00202Y-00473*
X-00203Y-00474*
X-00203Y-00474*
X-00203Y-00474*
X-00204Y-00475*
X-00204Y-00476*
X-00204Y-00476*
X-00204Y-00477*
X-00204Y-00477*
X-00204Y-00478*
X-00204Y-00478*
X-00204Y-00479*
X-00204Y-00479*
X-00204Y-0048*
X-00204Y-0048*
X-00204Y-00481*
X-00204Y-00481*
X-00203Y-00482*
X-00203Y-00482*
X-00203Y-00483*
X-00202Y-00483*
X-00202Y-00484*
X-00202Y-00484*
X-00201Y-00485*
X-00201Y-00485*
X-002Y-00485*
X-002Y-00485*
X-00199Y-00486*
X-00199Y-00486*
X-00198Y-00486*
X-00198Y-00486*
X-00197Y-00486*
X-00197Y-00486*
X-00196*
X-00196Y-00486*
X-00195Y-00486*
X-00194Y-00486*
X-00194Y-00486*
X-00193Y-00486*
X-00193Y-00485*
X-00192Y-00485*
X-00192Y-00485*
X-00191Y-00485*
X-00191Y-00484*
X-00191Y-00484*
X-0019Y-00483*
X-0019Y-00483*
X-0019Y-00482*
X-00189Y-00482*
X-00189Y-00481*
X-00189Y-00481*
X-00189Y-0048*
X-00189Y-0048*
X-00188Y-00479*
X-00188Y-00479*
X-00188Y-00478*
Y-00578D02*
D01*
X-00188Y-00578*
X-00188Y-00577*
X-00189Y-00577*
X-00189Y-00576*
X-00189Y-00576*
X-00189Y-00575*
X-00189Y-00574*
X-0019Y-00574*
X-0019Y-00574*
X-0019Y-00573*
X-00191Y-00573*
X-00191Y-00572*
X-00191Y-00572*
X-00192Y-00572*
X-00192Y-00571*
X-00193Y-00571*
X-00193Y-00571*
X-00194Y-00571*
X-00194Y-0057*
X-00195Y-0057*
X-00196Y-0057*
X-00196Y-0057*
X-00197*
X-00197Y-0057*
X-00198Y-0057*
X-00198Y-0057*
X-00199Y-00571*
X-00199Y-00571*
X-002Y-00571*
X-002Y-00571*
X-00201Y-00572*
X-00201Y-00572*
X-00202Y-00572*
X-00202Y-00573*
X-00202Y-00573*
X-00203Y-00574*
X-00203Y-00574*
X-00203Y-00574*
X-00204Y-00575*
X-00204Y-00576*
X-00204Y-00576*
X-00204Y-00577*
X-00204Y-00577*
X-00204Y-00578*
X-00204Y-00578*
X-00204Y-00579*
X-00204Y-00579*
X-00204Y-0058*
X-00204Y-0058*
X-00204Y-00581*
X-00204Y-00581*
X-00203Y-00582*
X-00203Y-00582*
X-00203Y-00583*
X-00202Y-00583*
X-00202Y-00584*
X-00202Y-00584*
X-00201Y-00585*
X-00201Y-00585*
X-002Y-00585*
X-002Y-00585*
X-00199Y-00586*
X-00199Y-00586*
X-00198Y-00586*
X-00198Y-00586*
X-00197Y-00586*
X-00197Y-00586*
X-00196*
X-00196Y-00586*
X-00195Y-00586*
X-00194Y-00586*
X-00194Y-00586*
X-00193Y-00586*
X-00193Y-00585*
X-00192Y-00585*
X-00192Y-00585*
X-00191Y-00585*
X-00191Y-00584*
X-00191Y-00584*
X-0019Y-00583*
X-0019Y-00583*
X-0019Y-00582*
X-00189Y-00582*
X-00189Y-00581*
X-00189Y-00581*
X-00189Y-0058*
X-00189Y-0058*
X-00188Y-00579*
X-00188Y-00579*
X-00188Y-00578*
Y-00678D02*
D01*
X-00188Y-00678*
X-00188Y-00677*
X-00189Y-00677*
X-00189Y-00676*
X-00189Y-00676*
X-00189Y-00675*
X-00189Y-00674*
X-0019Y-00674*
X-0019Y-00674*
X-0019Y-00673*
X-00191Y-00673*
X-00191Y-00672*
X-00191Y-00672*
X-00192Y-00672*
X-00192Y-00671*
X-00193Y-00671*
X-00193Y-00671*
X-00194Y-00671*
X-00194Y-0067*
X-00195Y-0067*
X-00196Y-0067*
X-00196Y-0067*
X-00197*
X-00197Y-0067*
X-00198Y-0067*
X-00198Y-0067*
X-00199Y-00671*
X-00199Y-00671*
X-002Y-00671*
X-002Y-00671*
X-00201Y-00672*
X-00201Y-00672*
X-00202Y-00672*
X-00202Y-00673*
X-00202Y-00673*
X-00203Y-00674*
X-00203Y-00674*
X-00203Y-00674*
X-00204Y-00675*
X-00204Y-00676*
X-00204Y-00676*
X-00204Y-00677*
X-00204Y-00677*
X-00204Y-00678*
X-00204Y-00678*
X-00204Y-00679*
X-00204Y-00679*
X-00204Y-0068*
X-00204Y-0068*
X-00204Y-00681*
X-00204Y-00681*
X-00203Y-00682*
X-00203Y-00682*
X-00203Y-00683*
X-00202Y-00683*
X-00202Y-00684*
X-00202Y-00684*
X-00201Y-00685*
X-00201Y-00685*
X-002Y-00685*
X-002Y-00685*
X-00199Y-00686*
X-00199Y-00686*
X-00198Y-00686*
X-00198Y-00686*
X-00197Y-00686*
X-00197Y-00686*
X-00196*
X-00196Y-00686*
X-00195Y-00686*
X-00194Y-00686*
X-00194Y-00686*
X-00193Y-00686*
X-00193Y-00685*
X-00192Y-00685*
X-00192Y-00685*
X-00191Y-00685*
X-00191Y-00684*
X-00191Y-00684*
X-0019Y-00683*
X-0019Y-00683*
X-0019Y-00682*
X-00189Y-00682*
X-00189Y-00681*
X-00189Y-00681*
X-00189Y-0068*
X-00189Y-0068*
X-00188Y-00679*
X-00188Y-00679*
X-00188Y-00678*
Y-00778D02*
D01*
X-00188Y-00778*
X-00188Y-00777*
X-00189Y-00777*
X-00189Y-00776*
X-00189Y-00776*
X-00189Y-00775*
X-00189Y-00774*
X-0019Y-00774*
X-0019Y-00774*
X-0019Y-00773*
X-00191Y-00773*
X-00191Y-00772*
X-00191Y-00772*
X-00192Y-00772*
X-00192Y-00771*
X-00193Y-00771*
X-00193Y-00771*
X-00194Y-00771*
X-00194Y-0077*
X-00195Y-0077*
X-00196Y-0077*
X-00196Y-0077*
X-00197*
X-00197Y-0077*
X-00198Y-0077*
X-00198Y-0077*
X-00199Y-00771*
X-00199Y-00771*
X-002Y-00771*
X-002Y-00771*
X-00201Y-00772*
X-00201Y-00772*
X-00202Y-00772*
X-00202Y-00773*
X-00202Y-00773*
X-00203Y-00774*
X-00203Y-00774*
X-00203Y-00774*
X-00204Y-00775*
X-00204Y-00776*
X-00204Y-00776*
X-00204Y-00777*
X-00204Y-00777*
X-00204Y-00778*
X-00204Y-00778*
X-00204Y-00779*
X-00204Y-00779*
X-00204Y-0078*
X-00204Y-0078*
X-00204Y-00781*
X-00204Y-00781*
X-00203Y-00782*
X-00203Y-00782*
X-00203Y-00783*
X-00202Y-00783*
X-00202Y-00784*
X-00202Y-00784*
X-00201Y-00785*
X-00201Y-00785*
X-002Y-00785*
X-002Y-00785*
X-00199Y-00786*
X-00199Y-00786*
X-00198Y-00786*
X-00198Y-00786*
X-00197Y-00786*
X-00197Y-00786*
X-00196*
X-00196Y-00786*
X-00195Y-00786*
X-00194Y-00786*
X-00194Y-00786*
X-00193Y-00786*
X-00193Y-00785*
X-00192Y-00785*
X-00192Y-00785*
X-00191Y-00785*
X-00191Y-00784*
X-00191Y-00784*
X-0019Y-00783*
X-0019Y-00783*
X-0019Y-00782*
X-00189Y-00782*
X-00189Y-00781*
X-00189Y-00781*
X-00189Y-0078*
X-00189Y-0078*
X-00188Y-00779*
X-00188Y-00779*
X-00188Y-00778*
Y-00878D02*
D01*
X-00188Y-00878*
X-00188Y-00877*
X-00189Y-00877*
X-00189Y-00876*
X-00189Y-00876*
X-00189Y-00875*
X-00189Y-00874*
X-0019Y-00874*
X-0019Y-00874*
X-0019Y-00873*
X-00191Y-00873*
X-00191Y-00872*
X-00191Y-00872*
X-00192Y-00872*
X-00192Y-00871*
X-00193Y-00871*
X-00193Y-00871*
X-00194Y-00871*
X-00194Y-0087*
X-00195Y-0087*
X-00196Y-0087*
X-00196Y-0087*
X-00197*
X-00197Y-0087*
X-00198Y-0087*
X-00198Y-0087*
X-00199Y-00871*
X-00199Y-00871*
X-002Y-00871*
X-002Y-00871*
X-00201Y-00872*
X-00201Y-00872*
X-00202Y-00872*
X-00202Y-00873*
X-00202Y-00873*
X-00203Y-00874*
X-00203Y-00874*
X-00203Y-00874*
X-00204Y-00875*
X-00204Y-00876*
X-00204Y-00876*
X-00204Y-00877*
X-00204Y-00877*
X-00204Y-00878*
X-00204Y-00878*
X-00204Y-00879*
X-00204Y-00879*
X-00204Y-0088*
X-00204Y-0088*
X-00204Y-00881*
X-00204Y-00881*
X-00203Y-00882*
X-00203Y-00882*
X-00203Y-00883*
X-00202Y-00883*
X-00202Y-00884*
X-00202Y-00884*
X-00201Y-00885*
X-00201Y-00885*
X-002Y-00885*
X-002Y-00885*
X-00199Y-00886*
X-00199Y-00886*
X-00198Y-00886*
X-00198Y-00886*
X-00197Y-00886*
X-00197Y-00886*
X-00196*
X-00196Y-00886*
X-00195Y-00886*
X-00194Y-00886*
X-00194Y-00886*
X-00193Y-00886*
X-00193Y-00885*
X-00192Y-00885*
X-00192Y-00885*
X-00191Y-00885*
X-00191Y-00884*
X-00191Y-00884*
X-0019Y-00883*
X-0019Y-00883*
X-0019Y-00882*
X-00189Y-00882*
X-00189Y-00881*
X-00189Y-00881*
X-00189Y-0088*
X-00189Y-0088*
X-00188Y-00879*
X-00188Y-00879*
X-00188Y-00878*
Y-00978D02*
D01*
X-00188Y-00978*
X-00188Y-00977*
X-00189Y-00977*
X-00189Y-00976*
X-00189Y-00976*
X-00189Y-00975*
X-00189Y-00974*
X-0019Y-00974*
X-0019Y-00974*
X-0019Y-00973*
X-00191Y-00973*
X-00191Y-00972*
X-00191Y-00972*
X-00192Y-00972*
X-00192Y-00971*
X-00193Y-00971*
X-00193Y-00971*
X-00194Y-00971*
X-00194Y-0097*
X-00195Y-0097*
X-00196Y-0097*
X-00196Y-0097*
X-00197*
X-00197Y-0097*
X-00198Y-0097*
X-00198Y-0097*
X-00199Y-00971*
X-00199Y-00971*
X-002Y-00971*
X-002Y-00971*
X-00201Y-00972*
X-00201Y-00972*
X-00202Y-00972*
X-00202Y-00973*
X-00202Y-00973*
X-00203Y-00974*
X-00203Y-00974*
X-00203Y-00974*
X-00204Y-00975*
X-00204Y-00976*
X-00204Y-00976*
X-00204Y-00977*
X-00204Y-00977*
X-00204Y-00978*
X-00204Y-00978*
X-00204Y-00979*
X-00204Y-00979*
X-00204Y-0098*
X-00204Y-0098*
X-00204Y-00981*
X-00204Y-00981*
X-00203Y-00982*
X-00203Y-00982*
X-00203Y-00983*
X-00202Y-00983*
X-00202Y-00984*
X-00202Y-00984*
X-00201Y-00985*
X-00201Y-00985*
X-002Y-00985*
X-002Y-00985*
X-00199Y-00986*
X-00199Y-00986*
X-00198Y-00986*
X-00198Y-00986*
X-00197Y-00986*
X-00197Y-00986*
X-00196*
X-00196Y-00986*
X-00195Y-00986*
X-00194Y-00986*
X-00194Y-00986*
X-00193Y-00986*
X-00193Y-00985*
X-00192Y-00985*
X-00192Y-00985*
X-00191Y-00985*
X-00191Y-00984*
X-00191Y-00984*
X-0019Y-00983*
X-0019Y-00983*
X-0019Y-00982*
X-00189Y-00982*
X-00189Y-00981*
X-00189Y-00981*
X-00189Y-0098*
X-00189Y-0098*
X-00188Y-00979*
X-00188Y-00979*
X-00188Y-00978*
Y-01078D02*
D01*
X-00188Y-01078*
X-00188Y-01077*
X-00189Y-01077*
X-00189Y-01076*
X-00189Y-01076*
X-00189Y-01075*
X-00189Y-01074*
X-0019Y-01074*
X-0019Y-01074*
X-0019Y-01073*
X-00191Y-01073*
X-00191Y-01072*
X-00191Y-01072*
X-00192Y-01072*
X-00192Y-01071*
X-00193Y-01071*
X-00193Y-01071*
X-00194Y-01071*
X-00194Y-0107*
X-00195Y-0107*
X-00196Y-0107*
X-00196Y-0107*
X-00197*
X-00197Y-0107*
X-00198Y-0107*
X-00198Y-0107*
X-00199Y-01071*
X-00199Y-01071*
X-002Y-01071*
X-002Y-01071*
X-00201Y-01072*
X-00201Y-01072*
X-00202Y-01072*
X-00202Y-01073*
X-00202Y-01073*
X-00203Y-01074*
X-00203Y-01074*
X-00203Y-01074*
X-00204Y-01075*
X-00204Y-01076*
X-00204Y-01076*
X-00204Y-01077*
X-00204Y-01077*
X-00204Y-01078*
X-00204Y-01078*
X-00204Y-01079*
X-00204Y-01079*
X-00204Y-0108*
X-00204Y-0108*
X-00204Y-01081*
X-00204Y-01081*
X-00203Y-01082*
X-00203Y-01082*
X-00203Y-01083*
X-00202Y-01083*
X-00202Y-01084*
X-00202Y-01084*
X-00201Y-01085*
X-00201Y-01085*
X-002Y-01085*
X-002Y-01085*
X-00199Y-01086*
X-00199Y-01086*
X-00198Y-01086*
X-00198Y-01086*
X-00197Y-01086*
X-00197Y-01086*
X-00196*
X-00196Y-01086*
X-00195Y-01086*
X-00194Y-01086*
X-00194Y-01086*
X-00193Y-01086*
X-00193Y-01085*
X-00192Y-01085*
X-00192Y-01085*
X-00191Y-01085*
X-00191Y-01084*
X-00191Y-01084*
X-0019Y-01083*
X-0019Y-01083*
X-0019Y-01082*
X-00189Y-01082*
X-00189Y-01081*
X-00189Y-01081*
X-00189Y-0108*
X-00189Y-0108*
X-00188Y-01079*
X-00188Y-01079*
X-00188Y-01078*
Y-01178D02*
D01*
X-00188Y-01178*
X-00188Y-01177*
X-00189Y-01177*
X-00189Y-01176*
X-00189Y-01176*
X-00189Y-01175*
X-00189Y-01174*
X-0019Y-01174*
X-0019Y-01174*
X-0019Y-01173*
X-00191Y-01173*
X-00191Y-01172*
X-00191Y-01172*
X-00192Y-01172*
X-00192Y-01171*
X-00193Y-01171*
X-00193Y-01171*
X-00194Y-01171*
X-00194Y-0117*
X-00195Y-0117*
X-00196Y-0117*
X-00196Y-0117*
X-00197*
X-00197Y-0117*
X-00198Y-0117*
X-00198Y-0117*
X-00199Y-01171*
X-00199Y-01171*
X-002Y-01171*
X-002Y-01171*
X-00201Y-01172*
X-00201Y-01172*
X-00202Y-01172*
X-00202Y-01173*
X-00202Y-01173*
X-00203Y-01174*
X-00203Y-01174*
X-00203Y-01174*
X-00204Y-01175*
X-00204Y-01176*
X-00204Y-01176*
X-00204Y-01177*
X-00204Y-01177*
X-00204Y-01178*
X-00204Y-01178*
X-00204Y-01179*
X-00204Y-01179*
X-00204Y-0118*
X-00204Y-0118*
X-00204Y-01181*
X-00204Y-01181*
X-00203Y-01182*
X-00203Y-01182*
X-00203Y-01183*
X-00202Y-01183*
X-00202Y-01184*
X-00202Y-01184*
X-00201Y-01185*
X-00201Y-01185*
X-002Y-01185*
X-002Y-01185*
X-00199Y-01186*
X-00199Y-01186*
X-00198Y-01186*
X-00198Y-01186*
X-00197Y-01186*
X-00197Y-01186*
X-00196*
X-00196Y-01186*
X-00195Y-01186*
X-00194Y-01186*
X-00194Y-01186*
X-00193Y-01186*
X-00193Y-01185*
X-00192Y-01185*
X-00192Y-01185*
X-00191Y-01185*
X-00191Y-01184*
X-00191Y-01184*
X-0019Y-01183*
X-0019Y-01183*
X-0019Y-01182*
X-00189Y-01182*
X-00189Y-01181*
X-00189Y-01181*
X-00189Y-0118*
X-00189Y-0118*
X-00188Y-01179*
X-00188Y-01179*
X-00188Y-01178*
Y-01278D02*
D01*
X-00188Y-01278*
X-00188Y-01277*
X-00189Y-01277*
X-00189Y-01276*
X-00189Y-01276*
X-00189Y-01275*
X-00189Y-01274*
X-0019Y-01274*
X-0019Y-01274*
X-0019Y-01273*
X-00191Y-01273*
X-00191Y-01272*
X-00191Y-01272*
X-00192Y-01272*
X-00192Y-01271*
X-00193Y-01271*
X-00193Y-01271*
X-00194Y-01271*
X-00194Y-0127*
X-00195Y-0127*
X-00196Y-0127*
X-00196Y-0127*
X-00197*
X-00197Y-0127*
X-00198Y-0127*
X-00198Y-0127*
X-00199Y-01271*
X-00199Y-01271*
X-002Y-01271*
X-002Y-01271*
X-00201Y-01272*
X-00201Y-01272*
X-00202Y-01272*
X-00202Y-01273*
X-00202Y-01273*
X-00203Y-01274*
X-00203Y-01274*
X-00203Y-01274*
X-00204Y-01275*
X-00204Y-01276*
X-00204Y-01276*
X-00204Y-01277*
X-00204Y-01277*
X-00204Y-01278*
X-00204Y-01278*
X-00204Y-01279*
X-00204Y-01279*
X-00204Y-0128*
X-00204Y-0128*
X-00204Y-01281*
X-00204Y-01281*
X-00203Y-01282*
X-00203Y-01282*
X-00203Y-01283*
X-00202Y-01283*
X-00202Y-01284*
X-00202Y-01284*
X-00201Y-01285*
X-00201Y-01285*
X-002Y-01285*
X-002Y-01285*
X-00199Y-01286*
X-00199Y-01286*
X-00198Y-01286*
X-00198Y-01286*
X-00197Y-01286*
X-00197Y-01286*
X-00196*
X-00196Y-01286*
X-00195Y-01286*
X-00194Y-01286*
X-00194Y-01286*
X-00193Y-01286*
X-00193Y-01285*
X-00192Y-01285*
X-00192Y-01285*
X-00191Y-01285*
X-00191Y-01284*
X-00191Y-01284*
X-0019Y-01283*
X-0019Y-01283*
X-0019Y-01282*
X-00189Y-01282*
X-00189Y-01281*
X-00189Y-01281*
X-00189Y-0128*
X-00189Y-0128*
X-00188Y-01279*
X-00188Y-01279*
X-00188Y-01278*
Y-01378D02*
D01*
X-00188Y-01378*
X-00188Y-01377*
X-00189Y-01377*
X-00189Y-01376*
X-00189Y-01376*
X-00189Y-01375*
X-00189Y-01374*
X-0019Y-01374*
X-0019Y-01374*
X-0019Y-01373*
X-00191Y-01373*
X-00191Y-01372*
X-00191Y-01372*
X-00192Y-01372*
X-00192Y-01371*
X-00193Y-01371*
X-00193Y-01371*
X-00194Y-01371*
X-00194Y-0137*
X-00195Y-0137*
X-00196Y-0137*
X-00196Y-0137*
X-00197*
X-00197Y-0137*
X-00198Y-0137*
X-00198Y-0137*
X-00199Y-01371*
X-00199Y-01371*
X-002Y-01371*
X-002Y-01371*
X-00201Y-01372*
X-00201Y-01372*
X-00202Y-01372*
X-00202Y-01373*
X-00202Y-01373*
X-00203Y-01374*
X-00203Y-01374*
X-00203Y-01374*
X-00204Y-01375*
X-00204Y-01376*
X-00204Y-01376*
X-00204Y-01377*
X-00204Y-01377*
X-00204Y-01378*
X-00204Y-01378*
X-00204Y-01379*
X-00204Y-01379*
X-00204Y-0138*
X-00204Y-0138*
X-00204Y-01381*
X-00204Y-01381*
X-00203Y-01382*
X-00203Y-01382*
X-00203Y-01383*
X-00202Y-01383*
X-00202Y-01384*
X-00202Y-01384*
X-00201Y-01385*
X-00201Y-01385*
X-002Y-01385*
X-002Y-01385*
X-00199Y-01386*
X-00199Y-01386*
X-00198Y-01386*
X-00198Y-01386*
X-00197Y-01386*
X-00197Y-01386*
X-00196*
X-00196Y-01386*
X-00195Y-01386*
X-00194Y-01386*
X-00194Y-01386*
X-00193Y-01386*
X-00193Y-01385*
X-00192Y-01385*
X-00192Y-01385*
X-00191Y-01385*
X-00191Y-01384*
X-00191Y-01384*
X-0019Y-01383*
X-0019Y-01383*
X-0019Y-01382*
X-00189Y-01382*
X-00189Y-01381*
X-00189Y-01381*
X-00189Y-0138*
X-00189Y-0138*
X-00188Y-01379*
X-00188Y-01379*
X-00188Y-01378*
Y-01478D02*
D01*
X-00188Y-01478*
X-00188Y-01477*
X-00189Y-01477*
X-00189Y-01476*
X-00189Y-01476*
X-00189Y-01475*
X-00189Y-01474*
X-0019Y-01474*
X-0019Y-01474*
X-0019Y-01473*
X-00191Y-01473*
X-00191Y-01472*
X-00191Y-01472*
X-00192Y-01472*
X-00192Y-01471*
X-00193Y-01471*
X-00193Y-01471*
X-00194Y-01471*
X-00194Y-0147*
X-00195Y-0147*
X-00196Y-0147*
X-00196Y-0147*
X-00197*
X-00197Y-0147*
X-00198Y-0147*
X-00198Y-0147*
X-00199Y-01471*
X-00199Y-01471*
X-002Y-01471*
X-002Y-01471*
X-00201Y-01472*
X-00201Y-01472*
X-00202Y-01472*
X-00202Y-01473*
X-00202Y-01473*
X-00203Y-01474*
X-00203Y-01474*
X-00203Y-01474*
X-00204Y-01475*
X-00204Y-01476*
X-00204Y-01476*
X-00204Y-01477*
X-00204Y-01477*
X-00204Y-01478*
X-00204Y-01478*
X-00204Y-01479*
X-00204Y-01479*
X-00204Y-0148*
X-00204Y-0148*
X-00204Y-01481*
X-00204Y-01481*
X-00203Y-01482*
X-00203Y-01482*
X-00203Y-01483*
X-00202Y-01483*
X-00202Y-01484*
X-00202Y-01484*
X-00201Y-01485*
X-00201Y-01485*
X-002Y-01485*
X-002Y-01485*
X-00199Y-01486*
X-00199Y-01486*
X-00198Y-01486*
X-00198Y-01486*
X-00197Y-01486*
X-00197Y-01486*
X-00196*
X-00196Y-01486*
X-00195Y-01486*
X-00194Y-01486*
X-00194Y-01486*
X-00193Y-01486*
X-00193Y-01485*
X-00192Y-01485*
X-00192Y-01485*
X-00191Y-01485*
X-00191Y-01484*
X-00191Y-01484*
X-0019Y-01483*
X-0019Y-01483*
X-0019Y-01482*
X-00189Y-01482*
X-00189Y-01481*
X-00189Y-01481*
X-00189Y-0148*
X-00189Y-0148*
X-00188Y-01479*
X-00188Y-01479*
X-00188Y-01478*
Y-01578D02*
D01*
X-00188Y-01578*
X-00188Y-01577*
X-00189Y-01577*
X-00189Y-01576*
X-00189Y-01576*
X-00189Y-01575*
X-00189Y-01574*
X-0019Y-01574*
X-0019Y-01574*
X-0019Y-01573*
X-00191Y-01573*
X-00191Y-01572*
X-00191Y-01572*
X-00192Y-01572*
X-00192Y-01571*
X-00193Y-01571*
X-00193Y-01571*
X-00194Y-01571*
X-00194Y-0157*
X-00195Y-0157*
X-00196Y-0157*
X-00196Y-0157*
X-00197*
X-00197Y-0157*
X-00198Y-0157*
X-00198Y-0157*
X-00199Y-01571*
X-00199Y-01571*
X-002Y-01571*
X-002Y-01571*
X-00201Y-01572*
X-00201Y-01572*
X-00202Y-01572*
X-00202Y-01573*
X-00202Y-01573*
X-00203Y-01574*
X-00203Y-01574*
X-00203Y-01574*
X-00204Y-01575*
X-00204Y-01576*
X-00204Y-01576*
X-00204Y-01577*
X-00204Y-01577*
X-00204Y-01578*
X-00204Y-01578*
X-00204Y-01579*
X-00204Y-01579*
X-00204Y-0158*
X-00204Y-0158*
X-00204Y-01581*
X-00204Y-01581*
X-00203Y-01582*
X-00203Y-01582*
X-00203Y-01583*
X-00202Y-01583*
X-00202Y-01584*
X-00202Y-01584*
X-00201Y-01585*
X-00201Y-01585*
X-002Y-01585*
X-002Y-01585*
X-00199Y-01586*
X-00199Y-01586*
X-00198Y-01586*
X-00198Y-01586*
X-00197Y-01586*
X-00197Y-01586*
X-00196*
X-00196Y-01586*
X-00195Y-01586*
X-00194Y-01586*
X-00194Y-01586*
X-00193Y-01586*
X-00193Y-01585*
X-00192Y-01585*
X-00192Y-01585*
X-00191Y-01585*
X-00191Y-01584*
X-00191Y-01584*
X-0019Y-01583*
X-0019Y-01583*
X-0019Y-01582*
X-00189Y-01582*
X-00189Y-01581*
X-00189Y-01581*
X-00189Y-0158*
X-00189Y-0158*
X-00188Y-01579*
X-00188Y-01579*
X-00188Y-01578*
Y-01678D02*
D01*
X-00188Y-01678*
X-00188Y-01677*
X-00189Y-01677*
X-00189Y-01676*
X-00189Y-01676*
X-00189Y-01675*
X-00189Y-01674*
X-0019Y-01674*
X-0019Y-01674*
X-0019Y-01673*
X-00191Y-01673*
X-00191Y-01672*
X-00191Y-01672*
X-00192Y-01672*
X-00192Y-01671*
X-00193Y-01671*
X-00193Y-01671*
X-00194Y-01671*
X-00194Y-0167*
X-00195Y-0167*
X-00196Y-0167*
X-00196Y-0167*
X-00197*
X-00197Y-0167*
X-00198Y-0167*
X-00198Y-0167*
X-00199Y-01671*
X-00199Y-01671*
X-002Y-01671*
X-002Y-01671*
X-00201Y-01672*
X-00201Y-01672*
X-00202Y-01672*
X-00202Y-01673*
X-00202Y-01673*
X-00203Y-01674*
X-00203Y-01674*
X-00203Y-01674*
X-00204Y-01675*
X-00204Y-01676*
X-00204Y-01676*
X-00204Y-01677*
X-00204Y-01677*
X-00204Y-01678*
X-00204Y-01678*
X-00204Y-01679*
X-00204Y-01679*
X-00204Y-0168*
X-00204Y-0168*
X-00204Y-01681*
X-00204Y-01681*
X-00203Y-01682*
X-00203Y-01682*
X-00203Y-01683*
X-00202Y-01683*
X-00202Y-01684*
X-00202Y-01684*
X-00201Y-01685*
X-00201Y-01685*
X-002Y-01685*
X-002Y-01685*
X-00199Y-01686*
X-00199Y-01686*
X-00198Y-01686*
X-00198Y-01686*
X-00197Y-01686*
X-00197Y-01686*
X-00196*
X-00196Y-01686*
X-00195Y-01686*
X-00194Y-01686*
X-00194Y-01686*
X-00193Y-01686*
X-00193Y-01685*
X-00192Y-01685*
X-00192Y-01685*
X-00191Y-01685*
X-00191Y-01684*
X-00191Y-01684*
X-0019Y-01683*
X-0019Y-01683*
X-0019Y-01682*
X-00189Y-01682*
X-00189Y-01681*
X-00189Y-01681*
X-00189Y-0168*
X-00189Y-0168*
X-00188Y-01679*
X-00188Y-01679*
X-00188Y-01678*
Y-01778D02*
D01*
X-00188Y-01778*
X-00188Y-01777*
X-00189Y-01777*
X-00189Y-01776*
X-00189Y-01776*
X-00189Y-01775*
X-00189Y-01774*
X-0019Y-01774*
X-0019Y-01774*
X-0019Y-01773*
X-00191Y-01773*
X-00191Y-01772*
X-00191Y-01772*
X-00192Y-01772*
X-00192Y-01771*
X-00193Y-01771*
X-00193Y-01771*
X-00194Y-01771*
X-00194Y-0177*
X-00195Y-0177*
X-00196Y-0177*
X-00196Y-0177*
X-00197*
X-00197Y-0177*
X-00198Y-0177*
X-00198Y-0177*
X-00199Y-01771*
X-00199Y-01771*
X-002Y-01771*
X-002Y-01771*
X-00201Y-01772*
X-00201Y-01772*
X-00202Y-01772*
X-00202Y-01773*
X-00202Y-01773*
X-00203Y-01774*
X-00203Y-01774*
X-00203Y-01774*
X-00204Y-01775*
X-00204Y-01776*
X-00204Y-01776*
X-00204Y-01777*
X-00204Y-01777*
X-00204Y-01778*
X-00204Y-01778*
X-00204Y-01779*
X-00204Y-01779*
X-00204Y-0178*
X-00204Y-0178*
X-00204Y-01781*
X-00204Y-01781*
X-00203Y-01782*
X-00203Y-01782*
X-00203Y-01783*
X-00202Y-01783*
X-00202Y-01784*
X-00202Y-01784*
X-00201Y-01785*
X-00201Y-01785*
X-002Y-01785*
X-002Y-01785*
X-00199Y-01786*
X-00199Y-01786*
X-00198Y-01786*
X-00198Y-01786*
X-00197Y-01786*
X-00197Y-01786*
X-00196*
X-00196Y-01786*
X-00195Y-01786*
X-00194Y-01786*
X-00194Y-01786*
X-00193Y-01786*
X-00193Y-01785*
X-00192Y-01785*
X-00192Y-01785*
X-00191Y-01785*
X-00191Y-01784*
X-00191Y-01784*
X-0019Y-01783*
X-0019Y-01783*
X-0019Y-01782*
X-00189Y-01782*
X-00189Y-01781*
X-00189Y-01781*
X-00189Y-0178*
X-00189Y-0178*
X-00188Y-01779*
X-00188Y-01779*
X-00188Y-01778*
Y-01878D02*
D01*
X-00188Y-01878*
X-00188Y-01877*
X-00189Y-01877*
X-00189Y-01876*
X-00189Y-01876*
X-00189Y-01875*
X-00189Y-01874*
X-0019Y-01874*
X-0019Y-01874*
X-0019Y-01873*
X-00191Y-01873*
X-00191Y-01872*
X-00191Y-01872*
X-00192Y-01872*
X-00192Y-01871*
X-00193Y-01871*
X-00193Y-01871*
X-00194Y-01871*
X-00194Y-0187*
X-00195Y-0187*
X-00196Y-0187*
X-00196Y-0187*
X-00197*
X-00197Y-0187*
X-00198Y-0187*
X-00198Y-0187*
X-00199Y-01871*
X-00199Y-01871*
X-002Y-01871*
X-002Y-01871*
X-00201Y-01872*
X-00201Y-01872*
X-00202Y-01872*
X-00202Y-01873*
X-00202Y-01873*
X-00203Y-01874*
X-00203Y-01874*
X-00203Y-01874*
X-00204Y-01875*
X-00204Y-01876*
X-00204Y-01876*
X-00204Y-01877*
X-00204Y-01877*
X-00204Y-01878*
X-00204Y-01878*
X-00204Y-01879*
X-00204Y-01879*
X-00204Y-0188*
X-00204Y-0188*
X-00204Y-01881*
X-00204Y-01881*
X-00203Y-01882*
X-00203Y-01882*
X-00203Y-01883*
X-00202Y-01883*
X-00202Y-01884*
X-00202Y-01884*
X-00201Y-01885*
X-00201Y-01885*
X-002Y-01885*
X-002Y-01885*
X-00199Y-01886*
X-00199Y-01886*
X-00198Y-01886*
X-00198Y-01886*
X-00197Y-01886*
X-00197Y-01886*
X-00196*
X-00196Y-01886*
X-00195Y-01886*
X-00194Y-01886*
X-00194Y-01886*
X-00193Y-01886*
X-00193Y-01885*
X-00192Y-01885*
X-00192Y-01885*
X-00191Y-01885*
X-00191Y-01884*
X-00191Y-01884*
X-0019Y-01883*
X-0019Y-01883*
X-0019Y-01882*
X-00189Y-01882*
X-00189Y-01881*
X-00189Y-01881*
X-00189Y-0188*
X-00189Y-0188*
X-00188Y-01879*
X-00188Y-01879*
X-00188Y-01878*
Y-01978D02*
D01*
X-00188Y-01978*
X-00188Y-01977*
X-00189Y-01977*
X-00189Y-01976*
X-00189Y-01976*
X-00189Y-01975*
X-00189Y-01974*
X-0019Y-01974*
X-0019Y-01974*
X-0019Y-01973*
X-00191Y-01973*
X-00191Y-01972*
X-00191Y-01972*
X-00192Y-01972*
X-00192Y-01971*
X-00193Y-01971*
X-00193Y-01971*
X-00194Y-01971*
X-00194Y-0197*
X-00195Y-0197*
X-00196Y-0197*
X-00196Y-0197*
X-00197*
X-00197Y-0197*
X-00198Y-0197*
X-00198Y-0197*
X-00199Y-01971*
X-00199Y-01971*
X-002Y-01971*
X-002Y-01971*
X-00201Y-01972*
X-00201Y-01972*
X-00202Y-01972*
X-00202Y-01973*
X-00202Y-01973*
X-00203Y-01974*
X-00203Y-01974*
X-00203Y-01974*
X-00204Y-01975*
X-00204Y-01976*
X-00204Y-01976*
X-00204Y-01977*
X-00204Y-01977*
X-00204Y-01978*
X-00204Y-01978*
X-00204Y-01979*
X-00204Y-01979*
X-00204Y-0198*
X-00204Y-0198*
X-00204Y-01981*
X-00204Y-01981*
X-00203Y-01982*
X-00203Y-01982*
X-00203Y-01983*
X-00202Y-01983*
X-00202Y-01984*
X-00202Y-01984*
X-00201Y-01985*
X-00201Y-01985*
X-002Y-01985*
X-002Y-01985*
X-00199Y-01986*
X-00199Y-01986*
X-00198Y-01986*
X-00198Y-01986*
X-00197Y-01986*
X-00197Y-01986*
X-00196*
X-00196Y-01986*
X-00195Y-01986*
X-00194Y-01986*
X-00194Y-01986*
X-00193Y-01986*
X-00193Y-01985*
X-00192Y-01985*
X-00192Y-01985*
X-00191Y-01985*
X-00191Y-01984*
X-00191Y-01984*
X-0019Y-01983*
X-0019Y-01983*
X-0019Y-01982*
X-00189Y-01982*
X-00189Y-01981*
X-00189Y-01981*
X-00189Y-0198*
X-00189Y-0198*
X-00188Y-01979*
X-00188Y-01979*
X-00188Y-01978*
Y-02078D02*
D01*
X-00188Y-02078*
X-00188Y-02077*
X-00189Y-02077*
X-00189Y-02076*
X-00189Y-02076*
X-00189Y-02075*
X-00189Y-02074*
X-0019Y-02074*
X-0019Y-02074*
X-0019Y-02073*
X-00191Y-02073*
X-00191Y-02072*
X-00191Y-02072*
X-00192Y-02072*
X-00192Y-02071*
X-00193Y-02071*
X-00193Y-02071*
X-00194Y-02071*
X-00194Y-0207*
X-00195Y-0207*
X-00196Y-0207*
X-00196Y-0207*
X-00197*
X-00197Y-0207*
X-00198Y-0207*
X-00198Y-0207*
X-00199Y-02071*
X-00199Y-02071*
X-002Y-02071*
X-002Y-02071*
X-00201Y-02072*
X-00201Y-02072*
X-00202Y-02072*
X-00202Y-02073*
X-00202Y-02073*
X-00203Y-02074*
X-00203Y-02074*
X-00203Y-02074*
X-00204Y-02075*
X-00204Y-02076*
X-00204Y-02076*
X-00204Y-02077*
X-00204Y-02077*
X-00204Y-02078*
X-00204Y-02078*
X-00204Y-02079*
X-00204Y-02079*
X-00204Y-0208*
X-00204Y-0208*
X-00204Y-02081*
X-00204Y-02081*
X-00203Y-02082*
X-00203Y-02082*
X-00203Y-02083*
X-00202Y-02083*
X-00202Y-02084*
X-00202Y-02084*
X-00201Y-02085*
X-00201Y-02085*
X-002Y-02085*
X-002Y-02085*
X-00199Y-02086*
X-00199Y-02086*
X-00198Y-02086*
X-00198Y-02086*
X-00197Y-02086*
X-00197Y-02086*
X-00196*
X-00196Y-02086*
X-00195Y-02086*
X-00194Y-02086*
X-00194Y-02086*
X-00193Y-02086*
X-00193Y-02085*
X-00192Y-02085*
X-00192Y-02085*
X-00191Y-02085*
X-00191Y-02084*
X-00191Y-02084*
X-0019Y-02083*
X-0019Y-02083*
X-0019Y-02082*
X-00189Y-02082*
X-00189Y-02081*
X-00189Y-02081*
X-00189Y-0208*
X-00189Y-0208*
X-00188Y-02079*
X-00188Y-02079*
X-00188Y-02078*
Y-02178D02*
D01*
X-00188Y-02178*
X-00188Y-02177*
X-00189Y-02177*
X-00189Y-02176*
X-00189Y-02176*
X-00189Y-02175*
X-00189Y-02174*
X-0019Y-02174*
X-0019Y-02174*
X-0019Y-02173*
X-00191Y-02173*
X-00191Y-02172*
X-00191Y-02172*
X-00192Y-02172*
X-00192Y-02171*
X-00193Y-02171*
X-00193Y-02171*
X-00194Y-02171*
X-00194Y-0217*
X-00195Y-0217*
X-00196Y-0217*
X-00196Y-0217*
X-00197*
X-00197Y-0217*
X-00198Y-0217*
X-00198Y-0217*
X-00199Y-02171*
X-00199Y-02171*
X-002Y-02171*
X-002Y-02171*
X-00201Y-02172*
X-00201Y-02172*
X-00202Y-02172*
X-00202Y-02173*
X-00202Y-02173*
X-00203Y-02174*
X-00203Y-02174*
X-00203Y-02174*
X-00204Y-02175*
X-00204Y-02176*
X-00204Y-02176*
X-00204Y-02177*
X-00204Y-02177*
X-00204Y-02178*
X-00204Y-02178*
X-00204Y-02179*
X-00204Y-02179*
X-00204Y-0218*
X-00204Y-0218*
X-00204Y-02181*
X-00204Y-02181*
X-00203Y-02182*
X-00203Y-02182*
X-00203Y-02183*
X-00202Y-02183*
X-00202Y-02184*
X-00202Y-02184*
X-00201Y-02185*
X-00201Y-02185*
X-002Y-02185*
X-002Y-02185*
X-00199Y-02186*
X-00199Y-02186*
X-00198Y-02186*
X-00198Y-02186*
X-00197Y-02186*
X-00197Y-02186*
X-00196*
X-00196Y-02186*
X-00195Y-02186*
X-00194Y-02186*
X-00194Y-02186*
X-00193Y-02186*
X-00193Y-02185*
X-00192Y-02185*
X-00192Y-02185*
X-00191Y-02185*
X-00191Y-02184*
X-00191Y-02184*
X-0019Y-02183*
X-0019Y-02183*
X-0019Y-02182*
X-00189Y-02182*
X-00189Y-02181*
X-00189Y-02181*
X-00189Y-0218*
X-00189Y-0218*
X-00188Y-02179*
X-00188Y-02179*
X-00188Y-02178*
Y-02278D02*
D01*
X-00188Y-02278*
X-00188Y-02277*
X-00189Y-02277*
X-00189Y-02276*
X-00189Y-02276*
X-00189Y-02275*
X-00189Y-02274*
X-0019Y-02274*
X-0019Y-02274*
X-0019Y-02273*
X-00191Y-02273*
X-00191Y-02272*
X-00191Y-02272*
X-00192Y-02272*
X-00192Y-02271*
X-00193Y-02271*
X-00193Y-02271*
X-00194Y-02271*
X-00194Y-0227*
X-00195Y-0227*
X-00196Y-0227*
X-00196Y-0227*
X-00197*
X-00197Y-0227*
X-00198Y-0227*
X-00198Y-0227*
X-00199Y-02271*
X-00199Y-02271*
X-002Y-02271*
X-002Y-02271*
X-00201Y-02272*
X-00201Y-02272*
X-00202Y-02272*
X-00202Y-02273*
X-00202Y-02273*
X-00203Y-02274*
X-00203Y-02274*
X-00203Y-02274*
X-00204Y-02275*
X-00204Y-02276*
X-00204Y-02276*
X-00204Y-02277*
X-00204Y-02277*
X-00204Y-02278*
X-00204Y-02278*
X-00204Y-02279*
X-00204Y-02279*
X-00204Y-0228*
X-00204Y-0228*
X-00204Y-02281*
X-00204Y-02281*
X-00203Y-02282*
X-00203Y-02282*
X-00203Y-02283*
X-00202Y-02283*
X-00202Y-02284*
X-00202Y-02284*
X-00201Y-02285*
X-00201Y-02285*
X-002Y-02285*
X-002Y-02285*
X-00199Y-02286*
X-00199Y-02286*
X-00198Y-02286*
X-00198Y-02286*
X-00197Y-02286*
X-00197Y-02286*
X-00196*
X-00196Y-02286*
X-00195Y-02286*
X-00194Y-02286*
X-00194Y-02286*
X-00193Y-02286*
X-00193Y-02285*
X-00192Y-02285*
X-00192Y-02285*
X-00191Y-02285*
X-00191Y-02284*
X-00191Y-02284*
X-0019Y-02283*
X-0019Y-02283*
X-0019Y-02282*
X-00189Y-02282*
X-00189Y-02281*
X-00189Y-02281*
X-00189Y-0228*
X-00189Y-0228*
X-00188Y-02279*
X-00188Y-02279*
X-00188Y-02278*
Y-02378D02*
D01*
X-00188Y-02378*
X-00188Y-02377*
X-00189Y-02377*
X-00189Y-02376*
X-00189Y-02376*
X-00189Y-02375*
X-00189Y-02374*
X-0019Y-02374*
X-0019Y-02374*
X-0019Y-02373*
X-00191Y-02373*
X-00191Y-02372*
X-00191Y-02372*
X-00192Y-02372*
X-00192Y-02371*
X-00193Y-02371*
X-00193Y-02371*
X-00194Y-02371*
X-00194Y-0237*
X-00195Y-0237*
X-00196Y-0237*
X-00196Y-0237*
X-00197*
X-00197Y-0237*
X-00198Y-0237*
X-00198Y-0237*
X-00199Y-02371*
X-00199Y-02371*
X-002Y-02371*
X-002Y-02371*
X-00201Y-02372*
X-00201Y-02372*
X-00202Y-02372*
X-00202Y-02373*
X-00202Y-02373*
X-00203Y-02374*
X-00203Y-02374*
X-00203Y-02374*
X-00204Y-02375*
X-00204Y-02376*
X-00204Y-02376*
X-00204Y-02377*
X-00204Y-02377*
X-00204Y-02378*
X-00204Y-02378*
X-00204Y-02379*
X-00204Y-02379*
X-00204Y-0238*
X-00204Y-0238*
X-00204Y-02381*
X-00204Y-02381*
X-00203Y-02382*
X-00203Y-02382*
X-00203Y-02383*
X-00202Y-02383*
X-00202Y-02384*
X-00202Y-02384*
X-00201Y-02385*
X-00201Y-02385*
X-002Y-02385*
X-002Y-02385*
X-00199Y-02386*
X-00199Y-02386*
X-00198Y-02386*
X-00198Y-02386*
X-00197Y-02386*
X-00197Y-02386*
X-00196*
X-00196Y-02386*
X-00195Y-02386*
X-00194Y-02386*
X-00194Y-02386*
X-00193Y-02386*
X-00193Y-02385*
X-00192Y-02385*
X-00192Y-02385*
X-00191Y-02385*
X-00191Y-02384*
X-00191Y-02384*
X-0019Y-02383*
X-0019Y-02383*
X-0019Y-02382*
X-00189Y-02382*
X-00189Y-02381*
X-00189Y-02381*
X-00189Y-0238*
X-00189Y-0238*
X-00188Y-02379*
X-00188Y-02379*
X-00188Y-02378*
Y-02478D02*
D01*
X-00188Y-02478*
X-00188Y-02477*
X-00189Y-02477*
X-00189Y-02476*
X-00189Y-02476*
X-00189Y-02475*
X-00189Y-02474*
X-0019Y-02474*
X-0019Y-02474*
X-0019Y-02473*
X-00191Y-02473*
X-00191Y-02472*
X-00191Y-02472*
X-00192Y-02472*
X-00192Y-02471*
X-00193Y-02471*
X-00193Y-02471*
X-00194Y-02471*
X-00194Y-0247*
X-00195Y-0247*
X-00196Y-0247*
X-00196Y-0247*
X-00197*
X-00197Y-0247*
X-00198Y-0247*
X-00198Y-0247*
X-00199Y-02471*
X-00199Y-02471*
X-002Y-02471*
X-002Y-02471*
X-00201Y-02472*
X-00201Y-02472*
X-00202Y-02472*
X-00202Y-02473*
X-00202Y-02473*
X-00203Y-02474*
X-00203Y-02474*
X-00203Y-02474*
X-00204Y-02475*
X-00204Y-02476*
X-00204Y-02476*
X-00204Y-02477*
X-00204Y-02477*
X-00204Y-02478*
X-00204Y-02478*
X-00204Y-02479*
X-00204Y-02479*
X-00204Y-0248*
X-00204Y-0248*
X-00204Y-02481*
X-00204Y-02481*
X-00203Y-02482*
X-00203Y-02482*
X-00203Y-02483*
X-00202Y-02483*
X-00202Y-02484*
X-00202Y-02484*
X-00201Y-02485*
X-00201Y-02485*
X-002Y-02485*
X-002Y-02485*
X-00199Y-02486*
X-00199Y-02486*
X-00198Y-02486*
X-00198Y-02486*
X-00197Y-02486*
X-00197Y-02486*
X-00196*
X-00196Y-02486*
X-00195Y-02486*
X-00194Y-02486*
X-00194Y-02486*
X-00193Y-02486*
X-00193Y-02485*
X-00192Y-02485*
X-00192Y-02485*
X-00191Y-02485*
X-00191Y-02484*
X-00191Y-02484*
X-0019Y-02483*
X-0019Y-02483*
X-0019Y-02482*
X-00189Y-02482*
X-00189Y-02481*
X-00189Y-02481*
X-00189Y-0248*
X-00189Y-0248*
X-00188Y-02479*
X-00188Y-02479*
X-00188Y-02478*
Y-02578D02*
D01*
X-00188Y-02578*
X-00188Y-02577*
X-00189Y-02577*
X-00189Y-02576*
X-00189Y-02576*
X-00189Y-02575*
X-00189Y-02574*
X-0019Y-02574*
X-0019Y-02574*
X-0019Y-02573*
X-00191Y-02573*
X-00191Y-02572*
X-00191Y-02572*
X-00192Y-02572*
X-00192Y-02571*
X-00193Y-02571*
X-00193Y-02571*
X-00194Y-02571*
X-00194Y-0257*
X-00195Y-0257*
X-00196Y-0257*
X-00196Y-0257*
X-00197*
X-00197Y-0257*
X-00198Y-0257*
X-00198Y-0257*
X-00199Y-02571*
X-00199Y-02571*
X-002Y-02571*
X-002Y-02571*
X-00201Y-02572*
X-00201Y-02572*
X-00202Y-02572*
X-00202Y-02573*
X-00202Y-02573*
X-00203Y-02574*
X-00203Y-02574*
X-00203Y-02574*
X-00204Y-02575*
X-00204Y-02576*
X-00204Y-02576*
X-00204Y-02577*
X-00204Y-02577*
X-00204Y-02578*
X-00204Y-02578*
X-00204Y-02579*
X-00204Y-02579*
X-00204Y-0258*
X-00204Y-0258*
X-00204Y-02581*
X-00204Y-02581*
X-00203Y-02582*
X-00203Y-02582*
X-00203Y-02583*
X-00202Y-02583*
X-00202Y-02584*
X-00202Y-02584*
X-00201Y-02585*
X-00201Y-02585*
X-002Y-02585*
X-002Y-02585*
X-00199Y-02586*
X-00199Y-02586*
X-00198Y-02586*
X-00198Y-02586*
X-00197Y-02586*
X-00197Y-02586*
X-00196*
X-00196Y-02586*
X-00195Y-02586*
X-00194Y-02586*
X-00194Y-02586*
X-00193Y-02586*
X-00193Y-02585*
X-00192Y-02585*
X-00192Y-02585*
X-00191Y-02585*
X-00191Y-02584*
X-00191Y-02584*
X-0019Y-02583*
X-0019Y-02583*
X-0019Y-02582*
X-00189Y-02582*
X-00189Y-02581*
X-00189Y-02581*
X-00189Y-0258*
X-00189Y-0258*
X-00188Y-02579*
X-00188Y-02579*
X-00188Y-02578*
Y-02678D02*
D01*
X-00188Y-02678*
X-00188Y-02677*
X-00189Y-02677*
X-00189Y-02676*
X-00189Y-02676*
X-00189Y-02675*
X-00189Y-02674*
X-0019Y-02674*
X-0019Y-02674*
X-0019Y-02673*
X-00191Y-02673*
X-00191Y-02672*
X-00191Y-02672*
X-00192Y-02672*
X-00192Y-02671*
X-00193Y-02671*
X-00193Y-02671*
X-00194Y-02671*
X-00194Y-0267*
X-00195Y-0267*
X-00196Y-0267*
X-00196Y-0267*
X-00197*
X-00197Y-0267*
X-00198Y-0267*
X-00198Y-0267*
X-00199Y-02671*
X-00199Y-02671*
X-002Y-02671*
X-002Y-02671*
X-00201Y-02672*
X-00201Y-02672*
X-00202Y-02672*
X-00202Y-02673*
X-00202Y-02673*
X-00203Y-02674*
X-00203Y-02674*
X-00203Y-02674*
X-00204Y-02675*
X-00204Y-02676*
X-00204Y-02676*
X-00204Y-02677*
X-00204Y-02677*
X-00204Y-02678*
X-00204Y-02678*
X-00204Y-02679*
X-00204Y-02679*
X-00204Y-0268*
X-00204Y-0268*
X-00204Y-02681*
X-00204Y-02681*
X-00203Y-02682*
X-00203Y-02682*
X-00203Y-02683*
X-00202Y-02683*
X-00202Y-02684*
X-00202Y-02684*
X-00201Y-02685*
X-00201Y-02685*
X-002Y-02685*
X-002Y-02685*
X-00199Y-02686*
X-00199Y-02686*
X-00198Y-02686*
X-00198Y-02686*
X-00197Y-02686*
X-00197Y-02686*
X-00196*
X-00196Y-02686*
X-00195Y-02686*
X-00194Y-02686*
X-00194Y-02686*
X-00193Y-02686*
X-00193Y-02685*
X-00192Y-02685*
X-00192Y-02685*
X-00191Y-02685*
X-00191Y-02684*
X-00191Y-02684*
X-0019Y-02683*
X-0019Y-02683*
X-0019Y-02682*
X-00189Y-02682*
X-00189Y-02681*
X-00189Y-02681*
X-00189Y-0268*
X-00189Y-0268*
X-00188Y-02679*
X-00188Y-02679*
X-00188Y-02678*
X-00288Y-02878D02*
D01*
X-00288Y-02878*
X-00288Y-02877*
X-00289Y-02877*
X-00289Y-02876*
X-00289Y-02876*
X-00289Y-02875*
X-00289Y-02874*
X-0029Y-02874*
X-0029Y-02874*
X-0029Y-02873*
X-00291Y-02873*
X-00291Y-02872*
X-00291Y-02872*
X-00292Y-02872*
X-00292Y-02871*
X-00293Y-02871*
X-00293Y-02871*
X-00294Y-02871*
X-00294Y-0287*
X-00295Y-0287*
X-00296Y-0287*
X-00296Y-0287*
X-00297*
X-00297Y-0287*
X-00298Y-0287*
X-00298Y-0287*
X-00299Y-02871*
X-00299Y-02871*
X-003Y-02871*
X-003Y-02871*
X-00301Y-02872*
X-00301Y-02872*
X-00302Y-02872*
X-00302Y-02873*
X-00302Y-02873*
X-00303Y-02874*
X-00303Y-02874*
X-00303Y-02874*
X-00304Y-02875*
X-00304Y-02876*
X-00304Y-02876*
X-00304Y-02877*
X-00304Y-02877*
X-00304Y-02878*
X-00304Y-02878*
X-00304Y-02879*
X-00304Y-02879*
X-00304Y-0288*
X-00304Y-0288*
X-00304Y-02881*
X-00304Y-02881*
X-00303Y-02882*
X-00303Y-02882*
X-00303Y-02883*
X-00302Y-02883*
X-00302Y-02884*
X-00302Y-02884*
X-00301Y-02885*
X-00301Y-02885*
X-003Y-02885*
X-003Y-02885*
X-00299Y-02886*
X-00299Y-02886*
X-00298Y-02886*
X-00298Y-02886*
X-00297Y-02886*
X-00297Y-02886*
X-00296*
X-00296Y-02886*
X-00295Y-02886*
X-00294Y-02886*
X-00294Y-02886*
X-00293Y-02886*
X-00293Y-02885*
X-00292Y-02885*
X-00292Y-02885*
X-00291Y-02885*
X-00291Y-02884*
X-00291Y-02884*
X-0029Y-02883*
X-0029Y-02883*
X-0029Y-02882*
X-00289Y-02882*
X-00289Y-02881*
X-00289Y-02881*
X-00289Y-0288*
X-00289Y-0288*
X-00288Y-02879*
X-00288Y-02879*
X-00288Y-02878*
X-00188D02*
D01*
X-00188Y-02878*
X-00188Y-02877*
X-00189Y-02877*
X-00189Y-02876*
X-00189Y-02876*
X-00189Y-02875*
X-00189Y-02874*
X-0019Y-02874*
X-0019Y-02874*
X-0019Y-02873*
X-00191Y-02873*
X-00191Y-02872*
X-00191Y-02872*
X-00192Y-02872*
X-00192Y-02871*
X-00193Y-02871*
X-00193Y-02871*
X-00194Y-02871*
X-00194Y-0287*
X-00195Y-0287*
X-00196Y-0287*
X-00196Y-0287*
X-00197*
X-00197Y-0287*
X-00198Y-0287*
X-00198Y-0287*
X-00199Y-02871*
X-00199Y-02871*
X-002Y-02871*
X-002Y-02871*
X-00201Y-02872*
X-00201Y-02872*
X-00202Y-02872*
X-00202Y-02873*
X-00202Y-02873*
X-00203Y-02874*
X-00203Y-02874*
X-00203Y-02874*
X-00204Y-02875*
X-00204Y-02876*
X-00204Y-02876*
X-00204Y-02877*
X-00204Y-02877*
X-00204Y-02878*
X-00204Y-02878*
X-00204Y-02879*
X-00204Y-02879*
X-00204Y-0288*
X-00204Y-0288*
X-00204Y-02881*
X-00204Y-02881*
X-00203Y-02882*
X-00203Y-02882*
X-00203Y-02883*
X-00202Y-02883*
X-00202Y-02884*
X-00202Y-02884*
X-00201Y-02885*
X-00201Y-02885*
X-002Y-02885*
X-002Y-02885*
X-00199Y-02886*
X-00199Y-02886*
X-00198Y-02886*
X-00198Y-02886*
X-00197Y-02886*
X-00197Y-02886*
X-00196*
X-00196Y-02886*
X-00195Y-02886*
X-00194Y-02886*
X-00194Y-02886*
X-00193Y-02886*
X-00193Y-02885*
X-00192Y-02885*
X-00192Y-02885*
X-00191Y-02885*
X-00191Y-02884*
X-00191Y-02884*
X-0019Y-02883*
X-0019Y-02883*
X-0019Y-02882*
X-00189Y-02882*
X-00189Y-02881*
X-00189Y-02881*
X-00189Y-0288*
X-00189Y-0288*
X-00188Y-02879*
X-00188Y-02879*
X-00188Y-02878*
X-00288Y-00078D02*
D01*
X-00288Y-00078*
X-00288Y-00077*
X-00289Y-00077*
X-00289Y-00076*
X-00289Y-00076*
X-00289Y-00075*
X-00289Y-00074*
X-0029Y-00074*
X-0029Y-00074*
X-0029Y-00073*
X-00291Y-00073*
X-00291Y-00072*
X-00291Y-00072*
X-00292Y-00072*
X-00292Y-00071*
X-00293Y-00071*
X-00293Y-00071*
X-00294Y-00071*
X-00294Y-0007*
X-00295Y-0007*
X-00296Y-0007*
X-00296Y-0007*
X-00297*
X-00297Y-0007*
X-00298Y-0007*
X-00298Y-0007*
X-00299Y-00071*
X-00299Y-00071*
X-003Y-00071*
X-003Y-00071*
X-00301Y-00072*
X-00301Y-00072*
X-00302Y-00072*
X-00302Y-00073*
X-00302Y-00073*
X-00303Y-00074*
X-00303Y-00074*
X-00303Y-00074*
X-00304Y-00075*
X-00304Y-00076*
X-00304Y-00076*
X-00304Y-00077*
X-00304Y-00077*
X-00304Y-00078*
X-00304Y-00078*
X-00304Y-00079*
X-00304Y-00079*
X-00304Y-0008*
X-00304Y-0008*
X-00304Y-00081*
X-00304Y-00081*
X-00303Y-00082*
X-00303Y-00082*
X-00303Y-00083*
X-00302Y-00083*
X-00302Y-00084*
X-00302Y-00084*
X-00301Y-00085*
X-00301Y-00085*
X-003Y-00085*
X-003Y-00085*
X-00299Y-00086*
X-00299Y-00086*
X-00298Y-00086*
X-00298Y-00086*
X-00297Y-00086*
X-00297Y-00086*
X-00296*
X-00296Y-00086*
X-00295Y-00086*
X-00294Y-00086*
X-00294Y-00086*
X-00293Y-00086*
X-00293Y-00085*
X-00292Y-00085*
X-00292Y-00085*
X-00291Y-00085*
X-00291Y-00084*
X-00291Y-00084*
X-0029Y-00083*
X-0029Y-00083*
X-0029Y-00082*
X-00289Y-00082*
X-00289Y-00081*
X-00289Y-00081*
X-00289Y-0008*
X-00289Y-0008*
X-00288Y-00079*
X-00288Y-00079*
X-00288Y-00078*
X-00188D02*
D01*
X-00188Y-00078*
X-00188Y-00077*
X-00189Y-00077*
X-00189Y-00076*
X-00189Y-00076*
X-00189Y-00075*
X-00189Y-00074*
X-0019Y-00074*
X-0019Y-00074*
X-0019Y-00073*
X-00191Y-00073*
X-00191Y-00072*
X-00191Y-00072*
X-00192Y-00072*
X-00192Y-00071*
X-00193Y-00071*
X-00193Y-00071*
X-00194Y-00071*
X-00194Y-0007*
X-00195Y-0007*
X-00196Y-0007*
X-00196Y-0007*
X-00197*
X-00197Y-0007*
X-00198Y-0007*
X-00198Y-0007*
X-00199Y-00071*
X-00199Y-00071*
X-002Y-00071*
X-002Y-00071*
X-00201Y-00072*
X-00201Y-00072*
X-00202Y-00072*
X-00202Y-00073*
X-00202Y-00073*
X-00203Y-00074*
X-00203Y-00074*
X-00203Y-00074*
X-00204Y-00075*
X-00204Y-00076*
X-00204Y-00076*
X-00204Y-00077*
X-00204Y-00077*
X-00204Y-00078*
X-00204Y-00078*
X-00204Y-00079*
X-00204Y-00079*
X-00204Y-0008*
X-00204Y-0008*
X-00204Y-00081*
X-00204Y-00081*
X-00203Y-00082*
X-00203Y-00082*
X-00203Y-00083*
X-00202Y-00083*
X-00202Y-00084*
X-00202Y-00084*
X-00201Y-00085*
X-00201Y-00085*
X-002Y-00085*
X-002Y-00085*
X-00199Y-00086*
X-00199Y-00086*
X-00198Y-00086*
X-00198Y-00086*
X-00197Y-00086*
X-00197Y-00086*
X-00196*
X-00196Y-00086*
X-00195Y-00086*
X-00194Y-00086*
X-00194Y-00086*
X-00193Y-00086*
X-00193Y-00085*
X-00192Y-00085*
X-00192Y-00085*
X-00191Y-00085*
X-00191Y-00084*
X-00191Y-00084*
X-0019Y-00083*
X-0019Y-00083*
X-0019Y-00082*
X-00189Y-00082*
X-00189Y-00081*
X-00189Y-00081*
X-00189Y-0008*
X-00189Y-0008*
X-00188Y-00079*
X-00188Y-00079*
X-00188Y-00078*
M02*