%FSTAX23Y23*%
%MOIN*%
%SFA1B1*%

%IPPOS*%
%ADD13C,0.003937*%
%ADD38C,0.002756*%
%ADD39C,0.004331*%
%ADD40C,0.001969*%
%ADD41C,0.002362*%
%LNmicrophonearray.main-1*%
%LPD*%
G54D13*
X-00669Y-00754D02*
X-00684D01*
Y-00746*
X-00682Y-00743*
X-00677*
X-00674Y-00746*
Y-00754*
Y-00748D02*
X-00669Y-00743D01*
Y-0073D02*
Y-00735D01*
X-00671Y-00738*
X-00677*
X-00679Y-00735*
Y-0073*
X-00677Y-00727*
X-00674*
Y-00738*
X-00669Y-00722D02*
Y-00714D01*
X-00671Y-00712*
X-00674Y-00714*
Y-0072*
X-00677Y-00722*
X-00679Y-0072*
Y-00712*
X-00669Y-00706D02*
Y-00701D01*
Y-00704*
X-00679*
Y-00706*
X-00669Y-00693D02*
Y-00685D01*
X-00671Y-00683*
X-00674Y-00685*
Y-00691*
X-00677Y-00693*
X-00679Y-00691*
Y-00683*
X-00682Y-00675D02*
X-00679D01*
Y-00678*
Y-00672*
Y-00675*
X-00671*
X-00669Y-00672*
X-00679Y-00662D02*
Y-00657D01*
X-00677Y-00654*
X-00669*
Y-00662*
X-00671Y-00665*
X-00674Y-00662*
Y-00654*
X-00669Y-00649D02*
X-00679D01*
Y-00641*
X-00677Y-00638*
X-00669*
X-00679Y-00623D02*
Y-0063D01*
X-00677Y-00633*
X-00671*
X-00669Y-0063*
Y-00623*
Y-00609D02*
Y-00615D01*
X-00671Y-00617*
X-00677*
X-00679Y-00615*
Y-00609*
X-00677Y-00607*
X-00674*
Y-00617*
X-0058Y-01883D02*
Y-01899D01*
X-00588*
X-00591Y-01896*
Y-01891*
X-00588Y-01889*
X-0058*
X-00585D02*
X-00591Y-01883D01*
X-00604D02*
X-00599D01*
X-00596Y-01886*
Y-01891*
X-00599Y-01894*
X-00604*
X-00606Y-01891*
Y-01889*
X-00596*
X-00612Y-01883D02*
X-0062D01*
X-00622Y-01886*
X-0062Y-01889*
X-00614*
X-00612Y-01891*
X-00614Y-01894*
X-00622*
X-00627Y-01883D02*
X-00633D01*
X-0063*
Y-01894*
X-00627*
X-00641Y-01883D02*
X-00648D01*
X-00651Y-01886*
X-00648Y-01889*
X-00643*
X-00641Y-01891*
X-00643Y-01894*
X-00651*
X-00659Y-01896D02*
Y-01894D01*
X-00656*
X-00662*
X-00659*
Y-01886*
X-00662Y-01883*
X-00672Y-01894D02*
X-00677D01*
X-0068Y-01891*
Y-01883*
X-00672*
X-00669Y-01886*
X-00672Y-01889*
X-0068*
X-00685Y-01883D02*
Y-01894D01*
X-00693*
X-00696Y-01891*
Y-01883*
X-00711Y-01894D02*
X-00703D01*
X-00701Y-01891*
Y-01886*
X-00703Y-01883*
X-00711*
X-00724D02*
X-00719D01*
X-00717Y-01886*
Y-01891*
X-00719Y-01894*
X-00724*
X-00727Y-01891*
Y-01889*
X-00717*
X-00535Y-03264D02*
X-00551D01*
Y-03256*
X-00548Y-03253*
X-00543*
X-0054Y-03256*
Y-03264*
Y-03258D02*
X-00535Y-03253D01*
Y-0324D02*
Y-03245D01*
X-00537Y-03248*
X-00543*
X-00545Y-03245*
Y-0324*
X-00543Y-03237*
X-0054*
Y-03248*
X-00535Y-03232D02*
Y-03224D01*
X-00537Y-03222*
X-0054Y-03224*
Y-0323*
X-00543Y-03232*
X-00545Y-0323*
Y-03222*
X-00535Y-03216D02*
Y-03211D01*
Y-03214*
X-00545*
Y-03216*
X-00535Y-03203D02*
Y-03195D01*
X-00537Y-03193*
X-0054Y-03195*
Y-03201*
X-00543Y-03203*
X-00545Y-03201*
Y-03193*
X-00548Y-03185D02*
X-00545D01*
Y-03188*
Y-03182*
Y-03185*
X-00537*
X-00535Y-03182*
X-00545Y-03172D02*
Y-03167D01*
X-00543Y-03164*
X-00535*
Y-03172*
X-00537Y-03174*
X-0054Y-03172*
Y-03164*
X-00535Y-03159D02*
X-00545D01*
Y-03151*
X-00543Y-03148*
X-00535*
X-00545Y-03132D02*
Y-0314D01*
X-00543Y-03143*
X-00537*
X-00535Y-0314*
Y-03132*
Y-03119D02*
Y-03125D01*
X-00537Y-03127*
X-00543*
X-00545Y-03125*
Y-03119*
X-00543Y-03117*
X-0054*
Y-03127*
X-00576Y-01692D02*
Y-01708D01*
X-00583*
X-00586Y-01705*
Y-017*
X-00583Y-01697*
X-00576*
X-00581D02*
X-00586Y-01692D01*
X-00599D02*
X-00594D01*
X-00591Y-01695*
Y-017*
X-00594Y-01703*
X-00599*
X-00602Y-017*
Y-01697*
X-00591*
X-00607Y-01692D02*
X-00615D01*
X-00618Y-01695*
X-00615Y-01697*
X-0061*
X-00607Y-017*
X-0061Y-01703*
X-00618*
X-00623Y-01692D02*
X-00628D01*
X-00625*
Y-01703*
X-00623*
X-00636Y-01692D02*
X-00644D01*
X-00646Y-01695*
X-00644Y-01697*
X-00638*
X-00636Y-017*
X-00638Y-01703*
X-00646*
X-00654Y-01705D02*
Y-01703D01*
X-00652*
X-00657*
X-00654*
Y-01695*
X-00657Y-01692*
X-00667Y-01703D02*
X-00673D01*
X-00675Y-017*
Y-01692*
X-00667*
X-00665Y-01695*
X-00667Y-01697*
X-00675*
X-0068Y-01692D02*
Y-01703D01*
X-00688*
X-00691Y-017*
Y-01692*
X-00707Y-01703D02*
X-00699D01*
X-00696Y-017*
Y-01695*
X-00699Y-01692*
X-00707*
X-0072D02*
X-00715D01*
X-00712Y-01695*
Y-017*
X-00715Y-01703*
X-0072*
X-00722Y-017*
Y-01697*
X-00712*
X-00428Y-03264D02*
X-00444D01*
Y-03256*
X-00441Y-03253*
X-00436*
X-00433Y-03256*
Y-03264*
Y-03258D02*
X-00428Y-03253D01*
Y-0324D02*
Y-03245D01*
X-00431Y-03248*
X-00436*
X-00439Y-03245*
Y-0324*
X-00436Y-03237*
X-00433*
Y-03248*
X-00428Y-03232D02*
Y-03224D01*
X-00431Y-03222*
X-00433Y-03224*
Y-0323*
X-00436Y-03232*
X-00439Y-0323*
Y-03222*
X-00428Y-03216D02*
Y-03211D01*
Y-03214*
X-00439*
Y-03216*
X-00428Y-03203D02*
Y-03195D01*
X-00431Y-03193*
X-00433Y-03195*
Y-03201*
X-00436Y-03203*
X-00439Y-03201*
Y-03193*
X-00441Y-03185D02*
X-00439D01*
Y-03188*
Y-03182*
Y-03185*
X-00431*
X-00428Y-03182*
X-00439Y-03172D02*
Y-03167D01*
X-00436Y-03164*
X-00428*
Y-03172*
X-00431Y-03174*
X-00433Y-03172*
Y-03164*
X-00428Y-03159D02*
X-00439D01*
Y-03151*
X-00436Y-03148*
X-00428*
X-00439Y-03132D02*
Y-0314D01*
X-00436Y-03143*
X-00431*
X-00428Y-0314*
Y-03132*
Y-03119D02*
Y-03125D01*
X-00431Y-03127*
X-00436*
X-00439Y-03125*
Y-03119*
X-00436Y-03117*
X-00433*
Y-03127*
X-00616Y-0062D02*
X-00632D01*
Y-00612*
X-00629Y-00609*
X-00624*
X-00621Y-00612*
Y-0062*
Y-00615D02*
X-00616Y-00609D01*
Y-00596D02*
Y-00602D01*
X-00619Y-00604*
X-00624*
X-00627Y-00602*
Y-00596*
X-00624Y-00594*
X-00621*
Y-00604*
X-00616Y-00588D02*
Y-00581D01*
X-00619Y-00578*
X-00621Y-00581*
Y-00586*
X-00624Y-00588*
X-00627Y-00586*
Y-00578*
X-00616Y-00573D02*
Y-00567D01*
Y-0057*
X-00627*
Y-00573*
X-00616Y-0056D02*
Y-00552D01*
X-00619Y-00549*
X-00621Y-00552*
Y-00557*
X-00624Y-0056*
X-00627Y-00557*
Y-00549*
X-00629Y-00541D02*
X-00627D01*
Y-00544*
Y-00539*
Y-00541*
X-00619*
X-00616Y-00539*
X-00627Y-00528D02*
Y-00523D01*
X-00624Y-0052*
X-00616*
Y-00528*
X-00619Y-00531*
X-00621Y-00528*
Y-0052*
X-00616Y-00515D02*
X-00627D01*
Y-00507*
X-00624Y-00504*
X-00616*
X-00627Y-00489D02*
Y-00497D01*
X-00624Y-00499*
X-00619*
X-00616Y-00497*
Y-00489*
Y-00476D02*
Y-00481D01*
X-00619Y-00483*
X-00624*
X-00627Y-00481*
Y-00476*
X-00624Y-00473*
X-00621*
Y-00483*
X-00584Y-01157D02*
Y-01141D01*
X-00592*
X-00595Y-01144*
Y-01149*
X-00592Y-01152*
X-00584*
X-0059D02*
X-00595Y-01157D01*
X-00608D02*
X-00603D01*
X-006Y-01154*
Y-01149*
X-00603Y-01146*
X-00608*
X-00611Y-01149*
Y-01152*
X-006*
X-00616Y-01157D02*
X-00624D01*
X-00626Y-01154*
X-00624Y-01152*
X-00618*
X-00616Y-01149*
X-00618Y-01146*
X-00626*
X-00632Y-01157D02*
X-00637D01*
X-00634*
Y-01146*
X-00632*
X-00645Y-01157D02*
X-00653D01*
X-00655Y-01154*
X-00653Y-01152*
X-00647*
X-00645Y-01149*
X-00647Y-01146*
X-00655*
X-00663Y-01144D02*
Y-01146D01*
X-0066*
X-00666*
X-00663*
Y-01154*
X-00666Y-01157*
X-00676Y-01146D02*
X-00681D01*
X-00684Y-01149*
Y-01157*
X-00676*
X-00674Y-01154*
X-00676Y-01152*
X-00684*
X-00689Y-01157D02*
Y-01146D01*
X-00697*
X-007Y-01149*
Y-01157*
X-00716Y-01146D02*
X-00708D01*
X-00705Y-01149*
Y-01154*
X-00708Y-01157*
X-00716*
X-00729D02*
X-00723D01*
X-00721Y-01154*
Y-01149*
X-00723Y-01146*
X-00729*
X-00731Y-01149*
Y-01152*
X-00721*
X-00457Y-00705D02*
X-00441D01*
Y-00713*
X-00443Y-00715*
X-00449*
X-00451Y-00713*
Y-00705*
Y-0071D02*
X-00457Y-00715D01*
Y-00728D02*
Y-00723D01*
X-00454Y-00721*
X-00449*
X-00446Y-00723*
Y-00728*
X-00449Y-00731*
X-00451*
Y-00721*
X-00457Y-00736D02*
Y-00744D01*
X-00454Y-00747*
X-00451Y-00744*
Y-00739*
X-00449Y-00736*
X-00446Y-00739*
Y-00747*
X-00457Y-00752D02*
Y-00757D01*
Y-00755*
X-00446*
Y-00752*
X-00457Y-00765D02*
Y-00773D01*
X-00454Y-00776*
X-00451Y-00773*
Y-00768*
X-00449Y-00765*
X-00446Y-00768*
Y-00776*
X-00443Y-00783D02*
X-00446D01*
Y-00781*
Y-00786*
Y-00783*
X-00454*
X-00457Y-00786*
X-00446Y-00797D02*
Y-00802D01*
X-00449Y-00804*
X-00457*
Y-00797*
X-00454Y-00794*
X-00451Y-00797*
Y-00804*
X-00457Y-0081D02*
X-00446D01*
Y-00818*
X-00449Y-0082*
X-00457*
X-00446Y-00836D02*
Y-00828D01*
X-00449Y-00825*
X-00454*
X-00457Y-00828*
Y-00836*
Y-00849D02*
Y-00844D01*
X-00454Y-00841*
X-00449*
X-00446Y-00844*
Y-00849*
X-00449Y-00852*
X-00451*
Y-00841*
X-00423Y-0091D02*
Y-00925D01*
X-00431*
X-00434Y-00923*
Y-00917*
X-00431Y-00915*
X-00423*
X-00428D02*
X-00434Y-0091D01*
X-00447D02*
X-00441D01*
X-00439Y-00912*
Y-00917*
X-00441Y-0092*
X-00447*
X-00449Y-00917*
Y-00915*
X-00439*
X-00455Y-0091D02*
X-00462D01*
X-00465Y-00912*
X-00462Y-00915*
X-00457*
X-00455Y-00917*
X-00457Y-0092*
X-00465*
X-0047Y-0091D02*
X-00476D01*
X-00473*
Y-0092*
X-0047*
X-00483Y-0091D02*
X-00491D01*
X-00494Y-00912*
X-00491Y-00915*
X-00486*
X-00483Y-00917*
X-00486Y-0092*
X-00494*
X-00502Y-00923D02*
Y-0092D01*
X-00499*
X-00504*
X-00502*
Y-00912*
X-00504Y-0091*
X-00515Y-0092D02*
X-0052D01*
X-00523Y-00917*
Y-0091*
X-00515*
X-00512Y-00912*
X-00515Y-00915*
X-00523*
X-00528Y-0091D02*
Y-0092D01*
X-00536*
X-00539Y-00917*
Y-0091*
X-00554Y-0092D02*
X-00546D01*
X-00544Y-00917*
Y-00912*
X-00546Y-0091*
X-00554*
X-00567D02*
X-00562D01*
X-0056Y-00912*
Y-00917*
X-00562Y-0092*
X-00567*
X-0057Y-00917*
Y-00915*
X-0056*
X-0006Y-01157D02*
X-00076D01*
Y-01165*
X-00073Y-01167*
X-00068*
X-00065Y-01165*
Y-01157*
Y-01162D02*
X-0006Y-01167D01*
Y-01181D02*
Y-01175D01*
X-00062Y-01173*
X-00068*
X-0007Y-01175*
Y-01181*
X-00068Y-01183*
X-00065*
Y-01173*
X-0006Y-01188D02*
Y-01196D01*
X-00062Y-01199*
X-00065Y-01196*
Y-01191*
X-00068Y-01188*
X-0007Y-01191*
Y-01199*
X-0006Y-01204D02*
Y-01209D01*
Y-01207*
X-0007*
Y-01204*
X-0006Y-01217D02*
Y-01225D01*
X-00062Y-01228*
X-00065Y-01225*
Y-0122*
X-00068Y-01217*
X-0007Y-0122*
Y-01228*
X-00073Y-01236D02*
X-0007D01*
Y-01233*
Y-01238*
Y-01236*
X-00062*
X-0006Y-01238*
X-0007Y-01249D02*
Y-01254D01*
X-00068Y-01257*
X-0006*
Y-01249*
X-00062Y-01246*
X-00065Y-01249*
Y-01257*
X-0006Y-01262D02*
X-0007D01*
Y-0127*
X-00068Y-01272*
X-0006*
X-0007Y-01288D02*
Y-0128D01*
X-00068Y-01278*
X-00062*
X-0006Y-0128*
Y-01288*
Y-01301D02*
Y-01296D01*
X-00062Y-01293*
X-00068*
X-0007Y-01296*
Y-01301*
X-00068Y-01304*
X-00065*
Y-01293*
X-00481Y-03264D02*
X-00497D01*
Y-03256*
X-00495Y-03253*
X-00489*
X-00487Y-03256*
Y-03264*
Y-03258D02*
X-00481Y-03253D01*
Y-0324D02*
Y-03245D01*
X-00484Y-03248*
X-00489*
X-00492Y-03245*
Y-0324*
X-00489Y-03237*
X-00487*
Y-03248*
X-00481Y-03232D02*
Y-03224D01*
X-00484Y-03222*
X-00487Y-03224*
Y-0323*
X-00489Y-03232*
X-00492Y-0323*
Y-03222*
X-00481Y-03216D02*
Y-03211D01*
Y-03214*
X-00492*
Y-03216*
X-00481Y-03203D02*
Y-03195D01*
X-00484Y-03193*
X-00487Y-03195*
Y-03201*
X-00489Y-03203*
X-00492Y-03201*
Y-03193*
X-00495Y-03185D02*
X-00492D01*
Y-03188*
Y-03182*
Y-03185*
X-00484*
X-00481Y-03182*
X-00492Y-03172D02*
Y-03167D01*
X-00489Y-03164*
X-00481*
Y-03172*
X-00484Y-03174*
X-00487Y-03172*
Y-03164*
X-00481Y-03159D02*
X-00492D01*
Y-03151*
X-00489Y-03148*
X-00481*
X-00492Y-03132D02*
Y-0314D01*
X-00489Y-03143*
X-00484*
X-00481Y-0314*
Y-03132*
Y-03119D02*
Y-03125D01*
X-00484Y-03127*
X-00489*
X-00492Y-03125*
Y-03119*
X-00489Y-03117*
X-00487*
Y-03127*
G54D38*
X-00078Y-00904D02*
X-0007D01*
Y-0091*
X-00074Y-00908*
X-00076*
X-00078Y-0091*
Y-00914*
X-00076Y-00916*
X-00072*
X-0007Y-00914*
X-00082Y-00906D02*
X-00084Y-00904D01*
X-00088*
X-0009Y-00906*
Y-00914*
X-00088Y-00916*
X-00084*
X-00082Y-00914*
Y-00906*
X-00094D02*
X-00095Y-00904D01*
X-00099*
X-00101Y-00906*
Y-00914*
X-00099Y-00916*
X-00095*
X-00094Y-00914*
Y-00906*
X-00105Y-00916D02*
X-00109D01*
X-00107*
Y-00904*
X-00105Y-00906*
X-00753Y-0243D02*
X-00761D01*
Y-02436*
X-00757Y-02434*
X-00755*
X-00753Y-02436*
Y-0244*
X-00755Y-02442*
X-00759*
X-00761Y-0244*
X-00749Y-02432D02*
X-00747Y-0243D01*
X-00743*
X-00741Y-02432*
Y-0244*
X-00743Y-02442*
X-00747*
X-00749Y-0244*
Y-02432*
X-00737D02*
X-00735Y-0243D01*
X-00732*
X-0073Y-02432*
Y-0244*
X-00732Y-02442*
X-00735*
X-00737Y-0244*
Y-02432*
X-00726Y-02442D02*
X-00722D01*
X-00724*
Y-0243*
X-00726Y-02432*
X-00086Y-01072D02*
X-00094D01*
Y-01078*
X-0009Y-01076*
X-00088*
X-00086Y-01078*
Y-01082*
X-00088Y-01084*
X-00092*
X-00094Y-01082*
X-00082Y-01074D02*
X-0008Y-01072D01*
X-00076*
X-00074Y-01074*
Y-01082*
X-00076Y-01084*
X-0008*
X-00082Y-01082*
Y-01074*
X-0007D02*
X-00068Y-01072D01*
X-00065*
X-00063Y-01074*
Y-01082*
X-00065Y-01084*
X-00068*
X-0007Y-01082*
Y-01074*
X-00059Y-01084D02*
X-00055D01*
X-00057*
Y-01072*
X-00059Y-01074*
X-00567Y-02065D02*
X-00575D01*
Y-02071*
X-00571Y-02069*
X-00569*
X-00567Y-02071*
Y-02075*
X-00569Y-02077*
X-00573*
X-00575Y-02075*
X-00563Y-02067D02*
X-00561Y-02065D01*
X-00557*
X-00555Y-02067*
Y-02075*
X-00557Y-02077*
X-00561*
X-00563Y-02075*
Y-02067*
X-00551D02*
X-00549Y-02065D01*
X-00546*
X-00544Y-02067*
Y-02075*
X-00546Y-02077*
X-00549*
X-00551Y-02075*
Y-02067*
X-0054Y-02077D02*
X-00536D01*
X-00538*
Y-02065*
X-0054Y-02067*
X-00554Y-01058D02*
X-00562D01*
Y-01064*
X-00558Y-01062*
X-00556*
X-00554Y-01064*
Y-01068*
X-00556Y-0107*
X-0056*
X-00562Y-01068*
X-0055Y-0106D02*
X-00548Y-01058D01*
X-00544*
X-00542Y-0106*
Y-01068*
X-00544Y-0107*
X-00548*
X-0055Y-01068*
Y-0106*
X-00538D02*
X-00537Y-01058D01*
X-00533*
X-00531Y-0106*
Y-01068*
X-00533Y-0107*
X-00537*
X-00538Y-01068*
Y-0106*
X-00527Y-0107D02*
X-00523D01*
X-00525*
Y-01058*
X-00527Y-0106*
X-00087Y-02671D02*
X-00094D01*
Y-02677*
X-00091Y-02675*
X-00089*
X-00087Y-02677*
Y-02681*
X-00089Y-02683*
X-00093*
X-00094Y-02681*
X-00083Y-02673D02*
X-00081Y-02671D01*
X-00077*
X-00075Y-02673*
Y-02681*
X-00077Y-02683*
X-00081*
X-00083Y-02681*
Y-02673*
X-00071D02*
X-00069Y-02671D01*
X-00065*
X-00063Y-02673*
Y-02681*
X-00065Y-02683*
X-00069*
X-00071Y-02681*
Y-02673*
X-00059Y-02683D02*
X-00055D01*
X-00057*
Y-02671*
X-00059Y-02673*
X-00075Y-00496D02*
X-00083D01*
Y-00502*
X-00079Y-005*
X-00077*
X-00075Y-00502*
Y-00506*
X-00077Y-00508*
X-00081*
X-00083Y-00506*
X-00071Y-00498D02*
X-00069Y-00496D01*
X-00065*
X-00063Y-00498*
Y-00506*
X-00065Y-00508*
X-00069*
X-00071Y-00506*
Y-00498*
X-0006D02*
X-00058Y-00496D01*
X-00054*
X-00052Y-00498*
Y-00506*
X-00054Y-00508*
X-00058*
X-0006Y-00506*
Y-00498*
X-00048Y-00508D02*
X-00044D01*
X-00046*
Y-00496*
X-00048Y-00498*
X-0075Y-02013D02*
X-00758D01*
Y-02019*
X-00754Y-02017*
X-00752*
X-0075Y-02019*
Y-02023*
X-00752Y-02025*
X-00756*
X-00758Y-02023*
X-00746Y-02015D02*
X-00744Y-02013D01*
X-0074*
X-00738Y-02015*
Y-02023*
X-0074Y-02025*
X-00744*
X-00746Y-02023*
Y-02015*
X-00734D02*
X-00732Y-02013D01*
X-00728*
X-00726Y-02015*
Y-02023*
X-00728Y-02025*
X-00732*
X-00734Y-02023*
Y-02015*
X-00722Y-02025D02*
X-00719D01*
X-00721*
Y-02013*
X-00722Y-02015*
X-0108Y-00269D02*
X-01088D01*
Y-00275*
X-01084Y-00273*
X-01082*
X-0108Y-00275*
Y-00278*
X-01082Y-0028*
X-01086*
X-01088Y-00278*
X-01076Y-00271D02*
X-01074Y-00269D01*
X-0107*
X-01068Y-00271*
Y-00278*
X-0107Y-0028*
X-01074*
X-01076Y-00278*
Y-00271*
X-01065D02*
X-01063Y-00269D01*
X-01059*
X-01057Y-00271*
Y-00278*
X-01059Y-0028*
X-01063*
X-01065Y-00278*
Y-00271*
X-01053Y-0028D02*
X-01049D01*
X-01051*
Y-00269*
X-01053Y-00271*
X-00445Y-02373D02*
X-00453D01*
Y-02379*
X-00449Y-02377*
X-00447*
X-00445Y-02379*
Y-02383*
X-00447Y-02385*
X-00451*
X-00453Y-02383*
X-00442Y-02375D02*
X-0044Y-02373D01*
X-00436*
X-00434Y-02375*
Y-02383*
X-00436Y-02385*
X-0044*
X-00442Y-02383*
Y-02375*
X-0043D02*
X-00428Y-02373D01*
X-00424*
X-00422Y-02375*
Y-02383*
X-00424Y-02385*
X-00428*
X-0043Y-02383*
Y-02375*
X-00418Y-02385D02*
X-00414D01*
X-00416*
Y-02373*
X-00418Y-02375*
X-01294Y-01018D02*
X-01302D01*
Y-01024*
X-01298Y-01022*
X-01296*
X-01294Y-01024*
Y-01027*
X-01296Y-01029*
X-013*
X-01302Y-01027*
X-0129Y-0102D02*
X-01288Y-01018D01*
X-01284*
X-01282Y-0102*
Y-01027*
X-01284Y-01029*
X-01288*
X-0129Y-01027*
Y-0102*
X-01278D02*
X-01276Y-01018D01*
X-01272*
X-0127Y-0102*
Y-01027*
X-01272Y-01029*
X-01276*
X-01278Y-01027*
Y-0102*
X-01266Y-01029D02*
X-01262D01*
X-01264*
Y-01018*
X-01266Y-0102*
X-01094Y-01135D02*
X-01102D01*
Y-01141*
X-01098Y-01139*
X-01096*
X-01094Y-01141*
Y-01145*
X-01096Y-01147*
X-011*
X-01102Y-01145*
X-0109Y-01137D02*
X-01088Y-01135D01*
X-01084*
X-01082Y-01137*
Y-01145*
X-01084Y-01147*
X-01088*
X-0109Y-01145*
Y-01137*
X-01078D02*
X-01076Y-01135D01*
X-01072*
X-0107Y-01137*
Y-01145*
X-01072Y-01147*
X-01076*
X-01078Y-01145*
Y-01137*
X-01066Y-01147D02*
X-01063D01*
X-01064*
Y-01135*
X-01066Y-01137*
X-0079Y-0102D02*
X-00798D01*
Y-01026*
X-00794Y-01024*
X-00792*
X-0079Y-01026*
Y-0103*
X-00792Y-01032*
X-00796*
X-00798Y-0103*
X-00786Y-01022D02*
X-00784Y-0102D01*
X-0078*
X-00778Y-01022*
Y-0103*
X-0078Y-01032*
X-00784*
X-00786Y-0103*
Y-01022*
X-00774D02*
X-00772Y-0102D01*
X-00768*
X-00766Y-01022*
Y-0103*
X-00768Y-01032*
X-00772*
X-00774Y-0103*
Y-01022*
X-00762Y-01032D02*
X-00759D01*
X-0076*
Y-0102*
X-00762Y-01022*
X-00063Y-01832D02*
Y-01824D01*
X-00069*
X-00067Y-01828*
Y-0183*
X-00069Y-01832*
X-00073*
X-00075Y-0183*
Y-01826*
X-00073Y-01824*
X-00065Y-01836D02*
X-00063Y-01838D01*
Y-01842*
X-00065Y-01844*
X-00073*
X-00075Y-01842*
Y-01838*
X-00073Y-01836*
X-00065*
Y-01848D02*
X-00063Y-0185D01*
Y-01854*
X-00065Y-01856*
X-00073*
X-00075Y-01854*
Y-0185*
X-00073Y-01848*
X-00065*
X-00075Y-0186D02*
Y-01864D01*
Y-01862*
X-00063*
X-00065Y-0186*
X-01117Y-01283D02*
X-01125D01*
Y-01289*
X-01121Y-01287*
X-01119*
X-01117Y-01289*
Y-01293*
X-01119Y-01295*
X-01123*
X-01125Y-01293*
X-01113Y-01285D02*
X-01111Y-01283D01*
X-01107*
X-01106Y-01285*
Y-01293*
X-01107Y-01295*
X-01111*
X-01113Y-01293*
Y-01285*
X-01102D02*
X-011Y-01283D01*
X-01096*
X-01094Y-01285*
Y-01293*
X-01096Y-01295*
X-011*
X-01102Y-01293*
Y-01285*
X-0109Y-01295D02*
X-01086D01*
X-01088*
Y-01283*
X-0109Y-01285*
X-00596Y-01588D02*
X-00604D01*
Y-01594*
X-006Y-01592*
X-00598*
X-00596Y-01594*
Y-01598*
X-00598Y-016*
X-00602*
X-00604Y-01598*
X-00592Y-0159D02*
X-0059Y-01588D01*
X-00586*
X-00584Y-0159*
Y-01598*
X-00586Y-016*
X-0059*
X-00592Y-01598*
Y-0159*
X-0058D02*
X-00578Y-01588D01*
X-00574*
X-00572Y-0159*
Y-01598*
X-00574Y-016*
X-00578*
X-0058Y-01598*
Y-0159*
X-00568Y-016D02*
X-00564D01*
X-00566*
Y-01588*
X-00568Y-0159*
X-00085Y-00067D02*
X-00093D01*
Y-00072*
X-00089Y-00071*
X-00087*
X-00085Y-00072*
Y-00076*
X-00087Y-00078*
X-00091*
X-00093Y-00076*
X-00081Y-00069D02*
X-00079Y-00067D01*
X-00075*
X-00073Y-00069*
Y-00076*
X-00075Y-00078*
X-00079*
X-00081Y-00076*
Y-00069*
X-00069D02*
X-00067Y-00067D01*
X-00063*
X-00062Y-00069*
Y-00076*
X-00063Y-00078*
X-00067*
X-00069Y-00076*
Y-00069*
X-00058Y-00078D02*
X-00054D01*
X-00056*
Y-00067*
X-00058Y-00069*
X-00079Y-0155D02*
X-00087D01*
Y-01556*
X-00083Y-01554*
X-00081*
X-00079Y-01556*
Y-0156*
X-00081Y-01562*
X-00085*
X-00087Y-0156*
X-00076Y-01552D02*
X-00074Y-0155D01*
X-0007*
X-00068Y-01552*
Y-0156*
X-0007Y-01562*
X-00074*
X-00076Y-0156*
Y-01552*
X-00064D02*
X-00062Y-0155D01*
X-00058*
X-00056Y-01552*
Y-0156*
X-00058Y-01562*
X-00062*
X-00064Y-0156*
Y-01552*
X-00052Y-01562D02*
X-00048D01*
X-0005*
Y-0155*
X-00052Y-01552*
X-00905Y-0281D02*
X-00913D01*
Y-02816*
X-00909Y-02814*
X-00907*
X-00905Y-02816*
Y-02819*
X-00907Y-02821*
X-00911*
X-00913Y-02819*
X-00901Y-02812D02*
X-00899Y-0281D01*
X-00895*
X-00893Y-02812*
Y-02819*
X-00895Y-02821*
X-00899*
X-00901Y-02819*
Y-02812*
X-00889D02*
X-00887Y-0281D01*
X-00883*
X-00881Y-02812*
Y-02819*
X-00883Y-02821*
X-00887*
X-00889Y-02819*
Y-02812*
X-00877Y-02821D02*
X-00873D01*
X-00875*
Y-0281*
X-00877Y-02812*
G54D39*
X-00632Y-01238D02*
X-00637D01*
X-00634*
Y-01254*
X-00632Y-01251*
X-00645Y-01249D02*
Y-01241D01*
X-00647Y-01238*
X-00655*
Y-01249*
X-00671Y-01254D02*
X-0066D01*
Y-01246*
X-00666*
X-0066*
Y-01238*
X-00563Y-00581D02*
X-00558D01*
X-0056*
Y-00565*
X-00563Y-00568*
X-0055Y-0057D02*
Y-00578D01*
X-00547Y-00581*
X-00539*
Y-0057*
X-00524Y-00565D02*
X-00534D01*
Y-00573*
X-00529*
X-00534*
Y-00581*
X-00972Y-01331D02*
X-00956D01*
X-00972Y-0132*
X-00956*
X-00959Y-01304D02*
X-00956Y-01307D01*
Y-01312*
X-00959Y-01315*
X-00969*
X-00972Y-01312*
Y-01307*
X-00969Y-01304*
X-00673Y-018D02*
X-00668D01*
X-0067*
Y-01815*
X-00673Y-01813*
X-0066Y-0181D02*
Y-01802D01*
X-00657Y-018*
X-00649*
Y-0181*
X-00633Y-01815D02*
X-00644D01*
Y-01808*
X-00639*
X-00644*
Y-018*
X-00586Y-008D02*
X-0058D01*
X-00583*
Y-00784*
X-00586Y-00787*
X-00573Y-0079D02*
Y-00798D01*
X-0057Y-008*
X-00562*
Y-0079*
X-00546Y-00784D02*
X-00557D01*
Y-00792*
X-00552*
X-00557*
Y-008*
X-01388Y-01471D02*
X-01404D01*
X-01388Y-01482*
X-01404*
X-01402Y-01498D02*
X-01404Y-01495D01*
Y-0149*
X-01402Y-01487*
X-01391*
X-01388Y-0149*
Y-01495*
X-01391Y-01498*
G54D40*
X-00508Y-00864D02*
X-0051Y-00863D01*
X-00512*
X-00514Y-00864*
Y-00869*
X-00512Y-00871*
X-0051*
X-00508Y-00869*
X-00504Y-00871D02*
X-00502D01*
X-005Y-00869*
Y-00867*
X-00502Y-00865*
X-00504*
X-00506Y-00867*
Y-00869*
X-00504Y-00871*
X-00498D02*
X-00495D01*
X-00497*
Y-00863*
X-00498*
X-0049Y-00871D02*
X-00487D01*
X-00486Y-00869*
Y-00867*
X-00487Y-00865*
X-0049*
X-00491Y-00867*
Y-00869*
X-0049Y-00871*
X-00483Y-00865D02*
Y-00871D01*
Y-00868*
X-00482Y-00867*
X-00481Y-00865*
X-0048*
X-0054Y-03073D02*
X-00539Y-03071D01*
Y-03069*
X-0054Y-03067*
X-00545*
X-00547Y-03069*
Y-03071*
X-00545Y-03073*
X-00547Y-03077D02*
Y-03079D01*
X-00545Y-0308*
X-00543*
X-00541Y-03079*
Y-03077*
X-00543Y-03075*
X-00545*
X-00547Y-03077*
Y-03083D02*
Y-03086D01*
Y-03084*
X-00539*
Y-03083*
X-00547Y-03091D02*
Y-03094D01*
X-00545Y-03095*
X-00543*
X-00541Y-03094*
Y-03091*
X-00543Y-0309*
X-00545*
X-00547Y-03091*
X-00541Y-03098D02*
X-00547D01*
X-00544*
X-00543Y-03099*
X-00541Y-031*
Y-03101*
X-00487Y-03073D02*
X-00485Y-03071D01*
Y-03069*
X-00487Y-03067*
X-00492*
X-00493Y-03069*
Y-03071*
X-00492Y-03073*
X-00493Y-03077D02*
Y-03079D01*
X-00492Y-0308*
X-00489*
X-00488Y-03079*
Y-03077*
X-00489Y-03075*
X-00492*
X-00493Y-03077*
Y-03083D02*
Y-03086D01*
Y-03084*
X-00485*
Y-03083*
X-00493Y-03091D02*
Y-03094D01*
X-00492Y-03095*
X-00489*
X-00488Y-03094*
Y-03091*
X-00489Y-0309*
X-00492*
X-00493Y-03091*
X-00488Y-03098D02*
X-00493D01*
X-00491*
X-00489Y-03099*
X-00488Y-031*
Y-03101*
X-00433Y-03074D02*
X-00432Y-03073D01*
Y-0307*
X-00433Y-03069*
X-00439*
X-0044Y-0307*
Y-03073*
X-00439Y-03074*
X-0044Y-03078D02*
Y-03081D01*
X-00439Y-03082*
X-00436*
X-00435Y-03081*
Y-03078*
X-00436Y-03077*
X-00439*
X-0044Y-03078*
Y-03085D02*
Y-03087D01*
Y-03086*
X-00432*
Y-03085*
X-0044Y-03093D02*
Y-03095D01*
X-00439Y-03097*
X-00436*
X-00435Y-03095*
Y-03093*
X-00436Y-03091*
X-00439*
X-0044Y-03093*
X-00435Y-03099D02*
X-0044D01*
X-00437*
X-00436Y-031*
X-00435Y-03102*
Y-03103*
X-00531Y-00524D02*
X-0053Y-00525D01*
X-00527*
X-00526Y-00524*
Y-00518*
X-00527Y-00517*
X-0053*
X-00531Y-00518*
X-00535Y-00517D02*
X-00537D01*
X-00539Y-00518*
Y-00521*
X-00537Y-00522*
X-00535*
X-00534Y-00521*
Y-00518*
X-00535Y-00517*
X-00541D02*
X-00544D01*
X-00543*
Y-00525*
X-00541*
X-00549Y-00517D02*
X-00552D01*
X-00553Y-00518*
Y-00521*
X-00552Y-00522*
X-00549*
X-00548Y-00521*
Y-00518*
X-00549Y-00517*
X-00556Y-00522D02*
Y-00517D01*
Y-0052*
X-00557Y-00521*
X-00558Y-00522*
X-0056*
G54D41*
X-00724Y-01812D02*
Y-01802D01*
X-00717Y-01812*
Y-01802*
X-00707Y-01804D02*
X-00709Y-01802D01*
X-00712*
X-00714Y-01804*
Y-0181*
X-00712Y-01812*
X-00709*
X-00707Y-0181*
X-00701Y-01812D02*
X-00704Y-01809D01*
Y-01805*
X-00701Y-01802*
X-00689Y-01804D02*
X-00691Y-01802D01*
X-00694*
X-00696Y-01804*
Y-01805*
X-00694Y-01807*
X-00691*
X-00689Y-01809*
Y-0181*
X-00691Y-01812*
X-00694*
X-00696Y-0181*
X-00686Y-01812D02*
Y-01802D01*
X-0068Y-01812*
Y-01802*
X-00676D02*
X-0067D01*
Y-01804*
X-00676Y-0181*
Y-01812*
X-00662D02*
Y-01802D01*
X-00666Y-01807*
X-0066*
X-00657Y-01802D02*
Y-01812D01*
X-0065*
X-00647Y-01802D02*
Y-01809D01*
X-00643Y-01812*
X-0064Y-01809*
Y-01802*
X-0063Y-01804D02*
X-00632Y-01802D01*
X-00635*
X-00637Y-01804*
Y-0181*
X-00635Y-01812*
X-00632*
X-0063Y-0181*
X-00621Y-01812D02*
X-00627D01*
X-00621Y-01805*
Y-01804*
X-00622Y-01802*
X-00625*
X-00627Y-01804*
X-00611D02*
X-00612Y-01802D01*
X-00616*
X-00617Y-01804*
Y-0181*
X-00616Y-01812*
X-00612*
X-00611Y-0181*
Y-01807*
X-00614*
X-00607Y-01812D02*
X-00604D01*
X-00606*
Y-01802*
X-00607Y-01804*
X-00599Y-01802D02*
X-00593D01*
Y-01804*
X-00599Y-0181*
Y-01812*
X-00589D02*
X-00586Y-01809D01*
Y-01805*
X-00589Y-01802*
X-00573Y-00615D02*
X-00563D01*
Y-0062*
X-00565Y-00622*
X-00568*
X-0057Y-0062*
Y-00615*
Y-00619D02*
X-00573Y-00622D01*
X-00565Y-00632D02*
X-00563Y-0063D01*
Y-00627*
X-00565Y-00625*
X-00567*
X-00568Y-00627*
Y-0063*
X-0057Y-00632*
X-00571*
X-00573Y-0063*
Y-00627*
X-00571Y-00625*
X-00565Y-00635D02*
X-00563Y-00637D01*
Y-0064*
X-00565Y-00642*
X-00567*
X-00568Y-0064*
Y-00638*
Y-0064*
X-0057Y-00642*
X-00571*
X-00573Y-0064*
Y-00637*
X-00571Y-00635*
X-00565Y-00645D02*
X-00563Y-00647D01*
Y-0065*
X-00565Y-00651*
X-00571*
X-00573Y-0065*
Y-00647*
X-00571Y-00645*
X-00565*
Y-00655D02*
X-00563Y-00656D01*
Y-0066*
X-00565Y-00661*
X-00571*
X-00573Y-0066*
Y-00656*
X-00571Y-00655*
X-00565*
X-00563Y-00665D02*
Y-00671D01*
X-00565*
X-00571Y-00665*
X-00573*
X-00568Y-00674D02*
Y-00681D01*
X-00567Y-00684D02*
X-00573Y-00691D01*
X-0057Y-00688*
X-00567Y-00691*
X-00573Y-00684*
Y-00694D02*
X-00571D01*
Y-00696*
X-00573*
Y-00694*
X-00567Y-00702D02*
X-00573Y-00709D01*
X-0057Y-00706*
X-00567Y-00709*
X-00573Y-00702*
Y-00712D02*
X-00567D01*
X-00563Y-00715*
X-00567Y-00719*
X-00573*
X-00568*
Y-00712*
X-00565Y-00729D02*
X-00563Y-00727D01*
Y-00724*
X-00565Y-00722*
X-00567*
X-00568Y-00724*
Y-00727*
X-0057Y-00729*
X-00571*
X-00573Y-00727*
Y-00724*
X-00571Y-00722*
X-00563Y-00732D02*
X-00565D01*
X-00568Y-00735*
X-00565Y-00738*
X-00563*
X-00568Y-00735D02*
X-00573D01*
X-00563Y-00748D02*
Y-00742D01*
X-00568*
Y-00745*
Y-00742*
X-00573*
X-00563Y-00758D02*
Y-00752D01*
X-00568*
X-00567Y-00755*
Y-00756*
X-00568Y-00758*
X-00571*
X-00573Y-00756*
Y-00753*
X-00571Y-00752*
X-00586Y-01252D02*
Y-01243D01*
X-00593Y-01252*
Y-01243*
X-00602Y-01244D02*
X-00601Y-01243D01*
X-00597*
X-00596Y-01244*
Y-01251*
X-00597Y-01252*
X-00601*
X-00602Y-01251*
X-00609Y-01252D02*
X-00606Y-01249D01*
Y-01246*
X-00609Y-01243*
X-0062Y-01244D02*
X-00619Y-01243D01*
X-00616*
X-00614Y-01244*
Y-01246*
X-00616Y-01248*
X-00619*
X-0062Y-01249*
Y-01251*
X-00619Y-01252*
X-00616*
X-00614Y-01251*
X-00624Y-01252D02*
Y-01243D01*
X-0063Y-01252*
Y-01243*
X-00634D02*
X-0064D01*
Y-01244*
X-00634Y-01251*
Y-01252*
X-00648D02*
Y-01243D01*
X-00643Y-01248*
X-0065*
X-00653Y-01243D02*
Y-01252D01*
X-0066*
X-00663Y-01243D02*
Y-01249D01*
X-00666Y-01252*
X-0067Y-01249*
Y-01243*
X-00679Y-01244D02*
X-00678Y-01243D01*
X-00675*
X-00673Y-01244*
Y-01251*
X-00675Y-01252*
X-00678*
X-00679Y-01251*
X-00689Y-01252D02*
X-00683D01*
X-00689Y-01246*
Y-01244*
X-00688Y-01243*
X-00684*
X-00683Y-01244*
X-00699D02*
X-00697Y-01243D01*
X-00694*
X-00693Y-01244*
Y-01251*
X-00694Y-01252*
X-00697*
X-00699Y-01251*
Y-01248*
X-00696*
X-00702Y-01252D02*
X-00706D01*
X-00704*
Y-01243*
X-00702Y-01244*
X-00711Y-01243D02*
X-00717D01*
Y-01244*
X-00711Y-01251*
Y-01252*
X-0072D02*
X-00724Y-01249D01*
Y-01246*
X-0072Y-01243*
M02*