%FSTAX23Y23*%
%MOIN*%
%SFA1B1*%

%IPPOS*%
%AMD20*
4,1,8,-0.011800,-0.017700,0.011800,-0.017700,0.021700,-0.007900,0.021700,0.007900,0.011800,0.017700,-0.011800,0.017700,-0.021700,0.007900,-0.021700,-0.007900,-0.011800,-0.017700,0.0*
1,1,0.019685,-0.011800,-0.007900*
1,1,0.019685,0.011800,-0.007900*
1,1,0.019685,0.011800,0.007900*
1,1,0.019685,-0.011800,0.007900*
%
%AMD21*
4,1,8,0.012600,0.017700,-0.012600,0.017700,-0.017700,0.012600,-0.017700,-0.012600,-0.012600,-0.017700,0.012600,-0.017700,0.017700,-0.012600,0.017700,0.012600,0.012600,0.017700,0.0*
1,1,0.010236,0.012600,0.012600*
1,1,0.010236,-0.012600,0.012600*
1,1,0.010236,-0.012600,-0.012600*
1,1,0.010236,0.012600,-0.012600*
%
%AMD22*
4,1,8,-0.017700,0.011800,-0.017700,-0.011800,-0.007900,-0.021700,0.007900,-0.021700,0.017700,-0.011800,0.017700,0.011800,0.007900,0.021700,-0.007900,0.021700,-0.017700,0.011800,0.0*
1,1,0.019685,-0.007900,0.011800*
1,1,0.019685,-0.007900,-0.011800*
1,1,0.019685,0.007900,-0.011800*
1,1,0.019685,0.007900,0.011800*
%
%AMD23*
4,1,8,0.008300,0.023600,-0.008300,0.023600,-0.013800,0.018100,-0.013800,-0.018100,-0.008300,-0.023600,0.008300,-0.023600,0.013800,-0.018100,0.013800,0.018100,0.008300,0.023600,0.0*
1,1,0.011024,0.008300,0.018100*
1,1,0.011024,-0.008300,0.018100*
1,1,0.011024,-0.008300,-0.018100*
1,1,0.011024,0.008300,-0.018100*
%
%AMD24*
4,1,8,-0.023600,0.008300,-0.023600,-0.008300,-0.018100,-0.013800,0.018100,-0.013800,0.023600,-0.008300,0.023600,0.008300,0.018100,0.013800,-0.018100,0.013800,-0.023600,0.008300,0.0*
1,1,0.011024,-0.018100,0.008300*
1,1,0.011024,-0.018100,-0.008300*
1,1,0.011024,0.018100,-0.008300*
1,1,0.011024,0.018100,0.008300*
%
%AMD25*
4,1,8,0.017700,-0.012600,0.017700,0.012600,0.012600,0.017700,-0.012600,0.017700,-0.017700,0.012600,-0.017700,-0.012600,-0.012600,-0.017700,0.012600,-0.017700,0.017700,-0.012600,0.0*
1,1,0.010236,0.012600,-0.012600*
1,1,0.010236,0.012600,0.012600*
1,1,0.010236,-0.012600,0.012600*
1,1,0.010236,-0.012600,-0.012600*
%
G04~CAMADD=20~8~0.0~0.0~433.1~354.3~98.4~0.0~15~0.0~0.0~0.0~0.0~0~0.0~0.0~0.0~0.0~0~0.0~0.0~0.0~180.0~434.0~355.0*
%ADD20D20*%
G04~CAMADD=21~8~0.0~0.0~354.3~354.3~51.2~0.0~15~0.0~0.0~0.0~0.0~0~0.0~0.0~0.0~0.0~0~0.0~0.0~0.0~0.0~354.3~354.3*
%ADD21D21*%
G04~CAMADD=22~8~0.0~0.0~433.1~354.3~98.4~0.0~15~0.0~0.0~0.0~0.0~0~0.0~0.0~0.0~0.0~0~0.0~0.0~0.0~90.0~356.0~433.0*
%ADD22D22*%
G04~CAMADD=23~8~0.0~0.0~275.6~472.4~55.1~0.0~15~0.0~0.0~0.0~0.0~0~0.0~0.0~0.0~0.0~0~0.0~0.0~0.0~0.0~275.6~472.4*
%ADD23D23*%
G04~CAMADD=24~8~0.0~0.0~275.6~472.4~55.1~0.0~15~0.0~0.0~0.0~0.0~0~0.0~0.0~0.0~0.0~0~0.0~0.0~0.0~90.0~473.0~276.0*
%ADD24D24*%
G04~CAMADD=25~8~0.0~0.0~354.3~354.3~51.2~0.0~15~0.0~0.0~0.0~0.0~0~0.0~0.0~0.0~0.0~0~0.0~0.0~0.0~270.0~354.0~354.0*
%ADD25D25*%
%ADD26C,0.074803*%
%ADD27C,0.063937*%
%ADD28C,0.200787*%
%ADD29C,0.192913*%
%ADD30C,0.027559*%
%LNmicrophonearray.main-1*%
%LPD*%
G54D20*
X-00624Y-00578D03*
Y-00515D03*
X-00677Y-00649D03*
Y-00712D03*
X-00436Y-03159D03*
Y-03222D03*
X-00489Y-03159D03*
Y-03222D03*
X-00543Y-03159D03*
Y-03222D03*
X-00449Y-0081D03*
Y-00747D03*
G54D21*
X-00526Y-00867D03*
X-00467D03*
X-00572Y-00521D03*
X-00513D03*
G54D22*
X-00597Y-00792D03*
X-00534D03*
X-0062Y-01246D03*
X-00683D03*
X-00528Y-00917D03*
X-00465D03*
X-00685Y-01891D03*
X-00622D03*
X-0068Y-017D03*
X-00617D03*
X-00512Y-00573D03*
X-00575D03*
G54D23*
X-00531Y-00641D03*
X-00568D03*
X-00606D03*
Y-00732D03*
X-00531D03*
G54D24*
X-0061Y-0177D03*
Y-01807D03*
Y-01844D03*
X-007D03*
Y-01807D03*
Y-0177D03*
G54D25*
X-00436Y-03116D03*
Y-03057D03*
X-00489Y-03114D03*
Y-03055D03*
X-00543Y-03114D03*
Y-03055D03*
G54D26*
X-00073Y-00072D03*
X-01082Y-01141D03*
X-01325Y-01852D03*
Y-01452D03*
Y-01552D03*
Y-01652D03*
Y-01752D03*
X-01225Y-01552D03*
Y-01652D03*
Y-01752D03*
Y-01452D03*
Y-01852D03*
X-00063Y-00502D03*
X-01282Y-01024D03*
X-01068Y-00275D03*
X-00741Y-02436D03*
X-00893Y-02816D03*
X-00069Y-01844D03*
X-00884Y-01268D03*
Y-02068D03*
Y-01368D03*
Y-01468D03*
Y-01568D03*
Y-01668D03*
Y-01768D03*
Y-01868D03*
Y-01968D03*
Y-02168D03*
X-00778Y-01026D03*
X-00542Y-01064D03*
X-00555Y-02071D03*
X-00738Y-02019D03*
X-00068Y-01556D03*
X-00434Y-02379D03*
X-00075Y-02677D03*
X-00584Y-01594D03*
X-01106Y-01289D03*
X-00074Y-01078D03*
X-0009Y-0091D03*
G54D27*
X-00196Y-02778D03*
X-00296Y-00178D03*
Y-00278D03*
Y-00378D03*
Y-00478D03*
Y-00578D03*
Y-00678D03*
Y-00778D03*
Y-00878D03*
Y-00978D03*
Y-01078D03*
Y-01178D03*
Y-01278D03*
Y-01378D03*
Y-01478D03*
Y-01578D03*
Y-01678D03*
Y-01778D03*
Y-01878D03*
Y-01978D03*
Y-02078D03*
Y-02178D03*
Y-02278D03*
Y-02378D03*
Y-02478D03*
Y-02578D03*
Y-02678D03*
Y-02778D03*
X-00196Y-00178D03*
Y-00278D03*
Y-00378D03*
Y-00478D03*
Y-00578D03*
Y-00678D03*
Y-00778D03*
Y-00878D03*
Y-00978D03*
Y-01078D03*
Y-01178D03*
Y-01278D03*
Y-01378D03*
Y-01478D03*
Y-01578D03*
Y-01678D03*
Y-01778D03*
Y-01878D03*
Y-01978D03*
Y-02078D03*
Y-02178D03*
Y-02278D03*
Y-02378D03*
Y-02478D03*
Y-02578D03*
Y-02678D03*
X-00296Y-02878D03*
X-00196D03*
X-00296Y-00078D03*
X-00196D03*
G54D28*
X-01396Y-0289D03*
Y-00546D03*
G54D29*
X-00244Y-03086D03*
X-00708Y-00157D03*
G54D30*
X-01042Y-01819D03*
Y-01768D03*
Y-0171D03*
X-01092Y-02051D03*
X-01113Y-01959D03*
X-0111Y-01885D03*
Y-01696D03*
X-01045Y-01902D03*
X-0111Y-01771D03*
X-01004Y-02013D03*
X-01045Y-01968D03*
X-00985Y-02056D03*
X-00969Y-01813D03*
Y-0175D03*
X-00954Y-01852D03*
Y-01694D03*
X-0094Y-02047D03*
X-00937Y-02104D03*
X-00455Y-01365D03*
X-00966Y-01608D03*
X-00778Y-01418D03*
X-00787Y-01535D03*
X-0092Y-01519D03*
X-00989Y-01552D03*
X-00979Y-01434D03*
X-00402Y-00823D03*
X-00614Y-00867D03*
X-00247Y-01953D03*
X-00254Y-02015D03*
X-00261Y-00921D03*
X-00098Y-00157D03*
Y-00551D03*
Y-01732D03*
Y-02913D03*
X-00393Y-02322D03*
Y-02716D03*
X-00492Y-02125D03*
X-0059Y-02322D03*
X-00492Y-02519D03*
X-0059Y-02716D03*
X-00492Y-02913D03*
X-00787Y-00354D03*
Y-00748D03*
X-00688Y-00944D03*
Y-02125D03*
X-00787Y-02322D03*
X-00688Y-02519D03*
X-00787Y-02716D03*
X-00688Y-02913D03*
X-00787Y-0311D03*
X-00885Y-00157D03*
X-00984Y-00354D03*
X-00885Y-00551D03*
X-00984Y-00748D03*
X-00885Y-00944D03*
X-00984Y-01141D03*
Y-02322D03*
X-00885Y-02519D03*
X-00984Y-02716D03*
X-00885Y-02913D03*
X-00984Y-0311D03*
X-01082Y-00157D03*
X-01181Y-00354D03*
X-01082Y-00551D03*
X-01181Y-00748D03*
X-01082Y-00944D03*
X-01181Y-01141D03*
X-01082Y-02125D03*
X-01181Y-02322D03*
X-01082Y-02519D03*
X-01181Y-02716D03*
X-01082Y-02913D03*
X-01181Y-0311D03*
X-01279Y-00157D03*
X-01377Y-00354D03*
Y-00748D03*
X-01279Y-00944D03*
X-01377Y-01141D03*
Y-01929D03*
X-01279Y-02125D03*
X-01377Y-02322D03*
X-01279Y-02519D03*
X-01377Y-02716D03*
Y-0311D03*
X-00618Y-01946D03*
X-00592Y-02004D03*
X-00501Y-02011D03*
X-00438D03*
X-00375D03*
X-00361Y-01945D03*
X-00424D03*
X-00487D03*
X-00546Y-01925D03*
X-00565Y-01864D03*
X-00358Y-00893D03*
X-00446Y-00983D03*
X-00453Y-01297D03*
Y-01423D03*
Y-01486D03*
X-00533Y-01629D03*
X-00529Y-01566D03*
X-00583Y-01533D03*
X-00637Y-01564D03*
X-00647Y-01626D03*
X-00548Y-01733D03*
X-00422Y-01732D03*
X-00387Y-0168D03*
Y-01617D03*
Y-01554D03*
Y-01491D03*
Y-01428D03*
Y-01365D03*
Y-01302D03*
Y-01176D03*
Y-01113D03*
Y-0105D03*
X-00363Y-00991D03*
X-01154Y-01585D03*
X-01091D03*
X-00923Y-02015D03*
X-00719Y-01926D03*
X-00656Y-01929D03*
X-00773Y-0186D03*
X-01093Y-01519D03*
X-01156D03*
X-01174Y-01354D03*
X-01225Y-0139D03*
X-01169Y-01476D03*
X-01145Y-01418D03*
X-01084Y-01401D03*
X-00715Y-01409D03*
X-00713Y-01472D03*
Y-01661D03*
X-00648Y-01444D03*
X-0101Y-01334D03*
X-01062Y-01333D03*
X-01124Y-01819D03*
X-01168Y-01773D03*
X-00733Y-01174D03*
X-00859Y-01179D03*
X-00922D03*
X-01048Y-01402D03*
X-01045Y-01458D03*
X-0105Y-01519D03*
X-01045Y-0163D03*
X-0109D03*
X-01153Y-01634D03*
X-0117Y-01885D03*
X-00984Y-0216D03*
X-00745Y-01249D03*
X-00543Y-01806D03*
X-00555Y-01246D03*
X-00454Y-01163D03*
X-00473Y-01654D03*
X-00679Y-00601D03*
X-00495Y-00273D03*
X-00424D03*
X-00746Y-01806D03*
M02*