%FSTAX23Y23*%
%MOIN*%
%SFA1B1*%

%IPPOS*%
%ADD9500C,0.039370*%
%ADD9501C,0.040160*%
%ADD9502C,0.125980*%
%ADD9503C,0.157480*%
%LNmicrophonearray.main-1*%
%LPD*%
G54D9500*
X-00175Y-02168D03*
Y-02068D03*
Y-01968D03*
Y-01868D03*
Y-01768D03*
Y-01668D03*
Y-01568D03*
Y-01468D03*
Y-01368D03*
Y-01268D03*
G54D9501*
X-01005Y-02878D03*
Y-02778D03*
X-00905D03*
Y-02678D03*
X-01005D03*
Y-02578D03*
Y-02478D03*
Y-02378D03*
Y-02278D03*
Y-02178D03*
Y-02078D03*
Y-01978D03*
Y-01878D03*
Y-01778D03*
Y-01678D03*
Y-01578D03*
Y-01478D03*
Y-01378D03*
X-00905D03*
Y-01478D03*
Y-01578D03*
Y-01678D03*
Y-01778D03*
Y-01878D03*
Y-01978D03*
Y-02078D03*
Y-02178D03*
Y-02278D03*
Y-02378D03*
Y-02478D03*
Y-02578D03*
Y-02878D03*
Y-01278D03*
X-01005D03*
Y-01178D03*
Y-01078D03*
Y-00978D03*
Y-00878D03*
Y-00778D03*
Y-00678D03*
Y-00578D03*
Y-00478D03*
Y-00378D03*
Y-00278D03*
Y-00178D03*
X-00905D03*
Y-00278D03*
Y-00378D03*
Y-00478D03*
Y-00578D03*
Y-00678D03*
Y-00778D03*
Y-00878D03*
Y-00978D03*
Y-01078D03*
Y-01178D03*
Y-00078D03*
X-01005D03*
G54D9502*
X-00953Y-03086D03*
X-01417Y-00157D03*
G54D9503*
X-00687Y-0289D03*
Y-00546D03*
M02*