%FSTAX23Y23*%
%MOIN*%
%SFA1B1*%

%IPPOS*%
%AMD13*
4,1,8,-0.015700,0.011800,-0.015700,-0.011800,-0.007900,-0.019700,0.007900,-0.019700,0.015700,-0.011800,0.015700,0.011800,0.007900,0.019700,-0.007900,0.019700,-0.015700,0.011800,0.0*
1,1,0.015748,-0.007900,0.011800*
1,1,0.015748,-0.007900,-0.011800*
1,1,0.015748,0.007900,-0.011800*
1,1,0.015748,0.007900,0.011800*
%
%AMD14*
4,1,8,0.012600,0.015700,-0.012600,0.015700,-0.015700,0.012600,-0.015700,-0.012600,-0.012600,-0.015700,0.012600,-0.015700,0.015700,-0.012600,0.015700,0.012600,0.012600,0.015700,0.0*
1,1,0.006299,0.012600,0.012600*
1,1,0.006299,-0.012600,0.012600*
1,1,0.006299,-0.012600,-0.012600*
1,1,0.006299,0.012600,-0.012600*
%
%AMD15*
4,1,8,0.011800,0.015700,-0.011800,0.015700,-0.019700,0.007900,-0.019700,-0.007900,-0.011800,-0.015700,0.011800,-0.015700,0.019700,-0.007900,0.019700,0.007900,0.011800,0.015700,0.0*
1,1,0.015748,0.011800,0.007900*
1,1,0.015748,-0.011800,0.007900*
1,1,0.015748,-0.011800,-0.007900*
1,1,0.015748,0.011800,-0.007900*
%
%ADD12C,0.010000*%
G04~CAMADD=13~8~0.0~0.0~393.7~315.0~78.7~0.0~15~0.0~0.0~0.0~0.0~0~0.0~0.0~0.0~0.0~0~0.0~0.0~0.0~90.0~316.0~393.0*
%ADD13D13*%
G04~CAMADD=14~8~0.0~0.0~315.0~315.0~31.5~0.0~15~0.0~0.0~0.0~0.0~0~0.0~0.0~0.0~0.0~0~0.0~0.0~0.0~0.0~315.0~315.0*
%ADD14D14*%
G04~CAMADD=15~8~0.0~0.0~393.7~315.0~78.7~0.0~15~0.0~0.0~0.0~0.0~0~0.0~0.0~0.0~0.0~0~0.0~0.0~0.0~0.0~393.7~315.0*
%ADD15D15*%
%ADD23C,0.013780*%
%ADD24C,0.070866*%
%ADD25C,0.196850*%
%ADD26C,0.060000*%
%ADD27C,0.188976*%
%LNmicrophonearray.main-1*%
%LPD*%
G36*
X-00017Y-0002D02*
X-00023Y-00026D01*
Y-03292*
X-00025Y-03293*
X-0003Y-03295*
X-00037Y-03297*
X-01536*
X-01543Y-03295*
X-01548Y-03293*
X-01553Y-0329*
X-01557Y-03286*
X-0156Y-03281*
X-01562Y-03276*
X-01564Y-0327*
Y-03267*
Y-03267*
X-01564Y-02881*
X-01558Y-00021*
X-01557Y-0002*
X-01553Y-00016*
X-0155Y-00014*
X-00023*
X-00017Y-0002*
G37*
%LNmicrophonearray.main-2*%
%LPC*%
G36*
X-00998Y-00035D02*
Y-00071D01*
X-00962*
X-00964Y-00061*
X-0097Y-00051*
X-00978Y-00043*
X-00988Y-00037*
X-00998Y-00035*
G37*
G36*
X-01012D02*
X-01022Y-00037D01*
X-01032Y-00043*
X-0104Y-00051*
X-01046Y-00061*
X-01048Y-00071*
X-01012*
Y-00035*
G37*
G36*
X-009Y-0004D02*
X-0091D01*
X-0092Y-00043*
X-00928Y-00048*
X-00935Y-00055*
X-0094Y-00064*
X-00943Y-00073*
Y-00083*
X-0094Y-00093*
X-00935Y-00101*
X-00928Y-00109*
X-0092Y-00114*
X-0091Y-00116*
X-009*
X-0089Y-00114*
X-00882Y-00109*
X-00875Y-00101*
X-0087Y-00093*
X-00867Y-00083*
Y-00073*
X-0087Y-00064*
X-00875Y-00055*
X-00882Y-00048*
X-0089Y-00043*
X-009Y-0004*
G37*
G36*
X-00962Y-00085D02*
X-00998D01*
Y-00122*
X-00988Y-00119*
X-00978Y-00113*
X-0097Y-00105*
X-00964Y-00095*
X-00962Y-00085*
G37*
G36*
X-01012D02*
X-01048D01*
X-01046Y-00095*
X-0104Y-00105*
X-01032Y-00113*
X-01022Y-00119*
X-01012Y-00122*
Y-00085*
G37*
G36*
X-01408Y-00048D02*
X-0141D01*
Y-0015*
X-01309*
Y-00148*
X-01311Y-00131*
X-01317Y-00115*
X-01324Y-001*
X-01334Y-00086*
X-01346Y-00074*
X-0136Y-00064*
X-01375Y-00056*
X-01392Y-00051*
X-01408Y-00048*
G37*
G36*
X-01424D02*
X-01426D01*
X-01442Y-00051*
X-01459Y-00056*
X-01474Y-00064*
X-01488Y-00074*
X-015Y-00086*
X-0151Y-001*
X-01517Y-00115*
X-01523Y-00131*
X-01525Y-00148*
Y-0015*
X-01424*
Y-00048*
G37*
G36*
X-00866Y-00118D02*
X-00867Y-00118D01*
X-00869Y-00118*
X-00891Y-00124*
X-00892Y-00125*
X-00892Y-00125*
X-00893Y-00125*
X-00894Y-00126*
X-00895Y-00126*
X-00895Y-00127*
X-00896Y-00127*
X-00896Y-00128*
X-00896Y-00129*
X-00897Y-00129*
X-00897Y-0013*
X-00897Y-00131*
X-00897Y-00132*
X-00897Y-00132*
X-00897Y-00136*
X-00898Y-00138*
X-009Y-0014*
X-00902Y-0014*
X-0091*
X-0092Y-00143*
X-00928Y-00148*
X-00935Y-00155*
X-0094Y-00163*
X-0094Y-00163*
X-00941Y-00164*
X-00946Y-00165*
X-00946Y-00165*
X-0095Y-00163*
X-00951Y-00163*
X-00952Y-00163*
X-00953Y-00163*
X-00953Y-00163*
X-00954Y-00163*
X-00955Y-00163*
X-00956Y-00163*
X-00957Y-00163*
X-00957Y-00164*
X-00958Y-00164*
X-00958Y-00164*
X-00959Y-00164*
X-00962Y-00164*
X-00963Y-00163*
X-00964Y-00163*
X-00964Y-00161*
X-0097Y-00151*
X-00978Y-00143*
X-00988Y-00137*
X-00998Y-00135*
Y-00178*
X-01005*
Y-00185*
X-01048*
X-01046Y-00195*
X-0104Y-00205*
X-01032Y-00213*
X-01022Y-00219*
X-01011Y-00222*
X-01009*
X-01008Y-00223*
X-01006Y-00227*
X-01006Y-00228*
X-01007Y-00229*
X-01007Y-00231*
X-01007Y-00232*
X-01007Y-00233*
X-01006Y-00235*
X-01008Y-00239*
X-01009Y-0024*
X-0101Y-0024*
X-0101*
X-0102Y-00243*
X-01028Y-00248*
X-01035Y-00255*
X-0104Y-00264*
X-01043Y-00273*
Y-00283*
X-0104Y-00293*
X-01038Y-00297*
X-01038Y-00299*
X-0104Y-00303*
X-01044Y-00304*
X-01047Y-00306*
X-01048Y-00308*
X-01049Y-00311*
Y-00335*
X-0105Y-00335*
X-01051Y-00336*
Y-0034*
Y-00416*
X-01049*
Y-00426*
X-01049Y-00427*
X-0105Y-0043*
X-01049Y-00433*
X-01048Y-00435*
X-01039Y-00444*
X-01036Y-00446*
X-01034Y-00446*
X-01033Y-00449*
X-01032Y-00452*
X-01035Y-00455*
X-0104Y-00464*
X-01043Y-00473*
Y-00483*
X-0104Y-00493*
X-01035Y-00501*
X-01028Y-00509*
X-0102Y-00514*
X-0101Y-00516*
X-01*
X-0099Y-00514*
X-00982Y-00509*
X-00975Y-00501*
X-0097Y-00493*
X-00967Y-00483*
Y-00473*
X-0097Y-00464*
X-00975Y-00455*
X-00978Y-00452*
X-00976Y-00447*
X-00934*
X-00932Y-00452*
X-00935Y-00455*
X-0094Y-00464*
X-00943Y-00473*
Y-00483*
X-0094Y-00493*
X-00935Y-00501*
X-00928Y-00509*
X-0092Y-00514*
X-0091Y-00516*
X-009*
X-0089Y-00514*
X-00882Y-00509*
X-00875Y-00501*
X-0087Y-00493*
X-00867Y-00483*
Y-00474*
X-00863Y-00471*
X-00854Y-0048*
Y-00838*
X-00853Y-00841*
X-00852Y-00843*
X-00786Y-00909*
X-00788Y-00914*
X-00881*
X-00882Y-00909*
X-00882Y-00909*
X-00875Y-00901*
X-0087Y-00893*
X-00867Y-00883*
Y-00873*
X-0087Y-00864*
X-00875Y-00855*
X-00882Y-00848*
X-0089Y-00843*
X-009Y-0084*
X-0091*
X-0092Y-00843*
X-00928Y-00848*
X-00935Y-00855*
X-0094Y-00864*
X-00943Y-00873*
Y-00883*
X-0094Y-00893*
X-00935Y-00901*
X-00928Y-00909*
X-00928Y-00909*
X-00929Y-00914*
X-00948*
X-0097Y-00892*
X-00967Y-00883*
Y-00873*
X-0097Y-00864*
X-00975Y-00855*
X-00982Y-00848*
X-0099Y-00843*
X-01Y-0084*
X-0101*
X-0102Y-00843*
X-01028Y-00848*
X-01035Y-00855*
X-0104Y-00864*
X-01043Y-00873*
Y-00883*
X-0104Y-00893*
X-01035Y-00901*
X-01028Y-00909*
X-0102Y-00914*
X-0101Y-00916*
X-01*
X-00991Y-00914*
X-00965Y-00939*
X-0096Y-00943*
X-00955Y-00944*
X-0093*
X-00929Y-00949*
X-00935Y-00955*
X-0094Y-00963*
X-0097*
X-00975Y-00955*
X-00982Y-00948*
X-0099Y-00943*
X-01Y-0094*
X-0101*
X-0102Y-00943*
X-01028Y-00948*
X-01035Y-00955*
X-0104Y-00964*
X-01043Y-00973*
Y-00983*
X-0104Y-00993*
X-01035Y-01001*
X-01028Y-01009*
X-0102Y-01014*
X-0101Y-01016*
X-01*
X-0099Y-01014*
X-00982Y-01009*
X-00975Y-01001*
X-0097Y-00993*
X-0094*
X-00935Y-01001*
X-00928Y-01009*
X-0092Y-01014*
X-0091Y-01016*
X-009*
X-0089Y-01014*
X-00882Y-01009*
X-00875Y-01001*
X-0087Y-00993*
X-00867Y-00983*
Y-00973*
X-0087Y-00964*
X-00875Y-00955*
X-00881Y-00949*
X-0088Y-00944*
X-00783*
X-00599Y-01128*
Y-01295*
X-00603Y-01298*
X-00607Y-01303*
X-00608Y-0131*
Y-01333*
X-00607Y-01339*
X-00603Y-01345*
X-00598Y-01348*
X-00592Y-01349*
X-00576*
X-0057Y-01348*
X-00565Y-01345*
X-00561Y-01339*
X-0056Y-01333*
Y-0131*
X-00561Y-01303*
X-00565Y-01298*
X-00569Y-01295*
Y-01199*
X-00504*
Y-01262*
X-00503Y-01265*
X-00501Y-01268*
X-00451Y-01318*
X-00448Y-0132*
X-00445Y-01321*
X-00205*
Y-0133*
X-00202Y-01333*
X-0021Y-01341*
X-00216Y-01351*
X-00216Y-01353*
X-00468*
X-00497Y-01324*
Y-0131*
X-00498Y-01303*
X-00502Y-01298*
X-00507Y-01295*
X-00513Y-01293*
X-00529*
X-00535Y-01295*
X-0054Y-01298*
X-00544Y-01303*
X-00545Y-0131*
Y-01333*
X-00544Y-01339*
X-0054Y-01345*
X-00535Y-01348*
X-00529Y-01349*
X-00515*
X-00485Y-01379*
X-0048Y-01382*
X-00475Y-01383*
X-00216*
X-00216Y-01385*
X-00213Y-01389*
X-00214Y-01391*
X-00215Y-01392*
Y-01423*
X-00205*
X-00203Y-01428*
X-00205Y-01429*
X-00215Y-01438*
X-00221Y-01449*
X-00224Y-01461*
X-00175*
X-00126*
X-00129Y-01449*
X-00136Y-01438*
X-00145Y-01429*
X-00147Y-01428*
X-00146Y-01423*
X-00134*
X-00132Y-0139*
X-00133Y-0139*
X-00135Y-01386*
X-00135Y-01385*
X-00132Y-01374*
Y-01362*
X-00133Y-01359*
X-00131Y-01357*
X-00128Y-01356*
X-00127Y-01357*
X-00124Y-01358*
X-00113*
X-00112Y-01358*
X-00111Y-01358*
X-00111Y-01357*
X-0011Y-01357*
X-00109Y-01357*
X-00108Y-01356*
X-00108Y-01356*
X-00108Y-01356*
X-00107Y-01355*
X-00106Y-01354*
X-00105Y-01352*
X-00105Y-01352*
X-00099Y-0135*
X-00099Y-01351*
X-00096Y-01352*
X-0009Y-01354*
X-00066*
X-0006Y-01352*
X-00055Y-01349*
X-00052Y-01344*
X-0005Y-01338*
Y-01322*
X-00052Y-01316*
X-00055Y-01311*
X-00056Y-0131*
X-00056Y-01304*
X-00055Y-01303*
X-00055Y-01303*
X-00055Y-01303*
X-00054Y-01302*
X-00053Y-01301*
X-00053Y-013*
X-00053Y-013*
X-00053Y-01299*
X-00053Y-01298*
X-00053Y-01297*
X-00052Y-01297*
Y-01212*
X-00053Y-01209*
X-00055Y-01206*
X-00131Y-0113*
X-00133Y-01129*
X-00136Y-01128*
X-00399*
Y-01082*
X-00484*
Y-01054*
X-00485Y-01051*
X-00486Y-01048*
X-00784Y-00751*
Y-00613*
X-00779Y-00611*
X-00773Y-00619*
X-0076Y-00632*
X-00746Y-00642*
X-0073Y-0065*
X-00713Y-00656*
X-00696Y-00659*
X-00694*
Y-00546*
Y-00434*
X-00696*
X-00713Y-00437*
X-0073Y-00442*
X-00746Y-0045*
X-0076Y-00461*
X-00773Y-00473*
X-00779Y-00482*
X-00784Y-0048*
Y-002*
X-00784Y-00197*
X-00786Y-00195*
X-00861Y-0012*
X-00862Y-00119*
X-00862Y-00119*
X-00863Y-00119*
X-00863Y-00118*
X-00864Y-00118*
X-00865Y-00118*
X-00866Y-00118*
X-00866Y-00118*
G37*
G36*
X-01012Y-00135D02*
X-01022Y-00137D01*
X-01032Y-00143*
X-0104Y-00151*
X-01046Y-00161*
X-01048Y-00171*
X-01012*
Y-00135*
G37*
G36*
X-01309Y-00164D02*
X-0141D01*
Y-00265*
X-01408*
X-01392Y-00262*
X-01375Y-00257*
X-0136Y-00249*
X-01346Y-00239*
X-01334Y-00227*
X-01324Y-00213*
X-01317Y-00198*
X-01311Y-00182*
X-01309Y-00165*
Y-00164*
G37*
G36*
X-01424D02*
X-01525D01*
Y-00165*
X-01523Y-00182*
X-01517Y-00198*
X-0151Y-00213*
X-015Y-00227*
X-01488Y-00239*
X-01474Y-00249*
X-01459Y-00257*
X-01442Y-00262*
X-01426Y-00265*
X-01424*
Y-00164*
G37*
G36*
X-00678Y-00434D02*
X-0068D01*
Y-0054*
X-00575*
Y-00538*
X-00578Y-0052*
X-00583Y-00503*
X-00591Y-00488*
X-00602Y-00473*
X-00614Y-00461*
X-00628Y-0045*
X-00644Y-00442*
X-00661Y-00437*
X-00678Y-00434*
G37*
G36*
X-00998Y-00535D02*
Y-00571D01*
X-00962*
X-00964Y-00561*
X-0097Y-00551*
X-00978Y-00543*
X-00988Y-00537*
X-00998Y-00535*
G37*
G36*
X-01012D02*
X-01022Y-00537D01*
X-01032Y-00543*
X-0104Y-00551*
X-01046Y-00561*
X-01048Y-00571*
X-01012*
Y-00535*
G37*
G36*
X-009Y-0054D02*
X-0091D01*
X-0092Y-00543*
X-00928Y-00548*
X-00935Y-00555*
X-0094Y-00564*
X-00943Y-00573*
Y-00583*
X-0094Y-00593*
X-00935Y-00601*
X-00928Y-00609*
X-0092Y-00614*
X-0091Y-00616*
X-009*
X-0089Y-00614*
X-00882Y-00609*
X-00875Y-00601*
X-0087Y-00593*
X-00867Y-00583*
Y-00573*
X-0087Y-00564*
X-00875Y-00555*
X-00882Y-00548*
X-0089Y-00543*
X-009Y-0054*
G37*
G36*
X-00962Y-00585D02*
X-00998D01*
Y-00622*
X-00988Y-00619*
X-00978Y-00613*
X-0097Y-00605*
X-00964Y-00595*
X-00962Y-00585*
G37*
G36*
X-01012D02*
X-01048D01*
X-01046Y-00595*
X-0104Y-00605*
X-01032Y-00613*
X-01022Y-00619*
X-01012Y-00622*
Y-00585*
G37*
G36*
X-00575Y-00553D02*
X-0068D01*
Y-00659*
X-00678*
X-00661Y-00656*
X-00644Y-0065*
X-00628Y-00642*
X-00614Y-00632*
X-00602Y-00619*
X-00591Y-00605*
X-00583Y-00589*
X-00578Y-00573*
X-00575Y-00555*
Y-00553*
G37*
G36*
X-009Y-0064D02*
X-0091D01*
X-0092Y-00643*
X-00928Y-00648*
X-00935Y-00655*
X-0094Y-00663*
X-0097*
X-00975Y-00655*
X-00982Y-00648*
X-0099Y-00643*
X-01Y-0064*
X-0101*
X-0102Y-00643*
X-01028Y-00648*
X-01035Y-00655*
X-0104Y-00664*
X-01043Y-00673*
Y-00683*
X-0104Y-00692*
X-0109Y-00742*
X-01093Y-00747*
X-01094Y-00752*
Y-01004*
X-01093Y-0101*
X-0109Y-01015*
X-0104Y-01064*
X-01043Y-01073*
Y-01083*
X-0104Y-01092*
X-01105Y-01157*
X-01108Y-01161*
X-01109Y-01167*
Y-01183*
X-01112Y-01183*
X-01117Y-01187*
X-01121Y-01192*
X-01122Y-01198*
Y-01214*
X-01121Y-0122*
X-01117Y-01225*
X-01112Y-01229*
X-01106Y-0123*
X-01082*
X-01076Y-01229*
X-01071Y-01225*
X-01067Y-0122*
X-01066Y-01214*
Y-01198*
X-01067Y-01192*
X-01071Y-01187*
X-01076Y-01183*
X-01079Y-01183*
Y-01173*
X-01019Y-01114*
X-0101Y-01116*
X-01*
X-0099Y-01114*
X-00982Y-01109*
X-00975Y-01101*
X-0097Y-01093*
X-0094*
X-00935Y-01101*
X-00928Y-01109*
X-0092Y-01114*
X-0091Y-01116*
X-009*
X-0089Y-01114*
X-00882Y-01109*
X-00875Y-01101*
X-0087Y-01093*
X-00867Y-01083*
Y-01073*
X-0087Y-01064*
X-00875Y-01055*
X-00882Y-01048*
X-0089Y-01043*
X-009Y-0104*
X-0091*
X-0092Y-01043*
X-00928Y-01048*
X-00935Y-01055*
X-0094Y-01063*
X-0097*
X-00975Y-01055*
X-00982Y-01048*
X-0099Y-01043*
X-01Y-0104*
X-0101*
X-01019Y-01043*
X-01064Y-00998*
Y-00759*
X-01019Y-00714*
X-0101Y-00716*
X-01*
X-0099Y-00714*
X-00982Y-00709*
X-00975Y-00701*
X-0097Y-00693*
X-0094*
X-00935Y-00701*
X-00928Y-00709*
X-0092Y-00714*
X-0091Y-00716*
X-009*
X-0089Y-00714*
X-00882Y-00709*
X-00875Y-00701*
X-0087Y-00693*
X-00867Y-00683*
Y-00673*
X-0087Y-00664*
X-00875Y-00655*
X-00882Y-00648*
X-0089Y-00643*
X-009Y-0064*
G37*
G36*
Y-0074D02*
X-0091D01*
X-0092Y-00743*
X-00928Y-00748*
X-00935Y-00755*
X-0094Y-00764*
X-00943Y-00773*
Y-00783*
X-0094Y-00793*
X-00935Y-00801*
X-00928Y-00809*
X-0092Y-00814*
X-0091Y-00816*
X-009*
X-0089Y-00814*
X-00882Y-00809*
X-00875Y-00801*
X-0087Y-00793*
X-00867Y-00783*
Y-00773*
X-0087Y-00764*
X-00875Y-00755*
X-00882Y-00748*
X-0089Y-00743*
X-009Y-0074*
G37*
G36*
X-01D02*
X-0101D01*
X-0102Y-00743*
X-01028Y-00748*
X-01035Y-00755*
X-0104Y-00764*
X-01043Y-00773*
Y-00783*
X-0104Y-00793*
X-01035Y-00801*
X-01028Y-00809*
X-0102Y-00814*
X-0101Y-00816*
X-01*
X-0099Y-00814*
X-00982Y-00809*
X-00975Y-00801*
X-0097Y-00793*
X-00967Y-00783*
Y-00773*
X-0097Y-00764*
X-00975Y-00755*
X-00982Y-00748*
X-0099Y-00743*
X-01Y-0074*
G37*
G36*
X-009Y-0114D02*
X-0091D01*
X-0092Y-01143*
X-00928Y-01148*
X-00935Y-01155*
X-0094Y-01164*
X-00943Y-01173*
Y-01183*
X-0094Y-01193*
X-00935Y-01201*
X-00928Y-01209*
X-0092Y-01214*
X-0091Y-01216*
X-009*
X-0089Y-01214*
X-00882Y-01209*
X-00875Y-01201*
X-0087Y-01193*
X-00867Y-01183*
Y-01173*
X-0087Y-01164*
X-00875Y-01155*
X-00882Y-01148*
X-0089Y-01143*
X-009Y-0114*
G37*
G36*
X-01D02*
X-0101D01*
X-0102Y-01143*
X-01028Y-01148*
X-01035Y-01155*
X-0104Y-01164*
X-01043Y-01173*
Y-01183*
X-0104Y-01193*
X-01035Y-01201*
X-01028Y-01209*
X-0102Y-01214*
X-0101Y-01216*
X-01*
X-0099Y-01214*
X-00982Y-01209*
X-00975Y-01201*
X-0097Y-01193*
X-00967Y-01183*
Y-01173*
X-0097Y-01164*
X-00975Y-01155*
X-00982Y-01148*
X-0099Y-01143*
X-01Y-0114*
G37*
G36*
X-009Y-0124D02*
X-0091D01*
X-0092Y-01243*
X-00928Y-01248*
X-00935Y-01255*
X-0094Y-01263*
X-0097*
X-00975Y-01255*
X-00982Y-01248*
X-0099Y-01243*
X-01Y-0124*
X-0101*
X-0102Y-01243*
X-01028Y-01248*
X-01035Y-01255*
X-0104Y-01264*
X-01043Y-01273*
Y-01283*
X-0104Y-01293*
X-01035Y-01301*
X-01028Y-01309*
X-0102Y-01314*
X-0101Y-01316*
X-01*
X-0099Y-01314*
X-00982Y-01309*
X-00975Y-01301*
X-0097Y-01293*
X-0094*
X-00935Y-01301*
X-00928Y-01309*
X-0092Y-01314*
X-0091Y-01316*
X-009*
X-0089Y-01314*
X-00889Y-01312*
X-00634Y-01567*
Y-0158*
X-00632Y-01586*
X-00629Y-01591*
X-00624Y-01595*
X-00618Y-01596*
X-00602*
X-00596Y-01595*
X-00591Y-01591*
X-00587Y-01586*
X-00586Y-0158*
Y-01556*
X-00587Y-0155*
X-00591Y-01545*
X-00596Y-01541*
X-00602Y-0154*
X-00618*
X-00618Y-0154*
X-00869Y-0129*
X-00867Y-01283*
Y-01273*
X-0087Y-01264*
X-00875Y-01255*
X-00882Y-01248*
X-0089Y-01243*
X-009Y-0124*
G37*
G36*
X-00066Y-01363D02*
X-00071D01*
Y-01386*
X-00044*
Y-01385*
X-00046Y-01376*
X-00051Y-01369*
X-00058Y-01364*
X-00066Y-01363*
G37*
G36*
X-00085D02*
X-0009D01*
X-00099Y-01364*
X-00106Y-01369*
X-0011Y-01376*
X-00112Y-01385*
Y-01386*
X-00085*
Y-01363*
G37*
G36*
X-009Y-0134D02*
X-0091D01*
X-0092Y-01343*
X-00928Y-01348*
X-00935Y-01355*
X-0094Y-01364*
X-00943Y-01373*
Y-01383*
X-0094Y-01393*
X-00935Y-01401*
X-00928Y-01409*
X-0092Y-01414*
X-0091Y-01416*
X-009*
X-0089Y-01414*
X-00882Y-01409*
X-00875Y-01401*
X-0087Y-01393*
X-00867Y-01383*
Y-01373*
X-0087Y-01364*
X-00875Y-01355*
X-00882Y-01348*
X-0089Y-01343*
X-009Y-0134*
G37*
G36*
X-00044Y-014D02*
X-00071D01*
Y-01423*
X-00066*
X-00058Y-01421*
X-00051Y-01416*
X-00046Y-01409*
X-00044Y-01401*
Y-014*
G37*
G36*
X-00085D02*
X-00112D01*
Y-01401*
X-0011Y-01409*
X-00106Y-01416*
X-00099Y-01421*
X-0009Y-01423*
X-00085*
Y-014*
G37*
G36*
X-01082Y-01245D02*
X-01106D01*
X-01112Y-01246*
X-01117Y-0125*
X-01121Y-01255*
X-01122Y-01261*
Y-01277*
X-01121Y-01283*
X-01117Y-01288*
X-01112Y-01292*
X-01109Y-01292*
Y-01353*
X-01108Y-01358*
X-01105Y-01363*
X-01027Y-01441*
X-01026Y-01442*
X-01026Y-01447*
X-01028Y-01448*
X-01035Y-01455*
X-0104Y-01464*
X-01043Y-01473*
Y-01483*
X-0104Y-01493*
X-01035Y-01501*
X-01028Y-01509*
X-0102Y-01514*
X-0101Y-01516*
X-01*
X-0099Y-01514*
X-00982Y-01509*
X-00975Y-01501*
X-0097Y-01493*
X-00967Y-01483*
Y-01473*
X-0097Y-01464*
X-00975Y-01455*
X-00979Y-01451*
X-00977Y-01446*
X-00959*
X-0094Y-01464*
X-00943Y-01473*
Y-01483*
X-0094Y-01493*
X-00935Y-01501*
X-00928Y-01509*
X-0092Y-01514*
X-0091Y-01516*
X-009*
X-0089Y-01514*
X-00882Y-01509*
X-00875Y-01501*
X-0087Y-01493*
X-00867Y-01483*
Y-01473*
X-0087Y-01464*
X-00875Y-01455*
X-00882Y-01448*
X-0089Y-01443*
X-009Y-0144*
X-0091*
X-00919Y-01443*
X-00942Y-0142*
X-00947Y-01417*
X-00953Y-01416*
X-00984*
X-00985Y-01411*
X-00982Y-01409*
X-00975Y-01401*
X-0097Y-01393*
X-00967Y-01383*
Y-01373*
X-0097Y-01364*
X-00975Y-01355*
X-00982Y-01348*
X-0099Y-01343*
X-01Y-0134*
X-0101*
X-0102Y-01343*
X-01028Y-01348*
X-01035Y-01355*
X-0104Y-01364*
X-01043Y-01373*
Y-01376*
X-01048Y-01378*
X-01079Y-01346*
Y-01292*
X-01076Y-01292*
X-01071Y-01288*
X-01067Y-01283*
X-01066Y-01277*
Y-01261*
X-01067Y-01255*
X-01071Y-0125*
X-01076Y-01246*
X-01082Y-01245*
G37*
G36*
X-00126Y-01475D02*
X-00175D01*
X-00224*
X-00221Y-01487*
X-00215Y-01498*
X-00205Y-01507*
X-00204Y-01508*
X-00205Y-01513*
X-00215Y-01513*
Y-0154*
X-00211Y-01544*
X-00211Y-01544*
X-00216Y-01551*
X-00216Y-01553*
X-00523*
X-00524Y-0155*
X-00528Y-01545*
X-00533Y-01541*
X-00539Y-0154*
X-00555*
X-00561Y-01541*
X-00566Y-01545*
X-00569Y-0155*
X-00571Y-01556*
Y-0158*
X-00569Y-01586*
X-00566Y-01591*
X-00561Y-01595*
X-00555Y-01596*
X-00539*
X-00533Y-01595*
X-00528Y-01591*
X-00524Y-01586*
X-00523Y-01583*
X-00374*
Y-01938*
X-00379Y-01941*
X-00383Y-0194*
X-00399*
X-00405Y-01941*
X-0041Y-01945*
X-00414Y-0195*
X-00415Y-01953*
X-00809*
X-0087Y-01892*
X-00867Y-01883*
Y-01873*
X-0087Y-01864*
X-00875Y-01855*
X-00882Y-01848*
X-0089Y-01843*
X-009Y-0184*
X-0091*
X-0092Y-01843*
X-00928Y-01848*
X-00935Y-01855*
X-0094Y-01863*
X-0097*
X-00975Y-01855*
X-00982Y-01848*
X-0099Y-01843*
X-01Y-0184*
X-0101*
X-0102Y-01843*
X-01028Y-01848*
X-01035Y-01855*
X-0104Y-01864*
X-01043Y-01873*
Y-01883*
X-0104Y-01893*
X-01035Y-01901*
X-01028Y-01909*
X-0102Y-01913*
Y-01943*
X-01028Y-01948*
X-01035Y-01955*
X-0104Y-01964*
X-01043Y-01973*
Y-01983*
X-0104Y-01993*
X-01035Y-02001*
X-01028Y-02009*
X-0102Y-02014*
X-0101Y-02016*
X-01*
X-0099Y-02014*
X-00982Y-02009*
X-00975Y-02001*
X-0097Y-01993*
X-00967Y-01983*
Y-01973*
X-0097Y-01964*
X-00975Y-01955*
X-00982Y-01948*
X-0099Y-01943*
Y-01913*
X-00982Y-01909*
X-00975Y-01901*
X-0097Y-01893*
X-0094*
X-00935Y-01901*
X-00928Y-01909*
X-0092Y-01914*
X-0091Y-01916*
X-009*
X-00891Y-01914*
X-00826Y-01979*
X-00821Y-01982*
X-00815Y-01983*
X-00415*
X-00414Y-01986*
X-0041Y-01991*
X-00405Y-01995*
X-00399Y-01996*
X-00383*
X-00377Y-01995*
X-00373Y-01992*
X-00373Y-01992*
X-0037Y-01997*
X-00215Y-02151*
X-00216Y-02151*
X-00218Y-02162*
Y-02174*
X-00216Y-02185*
X-0021Y-02195*
X-00202Y-02203*
X-00192Y-02208*
X-00181Y-02211*
X-00169*
X-00158Y-02208*
X-00149Y-02203*
X-00141Y-02195*
X-00135Y-02185*
X-00132Y-02174*
Y-02162*
X-00135Y-02151*
X-00141Y-02141*
X-00144Y-02138*
X-00142Y-02133*
X-00129*
Y-02102*
Y-02097*
X-00128Y-02097*
X-0013Y-02097*
X-00133Y-02093*
X-00129Y-02087*
X-00126Y-02075*
X-00175*
X-00224*
X-00221Y-02087*
X-00215Y-02098*
Y-02108*
X-00219Y-0211*
X-00329Y-02*
X-00327Y-01996*
X-0032*
X-00314Y-01995*
X-00309Y-01991*
X-00306Y-01986*
X-00305Y-01983*
X-00216*
X-00216Y-01985*
X-0021Y-01995*
X-00211Y-01996*
Y-02034*
X-00215Y-02038*
X-00221Y-02049*
X-00224Y-02061*
X-00175*
X-00126*
X-00129Y-02049*
X-00136Y-02038*
X-00138Y-02035*
Y-01995*
X-00138Y-0199*
X-00135Y-01985*
X-00132Y-01974*
Y-01962*
X-00135Y-01951*
X-00141Y-01941*
X-00149Y-01933*
X-00158Y-01928*
X-00169Y-01925*
X-00181*
X-00192Y-01928*
X-00202Y-01933*
X-0021Y-01941*
X-00216Y-01951*
X-00216Y-01953*
X-00305*
X-00306Y-0195*
X-00309Y-01945*
X-00314Y-01941*
X-0032Y-0194*
X-00336*
X-00342Y-01941*
X-00343Y-01942*
X-00348Y-01939*
Y-01583*
X-00216*
X-00216Y-01585*
X-0021Y-01595*
X-00202Y-01603*
X-00192Y-01608*
X-00181Y-01611*
X-00169*
X-00158Y-01608*
X-00149Y-01603*
X-00141Y-01595*
X-00135Y-01585*
X-00132Y-01574*
Y-01562*
X-00135Y-01551*
X-00137Y-01548*
X-00134Y-01544*
X-00133*
Y-01512*
X-00144Y-01512*
X-00145Y-01509*
X-00145Y-01507*
X-00136Y-01498*
X-00129Y-01487*
X-00126Y-01475*
G37*
G36*
X-009Y-0154D02*
X-0091D01*
X-0092Y-01543*
X-00928Y-01548*
X-00935Y-01555*
X-0094Y-01564*
X-00943Y-01573*
Y-01583*
X-0094Y-01593*
X-00935Y-01601*
X-00928Y-01609*
X-0092Y-01614*
X-0091Y-01616*
X-009*
X-0089Y-01614*
X-00882Y-01609*
X-00875Y-01601*
X-0087Y-01593*
X-00867Y-01583*
Y-01573*
X-0087Y-01564*
X-00875Y-01555*
X-00882Y-01548*
X-0089Y-01543*
X-009Y-0154*
G37*
G36*
X-01D02*
X-0101D01*
X-0102Y-01543*
X-01028Y-01548*
X-01035Y-01555*
X-0104Y-01564*
X-01043Y-01573*
Y-01583*
X-0104Y-01593*
X-01035Y-01601*
X-01028Y-01609*
X-0102Y-01614*
X-0101Y-01616*
X-01*
X-0099Y-01614*
X-00982Y-01609*
X-00975Y-01601*
X-0097Y-01593*
X-00967Y-01583*
Y-01573*
X-0097Y-01564*
X-00975Y-01555*
X-00982Y-01548*
X-0099Y-01543*
X-01Y-0154*
G37*
G36*
X-00169Y-01625D02*
X-00181D01*
X-00192Y-01628*
X-00202Y-01633*
X-0021Y-01641*
X-00216Y-01651*
X-00218Y-01662*
Y-01674*
X-00216Y-01685*
X-0021Y-01695*
X-00202Y-01703*
X-00192Y-01708*
X-00181Y-01711*
X-00169*
X-00158Y-01708*
X-00149Y-01703*
X-00141Y-01695*
X-00135Y-01685*
X-00132Y-01674*
Y-01662*
X-00135Y-01651*
X-00141Y-01641*
X-00149Y-01633*
X-00158Y-01628*
X-00169Y-01625*
G37*
G36*
X-009Y-0164D02*
X-0091D01*
X-0092Y-01643*
X-00928Y-01648*
X-00935Y-01655*
X-0094Y-01664*
X-00943Y-01673*
Y-01683*
X-0094Y-01693*
X-00935Y-01701*
X-00928Y-01709*
X-0092Y-01714*
X-0091Y-01716*
X-009*
X-0089Y-01714*
X-00882Y-01709*
X-00875Y-01701*
X-0087Y-01693*
X-00867Y-01683*
Y-01673*
X-0087Y-01664*
X-00875Y-01655*
X-00882Y-01648*
X-0089Y-01643*
X-009Y-0164*
G37*
G36*
X-01D02*
X-0101D01*
X-0102Y-01643*
X-01028Y-01648*
X-01035Y-01655*
X-0104Y-01664*
X-01043Y-01673*
Y-01683*
X-0104Y-01693*
X-01035Y-01701*
X-01028Y-01709*
X-0102Y-01714*
X-0101Y-01716*
X-01*
X-0099Y-01714*
X-00982Y-01709*
X-00975Y-01701*
X-0097Y-01693*
X-00967Y-01683*
Y-01673*
X-0097Y-01664*
X-00975Y-01655*
X-00982Y-01648*
X-0099Y-01643*
X-01Y-0164*
G37*
G36*
X-00169Y-01725D02*
X-00181D01*
X-00192Y-01728*
X-00202Y-01733*
X-0021Y-01741*
X-00216Y-01751*
X-00218Y-01762*
Y-01774*
X-00216Y-01785*
X-0021Y-01795*
X-00202Y-01803*
X-00192Y-01808*
X-00181Y-01811*
X-00169*
X-00158Y-01808*
X-00149Y-01803*
X-00141Y-01795*
X-00135Y-01785*
X-00132Y-01774*
Y-01762*
X-00135Y-01751*
X-00141Y-01741*
X-00149Y-01733*
X-00158Y-01728*
X-00169Y-01725*
G37*
G36*
X-009Y-0174D02*
X-0091D01*
X-0092Y-01743*
X-00928Y-01748*
X-00935Y-01755*
X-0094Y-01764*
X-00943Y-01773*
Y-01783*
X-0094Y-01793*
X-00935Y-01801*
X-00928Y-01809*
X-0092Y-01814*
X-0091Y-01816*
X-009*
X-0089Y-01814*
X-00882Y-01809*
X-00875Y-01801*
X-0087Y-01793*
X-00867Y-01783*
Y-01773*
X-0087Y-01764*
X-00875Y-01755*
X-00882Y-01748*
X-0089Y-01743*
X-009Y-0174*
G37*
G36*
X-01D02*
X-0101D01*
X-0102Y-01743*
X-01028Y-01748*
X-01035Y-01755*
X-0104Y-01764*
X-01043Y-01773*
Y-01783*
X-0104Y-01793*
X-01035Y-01801*
X-01028Y-01809*
X-0102Y-01814*
X-0101Y-01816*
X-01*
X-0099Y-01814*
X-00982Y-01809*
X-00975Y-01801*
X-0097Y-01793*
X-00967Y-01783*
Y-01773*
X-0097Y-01764*
X-00975Y-01755*
X-00982Y-01748*
X-0099Y-01743*
X-01Y-0174*
G37*
G36*
X-00169Y-01825D02*
X-00181D01*
X-00192Y-01828*
X-00202Y-01833*
X-0021Y-01841*
X-00216Y-01851*
X-00218Y-01862*
Y-01874*
X-00216Y-01885*
X-0021Y-01895*
X-00202Y-01903*
X-00192Y-01908*
X-00181Y-01911*
X-00169*
X-00158Y-01908*
X-00149Y-01903*
X-00141Y-01895*
X-00135Y-01885*
X-00132Y-01874*
Y-01862*
X-00135Y-01851*
X-00141Y-01841*
X-00149Y-01833*
X-00158Y-01828*
X-00169Y-01825*
G37*
G36*
X-009Y-0194D02*
X-0091D01*
X-0092Y-01943*
X-00928Y-01948*
X-00935Y-01955*
X-0094Y-01964*
X-00943Y-01973*
Y-01983*
X-0094Y-01993*
X-00935Y-02001*
X-00928Y-02009*
X-0092Y-02014*
X-0091Y-02016*
X-009*
X-00891Y-02014*
X-00875Y-02029*
Y-02048*
X-0088Y-0205*
X-00882Y-02048*
X-0089Y-02043*
X-009Y-0204*
X-0091*
X-0092Y-02043*
X-00928Y-02048*
X-00935Y-02055*
X-0094Y-02064*
X-00943Y-02073*
Y-02083*
X-0094Y-02093*
X-00935Y-02101*
X-00928Y-02109*
X-0092Y-02114*
X-0091Y-02116*
X-009*
X-0089Y-02114*
X-00882Y-02109*
X-0088Y-02107*
X-00875Y-02109*
Y-02148*
X-0088Y-0215*
X-00882Y-02148*
X-0089Y-02143*
X-009Y-0214*
X-0091*
X-0092Y-02143*
X-00928Y-02148*
X-00935Y-02155*
X-0094Y-02164*
X-00943Y-02173*
Y-02183*
X-0094Y-02193*
X-00935Y-02201*
X-00928Y-02209*
X-0092Y-02214*
X-0091Y-02216*
X-009*
X-0089Y-02214*
X-00882Y-02209*
X-0088Y-02207*
X-00875Y-02209*
Y-02248*
X-0088Y-0225*
X-00882Y-02248*
X-0089Y-02243*
X-009Y-0224*
X-0091*
X-0092Y-02243*
X-00928Y-02248*
X-00935Y-02255*
X-0094Y-02264*
X-00943Y-02273*
Y-02283*
X-0094Y-02293*
X-00935Y-02301*
X-00928Y-02309*
X-0092Y-02314*
X-0091Y-02316*
X-009*
X-0089Y-02314*
X-00882Y-02309*
X-0088Y-02307*
X-00875Y-02309*
Y-02348*
X-0088Y-0235*
X-00882Y-02348*
X-0089Y-02343*
X-009Y-0234*
X-0091*
X-0092Y-02343*
X-00928Y-02348*
X-00935Y-02355*
X-0094Y-02364*
X-00943Y-02373*
Y-02383*
X-0094Y-02393*
X-00935Y-02401*
X-00928Y-02409*
X-0092Y-02414*
X-0091Y-02416*
X-009*
X-0089Y-02414*
X-00882Y-02409*
X-0088Y-02407*
X-00875Y-02409*
Y-02448*
X-0088Y-0245*
X-00882Y-02448*
X-0089Y-02443*
X-009Y-0244*
X-0091*
X-0092Y-02443*
X-00928Y-02448*
X-00935Y-02455*
X-0094Y-02464*
X-00943Y-02473*
Y-02483*
X-0094Y-02493*
X-00935Y-02501*
X-00928Y-02509*
X-0092Y-02514*
X-0091Y-02516*
X-009*
X-0089Y-02514*
X-00882Y-02509*
X-0088Y-02507*
X-00875Y-02509*
Y-02548*
X-0088Y-0255*
X-00882Y-02548*
X-0089Y-02543*
X-009Y-0254*
X-0091*
X-0092Y-02543*
X-00928Y-02548*
X-00935Y-02555*
X-0094Y-02564*
X-00943Y-02573*
Y-02583*
X-0094Y-02593*
X-00935Y-02601*
X-00928Y-02609*
X-0092Y-02614*
X-0091Y-02616*
X-009*
X-0089Y-02614*
X-00882Y-02609*
X-0088Y-02607*
X-00875Y-02609*
Y-02627*
X-00891Y-02643*
X-009Y-0264*
X-0091*
X-0092Y-02643*
X-00928Y-02648*
X-00935Y-02655*
X-0094Y-02664*
X-00943Y-02673*
Y-02683*
X-0094Y-02693*
X-00935Y-02701*
X-00928Y-02709*
X-0092Y-02714*
X-0091Y-02716*
X-009*
X-0089Y-02714*
X-00882Y-02709*
X-00875Y-02701*
X-0087Y-02693*
X-00867Y-02683*
Y-02673*
X-0087Y-02664*
X-0085Y-02644*
X-00846Y-02639*
X-00845Y-02633*
Y-02023*
X-00846Y-02017*
X-0085Y-02012*
X-0087Y-01992*
X-00867Y-01983*
Y-01973*
X-0087Y-01964*
X-00875Y-01955*
X-00882Y-01948*
X-0089Y-01943*
X-009Y-0194*
G37*
G36*
X-01Y-0204D02*
X-0101D01*
X-0102Y-02043*
X-01028Y-02048*
X-01035Y-02055*
X-0104Y-02064*
X-01043Y-02073*
Y-02083*
X-0104Y-02093*
X-01035Y-02101*
X-01028Y-02109*
X-0102Y-02114*
X-0101Y-02116*
X-01*
X-0099Y-02114*
X-00982Y-02109*
X-00975Y-02101*
X-0097Y-02093*
X-00967Y-02083*
Y-02073*
X-0097Y-02064*
X-00975Y-02055*
X-00982Y-02048*
X-0099Y-02043*
X-01Y-0204*
G37*
G36*
Y-0214D02*
X-0101D01*
X-0102Y-02143*
X-01028Y-02148*
X-01035Y-02155*
X-0104Y-02164*
X-01043Y-02173*
Y-02183*
X-0104Y-02193*
X-01035Y-02201*
X-01028Y-02209*
X-0102Y-02214*
X-0101Y-02216*
X-01*
X-0099Y-02214*
X-00982Y-02209*
X-00975Y-02201*
X-0097Y-02193*
X-00967Y-02183*
Y-02173*
X-0097Y-02164*
X-00975Y-02155*
X-00982Y-02148*
X-0099Y-02143*
X-01Y-0214*
G37*
G36*
Y-0224D02*
X-0101D01*
X-0102Y-02243*
X-01028Y-02248*
X-01035Y-02255*
X-0104Y-02264*
X-01043Y-02273*
Y-02283*
X-0104Y-02293*
X-01035Y-02301*
X-01028Y-02309*
X-0102Y-02314*
X-0101Y-02316*
X-01*
X-0099Y-02314*
X-00982Y-02309*
X-00975Y-02301*
X-0097Y-02293*
X-00967Y-02283*
Y-02273*
X-0097Y-02264*
X-00975Y-02255*
X-00982Y-02248*
X-0099Y-02243*
X-01Y-0224*
G37*
G36*
Y-0234D02*
X-0101D01*
X-0102Y-02343*
X-01028Y-02348*
X-01035Y-02355*
X-0104Y-02364*
X-01043Y-02373*
Y-02383*
X-0104Y-02393*
X-01035Y-02401*
X-01028Y-02409*
X-0102Y-02414*
X-0101Y-02416*
X-01*
X-0099Y-02414*
X-00982Y-02409*
X-00975Y-02401*
X-0097Y-02393*
X-00967Y-02383*
Y-02373*
X-0097Y-02364*
X-00975Y-02355*
X-00982Y-02348*
X-0099Y-02343*
X-01Y-0234*
G37*
G36*
Y-0244D02*
X-0101D01*
X-0102Y-02443*
X-01028Y-02448*
X-01035Y-02455*
X-0104Y-02464*
X-01043Y-02473*
Y-02483*
X-0104Y-02493*
X-01035Y-02501*
X-01028Y-02509*
X-0102Y-02514*
X-0101Y-02516*
X-01*
X-0099Y-02514*
X-00982Y-02509*
X-00975Y-02501*
X-0097Y-02493*
X-00967Y-02483*
Y-02473*
X-0097Y-02464*
X-00975Y-02455*
X-00982Y-02448*
X-0099Y-02443*
X-01Y-0244*
G37*
G36*
X-00579Y-02575D02*
X-0058D01*
X-00589Y-02577*
X-00596Y-02582*
X-00596Y-02583*
X-00621*
X-00627Y-02581*
X-00643*
X-00649Y-02583*
X-00655Y-02586*
X-00658Y-02591*
X-00659Y-02596*
X-00669*
X-00669Y-02592*
X-00672Y-02589*
X-00676Y-02586*
X-0068Y-02585*
X-00705*
X-00706Y-02584*
X-00707Y-02578*
X-00739*
X-00736Y-02581*
X-00739Y-02585*
X-00739Y-02585*
X-00764*
X-00768Y-02586*
X-00772Y-02589*
X-00774Y-02592*
X-00775Y-02597*
Y-02614*
X-00853Y-02692*
X-00856Y-02696*
X-00857Y-02701*
Y-02711*
X-00889Y-02744*
X-0089Y-02743*
X-009Y-0274*
X-0091*
X-0092Y-02743*
X-00928Y-02748*
X-00935Y-02755*
X-0094Y-02764*
X-00943Y-02773*
Y-02783*
X-0094Y-02793*
X-00935Y-02801*
X-00928Y-02809*
X-0092Y-02814*
X-00914Y-02815*
X-00915Y-0282*
X-0096*
X-00965Y-02821*
X-00969Y-02824*
X-00989Y-02844*
X-0099Y-02843*
X-01Y-0284*
X-0101*
X-0102Y-02843*
X-01028Y-02848*
X-01035Y-02855*
X-0104Y-02864*
X-01043Y-02873*
Y-02883*
X-0104Y-02893*
X-01035Y-02901*
X-01028Y-02909*
X-0102Y-02914*
X-0101Y-02916*
X-01*
X-0099Y-02914*
X-00982Y-02909*
X-00975Y-02901*
X-0097Y-02893*
X-00967Y-02883*
Y-02873*
X-0097Y-02864*
X-0097Y-02862*
X-00954Y-02846*
X-00934*
X-00932Y-02851*
X-00935Y-02855*
X-0094Y-02864*
X-00943Y-02873*
Y-02883*
X-0094Y-02893*
X-00935Y-02901*
X-00928Y-02909*
X-0092Y-02914*
X-0091Y-02916*
X-009*
X-0089Y-02914*
X-00882Y-02909*
X-00875Y-02901*
X-0087Y-02893*
X-00867Y-02883*
Y-02873*
X-0087Y-02864*
X-00753Y-02747*
X-00749Y-02742*
X-00748Y-02737*
Y-02736*
X-00739*
X-00735Y-02735*
X-00709*
X-00705Y-02736*
X-0068*
X-00676Y-02735*
X-00672Y-02733*
X-00669Y-02729*
X-00669Y-02725*
X-00659*
X-00658Y-0273*
X-00655Y-02735*
X-00649Y-02739*
X-00643Y-0274*
X-00627*
X-00623Y-02744*
X-00589*
X-0058Y-02746*
X-00579*
Y-02712*
X-00572*
Y-02705*
X-00542*
Y-027*
X-00544Y-02692*
X-00548Y-02686*
X-00544Y-0268*
X-00542Y-02672*
Y-02667*
X-00572*
Y-02653*
X-00542*
Y-02648*
X-00544Y-0264*
X-00547Y-02635*
X-00544Y-02629*
X-00542Y-02621*
Y-02616*
X-00572*
Y-02609*
X-00579*
Y-02575*
G37*
G36*
X-00564D02*
X-00565D01*
Y-02602*
X-00542*
Y-02597*
X-00544Y-02589*
X-00549Y-02582*
X-00556Y-02577*
X-00564Y-02575*
G37*
G36*
X-01Y-0254D02*
X-0101D01*
X-0102Y-02543*
X-01028Y-02548*
X-01035Y-02555*
X-0104Y-02564*
X-01043Y-02573*
Y-02583*
X-0104Y-02593*
X-01035Y-02601*
X-01028Y-02609*
X-0102Y-02614*
X-0101Y-02616*
X-01*
X-0099Y-02614*
X-00982Y-02609*
X-00975Y-02601*
X-0097Y-02593*
X-00967Y-02583*
Y-02573*
X-0097Y-02564*
X-00975Y-02555*
X-00982Y-02548*
X-0099Y-02543*
X-01Y-0254*
G37*
G36*
Y-0264D02*
X-0101D01*
X-0102Y-02643*
X-01028Y-02648*
X-01035Y-02655*
X-0104Y-02664*
X-01043Y-02673*
Y-02683*
X-0104Y-02693*
X-01035Y-02701*
X-01028Y-02709*
X-0102Y-02714*
X-0101Y-02716*
X-01*
X-0099Y-02714*
X-00982Y-02709*
X-00975Y-02701*
X-0097Y-02693*
X-00967Y-02683*
Y-02673*
X-0097Y-02664*
X-00975Y-02655*
X-00982Y-02648*
X-0099Y-02643*
X-01Y-0264*
G37*
G36*
X-00542Y-02719D02*
X-00565D01*
Y-02746*
X-00564*
X-00556Y-02744*
X-00549Y-0274*
X-00544Y-02732*
X-00542Y-02724*
Y-02719*
G37*
G36*
X-01Y-0274D02*
X-0101D01*
X-0102Y-02743*
X-01028Y-02748*
X-01035Y-02755*
X-0104Y-02764*
X-01043Y-02773*
Y-02783*
X-0104Y-02793*
X-01035Y-02801*
X-01028Y-02809*
X-0102Y-02814*
X-0101Y-02816*
X-01*
X-0099Y-02814*
X-00982Y-02809*
X-00975Y-02801*
X-0097Y-02793*
X-00967Y-02783*
Y-02773*
X-0097Y-02764*
X-00975Y-02755*
X-00982Y-02748*
X-0099Y-02743*
X-01Y-0274*
G37*
G36*
X-00678Y-02777D02*
X-0068D01*
Y-02883*
X-00575*
Y-02881*
X-00578Y-02863*
X-00583Y-02847*
X-00591Y-02831*
X-00602Y-02817*
X-00614Y-02804*
X-00628Y-02794*
X-00644Y-02786*
X-00661Y-0278*
X-00678Y-02777*
G37*
G36*
X-00694D02*
X-00696D01*
X-00713Y-0278*
X-0073Y-02786*
X-00746Y-02794*
X-0076Y-02804*
X-00773Y-02817*
X-00783Y-02831*
X-00791Y-02847*
X-00797Y-02863*
X-00799Y-02881*
Y-02883*
X-00694*
Y-02777*
G37*
G36*
X-00575Y-02897D02*
X-0068D01*
Y-03002*
X-00678*
X-00661Y-02999*
X-00644Y-02994*
X-00628Y-02986*
X-00614Y-02975*
X-00602Y-02963*
X-00591Y-02948*
X-00583Y-02933*
X-00578Y-02916*
X-00575Y-02898*
Y-02897*
G37*
G36*
X-00694D02*
X-00799D01*
Y-02898*
X-00797Y-02916*
X-00791Y-02933*
X-00783Y-02948*
X-00773Y-02963*
X-0076Y-02975*
X-00746Y-02986*
X-0073Y-02994*
X-00713Y-02999*
X-00696Y-03002*
X-00694*
Y-02897*
G37*
G36*
X-00944Y-02978D02*
X-00946D01*
Y-03079*
X-00845*
Y-03078*
X-00847Y-03061*
X-00853Y-03044*
X-0086Y-03029*
X-0087Y-03016*
X-00882Y-03003*
X-00896Y-02993*
X-00911Y-02986*
X-00928Y-0298*
X-00944Y-02978*
G37*
G36*
X-0096D02*
X-00961D01*
X-00978Y-0298*
X-00995Y-02986*
X-0101Y-02993*
X-01023Y-03003*
X-01036Y-03016*
X-01046Y-03029*
X-01053Y-03044*
X-01059Y-03061*
X-01061Y-03078*
Y-03079*
X-0096*
Y-02978*
G37*
G36*
X-00845Y-03093D02*
X-00946D01*
Y-03194*
X-00944*
X-00928Y-03192*
X-00911Y-03186*
X-00896Y-03179*
X-00882Y-03169*
X-0087Y-03157*
X-0086Y-03143*
X-00853Y-03128*
X-00847Y-03111*
X-00845Y-03095*
Y-03093*
G37*
G36*
X-0096D02*
X-01061D01*
Y-03095*
X-01059Y-03111*
X-01053Y-03128*
X-01046Y-03143*
X-01036Y-03157*
X-01023Y-03169*
X-0101Y-03179*
X-00995Y-03186*
X-00978Y-03192*
X-00961Y-03194*
X-0096*
Y-03093*
G37*
%LNmicrophonearray.main-3*%
%LPD*%
G36*
X-00792Y-002D02*
Y-00528D01*
X-00793Y-00538*
Y-00555*
X-00792Y-00565*
Y-00754*
X-00492Y-01054*
Y-01118*
Y-01123*
X-00568*
X-00569Y-01122*
X-0057Y-01116*
X-00574Y-01111*
X-00628Y-01056*
Y-01055*
X-00846Y-00838*
Y-00477*
X-00881Y-00441*
Y-00438*
X-01033*
X-01042Y-0043*
X-01041Y-00429*
Y-00414*
X-01036Y-00409*
X-01032Y-00413*
X-01032Y-00413*
X-01022Y-00419*
X-01012Y-00422*
Y-00378*
Y-00335*
X-01022Y-00337*
X-01032Y-00343*
X-01035Y-00346*
X-0104Y-00346*
X-01041Y-00345*
Y-00311*
X-01036Y-00309*
X-01032Y-00313*
X-01022Y-00319*
X-01012Y-00322*
Y-00278*
X-01005*
Y-00271*
X-00962*
X-00964Y-00261*
X-0097Y-00251*
X-00978Y-00243*
X-00988Y-00237*
X-00998Y-00235*
X-00999Y-00231*
X-00999Y-0023*
X-00992Y-00227*
X-00953Y-00171*
X-00949Y-00172*
Y-00184*
X-00946Y-00195*
X-0094Y-00205*
X-00932Y-00213*
X-00922Y-00219*
X-00912Y-00222*
Y-00178*
X-00905*
Y-00171*
X-00862*
X-00864Y-00161*
X-0087Y-00151*
X-00878Y-00143*
X-00888Y-00137*
X-00889Y-00137*
X-00889Y-00132*
X-00866Y-00126*
X-00792Y-002*
G37*
G36*
X-00061Y-01212D02*
Y-01297D01*
X-00064Y-013*
X-00066Y-013*
X-00071*
Y-0133*
X-00078*
Y-01337*
X-00112*
Y-01338*
X-00111Y-01345*
X-00113Y-0135*
X-00124*
X-00143Y-0133*
Y-01308*
X-00141Y-01304*
X-00136Y-01298*
X-00129Y-01287*
X-00126Y-01275*
X-00175*
X-00224*
X-00221Y-01287*
X-00215Y-01298*
X-00205Y-01307*
X-00205Y-01308*
Y-01312*
X-00445*
X-00496Y-01262*
Y-01199*
X-00492Y-01196*
X-0049Y-01197*
X-00489Y-01197*
X-00481Y-01199*
X-0048*
Y-01165*
X-00473*
Y-01158*
X-00443*
Y-01153*
X-00445Y-01145*
X-00447Y-01141*
X-00444Y-01136*
X-00136*
X-00061Y-01212*
G37*
%LNmicrophonearray.main-4*%
%LPC*%
G36*
X-00862Y-00185D02*
X-00898D01*
Y-00222*
X-00888Y-00219*
X-00878Y-00213*
X-0087Y-00205*
X-00864Y-00195*
X-00862Y-00185*
G37*
G36*
X-009Y-0024D02*
X-0091D01*
X-0092Y-00243*
X-00928Y-00248*
X-00935Y-00255*
X-0094Y-00264*
X-00943Y-00273*
Y-00283*
X-0094Y-00293*
X-00935Y-00301*
X-00928Y-00309*
X-0092Y-00314*
X-0091Y-00316*
X-009*
X-0089Y-00314*
X-00882Y-00309*
X-00875Y-00301*
X-0087Y-00293*
X-00867Y-00283*
Y-00273*
X-0087Y-00264*
X-00875Y-00255*
X-00882Y-00248*
X-0089Y-00243*
X-009Y-0024*
G37*
G36*
X-00962Y-00285D02*
X-00998D01*
Y-00322*
X-00988Y-00319*
X-00978Y-00313*
X-0097Y-00305*
X-00964Y-00295*
X-00962Y-00285*
G37*
G36*
X-00998Y-00335D02*
Y-00371D01*
X-00962*
X-00964Y-00361*
X-0097Y-00351*
X-00978Y-00343*
X-00988Y-00337*
X-00998Y-00335*
G37*
G36*
X-009Y-0034D02*
X-0091D01*
X-0092Y-00343*
X-00928Y-00348*
X-00935Y-00355*
X-0094Y-00364*
X-00943Y-00373*
Y-00383*
X-0094Y-00393*
X-00935Y-00401*
X-00928Y-00409*
X-0092Y-00414*
X-0091Y-00416*
X-009*
X-0089Y-00414*
X-00882Y-00409*
X-00875Y-00401*
X-0087Y-00393*
X-00867Y-00383*
Y-00373*
X-0087Y-00364*
X-00875Y-00355*
X-00882Y-00348*
X-0089Y-00343*
X-009Y-0034*
G37*
G36*
X-00962Y-00385D02*
X-00998D01*
Y-00422*
X-00988Y-00419*
X-00978Y-00413*
X-0097Y-00405*
X-00964Y-00395*
X-00962Y-00385*
G37*
G36*
X-00443Y-01172D02*
X-00466D01*
Y-01199*
X-00465*
X-00457Y-01197*
X-00449Y-01192*
X-00445Y-01185*
X-00443Y-01177*
Y-01172*
G37*
G36*
X-00168Y-01219D02*
Y-01261D01*
X-00126*
X-00129Y-01249*
X-00136Y-01238*
X-00145Y-01229*
X-00156Y-01222*
X-00168Y-01219*
G37*
G36*
X-00182D02*
X-00194Y-01222D01*
X-00205Y-01229*
X-00215Y-01238*
X-00221Y-01249*
X-00224Y-01261*
X-00182*
Y-01219*
G37*
G36*
X-00085Y-013D02*
X-0009D01*
X-00099Y-01301*
X-00106Y-01306*
X-0011Y-01313*
X-00112Y-01322*
Y-01323*
X-00085*
Y-013*
G37*
%LNmicrophonearray.main-5*%
%LPD*%
G54D12*
X-00361Y-01568D02*
X-00361Y-01568D01*
X-00953Y-03086D02*
X-00918D01*
X-00361Y-01987D02*
Y-01568D01*
X-00905Y-02778D02*
X-00844Y-02717D01*
Y-02701*
X-00751Y-02609*
X-00836Y-02744D02*
X-00751Y-0266D01*
X-00836Y-02772D02*
Y-02744D01*
X-00897Y-02833D02*
X-00836Y-02772D01*
X-0096Y-02833D02*
X-00897D01*
X-01005Y-02878D02*
X-0096Y-02833D01*
X-0018Y-02168D02*
X-00175D01*
X-00361Y-01987D02*
X-0018Y-02168D01*
X-00572Y-0266D02*
Y-02609D01*
X-00664Y-0266D02*
X-00635D01*
X-00664Y-0266D02*
Y-0266D01*
X-00692Y-0266D02*
X-00664D01*
X-00692Y-02712D02*
X-00635D01*
X-00692Y-02609D02*
X-00635D01*
G54D13*
X-00547Y-01568D03*
X-0061D03*
X-00572Y-0266D03*
X-00635D03*
X-00572Y-02609D03*
X-00635D03*
X-00572Y-02712D03*
X-00635D03*
X-00584Y-01321D03*
X-00521D03*
X-00473Y-01165D03*
X-00536D03*
X-00328Y-01968D03*
X-00391D03*
G54D14*
X-00751Y-02609D03*
X-00692D03*
X-00751Y-02712D03*
X-00692D03*
X-00751Y-0266D03*
X-00692D03*
G54D15*
X-01094Y-01269D03*
Y-01206D03*
X-00078Y-01393D03*
Y-0133D03*
G54D23*
X-00819Y-00779D02*
Y-00488D01*
X-00536Y-01165D02*
Y-01062D01*
X-00819Y-00779D02*
X-00536Y-01062D01*
X-01005Y-00378D02*
Y-00278D01*
X-00955Y-00428D02*
X-00879D01*
X-00819Y-00488*
X-00361Y-01568D02*
X-00175D01*
X-00547D02*
X-00361D01*
X-00175D02*
D01*
X-00901Y-01278D02*
X-0061Y-0157D01*
Y-01573D02*
Y-0157D01*
X-01005Y-01278D02*
X-00901D01*
X-00083Y-01325D02*
X-00078Y-0133D01*
X-00119Y-01325D02*
X-00083D01*
X-00399Y-01268D02*
X-00175D01*
X-00473Y-01194D02*
X-00399Y-01268D01*
X-00473Y-01194D02*
Y-01165D01*
X-00754Y-02712D02*
X-00751D01*
X-00763Y-02721D02*
X-00754Y-02712D01*
X-00763Y-02737D02*
Y-02721D01*
X-00905Y-02878D02*
X-00763Y-02737D01*
X-01005Y-01978D02*
Y-01878D01*
X-00905*
X-00815Y-01968*
X-00391*
X-01094Y-01353D02*
Y-01269D01*
Y-01353D02*
X-01016Y-01431D01*
X-00953*
X-00905Y-01478*
X-01005Y-00978D02*
X-00905D01*
X-01005Y-00878D02*
X-00955Y-00929D01*
X-00777*
X-00584Y-01122*
Y-01321D02*
Y-01122D01*
X-00905Y-02678D02*
X-0086Y-02633D01*
Y-02023*
X-00905Y-01978D02*
X-0086Y-02023D01*
X-01094Y-01206D02*
Y-01167D01*
X-01005Y-01078*
X-00905*
X-01079Y-01004D02*
X-01005Y-01078D01*
X-01079Y-01004D02*
Y-00752D01*
X-01005Y-00678*
X-00905*
X-00328Y-01968D02*
D01*
X-00175*
X-00521Y-01321D02*
X-00475Y-01368D01*
X-00175*
G54D24*
X-00175Y-01268D03*
Y-02068D03*
Y-01368D03*
Y-01468D03*
Y-01568D03*
Y-01668D03*
Y-01768D03*
Y-01868D03*
Y-01968D03*
Y-02168D03*
G54D25*
X-00687Y-00546D03*
Y-0289D03*
G54D26*
X-00905Y-02778D03*
X-01005Y-00178D03*
Y-00278D03*
Y-00378D03*
Y-00478D03*
Y-00578D03*
Y-00678D03*
Y-00778D03*
Y-00878D03*
Y-00978D03*
Y-01078D03*
Y-01178D03*
Y-01278D03*
Y-01378D03*
Y-01478D03*
Y-01578D03*
Y-01678D03*
Y-01778D03*
Y-01878D03*
Y-01978D03*
Y-02078D03*
Y-02178D03*
Y-02278D03*
Y-02378D03*
Y-02478D03*
Y-02578D03*
Y-02678D03*
Y-02778D03*
X-00905Y-00178D03*
Y-00278D03*
Y-00378D03*
Y-00478D03*
Y-00578D03*
Y-00678D03*
Y-00778D03*
Y-00878D03*
Y-00978D03*
Y-01078D03*
Y-01178D03*
Y-01278D03*
Y-01378D03*
Y-01478D03*
Y-01578D03*
Y-01678D03*
Y-01778D03*
Y-01878D03*
Y-01978D03*
Y-02078D03*
Y-02178D03*
Y-02278D03*
Y-02378D03*
Y-02478D03*
Y-02578D03*
Y-02678D03*
X-01005Y-02878D03*
X-00905D03*
X-01005Y-00078D03*
X-00905D03*
G54D27*
X-01417Y-00157D03*
X-00953Y-03086D03*
M02*