M48
;Layer_Color=9474304
;FILE_FORMAT=4:4
METRIC,LZ
;TYPE=PLATED
T1F00S00C0.3000
T2F00S00C1.0000
T3F00S00C1.0200
T4F00S00C3.2000
T5F00S00C4.0000
%
T01
X-0035Y-0079
X-003
X-0025
X-002
X-00175Y-0074
X-00125
X-001Y-0069
X-0015
X-002
X-0025
X-003
X-0035
X-00325Y-0064
X-00275
X-00225
X-00175
X-00125
X-001Y-0059
X-0015
X-002
X-0025
Y-00548764
X-0023825Y-005345
X-00238792Y-00520138
X-0023447Y-0051205
X-0025525Y-00511493
X-00250406Y-00522427
X-002775Y-00521
X-00275Y-0054
X-002655Y-005
Y-00483297
X-00282Y-004788
X-0029325Y-0048575
X-0028275Y-0049775
X-00285738Y-0046212
X-00282Y-00450071
X-0029075Y-00444751
X-00282Y-0043079
X-0026475Y-004345
Y-004492
Y-0046212
X-0024617Y-00460751
X-00242344Y-0047046
X-0024617Y-00444751
X-00242344Y-00430333
X-002455Y-004085
X-0025125Y-0039426
X-0026687Y-00385915
X-00277722Y-0038592
X-00290906Y-00385915
X-0029075Y-003745
X-00290906Y-00360211
X-00275486Y-0035594
X-0026628Y-0035621
X-0026556Y-0037037
X-0024888Y-00364285
X-00233903Y-00385915
X-002Y-0039
X-00197797Y-003603
X-00181803Y-00358062
X-0018131Y-00374054
X-0016463Y-00366791
X-00161995Y-00397341
X-00164535Y-00413138
X-0018131Y-00422054
X-0018958Y-0045887
X-00196429Y-00472686
X-00182756Y-00489367
X-00166774Y-00490127
X-00157758Y-00494524
X-00159258Y-00509775
X-00125Y-0051094
X-00111441
X-00095441
X-00091757Y-0049426
X-00107758
X-00120506Y-00491024
X-00131196Y-00479355
X-00143557Y-00473687
X-0013798Y-0045887
X-00139231Y-0044029
X-00135634Y-00413878
X-00134532Y-00397916
X-00148092Y-00389422
X-0011512Y-00377647
Y-00361647
X-001156Y-00346734
X-0009844
Y-00362733
Y-00378733
Y-00394733
Y-00410733
Y-00426733
X-00107232Y-00440101
X-0012028Y-0042012
X-00025Y-0044
X-00062766Y-00496112
X-00064737Y-0051199
X-00125Y-0054
X-00175
X-00325
X-003Y-0059
X-0035
Y-0049
X-0029075Y-0041411
Y-004026
X-00277122
X-00276982Y-0041411
X-0026556
X-00311257Y-00353282
X-00275Y-0074
X-00225
X-00025
X-0009844Y-00330733
X-0011512Y-00329647
X-0011536Y-0029542
X-0009844Y-00298734
Y-00282733
Y-00266733
X-00092345Y-0025194
X-00113527Y-00249727
X-00090997Y-00227003
X-0009725Y-00213
X-00066396Y-0023416
X-00156033Y-00220244
X-00175Y-0024
X-00225
X-00275
X-00325
X-003Y-0019
X-0025
X-002
X-0017268Y-0015282
X-00225Y-0014
X-00275
X-0025Y-0009
X-002
X-00225Y-0004
X-00275
X-00325
X-003Y-0009
X-0035
Y-0019
Y-0029
X-003
X-0025
X-0023424Y-0029961
X-0021824
X-001863Y-00298219
X-0018948Y-0031726
X-0014112Y-0031664
X-0025675Y-00339
X-00269989Y-00338629
X-0029825Y-00343965
X-0012582Y-000708
X-00025Y-0004
Y-0014
T02
X-0022697Y-0071527
X-0018844Y-0061894
X-0011027Y-0060441
X-00138882Y-00498838
X-0018764Y-0051302
X-0022462Y-005254
Y-005
Y-004746
Y-004492
Y-004238
Y-003984
Y-00373
Y-003476
X-0031135Y-0036886
X-0033675
Y-0039426
Y-0041966
Y-0044506
Y-0047046
X-0031135
Y-0044506
Y-0041966
Y-0039426
X-0014843Y-00405
X-0001731Y-0039541
X-0001761Y-0046851
X-0001913Y-0068
X-0022462Y-005508
Y-003222
X-0028093Y-0032754
X-00275Y-0029
X-0032571Y-0026011
X-0019779Y-0026063
X-001379Y-0027032
X-00019016Y-00274
X-0002288Y-0023122
X-0001624Y-0012765
X-0001875Y-00018536
X-0027152Y-0006985
T03
X-000754Y-007312
Y-007058
X-0005
Y-006804
X-000754
Y-00655
Y-006296
Y-006042
Y-005788
Y-005534
Y-00528
Y-005026
Y-004772
Y-004518
Y-004264
Y-00401
Y-003756
Y-003502
X-0005
Y-003756
Y-00401
Y-004264
Y-004518
Y-004772
Y-005026
Y-00528
Y-005534
Y-005788
Y-006042
Y-006296
Y-00655
Y-007312
Y-003248
X-000754
Y-002994
Y-00274
Y-002486
Y-002232
Y-001978
Y-001724
Y-00147
Y-001216
Y-000962
Y-000708
Y-000454
X-0005
Y-000708
Y-000962
Y-001216
Y-00147
Y-001724
Y-001978
Y-002232
Y-002486
Y-00274
Y-002994
Y-0002
X-000754
T04
X-0006218Y-0078398
X-0018004Y-0003991
T05
X-0035466Y-0073409
Y-0013891
M30
