G04*
G04 #@! TF.GenerationSoftware,Altium Limited,Altium Designer,21.6.4 (81)*
G04*
G04 Layer_Color=2752767*
%FSLAX44Y44*%
%MOMM*%
G71*
G04*
G04 #@! TF.SameCoordinates,780AAD6F-6990-4CCC-B8E7-168995FE4FAA*
G04*
G04*
G04 #@! TF.FilePolarity,Positive*
G04*
G01*
G75*
%ADD32C,0.0508*%
%ADD33C,0.0677*%
D32*
X-46652Y-324232D02*
Y-320168D01*
X-42588D01*
Y-324232D01*
X-46652D01*
Y-527432D02*
Y-523368D01*
X-42588D01*
Y-527432D01*
X-46652D01*
Y-349632D02*
Y-345568D01*
X-42588D01*
Y-349632D01*
X-46652D01*
Y-375032D02*
Y-370968D01*
X-42588D01*
Y-375032D01*
X-46652D01*
Y-400432D02*
Y-396368D01*
X-42588D01*
Y-400432D01*
X-46652D01*
Y-425832D02*
Y-421768D01*
X-42588D01*
Y-425832D01*
X-46652D01*
Y-451232D02*
Y-447168D01*
X-42588D01*
Y-451232D01*
X-46652D01*
Y-476632D02*
Y-472568D01*
X-42588D01*
Y-476632D01*
X-46652D01*
Y-502032D02*
Y-497968D01*
X-42588D01*
Y-502032D01*
X-46652D01*
Y-552832D02*
Y-548768D01*
X-42588D01*
Y-552832D01*
X-46652D01*
X-230000Y-707832D02*
X-232032Y-703768D01*
X-227968D01*
X-230000Y-707832D01*
X-255400Y-47432D02*
X-257432Y-43368D01*
X-253368D01*
X-255400Y-47432D01*
Y-72832D02*
X-257432Y-68768D01*
X-253368D01*
X-255400Y-72832D01*
Y-98232D02*
X-257432Y-94168D01*
X-253368D01*
X-255400Y-98232D01*
Y-123632D02*
X-257432Y-119568D01*
X-253368D01*
X-255400Y-123632D01*
Y-149032D02*
X-257432Y-144968D01*
X-253368D01*
X-255400Y-149032D01*
Y-174432D02*
X-257432Y-170368D01*
X-253368D01*
X-255400Y-174432D01*
Y-199832D02*
X-257432Y-195768D01*
X-253368D01*
X-255400Y-199832D01*
Y-225232D02*
X-257432Y-221168D01*
X-253368D01*
X-255400Y-225232D01*
Y-250632D02*
X-257432Y-246568D01*
X-253368D01*
X-255400Y-250632D01*
Y-276032D02*
X-257432Y-271968D01*
X-253368D01*
X-255400Y-276032D01*
Y-301432D02*
X-257432Y-297368D01*
X-253368D01*
X-255400Y-301432D01*
Y-326832D02*
X-257432Y-322768D01*
X-253368D01*
X-255400Y-326832D01*
Y-352232D02*
X-257432Y-348168D01*
X-253368D01*
X-255400Y-352232D01*
Y-377632D02*
X-257432Y-373568D01*
X-253368D01*
X-255400Y-377632D01*
Y-403032D02*
X-257432Y-398968D01*
X-253368D01*
X-255400Y-403032D01*
Y-428432D02*
X-257432Y-424368D01*
X-253368D01*
X-255400Y-428432D01*
Y-453832D02*
X-257432Y-449768D01*
X-253368D01*
X-255400Y-453832D01*
Y-479232D02*
X-257432Y-475168D01*
X-253368D01*
X-255400Y-479232D01*
Y-504632D02*
X-257432Y-500568D01*
X-253368D01*
X-255400Y-504632D01*
Y-530032D02*
X-257432Y-525968D01*
X-253368D01*
X-255400Y-530032D01*
Y-555432D02*
X-257432Y-551368D01*
X-253368D01*
X-255400Y-555432D01*
Y-580832D02*
X-257432Y-576768D01*
X-253368D01*
X-255400Y-580832D01*
Y-606232D02*
X-257432Y-602168D01*
X-253368D01*
X-255400Y-606232D01*
Y-631632D02*
X-257432Y-627568D01*
X-253368D01*
X-255400Y-631632D01*
Y-657032D02*
X-257432Y-652968D01*
X-253368D01*
X-255400Y-657032D01*
Y-682432D02*
X-257432Y-678368D01*
X-253368D01*
X-255400Y-682432D01*
Y-707832D02*
X-257432Y-703768D01*
X-253368D01*
X-255400Y-707832D01*
X-230000Y-47432D02*
X-232032Y-43368D01*
X-227968D01*
X-230000Y-47432D01*
Y-72832D02*
X-232032Y-68768D01*
X-227968D01*
X-230000Y-72832D01*
Y-98232D02*
X-232032Y-94168D01*
X-227968D01*
X-230000Y-98232D01*
Y-123632D02*
X-232032Y-119568D01*
X-227968D01*
X-230000Y-123632D01*
Y-149032D02*
X-232032Y-144968D01*
X-227968D01*
X-230000Y-149032D01*
Y-174432D02*
X-232032Y-170368D01*
X-227968D01*
X-230000Y-174432D01*
Y-199832D02*
X-232032Y-195768D01*
X-227968D01*
X-230000Y-199832D01*
Y-225232D02*
X-232032Y-221168D01*
X-227968D01*
X-230000Y-225232D01*
Y-250632D02*
X-232032Y-246568D01*
X-227968D01*
X-230000Y-250632D01*
Y-276032D02*
X-232032Y-271968D01*
X-227968D01*
X-230000Y-276032D01*
Y-301432D02*
X-232032Y-297368D01*
X-227968D01*
X-230000Y-301432D01*
Y-326832D02*
X-232032Y-322768D01*
X-227968D01*
X-230000Y-326832D01*
Y-352232D02*
X-232032Y-348168D01*
X-227968D01*
X-230000Y-352232D01*
Y-377632D02*
X-232032Y-373568D01*
X-227968D01*
X-230000Y-377632D01*
Y-403032D02*
X-232032Y-398968D01*
X-227968D01*
X-230000Y-403032D01*
Y-428432D02*
X-232032Y-424368D01*
X-227968D01*
X-230000Y-428432D01*
Y-453832D02*
X-232032Y-449768D01*
X-227968D01*
X-230000Y-453832D01*
Y-479232D02*
X-232032Y-475168D01*
X-227968D01*
X-230000Y-479232D01*
Y-504632D02*
X-232032Y-500568D01*
X-227968D01*
X-230000Y-504632D01*
Y-530032D02*
X-232032Y-525968D01*
X-227968D01*
X-230000Y-530032D01*
Y-555432D02*
X-232032Y-551368D01*
X-227968D01*
X-230000Y-555432D01*
Y-580832D02*
X-232032Y-576768D01*
X-227968D01*
X-230000Y-580832D01*
Y-606232D02*
X-232032Y-602168D01*
X-227968D01*
X-230000Y-606232D01*
Y-631632D02*
X-232032Y-627568D01*
X-227968D01*
X-230000Y-631632D01*
Y-657032D02*
X-232032Y-652968D01*
X-227968D01*
X-230000Y-657032D01*
Y-682432D02*
X-232032Y-678368D01*
X-227968D01*
X-230000Y-682432D01*
X-255400Y-733232D02*
X-257432Y-729168D01*
X-253368D01*
X-255400Y-733232D01*
X-230000D02*
X-232032Y-729168D01*
X-227968D01*
X-230000Y-733232D01*
X-255400Y-22032D02*
X-257432Y-17968D01*
X-253368D01*
X-255400Y-22032D01*
X-230000D02*
X-232032Y-17968D01*
X-227968D01*
X-230000Y-22032D01*
X-360039Y-41942D02*
X-359024Y-40926D01*
X-358008D01*
X-359024Y-39910D01*
X-358008Y-38894D01*
X-359024D01*
X-360039Y-37878D01*
X-361055Y-38894D01*
X-362071D01*
X-361055Y-39910D01*
X-362071Y-40926D01*
X-361055D01*
X-360039Y-41942D01*
X-242180Y-786012D02*
X-241164Y-784996D01*
X-240148D01*
X-241164Y-783980D01*
X-240148Y-782964D01*
X-241164D01*
X-242180Y-781948D01*
X-243196Y-782964D01*
X-244212D01*
X-243196Y-783980D01*
X-244212Y-784996D01*
X-243196D01*
X-242180Y-786012D01*
D33*
X-172628Y-138910D02*
G03*
X-172628Y-138910I-2032J0D01*
G01*
X-172628Y-734090D02*
G03*
X-172628Y-734090I-2032J0D01*
G01*
M02*
