G04*
G04 #@! TF.GenerationSoftware,Altium Limited,Altium Designer,21.6.4 (81)*
G04*
G04 Layer_Physical_Order=2*
G04 Layer_Color=16711680*
%FSLAX44Y44*%
%MOMM*%
G71*
G04*
G04 #@! TF.SameCoordinates,780AAD6F-6990-4CCC-B8E7-168995FE4FAA*
G04*
G04*
G04 #@! TF.FilePolarity,Positive*
G04*
G01*
G75*
%ADD12C,0.2540*%
%ADD24C,1.8000*%
%ADD25C,5.0000*%
%ADD26C,1.5240*%
%ADD27C,4.8000*%
D12*
X-242180Y-783980D02*
X-224550D01*
D24*
X-44620Y-322200D02*
D03*
Y-525400D02*
D03*
Y-347600D02*
D03*
Y-373000D02*
D03*
Y-398400D02*
D03*
Y-423800D02*
D03*
Y-449200D02*
D03*
Y-474600D02*
D03*
Y-500000D02*
D03*
Y-550800D02*
D03*
D25*
X-174660Y-138910D02*
D03*
X-174660Y-734090D02*
D03*
D26*
X-230000Y-705800D02*
D03*
X-255400Y-45400D02*
D03*
Y-70800D02*
D03*
Y-96200D02*
D03*
Y-121600D02*
D03*
Y-147000D02*
D03*
Y-172400D02*
D03*
Y-197800D02*
D03*
Y-223200D02*
D03*
Y-248600D02*
D03*
Y-274000D02*
D03*
Y-299400D02*
D03*
Y-324800D02*
D03*
Y-350200D02*
D03*
Y-375600D02*
D03*
Y-401000D02*
D03*
Y-426400D02*
D03*
Y-451800D02*
D03*
Y-477200D02*
D03*
Y-502600D02*
D03*
Y-528000D02*
D03*
Y-553400D02*
D03*
Y-578800D02*
D03*
Y-604200D02*
D03*
Y-629600D02*
D03*
Y-655000D02*
D03*
Y-680400D02*
D03*
Y-705800D02*
D03*
X-230000Y-45400D02*
D03*
Y-70800D02*
D03*
Y-96200D02*
D03*
Y-121600D02*
D03*
Y-147000D02*
D03*
Y-172400D02*
D03*
Y-197800D02*
D03*
Y-223200D02*
D03*
Y-248600D02*
D03*
Y-274000D02*
D03*
Y-299400D02*
D03*
Y-324800D02*
D03*
Y-350200D02*
D03*
Y-375600D02*
D03*
Y-401000D02*
D03*
Y-426400D02*
D03*
Y-451800D02*
D03*
Y-477200D02*
D03*
Y-502600D02*
D03*
Y-528000D02*
D03*
Y-553400D02*
D03*
Y-578800D02*
D03*
Y-604200D02*
D03*
Y-629600D02*
D03*
Y-655000D02*
D03*
Y-680400D02*
D03*
X-255400Y-731200D02*
D03*
X-230000D02*
D03*
X-255400Y-20000D02*
D03*
X-230000D02*
D03*
D27*
X-360039Y-39910D02*
D03*
X-242180Y-783980D02*
D03*
M02*
