M48
;Layer_Color=9474304
;FILE_FORMAT=4:4
METRIC,LZ
;TYPE=PLATED
T1F00S00C1.0000
T2F00S00C1.0200
T3F00S00C3.2000
T4F00S00C4.0000
%
T01
X-0004462Y-005508
Y-005254
Y-005
Y-004746
Y-004492
Y-004238
Y-003984
Y-00373
Y-003476
Y-003222
T02
X-002554Y-007312
Y-007058
X-0023
Y-006804
X-002554
Y-00655
Y-006296
Y-006042
Y-005788
Y-005534
Y-00528
Y-005026
Y-004772
Y-004518
Y-004264
Y-00401
Y-003756
Y-003502
X-0023
Y-003756
Y-00401
Y-004264
Y-004518
Y-004772
Y-005026
Y-00528
Y-005534
Y-005788
Y-006042
Y-006296
Y-00655
Y-007312
Y-003248
X-002554
Y-002994
Y-00274
Y-002486
Y-002232
Y-001978
Y-001724
Y-00147
Y-001216
Y-000962
Y-000708
Y-000454
X-0023
Y-000708
Y-000962
Y-001216
Y-00147
Y-001724
Y-001978
Y-002232
Y-002486
Y-00274
Y-002994
Y-0002
X-002554
T03
X-0024218Y-0078398
X-00360039Y-0003991
T04
X-0017466Y-0073409
X-0017466Y-0013891
M30
